<?xml version="1.0" encoding="utf-8"?>
<!-- Generator: Adobe Illustrator 24.2.3, SVG Export Plug-In . SVG Version: 6.00 Build 0)  -->
<svg version="1.1" id="Layer_1" xmlns="http://www.w3.org/2000/svg" xmlns:xlink="http://www.w3.org/1999/xlink" x="0px" y="0px"
	 viewBox="0 0 480.5 130.1" style="enable-background:new 0 0 480.5 130.1;" xml:space="preserve">
<style type="text/css">
	.st0{fill:none;}
	.st1{fill:#424143;}
	.st2{fill:#CCC7C6;}
	.st3{fill:#595A5C;}
	.st4{fill:#F15B2B;}
	.st5{fill:#F2F2F2;}
	.st6{fill:#0E0C0C;}
	.st7{fill:#373B40;}
	.st8{fill:#FFFFFF;}
	.st9{fill:#46494D;}
	.st10{fill:#A65B26;}
	.st11{fill:#C0BFBF;}
	.st12{fill:#C1742E;}
	.st13{fill:#D2D2D2;}
	.st14{fill:#FFFEFE;}
	.st15{fill:#2075BC;}
	.st16{fill:#414342;}
	.st17{fill:#D7878B;}
	.st18{fill:#010101;}
	.st19{fill:#C58946;}
	.st20{fill:#292F36;}
</style>
<g>
	<path class="st0" d="M78.4,104.8c-0.4,0.3-0.8,0.5-1.2,0.7c-0.9,0.5-1.8,0.9-2.6,1.2c-1.2,0.4-2.3,0.5-3.3,0.5
		c-0.7,0-1.4-0.2-2.1-0.3c-0.1,0-0.2-0.1-0.3-0.1c-2.4-0.9-4.2-2.8-5-5.1h-37c-0.9,2.2-2.6,4.2-5,5.1c-0.1,0-0.2,0.1-0.3,0.1
		c-0.6,0.2-1.3,0.3-2.1,0.3c-1,0-2.1-0.1-3.3-0.5c-0.8-0.3-1.7-0.6-2.6-1.2c-0.4-0.2-0.8-0.5-1.2-0.7c-4.8-3.2-4.3-7.5-0.5-11.1
		c1.3-1.2,2.6-1.9,4.1-2.3c-1.1-1.7-2-3.5-2.9-5.5c-0.6-1.4-5.6-12.7-2.9-13.2c2,2.3,2.7,5.3,3.9,8.1c1.4,3.3,3.5,6.7,5.9,9.3
		c0.4,0.4,0.8,0.8,1.2,1.3c1.1,0.2,2,0.5,2.8,0.9c0.2,0.1,0.4,0.1,0.5,0.2c0.4-2,1-4.1,1.9-6.1c-0.9-1.1-1.7-2.3-2.2-3.6
		c-1.1-2.6-1-7.3,0-10c0.2-0.5,0.5-1,0.8-1.6c-0.2-0.7-0.5-1.4-0.9-2c-3.2-6-6.2-12.2-6.4-19c-0.1-4.1-0.3-8.5,0.2-12.6
		c0.2-1.3,0.4-2.5,0.7-3.8c-2-1.3-3.5-2.4-4.6-3.6c-3.7-3.7-3.9-7.6-3.8-14.9c0.1-2.4-1.8-6.8,0.2-8.3c3.9-3,13,6,15.6,8.2
		c3.2,2.6,7.6,5.1,9.1,8.9c0.4,0,0.7-0.1,1.1-0.1c2.8-0.2,5.6-0.2,8.3,0c2.9-0.4,6-0.5,9-0.5c0.8,0,1.7,0.1,2.5,0.1
		c1.7-3.6,5.9-6,8.9-8.5c2.7-2,11.7-11.1,15.6-8c2,1.6,0.2,5.9,0.2,8.3c0.2,7.2-0.1,11.1-3.8,14.9c-1.3,1.3-3,2.6-5.3,4
		c-0.1,0.1-0.2,0.1-0.3,0.2c0.1,0.5,0.2,1.1,0.3,1.6c0.7,4,0.7,8.4,0.8,12.5C72.7,55.4,70,61.8,67,68c-0.2,0.5-0.4,1-0.6,1.6
		c1.3,2.3,2,5.2,1.6,9.2c-0.3,3-1.4,5.3-2.9,7.3c0.9,2.1,1.6,4.2,2,6.2c1-0.5,2.2-0.8,3.6-0.9c3.5-0.3,5.8,0.2,8.2,2.4
		C82.7,97.4,83.2,101.6,78.4,104.8z"/>
	<path class="st1" d="M20,91.3c0.3,0,0.6,0.1,1,0.1c-0.4-0.4-0.8-0.9-1.2-1.3c-2.3-2.6-4.5-6-5.9-9.3c-1.2-2.8-1.8-5.9-3.9-8.1
		c-2.6,0.6,2.3,11.9,3,13.3c0.9,1.9,1.8,3.8,2.9,5.5C17.1,91.2,18.5,91.2,20,91.3z"/>
	<path class="st2" d="M57.4,92.6c-4.7,2.2-9.9,2.1-15,1.8c-2.8-0.2-5.6-0.8-8.3-2c-0.2,2.2-0.3,4.9,0.1,8h23.1
		C57.7,97.4,57.6,94.8,57.4,92.6z"/>
	<path class="st3" d="M33.2,100.4h1c-0.3-3.1-0.3-5.8-0.1-8c-1.9-0.8-3.7-1.9-5.4-3.4c-0.9-0.8-1.8-1.6-2.6-2.6
		c-0.9,2-1.5,4.1-1.9,6.1C28,94,31.9,97.6,33.2,100.4z"/>
	<path class="st3" d="M62.3,89.2c-1.5,1.5-3.2,2.6-4.9,3.4c0.2,2.2,0.3,4.8-0.1,7.8h0.3c1.3-2.9,5.5-6.7,9.4-8.1
		c0.1,0,0.1-0.1,0.2-0.1c-0.4-2.1-1.1-4.2-2-6.2C64.3,87.1,63.3,88.2,62.3,89.2z"/>
	<path class="st4" d="M28.8,89.1c1.6,1.4,3.5,2.5,5.4,3.4c2.7,1.2,5.5,1.8,8.3,2c5.1,0.3,10.3,0.4,15-1.8c1.7-0.8,3.4-1.9,4.9-3.4
		c1-1,2-2,2.8-3.2c1.5-2,2.6-4.2,2.9-7.3c0.4-3.9-0.2-6.9-1.6-9.2c0,0.1-0.1,0.2-0.1,0.3c-1.3,4.6-0.3,9.8-3.7,13.9
		c-2.3,2.8-7.2,5.5-10.6,7.2c-1.9,1-4,1.2-6,1.1c-2,0.3-4.1,0.1-6.1-0.7c-3.5-1.5-8.5-4-10.9-6.6c-3.4-3.7-2.8-8.8-4.2-13.3
		c0-0.1,0-0.1,0-0.2c-0.3,0.5-0.6,1-0.8,1.6c-1.1,2.7-1.1,7.4,0,10c0.5,1.3,1.3,2.5,2.2,3.6C27,87.4,27.9,88.3,28.8,89.1z"/>
	<path class="st3" d="M39.7,52.7c1-4.7,0.8-10.2,0.5-15c-0.2-3.6-0.8-7.2-2.2-10.6c-0.4-1-1.2-2-1.9-3c-0.4,0-0.7,0.1-1.1,0.1
		c0.6,1.5,0.8,3.2,0.2,5.2c-0.1,0.5-0.3,1-0.5,1.3c-1.2,2.8-3.1,2.6-6,3c-2.8,0.3-4.5,1.8-6.7,1.7c-0.9,0-1.8-0.3-3-1
		c-0.2-0.1-0.4-0.3-0.6-0.4c-0.3,1.2-0.5,2.5-0.7,3.8c-0.5,4.1-0.3,8.5-0.2,12.6c0.2,6.8,3.2,13.1,6.4,19c0.4,0.7,0.6,1.3,0.9,2
		c0,0.1,0,0.1,0,0.2C29,64,37.9,61.4,39.7,52.7z M29,44.6c1.6,0.2,5.2,0.3,6.1,1.9c2.6,4.4-4.6,6.8-7.4,4.6
		C24.9,48.9,24.6,44.1,29,44.6z"/>
	<path class="st3" d="M53.3,25.6c-0.7,5-2.1,10-2.3,15c-0.2,4.4,0.3,9.9,2.2,14c1.8,3.8,5.8,6,8.7,9.2c1.8,2,3.3,4,4.4,6.1
		c0-0.1,0.1-0.2,0.1-0.3c0.2-0.5,0.4-1.1,0.6-1.6c2.9-6.2,5.6-12.6,5.5-19.4c-0.1-4.1-0.1-8.5-0.8-12.5c-0.1-0.5-0.2-1.1-0.3-1.6
		c-1,0.6-1.8,0.8-2.6,0.8c-2.2,0.1-3.9-1.4-6.7-1.7c-2.9-0.3-4.9-0.2-6-3c-0.2-0.4-0.3-0.8-0.5-1.3c-0.6-2.2-0.3-4,0.4-5.6
		c-0.8-0.1-1.7-0.1-2.5-0.1c0,0,0,0.1,0,0.2C53.5,24.4,53.4,25,53.3,25.6z M56,46.5c0.9-1.6,4.5-1.7,6.1-1.9
		c4.4-0.5,4.1,4.3,1.3,6.5S53.4,50.9,56,46.5z"/>
	<path class="st5" d="M40.2,37.7c0.3,4.7,0.5,10.2-0.5,15C37.9,61.4,29,64,24.9,71.4c1.4,4.4,0.8,9.5,4.2,13.3
		c2.4,2.6,7.5,5.1,10.9,6.6c2,0.9,4,1,6.1,0.7c2,0.2,4.1-0.1,6-1.1c3.4-1.7,8.3-4.4,10.6-7.2c3.4-4,2.4-9.3,3.7-13.9
		c-1.1-2.1-2.5-4.1-4.4-6.1c-2.9-3.2-6.9-5.4-8.7-9.2c-1.9-4.1-2.4-9.5-2.2-14c0.2-5,1.6-10,2.3-15c0.1-0.6,0.1-1.2,0.1-1.8
		c0,0,0-0.1,0-0.2c-3-0.1-6.1,0.1-9,0.5c-2.7-0.2-5.5-0.2-8.3,0c0.7,1,1.5,2,1.9,3C39.4,30.5,40,34.1,40.2,37.7z M45.7,76.9
		c3,0.1,7.8-3.3,8.8,1c0.2,0.8,0.2,1.6,0.1,2.3c-1,5.8-11.2,7.2-16.2,3.7c-2-1.4-2.3-3.8-2.2-6C36.5,72.9,42.8,76.7,45.7,76.9z
		 M55,88.1c-0.5,1.4-2.1,1.7-3.2,1.7c0.1,0,0.4,0,0.5,0c0,0-0.3,0-0.5,0c0,0-0.1,0,0,0l0,0c-1.9,0-4-0.5-5.8-1.2
		c-1-0.4-2,0.3-3.1,0.5c-1,0.2-2.1,0.2-3.2,0.2c-1.8,0.2-5-1.3-3.7-3.6c1-1.8,2.4,0.3,1.3,0.5c-1.2,0.2,0.5,1.8,1.1,1.9
		c1.9,0.1,4.1,0.1,5.9-0.6c1.7-0.6,3.5,0.5,5.2,0.8c1.3,0.2,2.7,0.6,3.9,0c1.5-0.7-0.2-2.4,0.7-3C55.2,84.4,55.3,87.4,55,88.1z"/>
	<path class="st6" d="M36.2,77.9c-0.1,2.1,0.2,4.6,2.2,6c4.9,3.5,15.2,2.1,16.2-3.7c0.1-0.7,0.1-1.5-0.1-2.3c-1-4.4-5.7-0.9-8.8-1
		C42.8,76.7,36.5,72.9,36.2,77.9z"/>
	<path class="st3" d="M55.6,29.4c0.1,0.5,0.3,1,0.5,1.3c-0.1-1.8,0.3-3.7,1.3-5.2c2.1-3.1,5.8-5.4,9.1-6.9c2.7-1.2,4.7-3.3,7-4.9
		c1.4-1,1.7-0.6,2.8,0.1c0.8,0.5,0.9-0.1,1.3,0.9c0.3,0.6-0.1,1.6-0.2,2.2c-0.5,5.1-1.5,9.7-4.3,14.1c-1.2,1.8-2.6,3.3-4.3,4.4
		c0.8,0,1.6-0.3,2.6-0.8c0.1-0.1,0.2-0.1,0.3-0.2c2.3-1.4,4-2.7,5.3-4c3.7-3.7,3.9-7.6,3.8-14.9c-0.1-2.4,1.8-6.8-0.2-8.3
		c-3.9-3-13,6-15.6,8.2c-3,2.5-7.3,4.9-8.9,8.5C55.2,25.4,55,27.2,55.6,29.4z"/>
	<path class="st7" d="M73.1,31c2.9-4.4,3.8-8.9,4.3-14.1c0.1-0.6,0.4-1.6,0.2-2.2c-0.4-1-0.5-0.4-1.3-0.9c-1.2-0.7-1.4-1.1-2.8-0.1
		c-2.4,1.7-4.3,3.7-7,4.9c-3.3,1.5-6.9,3.7-9.1,6.9c-1,1.5-1.4,3.4-1.3,5.2c1.2,2.8,3.1,2.6,6,3c2.8,0.3,4.5,1.8,6.7,1.7
		C70.5,34.2,71.9,32.7,73.1,31z"/>
	<path class="st3" d="M22.1,35.3c-1.8-1.1-3.2-2.6-4.3-4.4c-2.9-4.4-3.8-9-4.3-14.1c-0.1-0.6-0.4-1.6-0.2-2.2c0.4-1,0.5-0.4,1.3-0.9
		c1.1-0.7,1.4-1.1,2.8-0.1c2.4,1.7,4.3,3.7,7,4.9c3.3,1.5,6.9,3.7,9.1,6.9c1,1.5,1.4,3.4,1.3,5.2c0.2-0.4,0.3-0.8,0.5-1.3
		c0.5-2,0.4-3.7-0.2-5.2c-1.5-3.8-6-6.3-9.1-8.9C23.3,13,14.3,4,10.4,7c-2,1.6-0.1,5.9-0.2,8.3c-0.1,7.2,0.1,11.1,3.8,14.9
		c1.2,1.2,2.7,2.4,4.6,3.6c0.2,0.1,0.4,0.3,0.6,0.4C20.3,35,21.2,35.3,22.1,35.3z"/>
	<path class="st7" d="M33.5,25.5c-2.1-3.1-5.8-5.4-9.1-6.9c-2.7-1.2-4.7-3.3-7-4.9c-1.4-1-1.7-0.6-2.8,0.1c-0.9,0.5-0.9-0.1-1.3,0.9
		c-0.3,0.6,0.1,1.6,0.2,2.2C14,22,15,26.6,17.8,31c1.1,1.8,2.6,3.3,4.3,4.4c2.2,0.1,3.9-1.4,6.7-1.7c2.9-0.3,4.9-0.2,6.1-3
		C34.9,28.8,34.5,27,33.5,25.5z"/>
	<path class="st0" d="M51.8,89.8C51.8,89.8,51.7,89.8,51.8,89.8"/>
	<path class="st0" d="M52.3,89.8c0,0-0.3,0-0.5,0"/>
	<path class="st6" d="M54.1,85.1c-0.9,0.6,0.8,2.3-0.7,3c-1.2,0.6-2.7,0.2-3.9,0c-1.8-0.3-3.6-1.4-5.2-0.8c-1.8,0.7-4,0.7-5.9,0.6
		c-0.6,0-2.2-1.6-1.1-1.9c1-0.2-0.4-2.3-1.3-0.5c-1.3,2.3,1.9,3.8,3.7,3.6c1.1,0,2.1,0,3.2-0.2S45,88,46,88.4c1.8,0.8,4,1.2,5.8,1.2
		c1.2,0,2.7-0.3,3.2-1.7C55.3,87.4,55.2,84.4,54.1,85.1z"/>
	<path class="st8" d="M63.4,51.1c2.8-2.2,3.1-7-1.3-6.5c-1.6,0.2-5.1,0.3-6.1,1.9C53.4,50.9,60.6,53.3,63.4,51.1z M59.4,46.6
		c0.5-0.1,1.4-0.2,2.3-0.2c0.8,0.1,1.6,0.4,1.8,1c0.2,0.8-2.7,1.1-3.4,1.4c-0.8,0.3-2.3,1.5-3.2,0.9C55.3,48.5,58.3,46.8,59.4,46.6z
		"/>
	<path class="st8" d="M27.7,51.1c2.8,2.2,9.9-0.2,7.3-4.6c-0.9-1.6-4.5-1.7-6.1-1.9C24.6,44.1,24.9,48.9,27.7,51.1z M29.2,46.4
		c0.9-0.1,1.8,0,2.3,0.2c1,0.2,4.1,1.9,2.5,3.2c-0.8,0.7-2.3-0.5-3.2-0.9c-0.8-0.3-3.6-0.7-3.4-1.4S28.3,46.5,29.2,46.4z"/>
	<path class="st6" d="M30.9,48.9c0.9,0.3,2.3,1.5,3.2,0.9c1.5-1.2-1.5-2.9-2.5-3.2c-0.5-0.1-1.4-0.2-2.3-0.2c-0.8,0.1-1.6,0.4-1.8,1
		C27.3,48.2,30.1,48.6,30.9,48.9z"/>
	<path class="st6" d="M60,48.9c0.8-0.3,3.6-0.7,3.4-1.4c-0.2-0.7-0.9-1-1.8-1s-1.8,0-2.3,0.2c-1,0.2-4.1,1.9-2.5,3.2
		C57.7,50.4,59.1,49.2,60,48.9z"/>
	<path class="st5" d="M27.2,100.4h5.9c-1.3-2.8-5.1-6.4-8.8-7.9c-0.2-0.1-0.4-0.1-0.5-0.2C27,94,28,97.3,27.2,100.4z"/>
	<path class="st5" d="M57.6,100.4h5.9c-0.7-3.1,0.3-6.4,3.5-8.1C63.1,93.7,59,97.5,57.6,100.4z"/>
	<path class="st5" d="M70.7,91.3c-1.4,0.1-2.6,0.4-3.6,0.9c-0.1,0-0.1,0.1-0.2,0.1c-3.2,1.6-4.2,5-3.5,8.1c0.1,0.4,0.2,0.8,0.4,1.3
		c0.9,2.2,2.6,4.2,5.1,5.1c0.1,0,0.2,0.1,0.3,0.1c0.3-0.5,0.7-1,0.9-1.6c0.3-0.9,0.6-1.8,0.9-2.6c0.1-0.3,0.3-0.7,0.6-0.9
		c0.9,1.7,0.2,3.6-0.3,5.2c0,0.1,0,0.1-0.1,0.2c1,0,2.1-0.1,3.3-0.5v-0.1c0.3-0.7,0.8-1.2,1-1.9c0.3-0.9,0.6-1.8,0.9-2.6
		c0.1-0.3,0.3-0.7,0.6-0.9c0.8,1.3,0.4,2.9,0,4.3c0.4-0.2,0.8-0.5,1.2-0.7c4.8-3.2,4.3-7.5,0.5-11.1C76.5,91.5,74.3,91.1,70.7,91.3z
		"/>
	<path class="st9" d="M77.2,101.3c-0.4,0.2-0.5,0.5-0.6,0.9c-0.4,0.9-0.6,1.7-0.9,2.6c-0.2,0.7-0.7,1.2-1,1.9c0,0,0,0,0,0.1
		c0.8-0.3,1.7-0.6,2.6-1.2C77.7,104.2,78,102.6,77.2,101.3z"/>
	<path class="st9" d="M71.7,101.8c-0.4,0.2-0.5,0.5-0.6,0.9c-0.4,0.9-0.6,1.7-0.9,2.6c-0.2,0.6-0.6,1.1-0.9,1.6
		c0.7,0.2,1.3,0.3,2.1,0.3c0-0.1,0-0.1,0.1-0.2C72,105.3,72.7,103.4,71.7,101.8z"/>
	<path class="st5" d="M27.2,100.4c0.7-3.1-0.3-6.4-3.5-8.1c-0.8-0.4-1.7-0.7-2.8-0.9c-0.3-0.1-0.6-0.1-1-0.1
		c-1.6-0.1-2.9-0.1-4.1,0.2c-1.5,0.3-2.8,1-4.1,2.3c-3.8,3.6-4.3,7.8,0.5,11.1c0.4,0.3,0.8,0.5,1.2,0.7c-0.4-1.4-0.8-2.9,0-4.3
		c0.4,0.2,0.5,0.5,0.6,0.9c0.4,0.9,0.6,1.7,0.9,2.6c0.2,0.7,0.7,1.2,1,1.9c0,0,0,0,0,0.1c1.2,0.4,2.3,0.5,3.3,0.5
		c0-0.1,0-0.1-0.1-0.2c-0.5-1.7-1.3-3.6-0.3-5.2c0.4,0.2,0.5,0.5,0.6,0.9c0.4,0.9,0.6,1.7,0.9,2.6c0.2,0.6,0.6,1.1,0.9,1.6
		c0.1,0,0.2-0.1,0.3-0.1c2.4-0.9,4.2-2.8,5-5.1C27,101.2,27.1,100.8,27.2,100.4z"/>
	<path class="st9" d="M15.1,104.8c-0.3-0.9-0.6-1.8-0.9-2.6c-0.1-0.3-0.3-0.7-0.6-0.9c-0.8,1.3-0.4,2.9,0,4.3
		c0.9,0.5,1.8,0.9,2.6,1.2v-0.1C15.8,106,15.3,105.5,15.1,104.8z"/>
	<path class="st9" d="M19.7,102.6c-0.1-0.3-0.3-0.7-0.6-0.9c-0.9,1.7-0.2,3.6,0.3,5.2c0,0.1,0,0.1,0.1,0.2c0.7,0,1.4-0.2,2.1-0.3
		c-0.3-0.5-0.7-1-0.9-1.6C20.3,104.4,20,103.5,19.7,102.6z"/>
	<path class="st8" d="M40.2,80.9c1.7-0.4,3.2-1.7,3.3-2.8c0.2-1.1-1.1-1.6-2.8-1.2s-3.2,1.7-3.3,2.8C37.2,80.8,38.5,81.4,40.2,80.9z
		"/>
</g>
<g>
	<g>
		<g>
			<path class="st10" d="M459.7,100.2c0.2-0.2,0.5-0.3,0.8-0.5c0.9-1.6,1.7-3.6,1.5-5.1c-2.9,0.8-5.6,1.4-8.7,1.3
				c0.8-1.9,2.5-4,2.9-6.1c-0.1,0.3-5.7-0.3-9-1c-3.3,3.1-6.3,7.1-8.3,10.7c-0.1,0.2-0.2,0.4-0.4,0.7H459.7L459.7,100.2z"/>
			<path class="st11" d="M450.9,90.7c-0.4,2.2-2.1,4.2-2.9,6.1c3.1,0.2,5.8-0.5,8.7-1.3c0.2,1.4-0.5,3.2-1.3,4.8h0.3
				c1.6-1.2,3.2-2.4,4.5-3.9c0.2-0.2,0.4-0.5,0.6-0.7c1.5-2,2.9-4.2,3.3-6.8c0.1-0.8,1.5-8.8,1.5-8.8c-0.3,0.1-2.5,1.2-2.9,1.3
				c0.5-1,0.3-1.7,0.6-2.7c-4.2,2.7-9.2,3.9-13.7,5.8c-1.3,0.6-2.6,1.2-3.8,2c-1.3,0.9-2.7,2-4,3.2
				C445.2,90.4,450.9,90.9,450.9,90.7z"/>
		</g>
		<path class="st12" d="M445.2,100.2c0.2-3.1,0-6.2-0.3-9.5c-0.8-8.3-2.5-16.1-9.5-19.7c-2.9-1.5-5.7-3.5-8.9-4.1
			c-6-1.1-12.1-1.9-18.1-1.9c-7.5,0-14.4,4.2-21.6,5.8c-6.2,1.3-7.8,12.6-8,19c-0.1,3.2-0.9,7.2,0,10.4
			C378.8,100.2,445.2,100.2,445.2,100.2z"/>
		<path class="st13" d="M388.3,100.2H435c-0.6-4.8-2-10.8-3.8-14.1c-4.8-8.9-15-8.3-22.1-7.8c-10,0.7-21.5,4.5-20.9,21.2
			C388.3,99.8,388.3,100,388.3,100.2z"/>
		<g>
			<g>
				<path class="st12" d="M451.4,100.2c-0.3-0.2-0.6-0.3-0.9-0.4c-5.1-2.1-10.2-3.2-15.5-1c-1.1,0.5-1.9,0.9-2.4,1.4H451.4z"/>
			</g>
			<g>
				<path class="st12" d="M391,100.2c-0.5-0.5-1.3-0.9-2.4-1.4c-5.3-2.2-10.4-1.1-15.5,1c-0.3,0.1-0.6,0.3-0.9,0.4H391z"/>
			</g>
		</g>
		<g>
			<g>
				<path class="st14" d="M428.5,100.2c-0.1-2,0-4,0.3-5.4c0.5-3.3,1.7-8.4,4.8-10.6c-1.6-1.4-4-1.7-7.3,0c-2.4,1.2-4.1,2.7-5.4,4.4
					c-2.5,3.3-3.1,7.3-3,11.6H428.5z"/>
				<path class="st12" d="M436.9,100.2c0.1-0.9,0.1-1.9,0.1-2.8c0.1-4.6-0.5-10.6-3.4-13.1c-3.1,2.2-4.3,7.3-4.8,10.6
					c-0.2,1.4-0.4,3.4-0.3,5.4L436.9,100.2L436.9,100.2z"/>
			</g>
			<g>
				<path class="st14" d="M395,94.9c0.2,1.4,0.4,3.4,0.3,5.4h10.6c0.1-4.3-0.6-8.3-3-11.6c-1.3-1.7-3-3.2-5.4-4.4
					c-3.4-1.8-5.7-1.4-7.3,0C393.3,86.4,394.4,91.5,395,94.9z"/>
				<path class="st12" d="M386.9,100.2h8.4c0.1-2,0-4-0.3-5.4c-0.5-3.3-1.7-8.4-4.8-10.6c-2.9,2.5-3.5,8.5-3.4,13.1
					C386.8,98.4,386.8,99.3,386.9,100.2z"/>
			</g>
		</g>
		<path class="st14" d="M380.5,88.7c0,2.7,1.5,6.9,3.1,8.6c0.2-0.8,1-1.5,1.2-2.1c0,0,1.8,3.1,3,5.1h1.6c0.1-0.9,0.2-1.8,0.3-2.5
			c0.6,0.8,1.1,1.6,1.6,2.5h41.3c0.5-0.6,1-1.3,1.5-1.9c0,0.6-0.1,1.3-0.2,1.9h2.2c1.4-2,2.3-4.9,3.5-6.2c0.5,1.1,0.7,2.9,1.3,3.7
			c1.6-3,1.5-6.2,1.9-9.5c1,0.6,1.7,2.3,2,3.5c1.3-2.2,0.5-5.9,0.8-8.4c0.5-3.4,0.4-6.6-1.4-9.5c-6-9.7-17.7-15-27.8-16
			c-1.7-0.2-3.3-0.2-5-0.2c-1.7-0.1-3.4,0-5,0.2c-5.6,0.6-10.5,3.2-15.9,4.3c-4.4,0.9-8.7,4-11.5,7.8c1.2-0.2,2.6-0.7,3.8-0.7
			c-1.9-0.1-5.1,6.8-5.7,8.6c-1.2,4.1,1,9.1,1.3,13.2C379.1,90.4,380,89.6,380.5,88.7z"/>
		<path class="st11" d="M442.8,85.4c-6.5,2.3-13.6,9.4-14.5,13.9h5c0.3-0.3,0.5-0.7,0.8-1c0,0.3,0,0.7-0.1,1h2.6
			c1.1-1.9,1.9-4.2,3-5.3c0.5,1.1,0.7,2.9,1.3,3.7c1.6-3,1.5-6.2,1.9-9.5c1,0.6,1.7,2.3,2,3.5c1.1-1.9,0.7-4.9,0.7-7.3
			C444.5,84.7,443.6,85,442.8,85.4z"/>
		<path class="st11" d="M383,85.4c-1.5-0.8-3.3-1.3-5.5-1.5c-0.1,0-0.3,0-0.4,0c0.4,2.4,1.1,4.9,1.3,7.1c0.7-0.6,1.6-1.4,2.1-2.3
			c0,2.7,1.5,6.9,3.1,8.6c0.2-0.8,1-1.5,1.2-2.1c0,0,1.6,2.8,2.9,4.8c0.1-0.2,0.1-0.4,0.2-0.6h1.7c0.1-0.6,0.1-1.1,0.1-1.6
			c0.4,0.5,0.8,1,1.1,1.6h6.8C396.6,94.9,389.5,87.7,383,85.4z"/>
		<path class="st11" d="M425.7,75c-2.5-8.2-14.7-10-21.1-6.4c-7.9,4.5-10,17.4-0.6,21.4c4.9,2.1,12.1,2.4,16.6-0.3
			C425.5,86.8,427.4,80.8,425.7,75z"/>
		<g>
			<path class="st15" d="M440.8,65.8c1.4,2.5,1.5,6.9,0.1,9.4c-1.4,2.3-4,4.4-6.4,5.8c-5.3,3.2-11.9,4.7-18.3,5
				c-9.3,0.4-19,0.4-26.6-4.9c-3.8-2.6-7-5.3-7.7-9.8c-1.8-11.6,10.6-14.3,21.1-16c9.9-1.6,25.1-2.7,32.6,4.7
				C437.2,61.7,439.7,63.8,440.8,65.8z"/>
		</g>
		<g>
			<path class="st14" d="M425.5,72.9c-2.5-8.2-14.7-10-21.1-6.4c-7.9,4.5-10,17.4-0.6,21.4c4.9,2.1,12.1,2.4,16.6-0.3
				C425.3,84.7,427.2,78.6,425.5,72.9z"/>
			<path class="st12" d="M447.8,62.3c-0.5-11-1.3-22.4-3.5-33.2c-0.8-3.6-1.8-8.7-4.4-11.7c-4-4.4-9.9-4.6-15.6-4.8
				c-4.1-0.1-8.3,0-12.4,0.2c-4.1-0.2-8.3-0.3-12.4-0.2c-5.7,0.1-11.6,0.4-15.6,4.8c-2.6,2.9-3.7,8-4.4,11.7
				c-2.3,10.8-3,22.1-3.5,33.2c-0.2,3.9,2,9.4,5.4,11.8c4.4,3,11.1,0.5,16.1,1.3c4.8,0.8,9.1,1.7,13.9,1.8l0,0c0.2,0,0.4,0,0.5,0
				c0.2,0,0.4,0,0.5,0l0,0c4.8-0.1,9.1-0.9,13.9-1.8c5-0.9,11.7,1.7,16.1-1.3C445.8,71.8,448,66.2,447.8,62.3z"/>
			<g>
				<path class="st16" d="M435.4,61.8c-6.3,5.8-19.1-7.5-21.7-13.2c-3.6-7.9-1.1-22.5,7.6-25.3c9.3-3,19,9.5,18.4,18.5
					c-0.3,3.4-1.9,6.7-2.4,10.1C436.8,54.7,437.6,59.7,435.4,61.8z"/>
				<path class="st16" d="M388.3,61.8c6.3,5.8,19.1-7.5,21.7-13.2c3.6-7.9,1.1-22.5-7.6-25.3c-9.3-3-19,9.5-18.4,18.5
					c0.3,3.4,1.9,6.7,2.4,10.1C386.9,54.7,386,59.7,388.3,61.8z"/>
			</g>
			<path class="st17" d="M417.9,76.3c-1-0.8-2.7-0.9-3.7-1.8c-0.8-0.7-1.6-3.2-2.7-3.2c-1,0-1.5,2.1-2.2,2.7
				c-1.6,1.6-4.9,1.6-4.7,4.7c0.1,2.7,2.9,4.8,5.2,5.1c3.7,0.5,10-0.8,8.9-6C418.7,77.1,418.4,76.6,417.9,76.3z"/>
			<path class="st14" d="M413.9,25.3c-0.4-0.3-0.8-0.6-1.4-0.8c-4.4-1.5-6.1,2.5-6.1,5.9c0,4.4,0.1,6.2-3,9.2
				c-2.8,2.7-6.2,4.9-8.8,7.9c-3.8,4.4-5.9,9.9-6.5,15.7s-1.2,13.3,5.4,15.7c4.4,1.6,5.6-2.6,9.6-2.8c1.4-0.1,2.5,0.3,3.9,0
				c1.1-0.2,2.5-0.8,3.4-1.7c0.9-1,1-2.8,2.6-2.4c1.1,0.2,1.4,1.8,2,2.4c0.9,1,2.1,1.5,3.2,1.9c2.8,1,5.8-0.2,8.4,1.2
				c7.7,4.2,9.5-6.3,9.5-12.3c0-11-4.4-17.5-13-23.5c-3.1-2.2-5.8-2.8-6.9-6.5C415.1,32.2,416.5,27.5,413.9,25.3z"/>
			<g>
				<path class="st18" d="M420.6,77.6c-2.4,0-4.4-0.6-6.1-1.8c-3-2.2-3.6-5.6-3.6-5.7s0-0.1,0-0.2V56.6c0-0.5,0.4-1,0.9-1
					s0.9,0.4,0.9,1v13.2c0.1,0.4,0.7,2.8,2.8,4.4c2.2,1.6,5.4,1.9,9.4,0.8c0.5-0.1,1,0.2,1.1,0.7s-0.2,1.1-0.7,1.2
					C423.7,77.4,422.1,77.6,420.6,77.6z"/>
				<path class="st18" d="M403,77.7c-1.4,0-3-0.2-4.7-0.7c-0.5-0.1-0.8-0.7-0.7-1.2c0.1-0.5,0.6-0.9,1.1-0.7c4,1,7.1,0.8,9.4-0.8
					c2.2-1.6,2.8-4,2.9-4.5V56.6c0-0.5,0.4-1,0.9-1s0.9,0.4,0.9,1v13.3c0,0.1,0,0.1,0,0.2c0,0.2-0.6,3.6-3.7,5.8
					C407.4,77.1,405.4,77.7,403,77.7z"/>
				<path class="st18" d="M421.7,52.8c-0.4,0.8-1.1,1.7-2.3,2.7c-4.2,3.4-21.1,3.5-17.1-5.6C404.4,44.9,424.7,46.3,421.7,52.8z"/>
				<g>
					<path class="st18" d="M392.9,35.7c0,3.6,1.8,6.5,3.9,6.5s3.9-2.9,3.9-6.5s-1.8-6.5-3.9-6.5C394.7,29.2,392.9,32.1,392.9,35.7z"
						/>
					<path class="st8" d="M397,33.5c-0.5,1.1-1.6,1.7-2.4,1.4s-1.1-1.5-0.6-2.6c0.5-1.1,1.6-1.7,2.4-1.4
						C397.3,31.2,397.5,32.4,397,33.5z"/>
					<path class="st8" d="M407.7,51.8c-1.6,0.8-3.2,0.8-3.7,0s0.5-2.1,2-2.9c1.6-0.8,3.2-0.8,3.7,0
						C410.2,49.8,409.2,51.1,407.7,51.8z"/>
				</g>
				<g>
					<path class="st18" d="M422.8,35.7c0,3.6,1.8,6.5,3.9,6.5s3.9-2.9,3.9-6.5s-1.8-6.5-3.9-6.5C424.6,29.2,422.8,32.1,422.8,35.7z"
						/>
					<path class="st8" d="M426.9,33.5c-0.5,1.1-1.6,1.7-2.4,1.4s-1.1-1.5-0.6-2.6c0.5-1.1,1.6-1.7,2.4-1.4
						C427.1,31.2,427.4,32.4,426.9,33.5z"/>
				</g>
			</g>
			<g>
				<path class="st16" d="M441.2,36.8c-1.6-6.5-7.3-11.7-6.6-18.6c0.4-4.2,1.5-4.2,4.3-5.5c5.3-2.4,10.4-1.6,14.9,2.4
					c2.7,2.5,5,5.4,7.8,7.8c2,1.7,5.8,3.7,7.1,6c3.9,7-3.4,12.4-7.5,16.4c-3.8,3.7-6.6,14.2-12.5,13.9
					C439.9,58.8,442.7,42.9,441.2,36.8z"/>
				<path class="st16" d="M382.4,36.8c1.6-6.5,7.3-11.7,6.6-18.6c-0.4-4.2-1.5-4.2-4.3-5.5c-5.3-2.4-10.4-1.6-14.9,2.4
					c-2.7,2.5-5,5.4-7.8,7.8c-2,1.7-5.8,3.7-7.1,6c-3.9,7,3.4,12.4,7.5,16.4c3.8,3.7,6.6,14.2,12.5,13.9
					C383.7,58.8,380.9,42.9,382.4,36.8z"/>
			</g>
		</g>
	</g>
	<g>
		<path class="st19" d="M362.5,100.3c0.8-2,2.1-4,3.9-5.8c3.7-3.8,6.6-8.8,12-8.3c7,0.6,16,9.2,17.1,14.2L362.5,100.3z"/>
		<path class="st19" d="M462.9,100.3c-0.8-2-2.1-4-3.9-5.8c-3.7-3.8-6.6-8.8-12-8.3c-7,0.6-16,9.2-17.1,14.2L462.9,100.3z"/>
		<g>
			<path class="st14" d="M449.4,85.3c5.1-0.4,8.4,0.3,11.9,3.6c5.5,5.3,6.2,11.6-0.8,16.4c-0.6,0.4-1.1,0.8-1.7,1.1
				c0.6-2.1,1.1-4.3,0-6.3c-0.5,0.3-0.7,0.8-0.9,1.3c-0.5,1.3-0.9,2.6-1.4,3.9c-0.4,1-1.1,1.8-1.5,2.8v0.1c-1.7,0.5-3.3,0.8-4.8,0.7
				c0-0.1,0.1-0.2,0.1-0.3c0.8-2.5,1.8-5.3,0.5-7.8c-0.5,0.3-0.7,0.8-0.9,1.3c-0.5,1.3-0.9,2.6-1.4,3.9c-0.3,0.9-0.9,1.6-1.3,2.4
				c-0.2-0.1-0.3-0.1-0.5-0.2C436.6,104.4,434.4,86.5,449.4,85.3z"/>
			<path class="st6" d="M456.6,105.3c0.5-1.3,0.9-2.6,1.4-3.9c0.2-0.5,0.4-1,0.9-1.3c1.1,2,0.6,4.2,0,6.3c-1.3,0.8-2.6,1.3-3.8,1.7
				V108C455.5,107.1,456.2,106.3,456.6,105.3z"/>
			<path class="st6" d="M450,102.1c0.2-0.5,0.4-1,0.9-1.3c1.4,2.4,0.3,5.3-0.5,7.8c0,0.1,0,0.2-0.1,0.3c-1.1,0-2.1-0.2-3-0.5
				c0.4-0.8,1-1.5,1.3-2.4C449.1,104.7,449.5,103.4,450,102.1z"/>
		</g>
		<g>
			<g>
				<path class="st14" d="M376,85.3c-5.1-0.4-8.4,0.3-11.9,3.6c-5.5,5.3-6.2,11.6,0.8,16.4c0.6,0.4,1.1,0.8,1.7,1.1
					c-0.6-2.1-1.1-4.3,0-6.3c0.5,0.3,0.7,0.8,0.9,1.3c0.5,1.3,0.9,2.6,1.4,3.9c0.4,1,1.1,1.8,1.5,2.8v0.1c1.7,0.5,3.3,0.8,4.8,0.7
					c0-0.1-0.1-0.2-0.1-0.3c-0.8-2.5-1.8-5.3-0.5-7.8c0.5,0.3,0.7,0.8,0.9,1.3c0.5,1.3,0.9,2.6,1.4,3.9c0.3,0.9,0.9,1.6,1.3,2.4
					c0.2-0.1,0.3-0.1,0.5-0.2C388.9,104.4,391,86.5,376,85.3z"/>
				<path class="st6" d="M368.9,105.3c-0.5-1.3-0.9-2.6-1.4-3.9c-0.2-0.5-0.4-1-0.9-1.3c-1.1,2-0.6,4.2,0,6.3
					c1.3,0.8,2.6,1.3,3.8,1.7V108C369.9,107.1,369.2,106.3,368.9,105.3z"/>
				<path class="st6" d="M375.5,102.1c-0.2-0.5-0.4-1-0.9-1.3c-1.4,2.4-0.3,5.3,0.5,7.8c0,0.1,0,0.2,0.1,0.3c1.1,0,2.1-0.2,3-0.5
					c-0.4-0.8-1-1.5-1.3-2.4C376.4,104.7,376,103.4,375.5,102.1z"/>
			</g>
		</g>
	</g>
</g>
<g>
	<path class="st20" d="M124.9,76.6c-0.7,0-1.6-0.1-4.6-0.1c-2.1,0-3.3,0.1-3.9,0.1l-1.8-6.3c-1.4,0.3-3.3,0.5-6.5,0.5
		c-3.3,0-5.3-0.2-6.7-0.5l-1.8,6.3c-0.5,0-1.6-0.1-3.6-0.1c-2.8,0-3.3,0.1-4,0.1l10.9-32.8c0.5,0,2.7-0.2,5.6-0.2s5,0.2,5.5,0.2
		L124.9,76.6z M113.1,64.8l-4.4-15.2h-1.1l-4.6,15.2c1.3,0.1,2.9,0.1,5.1,0.1C110.1,64.8,111.8,64.8,113.1,64.8z"/>
	<path class="st20" d="M155.6,58.7c0,11.6-8,18.3-17.9,18.3c-4.8,0-8.1-0.8-10.6-1.7c0-0.2,0.2-4.4,0.2-14.7
		c0-8.7-0.4-15.3-0.4-16.2c3.6-0.5,8.2-1,11.1-1C145.8,43.4,155.6,46.7,155.6,58.7z M148.3,58.6c0-5.7-2.4-8.6-10.7-8.6
		c-1.1,0-2.1,0.1-3.2,0.1c-0.1,2.7-0.2,5.7-0.2,10.3c0,5.1,0.1,8,0.1,10.4c1.1,0.1,1.9,0.1,2.5,0.1
		C143.8,70.8,148.3,67.1,148.3,58.6z"/>
	<path class="st20" d="M187.4,58.7c0,11.6-8,18.3-17.9,18.3c-4.8,0-8.1-0.8-10.6-1.7c0-0.2,0.2-4.4,0.2-14.7
		c0-8.7-0.4-15.3-0.4-16.2c3.6-0.5,8.2-1,11.1-1C177.6,43.4,187.4,46.7,187.4,58.7z M180.1,58.6c0-5.7-2.4-8.6-10.7-8.6
		c-1.1,0-2.1,0.1-3.2,0.1c-0.1,2.7-0.2,5.7-0.2,10.3c0,5.1,0.1,8,0.1,10.4c1.1,0.1,1.9,0.1,2.5,0.1
		C175.5,70.8,180.1,67.1,180.1,58.6z"/>
	<path class="st20" d="M230.7,76.6c-0.7,0-1.6-0.1-4.6-0.1c-2.1,0-3.3,0.1-3.9,0.1l-1.8-6.3c-1.4,0.3-3.3,0.5-6.5,0.5
		c-3.3,0-5.3-0.2-6.7-0.5l-1.8,6.3c-0.5,0-1.6-0.1-3.6-0.1c-2.8,0-3.3,0.1-4,0.1l10.9-32.8c0.5,0,2.7-0.2,5.6-0.2
		c2.8,0,5,0.2,5.5,0.2L230.7,76.6z M218.9,64.8l-4.4-15.2h-1.1l-4.6,15.2c1.3,0.1,2.9,0.1,5.1,0.1C216,64.8,217.7,64.8,218.9,64.8z"
		/>
	<path class="st20" d="M270.8,58.7c0,11.6-8,18.3-17.9,18.3c-4.8,0-8.1-0.8-10.6-1.7c0-0.2,0.2-4.4,0.2-14.7
		c0-8.7-0.4-15.3-0.4-16.2c3.6-0.5,8.2-1,11.1-1C261.1,43.4,270.8,46.7,270.8,58.7z M263.5,58.6c0-5.7-2.4-8.6-10.7-8.6
		c-1.1,0-2.1,0.1-3.2,0.1c-0.1,2.7-0.2,5.7-0.2,10.3c0,5.1,0.1,8,0.1,10.4c1.1,0.1,1.9,0.1,2.5,0.1C259,70.8,263.5,67.1,263.5,58.6z
		"/>
	<path class="st20" d="M273.7,60.1c0-10.8,7.9-16.7,17.3-16.7s17.3,5.9,17.3,16.7s-7.8,17.1-17.3,17.1S273.7,70.8,273.7,60.1z
		 M300.5,60.2c0-6.3-3.9-9.9-9.5-9.9c-5.6,0-9.5,3.6-9.5,9.9c0,6.4,3.8,10.2,9.5,10.2C296.7,70.3,300.5,66.5,300.5,60.2z"/>
	<path class="st20" d="M341.5,70.9c-2.5,3.7-7,6.2-13.7,6.2c-9,0-16.7-5.2-16.7-16.8c0-11.9,8.3-17,17.6-17c4.2,0,9.7,1.4,11,2.2
		l-0.7,7.4c-1.5-1.1-5.2-2.6-10.1-2.6c-5.3,0-10.2,3-10.2,9.9c-0.1,7.5,4.2,10.2,9.1,10.2c2.8,0,5-0.5,6.8-1.4v-4.9
		c-1,0.2-2.2,0.2-3.8,0.2c-2.6,0-5.2-0.4-5.6-0.5l-0.2-5.8c0.2,0,4.3,0.2,9.6,0.2c1.8,0,4.7-0.1,6.5-0.2
		C341,63.4,341.2,69.3,341.5,70.9z"/>
</g>
</svg>
