<?xml version="1.0" encoding="utf-8"?>
<!-- Generator: Adobe Illustrator 24.2.3, SVG Export Plug-In . SVG Version: 6.00 Build 0)  -->
<svg version="1.1" id="Layer_1" xmlns="http://www.w3.org/2000/svg" xmlns:xlink="http://www.w3.org/1999/xlink" x="0px" y="0px"
	 viewBox="0 0 480.51 130.12" style="enable-background:new 0 0 480.51 130.12;" xml:space="preserve">
<style type="text/css">
	.st0{fill:none;}
	.st1{fill:#424143;}
	.st2{fill:#CCC7C6;}
	.st3{fill:#595A5C;}
	.st4{fill:#F15B2B;}
	.st5{fill:#F2F2F2;}
	.st6{fill:#0E0C0C;}
	.st7{fill:#373B40;}
	.st8{fill:none;stroke:#231F20;stroke-width:0;stroke-linecap:round;stroke-linejoin:round;}
	.st9{fill:#FFFFFF;}
	.st10{fill:#46494D;}
	.st11{fill:#A65B26;}
	.st12{fill:#C0BFBF;}
	.st13{fill:#C1742E;}
	.st14{fill:#D2D2D2;}
	.st15{fill:#FFFEFE;}
	.st16{fill:#2075BC;}
	.st17{fill:#414342;}
	.st18{fill:#D7878B;}
	.st19{fill:#010101;}
	.st20{fill:#C58946;}
</style>
<g>
	<path class="st0" d="M78.41,104.84c-0.39,0.26-0.78,0.5-1.17,0.72c-0.9,0.51-1.77,0.89-2.61,1.15c-1.16,0.37-2.26,0.51-3.28,0.47
		c-0.73-0.03-1.42-0.15-2.07-0.35c-0.11-0.03-0.22-0.07-0.33-0.11c-2.41-0.86-4.18-2.83-5.05-5.07H26.86
		c-0.87,2.25-2.63,4.21-5.05,5.07c-0.11,0.04-0.22,0.07-0.33,0.11c-0.65,0.2-1.34,0.32-2.07,0.35c-1.02,0.04-2.12-0.11-3.28-0.47
		c-0.84-0.26-1.71-0.64-2.61-1.15c-0.38-0.22-0.77-0.46-1.17-0.72c-4.83-3.25-4.33-7.47-0.52-11.06c1.32-1.25,2.61-1.95,4.1-2.28
		c-1.11-1.7-2.03-3.54-2.95-5.49c-0.65-1.38-5.57-12.73-2.92-13.25c2.03,2.26,2.68,5.35,3.86,8.12c1.4,3.29,3.54,6.67,5.89,9.28
		c0.36,0.4,0.76,0.85,1.17,1.28c1.08,0.17,2.01,0.48,2.81,0.89c0.18,0.06,0.35,0.12,0.53,0.19c0.41-2.02,1.02-4.07,1.9-6.11
		c-0.88-1.09-1.67-2.3-2.21-3.6c-1.08-2.62-1.01-7.31,0.05-9.98c0.2-0.51,0.47-1.03,0.77-1.55c-0.22-0.7-0.49-1.39-0.85-2.04
		c-3.22-5.97-6.23-12.25-6.4-19.03c-0.1-4.08-0.29-8.5,0.23-12.56c0.16-1.27,0.38-2.54,0.69-3.75c-1.96-1.26-3.48-2.43-4.65-3.63
		c-3.67-3.74-3.9-7.65-3.75-14.87c0.05-2.4-1.81-6.77,0.2-8.32c3.94-3.04,12.97,5.98,15.62,8.16c3.17,2.61,7.6,5.12,9.12,8.94
		c0.36-0.03,0.72-0.06,1.08-0.09c2.81-0.19,5.63-0.17,8.32,0c2.89-0.35,5.96-0.54,9-0.47c0.85,0.02,1.69,0.06,2.53,0.12
		c1.67-3.58,5.88-5.99,8.93-8.5c2.66-2.18,11.68-11.2,15.62-8.16c2.01,1.55,0.15,5.92,0.2,8.32c0.15,7.22-0.08,11.13-3.75,14.87
		c-1.29,1.31-3,2.6-5.26,4.01c-0.12,0.07-0.23,0.14-0.35,0.21c0.12,0.53,0.22,1.07,0.32,1.6c0.72,4.02,0.74,8.44,0.83,12.52
		c0.16,6.78-2.55,13.22-5.47,19.37c-0.24,0.51-0.43,1.03-0.6,1.56c1.33,2.28,1.98,5.25,1.56,9.2c-0.32,3.02-1.41,5.29-2.9,7.26
		c0.93,2.08,1.58,4.17,2.01,6.23c0.99-0.48,2.18-0.81,3.6-0.92c3.53-0.27,5.81,0.2,8.19,2.45C82.74,97.37,83.24,101.59,78.41,104.84
		z"/>
	<path class="st1" d="M20.04,91.33c0.33,0.03,0.65,0.06,0.95,0.11c-0.41-0.44-0.8-0.88-1.17-1.28c-2.34-2.61-4.48-5.99-5.89-9.28
		c-1.18-2.77-1.83-5.86-3.86-8.12c-2.65,0.52,2.27,11.87,2.92,13.25c0.92,1.95,1.84,3.79,2.95,5.49
		C17.14,91.23,18.46,91.21,20.04,91.33z"/>
	<path class="st2" d="M57.39,92.58c-4.66,2.17-9.88,2.12-14.96,1.79c-2.78-0.18-5.62-0.79-8.29-1.96c-0.23,2.22-0.29,4.92,0.06,7.96
		h23.11C57.65,97.41,57.61,94.77,57.39,92.58z"/>
	<path class="st3" d="M33.16,100.38h1.05c-0.35-3.05-0.29-5.75-0.06-7.96c-1.9-0.83-3.71-1.93-5.35-3.37
		c-0.86-0.75-1.75-1.64-2.56-2.64c-0.88,2.04-1.49,4.09-1.9,6.11C28.05,94,31.88,97.62,33.16,100.38z"/>
	<path class="st3" d="M62.3,89.16c-1.53,1.52-3.19,2.61-4.91,3.42c0.22,2.19,0.26,4.83-0.08,7.8h0.3c1.34-2.89,5.48-6.72,9.36-8.05
		c0.05-0.03,0.11-0.05,0.16-0.08c-0.43-2.06-1.09-4.15-2.01-6.23C64.28,87.13,63.32,88.15,62.3,89.16z"/>
	<path class="st4" d="M28.78,89.05c1.64,1.43,3.46,2.54,5.35,3.37c2.67,1.17,5.51,1.78,8.29,1.96c5.08,0.33,10.3,0.38,14.96-1.79
		c1.73-0.8,3.38-1.9,4.91-3.42c1.02-1.01,1.98-2.03,2.82-3.15c1.48-1.97,2.58-4.24,2.9-7.26c0.42-3.95-0.23-6.92-1.56-9.2
		c-0.03,0.1-0.07,0.19-0.1,0.29c-1.32,4.59-0.31,9.83-3.66,13.86c-2.3,2.77-7.22,5.53-10.59,7.23c-1.93,0.98-3.98,1.23-6.02,1.07
		c-2.03,0.27-4.08,0.14-6.06-0.72c-3.45-1.5-8.5-3.97-10.93-6.61c-3.44-3.73-2.83-8.83-4.21-13.26c-0.02-0.05-0.04-0.1-0.05-0.15
		c-0.3,0.52-0.56,1.04-0.77,1.55c-1.06,2.67-1.13,7.36-0.05,9.98c0.53,1.3,1.32,2.51,2.21,3.6C27.03,87.41,27.93,88.3,28.78,89.05z"
		/>
	<path class="st3" d="M39.7,52.71c0.97-4.74,0.77-10.25,0.5-14.98c-0.21-3.64-0.8-7.22-2.17-10.61c-0.41-1.02-1.2-2.01-1.89-3.01
		c-0.36,0.02-0.72,0.06-1.08,0.09c0.59,1.49,0.75,3.19,0.21,5.16c-0.14,0.51-0.29,0.95-0.46,1.33c-1.19,2.76-3.14,2.63-6.05,2.95
		c-2.78,0.31-4.46,1.8-6.68,1.68c-0.87-0.04-1.82-0.33-2.96-1.03c-0.21-0.13-0.41-0.26-0.61-0.38c-0.31,1.21-0.53,2.47-0.69,3.75
		c-0.52,4.06-0.33,8.47-0.23,12.56c0.16,6.78,3.18,13.06,6.4,19.03c0.35,0.66,0.62,1.34,0.85,2.04c0.02,0.05,0.04,0.1,0.05,0.15
		C28.99,64.01,37.9,61.44,39.7,52.71z M28.98,44.59c1.56,0.16,5.15,0.31,6.08,1.91c2.57,4.4-4.57,6.77-7.35,4.61
		C24.92,48.94,24.57,44.13,28.98,44.59z"/>
	<path class="st3" d="M53.34,25.56c-0.72,5-2.12,9.96-2.34,15.01c-0.19,4.4,0.35,9.9,2.24,13.95c1.79,3.82,5.8,6.01,8.73,9.19
		c1.84,2,3.3,4.02,4.39,6.14c0.03-0.1,0.06-0.19,0.1-0.29c0.16-0.53,0.36-1.06,0.6-1.56c2.93-6.15,5.63-12.59,5.47-19.37
		c-0.1-4.08-0.11-8.5-0.83-12.52c-0.1-0.54-0.2-1.07-0.32-1.6c-0.99,0.56-1.83,0.79-2.61,0.83c-2.22,0.11-3.9-1.37-6.68-1.68
		c-2.91-0.32-4.86-0.19-6.05-2.95c-0.17-0.39-0.32-0.83-0.46-1.33c-0.59-2.17-0.34-4,0.4-5.6c-0.84-0.06-1.69-0.1-2.53-0.12
		c0,0.05,0.01,0.11,0.01,0.16C53.46,24.4,53.43,24.99,53.34,25.56z M56.01,46.49c0.93-1.59,4.51-1.74,6.08-1.91
		c4.41-0.46,4.06,4.35,1.27,6.52C60.58,53.26,53.44,50.89,56.01,46.49z"/>
	<path class="st5" d="M40.19,37.73c0.28,4.73,0.48,10.24-0.5,14.98c-1.79,8.73-10.71,11.3-14.81,18.72
		c1.38,4.43,0.77,9.53,4.21,13.26c2.43,2.64,7.48,5.1,10.93,6.61c1.98,0.86,4.03,1,6.06,0.72c2.04,0.16,4.09-0.09,6.02-1.07
		c3.37-1.7,8.29-4.45,10.59-7.23c3.35-4.03,2.35-9.27,3.66-13.86c-1.09-2.12-2.55-4.14-4.39-6.14c-2.92-3.18-6.94-5.37-8.73-9.19
		c-1.9-4.06-2.43-9.55-2.24-13.95c0.22-5.05,1.62-10.01,2.34-15.01c0.08-0.57,0.12-1.16,0.11-1.77c0-0.05,0-0.11-0.01-0.16
		c-3.04-0.07-6.11,0.12-9,0.47c-2.69-0.17-5.51-0.19-8.32,0c0.69,1,1.48,2,1.89,3.01C39.39,30.51,39.98,34.08,40.19,37.73z
		 M45.74,76.86c3.04,0.13,7.81-3.35,8.76,1.02c0.18,0.82,0.2,1.58,0.08,2.28c-0.99,5.75-11.25,7.2-16.16,3.68
		c-1.99-1.42-2.31-3.85-2.2-5.99C36.49,72.91,42.82,76.74,45.74,76.86z M55.05,88.05c-0.54,1.4-2.09,1.71-3.25,1.71
		c0.13,0,0.44,0,0.47,0c-0.03,0-0.34,0-0.47,0c-0.04,0-0.06,0-0.05,0c-0.01,0,0.01,0,0.05,0c-1.9,0-4.05-0.49-5.84-1.24
		c-0.97-0.4-2.01,0.33-3.06,0.5c-1.05,0.17-2.12,0.22-3.18,0.21c-1.85,0.16-5-1.3-3.73-3.63c0.98-1.79,2.36,0.3,1.33,0.52
		c-1.17,0.25,0.49,1.83,1.07,1.86c1.89,0.09,4.1,0.05,5.91-0.63c1.67-0.62,3.46,0.46,5.24,0.79c1.26,0.23,2.68,0.59,3.9-0.02
		c1.45-0.71-0.21-2.43,0.71-3.02C55.21,84.43,55.3,87.4,55.05,88.05z"/>
	<path class="st6" d="M36.22,77.86c-0.12,2.14,0.21,4.56,2.2,5.99c4.92,3.52,15.18,2.07,16.16-3.68c0.12-0.7,0.1-1.46-0.08-2.28
		c-0.95-4.37-5.72-0.89-8.76-1.02C42.82,76.74,36.49,72.91,36.22,77.86z"/>
	<path class="st3" d="M55.58,29.36c0.14,0.51,0.29,0.95,0.46,1.33c-0.1-1.84,0.32-3.73,1.32-5.2c2.14-3.14,5.76-5.39,9.08-6.86
		c2.71-1.2,4.67-3.26,7.02-4.91c1.43-1,1.68-0.57,2.83,0.09c0.85,0.49,0.86-0.12,1.3,0.88c0.27,0.61-0.12,1.62-0.18,2.2
		c-0.51,5.12-1.47,9.67-4.33,14.07c-1.15,1.77-2.57,3.27-4.32,4.36c0.78-0.04,1.63-0.27,2.61-0.83c0.12-0.06,0.23-0.13,0.35-0.21
		c2.26-1.41,3.97-2.7,5.26-4.01c3.67-3.74,3.91-7.65,3.75-14.87c-0.05-2.4,1.81-6.77-0.2-8.32c-3.94-3.04-12.96,5.98-15.62,8.16
		c-3.05,2.51-7.26,4.92-8.93,8.5C55.24,25.35,54.99,27.18,55.58,29.36z"/>
	<path class="st7" d="M73.09,30.97c2.86-4.4,3.82-8.95,4.33-14.07c0.06-0.58,0.45-1.6,0.18-2.2c-0.45-1.01-0.46-0.39-1.3-0.88
		c-1.15-0.66-1.4-1.1-2.83-0.09c-2.36,1.66-4.31,3.71-7.02,4.91c-3.33,1.47-6.94,3.72-9.08,6.86c-1,1.47-1.42,3.36-1.32,5.2
		c1.19,2.76,3.14,2.63,6.05,2.95c2.78,0.31,4.46,1.8,6.68,1.68C70.52,34.23,71.94,32.74,73.09,30.97z"/>
	<path class="st3" d="M22.08,35.32c-1.75-1.09-3.17-2.59-4.32-4.36c-2.86-4.4-3.82-8.95-4.34-14.07c-0.06-0.58-0.44-1.6-0.18-2.2
		c0.45-1.01,0.46-0.39,1.31-0.88c1.15-0.66,1.4-1.1,2.83-0.09c2.36,1.66,4.31,3.71,7.02,4.91c3.33,1.47,6.95,3.72,9.08,6.86
		c1,1.47,1.42,3.36,1.32,5.2c0.17-0.39,0.32-0.83,0.46-1.33c0.54-1.98,0.38-3.67-0.21-5.16c-1.52-3.82-5.95-6.33-9.12-8.94
		c-2.66-2.18-11.68-11.2-15.62-8.16c-2.01,1.55-0.15,5.92-0.2,8.32c-0.15,7.22,0.08,11.13,3.75,14.87c1.17,1.19,2.69,2.37,4.65,3.63
		c0.2,0.13,0.4,0.26,0.61,0.38C20.26,35,21.21,35.28,22.08,35.32z"/>
	<path class="st7" d="M33.49,25.49c-2.14-3.14-5.76-5.39-9.08-6.86c-2.71-1.2-4.67-3.26-7.02-4.91c-1.43-1-1.68-0.57-2.83,0.09
		c-0.85,0.49-0.86-0.12-1.31,0.88c-0.27,0.61,0.12,1.62,0.18,2.2c0.51,5.12,1.47,9.67,4.34,14.07c1.15,1.77,2.57,3.27,4.32,4.36
		c2.22,0.11,3.9-1.37,6.68-1.68c2.91-0.32,4.86-0.19,6.05-2.95C34.91,28.84,34.49,26.96,33.49,25.49z"/>
	<path class="st8" d="M51.79,89.76c-0.04,0-0.06,0-0.05,0"/>
	<path class="st8" d="M52.26,89.76c-0.03,0-0.34,0-0.47,0"/>
	<path class="st6" d="M54.14,85.11c-0.92,0.59,0.75,2.3-0.71,3.02c-1.23,0.61-2.65,0.25-3.9,0.02c-1.78-0.33-3.57-1.42-5.24-0.79
		c-1.82,0.68-4.02,0.72-5.91,0.63c-0.58-0.03-2.24-1.61-1.07-1.86c1.03-0.22-0.36-2.31-1.33-0.52c-1.27,2.33,1.88,3.79,3.73,3.63
		c1.06,0.01,2.13-0.04,3.18-0.21c1.05-0.17,2.09-0.91,3.06-0.5c1.8,0.75,3.95,1.24,5.84,1.24c1.16,0,2.71-0.31,3.25-1.71
		C55.3,87.4,55.21,84.43,54.14,85.11z"/>
	<path class="st9" d="M63.36,51.1c2.79-2.16,3.14-6.98-1.27-6.52c-1.56,0.16-5.14,0.31-6.08,1.91
		C53.44,50.89,60.58,53.26,63.36,51.1z M59.37,46.59c0.5-0.12,1.44-0.24,2.28-0.16c0.85,0.08,1.6,0.36,1.76,1.04
		c0.17,0.75-2.67,1.11-3.43,1.41c-0.84,0.32-2.3,1.55-3.16,0.87C55.28,48.52,58.35,46.83,59.37,46.59z"/>
	<path class="st9" d="M27.71,51.1c2.78,2.16,9.91-0.21,7.35-4.61c-0.93-1.59-4.51-1.74-6.08-1.91
		C24.57,44.13,24.92,48.94,27.71,51.1z M29.19,46.43c0.85-0.08,1.78,0.04,2.29,0.16c1.02,0.25,4.1,1.93,2.55,3.17
		c-0.85,0.68-2.31-0.55-3.16-0.87c-0.76-0.29-3.6-0.65-3.43-1.41C27.58,46.79,28.34,46.51,29.19,46.43z"/>
	<path class="st6" d="M30.86,48.88c0.85,0.32,2.3,1.55,3.16,0.87c1.55-1.23-1.52-2.92-2.55-3.17c-0.5-0.12-1.44-0.24-2.29-0.16
		c-0.84,0.08-1.6,0.36-1.75,1.04C27.27,48.23,30.1,48.59,30.86,48.88z"/>
	<path class="st6" d="M59.98,48.88c0.76-0.29,3.6-0.65,3.43-1.41c-0.15-0.68-0.91-0.96-1.76-1.04c-0.85-0.08-1.78,0.04-2.28,0.16
		c-1.02,0.25-4.1,1.93-2.55,3.17C57.68,50.43,59.14,49.2,59.98,48.88z"/>
	<path class="st5" d="M27.25,100.38h5.91c-1.28-2.76-5.11-6.38-8.83-7.86c-0.18-0.07-0.35-0.13-0.53-0.19
		C26.99,93.96,27.96,97.29,27.25,100.38z"/>
	<path class="st5" d="M57.61,100.38h5.91c-0.71-3.09,0.26-6.42,3.46-8.05C63.1,93.66,58.95,97.49,57.61,100.38z"/>
	<path class="st5" d="M70.73,91.33c-1.42,0.11-2.61,0.44-3.6,0.92c-0.05,0.03-0.11,0.05-0.16,0.08c-3.2,1.64-4.16,4.96-3.46,8.05
		c0.1,0.43,0.23,0.85,0.39,1.27c0.87,2.25,2.63,4.21,5.05,5.07c0.11,0.04,0.22,0.07,0.33,0.11c0.28-0.54,0.67-1,0.88-1.59
		c0.31-0.87,0.59-1.75,0.94-2.61c0.14-0.35,0.26-0.65,0.62-0.86c0.94,1.65,0.23,3.57-0.32,5.23c-0.02,0.05-0.04,0.12-0.06,0.19
		c1.02,0.04,2.12-0.11,3.28-0.47c0.01-0.02,0.02-0.05,0.03-0.07c0.28-0.67,0.77-1.18,1.02-1.87c0.31-0.87,0.59-1.75,0.94-2.61
		c0.14-0.35,0.26-0.65,0.62-0.86c0.77,1.34,0.44,2.86,0,4.27c0.38-0.22,0.77-0.46,1.17-0.72c4.83-3.25,4.33-7.47,0.52-11.06
		C76.54,91.53,74.27,91.05,70.73,91.33z"/>
	<path class="st10" d="M77.25,101.29c-0.36,0.21-0.48,0.51-0.62,0.86c-0.36,0.86-0.63,1.74-0.94,2.61c-0.25,0.69-0.73,1.2-1.02,1.87
		c-0.01,0.02-0.02,0.04-0.03,0.07c0.84-0.26,1.71-0.64,2.61-1.15C77.69,104.15,78.01,102.63,77.25,101.29z"/>
	<path class="st10" d="M71.73,101.76c-0.36,0.21-0.48,0.51-0.62,0.86c-0.36,0.86-0.63,1.74-0.94,2.61c-0.21,0.59-0.6,1.05-0.88,1.59
		c0.65,0.2,1.34,0.32,2.07,0.35c0.02-0.07,0.04-0.13,0.06-0.19C71.97,105.33,72.68,103.42,71.73,101.76z"/>
	<path class="st5" d="M27.25,100.38c0.71-3.09-0.26-6.42-3.46-8.05c-0.8-0.41-1.73-0.72-2.81-0.89c-0.31-0.05-0.62-0.08-0.95-0.11
		c-1.58-0.12-2.9-0.09-4.1,0.17c-1.49,0.33-2.78,1.03-4.1,2.28c-3.81,3.59-4.31,7.81,0.52,11.06c0.39,0.26,0.78,0.5,1.17,0.72
		c-0.44-1.41-0.77-2.92,0-4.27c0.36,0.21,0.48,0.51,0.62,0.86c0.36,0.86,0.63,1.74,0.94,2.61c0.25,0.69,0.73,1.2,1.02,1.87
		c0.01,0.02,0.02,0.04,0.03,0.07c1.16,0.37,2.26,0.51,3.28,0.47c-0.02-0.07-0.04-0.13-0.06-0.19c-0.55-1.66-1.26-3.57-0.32-5.23
		c0.36,0.21,0.48,0.51,0.62,0.86c0.36,0.86,0.63,1.74,0.94,2.61c0.21,0.59,0.6,1.05,0.88,1.59c0.11-0.03,0.22-0.07,0.33-0.11
		c2.41-0.86,4.18-2.83,5.05-5.07C27.02,101.23,27.15,100.81,27.25,100.38z"/>
	<path class="st10" d="M15.09,104.77c-0.31-0.87-0.59-1.75-0.94-2.61c-0.14-0.35-0.26-0.65-0.62-0.86c-0.77,1.34-0.44,2.86,0,4.27
		c0.9,0.51,1.77,0.89,2.61,1.15c-0.01-0.02-0.02-0.05-0.03-0.07C15.82,105.97,15.33,105.46,15.09,104.77z"/>
	<path class="st10" d="M19.66,102.63c-0.14-0.35-0.26-0.65-0.62-0.86c-0.94,1.65-0.23,3.57,0.32,5.23c0.02,0.05,0.04,0.12,0.06,0.19
		c0.73-0.03,1.42-0.15,2.07-0.35c-0.28-0.54-0.67-1-0.88-1.59C20.29,104.37,20.01,103.49,19.66,102.63z"/>
	<path class="st9" d="M40.15,80.93c1.7-0.43,3.2-1.67,3.35-2.77c0.15-1.1-1.11-1.64-2.81-1.21c-1.7,0.43-3.2,1.67-3.35,2.77
		C37.19,80.81,38.45,81.36,40.15,80.93z"/>
</g>
<g>
	<g>
		<g>
			<path class="st11" d="M459.68,100.25c0.25-0.16,0.51-0.31,0.75-0.48c0.92-1.6,1.73-3.55,1.48-5.07
				c-2.88,0.77-5.61,1.45-8.68,1.28c0.79-1.95,2.52-3.97,2.94-6.12c-0.06,0.3-5.73-0.27-9.01-1.04c-3.29,3.13-6.29,7.12-8.32,10.74
				c-0.12,0.21-0.24,0.45-0.36,0.7H459.68z"/>
			<path class="st12" d="M450.91,90.65c-0.41,2.15-2.14,4.17-2.94,6.12c3.08,0.17,5.8-0.51,8.68-1.28c0.23,1.42-0.46,3.22-1.31,4.76
				h0.27c1.65-1.15,3.2-2.42,4.55-3.89c0.22-0.24,0.42-0.48,0.61-0.73c1.55-1.99,2.88-4.25,3.3-6.81c0.12-0.75,1.49-8.79,1.54-8.81
				c-0.33,0.12-2.5,1.18-2.88,1.26c0.53-1,0.31-1.67,0.63-2.7c-4.22,2.71-9.24,3.87-13.71,5.83c-1.33,0.58-2.61,1.23-3.8,2.01
				c-1.34,0.88-2.67,1.97-3.96,3.2C445.18,90.37,450.85,90.95,450.91,90.65z"/>
		</g>
		<path class="st13" d="M445.18,100.25c0.19-3.14,0.05-6.25-0.28-9.47c-0.84-8.34-2.47-16.05-9.46-19.72
			c-2.86-1.5-5.74-3.48-8.87-4.06c-5.96-1.1-12.1-1.91-18.12-1.91c-7.5-0.01-14.37,4.22-21.63,5.79c-6.17,1.33-7.78,12.57-8,18.98
			c-0.11,3.18-0.93,7.25-0.04,10.39H445.18z"/>
		<path class="st14" d="M388.34,100.25h46.66c-0.61-4.79-1.98-10.79-3.75-14.05c-4.83-8.93-14.99-8.27-22.06-7.81
			c-9.95,0.65-21.47,4.48-20.88,21.19C388.33,99.8,388.34,100.03,388.34,100.25z"/>
		<g>
			<g>
				<path class="st13" d="M451.44,100.25c-0.28-0.15-0.58-0.3-0.91-0.43c-5.11-2.08-10.17-3.15-15.51-0.97
					c-1.12,0.46-1.88,0.91-2.42,1.4H451.44z"/>
			</g>
			<g>
				<path class="st13" d="M391.03,100.25c-0.54-0.49-1.29-0.94-2.42-1.4c-5.34-2.18-10.4-1.11-15.51,0.97
					c-0.32,0.13-0.62,0.28-0.91,0.43H391.03z"/>
			</g>
		</g>
		<g>
			<g>
				<path class="st15" d="M428.53,100.25c-0.12-2.01,0.04-3.98,0.27-5.38c0.55-3.33,1.69-8.44,4.84-10.6
					c-1.63-1.44-3.98-1.74-7.34,0c-2.36,1.23-4.1,2.71-5.35,4.39c-2.45,3.27-3.08,7.29-3.01,11.59H428.53z"/>
				<path class="st13" d="M436.9,100.25c0.07-0.94,0.11-1.89,0.13-2.84c0.1-4.6-0.53-10.62-3.39-13.14
					c-3.14,2.16-4.29,7.28-4.84,10.6c-0.23,1.41-0.39,3.37-0.27,5.38H436.9z"/>
			</g>
			<g>
				<path class="st15" d="M394.98,94.87c0.23,1.41,0.39,3.37,0.27,5.38h10.59c0.08-4.3-0.56-8.32-3.01-11.59
					c-1.26-1.68-2.99-3.16-5.35-4.39c-3.36-1.75-5.71-1.44-7.34,0C393.29,86.42,394.44,91.54,394.98,94.87z"/>
				<path class="st13" d="M386.88,100.25h8.37c0.12-2.01-0.04-3.98-0.27-5.38c-0.55-3.33-1.69-8.44-4.84-10.6
					c-2.86,2.52-3.49,8.54-3.39,13.14C386.77,98.36,386.81,99.31,386.88,100.25z"/>
			</g>
		</g>
		<path class="st15" d="M380.49,88.68c-0.05,2.68,1.51,6.9,3.06,8.6c0.2-0.81,0.96-1.53,1.16-2.1c-0.02,0.04,1.79,3.05,3.05,5.07
			h1.63c0.15-0.86,0.24-1.76,0.27-2.5c0.62,0.76,1.13,1.63,1.65,2.5h41.29c0.5-0.64,0.99-1.28,1.45-1.93
			c-0.02,0.62-0.09,1.28-0.22,1.93H436c1.37-1.99,2.3-4.93,3.55-6.24c0.48,1.12,0.66,2.87,1.33,3.71c1.58-2.98,1.54-6.16,1.91-9.52
			c1.02,0.59,1.71,2.35,2.03,3.53c1.26-2.21,0.48-5.93,0.81-8.44c0.46-3.43,0.38-6.56-1.44-9.52c-5.95-9.69-17.72-14.96-27.77-15.97
			c-1.66-0.17-3.34-0.21-5.04-0.15c-1.7-0.06-3.39-0.02-5.04,0.15c-5.58,0.57-10.53,3.21-15.86,4.31c-4.4,0.9-8.72,4.01-11.54,7.81
			c1.18-0.18,2.57-0.74,3.77-0.71c-1.92-0.05-5.15,6.84-5.66,8.62c-1.17,4.1,1.03,9.07,1.32,13.19
			C379.09,90.36,379.96,89.56,380.49,88.68z"/>
		<path class="st12" d="M442.79,85.42c-6.51,2.27-13.56,9.45-14.55,13.92l5.02,0c0.26-0.34,0.53-0.68,0.77-1.03
			c-0.01,0.33-0.04,0.68-0.08,1.03l2.61,0c1.08-1.89,1.92-4.21,2.99-5.34c0.48,1.12,0.66,2.87,1.33,3.71
			c1.58-2.98,1.54-6.16,1.91-9.52c1.02,0.59,1.71,2.35,2.03,3.53c1.09-1.9,0.66-4.92,0.73-7.33C444.53,84.66,443.61,85,442.79,85.42
			z"/>
		<path class="st12" d="M383.04,85.42c-1.51-0.78-3.34-1.32-5.53-1.49c-0.15-0.01-0.29-0.02-0.43-0.03c0.44,2.43,1.14,4.89,1.3,7.09
			c0.72-0.64,1.59-1.44,2.12-2.32c-0.05,2.68,1.51,6.9,3.06,8.6c0.2-0.81,0.96-1.53,1.16-2.1c-0.01,0.04,1.62,2.76,2.86,4.76
			c0.08-0.2,0.15-0.39,0.22-0.59l1.73,0c0.07-0.56,0.12-1.12,0.14-1.6c0.4,0.49,0.76,1.04,1.1,1.6l6.83,0
			C396.6,94.87,389.55,87.69,383.04,85.42z"/>
		<path class="st12" d="M425.73,75.04c-2.45-8.18-14.74-10.04-21.15-6.38c-7.86,4.49-10.03,17.39-0.65,21.37
			c4.89,2.08,12.07,2.38,16.65-0.32C425.5,86.82,427.44,80.75,425.73,75.04z"/>
		<g>
			<path class="st16" d="M440.79,65.77c1.42,2.5,1.51,6.91,0.07,9.36c-1.37,2.34-3.99,4.39-6.39,5.85
				c-5.3,3.24-11.92,4.71-18.27,4.99c-9.32,0.42-19.02,0.37-26.63-4.89c-3.79-2.63-6.99-5.33-7.66-9.77
				c-1.77-11.64,10.58-14.26,21.12-15.95c9.92-1.58,25.15-2.72,32.61,4.73C437.24,61.71,439.69,63.83,440.79,65.77z"/>
		</g>
		<g>
			<path class="st15" d="M425.51,72.94c-2.45-8.18-14.74-10.04-21.15-6.38c-7.86,4.49-10.03,17.39-0.65,21.37
				c4.89,2.08,12.07,2.38,16.65-0.32C425.28,84.71,427.22,78.64,425.51,72.94z"/>
			<path class="st13" d="M447.81,62.34c-0.5-11.02-1.27-22.35-3.54-33.16c-0.77-3.65-1.79-8.74-4.43-11.66
				c-3.95-4.37-9.92-4.64-15.58-4.78c-4.14-0.1-8.29,0.02-12.44,0.22c-4.14-0.2-8.29-0.32-12.44-0.22
				c-5.66,0.13-11.63,0.41-15.58,4.78c-2.64,2.92-3.67,8.01-4.43,11.66c-2.27,10.81-3.04,22.14-3.54,33.16
				c-0.17,3.85,1.98,9.41,5.43,11.77c4.42,3.03,11.1,0.46,16.12,1.34c4.79,0.84,9.12,1.66,13.89,1.76v0.02
				c0.19,0,0.37-0.01,0.55-0.01c0.19,0,0.37,0.01,0.55,0.01v-0.02c4.76-0.11,9.1-0.92,13.89-1.76c5.02-0.88,11.7,1.69,16.12-1.34
				C445.83,71.75,447.98,66.19,447.81,62.34z"/>
			<g>
				<path class="st17" d="M435.35,61.77c-6.31,5.78-19.11-7.52-21.71-13.22c-3.6-7.86-1.11-22.49,7.64-25.33
					c9.26-3.01,19.03,9.54,18.35,18.47c-0.26,3.4-1.94,6.68-2.44,10.1C436.78,54.65,437.65,59.67,435.35,61.77z"/>
				<path class="st17" d="M388.29,61.77c6.31,5.78,19.11-7.52,21.71-13.22c3.6-7.86,1.11-22.49-7.64-25.33
					c-9.26-3.01-19.03,9.54-18.35,18.47c0.26,3.4,1.94,6.68,2.44,10.1C386.86,54.65,385.98,59.67,388.29,61.77z"/>
			</g>
			<path class="st18" d="M417.93,76.28c-1.05-0.77-2.71-0.93-3.7-1.75c-0.77-0.65-1.58-3.16-2.66-3.21
				c-0.99-0.04-1.5,2.06-2.16,2.71c-1.65,1.63-4.85,1.59-4.72,4.65c0.11,2.7,2.85,4.76,5.2,5.06c3.67,0.46,9.98-0.78,8.94-6.04
				C418.71,77.05,418.37,76.61,417.93,76.28z"/>
			<path class="st15" d="M413.89,25.33c-0.38-0.31-0.84-0.57-1.4-0.77c-4.37-1.54-6.12,2.49-6.15,5.94
				c-0.04,4.38,0.11,6.2-2.99,9.18c-2.78,2.68-6.24,4.89-8.83,7.89c-3.76,4.36-5.87,9.91-6.49,15.65
				c-0.63,5.8-1.21,13.32,5.35,15.68c4.41,1.58,5.64-2.57,9.62-2.77c1.38-0.07,2.53,0.31,3.91,0c1.13-0.25,2.55-0.81,3.4-1.71
				c0.94-0.99,0.99-2.81,2.57-2.45c1.06,0.24,1.4,1.75,2.04,2.44c0.88,0.96,2.08,1.5,3.17,1.9c2.76,1,5.84-0.21,8.39,1.17
				c7.74,4.2,9.49-6.26,9.49-12.26c0-10.96-4.42-17.47-12.95-23.46c-3.14-2.21-5.83-2.85-6.94-6.47
				C415.14,32.24,416.54,27.53,413.89,25.33z"/>
			<g>
				<path class="st19" d="M420.63,77.63c-2.38,0-4.41-0.6-6.06-1.8c-3.01-2.2-3.57-5.6-3.59-5.74c-0.01-0.05-0.01-0.11-0.01-0.16
					V56.61c0-0.54,0.4-0.98,0.89-0.98c0.49,0,0.89,0.44,0.89,0.98v13.21c0.09,0.42,0.66,2.82,2.83,4.38
					c2.21,1.6,5.36,1.88,9.36,0.84c0.48-0.13,0.96,0.2,1.07,0.73c0.11,0.53-0.18,1.06-0.66,1.18
					C423.66,77.4,422.08,77.63,420.63,77.63z"/>
				<path class="st19" d="M402.97,77.72c-1.44,0-3.01-0.22-4.7-0.66c-0.48-0.12-0.78-0.65-0.66-1.18c0.11-0.53,0.6-0.86,1.07-0.73
					c3.97,1.03,7.12,0.75,9.36-0.85c2.22-1.58,2.83-4.02,2.93-4.48V56.61c0-0.54,0.4-0.98,0.89-0.98c0.49,0,0.89,0.44,0.89,0.98
					v13.31c0,0.06,0,0.12-0.01,0.17c-0.02,0.15-0.62,3.6-3.7,5.82C407.39,77.12,405.36,77.72,402.97,77.72z"/>
				<path class="st19" d="M421.67,52.81c-0.37,0.81-1.11,1.7-2.28,2.66c-4.19,3.43-21.12,3.52-17.13-5.63
					C404.43,44.86,424.66,46.32,421.67,52.81z"/>
				<g>
					<path class="st19" d="M392.94,35.66c0,3.58,1.76,6.49,3.94,6.49c2.18,0,3.94-2.91,3.94-6.49c0-3.58-1.76-6.49-3.94-6.49
						C394.7,29.17,392.94,32.07,392.94,35.66z"/>
					<path class="st9" d="M397.05,33.51c-0.5,1.1-1.58,1.74-2.41,1.41c-0.83-0.33-1.1-1.48-0.6-2.59c0.5-1.1,1.58-1.73,2.41-1.41
						C397.28,31.25,397.55,32.41,397.05,33.51z"/>
					<path class="st9" d="M407.68,51.85c-1.57,0.79-3.22,0.78-3.67-0.02c-0.45-0.79,0.46-2.07,2.03-2.86
						c1.57-0.78,3.22-0.78,3.67,0.02C410.17,49.78,409.25,51.06,407.68,51.85z"/>
				</g>
				<g>
					<path class="st19" d="M422.81,35.66c0,3.58,1.76,6.49,3.94,6.49c2.18,0,3.94-2.91,3.94-6.49c0-3.58-1.76-6.49-3.94-6.49
						C424.57,29.17,422.81,32.07,422.81,35.66z"/>
					<path class="st9" d="M426.92,33.51c-0.5,1.1-1.58,1.74-2.41,1.41c-0.83-0.33-1.1-1.48-0.6-2.59c0.5-1.1,1.58-1.73,2.41-1.41
						C427.15,31.25,427.42,32.41,426.92,33.51z"/>
				</g>
			</g>
			<g>
				<path class="st17" d="M441.25,36.82c-1.59-6.48-7.29-11.68-6.59-18.59c0.43-4.24,1.5-4.18,4.29-5.47
					c5.29-2.44,10.43-1.63,14.88,2.41c2.74,2.48,5.03,5.38,7.82,7.78c1.95,1.68,5.8,3.67,7.1,5.99c3.94,7-3.42,12.41-7.5,16.4
					c-3.79,3.7-6.65,14.17-12.48,13.88C439.93,58.79,442.74,42.9,441.25,36.82z"/>
				<path class="st17" d="M382.39,36.82c1.59-6.48,7.29-11.68,6.59-18.59c-0.43-4.24-1.5-4.18-4.29-5.47
					c-5.29-2.44-10.43-1.63-14.88,2.41c-2.74,2.48-5.03,5.38-7.82,7.78c-1.95,1.68-5.8,3.67-7.1,5.99c-3.94,7,3.42,12.41,7.5,16.4
					c3.79,3.7,6.65,14.17,12.48,13.88C383.7,58.79,380.9,42.9,382.39,36.82z"/>
			</g>
		</g>
	</g>
	<g>
		<path class="st20" d="M362.52,100.31c0.75-2,2.09-3.98,3.91-5.85c3.68-3.79,6.58-8.78,12-8.35c6.96,0.56,16.03,9.15,17.14,14.19
			L362.52,100.31z"/>
		<path class="st20" d="M462.94,100.31c-0.75-2-2.09-3.98-3.91-5.85c-3.68-3.79-6.58-8.78-12-8.35
			c-6.96,0.56-16.03,9.15-17.14,14.19L462.94,100.31z"/>
		<g>
			<path class="st15" d="M449.44,85.33c5.12-0.41,8.41,0.3,11.87,3.63c5.52,5.33,6.24,11.6-0.75,16.43
				c-0.57,0.39-1.13,0.75-1.69,1.07c0.64-2.09,1.11-4.34,0-6.33c-0.52,0.31-0.69,0.76-0.9,1.28c-0.52,1.28-0.92,2.59-1.37,3.88
				c-0.36,1.03-1.06,1.79-1.47,2.78c-0.01,0.03-0.03,0.06-0.04,0.1c-1.69,0.54-3.28,0.76-4.75,0.7c0.03-0.1,0.06-0.2,0.08-0.28
				c0.8-2.46,1.82-5.31,0.46-7.76c-0.52,0.31-0.69,0.76-0.9,1.28c-0.52,1.28-0.92,2.59-1.37,3.88c-0.3,0.88-0.86,1.56-1.27,2.36
				c-0.16-0.05-0.32-0.1-0.48-0.16C436.59,104.43,434.43,86.52,449.44,85.33z"/>
			<path class="st6" d="M456.6,105.29c0.45-1.3,0.85-2.6,1.37-3.88c0.21-0.52,0.38-0.97,0.9-1.28c1.11,1.99,0.64,4.24,0,6.33
				c-1.3,0.75-2.56,1.31-3.77,1.71c0.01-0.03,0.03-0.07,0.04-0.1C455.54,107.07,456.25,106.32,456.6,105.29z"/>
			<path class="st6" d="M449.98,102.1c0.21-0.52,0.38-0.97,0.9-1.28c1.37,2.45,0.34,5.3-0.46,7.76c-0.03,0.08-0.05,0.18-0.08,0.28
				c-1.06-0.04-2.06-0.22-3-0.51c0.41-0.8,0.97-1.48,1.27-2.36C449.06,104.69,449.47,103.39,449.98,102.1z"/>
		</g>
		<g>
			<g>
				<path class="st15" d="M376.03,85.33c-5.12-0.41-8.41,0.3-11.87,3.63c-5.52,5.33-6.24,11.6,0.75,16.43
					c0.57,0.39,1.13,0.75,1.69,1.07c-0.64-2.09-1.11-4.34,0-6.33c0.52,0.31,0.69,0.76,0.9,1.28c0.52,1.28,0.92,2.59,1.37,3.88
					c0.36,1.03,1.06,1.79,1.47,2.78c0.01,0.03,0.03,0.06,0.04,0.1c1.69,0.54,3.28,0.76,4.75,0.7c-0.03-0.1-0.06-0.2-0.08-0.28
					c-0.8-2.46-1.82-5.31-0.46-7.76c0.52,0.31,0.69,0.76,0.9,1.28c0.52,1.28,0.92,2.59,1.37,3.88c0.3,0.88,0.86,1.56,1.27,2.36
					c0.16-0.05,0.32-0.1,0.48-0.16C388.88,104.43,391.04,86.52,376.03,85.33z"/>
				<path class="st6" d="M368.86,105.29c-0.45-1.3-0.85-2.6-1.37-3.88c-0.21-0.52-0.38-0.97-0.9-1.28c-1.11,1.99-0.64,4.24,0,6.33
					c1.3,0.75,2.56,1.31,3.77,1.71c-0.01-0.03-0.03-0.07-0.04-0.1C369.93,107.07,369.22,106.32,368.86,105.29z"/>
				<path class="st6" d="M375.48,102.1c-0.21-0.52-0.38-0.97-0.9-1.28c-1.37,2.45-0.34,5.3,0.46,7.76c0.03,0.08,0.05,0.18,0.08,0.28
					c1.06-0.04,2.06-0.22,3-0.51c-0.41-0.8-0.97-1.48-1.27-2.36C376.4,104.69,376,103.39,375.48,102.1z"/>
			</g>
		</g>
	</g>
</g>
<g>
	<path class="st9" d="M129.62,78.13c-0.69,0-1.52-0.09-4.32-0.09c-2.02,0-3.17,0.09-3.68,0.09l-1.75-6.07
		c-1.29,0.28-3.17,0.51-6.17,0.51c-3.17,0-5.06-0.23-6.39-0.51l-1.79,6.07c-0.51,0-1.61-0.09-3.4-0.09c-2.67,0-3.17,0.09-3.82,0.09
		l10.35-31.38c0.46,0,2.62-0.14,5.34-0.14s4.83,0.14,5.29,0.14L129.62,78.13z M118.4,66.86l-4.19-14.54h-1.01l-4.32,14.54
		c1.2,0.05,2.76,0.05,4.88,0.05C115.59,66.91,117.15,66.86,118.4,66.86z"/>
	<path class="st9" d="M159.06,61.06c0,11.13-7.59,17.53-17.16,17.53c-4.55,0-7.82-0.78-10.08-1.7c0-0.18,0.23-4.19,0.23-14.08
		c0-8.37-0.37-14.63-0.37-15.5c3.45-0.51,7.91-0.92,10.58-0.92C149.72,46.39,159.06,49.56,159.06,61.06z M152.11,60.92
		c0-5.43-2.35-8.23-10.17-8.23c-1.06,0-2.07,0.05-3.04,0.09c-0.05,2.58-0.14,5.48-0.14,9.85c0,4.88,0.05,7.64,0.09,9.89
		c1.06,0.05,1.89,0.09,2.39,0.09C147.7,72.61,152.11,69.02,152.11,60.92z"/>
	<path class="st9" d="M189.47,61.06c0,11.13-7.59,17.53-17.16,17.53c-4.55,0-7.82-0.78-10.08-1.7c0-0.18,0.23-4.19,0.23-14.08
		c0-8.37-0.37-14.63-0.37-15.5c3.45-0.51,7.91-0.92,10.58-0.92C180.13,46.39,189.47,49.56,189.47,61.06z M182.52,60.92
		c0-5.43-2.35-8.23-10.17-8.23c-1.06,0-2.07,0.05-3.04,0.09c-0.05,2.58-0.14,5.48-0.14,9.85c0,4.88,0.05,7.64,0.09,9.89
		c1.06,0.05,1.89,0.09,2.39,0.09C178.1,72.61,182.52,69.02,182.52,60.92z"/>
	<path class="st9" d="M230.87,78.13c-0.69,0-1.52-0.09-4.32-0.09c-2.02,0-3.17,0.09-3.68,0.09l-1.75-6.07
		c-1.29,0.28-3.17,0.51-6.17,0.51c-3.17,0-5.06-0.23-6.39-0.51l-1.79,6.07c-0.51,0-1.61-0.09-3.4-0.09c-2.67,0-3.17,0.09-3.82,0.09
		l10.35-31.38c0.46,0,2.62-0.14,5.34-0.14s4.83,0.14,5.29,0.14L230.87,78.13z M219.64,66.86l-4.19-14.54h-1.01l-4.32,14.54
		c1.2,0.05,2.76,0.05,4.88,0.05C216.83,66.91,218.4,66.86,219.64,66.86z"/>
	<path class="st9" d="M269.27,61.06c0,11.13-7.59,17.53-17.16,17.53c-4.55,0-7.82-0.78-10.08-1.7c0-0.18,0.23-4.19,0.23-14.08
		c0-8.37-0.37-14.63-0.37-15.5c3.45-0.51,7.91-0.92,10.58-0.92C259.94,46.39,269.27,49.56,269.27,61.06z M262.33,60.92
		c0-5.43-2.35-8.23-10.17-8.23c-1.06,0-2.07,0.05-3.04,0.09c-0.05,2.58-0.14,5.48-0.14,9.85c0,4.88,0.05,7.64,0.09,9.89
		c1.06,0.05,1.89,0.09,2.39,0.09C257.91,72.61,262.33,69.02,262.33,60.92z"/>
	<path class="st9" d="M272.03,62.35c0-10.31,7.5-15.96,16.52-15.96c8.97,0,16.52,5.66,16.52,15.96c0,10.26-7.45,16.29-16.52,16.29
		C279.48,78.64,272.03,72.61,272.03,62.35z M297.61,62.4c0-6.07-3.68-9.48-9.06-9.48c-5.38,0-9.06,3.4-9.06,9.48
		s3.63,9.71,9.06,9.71C293.98,72.1,297.61,68.47,297.61,62.4z"/>
	<path class="st9" d="M336.89,72.7c-2.44,3.5-6.67,5.89-13.11,5.89c-8.6,0-15.96-5.01-15.96-16.01c0-11.41,7.96-16.19,16.84-16.19
		c3.96,0,9.25,1.33,10.49,2.16l-0.64,7.04c-1.43-1.06-5.01-2.48-9.66-2.53c-5.11,0-9.71,2.85-9.71,9.43c-0.09,7.13,4,9.75,8.74,9.75
		c2.71,0,4.83-0.46,6.53-1.33v-4.69c-0.97,0.18-2.16,0.23-3.59,0.23c-2.53,0-5.01-0.41-5.34-0.51l-0.18-5.57
		c0.23,0,4.05,0.14,9.2,0.14c1.79,0,4.42-0.09,6.17-0.23C336.39,65.53,336.57,71.18,336.89,72.7z"/>
</g>
</svg>
