<?xml version="1.0" encoding="utf-8"?>
<!-- Generator: Adobe Illustrator 24.2.3, SVG Export Plug-In . SVG Version: 6.00 Build 0)  -->
<svg version="1.1" id="Layer_1" xmlns="http://www.w3.org/2000/svg" xmlns:xlink="http://www.w3.org/1999/xlink" x="0px" y="0px"
	 viewBox="0 0 126.7 130.1" style="enable-background:new 0 0 126.7 130.1;" xml:space="preserve">
<style type="text/css">
	.st0{fill:#AFAFAF;}
	.st1{fill:#F15A29;}
	.st2{fill:#FFFFFF;}
	.st3{fill:#FEFEFE;}
	.st4{fill:#0C0C0C;}
</style>
<g>
	<g>
		<path class="st0" d="M83.9,92.4l-1.7,1.5c-0.2-0.5-0.5-1-0.8-1.5c-4.3-8-16.6-8-23.3-6.1c-4.8,1.4-9.4,3.1-12.5,7.9l-2-1.8
			c-6.2,8.9-7.6,18.6-7.1,26.6h54.4C91.4,111,90.1,101.3,83.9,92.4z"/>
	</g>
	<g>
		<path class="st1" d="M37,82.5c-1.3,3.4-1.4,9.3-0.1,12.6c1.3,3.2,3.7,5.9,5.9,7.9c4.9,4.4,11,6.4,16.8,6.7
			c8.6,0.6,17.5,0.5,24.5-6.6c3.5-3.5,6.4-7.2,7.1-13.2c1.6-15.7-9.7-19.2-19.5-21.5c-9.1-2.1-23.2-3.7-30,6.4
			C40.3,77,38,79.9,37,82.5z"/>
	</g>
	<g>
		<path class="st2" d="M90.2,60.7c0.1-6.2-0.4-12.1-1.3-16.8c-0.4-2.7-0.8-5.3-1.2-7.7c-2.2-11.5-13.3-19.3-24.4-18.5
			c-11.1-0.8-22.2,7-24.4,18.5c-0.5,2.4-0.9,5-1.2,7.7c-0.8,4.7-1.3,10.6-1.3,16.8c-0.2,17.5,3.4,35.5,16.3,42
			c3,1.7,6.5,2.6,10.6,2.5c4.1,0.1,7.6-0.8,10.6-2.5C86.9,96.2,90.4,78.2,90.2,60.7z"/>
		<g>
			<g>
				<path class="st2" d="M95.9,46.7c-0.6,0.5-1.1,1-1.7,1.3c-15.5,9.7-26.1-16.9-17.9-27.5c6.8-8.8,26.2-18,37.7-14.9
					c5.3,1.5,3.2,3.1,1.2,7c-3.6,6.9-6.2,14-10,20.8C103.1,36.9,99.4,43.4,95.9,46.7z"/>
				<path class="st0" d="M83.1,22.9c-1.9,3-3.5,8.1-1.8,11.5c1.8,3.5,7.5,6,11.1,4.4c3.5-1.5,5-6.2,6.6-9.4
					c2.2-4.3,5.7-7.6,7.9-11.9c1.6-3.1-0.8-2.8-3.8-2.7c-3,0.1-5.7,0.6-8.4,1.3C90.7,17.2,85.4,19.3,83.1,22.9z"/>
			</g>
			<g>
				<path class="st2" d="M30.8,46.7c0.6,0.5,1.1,1,1.7,1.3C48,57.8,58.6,31.1,50.4,20.5c-6.8-8.8-26.2-18-37.7-14.9
					c-5.3,1.5-3.2,3.1-1.2,7c3.6,6.9,6.2,14,10,20.8C23.6,36.9,27.2,43.4,30.8,46.7z"/>
				<path class="st0" d="M43.6,22.9c1.9,3,3.5,8.1,1.8,11.5c-1.8,3.5-7.5,6-11.1,4.4c-3.5-1.5-5-6.2-6.6-9.4
					c-2.2-4.3-5.7-7.6-7.9-11.9c-1.6-3.1,0.8-2.8,3.8-2.7c3,0.1,5.7,0.6,8.4,1.3C36,17.2,41.3,19.3,43.6,22.9z"/>
			</g>
		</g>
		<g>
			<path class="st2" d="M106.3,87.6c1.6-3.7-5.1-14.8-9.6-19.4c-8.2-8.4-28.6-13.4-25.6,3.7c0.2,1.2,0.6,2.3,1.1,3.3
				c-0.3,0.5-0.6,1-0.9,1.5c-3.2,6.1,1.2,12.2,4.1,17.4c5,9,4.2,14.7,4.3,24.7c4.6-2.4,7.4-6.3,8.6-12.1c1.6,3.3,1.9,5.1,1.9,8
				c2.9-3.7,5.4-7.9,5.3-13.1c0.6,0.4,1.8,4.1,1.6,8c3.6-1.9,4.5-12,3.7-18.8c1.5,1.3,2.4,2.4,3.5,4.1c-0.1-4.4-0.7-8.9-3.5-13.2
				C101.5,81.7,104.3,84.3,106.3,87.6z"/>
			<path class="st0" d="M88.2,106.6c1.6,3.3,1.9,5.1,1.9,8c1.8-2.3,3.4-4.7,4.4-7.5c-0.2-0.2-0.4-0.3-0.6-0.5
				c-3.9-2.7-10.5-3.3-14.5-0.3c0.4,3.7,0.2,7.5,0.2,12.4C84.2,116.4,87,112.5,88.2,106.6z"/>
			<path class="st2" d="M20.4,87.6c-1.6-3.7,5.1-14.8,9.6-19.4c8.2-8.4,28.6-13.4,25.6,3.7c-0.2,1.2-0.6,2.3-1.1,3.3
				c0.3,0.5,0.6,1,0.9,1.5c3.2,6.1-1.2,12.2-4.1,17.4c-5,9-4.2,14.7-4.3,24.7c-4.6-2.4-7.4-6.3-8.6-12.1c-1.6,3.3-1.9,5.1-1.9,8
				c-2.9-3.7-5.4-7.9-5.3-13.1c-0.6,0.4-1.8,4.1-1.6,8c-3.6-1.9-4.5-12-3.7-18.8c-1.5,1.3-2.4,2.4-3.5,4.1c0.1-4.4,0.7-8.9,3.5-13.2
				C25.2,81.7,22.4,84.3,20.4,87.6z"/>
			<path class="st0" d="M33.1,106.3c-0.4,0.3-0.7,0.5-1,0.8c1,2.7,2.6,5.1,4.4,7.4c0.1-2.9,0.4-4.7,1.9-8c1.2,5.9,4,9.8,8.6,12.1
				c0-5.1-0.2-9.1,0.3-12.9C43.3,103.1,36.9,103.7,33.1,106.3z"/>
		</g>
		<g>
			<path d="M73.1,83.4c0,2.6-4.3,6.1-9.7,6.1c-5.4,0-9.7-3.4-9.7-6.1c0-2.6,4.3-3.6,9.7-3.6C68.7,79.7,73.1,80.8,73.1,83.4z"/>
			<path class="st2" d="M57.7,85c2,0,4-0.8,4.5-1.9c0.5-1.1-0.6-2-2.6-2c-2,0-4,0.8-4.5,1.9C54.6,84,55.7,84.9,57.7,85z"/>
			<path d="M71.7,94.4c-0.4-0.4-1-0.4-1.4,0c-0.3,0.3-2.7,2.9-5.4,0.5v-8.4c0-0.6-0.4-1.1-1-1.1c-0.1,0-0.2,0-0.2,0
				c-0.1,0-0.1,0-0.2,0c-0.5,0-1,0.5-1,1.1v8.4c-2.8,2.4-5.2-0.2-5.4-0.5c-0.4-0.4-1-0.4-1.4,0c-0.4,0.4-0.4,1.1,0,1.6
				c0.8,1,2.5,2.2,4.4,2.2c1.1,0,2.4-0.4,3.6-1.5c1.2,1.1,2.5,1.5,3.6,1.5c1.9,0,3.6-1.2,4.4-2.2C72.1,95.5,72.1,94.8,71.7,94.4z"/>
		</g>
		<g>
			<g>
				<path d="M83.3,55.2c0,4.2-2.4,7.6-5.4,7.6c-3,0-5.4-3.4-5.4-7.6c0-4.2,2.4-7.6,5.4-7.6C80.9,47.7,83.3,51.1,83.3,55.2z"/>
				<path class="st2" d="M78.4,53.6c-0.8,1.8-2.4,2.8-3.5,2.3c-1.1-0.5-1.4-2.4-0.6-4.1c0.8-1.8,2.4-2.8,3.5-2.3
					C79,50,79.2,51.8,78.4,53.6z"/>
			</g>
			<g>
				<path d="M54.2,55.2c0,4.2-2.4,7.6-5.4,7.6c-3,0-5.4-3.4-5.4-7.6c0-4.2,2.4-7.6,5.4-7.6C51.8,47.7,54.2,51.1,54.2,55.2z"/>
				<path class="st2" d="M49.3,53.6c-0.8,1.8-2.4,2.8-3.5,2.3c-1.1-0.5-1.4-2.4-0.6-4.1c0.8-1.8,2.4-2.8,3.5-2.3
					C49.9,50,50.1,51.8,49.3,53.6z"/>
			</g>
		</g>
		<path class="st2" d="M85.1,33.2c2.5,0.5,5,0.5,7.4-0.2c-0.9,1-1.8,2-2.9,2.8c2.5,0.4,5.1,0.3,7.6-0.3c-0.6,2.2-2.4,3.9-4.4,4.8
			c-2.1,0.9-4.4,1.1-6.6,1c-2.2-0.1-4.5-0.4-6.3-1.8c-2.5-1.9-2.8-5.5-0.3-7.6c1.9-1.6,5.5-1.4,7.8-2C87.3,30.3,85.6,33.3,85.1,33.2
			z"/>
		<path class="st2" d="M42.1,33.2c-2.5,0.5-5,0.5-7.4-0.2c0.9,1,1.8,2,2.9,2.8c-2.5,0.4-5.1,0.3-7.6-0.3c0.6,2.2,2.4,3.9,4.4,4.8
			c2.1,0.9,4.4,1.1,6.6,1c2.2-0.1,4.5-0.4,6.3-1.8c2.5-1.9,2.8-5.5,0.3-7.6c-1.9-1.6-5.5-1.4-7.8-2C39.9,30.3,41.6,33.3,42.1,33.2z"
			/>
		<path class="st2" d="M57,10.1c3.1-1.8,6.4-3.3,9.8-4.5c-2.6,2.3-4.8,5-6.5,7.9c5.8-1.6,9.7-3.9,15.7-4.7c-3.1,1.4-4,4.3-6.6,6.3
			c4-1.3,7.9-2.7,11.9-4c-2.8,2.4-1.9,6.6-3.1,9.9c-0.9,2.5-2.9,4.6-5.3,6.2c-3.3,2.2-7.3,3.7-11.4,3.8c-4.7,0.1-11.4-1.5-12.6-6.2
			C47.1,18.2,51.3,13.4,57,10.1z"/>
	</g>
	<path class="st3" d="M100,120.4c-0.7-2-1.8-4-3.5-5.9c-3.3-3.8-5.8-8.8-10.6-8.4c-6.2,0.6-14.2,9.2-15.1,14.3L100,120.4z"/>
	<path class="st3" d="M27.7,120.4c0.7-2,1.8-4,3.5-5.9c3.3-3.8,5.8-8.8,10.6-8.4c6.2,0.6,14.2,9.2,15.1,14.3L27.7,120.4z"/>
	<g>
		<path class="st2" d="M30.2,108c5.5-3.8,16.2-3.3,17.8,5c0.6,3.2-0.6,8.8-3.2,10.9c-0.3-0.5-0.6-1-0.8-1.5
			c-0.5,1.3-2.2,2.2-2.3,2.1c-0.5,0-0.7-0.3-1.6-1.3c-0.5,0.5,0,1.3-0.5,1.8c-0.7-0.3-2.4-1.7-2.8-1.9c-0.3,0.3-1.4,1.6-1.4,2
			c-0.6,0-2.1-0.6-2.6-0.9c-0.6-0.4-1.4-1.2-2-1.7c-0.2-0.1-0.7,1.7-0.7,1.8c-0.6-0.7-2.2-1.7-3.3-4c-0.8-1.7-0.6-3.9-0.2-5.8
			C27,112,28,109.6,30.2,108z"/>
		<g>
			<path class="st4" d="M34.2,122.8c-0.3-1.1-0.6-2.1-1-3.2c-0.1-0.4-0.3-0.8-0.6-1c-0.8,1.6-0.4,3.9,0.1,5.6c0.9,0.6,1.7,1,2.6,0.9
				c0,0,0-0.1,0-0.1C34.6,124,34.4,123.6,34.2,122.8z"/>
			<path class="st4" d="M39.7,119.7c-0.1-0.4-0.2-1-0.6-1.2c-1,2-0.3,4.3,0.3,6.4c0,0.1,0,0.1,0.1,0.2c0.8,0,1.5-0.2,2.1-0.4
				C41.3,123.9,40.2,121.5,39.7,119.7z"/>
		</g>
	</g>
	<g>
		<path class="st2" d="M97.5,108c-5.5-3.8-16.2-3.3-17.8,5c-0.6,3.2,0.6,8.8,3.2,10.9c0.3-0.5,0.6-1,0.8-1.5
			c0.5,1.3,2.2,2.2,2.3,2.1c0.5,0,0.7-0.3,1.6-1.3c0.5,0.5,0,1.3,0.5,1.8c0.7-0.3,2.4-1.7,2.8-1.9c0.3,0.3,1.4,1.6,1.4,2
			c0.6,0,2.1-0.6,2.6-0.9c0.6-0.4,1.4-1.2,2-1.7c0.2-0.1,0.7,1.7,0.7,1.8c0.6-0.7,2.2-1.7,3.3-4c0.8-1.7,0.6-3.9,0.2-5.8
			C100.6,112,99.7,109.6,97.5,108z"/>
		<g>
			<path class="st4" d="M93.5,122.8c0.3-1.1,0.6-2.1,1-3.2c0.1-0.4,0.3-0.8,0.6-1c0.8,1.6,0.4,3.9-0.1,5.6c-0.9,0.6-1.7,1-2.6,0.9
				c0,0,0-0.1,0-0.1C93,124,93.3,123.6,93.5,122.8z"/>
			<path class="st4" d="M88,119.7c0.1-0.4,0.2-1,0.6-1.2c1,2,0.3,4.3-0.3,6.4c0,0.1,0,0.1-0.1,0.2c-0.8,0-1.5-0.2-2.1-0.4
				C86.4,123.9,87.5,121.5,88,119.7z"/>
		</g>
	</g>
</g>
</svg>
