<?xml version="1.0" encoding="utf-8"?>
<!-- Generator: Adobe Illustrator 24.2.3, SVG Export Plug-In . SVG Version: 6.00 Build 0)  -->
<svg version="1.1" id="Layer_1" xmlns="http://www.w3.org/2000/svg" xmlns:xlink="http://www.w3.org/1999/xlink" x="0px" y="0px"
	 viewBox="0 0 460 130.1" style="enable-background:new 0 0 460 130.1;" xml:space="preserve">
<style type="text/css">
	.st0{enable-background:new    ;}
	.st1{fill:#FFFFFF;}
	.st2{fill:#EADAAD;}
	.st3{fill:#995120;}
	.st4{fill:#FCF7E7;}
	.st5{fill:#EF4136;}
	.st6{fill:#663008;}
	.st7{fill:#C4B89D;}
	.st8{fill:#FEFEFE;}
	.st9{fill:#45484C;}
	.st10{fill:#383731;}
	.st11{fill:#9E561B;}
	.st12{fill:#F15A29;}
	.st13{fill:#E88F46;}
</style>
<g class="st0">
	<path class="st1" d="M145.2,72c6.9,0,10.1-0.3,12.2-0.6l-0.4,6.4c-1.5,0.2-5.1,0.5-11.4,0.5c-3.7,0-7.8-0.2-10.4-0.6
		c0-0.8,0.4-5.9,0.4-16c0-9.9-0.4-13.7-0.4-14.5c1.5-0.2,5.9-0.4,10.4-0.4c7.3,0,10.1,0.2,11.8,0.3l-0.5,6.5
		c-1.7,0-4.1-0.2-10.7-0.2c-1.2,0-2.5,0-3.8,0c0,1.8,0,4,0,6.7c1.1,0,2.3,0.1,3.8,0.1c5.2,0,8.8,0,9.4,0l-0.3,5.5
		c-2.1,0.2-4,0.3-7.5,0.3c-2.3,0-4.1-0.1-5.4-0.3V72C143.4,72,144.3,72,145.2,72z"/>
	<path class="st1" d="M189.1,61.1c0,11.1-7.6,17.5-17.2,17.5c-4.6,0-7.8-0.8-10.1-1.7c0-0.2,0.2-4.2,0.2-14.1
		c0-8.4-0.4-14.6-0.4-15.5c3.5-0.5,7.9-0.9,10.6-0.9C179.8,46.4,189.1,49.6,189.1,61.1z M182.2,60.9c0-5.4-2.3-8.2-10.2-8.2
		c-1.1,0-2.1,0-3,0.1c0,2.6-0.1,5.5-0.1,9.8c0,4.9,0,7.6,0.1,9.9c1.1,0,1.9,0.1,2.4,0.1C177.8,72.6,182.2,69,182.2,60.9z"/>
	<path class="st1" d="M193.3,62.4c0-10.6-0.3-14.7-0.3-15.5c0.4,0,1.9,0.1,3.7,0.1c1.7,0,3.1-0.1,3.6-0.1c0,0.8-0.3,4.9-0.3,15.5
		c0,12.7,0.2,15,0.2,15.8c-0.6,0-1.5-0.1-3.5-0.1c-1.9,0-3,0.1-3.6,0.1C193.1,77.3,193.3,75,193.3,62.4z"/>
	<path class="st1" d="M219.6,53.3c0,2.1,0,4.9,0,8.8c0,13.8,0.2,15.1,0.2,16c-0.6,0-1.9-0.1-3.5-0.1c-2,0-3,0.1-3.6,0.1
		c0-0.8,0.2-2.1,0.2-16c0-3.9,0-6.8,0-8.8l-8.6,0.1l-0.2-6.4c0.9,0,5.7-0.3,12.3-0.3c6.6,0,11.5,0.3,12.4,0.3l-0.3,6.4L219.6,53.3z"
		/>
	<path class="st1" d="M269.4,61.1c0,11.1-7.6,17.5-17.2,17.5c-4.6,0-7.8-0.8-10.1-1.7c0-0.2,0.2-4.2,0.2-14.1
		c0-8.4-0.4-14.6-0.4-15.5c3.5-0.5,7.9-0.9,10.6-0.9C260.1,46.4,269.4,49.6,269.4,61.1z M262.5,60.9c0-5.4-2.3-8.2-10.2-8.2
		c-1.1,0-2.1,0-3,0.1c0,2.6-0.1,5.5-0.1,9.8c0,4.9,0,7.6,0.1,9.9c1.1,0,1.9,0.1,2.4,0.1C258.1,72.6,262.5,69,262.5,60.9z"/>
	<path class="st1" d="M273.1,62.4c0-10.3,7.5-16,16.5-16c9,0,16.5,5.7,16.5,16c0,10.3-7.5,16.3-16.5,16.3S273.1,72.6,273.1,62.4z
		 M298.7,62.4c0-6.1-3.7-9.5-9.1-9.5s-9.1,3.4-9.1,9.5c0,6.1,3.6,9.7,9.1,9.7S298.7,68.5,298.7,62.4z"/>
	<path class="st1" d="M338.8,72.7c-2.4,3.5-6.7,5.9-13.1,5.9c-8.6,0-16-5-16-16c0-11.4,8-16.2,16.8-16.2c4,0,9.2,1.3,10.5,2.2
		l-0.6,7c-1.4-1.1-5-2.5-9.7-2.5c-5.1,0-9.7,2.9-9.7,9.4c-0.1,7.1,4,9.8,8.7,9.8c2.7,0,4.8-0.5,6.5-1.3v-4.7c-1,0.2-2.2,0.2-3.6,0.2
		c-2.5,0-5-0.4-5.3-0.5l-0.2-5.6c0.2,0,4,0.1,9.2,0.1c1.8,0,4.4-0.1,6.2-0.2C338.3,65.5,338.5,71.2,338.8,72.7z"/>
</g>
<g>
	<g>
		<g>
			<g>
				<path class="st2" d="M78.4,100.7h3.8c0.7-0.4,1.3-1,2-1.5c1.8-1.5,3.4-3.3,3.9-3.8c2.1-2.1,3.5-4.6,4.6-7.4
					c0.3-0.7,2.2-10.3-0.9-8c-1.1,0.8-1.4,3.2-1.8,4.5c-0.6,1.8-1.3,3.5-2.3,5.2c-1.4,2.5-3.3,4.9-5.7,6.5c-1.3,0.9-4.1,1.8-3.9,3.8
					C78.3,100.3,78.4,100.5,78.4,100.7z"/>
				<path class="st3" d="M91.9,80c-1.1,0.8-1.4,3.2-1.8,4.5c-0.5,1.4-1,2.7-1.6,4c1.2,0.3,2.3,1.1,3.2,1.8c0.4-0.7,0.7-1.5,1-2.2
					C93,87.3,95,77.7,91.9,80z"/>
			</g>
			<g>
				<g>
					<g>
						<path class="st2" d="M92.4,100.7c-3.7-2.5-8.2-2-12.5,0H92.4z"/>
					</g>
				</g>
			</g>
			<g>
				<g>
					<g>
						<path class="st2" d="M44.2,100.7c-3.7-1.5-7.6-1.8-10.9,0H44.2z"/>
					</g>
				</g>
			</g>
			<path class="st4" d="M85.7,100.7c0.1-2.1-0.1-4.3-0.4-6.4c-0.3-2.5-1.2-4.9-2-7.3c-0.4-1.3-1.1-2.6-1.6-3.9
				c-2.9-6.9-11.6-9.4-19.2-9c-7,0.4-12.3,4.1-16.9,8.4c-1.3,1.2-2,2-2.7,3.5c-1.2,2.5-2.4,5.4-2.5,8.2c-0.1,2.3-0.4,4.5-0.3,6.7
				H85.7z"/>
			<g>
				<path class="st3" d="M84.5,100.7h1.3c0.1-2.1,0.1-4.4-0.2-6.5c-0.3-2.5-1.3-4.9-2.1-7.3c-0.3-1-0.7-1.9-1.1-2.8
					c-0.8,0.9-1.1,2.6-0.7,3.7c0.5,1.5,0.3,2.5-0.2,4.2c-0.7,2.2-0.4,3.8,0.6,5.9C82.5,98.9,83.4,100.2,84.5,100.7z"/>
				<path class="st3" d="M41,100.7c1.1-0.5,2-1.8,2.5-2.8c1-2.1,1.3-3.7,0.6-5.9c-0.5-1.6-0.7-2.6-0.2-4.2c0.3-0.9,0.2-2.2-0.3-3.1
					c-0.2,0.3-0.4,0.7-0.6,1.1c-1.2,2.5-2.4,5.4-2.5,8.2c-0.1,2.3-0.4,4.5-0.3,6.7H41z"/>
			</g>
			<path class="st5" d="M44.1,77.5c-0.9,2-1,5.6,0,7.6c0.9,1.9,2.6,3.6,4.2,4.8c3.5,2.6,7.9,3.8,12.1,4.1c6.2,0.3,12.6,0.3,17.6-4
				c2.5-2.1,4.6-4.3,5.1-7.9c1.2-9.5-7-11.6-14-13c-6.6-1.3-16.7-2.2-21.6,3.8C46.5,74.2,44.8,75.9,44.1,77.5z"/>
			<path class="st2" d="M76.1,100.7c-0.7-0.2-1.4-0.3-2.4-0.1c-0.2,0-0.4,0.1-0.5,0.1H76.1z"/>
			<g>
				<path class="st6" d="M23,100.7h10.4c1.1-0.4,2.1-0.9,2.8-1.2c5.1-2.5,5.3-6.2,4-11c-3-11.7-3.5-27-0.6-38.7
					c1.4-5.5,5-10,5.8-15.7c1.2-8.1-5-8.1-9.4-2.7c-4.5,5.7-8.8,13.3-12.3,19.6c-4.9,8.8-8.6,19.2-8.5,29.4
					C15.4,86.3,17.5,96.4,23,100.7z"/>
				<path class="st6" d="M86.1,50.1c2.9,11.7,2.5,27-0.6,38.7c-1.3,4.9-1.1,8.5,4,11c0.5,0.3,1.3,0.6,2.2,0.9H103
					c5.3-4.4,7.3-14.3,7.4-20.2c0.1-10.1-3.6-20.5-8.5-29.4c-4.5-8.2-9.1-19.2-18-23.6c-2.2-1.1-3.9-2-4.3,1c-0.3,2.2,0.8,4,1,6.1
					C81.2,40.2,84.7,44.7,86.1,50.1z"/>
				<path class="st3" d="M90.5,69.7c-0.4-7.5-3.5-14.4-4.6-21.6c-1.2-7.5-0.7-16-4.4-23c-4.1-7.6-11.3-9.8-18.8-9.6
					c-7.5-0.3-14.8,2-18.9,9.6c-3.7,7-3.2,15.4-4.4,23c-1.2,7.1-4.2,14.1-4.6,21.6C34,82.1,48.6,86.1,58.1,84.9
					c1.5-0.2,3-0.1,4.5,0.1c1.5-0.2,3-0.3,4.5-0.1C76.5,86.1,91.1,82.1,90.5,69.7z"/>
				<path class="st2" d="M65.5,89.1c2,0.4,4,1.1,6,0.6c2.8-0.8,2.7-3.3,2-5.6c-1.8-5.7-8.8-6-13.3-3.9c-2.1,1-4.9,2.7-5.8,5.1
					c-0.8,2.2,1.1,4.5,3.4,4.8c1.9,0.3,3.7-0.8,5.6-1C64,88.9,64.8,88.9,65.5,89.1z"/>
				<path d="M67.1,80.5c-2.3-0.1-6.7-1.1-8.8,0.2c-2.3,1.4,0.8,4.1,2.5,4.5c2.6,0.7,5.8,0.5,8-1.2C71.2,82.2,69.9,80.7,67.1,80.5z"
					/>
				<path class="st4" d="M79,63.7c-2.2-4.1-5.5-7.5-7.9-11.5c-2-3.3-2.2-8.4-2.4-12.2c0-0.1,0-0.2,0-0.4c-0.2-4-0.1-21.5-4.6-23.9
					c-0.5,0-1,0-1.4,0c-0.3,0-0.6,0-0.8,0c-5.9,2.6-3.3,21.6-4.4,27.2c-0.8,4-1.4,7.9-4.2,10.9c-4.7,5.2-8.5,8.8-9,17.3
					c-0.2,3.9,0.1,9.1,1.9,12.8c0.8,1.6,1.8,3,3.2,3.9c4.5,2.9,7,0,9.4-2.8c2-2.4,3.9-4.7,6.9-3.2c1.3,0.7,2.5,2.1,3.6,3.4
					c1.2,1.4,2.4,2.6,4,2.8c3.4,0.5,5.6-1.5,6.9-4.5c0.8-1.7,1.2-3.7,1.4-5.7C81.9,73,81.2,67.9,79,63.7z"/>
				<path d="M63.6,62.5c3.8,0.5,11.4,4.6,6.8,9.6C68,74.7,58,75.3,56.1,71.8C53.3,66.9,59.7,62,63.6,62.5z"/>
				<path class="st1" d="M63.2,65.2c-0.1-0.8-1.5-1-3.3-0.3c-1.7,0.7-3.1,1.9-3,2.8c0.1,0.8,1.5,1,3.3,0.3
					C61.9,67.3,63.3,66.1,63.2,65.2z"/>
				<g>
					<path d="M44.4,43.4c0,4.2,2,7.6,4.4,7.6c2.4,0,4.4-3.4,4.4-7.6c0-4.2-2-7.6-4.4-7.6C46.3,35.8,44.4,39.2,44.4,43.4z"/>
					<path class="st1" d="M49,40.9c-0.6,1.3-1.8,2-2.7,1.7c-0.9-0.4-1.2-1.7-0.7-3c0.6-1.3,1.8-2,2.7-1.7
						C49.2,38.2,49.5,39.6,49,40.9z"/>
				</g>
				<g>
					<path d="M72.2,43.4c0,4.2,2,7.6,4.4,7.6c2.4,0,4.4-3.4,4.4-7.6c0-4.2-2-7.6-4.4-7.6C74.1,35.8,72.2,39.2,72.2,43.4z"/>
					<path class="st1" d="M76.7,40.9c-0.6,1.3-1.8,2-2.7,1.7c-0.9-0.4-1.2-1.7-0.7-3c0.6-1.3,1.8-2,2.7-1.7
						C77,38.2,77.3,39.6,76.7,40.9z"/>
				</g>
				<rect x="57.3" y="76" transform="matrix(8.863918e-03 -1 1 8.863918e-03 -13.4071 139.4139)" width="12.7" height="1"/>
			</g>
		</g>
	</g>
	<path class="st7" d="M44.5,100.4h6.2c-0.1-0.2-0.2-0.4-0.3-0.6c-1.6-3.1-5.4-6.9-9.1-8.5c-0.1-0.1-0.3-0.1-0.4-0.2
		c-0.2,0.9-0.4,1.9-0.5,2.8c-0.1,2.3-0.4,4.5-0.3,6.7h4.3C44.5,100.6,44.5,100.5,44.5,100.4z"/>
	<g>
		<path class="st7" d="M84.7,91.2c-0.2,0.1-0.4,0.2-0.7,0.3c-3.8,1.8-7.8,5.9-9.1,9h6.2c0,0.1,0.1,0.2,0.1,0.3h4.5
			c0.1-2.1-0.1-4.3-0.4-6.4C85.2,93.3,85,92.2,84.7,91.2z"/>
		<path class="st6" d="M85.4,94.3c-0.1-1-0.1-2-0.6-3.2c-0.2,0.1-0.5,0.2-0.8,0.3c-1,0.4-2,1.1-2.9,1.8c-0.3,1.7,0.1,3,0.9,4.7
			c0.5,1,1.4,2.3,2.5,2.8h1.2C85.8,98.6,85.7,96.5,85.4,94.3z"/>
	</g>
	<path class="st6" d="M43.5,97.9c0.8-1.8,1.2-3.1,0.9-4.9c-1-0.7-2-1.3-3-1.7c-0.1-0.1-0.3-0.1-0.4-0.2c-0.1,0.4-0.2,0.7-0.2,1.1
		c0,0.2-0.1,0.3-0.1,0.5c0,0.1,0,0.2-0.1,0.4c0,0.3-0.1,0.6-0.1,0.9c-0.1,2.3-0.4,4.5-0.3,6.7H41C42.1,100.2,43,99,43.5,97.9z"/>
	<g>
		<path class="st8" d="M48.2,99.9c-0.1-0.2-0.2-0.4-0.3-0.6c-1.8-3.3-6.2-7.4-10.4-9.1c-0.2-0.1-0.4-0.1-0.5-0.2
			c-1.2-0.6-2.7-1.1-4.5-1.2c-1.4-0.1-2.6-0.1-3.7,0c-2.3,0.3-4.2,1.1-6.1,3c-4.6,4.4-5.2,9.6,0.6,13.6c0.5,0.3,0.9,0.6,1.4,0.9
			c-0.5-1.7-0.9-3.6,0-5.2c0.4,0.3,0.6,0.6,0.7,1.1c0.4,1.1,0.8,2.1,1.1,3.2c0.3,0.9,0.9,1.5,1.2,2.3c0,0,0,0.1,0,0.1
			c1.4,0.4,2.7,0.6,3.9,0.6c0-0.1,0-0.2-0.1-0.2c-0.7-2-1.5-4.4-0.4-6.4c0.4,0.3,0.6,0.6,0.7,1.1c0.4,1.1,0.8,2.1,1.1,3.2
			c0.3,0.7,0.7,1.3,1.1,2c0.1,0,0.3-0.1,0.4-0.1c2.9-1.1,5-3.5,6-6.2c0.2-0.5,0.3-1,0.5-1.6H48.2z"/>
		<path class="st8" d="M93.2,88.8c-1.8,0.1-3.3,0.6-4.5,1.2c-0.3,0.1-0.5,0.2-0.8,0.3c-4.4,1.9-8.9,6.2-10.4,9.6h7.1
			c0.1,0.5,0.3,1,0.5,1.6c1,2.8,3.2,5.2,6,6.2c0.1,0,0.3,0.1,0.4,0.1c0.3-0.7,0.8-1.2,1.1-2c0.4-1.1,0.7-2.2,1.1-3.2
			c0.2-0.4,0.3-0.8,0.7-1.1c1.1,2,0.3,4.4-0.4,6.4c0,0.1,0,0.1-0.1,0.2c1.2,0,2.5-0.1,3.9-0.6c0,0,0-0.1,0-0.1
			c0.3-0.8,0.9-1.4,1.2-2.3c0.4-1.1,0.7-2.2,1.1-3.2c0.2-0.4,0.3-0.8,0.7-1.1c0.9,1.6,0.5,3.5,0,5.2c0.5-0.3,0.9-0.6,1.4-0.9
			c5.8-4,5.2-9.2,0.6-13.6C100.2,89,97.4,88.5,93.2,88.8z"/>
		<path class="st9" d="M101,101c-0.4,0.3-0.6,0.6-0.7,1.1c-0.4,1.1-0.8,2.1-1.1,3.2c-0.3,0.9-0.9,1.5-1.2,2.3c0,0,0,0.1,0,0.1
			c1-0.3,2-0.8,3.1-1.4C101.5,104.5,101.9,102.7,101,101z"/>
		<path class="st9" d="M94.4,101.6c-0.4,0.3-0.6,0.6-0.7,1.1c-0.4,1.1-0.8,2.1-1.1,3.2c-0.3,0.7-0.7,1.3-1.1,2
			c0.8,0.2,1.6,0.4,2.5,0.4c0-0.1,0-0.2,0.1-0.2C94.7,106,95.5,103.6,94.4,101.6z"/>
		<path class="st9" d="M26.6,105.3c-0.4-1.1-0.7-2.2-1.1-3.2c-0.2-0.4-0.3-0.8-0.7-1.1c-0.9,1.6-0.5,3.5,0,5.2
			c1.1,0.6,2.1,1.1,3.1,1.4c0,0,0-0.1,0-0.1C27.4,106.8,26.9,106.2,26.6,105.3z"/>
		<path class="st9" d="M32,102.7c-0.2-0.4-0.3-0.8-0.7-1.1c-1.1,2-0.3,4.4,0.4,6.4c0,0.1,0,0.1,0.1,0.2c0.9,0,1.7-0.2,2.5-0.4
			c-0.3-0.7-0.8-1.2-1.1-2C32.8,104.8,32.5,103.7,32,102.7z"/>
	</g>
</g>
<g>
	<path d="M426.7,89.5c2.2,0.3,4,1.1,5.8,3c1.5,1.6,2.6,3.2,3,4.9c1-0.6,1.9-1.3,2.7-2.1c0.2-0.2,0.4-0.4,0.6-0.6
		c1.5-1.6,2.3-3.5,2.8-5.6c0.1-0.6,0.5-6.5,0.5-6.5c-0.3,0.1-0.5,0.2-0.8,0.3c0.5-0.8,0.4-1.4,0.7-2.2c-3.8,2.1-8.3,2.8-12.3,4.3
		c-1.2,0.4-2.3,0.9-3.3,1.5c0.1,0.7,0.2,1.3,0.2,2C426.7,88.8,426.7,89.1,426.7,89.5z"/>
	<path class="st10" d="M375.2,89.5c1.7,0.1,3.1,0.6,4.2,1.2c0.4,0.1,0.8,0.3,1.2,0.5c0-1.1,0.1-2.2,0.3-3.3c-0.4-0.3-0.8-0.7-1.3-1
		c-3.3-2.6-5.6-5.2-6.4-8.3c-1,3-1.4,6.6-1.5,9.1c0,0.6-0.1,1.2-0.1,1.8C372.7,89.3,373.8,89.3,375.2,89.5z"/>
	<path class="st10" d="M418.2,86.8c-0.4,0.3-0.8,0.6-1.2,0.9c0.2,1.2,0.3,2.4,0.3,3.6c0,0,0,0.1,0,0.1c0.6-0.3,1.2-0.6,1.8-0.8
		c1.1-0.6,2.5-1.1,4.2-1.2c1.3-0.1,2.4-0.1,3.4,0c0-0.3-0.1-0.7-0.1-1c-0.1-0.7-0.2-1.3-0.2-2c-0.4-2.7-0.9-5.2-1.9-7.4
		C423.6,81.8,421.3,84.4,418.2,86.8z"/>
	<path class="st11" d="M390,100.5h18.6c1.3-3.1,5-7,8.8-9c0,0,0-0.1,0-0.1c0-1.2-0.1-2.4-0.3-3.6c-1.7,1.3-3.2,2.3-5,3.5
		c-0.6-0.6-0.2-1.6-0.5-2.3c-1.4,0.8-7.4,5.8-7.4,5.8c0,0-2.7-1.6-2.5-1.5c0.1,0-2.5,1.9-2.5,1.9c0,0-0.1-0.1-0.1-0.1
		c0,0-0.1,0.1-0.1,0.1c0,0-2.6-1.8-2.5-1.9c0.2-0.1-2.5,1.5-2.5,1.5c-0.1,0-6-5-7.4-5.8c-0.3,0.7-0.2,2.1-0.8,2.7
		c-1.7-1.1-3.1-2.5-4.7-3.8c-0.2,1.1-0.3,2.2-0.3,3.3C384.6,93.1,388.6,97.3,390,100.5z"/>
	<path class="st1" d="M415.7,78.4c-5.8,5.2-13.1,5.2-20.2,4.8c-4.8-0.3-9.9-1.7-13.9-4.9c-1.8-1.4-3.8-3.4-4.9-5.7
		c-0.5-1.2-0.8-2.8-0.8-4.5c-0.7,0.7-1.3,1.4-1.7,2.3c0,0.1-0.1,0.1-0.1,0.2c-1.4,3-1.6,5.6-1,8c0.8,3,3.1,5.7,6.4,8.3
		c0.4,0.3,0.9,0.7,1.3,1c1.6,1.4,3,2.7,4.7,3.8c0.6-0.6,0.4-2.1,0.8-2.7c1.4,0.8,7.4,5.8,7.4,5.8c0,0,2.7-1.6,2.5-1.5
		c-0.1,0,2.5,1.9,2.5,1.9c0,0,0.1-0.1,0.1-0.1c0,0,0.1,0.1,0.1,0.1c0,0,2.6-1.8,2.5-1.9c-0.2-0.1,2.5,1.5,2.5,1.5
		c0.1,0,6.1-5,7.4-5.8c0.3,0.7,0,1.6,0.5,2.3c1.7-1.2,3.3-2.2,5-3.5c0.4-0.3,0.8-0.6,1.2-0.9c3.1-2.5,5.3-5,6.3-7.8
		c0.8-2.5,0.7-5.3-0.8-8.4c0-0.1-0.1-0.1-0.1-0.2c-0.5-1-1.2-1.8-2-2.5c0,0.3,0,0.6-0.1,0.9C421,73.2,418.6,75.8,415.7,78.4z"/>
	<path class="st12" d="M419.3,67.4c-0.7,0.8-1.4,1.5-2,1.9c-0.5,0.4-1,0.7-1.5,0.9c-3,5.4-12.2,8.8-17.4,8.2
		c-5.3-0.6-13.1-2.9-15.6-8.2c-0.5-0.2-0.9-0.5-1.4-0.8c-0.6-0.4-1.3-1.1-2-1.9c-1-0.6-2-1-3.1-1.3c-0.1,0.7-0.1,1.3-0.1,2
		c0,1.6,0.3,3.3,0.8,4.5c1,2.3,3,4.3,4.9,5.7c4,3.2,9.1,4.6,13.9,4.9c7.1,0.4,14.4,0.4,20.2-4.8c2.9-2.6,5.3-5.2,5.8-9.6
		c0-0.3,0.1-0.6,0.1-0.9c0-0.6,0-1.1,0-1.6C420.8,66.6,420,67,419.3,67.4z"/>
	<path class="st13" d="M426.7,89.5c-1-0.1-2.2-0.1-3.4,0c-1.7,0.1-3.1,0.6-4.2,1.2c-0.6,0.2-1.2,0.5-1.8,0.8c-3.8,2.1-7.5,6-8.8,9
		h6.7c0.1,0.5,0.3,1,0.4,1.6c1,2.7,3,5.1,5.7,6.2c0.1,0,0.2,0.1,0.4,0.1c0.3-0.7,0.8-1.2,1-1.9c0.3-1.1,0.7-2.1,1.1-3.2
		c0.2-0.4,0.3-0.8,0.7-1.1c1.1,2,0.3,4.4-0.4,6.4c0,0.1,0,0.1-0.1,0.2c1.1,0,2.4-0.1,3.7-0.6c0,0,0-0.1,0-0.1
		c0.3-0.8,0.9-1.4,1.1-2.3c0.3-1.1,0.7-2.1,1.1-3.2c0.2-0.4,0.3-0.8,0.7-1.1c0.9,1.6,0.5,3.5,0,5.2c0.4-0.3,0.9-0.6,1.3-0.9
		c3.5-2.6,4.5-5.6,3.6-8.6c-0.5-1.7-1.5-3.3-3-4.9C430.7,90.6,428.9,89.7,426.7,89.5z"/>
	<path class="st9" d="M430.6,101.6c-0.4,0.3-0.5,0.6-0.7,1.1c-0.4,1.1-0.7,2.1-1.1,3.2c-0.3,0.8-0.8,1.5-1.1,2.3c0,0,0,0.1,0,0.1
		c0.9-0.3,1.9-0.8,2.9-1.4C431.1,105.1,431.5,103.3,430.6,101.6z"/>
	<path class="st9" d="M424.4,102.2c-0.4,0.3-0.5,0.6-0.7,1.1c-0.4,1.1-0.7,2.1-1.1,3.2c-0.2,0.7-0.7,1.3-1,1.9
		c0.7,0.2,1.5,0.4,2.3,0.4c0-0.1,0-0.2,0.1-0.2C424.7,106.6,425.5,104.2,424.4,102.2z"/>
	<path class="st13" d="M383.3,100.5h6.7c-1.4-3.2-5.3-7.4-9.3-9.3c-0.4-0.2-0.8-0.4-1.2-0.5c-1.1-0.6-2.5-1.1-4.2-1.2
		c-1.3-0.1-2.5-0.1-3.6,0c-2.1,0.3-3.8,1.1-5.6,3c-4.3,4.4-4.9,9.5,0.6,13.5c0.4,0.3,0.9,0.6,1.3,0.9c-0.5-1.7-0.9-3.6,0-5.2
		c0.4,0.3,0.5,0.6,0.7,1.1c0.4,1.1,0.7,2.1,1.1,3.2c0.3,0.8,0.8,1.5,1.1,2.3c0,0,0,0.1,0,0.1c1.3,0.4,2.5,0.6,3.7,0.6
		c0-0.1,0-0.2-0.1-0.2c-0.6-2-1.4-4.4-0.4-6.4c0.4,0.3,0.5,0.6,0.7,1.1c0.4,1.1,0.7,2.1,1.1,3.2c0.2,0.7,0.7,1.3,1,1.9
		c0.1,0,0.2-0.1,0.4-0.1c2.7-1,4.7-3.4,5.7-6.2C383.1,101.6,383.2,101,383.3,100.5z"/>
	<path class="st9" d="M369.6,105.9c-0.3-1.1-0.7-2.1-1.1-3.2c-0.2-0.4-0.3-0.8-0.7-1.1c-0.9,1.6-0.5,3.5,0,5.2c1,0.6,2,1.1,2.9,1.4
		c0,0,0-0.1,0-0.1C370.4,107.3,369.9,106.7,369.6,105.9z"/>
	<path class="st9" d="M374.8,103.3c-0.2-0.4-0.3-0.8-0.7-1.1c-1.1,2-0.3,4.4,0.4,6.4c0,0.1,0,0.1,0.1,0.2c0.8,0,1.6-0.2,2.3-0.4
		c-0.3-0.7-0.8-1.2-1-1.9C375.5,105.4,375.2,104.3,374.8,103.3z"/>
	<path class="st13" d="M381.3,69.3c0.5,0.4,0.9,0.6,1.4,0.8c-0.4-0.8-0.6-1.6-0.8-2.5c-0.8-5.5,2.9-10.8,6.6-15.6
		c-0.8,0.4-1.7,0.8-2.5,1.1c-4.5,1.9-8.4,0.3-12.6-0.8c0.8,7.7,3.5,12.4,5.9,15C380,68.2,380.7,68.9,381.3,69.3z"/>
	<path class="st13" d="M416.6,67.6c-0.1,0.9-0.4,1.7-0.9,2.5c0.5-0.2,1-0.5,1.5-0.9c0.6-0.4,1.3-1.1,2-1.9c2.3-2.6,5.1-7.3,5.9-15
		c-4.1,1.1-8.1,2.7-12.6,0.8c-0.8-0.4-1.7-0.7-2.5-1.1C413.7,56.8,417.4,62.1,416.6,67.6z"/>
	<path class="st1" d="M381.9,67.6c0.1,0.9,0.4,1.7,0.8,2.5c2.6,5.3,10.4,7.7,15.6,8.2c5.3,0.6,14.5-2.8,17.4-8.2
		c0.4-0.8,0.7-1.7,0.9-2.5c0.8-5.5-2.9-10.8-6.6-15.6c-1.4-1.9-2.9-3.7-4-5.3c-2.7-4-2.3-9.5-2.3-14.1c0-2.8,0.3-6.3,0.6-10.4
		c-1.4,0.2-3.8,2.3-5.1,2.2c0,0,0,0-0.1,0c0,0,0,0-0.1,0c-1.2,0.1-3.6-2-5.1-2.2c0.2,3,0.6,7.5,0.6,10.4c0,4.7,0.4,10.1-2.3,14.1
		c-1.1,1.7-2.5,3.5-4,5.3C384.8,56.8,381.1,62.1,381.9,67.6z M400.5,65.7V72c1.4,0.4,5.6,1.5,8,0.1c0.9-0.5,1.4-1.3,1.6-2.5
		c0.1-0.4,0.5-0.7,0.9-0.6c0.4,0.1,0.7,0.5,0.6,0.9c-0.3,1.6-1.1,2.8-2.4,3.5c-1.1,0.7-2.5,0.9-3.9,0.9c-2.5,0-4.9-0.7-5.6-1
		c-0.8,0.3-3.2,1-5.6,1c-1.4,0-2.8-0.2-3.9-0.9c-1.3-0.7-2.1-1.9-2.4-3.5c-0.1-0.4,0.2-0.8,0.6-0.9c0.4-0.1,0.8,0.2,0.9,0.6
		c0.2,1.1,0.8,2,1.7,2.5c2.4,1.4,6.6,0.3,8-0.1v-6.3c-4.1-0.2-8.1-2-8.1-5.5c0-6.6,14.5-6.4,16.5-1.1
		C408.9,63.2,404.9,65.4,400.5,65.7z"/>
	<path d="M390.8,60.2c0,3.5,4,5.3,8.1,5.5V72c-1.4,0.4-5.6,1.5-8,0.1c-0.9-0.5-1.4-1.3-1.7-2.5c-0.1-0.4-0.5-0.7-0.9-0.6
		c-0.4,0.1-0.7,0.5-0.6,0.9c0.3,1.6,1.1,2.8,2.4,3.5c1.1,0.7,2.5,0.9,3.9,0.9c2.5,0,4.9-0.7,5.6-1c0.8,0.3,3.2,1,5.6,1
		c1.4,0,2.8-0.2,3.9-0.9c1.3-0.7,2.1-1.9,2.4-3.5c0.1-0.4-0.2-0.8-0.6-0.9c-0.4-0.1-0.8,0.2-0.9,0.6c-0.2,1.1-0.7,2-1.6,2.5
		c-2.4,1.4-6.6,0.3-8-0.1v-6.3c4.4-0.3,8.4-2.5,6.8-6.6C405.3,53.8,390.8,53.7,390.8,60.2z M395.4,56.6c1.7-0.4,3,0.1,2.9,1.1
		c-0.1,1-1.6,2.1-3.3,2.5c-1.7,0.4-3-0.1-2.9-1.1C392.3,58.1,393.7,57,395.4,56.6z"/>
	<path class="st13" d="M374.5,26c1-1.2,2-2.3,3.1-3.5c2.8-2.9,8.6-3.6,3.2-7.3c-3.2-2.2-7.7-3.7-11.4-1.8c-2.2,1.1-4,2.6-6.2,3.7
		c-2.2,1.1-4.7,1.5-6.7,2.6c-0.1,2.5,4.1,7,5.9,8.9c2.1,2.1,6.8,3.6,9.5,1.6C372.8,29.6,373.7,27.1,374.5,26z"/>
	<path class="st10" d="M432.9,7.6c-5.6-2.7-12.5-1.6-17.7,1.5c-1.8,1.1-3.5,2.4-4.8,4c-3.5-1.1-7.3-1.5-11.1-1.4
		c-3.8-0.1-7.6,0.3-11.1,1.4c-1.4-1.6-3-3-4.8-4c-5.2-3.1-12.1-4.2-17.7-1.5c-4.8,2.3-11.2,3.8-14.8,7.9
		c-6.4,7.4,9.7,22.3,17.4,19.9c0.8-0.3,1.6-0.6,2.5-0.9c-0.1,1.5-0.1,2.9-0.1,4.4c-3.1,3.8-5.9,8.2-5.2,13.4
		c0.3-0.3,1.1-0.8,1.4-1.1c-1.3,1.9-2.3,4.9-1.8,7.4c0.9-0.5,2-0.6,2.9-1.2c-1,1.4-1.4,3.1-1.8,4.8c1.9,1,4.1-0.1,5.7-1.2
		c-0.7,1.6-1.2,3.3-1,5c1.9-0.4,3.6-0.3,5.2,0.1c1.1,0.3,2.1,0.8,3.1,1.3c-2.3-2.6-5.1-7.3-5.9-15c4.1,1.1,8.1,2.7,12.6,0.8
		c0.8-0.4,1.7-0.7,2.5-1.1c1.4-1.9,2.9-3.7,4-5.3c2.7-4,2.3-9.5,2.3-14.1c0-2.8-0.4-7.3-0.6-10.4c1.4,0.2,3.8,2.3,5.1,2.2
		c0,0,0,0,0.1,0c0,0,0.1,0,0.1,0c1.2,0.1,3.6-2,5.1-2.2c-0.3,4-0.6,7.5-0.6,10.4c0,4.7-0.4,10.1,2.3,14.1c1.1,1.7,2.5,3.5,4,5.3
		c0.8,0.4,1.7,0.8,2.5,1.1c4.5,1.9,8.4,0.3,12.6-0.8c-0.8,7.7-3.5,12.4-5.9,15c0.8-0.4,1.6-0.8,2.4-1.1c1.8-0.6,3.8-0.9,5.9-0.4
		c0.2-1.8-0.2-3.5-1-5c1.6,1.1,3.8,2.1,5.7,1.2c-0.4-1.6-0.8-3.4-1.8-4.8c0.9,0.6,2.1,0.7,2.9,1.2c0.5-2.4-0.6-5.4-1.8-7.4
		c0.3,0.3,1.1,0.8,1.4,1.1c0.6-5.2-2.1-9.5-5.2-13.4c0.1-1.5,0.1-2.9-0.1-4.4c0.8,0.3,1.7,0.7,2.5,0.9c7.8,2.4,23.8-12.5,17.4-19.9
		C444.1,11.3,437.7,9.9,432.9,7.6z M362.4,28.7c-1.8-1.8-6-6.3-5.9-8.9c2.1-1.1,4.6-1.5,6.7-2.6c2.2-1.1,4.1-2.6,6.2-3.7
		c3.7-2,8.2-0.4,11.4,1.8c5.4,3.7-0.4,4.4-3.2,7.3c-1.1,1.1-2.1,2.3-3.1,3.5c-0.8,1-1.7,3.5-2.6,4.2
		C369.2,32.3,364.5,30.8,362.4,28.7z M384.4,47.7c-1.9,0-3.5-2.9-3.5-6.4c0-3.5,1.6-6.4,3.5-6.4c1.9,0,3.5,2.9,3.5,6.4
		C387.9,44.8,386.4,47.7,384.4,47.7z M414.2,47.7c-1.9,0-3.5-2.9-3.5-6.4c0-3.5,1.6-6.4,3.5-6.4c1.9,0,3.5,2.9,3.5,6.4
		C417.7,44.8,416.1,47.7,414.2,47.7z M436.1,28.7c-2.1,2.1-6.8,3.6-9.5,1.6c-0.8-0.6-1.8-3.2-2.6-4.2c-1-1.2-2-2.3-3.1-3.5
		c-2.8-2.9-8.6-3.6-3.2-7.3c3.2-2.2,7.7-3.7,11.4-1.8c2.2,1.1,4,2.6,6.2,3.7c2.2,1.1,4.7,1.5,6.7,2.6
		C442.1,22.3,437.9,26.8,436.1,28.7z"/>
	<path class="st13" d="M429.1,13.5c-3.7-2-8.2-0.4-11.4,1.8c-5.4,3.7,0.4,4.4,3.2,7.3c1.1,1.1,2.1,2.3,3.1,3.5
		c0.8,1,1.7,3.5,2.6,4.2c2.7,2.1,7.4,0.5,9.5-1.6c1.8-1.8,6-6.3,5.9-8.9c-2.1-1.1-4.6-1.5-6.7-2.6C433.1,16.1,431.2,14.6,429.1,13.5
		z"/>
	<path class="st1" d="M395.1,60.1c1.7-0.4,3.2-1.5,3.3-2.5c0.1-1-1.2-1.5-2.9-1.1c-1.7,0.4-3.2,1.5-3.3,2.5
		C392.1,60,393.4,60.5,395.1,60.1z"/>
	<path d="M384.4,34.9c-1.9,0-3.5,2.9-3.5,6.4c0,3.5,1.6,6.4,3.5,6.4c1.9,0,3.5-2.9,3.5-6.4C387.9,37.8,386.4,34.9,384.4,34.9z
		 M384.7,39.5c-0.8,1.3-2,1.9-2.6,1.4c-0.7-0.5-0.5-2,0.3-3.2c0.8-1.3,2-1.9,2.6-1.4C385.6,36.8,385.5,38.2,384.7,39.5z"/>
	<path class="st1" d="M382.3,37.6c-0.8,1.3-0.9,2.7-0.3,3.2c0.7,0.5,1.8-0.1,2.6-1.4c0.8-1.3,0.9-2.7,0.3-3.2
		C384.3,35.7,383.1,36.3,382.3,37.6z"/>
	<path d="M414.2,34.9c-1.9,0-3.5,2.9-3.5,6.4c0,3.5,1.6,6.4,3.5,6.4c1.9,0,3.5-2.9,3.5-6.4C417.7,37.8,416.1,34.9,414.2,34.9z
		 M414.4,39.5c-0.8,1.3-2,1.9-2.6,1.4c-0.7-0.5-0.5-2,0.3-3.2c0.8-1.3,2-1.9,2.6-1.4C415.3,36.8,415.2,38.2,414.4,39.5z"/>
	<path class="st1" d="M412,37.6c-0.8,1.3-0.9,2.7-0.3,3.2c0.7,0.5,1.8-0.1,2.6-1.4c0.8-1.3,0.9-2.7,0.3-3.2
		C414,35.7,412.8,36.3,412,37.6z"/>
</g>
</svg>
