<?xml version="1.0" encoding="utf-8"?>
<!-- Generator: Adobe Illustrator 24.2.3, SVG Export Plug-In . SVG Version: 6.00 Build 0)  -->
<svg version="1.1" id="Layer_1" xmlns="http://www.w3.org/2000/svg" xmlns:xlink="http://www.w3.org/1999/xlink" x="0px" y="0px"
	 viewBox="0 0 460 130.1" style="enable-background:new 0 0 460 130.1;" xml:space="preserve">
<style type="text/css">
	.st0{fill:#B27436;}
	.st1{fill:#C68947;}
	.st2{fill:#F2BB79;}
	.st3{fill:#0B0808;}
	.st4{fill:#FFFFFF;}
	.st5{fill:#8C5522;}
	.st6{fill:#552D0A;}
	.st7{enable-background:new    ;}
	.st8{fill:#292F36;}
	.st9{fill:#A55A1C;}
	.st10{fill:#BFBFBF;}
	.st11{fill:#C1742E;}
	.st12{fill:#D1D1D1;}
	.st13{fill:#FEFCFC;}
	.st14{fill:#1C75BC;}
	.st15{fill:#404241;}
	.st16{fill:#D6878B;}
</style>
<g>
	<g>
		<g>
			<g>
				<path class="st0" d="M428.4,99.5c-0.1-1.4-0.2-2.9-0.4-4.3c-1-7.7-2.8-14.8-10.9-18.2c-3.3-1.4-6.6-3.2-10.2-3.8
					c-6.8-1-13.9-1.8-20.8-1.8c-8.6,0-16.5,3.9-24.8,5.4c-7.1,1.2-8.9,11.6-9.2,17.5c-0.1,1.6-0.4,3.4-0.5,5.2H428.4z"/>
				<path class="st1" d="M383,99.5c-0.5-1-1.2-1.9-2.1-2.8c-1.7-1.6-3.4-2-5.5-2.5c-0.2,0-0.4-0.1-0.6-0.1c-2.8-0.7-3.9,0.1-6.4,1.4
					c-1.9,1-3.5,2.4-4.6,4.1H383z"/>
				<path class="st1" d="M415.4,99.5c-1.1-1.7-2.6-3.1-4.6-4.1c-2.6-1.3-3.6-2-6.4-1.4c-0.2,0.1-0.4,0.1-0.6,0.1
					c-2.1,0.5-3.8,0.9-5.4,2.5c-0.9,0.8-1.5,1.8-2,2.8H415.4z"/>
				<path class="st2" d="M346.8,80.1c0.3,4.1,0.8,8.5,3.7,11.9c0.4-0.8,0.6-1.6,1.3-2.3c0.1,2.3,1.2,4.6,2.1,6.7
					c0.3,0.7,0.8,2,1.4,3.1h1.8c0.1-0.3,0.1-0.5,0.3-0.8c-0.1,0.2,0,0.5,0.2,0.8h64.6c0.1-0.3,0.2-0.6,0.1-0.8
					c0.1,0.3,0.2,0.5,0.3,0.8h1.8c0.6-1.1,1.1-2.4,1.4-3.1c1-2.1,2.1-4.4,2.1-6.7c0.6,0.7,0.8,1.5,1.3,2.3c2.9-3.4,3.4-7.8,3.7-11.9
					c1,0.2,1.8,1.2,2.7,1.5c0.2-2.4-0.2-5.1-0.7-7.5c-0.4-2.1-2.3-4.1-2.2-6.1c0.7,0.2,1.3,0.6,1.9,0.9c1.2-1.1-2.2-9.3-4-9.7
					c0.9,0.2,1.8,0.6,2.7,0.7c-0.8-0.1-2.5-3.1-3.4-3.7c-1.1-0.7-2.3-1-3.6-1.5c-3.4-1.3-6.9-2.2-10.4-3.3
					c-6.8-2.1-14.9-1.5-22.1-2.1c-1.2-0.1-2.4-0.2-3.5-0.3v-0.1c-0.1,0-0.2,0-0.3,0c-0.1,0-0.2,0-0.4,0v0.1
					c-1.2,0.1-2.4,0.2-3.5,0.3c-7.2,0.7-15.2,0-22.1,2.1c-3.5,1.1-7,2.1-10.4,3.3c-1.2,0.5-2.5,0.8-3.6,1.5
					c-0.8,0.6-2.6,3.6-3.4,3.7c0.9-0.1,1.8-0.5,2.7-0.7c-1.8,0.5-5.2,8.7-4,9.7c0.6-0.3,1.2-0.7,1.9-0.9c0.1,2-1.8,4.1-2.2,6.1
					c-0.4,2.4-0.9,5.1-0.7,7.5C345,81.3,345.7,80.3,346.8,80.1z"/>
				<path class="st1" d="M430.5,57.9c0.7-0.1,1.4,0.1,2,0.5c-1.2-3.9-4.8-7.6-4.4-11.7c0,0.2,1.1,0.8,1.2,1
					c-1.4-2.7-1.2-5.9-2.4-8.7c0.4,0.1,0.9,0.1,1.2,0.2c-0.3-3.5-3.3-8.3-6.2-10.1c0.8-0.3,1.1-0.8,2.2-0.7
					c-2.5-3.2-10.8-8.6-14.5-8.5c0.8-0.9,2.4-1.4,3.2-1.9c-1.5-0.6-9.6-2.6-10.7-1c0.7-1,1.9-1.7,2.3-2.8c-1.6-0.1-3.7,0.8-5.4,1.1
					c-1.6,0.3-3.1,0.6-4.4,1.6c0.4-0.9,1.2-1.8,1.7-2.7c-3-0.2-6.9,1.9-9.3,3.5c-1.3-2.3-5.3-3.1-7.9-2.9c0.7,0.8,1.2,1.8,1.6,2.7
					c-1.8-0.4-3.2-1.5-4.9-2.2c-0.6-0.2-6.1-1.1-6.1-1.1c0.5,1.7,2.1,3.3,3.4,4.7c-2.9-2-6.2-0.7-9.3-0.4c-2.8,0.3-5.5-0.6-7.8,1.3
					c0.5-0.4,3.2,0.9,3.7,1.2c-3.8,3.7-8,5.2-9.1,10.9c-1,5.2-4.3,10.1-4.4,15.4c0.3-0.1,0.6-0.3,0.9-0.5c0.2,2.5-0.6,4.9-1.2,7.2
					c-0.5,2.1-0.5,4.2-0.8,6.4c-0.1,0.9-0.9,2.9-0.4,3.5c0.7-0.7,1.3-2.2,2.1-2.6c-1,0.5,3.2,11.5,3.6,12.5c0.5,1.3,1,2.8,1.7,3.9
					c1.3-0.9,1.1-1.8,2,0.1c0.6,1.3,1.6,3.2,2.8,4c0-1.2,0.5-2.7,1.1-3.6c0.3,1.1,1.4,1.8,2.1,2.6c0.2,0.3,2.7,2.5,2.7,2.6
					c0-0.6,0.4-1.3,0.4-2c0.8,1.3,2,1.2,3,2.2c1.2,1.3,1.6,3.3,3,4.4c0.1-0.8,0.7-1.5,0.9-2.2c0.6,2.3,3.3,6.8,5.9,6.9
					c0.2-1,0.4-1.9,0.7-2.9c1.8,0.9,4,3.6,5.6,5.2c0.1-1,0.6-1.7,1.2-2.4c0.8,1.2,2,2.9,3.4,2.4c1.3-0.5,0.8-2.5,2.8-2.3
					c0.4,5.6,5.8-0.4,8-0.6c0,0.6,0.4,1.1,0.4,1.7c1.6-0.5,2.3-1.8,3.5-2.9c1.3-1.3,1.3-1,2.9-1.3c2.2-0.4,5.2-1.6,6.5-3.9
					c-0.4,0.7-0.7,1.5-1,2.2c2.6-0.9,4.4-4.2,7.2-4.9c-0.1,0.8-0.4,1.6-0.3,2.5c2.9-2.1,5.6-5.2,7.7-8.3c0.3,1.1,0.1,2.5,0.2,3.7
					c1.3-1.1,1.4-4.6,1.8-6.2c0.5-2.2,0.5-5.5,1.6-7.5c1,0.6,1.5,2,2.6,2.2C431.3,65.7,430.3,61.9,430.5,57.9z"/>
				<path class="st2" d="M408.7,62.4c0.3,0,0.6,0,0.9,0c-0.5-1.1-1.6-2.4-2.6-3.4c-3.3-3.4-7.1-7-12.2-7.1c-2.8-0.1-5.6,0.6-8.5,0.5
					c-3.6-0.2-7.4,0.8-10.6,2.3c-1.4,0.6-2.5,1.4-3.6,2.4c-2,1.8-5,5.7-4.7,8.5c0.5-0.1,1.1-0.5,1.6-0.5c0.2,0.9-0.4,1.7-0.6,2.6
					c-0.3,1.2-0.4,2.5-0.4,3.7c-0.1,2,0.3,3.5,0.8,5.3c0.1-0.3,0.5-0.5,0.7-0.8c0.9,1.5,1.7,4.6,3.4,5.4c0.1-0.4,0.3-0.8,0.4-1.2
					c0.7,1,2.1,2.8,3.4,3.1c0.1-0.5,0.2-0.9,0.5-1.3c-0.4,0.7,3.4,2.8,3.9,3.1c0.5-0.6,0.8-1.4,1.2-2.1c0.9,1,1.7,2.8,2.9,3.2
					c0.2-0.5,0.3-1.4,0.5-1.8c0.8-1.3,3.5,1,4.3,2c0.7-0.6,1.3-1.8,2.3-2c1.2-0.3,1.1,0.8,1.6,1.6c1-0.6,1.9-1.6,2.7-2.5
					c0.4,0.8,1.2,1.4,1.3,2.1c0.1,0.7,3.3-2.5,3.5-2.8c0.7-0.9,1.9-3.3,2.7-1.1c0.5-0.5,0.8-1.3,1.1-1.9c1.6-3.1,3.3-6.3,4-9.8
					c0.3-1.4-0.1-7.3-2.1-7.6C407.7,62.3,408.2,62.4,408.7,62.4z"/>
				<path class="st3" d="M398.3,53.7c0.8,8.1-20.3,8.9-20.3,1c0-4.4,7-4.3,10-4.6C391.1,49.8,397.9,49.4,398.3,53.7z"/>
				<path class="st3" d="M407.9,45.7c1.1,0.6,2.4,1.4,2.7,2c1.5,3.2-6.9,3.7-8.7,3c-3.3-1.2-5-5.6-0.7-6.6c2.1-0.5,3.2-0.2,4.9,0.7
					C406.5,44.9,407.2,45.3,407.9,45.7z"/>
				<path class="st4" d="M402.5,41.3c1.1,0.1,1.8,1.9,1.6,4.1c-0.2,2.2-1.2,3.9-2.3,3.8c-1.1-0.1-1.8-1.9-1.6-4.1
					C400.4,43,401.4,41.3,402.5,41.3z"/>
				<path class="st3" d="M369,46c-1.1,0.6-2.3,1.3-2.5,1.9c-1.4,3.1,6.6,3.5,8.3,2.9c3.2-1.1,4.8-5.3,0.6-6.3
					c-2-0.5-3.1-0.2-4.7,0.6C370.3,45.3,369.7,45.7,369,46z"/>
				<path class="st4" d="M369.8,41.7c1.1,0.1,1.8,1.9,1.6,4.1c-0.2,2.2-1.2,3.9-2.3,3.8c-1.1-0.1-1.8-1.9-1.6-4.1
					C367.7,43.4,368.7,41.6,369.8,41.7z"/>
				<path class="st3" d="M403.7,68.3c-0.4-0.1-0.8,0.2-0.9,0.7c-0.5,3.3-3.7,5.1-6.6,5.5c-2.5,0.3-5.6-0.5-6.8-3.5
					c-0.1-0.2-0.3-0.4-0.5-0.4v0c0,0,0,0,0,0c0,0-0.1,0-0.1,0c0,0-0.1,0-0.1,0c0,0,0,0,0,0v0c-0.2,0.1-0.4,0.2-0.5,0.4
					c-1.2,3-4.3,3.7-6.8,3.5c-2.9-0.3-6.1-2.1-6.6-5.5c-0.1-0.4-0.5-0.7-0.9-0.7c-0.4,0.1-0.7,0.5-0.7,0.9c0.6,4.1,4.5,6.4,8,6.8
					c0.4,0,0.8,0.1,1.2,0.1c2.7,0,5-1.1,6.4-2.9c1.4,1.8,3.7,2.9,6.4,2.9c0.4,0,0.8,0,1.2-0.1c3.5-0.4,7.3-2.7,8-6.8
					C404.4,68.7,404.1,68.3,403.7,68.3z"/>
				<path class="st2" d="M423.3,49.5c0.7,0.5,1.5,0.9,2.4,0.7c0.7-3.8-2.7-8.7-5.2-11.3c-2.9-3-6.7-5-10.8-5.8
					c-6.1-1.1-15,0.8-13.4,9c2.3-2.1,2.4,3.2,4.5,4.1c0.2-0.7,0.7-1.4,1-1.9c0.7,1.2,1.6,3,3.3,2.9c0-0.7,0.4-1.2,0.6-1.8
					c2,0.5,3.3,3.2,5.2,4c0-0.7,0.1-1.4-0.2-2.1c0.9,2.1,4.4,3.9,6.6,3.4c0-0.2-0.1-0.4-0.1-0.5c0.9,0.8,2,0.7,3.1,0.8
					c1.1,0.1,2.2,0.5,3.2,0.4C423.8,50.7,423.8,50,423.3,49.5z"/>
				<path class="st2" d="M353.4,49.7c-0.7,0.5-1.5,0.9-2.4,0.7c-0.7-3.8,2.7-8.7,5.2-11.3c2.9-3,6.7-5,10.8-5.8
					c6.1-1.1,15,0.8,13.4,9c-2.3-2.1-2.4,3.2-4.5,4.1c-0.2-0.7-0.7-1.4-1-1.9c-0.7,1.2-1.6,3-3.3,2.9c0-0.7-0.4-1.2-0.6-1.8
					c-2,0.5-3.3,3.2-5.2,4c0-0.7-0.1-1.4,0.2-2.1c-0.9,2.1-4.4,3.9-6.6,3.4c0-0.2,0.1-0.4,0.1-0.5c-0.9,0.8-2,0.7-3.1,0.8
					c-1.1,0.1-2.2,0.5-3.2,0.4C352.9,50.9,353,50.2,353.4,49.7z"/>
				<path class="st2" d="M409.7,19.9c0.8-0.9,2.4-1.4,3.2-1.9c-1.5-0.6-9.6-2.6-10.7-1c0.7-1,1.9-1.7,2.3-2.8
					c-1.6-0.1-3.7,0.8-5.4,1.1c-1.6,0.3-3.1,0.6-4.4,1.6c0.4-0.9,1.2-1.8,1.7-2.7c-3-0.2-6.9,1.9-9.3,3.5c-1.3-2.3-5.3-3.1-7.9-2.9
					c0.7,0.8,1.2,1.8,1.6,2.7c-1.8-0.4-3.2-1.5-4.9-2.2c-0.6-0.2-6.1-1.1-6.1-1.1c0.5,1.7,2.1,3.3,3.4,4.7c-2.9-2-6.2-0.7-9.3-0.4
					c-2.8,0.3-5.5-0.6-7.8,1.3c0.5-0.4,3.2,0.9,3.7,1.2c-2.7,2.6-5.6,4.2-7.4,6.9c0.3-0.1,0.5-0.3,0.8-0.4c2.3-0.9,5-0.6,7.3-1.8
					c-0.6,0.3-0.9,0.8-1.4,1.2c3.4-0.2,6.6-1.9,10.1-1.8c-0.4,0.4-0.7,1.3-0.9,1.6c1-1.4,6.8-1,8.3-0.9c-0.8,0.5-1.4,1.3-1.5,2.3
					c2.2-1,4.4-2.5,6.9-2.3c-0.8,1.2-1.8,2.4-2.4,3.7c1.7-0.1,3-2,4.7-2.1c0.1,1.5-0.6,3.6,0,4.9c1.4-1.2,2.1-3.1,3.6-4.2
					c0.7,1.6,2.7,3.4,4.1,4c0.1-1.5,0-3,0.3-4.5c1.2,1.3,3.3,2.5,5,3c1.3-1.4-0.2-3-0.2-4.6c1.9,0.8,4,2.7,6.2,2.5
					c-0.2-1.3-1.2-2.2-1.8-3.3c0.4,0.7,8.4,0.4,9.5,0.4c2.8,0,6.2-0.4,8.9,0.5c1.4,0.5,2.5,1.1,3.7,1.6
					C420.9,24.7,413.3,19.8,409.7,19.9z"/>
				<g>
					<path class="st5" d="M423.9,18.7c0.3-2.4,0.2-5-3.1-5.2c-5.2-0.3-22,8.2-15.7,14.2c0.2,0.2,0.4,0.3,0.6,0.5
						c1.6,0.4,3.2-0.2,4.8,0.2c-0.1,0.3-0.4,0.6-0.6,0.9c1.9,0.4,4.5,0,6.3-0.4c-0.1,0.2-0.3,0.5-0.4,0.8c0.4,0.1,0.9,0.1,1.4,0.1
						c1.5-0.5,2.9-1.3,3.9-2.3c0.8-0.8,1-2.4,1.3-3.4C423.1,22.3,423.7,20.5,423.9,18.7C423.9,18.7,423.9,18.7,423.9,18.7z"/>
					<path class="st6" d="M420.4,18c0.1,0.1,0.2,0.1,0.3,0.2c0.7,0.6,0.5,1.9,0.5,2.7c0,1-0.2,2.1-0.5,3c-0.6,1.9-1.9,3.4-4.1,3.8
						c-2.8,0.4-7.5-1.1-6.3-3.7c0.8-1.9,2.7-3.3,4.6-4.4C415.9,18.9,418.8,17.1,420.4,18z"/>
				</g>
				<g>
					<path class="st5" d="M353.5,16c0.1-2.6,0.5-5.4,3.8-5.1c5.2,0.5,20.7,12.2,13.5,17.6c-0.2,0.2-0.4,0.3-0.6,0.4
						c-1.6,0.2-3.1-0.7-4.8-0.5c0.1,0.3,0.3,0.7,0.4,1c-1.9,0.1-4.5-0.7-6.2-1.4c0.1,0.3,0.2,0.6,0.3,0.9c-0.4,0.1-0.9,0-1.4-0.1
						c-1.5-0.8-2.7-1.8-3.5-3.1c-0.7-1-0.7-2.7-0.8-3.9C353.7,20,353.4,18,353.5,16C353.5,16.1,353.5,16.1,353.5,16z"/>
					<path class="st6" d="M357.1,15.8c-0.1,0-0.2,0.1-0.3,0.2c-0.8,0.6-0.7,1.9-0.8,2.8c-0.1,1.1-0.1,2.2,0.1,3.3
						c0.3,2.1,1.4,4,3.6,4.7c2.7,0.9,7.5-0.1,6.8-3c-0.6-2.2-2.3-4-4-5.4C361.3,17.5,358.8,15.2,357.1,15.8z"/>
				</g>
			</g>
		</g>
		<g>
			<path class="st1" d="M342.5,100.3c0.7-1.9,2-3.7,3.7-5.5c3.5-3.6,6.2-8.3,11.3-7.9c6.5,0.5,15.1,8.6,16.1,13.4L342.5,100.3z"/>
			<path class="st1" d="M437,100.3c-0.7-1.9-2-3.7-3.7-5.5c-3.5-3.6-6.2-8.3-11.3-7.9c-6.5,0.5-15.1,8.6-16.1,13.4L437,100.3z"/>
			<g>
				<path class="st1" d="M424.3,86.2c4.8-0.4,7.9,0.3,11.2,3.4c5.2,5,5.9,10.9-0.7,15.5c-0.5,0.4-1.1,0.7-1.6,1c0.6-2,1-4.1,0-6
					c-0.5,0.3-0.6,0.7-0.8,1.2c-0.5,1.2-0.9,2.4-1.3,3.7c-0.3,1-1,1.7-1.4,2.6c0,0,0,0.1,0,0.1c-1.6,0.5-3.1,0.7-4.5,0.7
					c0-0.1,0.1-0.2,0.1-0.3c0.7-2.3,1.7-5,0.4-7.3c-0.5,0.3-0.6,0.7-0.8,1.2c-0.5,1.2-0.9,2.4-1.3,3.7c-0.3,0.8-0.8,1.5-1.2,2.2
					c-0.2,0-0.3-0.1-0.4-0.2C412.2,104.2,410.2,87.4,424.3,86.2z"/>
				<path class="st3" d="M431,105c0.4-1.2,0.8-2.4,1.3-3.7c0.2-0.5,0.4-0.9,0.8-1.2c1,1.9,0.6,4,0,6c-1.2,0.7-2.4,1.2-3.5,1.6
					c0,0,0-0.1,0-0.1C430,106.7,430.7,106,431,105z"/>
				<path class="st3" d="M424.8,102c0.2-0.5,0.4-0.9,0.8-1.2c1.3,2.3,0.3,5-0.4,7.3c0,0.1-0.1,0.2-0.1,0.3c-1,0-1.9-0.2-2.8-0.5
					c0.4-0.8,0.9-1.4,1.2-2.2C424,104.5,424.3,103.2,424.8,102z"/>
			</g>
			<g>
				<g>
					<path class="st1" d="M355.2,86.2c-4.8-0.4-7.9,0.3-11.2,3.4c-5.2,5-5.9,10.9,0.7,15.5c0.5,0.4,1.1,0.7,1.6,1c-0.6-2-1-4.1,0-6
						c0.5,0.3,0.6,0.7,0.8,1.2c0.5,1.2,0.9,2.4,1.3,3.7c0.3,1,1,1.7,1.4,2.6c0,0,0,0.1,0,0.1c1.6,0.5,3.1,0.7,4.5,0.7
						c0-0.1-0.1-0.2-0.1-0.3c-0.7-2.3-1.7-5-0.4-7.3c0.5,0.3,0.6,0.7,0.8,1.2c0.5,1.2,0.9,2.4,1.3,3.7c0.3,0.8,0.8,1.5,1.2,2.2
						c0.2,0,0.3-0.1,0.4-0.2C367.3,104.2,369.4,87.4,355.2,86.2z"/>
					<path class="st3" d="M348.5,105c-0.4-1.2-0.8-2.4-1.3-3.7c-0.2-0.5-0.4-0.9-0.8-1.2c-1,1.9-0.6,4,0,6c1.2,0.7,2.4,1.2,3.5,1.6
						c0,0,0-0.1,0-0.1C349.5,106.7,348.8,106,348.5,105z"/>
					<path class="st3" d="M354.7,102c-0.2-0.5-0.4-0.9-0.8-1.2c-1.3,2.3-0.3,5,0.4,7.3c0,0.1,0.1,0.2,0.1,0.3c1,0,1.9-0.2,2.8-0.5
						c-0.4-0.8-0.9-1.4-1.2-2.2C355.6,104.5,355.2,103.2,354.7,102z"/>
				</g>
			</g>
		</g>
	</g>
	<path class="st4" d="M387.4,52.4c0.3,1-1.1,2.4-3.2,3c-2.1,0.7-4.1,0.4-4.4-0.7c-0.3-1,1.1-2.4,3.2-3C385.1,51,387,51.3,387.4,52.4
		z"/>
</g>
<g class="st7">
	<path class="st8" d="M176.9,67.3l-0.5,7.6c-1.2,0.2-5.2,0.3-11.5,0.3c-3.5,0-10.3-0.2-11.6-0.4c0-1,0.2-1.8,0.2-18.1
		c0-12.2-0.3-16.6-0.3-17.6c0.4,0,2.6,0.1,4.4,0.1c1.7,0,3.4-0.1,4-0.1c0,1-0.3,5.4-0.3,17.6c0,3.2,0.1,7.7,0.1,10.8
		c1.1,0.1,2.3,0.1,3.7,0.1C170.8,67.5,175.6,67.4,176.9,67.3z"/>
	<path class="st8" d="M179.6,56.9c0-11.8,8.6-18.3,19-18.3c10.3,0,19,6.5,19,18.3c0,11.8-8.6,18.7-19,18.7S179.6,68.7,179.6,56.9z
		 M208.9,57c0-7-4.2-10.9-10.4-10.9S188.1,50,188.1,57c0,7,4.2,11.2,10.4,11.2C204.8,68.1,208.9,64,208.9,57z"/>
	<path class="st8" d="M255.1,68.8c-2.8,4-7.7,6.8-15.1,6.8c-9.9,0-18.3-5.8-18.3-18.4c0-13.1,9.1-18.6,19.3-18.6
		c4.5,0,10.6,1.5,12.1,2.5l-0.7,8.1c-1.6-1.2-5.8-2.9-11.1-2.9c-5.9,0-11.2,3.3-11.2,10.8c-0.1,8.2,4.6,11.2,10,11.2
		c3.1,0,5.6-0.5,7.5-1.5v-5.4c-1.1,0.2-2.5,0.3-4.1,0.3c-2.9,0-5.8-0.5-6.1-0.6l-0.2-6.4c0.3,0,4.7,0.2,10.6,0.2
		c2.1,0,5.1-0.1,7.1-0.3C254.5,60.6,254.7,67.1,255.1,68.8z"/>
	<path class="st8" d="M260.3,56.9c0-12.2-0.3-16.9-0.3-17.8c0.4,0,2.2,0.1,4.2,0.1c1.9,0,3.5-0.1,4.2-0.1c-0.1,1-0.3,5.7-0.3,17.8
		c0,14.6,0.2,17.2,0.2,18.1c-0.6,0-1.7-0.2-4.1-0.2c-2.2,0-3.4,0.2-4.2,0.2C260,74.1,260.3,71.5,260.3,56.9z"/>
	<path class="st8" d="M307,56.7c0,12.9,0.3,15.6,0.3,17.5c-2,0.3-8,1-9.8,1.5c-2.5-3.6-11.5-17.5-16.3-25.4c0.4,2.4,0.7,5.3,0.7,8.7
		c0,12.1,0.2,15,0.2,15.9c-0.6,0-2-0.2-3.6-0.2c-1.9,0-3.7,0.2-4.3,0.2c0-1.9,0.3-3.4,0.3-18.3c0-12.2-0.3-16.2-0.3-17.1
		c1.9-0.1,6.9-0.6,9.1-0.8c2.1,3.8,11.9,19.3,17.8,28.5c-0.8-3-1.4-6.9-1.4-12.2c0-12.1-0.3-15-0.3-15.9c0.4,0,2.3,0.2,4,0.2
		c1.6,0,3.7-0.2,4.1-0.2C307.4,40.1,307,44.6,307,56.7z"/>
</g>
<g>
	<g>
		<g>
			<path class="st9" d="M115.7,100c0.2-0.2,0.5-0.3,0.7-0.5c0.9-1.6,1.7-3.5,1.4-4.9c-2.8,0.7-5.4,1.4-8.4,1.2
				c0.8-1.9,2.5-3.9,2.9-5.9c-0.1,0.3-5.6-0.3-8.8-1c-3.2,3-6.1,6.9-8.1,10.4c-0.1,0.2-0.2,0.4-0.3,0.7H115.7z"/>
			<path class="st10" d="M107.2,90.7c-0.4,2.1-2.1,4.1-2.9,5.9c3,0.2,5.6-0.5,8.4-1.2c0.2,1.4-0.4,3.1-1.3,4.6h0.3
				c1.6-1.1,3.1-2.4,4.4-3.8c0.2-0.2,0.4-0.5,0.6-0.7c1.5-1.9,2.8-4.1,3.2-6.6c0.1-0.7,1.4-8.5,1.5-8.6c-0.3,0.1-2.4,1.1-2.8,1.2
				c0.5-1,0.3-1.6,0.6-2.6c-4.1,2.6-9,3.8-13.3,5.7c-1.3,0.6-2.5,1.2-3.7,2c-1.3,0.9-2.6,1.9-3.8,3.1
				C101.6,90.4,107.1,91,107.2,90.7z"/>
		</g>
		<path class="st11" d="M101.6,100c0.2-3.1,0-6.1-0.3-9.2c-0.8-8.1-2.4-15.6-9.2-19.2c-2.8-1.5-5.6-3.4-8.6-3.9
			c-5.8-1.1-11.8-1.9-17.6-1.9c-7.3,0-14,4.1-21,5.6c-6,1.3-7.6,12.2-7.8,18.4c-0.1,3.1-0.9,7,0,10.1H101.6z"/>
		<path class="st12" d="M46.4,100h45.3c-0.6-4.7-1.9-10.5-3.6-13.7c-4.7-8.7-14.6-8-21.4-7.6c-9.7,0.6-20.9,4.4-20.3,20.6
			C46.4,99.6,46.4,99.8,46.4,100z"/>
		<g>
			<g>
				<path class="st11" d="M107.7,100c-0.3-0.1-0.6-0.3-0.9-0.4c-5-2-9.9-3.1-15.1-0.9c-1.1,0.4-1.8,0.9-2.3,1.4H107.7z"/>
			</g>
			<g>
				<path class="st11" d="M49,100c-0.5-0.5-1.3-0.9-2.3-1.4c-5.2-2.1-10.1-1.1-15.1,0.9c-0.3,0.1-0.6,0.3-0.9,0.4H49z"/>
			</g>
		</g>
		<g>
			<g>
				<path class="st13" d="M85.4,100c-0.1-2,0-3.9,0.3-5.2c0.5-3.2,1.6-8.2,4.7-10.3c-1.6-1.4-3.9-1.7-7.1,0c-2.3,1.2-4,2.6-5.2,4.3
					c-2.4,3.2-3,7.1-2.9,11.3H85.4z"/>
				<path class="st11" d="M93.6,100c0.1-0.9,0.1-1.8,0.1-2.8c0.1-4.5-0.5-10.3-3.3-12.8c-3.1,2.1-4.2,7.1-4.7,10.3
					c-0.2,1.4-0.4,3.3-0.3,5.2H93.6z"/>
			</g>
			<g>
				<path class="st13" d="M52.8,94.8c0.2,1.4,0.4,3.3,0.3,5.2h10.3c0.1-4.2-0.5-8.1-2.9-11.3c-1.2-1.6-2.9-3.1-5.2-4.3
					c-3.3-1.7-5.5-1.4-7.1,0C51.2,86.6,52.3,91.5,52.8,94.8z"/>
				<path class="st11" d="M45,100h8.1c0.1-2,0-3.9-0.3-5.2c-0.5-3.2-1.6-8.2-4.7-10.3c-2.8,2.5-3.4,8.3-3.3,12.8
					C44.9,98.2,44.9,99.1,45,100z"/>
			</g>
		</g>
		<path class="st13" d="M38.8,88.8c-0.1,2.6,1.5,6.7,3,8.4c0.2-0.8,0.9-1.5,1.1-2c0,0,1.7,3,3,4.9h1.6c0.1-0.8,0.2-1.7,0.3-2.4
			c0.6,0.7,1.1,1.6,1.6,2.4h40.1c0.5-0.6,1-1.2,1.4-1.9c0,0.6-0.1,1.2-0.2,1.9h2.1c1.3-1.9,2.2-4.8,3.4-6.1c0.5,1.1,0.6,2.8,1.3,3.6
			c1.5-2.9,1.5-6,1.9-9.3c1,0.6,1.7,2.3,2,3.4c1.2-2.1,0.5-5.8,0.8-8.2c0.4-3.3,0.4-6.4-1.4-9.3c-5.8-9.4-17.2-14.5-27-15.5
			c-1.6-0.2-3.3-0.2-4.9-0.1c-1.7-0.1-3.3,0-4.9,0.1c-5.4,0.6-10.2,3.1-15.4,4.2c-4.3,0.9-8.5,3.9-11.2,7.6c1.1-0.2,2.5-0.7,3.7-0.7
			c-1.9,0-5,6.7-5.5,8.4c-1.1,4,1,8.8,1.3,12.8C37.4,90.4,38.2,89.6,38.8,88.8z"/>
		<path class="st10" d="M99.3,85.6c-6.3,2.2-13.2,9.2-14.1,13.5l4.9,0c0.3-0.3,0.5-0.7,0.8-1c0,0.3,0,0.7-0.1,1l2.5,0
			c1.1-1.8,1.9-4.1,2.9-5.2c0.5,1.1,0.6,2.8,1.3,3.6c1.5-2.9,1.5-6,1.9-9.3c1,0.6,1.7,2.3,2,3.4c1.1-1.8,0.6-4.8,0.7-7.1
			C101,84.9,100.1,85.2,99.3,85.6z"/>
		<path class="st10" d="M41.2,85.6c-1.5-0.8-3.2-1.3-5.4-1.4c-0.1,0-0.3,0-0.4,0c0.4,2.4,1.1,4.7,1.3,6.9c0.7-0.6,1.5-1.4,2.1-2.3
			c-0.1,2.6,1.5,6.7,3,8.4c0.2-0.8,0.9-1.5,1.1-2c0,0,1.6,2.7,2.8,4.6c0.1-0.2,0.1-0.4,0.2-0.6l1.7,0c0.1-0.5,0.1-1.1,0.1-1.6
			c0.4,0.5,0.7,1,1.1,1.6l6.6,0C54.4,94.8,47.6,87.8,41.2,85.6z"/>
		<path class="st10" d="M82.7,75.5c-2.4-8-14.3-9.8-20.6-6.2c-7.6,4.4-9.7,16.9-0.6,20.8c4.7,2,11.7,2.3,16.2-0.3
			C82.5,87,84.4,81.1,82.7,75.5z"/>
		<g>
			<path class="st14" d="M97.4,66.5c1.4,2.4,1.5,6.7,0.1,9.1c-1.3,2.3-3.9,4.3-6.2,5.7c-5.2,3.1-11.6,4.6-17.8,4.9
				c-9.1,0.4-18.5,0.4-25.9-4.8c-3.7-2.6-6.8-5.2-7.4-9.5C38.4,60.6,50.4,58,60.7,56.4c9.6-1.5,24.4-2.6,31.7,4.6
				C93.9,62.6,96.3,64.6,97.4,66.5z"/>
		</g>
		<g>
			<path class="st13" d="M82.5,73.5c-2.4-8-14.3-9.8-20.6-6.2c-7.6,4.4-9.7,16.9-0.6,20.8c4.7,2,11.7,2.3,16.2-0.3
				C82.3,84.9,84.2,79,82.5,73.5z"/>
			<path class="st11" d="M104.2,63.2c-0.5-10.7-1.2-21.7-3.4-32.2c-0.7-3.5-1.7-8.5-4.3-11.3c-3.8-4.2-9.6-4.5-15.1-4.6
				c-4-0.1-8.1,0-12.1,0.2c-4-0.2-8.1-0.3-12.1-0.2c-5.5,0.1-11.3,0.4-15.1,4.6c-2.6,2.8-3.6,7.8-4.3,11.3
				c-2.2,10.5-3,21.5-3.4,32.2c-0.2,3.7,1.9,9.1,5.3,11.4c4.3,2.9,10.8,0.4,15.7,1.3c4.7,0.8,8.9,1.6,13.5,1.7v0c0.2,0,0.4,0,0.5,0
				c0.2,0,0.4,0,0.5,0v0c4.6-0.1,8.8-0.9,13.5-1.7c4.9-0.9,11.4,1.6,15.7-1.3C102.3,72.3,104.3,66.9,104.2,63.2z"/>
			<g>
				<path class="st15" d="M92.1,62.6c-6.1,5.6-18.6-7.3-21.1-12.8c-3.5-7.6-1.1-21.9,7.4-24.6c9-2.9,18.5,9.3,17.8,17.9
					c-0.3,3.3-1.9,6.5-2.4,9.8C93.5,55.7,94.3,60.6,92.1,62.6z"/>
				<path class="st15" d="M46.3,62.6c6.1,5.6,18.6-7.3,21.1-12.8c3.5-7.6,1.1-21.9-7.4-24.6c-9-2.9-18.5,9.3-17.8,17.9
					c0.3,3.3,1.9,6.5,2.4,9.8C44.9,55.7,44.1,60.6,46.3,62.6z"/>
			</g>
			<path class="st16" d="M75.1,76.7c-1-0.7-2.6-0.9-3.6-1.7c-0.8-0.6-1.5-3.1-2.6-3.1c-1,0-1.5,2-2.1,2.6c-1.6,1.6-4.7,1.5-4.6,4.5
				c0.1,2.6,2.8,4.6,5.1,4.9c3.6,0.4,9.7-0.8,8.7-5.9C75.9,77.5,75.6,77,75.1,76.7z"/>
			<path class="st13" d="M71.2,27.2c-0.4-0.3-0.8-0.6-1.4-0.7c-4.2-1.5-5.9,2.4-6,5.8c0,4.3,0.1,6-2.9,8.9c-2.7,2.6-6.1,4.7-8.6,7.7
				c-3.7,4.2-5.7,9.6-6.3,15.2c-0.6,5.6-1.2,12.9,5.2,15.2c4.3,1.5,5.5-2.5,9.4-2.7c1.3-0.1,2.5,0.3,3.8,0c1.1-0.2,2.5-0.8,3.3-1.7
				c0.9-1,1-2.7,2.5-2.4c1,0.2,1.4,1.7,2,2.4c0.9,0.9,2,1.5,3.1,1.8c2.7,1,5.7-0.2,8.2,1.1C91,82,92.7,71.8,92.7,66
				c0-10.7-4.3-17-12.6-22.8c-3-2.1-5.7-2.8-6.7-6.3C72.4,33.9,73.8,29.3,71.2,27.2z"/>
			<g>
				<path d="M77.8,78c-2.3,0-4.3-0.6-5.9-1.8c-2.9-2.1-3.5-5.4-3.5-5.6c0-0.1,0-0.1,0-0.2V57.6c0-0.5,0.4-1,0.9-1
					c0.5,0,0.9,0.4,0.9,1v12.8c0.1,0.4,0.6,2.7,2.8,4.3c2.2,1.6,5.2,1.8,9.1,0.8c0.5-0.1,0.9,0.2,1,0.7c0.1,0.5-0.2,1-0.6,1.2
					C80.7,77.8,79.2,78,77.8,78z"/>
				<path d="M60.6,78.1c-1.4,0-2.9-0.2-4.6-0.6c-0.5-0.1-0.8-0.6-0.6-1.1c0.1-0.5,0.6-0.8,1-0.7c3.9,1,6.9,0.7,9.1-0.8
					c2.2-1.5,2.8-3.9,2.8-4.4V57.6c0-0.5,0.4-1,0.9-1c0.5,0,0.9,0.4,0.9,1v12.9c0,0.1,0,0.1,0,0.2c0,0.1-0.6,3.5-3.6,5.7
					C64.9,77.5,62.9,78.1,60.6,78.1z"/>
				<path d="M78.8,53.9c-0.4,0.8-1.1,1.7-2.2,2.6C72.5,59.8,56,59.9,59.9,51C62,46.2,81.7,47.6,78.8,53.9z"/>
				<g>
					<path d="M50.9,37.2c0,3.5,1.7,6.3,3.8,6.3c2.1,0,3.8-2.8,3.8-6.3c0-3.5-1.7-6.3-3.8-6.3C52.6,30.9,50.9,33.8,50.9,37.2z"/>
					<path class="st4" d="M54.8,35.1c-0.5,1.1-1.5,1.7-2.3,1.4c-0.8-0.3-1.1-1.4-0.6-2.5c0.5-1.1,1.5-1.7,2.3-1.4
						C55.1,33,55.3,34.1,54.8,35.1z"/>
					<path class="st4" d="M65.2,53c-1.5,0.8-3.1,0.8-3.6,0c-0.4-0.8,0.4-2,2-2.8c1.5-0.8,3.1-0.8,3.6,0C67.6,51,66.7,52.2,65.2,53z"
						/>
				</g>
				<g>
					<path d="M79.9,37.2c0,3.5,1.7,6.3,3.8,6.3s3.8-2.8,3.8-6.3c0-3.5-1.7-6.3-3.8-6.3S79.9,33.8,79.9,37.2z"/>
					<path class="st4" d="M83.9,35.1c-0.5,1.1-1.5,1.7-2.3,1.4c-0.8-0.3-1.1-1.4-0.6-2.5c0.5-1.1,1.5-1.7,2.3-1.4
						C84.1,33,84.4,34.1,83.9,35.1z"/>
				</g>
			</g>
			<g>
				<path class="st15" d="M97.8,38.4c-1.5-6.3-7.1-11.3-6.4-18.1c0.4-4.1,1.5-4.1,4.2-5.3c5.1-2.4,10.1-1.6,14.5,2.3
					c2.7,2.4,4.9,5.2,7.6,7.6c1.9,1.6,5.6,3.6,6.9,5.8c3.8,6.8-3.3,12.1-7.3,15.9c-3.7,3.6-6.5,13.8-12.1,13.5
					C96.5,59.7,99.3,44.3,97.8,38.4z"/>
				<path class="st15" d="M40.6,38.4c1.5-6.3,7.1-11.3,6.4-18.1c-0.4-4.1-1.5-4.1-4.2-5.3c-5.1-2.4-10.1-1.6-14.5,2.3
					c-2.7,2.4-4.9,5.2-7.6,7.6c-1.9,1.6-5.6,3.6-6.9,5.8c-3.8,6.8,3.3,12.1,7.3,15.9c3.7,3.6,6.5,13.8,12.1,13.5
					C41.9,59.7,39.2,44.3,40.6,38.4z"/>
			</g>
		</g>
	</g>
	<g>
		<path class="st1" d="M21.3,100.1c0.7-1.9,2-3.9,3.8-5.7c3.6-3.7,6.4-8.5,11.7-8.1c6.8,0.5,15.6,8.9,16.7,13.8L21.3,100.1z"/>
		<path class="st1" d="M118.9,100.1c-0.7-1.9-2-3.9-3.8-5.7c-3.6-3.7-6.4-8.5-11.7-8.1c-6.8,0.5-15.6,8.9-16.7,13.8L118.9,100.1z"/>
		<g>
			<path class="st13" d="M105.8,85.5c5-0.4,8.2,0.3,11.5,3.5c5.4,5.2,6.1,11.3-0.7,16c-0.6,0.4-1.1,0.7-1.6,1c0.6-2,1.1-4.2,0-6.2
				c-0.5,0.3-0.7,0.7-0.9,1.2c-0.5,1.2-0.9,2.5-1.3,3.8c-0.3,1-1,1.7-1.4,2.7c0,0,0,0.1,0,0.1c-1.6,0.5-3.2,0.7-4.6,0.7
				c0-0.1,0.1-0.2,0.1-0.3c0.8-2.4,1.8-5.2,0.4-7.5c-0.5,0.3-0.7,0.7-0.9,1.2c-0.5,1.2-0.9,2.5-1.3,3.8c-0.3,0.9-0.8,1.5-1.2,2.3
				c-0.2,0-0.3-0.1-0.5-0.2C93.3,104.1,91.2,86.7,105.8,85.5z"/>
			<path class="st3" d="M112.7,104.9c0.4-1.3,0.8-2.5,1.3-3.8c0.2-0.5,0.4-0.9,0.9-1.2c1.1,1.9,0.6,4.1,0,6.2
				c-1.3,0.7-2.5,1.3-3.7,1.7c0,0,0-0.1,0-0.1C111.7,106.6,112.4,105.9,112.7,104.9z"/>
			<path class="st3" d="M106.3,101.8c0.2-0.5,0.4-0.9,0.9-1.2c1.3,2.4,0.3,5.1-0.4,7.5c0,0.1-0.1,0.2-0.1,0.3c-1,0-2-0.2-2.9-0.5
				c0.4-0.8,0.9-1.4,1.2-2.3C105.4,104.3,105.8,103.1,106.3,101.8z"/>
		</g>
		<g>
			<g>
				<path class="st13" d="M34.4,85.5c-5-0.4-8.2,0.3-11.5,3.5c-5.4,5.2-6.1,11.3,0.7,16c0.6,0.4,1.1,0.7,1.6,1c-0.6-2-1.1-4.2,0-6.2
					c0.5,0.3,0.7,0.7,0.9,1.2c0.5,1.2,0.9,2.5,1.3,3.8c0.3,1,1,1.7,1.4,2.7c0,0,0,0.1,0,0.1c1.6,0.5,3.2,0.7,4.6,0.7
					c0-0.1-0.1-0.2-0.1-0.3c-0.8-2.4-1.8-5.2-0.4-7.5c0.5,0.3,0.7,0.7,0.9,1.2c0.5,1.2,0.9,2.5,1.3,3.8c0.3,0.9,0.8,1.5,1.2,2.3
					c0.2,0,0.3-0.1,0.5-0.2C46.9,104.1,49,86.7,34.4,85.5z"/>
				<path class="st3" d="M27.5,104.9c-0.4-1.3-0.8-2.5-1.3-3.8c-0.2-0.5-0.4-0.9-0.9-1.2c-1.1,1.9-0.6,4.1,0,6.2
					c1.3,0.7,2.5,1.3,3.7,1.7c0,0,0-0.1,0-0.1C28.5,106.6,27.8,105.9,27.5,104.9z"/>
				<path class="st3" d="M33.9,101.8c-0.2-0.5-0.4-0.9-0.9-1.2c-1.3,2.4-0.3,5.1,0.4,7.5c0,0.1,0.1,0.2,0.1,0.3c1,0,2-0.2,2.9-0.5
					c-0.4-0.8-0.9-1.4-1.2-2.3C34.8,104.3,34.4,103.1,33.9,101.8z"/>
			</g>
		</g>
	</g>
</g>
</svg>
