<?xml version="1.0" encoding="utf-8"?>
<!-- Generator: Adobe Illustrator 24.2.3, SVG Export Plug-In . SVG Version: 6.00 Build 0)  -->
<svg version="1.1" id="Layer_1" xmlns="http://www.w3.org/2000/svg" xmlns:xlink="http://www.w3.org/1999/xlink" x="0px" y="0px"
	 viewBox="0 0 460 130.1" style="enable-background:new 0 0 460 130.1;" xml:space="preserve">
<style type="text/css">
	.st0{enable-background:new    ;}
	.st1{fill:#292F36;}
	.st2{fill:#BC6906;}
	.st3{fill:#99550A;}
	.st4{fill:#FFFFFF;}
	.st5{fill:#E8D7D1;}
	.st6{fill:#0096FC;}
	.st7{fill:#3A3A3A;}
	.st8{fill:#212121;}
	.st9{fill:#514539;}
	.st10{fill:#FEFEFE;}
	.st11{fill:#45484C;}
	.st12{fill:#47382C;}
	.st13{fill:#E1D6D0;}
	.st14{fill:#9E938F;}
	.st15{fill:#7C5839;}
	.st16{fill:#F15A29;}
	.st17{fill:#FF934A;}
	.st18{fill:#110E0C;}
</style>
<g class="st0">
	<path class="st1" d="M123.2,70.1l1.8-6.9c1.5,1.6,7.7,4.9,15.3,4.9c4.9-0.1,7.1-1.2,7.1-3.1c0-2-2.5-2.5-10.5-4.3
		c-9.7-2-12.1-6.9-12.1-11.2c0-5.8,4.7-10.9,14.6-10.9c5.6,0,11.1,1.6,14.1,3.5l-1.3,6.8c-3-1.4-7.6-2.7-13-2.7
		c-5.6,0-6.6,1.5-6.6,3.4s1.1,3.1,8.5,4.7c9.8,2.1,13.8,4.3,13.8,10.2c0,6.7-5.2,11.2-15.1,11.2C132.9,75.6,125.9,73,123.2,70.1z"/>
	<path class="st1" d="M159.3,56.9c0-12.2-0.3-16.9-0.3-17.8c0.4,0,2.2,0.1,4.2,0.1c1.9,0,3.5-0.1,4.2-0.1c-0.1,1-0.3,5.7-0.3,17.8
		c0,14.6,0.2,17.2,0.2,18.1c-0.6,0-1.7-0.2-4.1-0.2c-2.2,0-3.4,0.2-4.2,0.2C159.1,74.1,159.3,71.5,159.3,56.9z"/>
	<path class="st1" d="M205.8,68.8c-2.8,4-7.7,6.8-15.1,6.8c-9.9,0-18.3-5.8-18.3-18.4c0-13.1,9.1-18.6,19.3-18.6
		c4.5,0,10.6,1.5,12.1,2.5l-0.7,8.1c-1.6-1.2-5.8-2.9-11.1-2.9c-5.9,0-11.2,3.3-11.2,10.8c-0.1,8.2,4.6,11.2,10,11.2
		c3.1,0,5.5-0.5,7.5-1.5v-5.4c-1.1,0.2-2.5,0.3-4.1,0.3c-2.9,0-5.8-0.5-6.1-0.6l-0.2-6.4c0.3,0,4.7,0.2,10.6,0.2
		c2.1,0,5.1-0.1,7.1-0.3C205.2,60.6,205.4,67.1,205.8,68.8z"/>
	<path class="st1" d="M243.6,56.7c0,12.9,0.3,15.6,0.3,17.5c-2,0.3-8,1-9.8,1.5c-2.5-3.6-11.5-17.5-16.3-25.4
		c0.4,2.4,0.7,5.3,0.7,8.7c0,12.1,0.2,15,0.2,15.9c-0.6,0-2-0.2-3.6-0.2c-1.9,0-3.7,0.2-4.3,0.2c0-1.9,0.3-3.4,0.3-18.3
		c0-12.2-0.3-16.2-0.3-17.1c1.9-0.1,6.9-0.6,9.1-0.8c2.1,3.8,11.9,19.3,17.8,28.5c-0.8-3-1.4-6.9-1.4-12.2c0-12.1-0.3-15-0.3-15.9
		c0.4,0,2.3,0.2,4,0.2c1.6,0,3.7-0.2,4.1-0.2C244,40.1,243.6,44.6,243.6,56.7z"/>
	<path class="st1" d="M260.9,59.4c0-15.3-0.2-17.8-0.2-20.2c0.7,0,2.2,0.2,4.1,0.2c1.7,0,3.5-0.2,4.2-0.2c0,2.5-0.2,5.1-0.2,20.3
		c0,5.9,1.9,9.2,7.8,9.2c5.8,0,7.8-3.3,7.8-9.2c0-15.2-0.2-17.8-0.2-20.3c0.7,0,2.4,0.2,4.2,0.2c1.8,0,3.3-0.2,4.1-0.2
		c0,2.5-0.2,5-0.2,20.2c0,13.2-7.7,16.2-15.6,16.2S260.9,72.6,260.9,59.4z"/>
	<path class="st1" d="M327,51c0,8-4.6,14.9-14,14.9c-2.7,0-5.2-0.4-7.2-1c0.1,8.1,0.2,9.4,0.2,10.2c-0.6,0-2.1-0.1-3.9-0.1
		c-2.1,0-3.6,0.1-4.3,0.1c0-1.1,0.3-2.7,0.3-18.4c0-11.6-0.3-15.6-0.3-16.8c1.2-0.2,7.2-1.3,13.3-1.3C321.5,38.6,327,43.2,327,51z
		 M319.1,51.3c0-3.6-1.3-5.2-7.6-5.2c-2.1,0-4,0.1-5.7,0.2c-0.1,2.9-0.1,6.2-0.1,10.2v1.7c1.4,0.1,2.9,0.2,4.7,0.2
		C316.8,58.4,319.1,56,319.1,51.3z"/>
</g>
<g>
	<g>
		<g>
			<g>
				<path class="st2" d="M90,89.1c-1.5-4.7-4.2-8.8-5.7-13.4C82.4,69.9,84.9,63.8,83,58c-1.6-5-7.4-8-12.4-10.3
					c-2.6-1.2-5.1-1.9-7.7-2.2l0,0l0,0l0,0l0,0c-2.5,0.3-5.1,1-7.7,2.2C50.3,50,44.5,53,42.9,58c-1.9,5.7,0.6,11.8-1.3,17.6
					c-1.6,4.9-4.4,9.1-5.9,14c-0.1,0.3-0.2,0.6-0.3,0.9C43,94.3,66.1,103.2,90,89.1z"/>
				<path class="st3" d="M91.5,101.2c0.2-3.8-0.1-7.6-1.3-11.5c-0.1-0.2-0.1-0.4-0.2-0.6c-23.9,14.1-46.9,5.2-54.5,1.5
					c-1,3.6-1.2,7.1-1,10.6H91.5z"/>
				<path class="st4" d="M50.2,101.2H76c0.1-2.1,0.3-4.3,0.8-6.4c0.8-4.1,9.5-16.4-1.1-14.3c-5.3,1-10.6,1.3-16,0.7
					c-3.3-0.4-10.6-3.5-12.9-1c-2.4,2.7-0.8,4.8,0,7.7C47.8,91.4,49.3,96.7,50.2,101.2z"/>
				<path class="st5" d="M76.3,101.2c0.1-2,0.3-4.1,0.8-6.1c0-0.1,0-0.1,0-0.2c-10.6,2.4-20.5,1.9-28.5,0.4c0.5,1.9,0.8,3.9,1.1,5.8
					L76.3,101.2L76.3,101.2z"/>
			</g>
			<g>
				<path class="st6" d="M85.3,74c0,6.6-10.1,11.9-22.6,11.9S40,80.5,40,74c0-6.6,10.2-12,22.6-12C75.1,62,85.3,67.4,85.3,74z"/>
				<g>
					<path class="st7" d="M89.6,33.8c-1.5-3.5-2.9-7-5.2-10.5c-1.7-2.6-4.8-4-6.4-6.4c-1.3-1.9-1.2-0.8-0.2-2.8
						c1.3-2.6,5.1-4.4,7.6-5.4c8-3.3,16.5-0.7,22.6,5c0.9,0.9,8.9,9.9,8.1,10.4c-2.3,1.7-5.7,1-8.3,0.4c-4.4-1-5.2,2.8-8.1,5.5
						c-1,0.9-8.3,7.7-8.3,7.5C90.6,36.2,90.1,35,89.6,33.8z"/>
					<path class="st8" d="M107.1,24.4c-1.8-1.4-4.3-2.2-6-3c-2.2-1.1-3.7-2.9-5.8-4C90.2,14.6,84.8,18,85,23.9c0,0.2,0,0.4,0.1,0.6
						c1.6,2.5,2.7,5.1,3.8,7.7c1.3,1.5,2.7,2.9,4,4c2.2-2,6-5.5,6.7-6.1C102.3,27.4,103.2,23.8,107.1,24.4z"/>
					<path class="st7" d="M33,33.8c1.5-3.5,2.9-7,5.2-10.5c1.7-2.6,4.8-4,6.4-6.4c1.3-1.9,1.2-0.8,0.2-2.8c-1.3-2.6-5.1-4.4-7.6-5.4
						c-8-3.3-16.5-0.7-22.6,5c-0.9,0.9-8.9,9.9-8.1,10.4c2.3,1.7,5.7,1,8.3,0.4c4.4-1,5.2,2.8,8.1,5.5c1,0.9,8.3,7.7,8.3,7.5
						C31.9,36.2,32.5,35,33,33.8z"/>
					<path class="st8" d="M15.5,24.4c1.8-1.4,4.3-2.2,6-3c2.2-1.1,3.7-2.9,5.8-4c5.1-2.7,10.5,0.7,10.3,6.6c0,0.2,0,0.4-0.1,0.6
						c-1.6,2.5-2.7,5.1-3.8,7.7c-1.3,1.5-2.7,2.9-4,4c-2.2-2-6-5.5-6.7-6.1C20.3,27.4,19.4,23.8,15.5,24.4z"/>
					<path class="st2" d="M92,26.6c-2.7-5.8-7.5-12.8-13.6-14.2c-4.9-1.1-10.3,0.9-15.5,0.7l0,0c-0.2,0-0.3,0-0.5,0s-0.3,0-0.5,0
						l0,0c-5.2,0.2-10.6-1.8-15.5-0.7c-6.1,1.4-10.9,8.4-13.6,14.2c-5.8,12.5,1.9,34,8.5,44.7c4.4,7,13,9.1,20.5,9.8v0.1
						c0.2,0,0.3,0,0.5,0s0.3,0,0.5,0V81c7.5-0.7,17.4-3.4,21.8-10.4C91.3,60,97.8,39.1,92,26.6z"/>
					<path class="st9" d="M60.9,54.4c1.3-6.7,4.1-15.6-2.9-20.3c-3.9-2.6-10.7-3.7-15-1.6c-5.9,2.8-6.4,11.8-3.6,16.8
						c1.9,3.5,4.5,6.5,6.1,10.2c1.3,3,1.7,9.7,5.6,10.2C58.6,70.6,59.9,59.3,60.9,54.4z"/>
					<path class="st9" d="M64.8,54.4c-1.3-6.7-4.1-15.6,2.9-20.3c3.9-2.6,10.7-3.7,15-1.6c5.9,2.8,6.4,11.8,3.6,16.8
						c-1.9,3.5-4.5,6.5-6.1,10.2c-1.3,3-1.7,9.7-5.6,10.2C67.1,70.6,65.8,59.3,64.8,54.4z"/>
					<path class="st4" d="M76.6,59.7c-0.5-0.2-2.5-4.9-3.5-5.8c-2.6-2.3-5.8-3.7-7.5-7c-2-3.8,0.2-7.9,0.9-11.8
						c-1.2,0.1-2.2,1.5-3.4,1.6c-0.9,0.1-2.2-1-3.2-1.3c0.6,3.5,1.8,5.4,0.9,9.2c-1.2,4.6-5,7-8.3,10.1c-1.6,1.4-6.5,6-1.8,6.7
						c1.3,0.2,5.4-1.9,6.9-2.3c2.2-0.6,4.4-1.1,6.6-1.2C68.6,57.6,72.8,58.3,76.6,59.7z"/>
					<g>
						<path class="st4" d="M65,68.1c-3.6-0.7-15.7,2.1-12.6,8.3c1.4,2.8,8.5,2.3,11,2.2c3.4-0.2,8.4,1.6,10-2.8
							C74.8,71.9,68.1,68.8,65,68.1z"/>
						<path d="M70.3,71.1c-3.7-2-8.5-1.6-12.4-0.2c-1.5,0.5-2.3,2.3-0.4,3.1c1.7,0.7,3.7-0.9,5.2-1.4c1.7-0.5,3.6,0.5,5.3,0.8
							C70,73.8,73.2,72.7,70.3,71.1z"/>
						<path class="st9" d="M82,68.2c-0.3-1.1-0.6-2.1-0.9-3c-4.3-12.7-14.6-17.1-25.3-13c-3.8,1.4-7.7,5-9.6,9.3
							c-1.9,4.4-3.8,13.1-0.6,17.3c4.4,5.8,7.7,1,10.3-3.3c3.4-5.6,11.6-6.9,15.3-1.2c1.2,1.9,1.4,5.1,3.2,6.4
							c2.3,1.5,5.9-0.7,7.3-3.1C83.1,75,82.8,71.4,82,68.2z"/>
						<path d="M71.4,58.1c2.6,8.7-17.6,9.9-14.9-0.6c0.8-3.3,5.2-2.7,7.9-2.6C67.3,55,70.5,55,71.4,58.1z"/>
						<path class="st4" d="M60.7,59.7c-1.4,0.9-3,1-3.6,0.2c-0.5-0.8,0.2-2.2,1.6-3.2c1.4-0.9,3-1,3.6-0.2
							C62.9,57.3,62.2,58.7,60.7,59.7z"/>
						<g>
							<path d="M43.4,43.2c0,4.3,2,7.7,4.4,7.7s4.4-3.5,4.4-7.7c0-4.3-2-7.7-4.4-7.7C45.4,35.4,43.4,38.9,43.4,43.2z"/>
							<path class="st4" d="M48,40.6c-0.6,1.3-1.8,2.1-2.7,1.7c-0.9-0.4-1.2-1.8-0.7-3.1c0.6-1.3,1.8-2.1,2.7-1.7
								C48.3,37.9,48.6,39.3,48,40.6z"/>
						</g>
						<g>
							<path d="M73.7,43.2c0,4.3,2,7.7,4.4,7.7s4.4-3.5,4.4-7.7c0-4.3-2-7.7-4.4-7.7C75.6,35.4,73.7,38.9,73.7,43.2z"/>
							<path class="st4" d="M78.3,40.6c-0.6,1.3-1.8,2.1-2.7,1.7c-0.9-0.4-1.2-1.8-0.7-3.1c0.6-1.3,1.8-2.1,2.7-1.7
								C78.5,37.9,78.8,39.3,78.3,40.6z"/>
						</g>
						<path d="M63.9,72.2c-0.4,0-0.7-0.3-0.7-0.7v-8.1c0-0.4,0.3-0.7,0.7-0.7s0.7,0.3,0.7,0.7v8.1C64.6,71.9,64.3,72.2,63.9,72.2z"
							/>
					</g>
				</g>
			</g>
		</g>
	</g>
	<g>
		<path class="st10" d="M76.4,94.2c-2.1,1.9-3.8,4.1-4.6,6h6.6c-0.8-3.8,0.3-7.8,3.9-9.8C80.3,91.1,78.2,92.5,76.4,94.2z"/>
		<path class="st10" d="M48.7,94.2c-1.8-1.7-3.9-3.1-5.9-3.8c3.6,2,4.7,6,3.9,9.8h6.6C52.5,98.3,50.8,96.1,48.7,94.2z"/>
		<path class="st4" d="M93,90.1c-1.8-0.9-3.8-1.1-6.5-0.9c-0.5,0-1,0.1-1.5,0.2c-1,0.2-1.9,0.5-2.7,1c-3.6,2-4.7,6-3.9,9.8
			c0.1,0.5,0.3,1,0.4,1.5c1,2.7,3,5.1,5.7,6.2c0.1,0,0.2,0.1,0.4,0.1c0.3-0.7,0.8-1.2,1-1.9c0.3-1.1,0.7-2.1,1.1-3.2
			c0.2-0.4,0.3-0.8,0.7-1.1c1.1,2,0.3,4.3-0.4,6.4c0,0.1,0,0.1-0.1,0.2c1.1,0,2.4-0.1,3.7-0.6v-0.1c0.3-0.8,0.9-1.4,1.1-2.3
			c0.3-1.1,0.7-2.1,1.1-3.2c0.2-0.4,0.3-0.8,0.7-1.1c0.9,1.6,0.5,3.5,0,5.2c0.4-0.3,0.9-0.6,1.3-0.9c5.4-4,4.9-9.1,0.6-13.5
			C94.9,91.2,94,90.5,93,90.1z"/>
		<path class="st11" d="M93.9,101.3c-0.4,0.3-0.5,0.6-0.7,1.1c-0.4,1.1-0.7,2.1-1.1,3.2c-0.3,0.8-0.8,1.5-1.1,2.3v0.1
			c0.9-0.3,1.9-0.8,2.9-1.4C94.4,104.8,94.7,102.9,93.9,101.3z"/>
		<path class="st11" d="M87.7,101.9c-0.4,0.3-0.5,0.6-0.7,1.1c-0.4,1.1-0.7,2.1-1.1,3.2c-0.2,0.7-0.7,1.3-1,1.9
			c0.7,0.2,1.5,0.4,2.3,0.4c0-0.1,0-0.2,0.1-0.2C88,106.2,88.7,103.9,87.7,101.9z"/>
		<path class="st4" d="M46.7,100.2c0.8-3.8-0.3-7.8-3.9-9.8c-0.8-0.4-1.7-0.8-2.7-1c-0.5-0.1-1-0.2-1.5-0.2c-4-0.3-6.5,0.2-9.2,3
			c-4.3,4.4-4.8,9.5,0.6,13.5c0.4,0.3,0.9,0.6,1.3,0.9c-0.5-1.7-0.9-3.6,0-5.2c0.4,0.3,0.5,0.6,0.7,1.1c0.4,1.1,0.7,2.1,1.1,3.2
			c0.3,0.8,0.8,1.5,1.1,2.3v0.1c1.3,0.4,2.5,0.6,3.7,0.6c0-0.1,0-0.2-0.1-0.2c-0.6-2-1.4-4.4-0.4-6.4c0.4,0.3,0.5,0.6,0.7,1.1
			c0.4,1.1,0.7,2.1,1.1,3.2c0.2,0.7,0.7,1.3,1,1.9c0.1,0,0.2-0.1,0.4-0.1c2.7-1,4.7-3.4,5.7-6.2C46.4,101.2,46.6,100.7,46.7,100.2z"
			/>
		<path class="st11" d="M33,105.5c-0.3-1.1-0.7-2.1-1.1-3.2c-0.2-0.4-0.3-0.8-0.7-1.1c-0.9,1.6-0.5,3.5,0,5.2c1,0.6,2,1.1,2.9,1.4
			v-0.1C33.8,107,33.3,106.4,33,105.5z"/>
		<path class="st11" d="M38.1,102.9c-0.2-0.4-0.3-0.8-0.7-1.1c-1.1,2-0.3,4.3,0.4,6.4c0,0.1,0,0.1,0.1,0.2c0.8,0,1.6-0.2,2.3-0.4
			c-0.3-0.7-0.8-1.2-1-1.9C38.8,105.1,38.5,104,38.1,102.9z"/>
	</g>
</g>
<g>
	<path class="st12" d="M364.9,85.2c-2.9-2.9-6.1-6.1-8.2-9.6c-0.6,4.5,1.4,10.6,4.6,15.4c0.6-0.2,1.3-0.3,2-0.4
		C363.5,88.8,364.1,87,364.9,85.2z"/>
	<path class="st13" d="M380.5,96.8c0.4,0.1,0.9,0.2,1.3,0.2c0.7,0.1,1.5,0.2,2.2,0.3c0.5,0.1,0.9,0.1,1.4,0.2s0.9,0.1,1.4,0.1
		c0.8,0.1,1.7,0.1,2.5,0.2c0.5,0,0.9,0,1.4,0.1c0.9,0,1.9,0,2.8,0c0.5,0,1,0,1.4,0c1.4,0,2.9-0.1,4.4-0.3c0.5-0.1,1-0.1,1.5-0.2
		c1.9-0.2,3.8-0.6,5.7-1c-0.1-4-0.9-6.9-1.5-8.5c-5.3,1.9-11.1,1.9-16.9,1.6c-3.3-0.2-6.8-0.8-10-2c-0.5,1.4-1.4,4.4-1.6,8.4
		c0.6,0.2,1.3,0.3,2,0.4C379.2,96.6,379.8,96.7,380.5,96.8z"/>
	<path class="st14" d="M406.6,96.5c-1.9,0.5-3.9,0.8-5.7,1c-0.5,0.1-1,0.1-1.5,0.2c-1.5,0.2-3,0.2-4.4,0.3c-0.5,0-1,0-1.4,0
		c-0.9,0-1.9,0-2.8,0c-0.5,0-0.9,0-1.4-0.1c-0.9,0-1.7-0.1-2.5-0.2c-0.5,0-0.9-0.1-1.4-0.1c-0.5-0.1-1-0.1-1.4-0.2
		c-0.8-0.1-1.5-0.2-2.2-0.3c-0.5-0.1-0.9-0.2-1.3-0.2c-0.6-0.1-1.2-0.2-1.8-0.4c-0.7-0.1-1.3-0.3-2-0.4c0,0.4,0,0.7,0,1.1
		c1.2,1.4,2.2,2.9,2.7,4.2h25.3c0.4-1,1.1-2.1,1.9-3.2C406.6,97.5,406.6,97,406.6,96.5z"/>
	<path class="st15" d="M365.8,90.7c1.5,0.1,2.8,0.6,3.9,1.2c2.5,1,5,3,6.9,5.3c0-0.4,0-0.7,0-1.1l0,0c0.2-4,1.1-7,1.6-8.4
		c-1.9-0.7-3.7-1.6-5.4-2.8c-1.7-1.2-3.6-2.8-4.9-4.6c-1.3,1.6-2.4,3.3-3.1,5c-0.8,1.8-1.4,3.6-1.7,5.4
		C364,90.5,364.9,90.6,365.8,90.7z"/>
	<path class="st15" d="M410.6,85c-1.7,1.3-3.6,2.3-5.5,3c0.5,1.6,1.4,4.6,1.5,8.5c0,0.5,0,1,0,1.6c2-2.6,4.9-5.1,7.7-6.2
		c1.1-0.6,2.3-1,3.9-1.2c0.6-0.1,1.2-0.1,1.8-0.1c-0.6-3.5-2.1-7-4.7-10.3C414.1,82.1,412.5,83.5,410.6,85z"/>
	<path class="st16" d="M372.9,84.9c1.7,1.1,3.5,2,5.4,2.8c3.2,1.2,6.6,1.8,10,2c5.7,0.3,11.6,0.3,16.9-1.6c1.9-0.7,3.8-1.7,5.5-3
		c1.8-1.4,3.5-2.9,4.7-4.6c0.9-1.3,1.5-2.8,1.7-4.6c0-0.3,0.1-0.6,0.1-0.8c-0.2,0.1-0.5,0.3-0.7,0.4c-0.4,0.6-0.9,1.1-1.5,1.7
		c-2.8,2.7-6.1,3.4-9.3,2.9c-1.2,2.8-8.1,3.6-11.6,3.6c-3.3,0-13,0.5-15.3-2c-0.4-0.4-0.5-0.9-0.5-1.5c-3.2,0.4-6.3-0.3-9.1-3
		c-0.6-0.6-1.1-1.2-1.5-1.7c-0.3-0.2-0.6-0.4-1-0.6c0,1.7,0.2,3.4,0.9,4.6c0.2,0.3,0.3,0.6,0.5,0.9
		C369.3,82.1,371.1,83.7,372.9,84.9z"/>
	<path class="st12" d="M419.1,30.9c1.9,2.6,2.1,5,2.3,7.6c5.1-1.3,9.1-6.3,5.6-12c-0.6-0.9-1.2-1.8-2-2.5c-2.5-2.6-5.8-4.5-8.7-6.7
		c-1.7-1.3-4.4-5.2-6.6-5.1c-2.5,0.1-4.4,3.1-4.9,5c-0.4,1.7-0.5,3.6-0.3,5.4C409.8,24.5,415.7,26.4,419.1,30.9z"/>
	<path class="st12" d="M379.5,22.6c0.2-1.8,0.2-3.7-0.3-5.4c-0.5-1.9-2.4-4.9-4.9-5c-2.2-0.1-4.8,3.8-6.6,5.1
		c-2.9,2.2-6.2,4-8.7,6.7c-0.7,0.8-1.4,1.6-2,2.5c-3.5,5.7,0.5,10.7,5.6,12c0.2-2.6,0.4-5,2.3-7.6C368.3,26.4,374.2,24.5,379.5,22.6
		z"/>
	<path class="st15" d="M368,68.3c1.1-1.8,1.9-3.3,2.8-4.8c1.2-1.9,2.5-3.5,4.7-5.1c2.2-1.7,4.3-3.1,6.6-4.3c0.5-3.4,6.6-3.2,9.1-3.2
		s8.7-0.7,10.2,1.5c0.4,0.6,0.6,1.1,0.6,1.7c2.3,1.1,4.4,2.6,6.6,4.3c2.1,1.6,3.5,3.3,4.7,5.1c0.9,1.4,1.8,3,2.8,4.8
		c1.6,2.6,1.8,4.8,0.4,7.1c0.2-0.1,0.5-0.3,0.7-0.4c3.5-2.2,6.1-7,7.2-10.8c2.2-7.6,0.1-14-2.2-21.2c-0.5-1.6-0.7-3-0.8-4.4
		c-0.2-2.6-0.4-5-2.3-7.6c-3.4-4.5-9.3-6.4-14.5-8.2c-0.7-0.3-1.4-0.5-2.1-0.8c-3.8-1.5-7.1-0.6-10.5-0.6c-3.5-0.1-6.7-0.9-10.5,0.6
		c-0.7,0.3-1.4,0.5-2.1,0.8c-5.2,1.9-11.1,3.8-14.5,8.2c-1.9,2.6-2.1,5-2.3,7.6c-0.1,1.4-0.3,2.8-0.8,4.4
		c-2.3,7.2-4.4,13.6-2.2,21.2c1.1,3.7,3.6,8.4,7,10.7c0.3,0.2,0.6,0.4,1,0.6C366.2,73.1,366.4,70.9,368,68.3z M409.5,50.3
		c-2,0-3.5-2.5-3.5-5.6s1.6-5.6,3.5-5.6c2,0,3.5,2.5,3.5,5.6C413.1,47.8,411.5,50.3,409.5,50.3z M390.7,28.1
		c0.2-0.2,0.5-0.3,0.7-0.4c0.1,0,0.2-0.1,0.4-0.1v-0.1c0.1,0,0.2,0,0.3,0c0.1,0,0.2,0,0.3,0v0.1c0.1,0,0.2,0.1,0.4,0.1
		c0.2,0.1,0.5,0.2,0.7,0.4c2.4,1.8,1.7,6.3,1.4,8.6c-0.2,1.8-0.3,5.1-1.3,6.7c-0.4,0.6-0.8,0.9-1.2,1.1v0.1c-0.1,0-0.2,0-0.3,0
		c-0.1,0-0.2,0-0.3,0v-0.1c-0.4-0.1-0.8-0.5-1.2-1.1c-1-1.6-1-4.9-1.3-6.7C389,34.4,388.3,29.8,390.7,28.1z M374.5,50.3
		c-2,0-3.5-2.5-3.5-5.6s1.6-5.6,3.5-5.6c2,0,3.5,2.5,3.5,5.6C378.1,47.8,376.5,50.3,374.5,50.3z"/>
	<path d="M409.5,39.2c-2,0-3.5,2.5-3.5,5.6s1.6,5.6,3.5,5.6c2,0,3.5-2.5,3.5-5.6C413.1,41.6,411.5,39.2,409.5,39.2z M410.1,43.2
		c-0.5,1.2-1.5,1.9-2.2,1.6c-0.7-0.3-0.9-1.5-0.4-2.7s1.5-1.9,2.2-1.6C410.4,40.8,410.6,42,410.1,43.2z"/>
	<path d="M374.5,39.2c-2,0-3.5,2.5-3.5,5.6s1.6,5.6,3.5,5.6c2,0,3.5-2.5,3.5-5.6C378.1,41.6,376.5,39.2,374.5,39.2z M374.6,43.2
		c-0.5,1.2-1.5,1.9-2.2,1.6c-0.7-0.3-0.9-1.5-0.4-2.7s1.5-1.9,2.2-1.6C375,40.8,375.1,42,374.6,43.2z"/>
	<path class="st12" d="M403.9,80.3c-0.1,0-0.1,0-0.2,0c-3.4-1-9.9-4.5-11.7-5.4c-1.8,1-8.3,4.4-11.7,5.4c-0.1,0-0.2,0-0.2,0
		c-0.3,0-0.6-0.2-0.8-0.4c-0.4,0.1-0.8,0.1-1.1,0.2c0,0.6,0.2,1.1,0.5,1.5c2.3,2.5,12,2,15.3,2c3.5,0,10.4-0.8,11.6-3.6
		c-0.3,0-0.6-0.1-0.9-0.2C404.5,80.1,404.2,80.3,403.9,80.3z"/>
	<path class="st17" d="M416.1,68.3c-1.1-1.8-1.9-3.3-2.8-4.8c-1.2-1.9-2.5-3.5-4.7-5.1c-2.2-1.7-4.3-3.1-6.6-4.3
		c0.4,2.9-4,4.4-8.8,4.6L393,73.3c1.6,1,8.1,4.3,11.2,5.2c0.5,0.1,0.8,0.7,0.6,1.1c0,0.1-0.1,0.2-0.1,0.2c0.3,0.1,0.6,0.1,0.9,0.2
		c3.2,0.5,6.5-0.2,9.3-2.9c0.6-0.6,1.1-1.2,1.5-1.7C417.9,73.1,417.7,70.9,416.1,68.3z"/>
	<path class="st17" d="M379.2,79.6c-0.1-0.5,0.1-1,0.6-1.1c3.1-0.9,9.6-4.2,11.2-5.2l-0.2-14.6c-4.7-0.2-9.1-1.8-8.8-4.6l0,0
		c-2.3,1.1-4.4,2.6-6.6,4.3c-2.1,1.6-3.5,3.3-4.7,5.1c-0.9,1.4-1.8,3-2.8,4.8c-1.6,2.6-1.8,4.8-0.4,7.1c0.4,0.6,0.9,1.1,1.5,1.7
		c2.8,2.7,5.9,3.4,9.1,3c0.4,0,0.8-0.1,1.1-0.2C379.3,79.8,379.2,79.7,379.2,79.6z"/>
	<path class="st18" d="M390.9,58.6l0.2,14.6c-1.6,1-8.1,4.3-11.2,5.2c-0.5,0.1-0.8,0.7-0.6,1.1c0,0.1,0.1,0.2,0.1,0.2
		c0.2,0.3,0.5,0.4,0.8,0.4c0.1,0,0.1,0,0.2,0c3.4-1,9.9-4.5,11.7-5.4c1.8,1,8.3,4.4,11.7,5.4c0.1,0,0.2,0,0.2,0
		c0.3,0,0.6-0.2,0.8-0.4c0-0.1,0.1-0.2,0.1-0.2c0.1-0.5-0.1-1-0.6-1.1c-3.1-0.9-9.6-4.2-11.2-5.2l0.2-14.6c4.8-0.2,9.2-1.7,8.8-4.6
		c-0.1-0.5-0.3-1.1-0.6-1.7c-1.4-2.2-7.7-1.5-10.2-1.5c-2.4,0-8.6-0.2-9.1,3.2l0,0C381.7,56.9,386.1,58.4,390.9,58.6z M386,51.9
		c1.7-0.5,3.3-0.1,3.5,0.8c0.2,0.9-0.9,2-2.6,2.4c-1.7,0.5-3.3,0.1-3.5-0.8C383.1,53.5,384.3,52.4,386,51.9z"/>
	<path class="st13" d="M390.5,43.4c0.4,0.6,0.8,0.9,1.2,1.1v0.1c0.1,0,0.2,0,0.3,0c0.1,0,0.2,0,0.3,0v-0.1c0.4-0.1,0.8-0.5,1.2-1.1
		c1-1.6,1-4.9,1.3-6.7c0.3-2.3,1-6.8-1.4-8.6c-0.2-0.2-0.5-0.3-0.7-0.4c-0.1,0-0.2-0.1-0.4-0.1v-0.1c-0.1,0-0.2,0-0.3,0
		c-0.1,0-0.2,0-0.3,0v0.1c-0.1,0-0.2,0.1-0.4,0.1c-0.2,0.1-0.5,0.2-0.7,0.4c-2.4,1.8-1.7,6.3-1.4,8.6
		C389.5,38.5,389.6,41.8,390.5,43.4z"/>
	<path class="st17" d="M420,90.6c-0.6,0-1.2,0-1.8,0.1c-1.5,0.1-2.8,0.6-3.9,1.2c-2.8,1.1-5.7,3.6-7.7,6.2c-0.8,1.1-1.5,2.2-1.9,3.2
		c0,0,0,0,0,0.1h6.1c0.1,0.5,0.2,1,0.4,1.5c0.9,2.7,2.7,5,5.2,6c0.1,0,0.2,0.1,0.3,0.1c0.3-0.6,0.7-1.2,0.9-1.9c0.3-1,0.6-2.1,1-3.1
		c0.1-0.4,0.3-0.8,0.6-1c1,2,0.2,4.2-0.3,6.2c0,0.1,0,0.1-0.1,0.2c1.1,0,2.2-0.1,3.4-0.6v-0.1c0.3-0.8,0.8-1.4,1.1-2.2
		c0.3-1,0.6-2.1,1-3.1c0.1-0.4,0.3-0.8,0.6-1c0.8,1.6,0.5,3.4,0,5c0.4-0.3,0.8-0.5,1.2-0.9c5-3.8,4.5-8.8,0.5-13.1
		C424.7,91.4,422.7,90.6,420,90.6z"/>
	<path class="st11" d="M425,102.4c-0.4,0.2-0.5,0.6-0.6,1c-0.4,1-0.7,2.1-1,3.1c-0.3,0.8-0.8,1.4-1.1,2.2v0.1
		c0.9-0.3,1.8-0.8,2.7-1.4C425.4,105.8,425.8,104,425,102.4z"/>
	<path class="st11" d="M419.3,103c-0.4,0.2-0.5,0.6-0.6,1c-0.4,1-0.7,2.1-1,3.1c-0.2,0.7-0.6,1.2-0.9,1.9c0.7,0.2,1.4,0.4,2.1,0.4
		c0-0.1,0-0.2,0.1-0.2C419.5,107.2,420.2,104.9,419.3,103z"/>
	<path class="st17" d="M373.3,101.3h6.1c0,0,0,0,0-0.1c-0.5-1.3-1.5-2.8-2.7-4.2c-1.9-2.2-4.5-4.3-6.9-5.3c-1.1-0.6-2.3-1-3.9-1.2
		c-0.9-0.1-1.8-0.1-2.6-0.1c-0.7,0-1.4,0.2-2,0.4c-1.4,0.4-2.6,1.2-3.9,2.6c-3.9,4.2-4.5,9.2,0.5,13.1c0.4,0.3,0.8,0.6,1.2,0.9
		c-0.5-1.7-0.8-3.5,0-5c0.4,0.2,0.5,0.6,0.6,1c0.4,1,0.7,2.1,1,3.1c0.3,0.8,0.8,1.4,1.1,2.2v0.1c1.2,0.4,2.3,0.6,3.4,0.6
		c0-0.1,0-0.2-0.1-0.2c-0.6-2-1.3-4.2-0.3-6.2c0.4,0.2,0.5,0.6,0.6,1c0.4,1,0.7,2.1,1,3.1c0.2,0.7,0.6,1.2,0.9,1.9
		c0.1,0,0.2-0.1,0.3-0.1c2.5-1,4.3-3.3,5.2-6C373,102.4,373.2,101.9,373.3,101.3z"/>
	<path class="st11" d="M360.7,106.5c-0.3-1-0.6-2.1-1-3.1c-0.1-0.4-0.3-0.8-0.6-1c-0.8,1.6-0.5,3.4,0,5c0.9,0.6,1.8,1,2.7,1.4v-0.1
		C361.5,108,361,107.3,360.7,106.5z"/>
	<path class="st11" d="M365.4,104c-0.1-0.4-0.3-0.8-0.6-1c-1,2-0.2,4.2,0.3,6.2c0,0.1,0,0.1,0.1,0.2c0.8,0,1.5-0.2,2.1-0.4
		c-0.3-0.6-0.7-1.2-0.9-1.9C366.1,106.1,365.8,105,365.4,104z"/>
	<path class="st4" d="M374.2,40.5c-0.7-0.3-1.7,0.4-2.2,1.6c-0.5,1.2-0.3,2.4,0.4,2.7c0.7,0.3,1.7-0.4,2.2-1.6
		C375.1,42,375,40.8,374.2,40.5z"/>
	<path class="st4" d="M409.7,40.5c-0.7-0.3-1.7,0.4-2.2,1.6c-0.5,1.2-0.3,2.4,0.4,2.7c0.7,0.3,1.7-0.4,2.2-1.6
		C410.6,42,410.4,40.8,409.7,40.5z"/>
	<path class="st4" d="M383.4,54.4c0.2,0.9,1.8,1.3,3.5,0.8s2.9-1.5,2.6-2.4c-0.2-0.9-1.8-1.3-3.5-0.8
		C384.3,52.4,383.1,53.5,383.4,54.4z"/>
</g>
</svg>
