<?xml version="1.0" encoding="utf-8"?>
<!-- Generator: Adobe Illustrator 24.2.3, SVG Export Plug-In . SVG Version: 6.00 Build 0)  -->
<svg version="1.1" id="Layer_1" xmlns="http://www.w3.org/2000/svg" xmlns:xlink="http://www.w3.org/1999/xlink" x="0px" y="0px"
	 viewBox="0 0 126.7 130.1" style="enable-background:new 0 0 126.7 130.1;" xml:space="preserve">
<style type="text/css">
	.st0{fill:#FFDDBB;}
	.st1{fill:#EFC095;}
	.st2{fill:#EF4136;}
	.st3{fill:#E5B27F;}
	.st4{fill:#0B0808;}
	.st5{fill:#45484C;}
	.st6{fill:#FFFFFF;}
</style>
<g>
	<path class="st0" d="M34,94.4c-0.1,1.6-0.1,3.2,0,4.8C33.8,97.6,33.9,96,34,94.4z"/>
	<path class="st0" d="M93.5,99.6c0-0.3,0-0.6,0-0.9c0-0.4,0-0.9,0-1.3c0,0.4,0,0.9,0,1.3C93.6,99,93.6,99.3,93.5,99.6z"/>
	<path class="st1" d="M34,94.4C34,94.4,34,94.4,34,94.4C34,94.4,34,94.4,34,94.4c-0.1,1.6-0.1,3.2,0,4.8c0,0,0,0.1,0,0.1
		c0,0.2,0,0.5,0.1,0.7c1.1-0.1,2.3-0.1,3.7,0c1.9,0.2,3.5,0.6,4.8,1.4c4.9,1.8,10.1,7.1,11.8,11H71h4.1c1-2.3,3.2-5.1,5.9-7.4
		c1.9-1.6,3.9-2.9,6-3.7c1.3-0.7,2.9-1.2,4.8-1.4c0.1,0,0.1,0,0.2,0c0.6,0,1.1-0.1,1.6-0.1c2.6,0,4.6,0.4,6.6,1.8
		c0.8-1.4,1.8-3.5,3.3-8.7c0.1-0.4,1.3-8.5-0.4-6.2c-0.7,1-7.4,10.1-8.7,11.2c-0.3,0.2-0.5,0.5-0.8,0.7c0,0.3,0,0.6,0,0.9
		c0-0.3,0-0.6,0-0.9c0-0.4,0-0.9,0-1.3c0,0,0,0,0,0c0-0.7,0-1.4,0-2.1c0-0.1,0-0.1,0-0.2h0C74.6,109.7,56.1,110.8,34,94.4z"/>
	<path class="st2" d="M85.1,77.4c-3.4,9.1-11.7,10.9-20.5,9.2c-2.4-0.5-4.9-0.8-7.5-0.3c-7.1,1.5-9.8-0.6-14.6-6.5
		c-0.9-1.1-1.6-2.1-2.1-3.2c-0.4,2.6-0.3,5.8,0.6,7.8c1.1,2.5,3.1,4.8,5,6.4c4.2,3.5,9.3,5.1,14.3,5.4c7.3,0.5,14.9,0.4,20.9-5.3
		c3-2.9,5.5-5.8,6-10.6c0.1-1.3,0.2-2.5,0.1-3.7c-0.1-1.4-0.4-2.7-0.8-3.8c-0.2,0.8-0.4,1.7-0.7,2.6C85.5,76,85.3,76.7,85.1,77.4z"
		/>
	<path class="st0" d="M88.5,38.6c-0.4-4.2-1.3-7.6-3.4-11.4c-2.1-3.9-8.1-10.5-4-14.1c-2.8-1.8-6.1-2.9-9.5-2.7
		c-3.5,0.1-7,2-10.1,2.1c-4.9,0.2-7-2.2-12.2-1.9c-3,0.2-5.9,0.7-8.4,2.1c5.2,3.5-1.2,10.5-3.4,14.6c-2,3.8-2.9,7.2-3.4,11.4
		c-0.3,2.7-0.6,5.3-1,8c1.7,3.8,3.8,7.5,4.8,11c1.8,7-0.9,12.4,2.4,18.8c-2.4,2.2-3.8,5.6-5,9.7c-0.8,2.7-1.2,5.5-1.4,8.2
		c22.1,16.4,40.6,15.3,59.6,0.7c-0.1-3-0.6-6-1.5-8.9c-1.1-4.1-2.6-7.4-4.9-9.6c0.1,1.1,0.1,2.3-0.1,3.7c-0.5,4.8-3,7.8-6,10.6
		c-6,5.7-13.5,5.8-20.9,5.3c-5-0.3-10.2-1.9-14.3-5.4c-1.9-1.6-3.9-3.8-5-6.4c-0.8-2-1-5.2-0.6-7.8c0.5,1,1.2,2.1,2.1,3.2
		c4.8,5.9,7.5,8,14.6,6.5c2.6-0.5,5.1-0.2,7.5,0.3c8.8,1.8,17,0,20.5-9.2c0.3-0.7,0.5-1.3,0.7-1.9c0.3-0.9,0.5-1.8,0.7-2.6
		c0.4-1.9,0.7-3.8,0.8-6.3c0.2-2.2-1.2-7.5-0.9-9.6c0.4-2.3,2.2-4,3.6-5.9c-0.1-1.3-0.2-2.4-0.3-3.1C89.3,44.8,88.8,41.7,88.5,38.6z
		 M77,34.6c2.3,0,4.2,3,4.2,6.8c0,3.7-1.9,6.8-4.2,6.8c-2.3,0-4.2-3-4.2-6.8C72.7,37.6,74.6,34.6,77,34.6z M63.2,59.4
		c4.2,0,7.9-0.6,9.3,4c0.1,0.3,0.2,0.5,0.2,0.8c2,8.7-18.9,9-19.8,2.3c-0.2-1.8,0.2-3.1,1.1-4.1C56.1,59.9,60.6,59.4,63.2,59.4z
		 M48.8,34.7c2.3,0,4.2,3,4.2,6.8c0,3.7-1.9,6.8-4.2,6.8c-2.3,0-4.2-3-4.2-6.8C44.5,37.8,46.4,34.7,48.8,34.7z M70.4,82.5
		C70.4,82.5,70.4,82.5,70.4,82.5c-1.2,0-2.3-0.2-3.3-0.5c-0.8-0.2-1.6-0.5-2.4-0.8c-0.3-0.1-0.6-0.2-0.9-0.2c-0.6-0.1-1.3,0-1.9,0.2
		c-0.8,0.3-1.6,0.5-2.4,0.8c-1.1,0.3-2.2,0.5-3.3,0.5c-2.4,0-4.7-1.6-5.5-4.1c-0.1-0.3,0.3-0.5,0.5-0.3c1.7,1.6,4.6,2.3,5.5,2.3
		c1,0,1.9-0.3,2.8-0.7c0.9-0.3,1.7-0.8,2.6-1.2c0.2-0.1,0.4-0.2,0.6-0.3c0.2-0.1,0.4-0.2,0.6-0.2c0.4,0,0.7,0.2,1,0.4
		c0.4,0.2,0.7,0.4,1.1,0.6c0.9,0.4,1.8,0.9,2.8,1.1c0.6,0.2,1.2,0.3,1.8,0.3c0.9,0,3.8-0.7,5.5-2.3c0.2-0.2,0.6,0,0.5,0.3
		C75.2,80.9,72.9,82.5,70.4,82.5z"/>
	<path class="st3" d="M102.8,31.9c-1.7-2.8-1.7-6.3-3.5-9.2c-2.3-3.9-9.5-12.9-14.9-11.3c-1.5,0.4-2.6,1-3.3,1.7
		c-4.1,3.6,1.8,10.2,4,14.1c2.1,3.8,2.9,7.2,3.4,11.4c0.3,3.1,0.8,6.2,1.1,9.3c0.1,0.7,0.2,1.8,0.3,3.1c0.6,5.5,2.3,14.7,8.7,12.1
		c2-0.8,1.9-3.7,2.5-5.1c2.4-5.5,8.9-9.1,8.1-15.8C108.7,38.1,105,35.7,102.8,31.9z"/>
	<path class="st3" d="M37.6,27.2c2.2-4.1,8.6-11,3.4-14.6c-0.7-0.5-1.6-0.9-2.7-1.2c-5.4-1.6-12.6,7.4-14.9,11.3
		c-1.7,2.9-1.8,6.4-3.5,9.2c-2.2,3.7-5.9,6.1-6.4,10.3c-0.8,6.6,5.7,10.3,8.1,15.8c0.6,1.4,0.5,4.3,2.5,5.1c7.9,3.1,8.5-11.5,9-15.2
		c0.1-0.4,0.1-0.9,0.2-1.3c0.3-2.7,0.7-5.3,1-8C34.6,34.4,35.5,31,37.6,27.2z"/>
	<path class="st4" d="M77,48.1c2.3,0,4.2-3,4.2-6.8c0-3.7-1.9-6.8-4.2-6.8c-2.3,0-4.2,3-4.2,6.8C72.7,45.1,74.6,48.1,77,48.1z
		 M74.3,37.2c0.9-1.3,2.2-2,2.9-1.4c0.7,0.5,0.6,2.1-0.3,3.4c-0.9,1.3-2.2,2-2.9,1.4C73.3,40.1,73.4,38.5,74.3,37.2z"/>
	<path class="st4" d="M48.8,48.3c2.3,0,4.2-3,4.2-6.8c0-3.7-1.9-6.8-4.2-6.8c-2.3,0-4.2,3-4.2,6.8C44.5,45.2,46.4,48.3,48.8,48.3z
		 M46.4,37.2c0.9-1.3,2.2-2,2.9-1.4c0.7,0.5,0.6,2.1-0.3,3.4c-0.9,1.3-2.2,2-2.9,1.4C45.4,40.1,45.5,38.5,46.4,37.2z"/>
	<path class="st4" d="M53,66.4c0.9,6.7,21.8,6.5,19.8-2.3c-0.1-0.3-0.1-0.5-0.2-0.8c-1.4-4.6-5.1-4-9.3-4c-2.6,0-7.1,0.5-9.2,3
		C53.2,63.3,52.7,64.7,53,66.4z M58.5,60.8c2-0.6,3.5-0.2,3.4,0.8c0,0,0,0.1,0,0.1c-0.3,1-2,2.3-4,2.8c-2,0.6-3.5,0.2-3.4-0.8
		c0.1-0.6,0.7-1.2,1.6-1.8C56.7,61.5,57.6,61.1,58.5,60.8z"/>
	<path class="st4" d="M75.5,78.1c-1.7,1.6-4.6,2.3-5.5,2.3c-0.6,0-1.2-0.1-1.8-0.3c-1-0.3-1.9-0.7-2.8-1.1c-0.4-0.2-0.7-0.4-1.1-0.6
		c-0.3-0.2-0.7-0.4-1-0.4c-0.2,0-0.4,0.1-0.6,0.2c-0.2,0.1-0.4,0.2-0.6,0.3c-0.8,0.4-1.7,0.9-2.6,1.2c-0.9,0.4-1.8,0.7-2.8,0.7
		c-0.9,0-3.8-0.7-5.5-2.3c-0.2-0.2-0.6,0-0.5,0.3c0.8,2.5,3.1,4.1,5.5,4.1c1.1,0,2.2-0.2,3.3-0.5c0.8-0.2,1.6-0.5,2.4-0.8
		c0.6-0.2,1.2-0.4,1.9-0.2c0.3,0.1,0.6,0.1,0.9,0.2c0.8,0.3,1.6,0.5,2.4,0.8c1.1,0.3,2.2,0.5,3.3,0.5c0,0,0,0,0.1,0
		c2.4,0,4.7-1.6,5.5-4.1C76.1,78.1,75.7,77.9,75.5,78.1z"/>
	<path class="st0" d="M91.9,100c-0.1,0-0.1,0-0.2,0c-1.9,0.2-3.5,0.6-4.8,1.4c-2,0.8-4.1,2.1-6,3.7c-2.7,2.3-4.9,5-5.9,7.4h7.5
		c0.1,0.3,0.1,0.6,0.2,0.8c0.1,0.2,0.1,0.4,0.2,0.6c0,0,0,0,0,0c0,0.1,0.1,0.2,0.1,0.3c1.1,3.1,3.3,5.8,6.4,7
		c0.1,0.1,0.3,0.1,0.4,0.1c0.4-0.7,0.8-1.4,1.1-2.2c0.4-1.2,0.7-2.4,1.2-3.6c0.2-0.5,0.3-0.9,0.8-1.2c1.2,2.3,0.3,4.9-0.4,7.2
		c0,0.1,0,0.2-0.1,0.3c1.3,0.1,2.7-0.1,4.2-0.6c0,0,0-0.1,0-0.1c0.4-0.9,1-1.6,1.3-2.6c0.4-1.2,0.7-2.4,1.2-3.6
		c0.1-0.3,0.2-0.5,0.3-0.7c0.1-0.1,0.2-0.2,0.3-0.3c0,0,0.1-0.1,0.2-0.1c0,0,0,0,0.1,0c0,0.1,0,0.1,0.1,0.2c0.9,1.8,0.5,3.8-0.1,5.7
		c0.5-0.3,1-0.6,1.5-1c6.1-4.5,5.5-10.2,0.7-15.2c-0.6-0.7-1.3-1.2-1.9-1.6c-1.9-1.4-4-1.8-6.6-1.8C93,99.9,92.5,100,91.9,100z"/>
	<path class="st5" d="M100,113.8c0-0.1,0-0.1-0.1-0.2c0,0,0,0-0.1,0c-0.1,0-0.1,0.1-0.2,0.1c-0.1,0.1-0.2,0.2-0.3,0.3
		c-0.1,0.2-0.2,0.4-0.3,0.7c-0.5,1.2-0.8,2.4-1.2,3.6c-0.3,1-0.9,1.7-1.3,2.6c0,0,0,0.1,0,0.1c1.1-0.4,2.2-0.9,3.3-1.6
		C100.5,117.6,100.8,115.6,100,113.8z"/>
	<path class="st5" d="M92.9,114.3c-0.5,0.3-0.6,0.7-0.8,1.2c-0.5,1.2-0.8,2.4-1.2,3.6c-0.3,0.8-0.8,1.4-1.1,2.2
		c0.8,0.3,1.7,0.4,2.6,0.5c0-0.1,0-0.2,0.1-0.3C93.2,119.2,94.1,116.6,92.9,114.3z"/>
	<path class="st0" d="M46.4,113.8c0-0.1,0.1-0.2,0.1-0.4c0.1-0.3,0.2-0.7,0.3-1h7.5c-1.7-4-6.9-9.2-11.8-11
		c-1.3-0.7-2.9-1.2-4.8-1.4c-1.4-0.1-2.6-0.1-3.7,0c0-0.2,0-0.5-0.1-0.7c0,0.2,0,0.5,0,0.7c-2.5,0.3-4.6,1.2-6.7,3.4
		c-4.8,4.9-5.5,10.7,0.6,15.2c0.5,0.4,1,0.7,1.5,1c-0.5-1.8-0.9-3.6-0.2-5.4c0-0.1,0.1-0.2,0.1-0.3c0-0.1,0-0.1,0.1-0.2
		c0.1,0.1,0.1,0.1,0.2,0.2c0.1,0.1,0.2,0.2,0.3,0.3c0.1,0.2,0.2,0.4,0.3,0.7c0.5,1.2,0.8,2.4,1.2,3.6c0.3,1,0.9,1.7,1.3,2.6
		c0,0,0,0.1,0,0.1c1.5,0.5,2.9,0.7,4.2,0.6c0-0.1,0-0.2-0.1-0.3c-0.7-2.3-1.6-4.9-0.4-7.2c0.5,0.3,0.6,0.7,0.8,1.2
		c0.4,1.2,0.8,2.4,1.2,3.6c0.3,0.8,0.8,1.4,1.1,2.2c0.1,0,0.3-0.1,0.4-0.1c3.1-1.2,5.3-3.9,6.4-7C46.3,114.1,46.3,114,46.4,113.8
		C46.4,113.9,46.4,113.9,46.4,113.8z"/>
	<path class="st5" d="M31.4,118.4c-0.4-1.2-0.7-2.4-1.2-3.6c-0.1-0.3-0.2-0.5-0.3-0.7c-0.1-0.1-0.2-0.2-0.3-0.3
		c-0.1-0.1-0.1-0.1-0.2-0.2c0,0.1,0,0.1-0.1,0.2c-0.1,0.1-0.1,0.2-0.1,0.3c-0.7,1.7-0.3,3.6,0.2,5.4c1.1,0.7,2.2,1.2,3.3,1.6
		c0,0,0-0.1,0-0.1C32.3,120.1,31.7,119.4,31.4,118.4z"/>
	<path class="st5" d="M37.2,115.5c-0.2-0.5-0.3-0.9-0.8-1.2c-1.2,2.3-0.3,4.9,0.4,7.2c0,0.1,0,0.2,0.1,0.3c0.9,0,1.8-0.2,2.6-0.5
		c-0.4-0.7-0.8-1.4-1.1-2.2C38,117.9,37.6,116.7,37.2,115.5z"/>
	<path class="st6" d="M76.9,39.2c0.9-1.3,1-2.8,0.3-3.4c-0.7-0.5-2,0.1-2.9,1.4c-0.9,1.3-1,2.8-0.3,3.4C74.7,41.1,76,40.5,76.9,39.2
		z"/>
	<path class="st6" d="M49.1,39.2c0.9-1.3,1-2.8,0.3-3.4c-0.7-0.5-2,0.1-2.9,1.4c-0.9,1.3-1,2.8-0.3,3.4
		C46.9,41.1,48.2,40.5,49.1,39.2z"/>
	<path class="st6" d="M54.5,63.7c-0.2,1,1.3,1.4,3.4,0.8c2-0.6,3.7-1.8,4-2.8c0,0,0-0.1,0-0.1c0.2-1-1.3-1.4-3.4-0.8
		c-0.9,0.3-1.8,0.7-2.5,1.1C55.2,62.5,54.6,63.2,54.5,63.7z"/>
</g>
</svg>
