<?xml version="1.0" encoding="utf-8"?>
<!-- Generator: Adobe Illustrator 24.2.3, SVG Export Plug-In . SVG Version: 6.00 Build 0)  -->
<svg version="1.1" id="Capa_1" xmlns="http://www.w3.org/2000/svg" xmlns:xlink="http://www.w3.org/1999/xlink" x="0px" y="0px"
	 viewBox="0 0 512 512" style="enable-background:new 0 0 512 512;" xml:space="preserve">
<style type="text/css">
	.st0{fill:#FFFFFF;}
</style>
<g>
	<g>
		<path class="st0" d="M485.8,215L286.5,12.8C278.5,4.7,267.4,0,256,0s-22.5,4.7-30.5,12.8L26.2,215c-16.6,16.8-16.4,44,0.4,60.7
			c8.1,8.1,18.9,12.4,30.4,12.4c7.7,0,15-2.1,21.5-5.9V497c0,8.3,6.7,15,15,15h325.2c8.3,0,15-6.7,15-15V282.2
			c6.5,3.9,14,5.9,21.7,5.9h0c11.3,0,22-4.4,30.1-12.4C502.2,259.1,502.4,231.9,485.8,215z M303,482h-94v-72.2
			c0-20.2,16.4-36.6,36.5-36.6h21c20.1,0,36.5,16.4,36.5,36.6V482z M403.6,482H333v-72.2c0-36.7-29.8-66.6-66.5-66.6h-21
			c-36.7,0-66.5,29.9-66.5,66.6V482h-70.6V253.8l64.7-65.6L256,104l82.9,84.1l64.7,65.6V482z M464.3,254.4c-2.4,2.4-5.6,3.7-9,3.7
			c-3.5,0-6.7-1.4-9.1-3.8L266.7,72.1c-2.8-2.9-6.7-4.5-10.7-4.5c-4,0-7.9,1.6-10.7,4.5L65.8,254.2c-2.4,2.4-5.6,3.8-9.1,3.8
			c0,0-0.1,0-0.1,0c-3.4,0-6.6-1.3-9-3.7c-5.1-5-5.1-13.2-0.1-18.3L246.9,33.8c2.4-2.4,5.7-3.8,9.1-3.8s6.7,1.4,9.1,3.8l199.3,202.3
			C469.4,241.2,469.4,249.4,464.3,254.4z"/>
	</g>
</g>
<g>
	<g>
		<path class="st0" d="M355,247.9c0-23.4-19-42.5-42.4-42.5c-18.1,0-33.6,11.4-39.7,27.5h-33.7c-6.1-16-21.6-27.5-39.7-27.5
			c-23.4,0-42.4,19.1-42.4,42.5c0,7.8,2.2,15.4,6.1,21.9c-4,6.5-6.1,14.1-6.1,22c0,23.4,19,42.5,42.4,42.5
			c18.1,0,33.6-11.4,39.7-27.5h33.7c6.1,16,21.6,27.5,39.7,27.5c23.4,0,42.4-19.1,42.4-42.5c0-7.9-2.1-15.5-6.1-22
			C352.9,263.2,355,255.7,355,247.9z M320,281.8c3.2,2.4,5,6,5,10c0,6.9-5.6,12.5-12.4,12.5c-6.9,0-12.4-5.6-12.4-12.5
			c0-8.3-6.7-15-15-15h-58.3c-8.3,0-15,6.7-15,15c0,6.9-5.6,12.5-12.4,12.5s-12.4-5.6-12.4-12.5c0-4,1.8-7.6,5-10
			c3.8-2.8,6-7.3,6-12c0-4.7-2.2-9.1-6-12c-3.2-2.4-5-6-5-10c0-6.9,5.6-12.5,12.4-12.5c6.9,0,12.4,5.6,12.4,12.5c0,8.3,6.7,15,15,15
			h58.3c8.3,0,15-6.7,15-15c0-6.9,5.6-12.5,12.4-12.5S325,241,325,247.9c0,4-1.8,7.6-5,10c-3.8,2.8-6,7.3-6,12
			C314.1,274.6,316.3,279,320,281.8z"/>
	</g>
</g>
</svg>
