<?xml version="1.0" encoding="utf-8"?>
<!-- Generator: Adobe Illustrator 24.2.3, SVG Export Plug-In . SVG Version: 6.00 Build 0)  -->
<svg version="1.1" id="Layer_1" xmlns="http://www.w3.org/2000/svg" xmlns:xlink="http://www.w3.org/1999/xlink" x="0px" y="0px"
	 viewBox="0 0 458 186" style="enable-background:new 0 0 458 186;" xml:space="preserve">
<style type="text/css">
	.st0{fill:#C19E6C;}
	.st1{opacity:0.3;}
	.st2{fill:#EAD1AD;}
	.st3{fill:#D2B27C;}
	.st4{fill:#FCF6EF;}
	.st5{fill:#6E7FD3;}
	.st6{fill:#997A4F;}
	.st7{fill:#FEFAF1;}
	.st8{fill:#EADAAD;}
	.st9{fill:#995120;}
	.st10{fill:#FCF7E7;}
	.st11{fill:#EF4136;}
	.st12{fill:#663008;}
	.st13{fill:#FFFFFF;}
	.st14{fill:#7C4811;}
	.st15{fill:#99550A;}
	.st16{fill:#E8D7D1;}
	.st17{fill:#BC6906;}
	.st18{fill:#0096FC;}
	.st19{fill:#3A3A3A;}
	.st20{fill:#212121;}
	.st21{fill:#514539;}
	.st22{fill:#BCB7B3;}
	.st23{fill:#E2D6CC;}
	.st24{fill:#F15A29;}
	.st25{fill:#FFFDF3;}
	.st26{fill:#A97C50;}
</style>
<g>
	<path class="st0" d="M87.4,133.6c-1.2-0.1-1.9-0.1-2.5-1.1c-0.6-1-1-2.4-0.4-3.4c0.8-1.5,3.5-2.3,5.1-2.3c1.9-0.1,3.8-0.4,5.4,0.6
		c-0.4,0.3-1.2,0.5-1.8,0.6c1-0.1,2,1.2,2.7,1.8c0.6,0.6,1.4,1.1,1.8,1.9c-0.3,0.2-0.7,0.1-1.1,0.1c0.8,1.2,1.5,2.4,1.6,4
		c-0.2,0-0.4,0-0.5,0c-0.1,1,0.1,2,0.1,3c-0.1-0.1-0.4-0.2-0.5-0.4c-0.2,0.7-0.2,1.4-0.5,2c-0.1-0.2-0.4-0.4-0.4-0.6
		c-0.2,0.5-0.2,1.1-0.4,1.7c-0.7-0.3-0.8-1.5-1.6-1.8c-0.1,0.2-0.1,0.5-0.1,0.8c-0.3-0.9-1.5-1.5-2.2-2c-0.7-0.6-1.3-1.4-1.8-2.2
		C89.6,135.1,88.8,133.8,87.4,133.6z"/>
	<path class="st1" d="M43.1,149.7c0,4,11.8,7.2,26.3,7.2c14.5,0,26.3-3.2,26.3-7.2c0-4-11.8-7.2-26.3-7.2
		C54.8,142.5,43.1,145.7,43.1,149.7z"/>
	<path class="st2" d="M45.4,147.7c-0.1,0.1-1.2,0.9-0.8,0.9c1.2,0.1,2.3,0,3.2-0.6c-0.1,0.2,0,0.4-0.1,0.7c1.1,0.1,1.8-0.5,2.7-0.6
		c0,0.4,0.2,0.7,0.2,1.1c0.9-0.2,1.8-0.7,2.6-1c1-0.3,1.9-0.3,2.8-0.8c2.8-1.6,4.5-4.3,5.1-6.8c0.7-3-1.8-7.7-5.9-8.8
		c-3.8-1-8.6,2.5-9.5,5.5c0.5,0,0.9-0.3,1.5-0.3c-0.1,1.3-1.7,2.5-1.9,3.9c0.5-0.2,1-0.4,1.6-0.5c0,0.5-0.6,1.1-0.8,1.6
		c-0.3,0.6-0.4,1.3-0.4,1.9c0.3-0.2,0.7-0.4,1-0.6c-0.2,0.1-0.6,1.9-0.8,2.3c-0.4,0.8-1,1.3-1.8,1.9C44.7,147.7,44.7,148,45.4,147.7
		z"/>
	<path class="st2" d="M93.5,147.6c0.1,0.1,1.2,1,0.8,1c-1.2,0.1-2.3,0-3.2-0.6c0.2,0.3,0,0.5,0.1,0.8c-1.1,0.2-1.8-0.5-2.7-0.6
		c0,0.4-0.2,0.8-0.2,1.2c-0.9-0.2-1.8-0.8-2.7-1c-1-0.3-1.9-0.4-2.8-0.9c-2.9-1.7-4.6-4.7-5.2-7.5c-0.7-3.3,1.8-8.6,5.9-9.9
		c3.8-1.2,8.7,2.7,9.7,6c-0.5,0-0.9-0.3-1.5-0.3c0.1,1.5,1.8,2.8,1.9,4.3c-0.5-0.2-1.1-0.5-1.6-0.5c0,0.6,0.6,1.2,0.9,1.8
		c0.3,0.7,0.4,1.4,0.4,2.1c-0.4-0.2-0.7-0.4-1-0.6c0.2,0.1,0.6,2.2,0.8,2.5c0.5,0.9,1,1.5,1.8,2.1C94.3,147.6,94.3,147.9,93.5,147.6
		z"/>
	<path class="st3" d="M53.2,138.1c0.3,1.9-1.1,4.1,0.1,5.9c0.6,0.8,0.8,0.7,1.2,1.7c0.1,0.5,1.3,2.4,1.2,2.7c0-0.5,0-1.1,0.2-1.5
		c1.7,2.3,5,1,7.2,0.9c3.2,0,6.3,0.8,9.5,0.6c2.1-0.1,4.2-0.6,6.4-0.3c1.8,0.2,3.2,1.1,4.4-0.8c0.1,0.3,0.4,0.6,0.5,0.9
		c0.7-1.3,2.4-3.4,1.6-4.9c0.1,0.2,0.5,0.5,0.6,0.6c0.5-1.7,0-3.4,0.2-5.1c0.2,0.2,0.7,0.4,0.9,0.6c0.1-2.3-0.7-4.3-0.8-6.4
		c0.4,0.3,0.9,0.7,1.3,1c0.5-4.6-2-11.6-6.1-14.2c-1.9-1.2-4.4-1.6-6.7-2c-2.6-0.5-5.3-1-8-0.8c-2.5,0.2-4.6,1.3-7.1,1.7
		c-3.7,0.5-4.2,1.8-5.4,5c-1,2.8-2.6,5-2.8,8.1c-0.2,2.4,0.8,4.7,0,7.2C52.2,138.7,52.7,138.4,53.2,138.1z"/>
	<g>
		<path class="st4" d="M64.9,125.2c0.8,0.7-0.8,3-0.8,3.7c-0.1,1.7,1.6,2.8,1.9,4.5c-0.6-0.2-1.2-0.3-1.8-0.3
			c-0.1,1.4,1,2.6,1.5,3.9c-0.6-0.1-1.2-0.3-1.8-0.5c0.3,1.4,1.6,3,2.2,4.4c-0.5-0.2-1.1-0.1-1.6-0.3c0.1,1.2,1.2,2.8,1.8,3.9
			c-0.7,0.1-1.3-0.1-1.8-0.4c3.3,2.1,3,9.3-2,7.1c-0.8,1.2-1.6,1-2.8,0.3c-0.8-0.5-0.3-0.5-1.2-0.5c-0.9,0.1-1.4,1-2.5,0.3
			c-0.5-0.3-0.9-1.3-1-1.9c-0.1-0.6,0.7-4.2,1.1-4.5c-0.4,0.2-0.7,0.3-1,0.6c-0.1-2.1,0.1-4.4,0.2-6.5c-0.3,0.4-0.6,0.5-0.9,0.7
			c-0.1-1.9,0.5-3.7,0.3-5.7c-0.2,0.2-0.5,0.4-0.7,0.6c-0.3-1.8,0.6-3.9,1.1-5.6c-0.6,0.4-1.2,0.9-1.8,1.2c-0.3-1.5,1.7-3.4,2.2-4.9
			c0.7-2.1,1.5-4.1,2.9-6C58.3,119.4,64.8,125.1,64.9,125.2z"/>
	</g>
	<g>
		<path class="st4" d="M74.9,126c-0.8,0.7,0.8,3,0.8,3.7c0.1,1.7-1.6,2.8-1.9,4.5c0.6-0.2,1.2-0.3,1.8-0.3c0.1,1.4-1,2.6-1.5,3.9
			c0.6-0.1,1.2-0.3,1.8-0.5c-0.3,1.4-1.6,3-2.2,4.4c0.5-0.2,1.1-0.1,1.6-0.3c-0.1,1.2-1.2,2.8-1.8,3.9c0.7,0.1,1.3-0.1,1.8-0.4
			c-3.3,2.1-3,9.3,2,7.1c0.8,1.2,1.6,1,2.8,0.3c0.8-0.5,0.3-0.5,1.2-0.5c0.9,0.1,1.4,1,2.5,0.3c0.5-0.3,0.9-1.3,1-1.9
			c0.1-0.6-0.7-4.2-1.1-4.5c0.4,0.2,0.7,0.3,1,0.6c0.1-2.1-0.1-4.4-0.2-6.5c0.3,0.4,0.6,0.5,0.9,0.7c0.1-1.9-0.5-3.7-0.3-5.7
			c0.2,0.2,0.5,0.4,0.7,0.6c0.3-1.8-0.6-3.9-1.1-5.6c0.6,0.4,1.2,0.9,1.8,1.2c0.3-1.5-1.7-3.4-2.2-4.9c-0.7-2.1-1.5-4.1-2.9-6
			C81.5,120.3,74.9,126,74.9,126z"/>
	</g>
	<path class="st4" d="M51.9,129.4c0.5-2.2,1.7-3.9,2.5-6.1c1.1-3,1.7-4.2,5.4-4.7c2.4-0.3,4.6-1.3,7.1-1.6c2.7-0.2,5.4,0.2,8,0.7
		c2.3,0.4,4.7,0.8,6.7,1.9c3.5,2.1,5.8,7.1,6.1,11.2c-0.5-0.3-0.9-0.7-1.5-0.9c0,1.2-0.7,3-1.5,4c-0.6-0.3-0.8-1.1-1.5-1.4
		c-0.1,1-0.7,2.5-1.4,3.1c-0.3-0.7-0.5-1.9-1.3-2.2c-0.1,1-1,2-1.8,2.6c-0.5-0.7-0.6-2-1.6-2.4c-0.7,0.7-0.8,1.9-1.8,2.4
		c-0.5-0.8-0.8-1.6-1.6-2.1c-0.6,0.8-1.6,1.3-2.1,2.1c-0.3-0.6-0.3-1.4-1.2-1.4c0,0.7-0.6,1-1,1.5c-0.9-1-1.1-2.1-2.2-0.8
		c-1.3,1.5-1.1,0.9-2.3-0.4c-2.1-2-0.7,1.3-2.4,1.3c-1.3,0-1.3-2.8-2.8-2.7c-0.1,1.3-0.1,2.1-1.3,1.1c-0.8-0.8-1.9-1.6-2.5-2.5
		c0,0.5,0,1.1-0.2,1.6c-0.8-1.1-1.4-2.3-2-3.6c-0.1,0.5-0.3,1.1-0.6,1.7C52.5,131.3,52.1,130.4,51.9,129.4z"/>
	<path class="st5" d="M85.1,118c0.7,1.5,0.8,4.3,0,5.8c-0.7,1.4-2.1,2.7-3.3,3.6c-2.8,2-6.2,2.9-9.6,3.1c-4.9,0.3-9.9,0.2-13.9-3
		c-2-1.6-3.7-3.3-4-6c-0.9-7.2,5.5-8.8,11-9.8c5.2-1,13.2-1.7,17.1,2.9C83.2,115.5,84.5,116.8,85.1,118z"/>
	<g>
		<path class="st6" d="M84.4,95c-0.6-1.5-0.7-3,0.2-4.3c2.3-3.3,9.5,1.3,11.9,2.8c2.2,1.4,4.2,3.2,6,5.2c0.9,1,3.3,5.1,4.5,5.4
			c-0.9-0.2-1.9-0.3-2.8-0.2c1.4,2,3.3,4.4,3.2,7c-0.6-0.1-1.3,0-1.9-0.1c0,2.8,0.5,6,0.9,8.8c-0.3-0.2-0.8-0.2-1.1-0.4
			c-1.4,1.5-1,3.3-3.1,3.9c-1.6,0.5-3.3,0.3-4.3,2c-1.5-1.3-2.1,0-3.5-0.2c-1.3-0.2-2.2-1.6-2.7-2.6c-1.8-3.3-1.8-7.1-1.6-11
			c0.1-3.9,0.3-7.6-2.1-11C86.9,99.1,85.2,97,84.4,95z"/>
		<path class="st6" d="M53.6,95c0.6-1.5,0.7-3-0.2-4.3c-2.3-3.3-9.5,1.3-11.9,2.8c-2.2,1.4-4.2,3.2-6,5.2c-0.9,1-3.3,5.1-4.5,5.4
			c0.9-0.2,1.9-0.3,2.8-0.2c-1.4,2-3.3,4.4-3.2,7c0.6-0.1,1.3,0,1.9-0.1c0,2.8-0.5,6-0.9,8.8c0.3-0.2,0.8-0.2,1.1-0.4
			c1.4,1.5,1,3.3,3.1,3.9c1.6,0.5,3.3,0.3,4.3,2c1.5-1.3,2.1,0,3.5-0.2c1.3-0.2,2.2-1.6,2.7-2.6c1.8-3.3,1.8-7.1,1.6-11
			c-0.1-3.9-0.3-7.6,2.1-11C51.2,99.1,52.8,97,53.6,95z"/>
		<path class="st3" d="M47.8,105.6c0.3-0.4,0.7-0.8,1.2-1.2c2.3-2.1,5-3.3,7.9-4.2c6.3-1.8,12.6-2.5,19.3-2.2
			c7.7,0.4,15.1,3.9,16.7,12.3c1,5.6-4.1,11.3-7.8,14.6c0.1-0.6-0.2-1.2-0.3-1.8c-1.1,0.4-1.7,1.5-2.7,1.9c-0.3-0.2-0.3-0.4-0.3-0.7
			c-1.3,0.7-2.3,2.1-3.7,2.8c0.1-0.1-0.3-1.4-0.3-1.5c-1.5,0.7-3.1,2.3-4.9,2.3c-0.4-0.8-0.8-1.7-1.1-2.6c-0.9,0.7-1.5,1.8-2,2.8
			c-1.2-1.2-2.9-2.6-4.5-3c-0.1,1,0,2.1,0.1,3c-1.3-1-3-2.5-4.3-3.2c0,0.8,0,1.7-0.2,2.4c-2.3-0.9-3.3-5.1-5-1.4
			c-0.5-0.3-2.9-3.1-2.8-3.7c-0.1,0.3-0.4,0.8-0.4,1.2c-1.6-3.1-4.3-5-5.7-8.3C45.2,111,45.2,108.5,47.8,105.6z"/>
		<path class="st7" d="M93.5,111c0-1,0-2-0.1-3c-0.6-5-0.4-10.3-4.2-13.6c0.5,0.1,1.2-0.1,1.7-0.1c-0.4-1.9-4.3-4.2-5.9-4.3
			c0.7-0.4,1.7-0.7,2.6-1.1c-2.9-2.3-7.1-2-10.5-2c0.3-0.3,1.4-1.9,1.7-1.9c-1,0-2,0.1-3,0.3c-0.7,0.2-1.5,0.2-2.2,0.5
			c-0.4,0.1-0.7,0.4-1.1,0.4c0.7-0.9,1.1-1.8,2.1-2.4c-1-0.4-2.6,0.3-3.6,0.6c-1.4,0.5-2.4,1.4-3.5,2.2c-1.8-1.5-3.8-2.1-6.2-2
			c0.6,0.7,1,1.2,1.3,2.1c-1.2-0.2-2.3-1-3.5-1.2c-1.2-0.2-2.6-0.1-3.6,0.6c0.3,0.2,0.6,0.7,0.9,0.9c-1.5,0.4-4.4,1.4-5.5,2.6
			c0.4,0.1,0.6,0.3,1.1,0.3c-1.9,0.6-3.9,2.1-4.5,4.3c0.4-0.3,0.9-0.4,1.3-0.7c-2.7,2-2.8,7.7-3.1,10.8c-0.2,2.2-0.2,4.5,0,6.8H93.5
			z"/>
		<path class="st3" d="M88.4,118.1c-8.3,0.5-19.8-6.5-15.7-16.1c1-2.3,3.9-5.8,6.4-6.5c-0.3,0.8-0.8,1.5-1.3,2.1
			c1.9-1.2,7.5-2.5,9.5-1.4c-0.5,0.1-1.1,0.3-1.6,0.4c2.8,0.4,5.6,2.4,7.6,4.1c-0.8,0.3-1.6,0.2-2.3-0.1c3.1,3,4.3,5.2,4.1,9.7
			c-0.4-0.2-1.1-0.2-1.5-0.5c0.4,1.5,1,4.3,0.2,5.7C92.9,117.1,90,118,88.4,118.1z"/>
		<path class="st3" d="M49.9,118.1c8.3,0.5,19.8-6.5,15.7-16.1c-1-2.3-3.9-5.8-6.4-6.5c0.3,0.8,0.8,1.5,1.3,2.1
			c-1.9-1.2-7.5-2.5-9.5-1.4c0.5,0.1,1.1,0.3,1.6,0.4c-2.8,0.4-5.6,2.4-7.6,4.1c0.8,0.3,1.6,0.2,2.3-0.1c-3.1,3-4.3,5.2-4.1,9.7
			c0.4-0.2,1.1-0.2,1.5-0.5c-0.4,1.5-1,4.3-0.2,5.7C45.4,117.1,48.3,118,49.9,118.1z"/>
		<path d="M87.1,103.4c0,2.8-2.3,5-5.2,5c-2.9,0-5.2-2.3-5.2-5c0-2.8,2.3-5,5.2-5C84.7,98.4,87.1,100.7,87.1,103.4z"/>
		<path d="M62.5,102.8c0,2.8-2.3,5-5.2,5c-2.9,0-5.2-2.3-5.2-5c0-2.8,2.3-5,5.2-5C60.2,97.8,62.5,100.1,62.5,102.8z"/>
		<path class="st7" d="M81,99.9c0.5,0.5,0.3,1.5-0.4,2.3c-0.8,0.8-1.8,1-2.3,0.5c-0.5-0.5-0.3-1.5,0.4-2.3
			C79.4,99.6,80.4,99.4,81,99.9z"/>
		<path d="M74,117.4c-3.2-2.9-7.9-2.8-10.7,0.8c-0.8,1.1-1.6,2.5-0.2,3.6c1.7,1.3,4.6-0.5,6.2-1.2C71.9,124.2,78.4,121.5,74,117.4z"
			/>
		<path class="st7" d="M54.1,123.9c6-0.4,14.1-1,15.8-8.2c0.3-1.5,0.3-3.1-0.2-4.5c-0.2-0.6-2.3-2.7-2.3-2.8c0,0.5-0.4,1.1-0.4,1.6
			c-1.6-1.6-2.3-2.6-5-2.9c0.2,0.4,0.2,1.1,0.3,1.5c-2.4-0.9-6.2-0.3-8.6,0.3c0.4,0.1,1.1,0.6,1.5,0.9c-2,0.7-5.8,1.1-7,3
			c0.8-0.1,1.7-0.2,2.5-0.3c-1.1,1-2.4,1.8-3.3,3.1c-0.7,1-0.8,2.1-1.5,2.9c1,0,1.4,0.8,1.2,1.8c1,0.1,4.5,1,2.7,2.3
			C51,122.5,53.6,123.3,54.1,123.9C54,123.9,54,123.9,54.1,123.9z"/>
		<path class="st7" d="M84.5,123.9c-6-0.4-14.1-1-15.8-8.2c-0.3-1.5-0.3-3.1,0.2-4.5c0.2-0.6,2.3-2.7,2.3-2.8c0,0.5,0.4,1.1,0.4,1.6
			c1.6-1.6,2.3-2.6,5-2.9c-0.2,0.4-0.2,1.1-0.3,1.5c2.4-0.9,6.2-0.3,8.6,0.3c-0.4,0.1-1.1,0.6-1.5,0.9c2,0.7,5.8,1.1,7,3
			c-0.8-0.1-1.7-0.2-2.5-0.3c1.1,1,2.4,1.8,3.3,3.1c0.7,1,0.8,2.1,1.5,2.9c-1,0-1.4,0.8-1.2,1.8c-1,0.1-4.5,1-2.7,2.3
			C87.5,122.5,85,123.3,84.5,123.9C84.6,123.9,84.6,123.9,84.5,123.9z"/>
		<path d="M73.3,108.6c1.1,4-7.6,4.2-8.2,0.5c-0.3-2,2.8-2.3,4.3-2.3C70.9,106.9,72.9,107,73.3,108.6z"/>
		<path class="st7" d="M56.4,99.8c0.5,0.5,0.3,1.5-0.4,2.3c-0.8,0.8-1.8,1-2.3,0.5c-0.5-0.5-0.3-1.5,0.4-2.3
			C54.9,99.5,55.9,99.3,56.4,99.8z"/>
	</g>
</g>
<g>
	<g>
		<path class="st1" d="M213.7,148.9c0,4.4-15.9,8-35.5,8c-19.6,0-35.5-3.6-35.5-8c0-4.4,15.9-8,35.5-8
			C197.8,140.9,213.7,144.5,213.7,148.9z"/>
		<g>
			<path class="st8" d="M197.1,129.1c-2.2,1.9-4.8,3.5-5.1,0.6c-0.2-1.7,2.2-2.5,3.3-3.2c2-1.4,3.7-3.4,4.9-5.5
				c0.8-1.4,1.4-2.9,1.9-4.4c0.3-1.1,0.5-3.1,1.5-3.8c2.6-2,1,6.2,0.7,6.8c-1,2.4-2.2,4.5-3.9,6.3
				C200,126.3,198.6,127.8,197.1,129.1z"/>
			<path class="st9" d="M203.6,112.7c-1,0.7-1.2,2.7-1.5,3.8c-0.4,1.2-0.8,2.3-1.4,3.4c1,0.2,1.9,0.9,2.8,1.5
				c0.3-0.6,0.6-1.3,0.9-1.9C204.6,118.9,206.3,110.7,203.6,112.7z"/>
		</g>
		<g>
			<g>
				<g>
					<path class="st8" d="M207.1,145.2c-1.2-1.1-2.9-0.7-4.4-1.2c0,0,0.1,0,0.1-0.1c2.6-2.6,6.3-7.5,3.8-11
						c-5.3-7.5-15.2-3-20.4,3.1c-2.4,2.8-2.2,7.5,0.3,9.9c2.1,2.1,5.2,3,8.2,3.5c0.6,0.1,1.3,0.2,1.9,0.3c3.1,0.5,7.8,1.7,10.6-0.8
						C208.3,147.9,208.2,146.2,207.1,145.2z"/>
				</g>
			</g>
		</g>
		<g>
			<g>
				<g>
					<path class="st8" d="M150.1,145.5c1.2-1.1,2.9-0.7,4.4-1.2c0,0-0.1,0-0.1-0.1c-2.6-2.6-6.3-7.5-3.8-11c5.3-7.5,15.2-3,20.4,3.1
						c2.4,2.8,2.2,7.5-0.3,9.9c-2.1,2.1-5.2,3-8.2,3.5c-0.6,0.1-1.3,0.2-1.9,0.3c-3.1,0.5-7.8,1.7-10.6-0.8
						C149,148.3,149.1,146.5,150.1,145.5z"/>
				</g>
			</g>
		</g>
		<path class="st10" d="M196.1,139.7c-0.2,0.6-0.4,1.2-0.6,1.7c-0.4,1-1,2-1.7,2.9c-0.5,0.7-1.1,1.5-1.8,2.1
			c-1.6,1.4-5.1,1.7-7.2,1.9c-3,0.4-6.1,0.4-9.1,0.6c-1.8,0.1-3.9,0.3-5.6-0.1c-1.5-0.3-2.6-1.4-3.7-2.2c-0.7-0.6-1.5-1.2-2.2-1.8
			c-1.2-1.3-1.6-2.9-2.3-4.5c-1.1-2.6-1.6-5.1-2.2-7.9c-0.5-2.6-0.1-5.1,0-7.7c0.1-2.3,1.1-4.8,2.1-7c0.6-1.3,1.2-2,2.3-3
			c3.9-3.6,8.5-6.8,14.4-7.1c6.5-0.3,14,1.8,16.4,7.7c0.5,1.1,1,2.2,1.4,3.4c0.7,2,1.4,4.2,1.7,6.3c0.6,4.2,0.5,8.3-1.1,12.3
			C196.7,138.1,196.4,138.9,196.1,139.7z"/>
		<g>
			<path class="st9" d="M198.2,124.9c-0.3-2.1-1.1-4.1-1.8-6.2c-0.3-0.8-0.6-1.6-1-2.4c-0.7,0.8-0.9,2.2-0.6,3.2
				c0.4,1.3,0.2,2.2-0.2,3.5c-0.6,1.9-0.3,3.2,0.5,5c0.6,1.2,1.8,2.7,3.2,2.6C198.5,128.8,198.5,126.8,198.2,124.9z"/>
			<path class="st9" d="M162.4,128c0.8-1.8,1.1-3.1,0.5-5c-0.4-1.4-0.6-2.3-0.2-3.5c0.3-0.8,0.1-1.9-0.3-2.7
				c-0.2,0.3-0.3,0.6-0.5,0.9c-1,2.1-2,4.6-2.1,7c-0.1,2.1-0.4,4-0.2,6C160.8,130.5,161.9,129.1,162.4,128z"/>
		</g>
		<path class="st11" d="M162.9,110.6c-0.8,1.7-0.9,4.8,0,6.5c0.8,1.6,2.3,3,3.6,4.1c3,2.2,6.7,3.3,10.3,3.5
			c5.3,0.3,10.8,0.3,15.1-3.4c2.1-1.8,4-3.7,4.3-6.8c1-8.1-6-9.9-11.9-11.1c-5.6-1.1-14.2-1.9-18.4,3.3
			C164.9,107.8,163.5,109.2,162.9,110.6z"/>
		<path class="st8" d="M189.3,146.3c-0.1,0-0.1,0.1-0.2,0.1c-3,2.2-9,2.9-12.9,2.8c-2.9-0.1-7.3-1.1-8.9-3.1
			c-1.8-2.2-0.8-5.9-0.8-8.4c0-1.7-1.2-6.6,2.3-7.2c1.1-0.2,1.9,0.4,2.9,0.8c2.5,0.9,5.4,1,8.2,0.8c1.5-0.1,3-0.1,4.4-0.5
			c1.3-0.3,2.4-1.1,3.8-1.4c4.2-0.7,4.6,3.5,4.9,5.7C193.3,139.5,192.8,143.7,189.3,146.3z"/>
		<g>
			<path class="st10" d="M187.5,130.9c0,0,3.9,7.6-2.1,17.1l8.7,1.3c0,0,9-12.8-0.1-22.7c0,0-1.4-2-5.1-0.4
				C185.3,127.8,187.5,130.9,187.5,130.9z"/>
			<g>
				<g>
					<g>
						<path class="st10" d="M182.8,147.7c-0.6,2.8,2.4,5.4,6.8,5.9c4.3,0.5,8.3-1.4,8.9-4.1c0.6-2.8-2.4-5.4-6.8-5.9
							C187.4,143,183.4,144.9,182.8,147.7z"/>
					</g>
				</g>
			</g>
		</g>
		<g>
			<path class="st10" d="M170.9,131.1c0,0-3.9,7.6,2.1,17.1l-8.7,1.3c0,0-9-12.8,0.1-22.7c0,0,1.4-2,5.1-0.4
				C173.1,128.1,170.9,131.1,170.9,131.1z"/>
			<g>
				<g>
					<g>
						<path class="st10" d="M175.4,147.9c0.6,2.7-2.4,5.3-6.6,5.8c-4.2,0.5-8.1-1.3-8.7-4.1c-0.6-2.7,2.4-5.3,6.6-5.8
							C171,143.4,174.9,145.2,175.4,147.9z"/>
					</g>
				</g>
			</g>
		</g>
		<g>
			<path class="st12" d="M145.6,87.9c3-5.3,6.6-11.9,10.5-16.7c3.7-4.6,9-4.6,8,2.3c-0.7,4.9-3.8,8.7-5,13.4
				c-2.5,10-2.1,23.1,0.5,33c1.1,4.1,1,7.3-3.4,9.4c-1.9,0.9-7.2,2.9-9,2.3c-6.5-2.3-8.7-12.9-8.8-18.7
				C138.2,104.4,141.4,95.5,145.6,87.9z"/>
			<path class="st12" d="M212.2,88.1c-3.9-7-7.8-16.4-15.4-20.1c-1.9-0.9-3.3-1.7-3.7,0.8c-0.2,1.9,0.7,3.4,0.9,5.2
				c0.5,4.7,3.5,8.6,4.6,13.1c2.5,10,2.1,23.1-0.5,33c-1.1,4.1-1,7.3,3.4,9.4c1.9,0.9,7.2,2.9,9,2.3c6.5-2.3,8.7-12.9,8.8-18.7
				C219.6,104.6,216.4,95.7,212.2,88.1z"/>
			<path class="st9" d="M202.4,104c-0.3-6.4-2.9-12.3-3.9-18.4c-1-6.4-0.6-13.7-3.8-19.6c-3.5-6.5-9.7-8.4-16.1-8.2
				c-6.4-0.2-12.6,1.7-16.1,8.2c-3.2,5.9-2.7,13.2-3.8,19.6c-1,6.1-3.6,12-3.9,18.4c-0.6,10.6,11.9,14,20,12.9
				c1.3-0.2,2.6-0.1,3.8,0.1c1.3-0.2,2.6-0.2,3.8-0.1C190.5,117.9,203,114.5,202.4,104z"/>
			<path class="st8" d="M181.1,120.5c1.7,0.3,3.5,1,5.1,0.5c2.4-0.7,2.3-2.8,1.7-4.8c-1.5-4.8-7.5-5.1-11.4-3.4
				c-1.8,0.8-4.2,2.3-4.9,4.3c-0.7,1.9,0.9,3.8,2.9,4.1c1.6,0.2,3.2-0.7,4.8-0.9C179.9,120.3,180.5,120.3,181.1,120.5z"/>
			<path d="M182.5,113.2c-2-0.1-5.7-0.9-7.5,0.2c-2,1.2,0.7,3.5,2.1,3.9c2.2,0.6,4.9,0.4,6.8-1C186,114.6,184.9,113.3,182.5,113.2z"
				/>
			<path class="st10" d="M192.6,98.8c-1.9-3.5-4.7-6.4-6.8-9.8c-1.7-2.8-1.9-7.2-2.1-10.4c0-0.1,0-0.2,0-0.3
				c-0.2-3.4-0.1-18.4-3.9-20.4c-0.4,0-0.8,0-1.2,0c-0.2,0-0.5,0-0.7,0c-5.1,2.2-2.8,18.5-3.8,23.2c-0.7,3.4-1.2,6.7-3.6,9.3
				c-4,4.4-7.3,7.5-7.7,14.8c-0.2,3.4,0.1,7.7,1.6,10.9c0.7,1.4,1.6,2.5,2.7,3.3c3.9,2.5,6,0,8-2.4c1.7-2,3.3-4,5.9-2.7
				c1.2,0.6,2.1,1.8,3.1,2.9c1,1.2,2.1,2.2,3.4,2.4c2.9,0.4,4.8-1.3,5.9-3.8c0.7-1.5,1-3.2,1.2-4.9
				C195.2,106.7,194.6,102.4,192.6,98.8z"/>
			<path d="M179.5,97.8c3.2,0.4,9.8,3.9,5.8,8.2c-2.1,2.3-10.6,2.8-12.3-0.2C170.7,101.5,176.2,97.4,179.5,97.8z"/>
			<g>
				<path d="M163.1,81.5c0,3.6,1.7,6.5,3.7,6.5c2.1,0,3.7-2.9,3.7-6.5c0-3.6-1.7-6.5-3.7-6.5C164.8,75,163.1,77.9,163.1,81.5z"/>
				<path class="st13" d="M167,79.3c-0.5,1.1-1.5,1.7-2.3,1.4c-0.8-0.3-1-1.5-0.6-2.6c0.5-1.1,1.5-1.7,2.3-1.4
					C167.3,77.1,167.5,78.2,167,79.3z"/>
			</g>
			<g>
				<path d="M186.8,81.5c0,3.6,1.7,6.5,3.7,6.5c2.1,0,3.7-2.9,3.7-6.5c0-3.6-1.7-6.5-3.7-6.5C188.5,75,186.8,77.9,186.8,81.5z"/>
				<path class="st13" d="M190.7,79.3c-0.5,1.1-1.5,1.7-2.3,1.4s-1-1.5-0.6-2.6c0.5-1.1,1.5-1.7,2.3-1.4
					C191,77.1,191.2,78.2,190.7,79.3z"/>
			</g>
			<rect x="174.1" y="109.3" transform="matrix(8.806218e-03 -1 1 8.806218e-03 68.2663 288.2802)" width="10.9" height="0.8"/>
		</g>
	</g>
</g>
<g>
	<g>
		<path class="st1" d="M326.2,145.7c0,6.2-16.7,11.3-37.3,11.3c-20.6,0-37.3-5-37.3-11.3c0-6.2,16.7-11.3,37.3-11.3
			C309.4,134.4,326.2,139.5,326.2,145.7z"/>
		<g>
			<g>
				<g>
					<g>
						<path class="st14" d="M313.8,120.2c-1.6,1.6-2.4,3.6-4.1,5.1c-3.2,2.9-9.5,7.4-10.9,2.3c0,0,0-0.1,0-0.1
							c-0.8-3.5,2.5-6.5,5.4-8.6c3.5-2.5,7-4.8,10.4-7.3c0.9-0.7,1.9-1.4,2.8-2.2c0.4-0.3,1.8-2,2.3-1.9c1.6,0.4-0.1,5-0.6,5.8
							c-1.3,2.4-3,4.7-5.1,6.5C314,120,313.9,120.1,313.8,120.2z"/>
					</g>
				</g>
			</g>
		</g>
		<g>
			<path class="st15" d="M282.3,134.3c-0.3-4-2-8.2-5.1-11.4c-4.2-4.4-10.2-9.2-17.1-6c-4.3,2-5.3,4.9-4.8,8.6
				c0.3,2.6,1.7,6.1,3.5,8.3c1.3,1.5,4.9,3.1,3.9,5.2c-0.4,0.9-2.2,1.3-2.9,2c-1,1-1.5,2.3-1.5,3.7c0.1,2.9,2.8,3.1,5.8,3.1
				c4.7-0.1,9.3-0.7,13.2-2.9C282.2,142.1,282.7,139.2,282.3,134.3z"/>
			<path class="st16" d="M258.2,144.8c-0.1-1.3,0.4-2.7,1.5-3.7c0.7-0.7,2.5-1.1,2.9-2c0.7-1.5-0.9-2.7-2.3-3.8c0,0,0,0,0,0
				c1.1,0.4,2.2,0.5,3.4,0.4c2.1-0.3,4.6-0.4,6.5-1c0.7,2.1,2.2,3.8,2.6,6.2c0.3,2.2-0.2,4.4-1.4,6.1c-2.4,0.5-4.9,0.7-7.4,0.8
				C261,147.9,258.4,147.7,258.2,144.8z"/>
		</g>
		<path class="st15" d="M296.3,134.3c0.3-4,2-8.2,5.1-11.4c4.2-4.4,10.2-9.2,17.1-6c4.3,2,5.3,4.9,4.8,8.6c-0.3,2.6-1.7,6.1-3.5,8.3
			c-1.3,1.5-4.9,3.1-3.9,5.2c0.4,0.9,2.2,1.3,2.9,2c1,1,1.5,2.3,1.5,3.7c-0.1,2.9-2.8,3.1-5.8,3.1c-4.7-0.1-9.3-0.7-13.2-2.9
			C296.4,142.1,295.9,139.2,296.3,134.3z"/>
		<path class="st16" d="M320.3,144.8c0.1-1.3-0.4-2.7-1.5-3.7c-0.7-0.7-2.5-1.1-2.9-2c-0.7-1.5,0.9-2.7,2.3-3.8c0,0,0,0,0,0
			c-1.1,0.4-2.2,0.5-3.4,0.4c-2.1-0.3-4.6-0.4-6.5-1c-0.7,2.1-2.2,3.8-2.6,6.2c-0.3,2.2,0.2,4.4,1.4,6.1c2.4,0.5,4.9,0.7,7.4,0.8
			C317.6,147.9,320.2,147.7,320.3,144.8z"/>
		<g>
			<path class="st17" d="M313,99.1c-1.4-4.2-3.7-7.8-5.1-11.9c-1.7-5.1,0.5-10.5-1.1-15.6c-1.4-4.5-6.5-7.1-11-9.1
				c-2.3-1-4.5-1.6-6.8-1.9v0c0,0,0,0,0,0c0,0,0,0,0,0v0c-2.2,0.3-4.5,0.9-6.8,1.9c-4.4,2-9.5,4.7-11,9.1
				c-1.7,5.1,0.5,10.5-1.1,15.6c-1.4,4.3-3.9,8.1-5.2,12.4c-0.1,0.3-0.2,0.6-0.2,0.8C271.3,103.7,291.8,111.7,313,99.1z"/>
			<path class="st15" d="M313,99.1c-21.2,12.6-41.7,4.6-48.3,1.3c-3,11.1,1.5,21.1,4.7,31.7c1.6,5.3,5.2,10.1,11.1,12.5
				c2.5,1,5.5,1.4,8.6,1.4v0c0,0,0,0,0,0c0,0,0,0,0,0v0c3.1-0.1,6.1-0.4,8.6-1.4c5.8-2.4,9.5-7.2,11.1-12.5
				c3.3-10.9,7.9-21.1,4.5-32.5C313.1,99.4,313,99.3,313,99.1z"/>
			<path class="st13" d="M296.6,144.7c5.3-3.6,2.5-13.1,2.8-18.7c0.3-7.1-0.7-14.3,0.6-21.4c0.7-3.6,7.6-14.5-0.9-12.7
				c-4.2,0.9-8.6,1.1-12.9,0.6c-2.6-0.3-8.6-3.1-10.4-0.9c-1.9,2.4-0.7,4.2,0,6.9c1.1,4.3,3,11.4,3.2,15.8c0.2,5-0.1,10-0.6,14.9
				c-0.4,4.3-1.9,10.2,0.5,14.2"/>
			<path class="st16" d="M300.1,104.5c-8.3,2.1-16,1.7-22.3,0.4c0.7,3.1,1.1,6.3,1.3,9.5c0.2,5-0.1,10-0.6,14.9
				c-0.4,4.3-1.9,10.2,0.5,14.2c0.2,0.3,0.5,0.7,0.7,1c0.2,0.1,0.4,0.2,0.7,0.3c2.5,1,5.5,1.4,8.6,1.4v0c0,0,0,0,0,0c0,0,0,0,0,0v0
				c2.2-0.1,4.4-0.3,6.4-0.7c0.4-0.2,0.8-0.4,1.2-0.7c5.3-3.6,2.5-13.1,2.8-18.7c0.3-7.1-0.7-14.3,0.6-21.4
				C300,104.6,300,104.5,300.1,104.5z"/>
		</g>
		<g>
			<g>
				<g>
					<path class="st17" d="M296,100.2c4.8-5,12.5,0.5,12.7,5.3c0.3,7.9-2.6,16.1-3.4,24c-0.5,4.2-2,9.6-0.2,13.6
						c2.1,0.4,3.5,2.7,3.4,4.4c0,2.7-1.8,3.3-4.6,3.4c-6.4,0.2-9.6-0.3-10.2-5.8c-0.7-6.4-0.4-12.6,0.3-19
						c0.6-5.8,0.2-11.6,0.3-17.4C294.2,106.2,294,102.3,296,100.2z"/>
				</g>
			</g>
			<path class="st13" d="M305.5,127.3c-0.1,0-0.2-0.1-0.4-0.1c-3.6-0.8-4.6-2.7-4.7-6.5c-0.2-4.5,0.7-8.8,1.1-13.2
				c0.1-1.5,0.9-5.8,1-9c-2.3-0.8-4.5-0.5-6.5,1.7c-1.9,2-1.8,6-1.8,8.4c-0.1,5.8,0.3,11.6-0.3,17.4c-0.7,6.4-1,12.7-0.3,19
				c0.6,5.5,3.8,6,10.2,5.8c2.9-0.1,4.6-0.6,4.6-3.4c0-1.7-1.3-4-3.4-4.4c-1.7-4-0.2-9.4,0.2-13.6
				C305.3,128.7,305.4,128,305.5,127.3z"/>
		</g>
		<g>
			<g>
				<g>
					<path class="st17" d="M282.5,100.2c-4.8-5-12.5,0.5-12.7,5.3c-0.3,7.9,2.6,16.1,3.4,24c0.5,4.2,2,9.6,0.2,13.6
						c-2.1,0.4-3.5,2.7-3.4,4.4c0,2.7,1.8,3.3,4.6,3.4c6.4,0.2,9.6-0.3,10.2-5.8c0.7-6.4,0.4-12.6-0.3-19
						c-0.6-5.8-0.2-11.6-0.3-17.4C284.3,106.2,284.4,102.3,282.5,100.2z"/>
				</g>
			</g>
			<path class="st13" d="M273,127.3c0.1,0,0.2-0.1,0.4-0.1c3.6-0.8,4.6-2.7,4.7-6.5c0.2-4.5-0.7-8.8-1.1-13.2c-0.1-1.5-0.9-5.8-1-9
				c2.3-0.8,4.5-0.5,6.5,1.7c1.9,2,1.8,6,1.8,8.4c0.1,5.8-0.3,11.6,0.3,17.4c0.7,6.4,1,12.7,0.3,19c-0.6,5.5-3.8,6-10.2,5.8
				c-2.9-0.1-4.6-0.6-4.6-3.4c0-1.7,1.3-4,3.4-4.4c1.7-4,0.2-9.4-0.2-13.6C273.2,128.7,273.1,128,273,127.3z"/>
		</g>
		<g>
			<path class="st18" d="M308.8,85.7c0,5.8-9,10.6-20.1,10.6c-11.1,0-20.1-4.7-20.1-10.6c0-5.8,9-10.6,20.1-10.6
				C299.8,75.1,308.8,79.8,308.8,85.7z"/>
			<g>
				<path class="st19" d="M312.6,50c-1.3-3.1-2.6-6.2-4.6-9.3c-1.5-2.3-4.3-3.6-5.7-5.7c-1.2-1.7-1.1-0.7-0.2-2.5
					c1.2-2.3,4.5-3.9,6.8-4.8c7.1-2.9,14.7-0.6,20,4.5c0.8,0.8,7.9,8.8,7.2,9.3c-2,1.5-5.1,0.9-7.4,0.3c-3.9-0.9-4.6,2.5-7.2,4.8
					c-0.9,0.8-7.3,6.8-7.4,6.7C313.6,52.2,313.1,51.1,312.6,50z"/>
				<path class="st20" d="M328.2,41.7c-1.6-1.2-3.8-1.9-5.3-2.7c-1.9-1-3.3-2.6-5.2-3.6c-4.5-2.4-9.3,0.7-9.1,5.9c0,0.2,0,0.3,0,0.5
					c1.4,2.3,2.4,4.5,3.4,6.8c1.1,1.4,2.4,2.6,3.6,3.5c2-1.8,5.4-4.9,6-5.5C323.9,44.4,324.7,41.2,328.2,41.7z"/>
				<path class="st19" d="M262.4,50c1.3-3.1,2.6-6.2,4.6-9.3c1.5-2.3,4.3-3.6,5.7-5.7c1.2-1.7,1.1-0.7,0.2-2.5
					c-1.2-2.3-4.5-3.9-6.8-4.8c-7.1-2.9-14.7-0.6-20,4.5c-0.8,0.8-7.9,8.8-7.2,9.3c2,1.5,5.1,0.9,7.4,0.3c3.9-0.9,4.6,2.5,7.2,4.8
					c0.9,0.8,7.3,6.8,7.4,6.7C261.5,52.2,262,51.1,262.4,50z"/>
				<path class="st20" d="M246.9,41.7c1.6-1.2,3.8-1.9,5.3-2.7c1.9-1,3.3-2.6,5.2-3.6c4.5-2.4,9.3,0.7,9.1,5.9c0,0.2,0,0.3,0,0.5
					c-1.4,2.3-2.4,4.5-3.4,6.8c-1.1,1.4-2.4,2.6-3.6,3.5c-2-1.8-5.4-4.9-6-5.5C251.1,44.4,250.3,41.2,246.9,41.7z"/>
				<path class="st17" d="M314.8,43.6c-2.4-5.2-6.6-11.4-12.1-12.6c-4.4-1-9.1,0.8-13.7,0.6v0c-0.1,0-0.3,0-0.4,0
					c-0.1,0-0.3,0-0.4,0v0c-4.6,0.2-9.4-1.6-13.7-0.6c-5.4,1.2-9.6,7.4-12.1,12.6c-5.2,11.1,1.7,30.2,7.6,39.7
					c3.9,6.2,11.5,8,18.2,8.7V92c0.1,0,0.3,0,0.4,0c0.1,0,0.3,0,0.4,0V92c6.7-0.6,15.5-3,19.3-9.2C314.2,73.3,320,54.7,314.8,43.6z"
					/>
				<path class="st21" d="M287.2,68.3c1.1-5.9,3.6-13.8-2.5-18c-3.4-2.4-9.5-3.3-13.3-1.4c-5.2,2.5-5.7,10.4-3.2,14.9
					c1.7,3.1,4,5.7,5.4,9c1.1,2.6,1.5,8.6,5,9.1C285.2,82.7,286.3,72.7,287.2,68.3z"/>
				<path class="st21" d="M290.7,68.3c-1.2-5.9-3.6-13.8,2.5-18c3.4-2.4,9.5-3.3,13.3-1.4c5.2,2.5,5.7,10.4,3.2,14.9
					c-1.7,3.1-4,5.7-5.4,9c-1.1,2.6-1.5,8.6-5,9.1C292.7,82.7,291.5,72.7,290.7,68.3z"/>
				<path class="st13" d="M301.2,73.1c-0.5-0.2-2.2-4.3-3.1-5.2c-2.3-2.1-5.1-3.3-6.6-6.2c-1.8-3.4,0.2-7,0.8-10.5
					c-1.1,0.1-1.9,1.4-3,1.4c-0.8,0-2-0.9-2.8-1.2c0.5,3.1,1.6,4.8,0.8,8.1c-1,4.1-4.5,6.2-7.4,8.9c-1.4,1.3-5.8,5.3-1.6,6
					c1.2,0.2,4.8-1.7,6.2-2.1c2-0.5,3.9-1,5.9-1.1C294,71.2,297.7,71.8,301.2,73.1z"/>
				<g>
					<path class="st13" d="M290.8,80.5c-3.2-0.7-14,1.9-11.2,7.4c1.3,2.5,7.6,2.1,9.8,1.9c3-0.2,7.5,1.4,8.8-2.5
						C299.5,83.8,293.6,81.1,290.8,80.5z"/>
					<path d="M295.5,83.1c-3.3-1.8-7.5-1.4-11-0.2c-1.3,0.5-2.1,2.1-0.4,2.8c1.5,0.6,3.2-0.8,4.6-1.2c1.5-0.5,3.2,0.5,4.7,0.8
						C295.2,85.6,298.1,84.6,295.5,83.1z"/>
					<path class="st21" d="M305.9,80.6c-0.2-0.9-0.5-1.9-0.8-2.7c-3.8-11.3-13-15.2-22.4-11.6c-3.4,1.3-6.9,4.4-8.5,8.3
						c-1.7,3.9-3.4,11.6-0.6,15.4c3.9,5.1,6.8,0.9,9.1-3c3-5,10.3-6.1,13.6-1.1c1.1,1.7,1.2,4.6,2.8,5.7c2,1.4,5.3-0.7,6.4-2.7
						C306.9,86.6,306.6,83.4,305.9,80.6z"/>
					<path d="M296.5,71.6c2.3,7.7-15.6,8.8-13.3-0.6c0.7-2.9,4.6-2.4,7-2.3C292.9,68.9,295.7,68.9,296.5,71.6z"/>
					<g>
						<path d="M271.7,58.4c0,3.8,1.8,6.9,3.9,6.9c2.2,0,3.9-3.1,3.9-6.9c0-3.8-1.8-6.9-3.9-6.9C273.4,51.5,271.7,54.6,271.7,58.4z"
							/>
						<path class="st13" d="M275.8,56.1c-0.5,1.2-1.6,1.8-2.4,1.5c-0.8-0.3-1.1-1.6-0.6-2.7c0.5-1.2,1.6-1.8,2.4-1.5
							C276,53.7,276.3,54.9,275.8,56.1z"/>
					</g>
					<g>
						<path d="M298.5,58.4c0,3.8,1.8,6.9,3.9,6.9c2.2,0,3.9-3.1,3.9-6.9c0-3.8-1.8-6.9-3.9-6.9C300.3,51.5,298.5,54.6,298.5,58.4z"
							/>
						<path class="st13" d="M302.6,56.1c-0.5,1.2-1.6,1.8-2.4,1.5c-0.8-0.3-1.1-1.6-0.6-2.7c0.5-1.2,1.6-1.8,2.4-1.5
							C302.8,53.7,303.1,54.9,302.6,56.1z"/>
					</g>
					<path d="M289.9,84.2c-0.3,0-0.6-0.3-0.6-0.6v-7.2c0-0.3,0.3-0.6,0.6-0.6s0.6,0.3,0.6,0.6v7.2C290.4,83.9,290.2,84.2,289.9,84.2
						z"/>
				</g>
			</g>
		</g>
	</g>
</g>
<g>
	<path class="st22" d="M413.3,122.6c-0.8-0.6-1.7-1-2.7-1c-1.2,0-2.4,0.5-3.4,1.2c-3.2,2.1-5.3,6-5.8,9.6c-0.7,5.3,10.6-0.9,12-2.5
		c1.2-1.5,1.9-3.5,1.4-5.3C414.4,123.8,413.9,123.1,413.3,122.6z"/>
	<g>
		<path class="st1" d="M418.1,146.9c0,5.5-12.8,10-28.5,10c-15.7,0-28.5-4.5-28.5-10c0-5.5,12.8-10,28.5-10
			C405.3,136.9,418.1,141.4,418.1,146.9z"/>
		<path class="st23" d="M372.3,149.3c2.5-0.5,5.3-1.1,7.1-3.3c1.7-2.1,1.9-6.1,0.1-8.5c-3.7-5.3-10.7-9.2-14.4-2.7
			c-1.7,3,0.9,7.3,2.8,9.5c-1,0.4-2.2,0-3.1,1c-0.7,0.9-0.8,2.4,0,3.3C366.8,150.8,370.1,149.8,372.3,149.3z"/>
		<path class="st23" d="M405.2,148.5c-2.5-0.4-5.4-1-7.2-3.1c-1.8-2.1-2-6.1-0.3-8.7c3.6-5.5,10.5-9.7,14.4-3.3
			c1.8,3-0.8,7.5-2.6,9.8c1,0.4,2.2-0.1,3.1,0.9c0.8,0.8,0.9,2.4,0.1,3.3C410.7,149.8,407.4,148.8,405.2,148.5z"/>
		<path class="st23" d="M399.5,119.4c-2.6-5.4-10-5.4-14-4.1c-3.2,1-6.2,2.4-8,6.5c-1,2.4-1.2,4.8-0.6,7.4c0.3,1.4,0.9,2.7,1.2,4.1
			c0.3,1.1,0.2,1.7,0.3,2.8c0.3,3.4,1.2,7.7,2.9,10.2c0.4,0.6,1,1.1,2.6,1.3c2.9,0.3,8.6,0.3,11.5,0.2c1.6-1.7,2.7-4.4,3.8-6.7
			C401.9,135.2,402.8,126.1,399.5,119.4z"/>
		<path class="st13" d="M400.2,126.3c0,3-5.5,5.4-12.2,5.4c-6.7,0-12.2-2.4-12.2-5.4c0-3,5.5-5.4,12.2-5.4
			C394.8,120.9,400.2,123.3,400.2,126.3z"/>
		<g>
			<path class="st13" d="M396.5,123.9c0,0,3.7,10.7-2,24l8.2,1.9c0,0,6.8-16.5-1.7-30.3L396.5,123.9z"/>
			<g>
				<g>
					<g>
						<path class="st13" d="M392.5,149.2c-0.5,2.3,1.7,4.3,4.9,4.7c3.2,0.3,6.2-1.2,6.7-3.5c0.5-2.2-1.7-4.3-4.9-4.7
							C396,145.4,393,147,392.5,149.2z"/>
					</g>
				</g>
			</g>
		</g>
		<g>
			<path class="st13" d="M381.4,123.9c0,0-3.7,10.7,2,24l-8.2,1.9c0,0-6.8-16.5,1.7-30.3L381.4,123.9z"/>
			<g>
				<g>
					<g>
						<path class="st13" d="M385.4,149.2c0.5,2.3-1.7,4.3-4.9,4.7c-3.2,0.3-6.2-1.2-6.7-3.5c-0.5-2.2,1.7-4.3,4.9-4.7
							C381.9,145.4,384.9,147,385.4,149.2z"/>
					</g>
				</g>
			</g>
		</g>
	</g>
	<g>
		<path class="st24" d="M375.7,115.7c-0.7,1.5-0.7,4.1,0,5.5c0.7,1.4,1.9,2.6,3.1,3.4c2.5,1.9,5.7,2.8,8.7,2.9
			c4.5,0.2,9.1,0.2,12.7-2.9c1.8-1.5,3.3-3.1,3.7-5.7c0.8-6.8-5.1-8.4-10.1-9.4c-4.7-0.9-12-1.6-15.6,2.8
			C377.4,113.3,376.3,114.5,375.7,115.7z"/>
	</g>
	<g>
		<path class="st13" d="M415.1,89.7c-0.5-1.8-1.2-3.7-2.5-5c-1.4-1.4-3.3-1.9-5.1-2.3c-5.9-1.2-11.9-1.3-17.9-1.2
			c-6-0.1-12,0-17.9,1.2c-1.8,0.4-3.7,0.9-5.1,2.3c-1.3,1.3-2,3.1-2.5,5c-1.7,6.6-1.1,14,1.8,20.1c2.9,6.1,8.1,10.8,14.1,12.7
			c1.9,0.6,3.9,0.9,5.9,1.1c2.2,0.3,5.1,0.3,7.4,0c2-0.2,4-0.5,5.9-1.1c6-1.8,11.2-6.6,14.1-12.7C416.2,103.7,416.8,96.3,415.1,89.7
			z"/>
		<g>
			<g>
				<ellipse cx="374.3" cy="101.1" rx="5" ry="4.9"/>
				<path class="st25" d="M374.1,98.5c0.6,0.9,0.3,2.1-0.7,2.8c-1,0.7-2.3,0.6-2.9-0.3c-0.6-0.9-0.3-2.1,0.7-2.8
					C372.2,97.6,373.5,97.7,374.1,98.5z"/>
			</g>
			<g>
				<path d="M409.9,101.1c0,2.7-2.2,4.9-5,4.9s-5-2.2-5-4.9s2.2-4.9,5-4.9S409.9,98.5,409.9,101.1z"/>
				<path class="st25" d="M404.7,98.5c0.6,0.9,0.3,2.1-0.7,2.8c-1,0.7-2.3,0.6-2.9-0.3c-0.6-0.9-0.3-2.1,0.7-2.8
					C402.8,97.6,404.1,97.7,404.7,98.5z"/>
			</g>
		</g>
		<g>
			<path d="M394.1,106.1c-2-1-6.2-0.8-7.4-0.5c-1.5,0.3-4.4,0.9-3.1,3.2c0.9,1.6,3.6,3.1,5.6,3c2,0.1,4.7-1.3,5.6-3
				C395.6,107.4,395.1,106.6,394.1,106.1z"/>
			<g>
				<path d="M389.5,116.5C389.5,116.5,389.5,116.5,389.5,116.5c-0.5,0-0.8-0.4-0.7-0.8c0.1-1.2,0.1-2.2,0.1-3.2c0-0.8,0-1.7,0.1-2.7
					c-0.1-0.1-0.2-0.3-0.2-0.5c0-0.4,0.3-0.7,0.7-0.7h0.2c0.2,0,0.4,0.1,0.5,0.2c0.1,0.1,0.2,0.3,0.2,0.6c-0.1,1.2-0.1,2.2-0.1,3.2
					c0,1,0,2-0.1,3.3C390.2,116.2,389.9,116.5,389.5,116.5z"/>
				<path d="M393.8,118.2c-1.7,0-3.4-0.6-4.7-1.8c-0.3-0.3-0.3-0.7-0.1-1c0.3-0.3,0.7-0.3,1-0.1c2.3,2.1,5.9,1.9,8.4-0.5
					c0.3-0.3,0.8-0.3,1,0c0.3,0.3,0.3,0.8,0,1C397.8,117.4,395.8,118.2,393.8,118.2z"/>
				<path d="M385.4,118.2c-2,0-4-0.8-5.6-2.4c-0.3-0.3-0.3-0.7,0-1c0.3-0.3,0.7-0.3,1,0c2.5,2.4,6,2.6,8.4,0.5
					c0.3-0.3,0.8-0.2,1,0.1c0.3,0.3,0.2,0.8-0.1,1C388.8,117.6,387.1,118.2,385.4,118.2z"/>
			</g>
		</g>
		<g>
			<g>
				<path class="st13" d="M415.6,89.6c-3.7,1.7-9.4,1.5-12.4-1.8c-4.7-5.2,0.9-14.8,5.6-17.7c2.9-1.8,6.5-2.5,9.7-1.3
					c4.1,1.6,6.6,6.7,5.5,11.1c-0.4,1.7-1.3,3.2-2.3,4.5C420.1,86.6,418.1,88.5,415.6,89.6z"/>
				<g>
					<path class="st26" d="M418.7,74.3c-1.3-0.9-2.9-0.9-4.4-0.5c-0.9,0.2-1.7,0.5-2.5,0.9c-2,1.1-3.5,3-4.9,4.9
						c-0.6,0.8-1.2,1.8-1.5,2.8c2.1,0.3,4.3,0.7,6.1,1.9c0.7,0.5,1.4,1.1,2,1.8c0.2,0.2,0.3,0.4,0.5,0.6c1.8-0.9,3.5-2.4,4.7-4.1
						c0.9-1.2,1.5-2.7,1.6-4.2C420.4,76.9,419.9,75.2,418.7,74.3z"/>
				</g>
			</g>
			<g>
				<path class="st13" d="M363.6,89.6c3.7,1.7,9.4,1.5,12.4-1.8c4.7-5.2-0.9-14.8-5.6-17.7c-2.9-1.8-6.5-2.5-9.7-1.3
					c-4.1,1.6-6.6,6.7-5.5,11.1c0.4,1.7,1.3,3.2,2.3,4.5C359,86.6,361.1,88.5,363.6,89.6z"/>
				<g>
					<path class="st26" d="M360.5,74.3c1.3-0.9,2.9-0.9,4.4-0.5c0.9,0.2,1.7,0.5,2.5,0.9c2,1.1,3.5,3,4.9,4.9
						c0.6,0.8,1.2,1.8,1.5,2.8c-2.1,0.3-4.3,0.7-6.1,1.9c-0.7,0.5-1.4,1.1-2,1.8c-0.2,0.2-0.3,0.4-0.5,0.6c-1.8-0.9-3.5-2.4-4.7-4.1
						c-0.9-1.2-1.5-2.7-1.6-4.2C358.8,76.9,359.3,75.2,360.5,74.3z"/>
				</g>
			</g>
		</g>
	</g>
</g>
</svg>
