<?xml version="1.0" encoding="utf-8"?>
<!-- Generator: Adobe Illustrator 24.2.3, SVG Export Plug-In . SVG Version: 6.00 Build 0)  -->
<svg version="1.1" id="Layer_1" xmlns="http://www.w3.org/2000/svg" xmlns:xlink="http://www.w3.org/1999/xlink" x="0px" y="0px"
	 viewBox="0 0 458 186" style="enable-background:new 0 0 458 186;" xml:space="preserve">
<style type="text/css">
	.st0{fill:#8C5522;}
	.st1{opacity:0.3;}
	.st2{fill:#B27436;}
	.st3{fill:#C68947;}
	.st4{fill:#F2BB79;}
	.st5{fill:#FFFFFF;}
	.st6{fill:#552D0A;}
	.st7{fill:#7F4721;}
	.st8{fill:#E1D6D0;}
	.st9{fill:#9E938F;}
	.st10{fill:#A0693F;}
	.st11{fill:#2E3192;}
	.st12{fill:#F4EFEC;}
	.st13{fill:#DBB086;}
	.st14{fill:#AD7D4D;}
	.st15{fill:#BCAFAA;}
	.st16{fill:#262324;}
	.st17{fill:#3D393A;}
	.st18{fill:#F7941D;}
	.st19{fill:#D3ACA3;}
	.st20{fill:#492B20;}
	.st21{fill:#6B4738;}
	.st22{fill:#00AEEF;}
	.st23{fill:#282525;}
	.st24{fill:#E5CDC6;}
</style>
<g>
	<path class="st0" d="M301,123.9c-0.6,0.2-1.2,0.4-1.8,0.6c-4.9,1.8-11.2,2.5-15-1.8c-5-5.6,1.4-10,6.4-12c2.6-1,5.8-0.8,8.3-2.1
		c0.6-0.3,3.9-3.6,3.6-3.5c-1.1,0.2-2.6-0.4-3.6-0.2c0.7-0.8,1.1-2.3,1.8-3.1c-2.1-0.3-4,0.8-5.9,1.7c-0.2-0.2-0.3-0.3-0.5-0.5
		c0.6-1.1,0.5-2.4,0.9-3.5c-0.4,0.9-5.1,3-6.2,3.8c0.2-1.3,0.1-3.2,0.3-4.4c-1.1,0.3-2.5,0.7-3.5,1.3c0.6-2.6,3-5,5.4-6.4
		c-1.9-0.1-4,0-5.8-0.5c3.9-2.4,7.7-4.3,12.4-4.3c-0.7-0.5-1.9-1.8-2.7-2.2c3.5-0.4,7,1,10.5,0.7c-0.3-0.6-0.3-1.7-0.7-2.4
		c2.2-0.2,10.2,3.8,9.7,6.2c0.3-1.3,0.9-2.6,0.7-4.1c1.7,3.2,2.9,6.6,2.8,10.7c0.9-1.1,2.3-2.2,3.6-2.7c-0.5,3.2-0.3,7.1-2.3,10.1
		c1-1,2.6-1.7,3.7-2.1c-0.5,2.7-2.9,6.5-4.7,7.4c1.2-0.4,2.4-0.4,3.6-0.5c-1.6,1.8-4.7,4.1-6,4.7c0.6,0,1.4,0.2,1.9,0.1
		c-2.1,1.9-5.6,3.4-8.2,4.6c1.8-0.3,2.8,0.3,4,0.8C309.2,121.4,305.2,122.4,301,123.9z"/>
	<path class="st1" d="M317.7,142c0,5.9-19.7,10.7-44,10.7c-24.3,0-44-4.8-44-10.7c0-5.9,19.7-10.7,44-10.7
		C298,131.3,317.7,136.1,317.7,142z"/>
	<g>
		<path class="st2" d="M269.9,88c-7.8,0-14.9,3.5-22.4,4.8c-6.4,1.1-8.1,10.5-8.3,15.8c-0.1,2.8-1.1,6.5,0.2,9.2
			c0.8,1.8,1.4,2.7,1.9,4.8c0.5,2.5,1.2,4.9,2.5,7.1c2.2,3.4,3.5,6.6,7,9c3.1,2.1,7.8,3.1,11.5,2.8c4.2-0.3,8.5,0.2,12.7,0
			c4.5-0.2,9.6,0.2,13.9-1.7c3.9-1.7,8.2-2.6,11.6-5.5c4-3.4,6.1-8.5,7.1-13.5c0.8-3.8,0.7-7.5,0.2-11.4c-0.9-7-2.6-13.4-9.8-16.5
			c-3-1.3-5.9-2.9-9.2-3.4C282.5,88.7,276.1,88,269.9,88z"/>
		<path class="st2" d="M295.9,113c5.2-2,10.1-1,15,0.9c4.3,1.7,4.8,5.3,5,9.1c0.2,3.1-0.7,6.6-2.4,9.3c-1.2,1.9-4.3,3.1-5,5.2
			c2.2,1.1,5.6,0.1,5.1,3.5c-0.6,3.9-6.9,3-10.1,2.6c-4.5-0.5-9.5-0.1-12.1-3.9c-4.3-6.3-2.9-14.6-0.1-21
			C292.6,115.7,292.3,114.4,295.9,113z"/>
		<path class="st2" d="M250.9,112.7c-5.2-2-10.1-1-15,0.9c-4.3,1.7-4.8,5.3-5,9.1c-0.2,3.1,0.7,6.6,2.4,9.3c1.2,1.9,4.3,3.1,5,5.2
			c-2.2,1.1-5.6,0.1-5.1,3.5c0.6,3.9,6.9,3,10.1,2.6c4.5-0.5,9.5-0.1,12.1-3.9c4.3-6.3,2.9-14.6,0.1-21
			C254.2,115.4,254.5,114.1,250.9,112.7z"/>
		<path class="st3" d="M260.1,108.5c-0.2,0-0.4-0.1-0.5-0.1c-2.5-0.6-3.5,0.1-5.8,1.2c-3.2,1.6-5.2,4.5-5.8,7.8
			c-0.3,1.6,0.2,3.1,0.1,4.7c-0.2,2-0.9,4-0.2,6c0.4-0.5,0.8-1.2,1.4-1.6c0.6,2,0.9,4,1.7,5.9c0.1-0.6,0.3-1.2,0.7-1.8
			c0,1.7-0.2,4.1,1,5.4c0-0.4,0.2-0.7,0.3-1.1c2.2,3.1-4.2,8.1-4.5,11c-0.2,2,1.1,3.4,3.1,4.1c4,1.4,12,0,14.5-3.5
			c2.3-3.3,0.5-7.4,1.8-11c0.2,0.4,0.6,0.7,0.8,1.1c0.2-2.2-0.6-4.3-1-6.3c0.5,0.4,1,0.9,1.6,1.2c0.2-1.9-1.2-3.6-1.2-5.5
			c0-1.7,0.5-3.5,0.5-5.2c0.1-3.6-0.4-7.4-3.3-10.1C263.6,109.4,262.1,109,260.1,108.5z"/>
		<path class="st3" d="M285.8,108.5c0.2,0,0.4-0.1,0.5-0.1c2.5-0.6,3.4,0.1,5.7,1.2c3.2,1.6,5.2,4.5,5.7,7.8
			c0.3,1.6-0.2,3.1-0.1,4.7c0.2,2,0.9,4,0.2,6c-0.4-0.5-0.8-1.2-1.3-1.6c-0.6,2-0.9,4-1.6,5.9c-0.1-0.6-0.3-1.2-0.7-1.8
			c0,1.7,0.2,4.1-1,5.4c0-0.4-0.2-0.7-0.3-1.1c-2.2,3.1,4.1,8.1,4.4,11c0.2,2-1.1,3.4-3,4.1c-4,1.4-11.8,0-14.3-3.5
			c-2.3-3.3-0.5-7.4-1.7-11c-0.2,0.4-0.6,0.7-0.8,1.1c-0.2-2.2,0.6-4.3,1-6.3c-0.5,0.4-1,0.9-1.6,1.2c-0.2-1.9,1.2-3.6,1.2-5.5
			c0-1.7-0.5-3.5-0.5-5.2c-0.1-3.6,0.4-7.4,3.2-10.1C282.4,109.4,283.9,109,285.8,108.5z"/>
		<path class="st4" d="M313.7,90.4c-0.3-1.9-2.1-3.7-2-5.5c0.6,0.2,1.2,0.5,1.7,0.8c1.1-1-2-8.4-3.6-8.8c0.8,0.2,1.6,0.5,2.4,0.6
			c-0.7-0.1-2.3-2.8-3.1-3.3c-1-0.6-2.1-0.9-3.2-1.3c-3.1-1.1-6.2-2-9.4-3c-6.2-1.9-13.5-1.3-19.9-1.9c-1.1-0.1-2.1-0.2-3.2-0.3v0
			c-0.1,0-0.2,0-0.3,0c-0.1,0-0.2,0-0.3,0v0c-1.1,0.1-2.1,0.2-3.2,0.3c-6.5,0.6-13.7,0-19.9,1.9c-3.2,1-6.3,1.9-9.4,3
			c-1.1,0.4-2.3,0.7-3.2,1.3c-0.8,0.5-2.3,3.2-3.1,3.3c0.8-0.1,1.6-0.4,2.4-0.6c-1.6,0.4-4.7,7.8-3.6,8.8c0.5-0.3,1.1-0.6,1.7-0.8
			c0.1,1.8-1.7,3.7-2,5.5c-0.4,2.2-0.8,4.6-0.6,6.8c0.8-0.3,1.5-1.2,2.4-1.4c0.3,3.7,0.7,7.7,3.4,10.7c0.4-0.7,0.6-1.5,1.1-2.1
			c0,2.1,1,4.1,1.9,6c0.5,1.1,1.5,3.9,2.6,4.3c0.1-0.8,0.2-1.5,0.5-2.2c-0.4,1,3.8,3.7,4.4,4.5c1.5,1.7,3,3.5,5,4.8
			c0.1-1-0.1-2.1,0.5-2.9c0.9,1.2,3.8,3.6,5.2,3.9c0.1-0.9,0.3-1.7,0.5-2.6c1.4,1.2,2.9,2.6,4.6,3.3c0.2-1.1,0.5-2.3,1-3.3
			c0.2-0.3,4.6,3,4.8,3.9c0.3-0.9,0.6-2,1.1-2.7c1,1.2,0.8,3,1.9,4c0.9-1.5,1.7-3.2,2.8-4.6c-0.1,1.3,0.5,2.5,0.6,3.8
			c1.4-1.9,3.9-3.7,6-4.8c0.2,1,0,2.1-0.3,3c2.5-0.7,5.3-2.7,7.3-4.3c0.1,1.1,0,2.2-0.1,3.3c1.8-0.2,4-2.5,5.6-3.5
			c0,1.1-0.6,1.9-0.5,3c1.2-0.7,9.1-6.9,8.4-8.6c0.3,0.7,0.4,1.4,0.5,2.2c1.1-0.4,2.1-3.2,2.6-4.3c0.9-1.9,1.9-4,1.9-6
			c0.6,0.6,0.7,1.4,1.1,2.1c2.7-3,3.1-7,3.4-10.7c0.9,0.2,1.6,1.1,2.4,1.4C314.5,95,314.1,92.6,313.7,90.4z"/>
		<path class="st3" d="M309.9,75.8c0.7-0.1,1.3,0.1,1.8,0.5c-1.1-3.6-4.3-6.9-4-10.6c0,0.2,1,0.8,1.1,0.9c-1.2-2.4-1.1-5.3-2.1-7.9
			c0.3,0.1,0.8,0.1,1.1,0.2c-0.3-3.2-3-7.5-5.6-9.1c0.7-0.2,1-0.7,2-0.7c-2.2-2.8-9.7-7.7-13.1-7.7c0.7-0.8,2.2-1.3,2.9-1.7
			c-1.4-0.6-8.6-2.4-9.7-0.9c0.6-0.9,1.7-1.5,2.1-2.5c-1.5-0.1-3.4,0.7-4.8,1c-1.4,0.3-2.8,0.5-3.9,1.4c0.4-0.9,1-1.6,1.5-2.4
			c-2.7-0.2-6.2,1.7-8.4,3.2c-1.2-2.1-4.8-2.8-7.1-2.7c0.7,0.7,1.1,1.6,1.5,2.5c-1.6-0.3-2.9-1.4-4.4-2c-0.5-0.2-5.5-1-5.5-1
			c0.5,1.6,1.9,3,3.1,4.3c-2.6-1.8-5.6-0.6-8.4-0.3c-2.6,0.3-5-0.5-7,1.1c0.4-0.3,2.9,0.9,3.3,1.1c-3.5,3.4-7.2,4.7-8.2,9.9
			c-0.9,4.7-3.8,9.1-4,13.9c0.3-0.1,0.5-0.3,0.8-0.4c0.2,2.2-0.5,4.4-1.1,6.5c-0.5,1.9-0.5,3.8-0.7,5.7c-0.1,0.8-0.8,2.7-0.3,3.2
			c0.6-0.7,1.1-2,1.9-2.4c-0.9,0.4,2.8,10.3,3.2,11.3c0.5,1.1,0.9,2.5,1.6,3.5c1.1-0.8,1-1.6,1.8,0.1c0.5,1.2,1.5,2.9,2.5,3.6
			c0-1.1,0.4-2.4,1-3.2c0.3,1,1.2,1.6,1.9,2.3c0.2,0.2,2.4,2.3,2.4,2.3c0-0.6,0.4-1.1,0.3-1.8c0.7,1.2,1.8,1.1,2.7,1.9
			c1.1,1.1,1.4,3,2.7,4c0.1-0.7,0.7-1.4,0.8-2c0.5,2.1,3,6.2,5.4,6.3c0.2-0.9,0.4-1.7,0.6-2.6c1.6,0.8,3.7,3.3,5.1,4.7
			c0.1-0.9,0.6-1.5,1.1-2.1c0.7,1,1.8,2.6,3.1,2.2c1.2-0.4,0.7-2.2,2.5-2.1c0.3,5,5.2-0.4,7.2-0.5c0,0.5,0.4,1,0.3,1.5
			c1.5-0.5,2.1-1.6,3.2-2.6c1.2-1.1,1.2-0.9,2.6-1.2c2-0.3,4.7-1.5,5.8-3.5c-0.3,0.6-0.6,1.4-0.9,2c2.4-0.8,3.9-3.8,6.5-4.5
			c-0.1,0.7-0.4,1.4-0.3,2.2c2.6-1.9,5.1-4.7,7-7.4c0.3,1,0.1,2.2,0.2,3.3c1.1-1,1.2-4.1,1.6-5.6c0.5-2,0.5-5,1.4-6.7
			c0.9,0.5,1.4,1.8,2.4,2C310.6,82.8,309.7,79.3,309.9,75.8z"/>
		<path class="st4" d="M290.2,79.8c0.3,0,0.6,0,0.8,0c-0.5-1-1.5-2.2-2.3-3.1c-3-3-6.4-6.3-11-6.4c-2.6-0.1-5.1,0.5-7.7,0.4
			c-3.3-0.1-6.7,0.7-9.6,2.1c-1.2,0.6-2.3,1.3-3.3,2.2c-1.8,1.6-4.5,5.1-4.2,7.7c0.5-0.1,1-0.4,1.5-0.4c0.2,0.9-0.3,1.6-0.5,2.4
			c-0.3,1.1-0.3,2.2-0.4,3.3c-0.1,1.8,0.2,3.2,0.7,4.8c0.1-0.2,0.5-0.5,0.6-0.7c0.8,1.4,1.5,4.1,3.1,4.9c0.1-0.4,0.3-0.8,0.4-1.1
			c0.7,0.9,1.9,2.6,3.1,2.8c0.1-0.4,0.2-0.8,0.4-1.2c-0.4,0.6,3.1,2.5,3.5,2.8c0.4-0.6,0.8-1.3,1.1-1.9c0.8,0.9,1.5,2.5,2.7,2.9
			c0.1-0.4,0.2-1.2,0.5-1.6c0.7-1.2,3.2,0.9,3.9,1.8c0.7-0.5,1.2-1.6,2.1-1.8c1.1-0.3,1,0.7,1.5,1.4c0.9-0.6,1.7-1.5,2.4-2.3
			c0.3,0.7,1.1,1.2,1.2,1.9c0.1,0.6,3-2.3,3.2-2.5c0.6-0.8,1.8-3,2.4-1c0.4-0.5,0.7-1.1,1-1.7c1.4-2.8,3-5.7,3.6-8.9
			c0.3-1.2-0.1-6.6-1.9-6.8C289.3,79.8,289.8,79.8,290.2,79.8z"/>
		<path d="M280.8,71.9c0.7,7.3-18.3,8-18.3,0.9c0-4,6.3-3.8,9.1-4.1C274.3,68.4,280.4,68.1,280.8,71.9z"/>
		<path d="M290.1,65.2c1,0.6,2.2,1.2,2.4,1.8c1.3,2.9-6.2,3.3-7.9,2.7c-3-1-4.5-5-0.6-6c1.9-0.4,2.9-0.2,4.4,0.6
			C288.8,64.5,289.5,64.8,290.1,65.2z"/>
		<path class="st5" d="M285,66c-0.4,0.8-1.2,1.2-1.9,0.9c-0.7-0.3-0.9-1.1-0.6-1.9c0.4-0.8,1.2-1.2,1.9-0.9
			C285.1,64.4,285.3,65.2,285,66z"/>
		<path d="M254.2,65.6c-1,0.5-2.1,1.2-2.3,1.7c-1.3,2.8,5.9,3.1,7.5,2.6c2.9-1,4.3-4.8,0.6-5.7c-1.8-0.4-2.8-0.2-4.2,0.6
			C255.4,65,254.9,65.3,254.2,65.6z"/>
		<path class="st5" d="M255.7,66.5c-0.4,0.8-1.2,1.2-1.9,0.9c-0.7-0.3-0.9-1.1-0.6-1.9c0.4-0.8,1.2-1.2,1.9-0.9
			C255.8,64.8,256,65.7,255.7,66.5z"/>
		<path d="M285.7,85.1c-0.4-0.1-0.8,0.2-0.8,0.6c-0.5,3-3.3,4.6-5.9,4.9c-2.3,0.3-5.1-0.4-6.2-3.1c-0.1-0.2-0.2-0.3-0.4-0.4v0
			c0,0,0,0,0,0c0,0-0.1,0-0.1,0c0,0-0.1,0-0.1,0c0,0,0,0,0,0v0c-0.2,0.1-0.3,0.2-0.4,0.4c-1.1,2.7-3.9,3.4-6.2,3.1
			c-2.6-0.3-5.5-1.9-5.9-4.9c-0.1-0.4-0.4-0.7-0.8-0.6c-0.4,0.1-0.7,0.4-0.6,0.8c0.6,3.7,4,5.8,7.2,6.1c0.4,0,0.7,0.1,1.1,0.1
			c2.4,0,4.5-1,5.8-2.6c1.3,1.7,3.3,2.6,5.8,2.6c0.3,0,0.7,0,1.1-0.1c3.2-0.4,6.6-2.4,7.2-6.1C286.3,85.5,286,85.2,285.7,85.1z"/>
		<path class="st4" d="M303.4,68.2c0.6,0.5,1.4,0.8,2.1,0.6c0.6-3.4-2.4-7.9-4.7-10.2c-2.6-2.7-6-4.5-9.7-5.2
			c-5.5-1-13.5,0.7-12.1,8.1c2.1-1.9,2.1,2.9,4,3.7c0.1-0.6,0.6-0.6,0.9-1.1c0.6,1.1,1.5,2.1,3,2c0-0.6,0.4-1.1,0.5-1.7
			c1.8,0.5,3,2.9,4.7,3.6c0-0.7,0.1-1.2-0.1-1.9c0.8,1.9,4,3.5,5.9,3c0-0.2-0.1-0.3,0-0.5c0.9,0.7,1.8,0.6,2.8,0.7
			c1,0.1,2,0.4,2.9,0.4C303.8,69.2,303.8,68.6,303.4,68.2z"/>
		<path class="st4" d="M240.3,68.4c-0.6,0.5-1.4,0.8-2.1,0.6c-0.6-3.4,2.4-7.9,4.7-10.2c2.6-2.7,6-4.5,9.7-5.2
			c5.5-1,13.5,0.7,12.1,8.1c-2.1-1.9-2.1,2.9-4,3.7c-0.1-0.6-0.7-0.5-1-1c-0.6,1.1-1.4,2-3,1.9c0-0.6-0.4-1.1-0.5-1.7
			c-1.8,0.5-3,2.9-4.7,3.6c0-0.7-0.1-1.2,0.1-1.9c-0.8,1.9-4,3.5-5.9,3c0-0.2,0.1-0.3,0-0.5c-0.9,0.7-1.8,0.6-2.8,0.7
			c-1,0.1-2,0.4-2.9,0.4C239.8,69.5,239.9,68.8,240.3,68.4z"/>
		<path class="st4" d="M291.1,41.4c0.7-0.8,2.2-1.3,2.9-1.7c-1.4-0.6-8.6-2.4-9.7-0.9c0.6-0.9,1.7-1.5,2.1-2.5
			c-1.5-0.1-3.4,0.7-4.8,1c-1.4,0.3-2.8,0.5-3.9,1.4c0.4-0.9,1-1.6,1.5-2.4c-2.7-0.2-6.2,1.7-8.4,3.2c-1.2-2.1-4.8-2.8-7.1-2.7
			c0.7,0.7,1.1,1.6,1.5,2.5c-1.6-0.3-2.9-1.4-4.4-2c-0.5-0.2-5.5-1-5.5-1c0.5,1.6,1.9,3,3.1,4.3c-2.6-1.8-5.6-0.6-8.4-0.3
			c-2.6,0.3-5-0.5-7,1.1c0.4-0.3,2.9,0.9,3.3,1.1c-2.4,2.4-5,3.8-6.7,6.2c0.2-0.1,0.5-0.3,0.7-0.4c2-0.8,4.5-0.6,6.6-1.6
			c-0.6,0.3-0.8,0.7-1.2,1.1c3-0.2,6-1.7,9.1-1.7c-0.3,0.4-0.6,1.1-0.8,1.5c0.9-1.3,6.1-0.9,7.5-0.8c-0.8,0.4-1.3,1.2-1.4,2.1
			c2-0.9,4-2.3,6.2-2.1c-0.7,1-1.6,2.1-2.1,3.4c1.5-0.1,2.7-1.8,4.3-1.9c0.1,1.4-0.5,3.3,0,4.4c1.3-1.1,1.9-2.8,3.2-3.8
			c0.7,1.4,2.5,3,3.7,3.6c0.1-1.4,0-2.7,0.3-4.1c1.1,1.1,3,2.3,4.5,2.7c1.1-1.3-0.2-2.7-0.2-4.2c1.7,0.7,3.6,2.4,5.6,2.3
			c-0.1-1.1-1.1-2-1.6-3c0.3,0.6,7.6,0.4,8.6,0.4c2.5,0,5.6-0.4,8,0.5c1.3,0.4,2.3,1,3.3,1.4C301.2,45.8,294.3,41.4,291.1,41.4z"/>
		<g>
			<path class="st0" d="M303.9,40.4c0.3-2.2,0.2-4.5-2.8-4.7c-4.7-0.2-19.9,7.4-14.1,12.8c0.2,0.2,0.3,0.3,0.5,0.4
				c1.4,0.4,2.9-0.2,4.3,0.2c-0.1,0.3-0.3,0.5-0.5,0.8c1.7,0.4,4.1,0,5.7-0.4c-0.1,0.2-0.3,0.5-0.3,0.7c0.3,0.1,0.8,0.1,1.3,0.1
				c1.4-0.4,2.6-1.1,3.5-2.1c0.7-0.8,0.9-2.1,1.2-3.1C303.2,43.6,303.7,42,303.9,40.4C303.9,40.4,303.9,40.4,303.9,40.4z"/>
			<path class="st6" d="M300.7,39.7c0.1,0,0.2,0.1,0.3,0.2c0.7,0.6,0.4,1.7,0.4,2.4c0,0.9-0.2,1.9-0.4,2.7c-0.6,1.7-1.8,3.1-3.7,3.4
				c-2.6,0.4-6.7-1-5.7-3.4c0.8-1.8,2.5-3,4.2-3.9C296.7,40.6,299.3,39,300.7,39.7z"/>
		</g>
		<g>
			<path class="st0" d="M240.3,38c0-2.4,0.5-4.9,3.4-4.6c4.7,0.5,18.6,11,12.2,15.9c-0.2,0.1-0.4,0.3-0.6,0.4
				c-1.5,0.2-2.8-0.6-4.3-0.4c0.1,0.3,0.2,0.6,0.4,0.9c-1.7,0.1-4-0.7-5.6-1.3c0.1,0.3,0.2,0.6,0.2,0.8c-0.3,0-0.8,0-1.3-0.1
				c-1.3-0.7-2.4-1.6-3.2-2.8c-0.6-0.9-0.6-2.4-0.8-3.5C240.6,41.6,240.3,39.8,240.3,38C240.3,38,240.3,38,240.3,38z"/>
			<path class="st6" d="M243.6,37.8c-0.1,0-0.2,0.1-0.3,0.1c-0.7,0.5-0.7,1.7-0.8,2.5c-0.1,1-0.1,2,0.1,3c0.3,1.9,1.3,3.6,3.2,4.3
				c2.5,0.8,6.8-0.1,6.1-2.7c-0.5-2-2-3.6-3.6-4.9C247.4,39.3,245.1,37.2,243.6,37.8z"/>
		</g>
	</g>
</g>
<g>
	<path class="st1" d="M418.9,143.8c0,4.9-17.2,8.9-38.3,8.9c-21.2,0-38.3-4-38.3-8.9c0-4.9,17.2-8.9,38.3-8.9
		C401.8,134.9,418.9,138.9,418.9,143.8z"/>
	<path class="st7" d="M358.3,145.5c3.1-0.5,6.7-1.2,8.9-3.5c2.1-2.2,2.3-6.5,0.2-9.1c-4.6-5.6-13.2-9.8-17.9-2.9
		c-2.2,3.2,1.1,7.8,3.4,10.1c-1.3,0.5-2.8,0-3.8,1.1c-0.9,0.9-1,2.5,0,3.5C351.5,147.1,355.5,146,358.3,145.5z"/>
	<path class="st7" d="M400.7,144.6c-3.1-0.5-6.7-1.1-9.1-3.3c-2.2-2.1-2.6-6.2-0.5-8.8c4.4-5.5,13-9.6,17.9-3
		c2.3,3.1-0.9,7.5-3.1,9.8c1.3,0.4,2.8,0,3.9,1c1,0.9,1.1,2.4,0.2,3.4C407.6,146,403.5,145,400.7,144.6z"/>
	<path class="st7" d="M402,115.5c-3.9-4.2-16-3-22.3-2.8c-6.3-0.1-18.4-1.4-22.3,2.8c-3,3.2-3.3,8.3-2.4,12.4
		c0.8,3.7,1.7,9.5,4.3,12.6c3.1,3.7,6.7,2.8,11.4,3.1c3,0.1,5.9,0.3,8.9,0.3v0c0,0,0.1,0,0.1,0c0,0,0.1,0,0.1,0v0
		c2.9-0.1,5.9-0.2,8.9-0.3c4.7-0.2,8.3,0.6,11.4-3.1c2.6-3.2,3.5-8.9,4.3-12.6C405.3,123.8,405,118.7,402,115.5z"/>
	<g>
		<path class="st8" d="M396.7,128.9c0.2-3.3-0.7-6.8-2.8-9.7c-3.5-4.8-13.4-4.8-18.8-3.7c-4.3,0.9-8.4,2.1-10.8,5.8
			c-1.4,2.1-1.6,4.3-0.8,6.6c0.1,0.4,0.3,0.8,0.5,1.2C370.3,130.9,383.4,133.5,396.7,128.9z"/>
		<path class="st9" d="M364.1,129.1c0.4,0.8,0.8,1.6,1.2,2.4c0.4,1,0.2,1.5,0.4,2.5c0.4,3,3.1,6.4,5.4,8.6c0.6,0.6,1.2,1.1,1.9,1.6
			c3.9,0.2,11.5,0.3,15.4,0.1c2.1-1.5,3.7-3.9,5.1-5.9c1.9-2.7,3.1-6.1,3.3-9.6C383.4,133.5,370.3,130.9,364.1,129.1z"/>
	</g>
	<g>
		<g>
			<g>
				<g>
					<path class="st10" d="M373.5,145.3c-0.1,2.6-3.3,4.6-7.3,4.5c-4-0.1-7.2-2.2-7.1-4.8c0.1-2.6,3.3-4.6,7.3-4.5
						C370.4,140.6,373.6,142.7,373.5,145.3z"/>
				</g>
			</g>
			<path class="st10" d="M370.4,121.4c0,0-6.1,11.4,1.5,23.2l-8.5,1.2c0,0-13.6-16.1-2-27.9L370.4,121.4z"/>
		</g>
	</g>
	<g>
		<g>
			<g>
				<g>
					<path class="st10" d="M385.6,145.3c0.1,2.6,3.3,4.6,7.3,4.5c4-0.1,7.2-2.2,7.1-4.8c-0.1-2.6-3.3-4.6-7.3-4.5
						C388.7,140.6,385.6,142.7,385.6,145.3z"/>
				</g>
			</g>
			<path class="st10" d="M388.8,122.1c0,0,6.1,10.7-1.6,22.5l8.5,1.2c0,0,13.6-16.1,2-27.9L388.8,122.1z"/>
		</g>
	</g>
	<path class="st11" d="M359.6,112.2c-0.9,1.9-1,5.2,0,7c0.9,1.7,2.7,3.3,4.3,4.4c3.5,2.4,7.9,3.5,12.2,3.7
		c6.2,0.3,12.7,0.3,17.7-3.7c2.5-2,4.7-4,5.1-7.3c1.2-8.7-7-10.7-14.1-11.9c-6.6-1.2-16.8-2-21.7,3.5
		C361.9,109.2,360.3,110.8,359.6,112.2z"/>
	<g>
		<g>
			<g>
				<path class="st12" d="M407.9,111.5c-0.9,2.7-2.5,4.8-5.2,6c-3.2,1.4-7.5,2.4-10.9,2.9c-7.1,1.1-14,1-21.1,0.9
					c-6.2-0.1-15.4-0.4-18.6-7.1c-3.6-7.6-3.2-15.8,0.4-23.3c6-12.7,22.2-18,34.8-14.6c1.8,0.5,3.7,0.7,5.5,1c2.2,0.4,3.2,1.6,5,2.9
					c2.2,1.5,4.5,2.9,6.1,5.1c1.2,1.7,2.3,3.7,3.5,5.6C410.5,96,409.7,105.9,407.9,111.5z"/>
			</g>
			<path class="st10" d="M407.3,90.8c-1.1-1.8-2.2-3.8-3.5-5.6c-1.6-2.2-3.9-3.6-6.1-5.1c-1.8-1.3-2.8-2.5-5-2.9
				c-1.8-0.3-3.7-0.5-5.5-1c-2.5-0.7-5.2-1-7.9-1c-0.5,0-0.5,10.2,0.7,14.8c0.7,2.8,2,5.2,3.7,7.5c5.7,7.3,15.8,16.3,25.2,9.6
				C409.9,101.8,409.8,94.9,407.3,90.8z"/>
		</g>
		<path class="st13" d="M398.2,104.1c-1.5-2.5-3.2-4.7-4.6-6.1c-3.6-3.5-9.1-4-13.9-4c-5,0-9.9,1.6-14.1,4.3
			c-3.7,2.4-5.3,6.4-6.9,10.5c-1.2,3.1-2.4,8.5,0,11.3c2.5,3,8.5,4,11.9,2.1c3.6-2,3-7.3,6-9.8c2.3-1.9,4.9-1,6.7,1.2
			c1.8,2.1,1.8,5.3,3.4,7.4c1.6,2.1,4.3,3.1,6.8,3.1C405.4,124.2,402.2,110.6,398.2,104.1z"/>
		<path d="M387.3,99.3c3.9,6.9-9.5,8.3-12.9,5c-4.2-3.9,0.5-7.8,4.8-7.8C381.4,96.5,386,97,387.3,99.3z"/>
		<g>
			<g>
				<path d="M392.3,90.6c0,0.3-0.1,0.7-0.1,1.1c0,3.2,1.6,5.8,3.6,5.8c2,0,3.6-2.6,3.6-5.8c0-0.4,0-0.7-0.1-1.1H392.3z"/>
			</g>
			<g>
				<path d="M360.8,90.6c0,0.3-0.1,0.7-0.1,1.1c0,3.2,1.6,5.8,3.6,5.8c2,0,3.6-2.6,3.6-5.8c0-0.4,0-0.7-0.1-1.1H360.8z"/>
			</g>
			<path class="st5" d="M361.6,90.8c-0.5,1.1-0.3,2.3,0.5,2.6c0.8,0.3,1.8-0.3,2.3-1.5c0.2-0.5,0.3-0.9,0.2-1.3h-3
				C361.7,90.7,361.6,90.7,361.6,90.8z"/>
			<path class="st5" d="M393,90.8c-0.5,1.1-0.3,2.3,0.5,2.6c0.8,0.3,1.8-0.3,2.3-1.5c0.2-0.5,0.3-0.9,0.2-1.3h-3
				C393.1,90.7,393.1,90.7,393,90.8z"/>
		</g>
		<path class="st14" d="M391.9,118.2c-0.5-1.7-2.1-3.3-3.4-4.3c-3.3-2.4-10.7-4.7-14.3-2c-2.2,1.7-8,6.5-5.6,10.1
			c2.3,3.2,9.2,2.8,12.4,2.9c3.2,0.1,7.5-1,9.9-3.4C392.1,120.4,392.2,119.3,391.9,118.2z"/>
		<g>
			<path class="st12" d="M351,86.4c2.9-0.2,5.3,1.6,8.1,1.1c3-0.5,6.3-2.2,8.3-4.4c3.7-4.1-1.3-7.5-5.2-9.4c-2.3-1.1-7-1.9-9.6-1.4
				c-3.2,0.7-9.2,5.7-10.5,8.7c-0.6,1.6,0.1,3.3,1.6,4.5C345.9,87.3,348.5,86.6,351,86.4z"/>
			<path class="st15" d="M355.4,78.1c-3.8-0.3-8,1-11.1,3.4c-0.8,0.6-1.6,1.5-2,2.4c0.3,0.6,0.8,1.2,1.4,1.6
				c2.2,1.7,4.8,1.1,7.3,0.8c2.2-0.2,4,0.8,6,1.1c0.7-0.1,1.4-0.3,2-0.6c2.6-1.2,4.6-2.5,2.6-5.4C360.3,79.6,357.7,78.3,355.4,78.1z
				"/>
		</g>
		<g>
			<path class="st10" d="M408.8,86.4c-2.9-0.2-5.3,1.6-8.1,1.1c-3-0.5-6.3-2.2-8.3-4.4c-3.7-4.1,1.3-7.5,5.2-9.4
				c2.3-1.1,7-1.9,9.6-1.4c3.2,0.7,9.2,5.7,10.5,8.7c0.6,1.6-0.1,3.3-1.6,4.5C413.8,87.3,411.3,86.6,408.8,86.4z"/>
			<path class="st7" d="M404.4,78.1c3.8-0.3,8,1,11.1,3.4c0.8,0.6,1.6,1.5,2,2.4c-0.3,0.6-0.8,1.2-1.4,1.6c-2.2,1.7-4.8,1.1-7.3,0.8
				c-2.2-0.2-4,0.8-6,1.1c-0.7-0.1-1.4-0.3-2-0.6c-2.6-1.2-4.6-2.5-2.6-5.4C399.5,79.6,402.1,78.3,404.4,78.1z"/>
		</g>
		<g>
			<path d="M391,117c-0.2,0-0.5-0.1-0.6-0.3c-3.6-5.1-10.1-5.1-10.2-5.1c-0.2,0-0.4-0.1-0.5-0.2c-0.1-0.1-0.2-0.3-0.2-0.5l0.1-6
				c0-0.4,0.4-0.7,0.8-0.7c0.4,0,0.7,0.4,0.7,0.8l-0.1,5.3c2,0.2,7.3,1.1,10.6,5.7c0.2,0.3,0.2,0.8-0.2,1.1
				C391.3,117,391.2,117,391,117z"/>
			<path d="M370.3,116.1c-0.1,0-0.3,0-0.4-0.1c-0.3-0.2-0.4-0.7-0.2-1.1c4-5.8,10.4-4.8,10.7-4.8c0.4,0.1,0.7,0.5,0.6,0.9
				c-0.1,0.4-0.4,0.7-0.9,0.6c-0.2,0-5.8-0.8-9.2,4.2C370.8,116,370.6,116.1,370.3,116.1z"/>
		</g>
	</g>
</g>
<g>
	<path class="st16" d="M81.7,125.1c2.2-1.9,3.7-4.4,5.3-6.9c0.1,0.5,0.1,1.1-0.1,1.7c0.9-1.1,1.8-2.2,2.9-3.1
		c-0.2,0.7-0.4,1.4-0.6,2c0.4-0.2,0.9-0.4,1.2-0.8c-0.2,0.7-0.4,1.5-0.6,2.2c0.5-0.3,1.1-0.5,1.6-0.8c-0.3,1.5-0.9,3-1.8,4.3
		c0.5-0.2,1-0.4,1.4-0.5c-1.7,3.6-4.4,6.6-7.3,9.3c-2.4,2.2-5.2,4.3-8.4,5.1c-1.1,0.3-2.2,0.4-3.3,0.1c-3.5-1.2-1.6-4.4,0.3-6.2
		C75.1,128.8,78.9,127.7,81.7,125.1z"/>
	<g>
		<path class="st1" d="M87.7,144.8c0,4.4-11.7,7.9-26.2,7.9c-14.5,0-26.2-3.5-26.2-7.9c0-4.4,11.7-7.9,26.2-7.9
			C76,136.9,87.7,140.4,87.7,144.8z"/>
		<g>
			<g>
				<g>
					<path class="st16" d="M71.8,144.1c-3.3-2.1-3.5-6.6-1.8-9.7c1.3-2.4,6-5.3,8.9-5.2c2.7,0.1,5,2.3,5.5,4.7
						c0.3,1.5-0.5,4.9-1.2,6.3c-0.1-0.2-0.4-0.4-0.5-0.6c0.2,0.3-1,2-1,2.5c0,1,1,1.3,1.2,2c0.3,1.3-1.2,1.6-2.4,1.7
						C77.8,146.2,74.1,145.6,71.8,144.1z"/>
				</g>
				<g>
					<path class="st16" d="M52.1,144.1c3.3-2.1,3.5-6.6,1.8-9.7c-1.3-2.4-6-5.3-8.9-5.2c-2.7,0.1-5,2.3-5.5,4.7
						c-0.3,1.5,0.5,4.9,1.2,6.3c0.1-0.2,0.4-0.4,0.5-0.6c-0.2,0.3,1,2,1,2.5c0,1-1,1.3-1.2,2c-0.3,1.3,1.2,1.6,2.4,1.7
						C46.1,146.2,49.8,145.6,52.1,144.1z"/>
				</g>
			</g>
		</g>
		<path class="st16" d="M78.8,132.6c0.2-0.9,0.4-1.7,0.5-2.7c0.3-2.2,0-5.1-0.8-7.1c-5.4-13.2-22-13-30.4-4
			c-5.5,5.8-4.3,14.4-0.3,20.7c3.9,6.2,12,6.4,18,5.3C72,143.9,77,139.3,78.8,132.6z"/>
		<path class="st17" d="M78.6,122.9c-5.4-13.2-22-13-30.4-4c-2.3,2.5-3.4,5.4-3.7,8.5c0.6,0.9,1.4,1.7,2.3,2.3
			c0-0.3,0.3-0.7,0.2-1.1c1.5,2.5,3.5,3.2,6.1,3.9c2.2,0.6,5.3,1.5,7.5,1.3c0-0.4,0.1-1,0.1-1.4c0.3,0.4,0.6,1,1,1.3
			c0.3-0.5,0.6-1.1,1-1.4c0.2,0.5,0.4,1.1,0.5,1.6c5,0.4,10.5-3.3,13.8-6.9c-0.1,0.5,0.1,0.9-0.1,1.4c0.8,0.1,1.7-0.4,2.5-1.2
			C79.4,125.7,79.1,124.1,78.6,122.9z"/>
		<g>
			<g>
				<g>
					<path class="st17" d="M64.1,142.2c0.1-1.1,0.3-2.3,0.4-3.2c-0.3,0.2-0.9,1.2-1.1,1.3c-0.4-2.1,1-4.6,1-6.5
						c-0.1-2.1-0.7-3.6,0.4-5.6c2-3.4,7.5-5.3,9.4-0.8c0.9,2.1,0.6,4.3,0.3,6.5c-0.3,1.9-0.3,3.8-0.4,5.7c-0.2-0.2-0.6-0.4-0.8-0.8
						c-1,2.4-0.2,3.1,0.9,5c1,1.6,0.5,3.4-1.1,4.3c-2.1,1.1-6.4,1.1-8.1-1C63.9,145.8,63.9,144,64.1,142.2z"/>
				</g>
				<g>
					<path class="st17" d="M59,142.2c-0.1-0.9-0.1-1.9,0-2.7c0.2,0.3,0.7,0.5,1,0.8c-0.7-2.4-1.1-4-1-6.5c0.1-2.1,0.7-3.6-0.4-5.6
						c-1.8-3.4-7-5.3-8.8-0.8c-0.8,2.1-0.6,4.5-0.2,6.7c0.4,2.1-0.1,3.9,0.1,6c0.2-0.3,0.8-0.5,1-0.6c-0.2,0.2,0.1,1.8,0.1,2.1
						c-0.1,0.9-0.6,1.3-0.9,2.1c-0.6,1.6-0.6,3.4,1.1,4.3c1.8,1,4.5,0.9,6.3,0C59.4,146.8,59.2,144.5,59,142.2z"/>
				</g>
			</g>
		</g>
		<path class="st18" d="M77.9,115.2c0,5.2-7.2,9.3-16,9.3c-8.8,0-16-4.2-16-9.3c0-5.2,7.2-9.3,16-9.3
			C70.8,105.8,77.9,110,77.9,115.2z"/>
	</g>
	<g>
		<path class="st17" d="M81.1,91.5c0.2-3,0.7-5.4-1.4-7.6c-3.4-3.6-12.2-4.3-17.4-4.4v0c-0.1,0-0.2,0-0.2,0c-0.1,0-0.2,0-0.2,0v0
			c-5.2,0.1-14,0.8-17.4,4.4c-2.1,2.2-1.2,4.6-1.4,7.6c-0.3,4.5-0.8,10.2-0.5,14.7c0.4,7.2,8,8.1,14.7,8.5c1.6,0.1,3.3,0,4.9-0.1
			c1.6,0.1,3.3,0.2,4.9,0.1c6.6-0.4,14.5-1.3,14.9-8.5C82.1,101.8,80.6,98.1,81.1,91.5z"/>
		<g>
			<path class="st17" d="M57.9,75.9c0.3,0.7,0.6,1.4,0.7,2.1c-1.6-0.6-3.3-0.9-5.1-1c0.5,0.5,1,1.1,1.5,1.6
				c-2.7-0.9-5.8,0.1-7.6,2.3c-0.1,0.2-0.3,0.3-0.3,0.6c0,0.5,0.5,0.8,0.9,0.9c1.5,0.5,3.1,0.5,4.7,0.5c2.8-0.1,5.7-0.4,8.4-1
				c0.4-0.1,0.9-0.2,1.2-0.4C64.9,79.7,58.4,76.9,57.9,75.9z"/>
			<path class="st17" d="M65.5,75.9c-0.3,0.7-0.6,1.4-0.7,2.1c1.6-0.6,3.3-0.9,5.1-1c-0.5,0.5-1,1.1-1.5,1.6
				c2.7-0.9,5.8,0.1,7.6,2.3c0.1,0.2,0.3,0.3,0.3,0.6c0,0.5-0.5,0.8-0.9,0.9c-1.5,0.5-3.1,0.5-4.7,0.5c-2.8-0.1-5.7-0.4-8.4-1
				c-0.4-0.1-0.9-0.2-1.2-0.4C58.5,79.7,65,76.9,65.5,75.9z"/>
		</g>
		<g>
			<path class="st17" d="M41.1,108.3c-0.1,1.7-0.3,3.4-0.4,5.1c0.4-0.3,0.8-0.6,1.2-0.9c-0.2,1.6,0,3.2,0.5,4.7
				c0.5-0.7,1-1.4,1.4-2.2c0.4,1.5,1.2,2.8,2.3,3.8c0.3-0.5,0.3-1.1,0.1-1.6c0.4,1.2,1.2,2.4,2.2,3.1c0.1-0.4,0.1-0.8,0.2-1.3
				c0.6,0.7,1.2,1.3,2,1.8c1.5-2.2,2.8-4.7,3.3-7.4c0.5-2.7,0.1-5.5-1.3-7.8c-1.4-2.3-4.9-4.4-7.7-3.6c-2.5,0.7-4.6,4.6-5,6.9
				C40,108.8,41,108.5,41.1,108.3z"/>
			<path class="st17" d="M83.2,108.3c0.1,1.7,0.3,3.4,0.4,5.1c-0.4-0.3-0.8-0.6-1.2-0.9c0.2,1.6,0,3.2-0.5,4.7
				c-0.5-0.7-1-1.4-1.4-2.2c-0.4,1.5-1.2,2.8-2.3,3.8c-0.3-0.5-0.3-1.1-0.1-1.6c-0.4,1.2-1.2,2.4-2.2,3.1c-0.1-0.4-0.1-0.8-0.2-1.3
				c-0.6,0.7-1.2,1.3-2,1.8c-1.5-2.2-2.8-4.7-3.3-7.4c-0.5-2.7-0.1-5.5,1.3-7.8c1.4-2.3,4.9-4.4,7.7-3.6c2.5,0.7,4.6,4.6,5,6.9
				C84.2,108.8,83.2,108.5,83.2,108.3z"/>
		</g>
		<path class="st17" d="M68.6,112.7c-1.2-0.4-2.5-0.4-3.8-0.5c-0.5,0-1.1,0-1.5,0.2c-0.5,0.2-0.8,0.6-1.2,1c-0.4-0.4-0.7-0.8-1.2-1
			c-0.5-0.2-1-0.2-1.5-0.2c-1.3,0.1-2.5,0.1-3.8,0.5c-3.5,1.1-6.1,7.1-1.8,9.4c0-0.4,0.1-0.8,0-1.2c1,0.8,2,1.5,3.2,2
			c0.2-0.5,0.2-1.3-0.1-1.8c0.9,0.8,1.8,1.5,2.7,2c0.1,0.1,0.2,0.1,0.3,0.1c0.1-0.1,0.1-0.2,0.2-0.4c0.1-0.7,0.1-1.4,0.1-2.1
			c0.6,0.8,1.2,1.5,1.7,2.3c0.1,0,0.1-0.1,0.1-0.1c0,0,0.1,0.1,0.1,0.1c0.6-0.8,1.2-1.5,1.7-2.3c0,0.7,0,1.4,0.1,2.1
			c0,0.1,0,0.3,0.2,0.4c0.1,0.1,0.2,0,0.3-0.1c1-0.6,1.9-1.3,2.7-2c-0.3,0.5-0.3,1.2-0.1,1.8c1.2-0.4,2.2-1.2,3.2-2
			c-0.1,0.4,0,0.8,0,1.2C74.7,119.7,72.1,113.8,68.6,112.7z"/>
		<g>
			<path d="M33,85.5c-1.4,2-2.4,4.2-2.8,6.6c-0.8,4,1.4,7.6,1.3,11.5c0,0.1,0,0.3,0.1,0.4c0.2,0.2,0.5,0.1,0.8,0
				c0.5-0.2,0.9-0.4,1.4-0.7c0,0.5,0.1,1,0.3,1.5c2.2-0.3,4-1.5,5.7-2.8c1.5-1.2,3.4-2.6,4.5-4.1c1-1.3,1.5-2.9,1.9-4.5
				c0.7-2.8,1.1-5.6,2.1-8.3c0.4-1.1,0.9-2.3,1.4-3.4c0.4-0.9,1.6-2.2-0.2-2.3c-2.4,0-4.8,0.4-6.9,1.4c-0.5,0.2-1.1,0.5-1.6,0.3
				c-0.3-0.1-0.6-0.4-0.9-0.6c-0.7-0.3-1.4,0-2.1,0.4C36,82.1,34.3,83.6,33,85.5z"/>
			<path d="M91.2,86.5c1.4,2,2.4,4.2,2.8,6.6c0.8,4-1.4,7.6-1.3,11.5c0,0.1,0,0.3-0.1,0.4c-0.2,0.2-0.5,0.1-0.8,0
				c-0.5-0.2-0.9-0.4-1.4-0.7c0,0.5-0.1,1-0.3,1.5c-2.2-0.3-4-1.5-5.7-2.8c-1.5-1.2-3.4-2.6-4.5-4.1c-1-1.3-1.5-2.9-1.9-4.5
				c-0.7-2.8-1.1-5.6-2.1-8.3c-0.4-1.1-0.9-2.3-1.4-3.4c-0.4-0.9-1.6-2.2,0.2-2.3c2.4,0,4.8,0.4,6.9,1.4c0.5,0.2,1.1,0.5,1.6,0.3
				c0.3-0.1,0.6-0.4,0.9-0.6c0.7-0.3,1.4,0,2.1,0.4C88.3,83.1,89.9,84.7,91.2,86.5z"/>
		</g>
		<path d="M66.5,115.6c0.4-0.8-0.5-1.2-1.6-1.5c-0.5-0.2-1.1-0.2-1.6-0.3c-1.3-0.1-2.7,0-4,0.3c-2.5,0.5-1.8,2.6,0.3,3.2
			c0.9,0.2,1.8,0.2,2.7,0.2c1.8,0,2.7-0.2,3.8-1.3C66.3,115.9,66.4,115.7,66.5,115.6z"/>
		<g>
			<path class="st5" d="M66.4,97.3c0.1,0,0.3-0.1,0.4-0.1c-0.6,0.8-1.2,1.5-1.8,2.3c0.2-0.3,6.6,0.3,7.1,0.6c-0.4,0.4-1,0.8-1.4,1.2
				c2.8-0.3,5.7,0.4,8,2c-0.7-0.1-1.4-0.1-2.1,0.1c0.8,0.5,1.5,1.3,2,2c0.8,1,1.4,2.2,1.8,3.4c0.2,0.6,0.5,2.4,1,2.7
				c-1-0.5-2.1-0.7-3.2-0.8c0.8,1.2,1.6,2.3,2.3,3.5c-1.6-0.2-3.2-0.5-4.7-1c0.7,0.9,1.4,1.9,1.9,3c-1.8,0-3.7-0.3-5.5-0.8
				c0.8,0.7,1.5,1.6,2,2.6c-1.6-0.3-3.2-0.7-4.8-1.3c0.7,0.8,1.3,1.8,1.8,2.8c-2.2-0.8-4.7-1.2-6.5-2.7c-1.9-1.6-3.3-3.7-3.9-6.1
				c-0.4-2.1-0.3-4.3-0.1-6.5c0.2-1.9,0.2-4,0.8-5.9c0.4-1.5,1.3-2.9,2.7-3.7c-0.6,1-1.1,2.4-0.9,3.6C64.4,98.2,65.4,97.7,66.4,97.3
				z"/>
			<path class="st5" d="M57.8,97.3c-0.1,0-0.3-0.1-0.4-0.1c0.6,0.8,1.2,1.5,1.8,2.3c-0.2-0.3-6.6,0.3-7.1,0.6c0.4,0.4,1,0.8,1.4,1.2
				c-2.8-0.3-5.7,0.4-8,2c0.7-0.1,1.4-0.1,2.1,0.1c-0.8,0.5-1.5,1.3-2,2c-0.8,1-1.4,2.2-1.8,3.4c-0.2,0.6-0.5,2.4-1,2.7
				c1-0.5,2.1-0.7,3.2-0.8c-0.8,1.2-1.6,2.3-2.3,3.5c1.6-0.2,3.2-0.5,4.7-1c-0.7,0.9-1.4,1.9-1.9,3c1.8,0,3.7-0.3,5.5-0.8
				c-0.8,0.7-1.5,1.6-2,2.6c1.6-0.3,3.2-0.7,4.8-1.3c-0.7,0.8-1.3,1.8-1.8,2.8c2.2-0.8,4.7-1.2,6.5-2.7c1.9-1.6,3.3-3.7,3.9-6.1
				c0.4-2.1,0.3-4.3,0.1-6.5c-0.2-1.9-0.2-4-0.8-5.9c-0.4-1.5-1.3-2.9-2.7-3.7c0.6,1,1.1,2.4,0.9,3.6C59.8,98.2,58.8,97.7,57.8,97.3
				z"/>
		</g>
		<path d="M66.8,105.3c-0.7-1.8-3.3-2-4.6-2.1c0,0,0,0,0,0l0,0l0,0h0l0,0c0,0,0,0,0,0c-1.3,0.1-3.9,0.3-4.6,2.1
			c-1.2,3.1,1.8,5.8,4.7,6l0,0h0l0,0l0,0C65,111.2,68,108.5,66.8,105.3z"/>
		<g>
			<g>
				<g>
					<circle cx="51.4" cy="95.6" r="3.8"/>
					<path class="st5" d="M50.4,94.8c-0.3,0.8-1.1,1.3-1.6,1.1c-0.5-0.2-0.7-1.1-0.4-1.9c0.3-0.8,1.1-1.3,1.6-1.1
						C50.6,93.1,50.8,94,50.4,94.8z"/>
				</g>
			</g>
			<path class="st5" d="M56.1,93.8c-1.8-1.3-3.7-2.2-6-1.4c-2.5,0.9-4.5,3.7-7.2,3.8c1-0.9,2-2,2.9-3.1c-0.7,0.3-1.4,0.6-2.1,0.9
				c0.9-1.2,1.9-2.3,2.8-3.5c0.7-0.9,1.5-1.8,2.5-2.5c1.6-1,3.7-1,5.4,0c0-0.5-0.1-1.1-0.4-1.5c0.7,0.9,2.1,0.9,2.8,2.1
				c0.7,1.1,1.1,2.7,1.2,4c-0.5-0.2-1-0.4-1.5-0.4c0.4,0.6,0.6,1.4,0.5,2.1C56.7,94.2,56.4,94,56.1,93.8z"/>
			<g>
				<g>
					<circle cx="72.9" cy="95.6" r="3.8"/>
					<path class="st5" d="M71.9,94.8c-0.3,0.8-1.1,1.3-1.6,1.1c-0.5-0.2-0.7-1.1-0.4-1.9c0.3-0.8,1.1-1.3,1.6-1.1
						C72.1,93.1,72.3,94,71.9,94.8z"/>
				</g>
			</g>
			<path class="st5" d="M68.1,93.8c1.8-1.3,3.7-2.2,6-1.4c2.5,0.9,4.5,3.7,7.2,3.8c-1-0.9-2-2-2.9-3.1c0.7,0.3,1.4,0.6,2.1,0.9
				c-0.9-1.2-1.9-2.3-2.8-3.5c-0.7-0.9-1.5-1.8-2.5-2.5c-1.6-1-3.7-1-5.4,0c0-0.5,0.1-1.1,0.4-1.5c-0.7,0.9-2.1,0.9-2.8,2.1
				c-0.7,1.1-1.1,2.7-1.2,4c0.5-0.2,1-0.4,1.5-0.4c-0.4,0.6-0.6,1.4-0.5,2.1C67.6,94.2,67.8,94,68.1,93.8z"/>
		</g>
	</g>
</g>
<g>
	<path class="st19" d="M196.1,135c0.5-0.3,0.9-0.7,1.4-1.2c-1.6-0.1-3.2-0.2-4.8-0.3c1.4-0.6,2.8-1.3,4.2-1.9c-3.1-0.1-6-1.3-9-2.1
		c-2.2-0.6-4.7-0.9-6.9-0.3c-1.9,0.5-3.8,0.7-5.7,1.2c-2.3,0.6-6.5,3.4-2.5,5.5c1.8,0.9,3.8,1.5,5.8,2.1c2,0.6,4.1,1.3,6.2,1.7
		c2,0.4,4.4,0.4,6.5-0.2c1.1-0.3,2.2-0.8,3.1-1.4c0.3-0.2,2.5-1.8,2.8-1.8c-0.8-0.1-2.1-0.4-2.9-0.4
		C194.9,135.8,195.6,135.5,196.1,135z"/>
	<path class="st1" d="M189.2,145.8c0,3.8-12.6,6.9-28.2,6.9c-15.6,0-28.2-3.1-28.2-6.9c0-3.8,12.6-6.9,28.2-6.9
		C176.6,139,189.2,142,189.2,145.8z"/>
	<path class="st20" d="M153,130.7c-0.3-1.4-0.8-2.7-1.3-3.9c-0.1-0.2-0.1-0.4-0.2-0.5c0,0,0-0.1,0-0.1c-0.1-0.2-0.1-0.3-0.2-0.4
		c-0.5-1.3-0.7-2.1-2.7-2.8c-3.6-1.4-7-0.7-10.5,0.6c-3,1.2-3.3,3.7-3.5,6.4c0,0.7,0,1.4,0.1,2.1c0,0,0,0.1,0,0.1
		c0,0.2,0.1,0.4,0.1,0.5c0,0,0,0.1,0,0.1c0.2,0.9,0.5,1.8,1,2.7c0.3,0.6,0.8,1.2,1.2,1.8c0.2,0.2,3,2.7,2.7,2.8
		c-1.5,0.8-3.9,0.1-3.6,2.5c0.4,2.7,4.8,2.1,7,1.8c2.1-0.2,4.4-0.2,6.2-1c0.9-0.4,1.6-0.9,2.2-1.8
		C153.8,138.4,153.9,134.4,153,130.7z"/>
	<path class="st20" d="M188.1,129.9c-0.1-2.6-0.5-5.2-3.5-6.4c-3.5-1.4-6.9-2.1-10.5-0.6c-2,0.8-2.3,1.5-2.7,2.8
		c-0.1,0.1-0.1,0.3-0.2,0.4c0,0,0,0.1,0,0.1c-0.1,0.2-0.1,0.3-0.2,0.5c-0.5,1.2-1,2.5-1.3,3.9c-0.9,3.7-0.8,7.6,1.4,10.9
		c0.6,0.9,1.3,1.4,2.2,1.8c1.8,0.8,4.1,0.7,6.2,1c2.2,0.2,6.6,0.9,7-1.8c0.3-2.4-2-1.7-3.6-2.5c-0.3-0.2,2.5-2.6,2.7-2.8
		c0.5-0.5,0.9-1.1,1.2-1.8c0.5-0.8,0.8-1.7,1-2.7c0,0,0-0.1,0-0.1c0-0.2,0.1-0.4,0.1-0.5c0,0,0-0.1,0-0.1
		C188.1,131.3,188.1,130.6,188.1,129.9z"/>
	<path class="st20" d="M159.2,109.2c-4.4,0-8.4,2.3-12.6,3.2c-3.6,0.7-4.5,7-4.7,10.5c-0.1,1.9-0.6,4.3,0.1,6.1
		c0.5,1.2,0.8,1.8,1,3.2c0.3,1.6,0.7,3.3,1.4,4.7c1.2,2.3,2,4.4,3.9,6c1.7,1.4,4.4,2.1,6.5,1.9c2.4-0.2,4.8,0.2,7.2,0
		c2.6-0.2,5.4,0.1,7.8-1.1c2.2-1.1,4.6-1.7,6.5-3.6c2.2-2.2,3.5-5.7,4-9c0.4-2.6,0.4-5,0.1-7.6c-0.5-4.6-1.4-8.9-5.5-10.9
		c-1.7-0.8-3.4-1.9-5.2-2.2C166.3,109.7,162.8,109.2,159.2,109.2z"/>
	<path class="st20" d="M174.9,130.4c0.5,8.1-6.2,15.5-13.2,15.3c-5.7-0.2-9.3-1.2-12.5-7.4c-1.5-3-1.6-6.4-1.7-9.9
		c-0.3-9.3,6.4-11.4,12.2-11.7c4.1-0.3,10.1-0.6,12.9,4.3C173.8,123.1,174.8,127.6,174.9,130.4z"/>
	<path class="st21" d="M173.6,104.4c-3.1-2.4-7.8-3.4-11.9-2.7c-4.1-0.7-8.8,0.2-11.9,2.7c-4,3.1-6.9,10-4.5,14.9
		c2.4,5.1,9.6,9,15,8.9c1.9,0,3.8-0.5,5.6-1c5.2-1.4,10.8-3.5,12.4-9.1C179.7,113.2,177.6,107.6,173.6,104.4z"/>
	<g>
		<path class="st22" d="M176.2,99.6c-0.6-1.5-1.9-3.1-2.8-4.3c-2.8-3.9-7.8-4.7-12.3-4.4c-4.5-0.3-9.5,0.4-12.3,4.4
			c-0.9,1.2-2.2,2.8-2.8,4.3c-0.8,1.9-0.8,5.2,0,7.1c0.7,1.8,2.2,3.3,3.5,4.4c2.9,2.4,6.5,3.6,9.9,3.8c0.6,0,1.1,0.1,1.7,0.1v0
			c0,0,0.1,0,0.1,0c0,0,0.1,0,0.1,0v0c0.6,0,1.1,0,1.7-0.1c3.5-0.2,7-1.3,9.9-3.8c1.3-1.1,2.7-2.7,3.5-4.4
			C177,104.8,176.9,101.5,176.2,99.6z"/>
		<g>
			<path class="st21" d="M184.8,79.7c-0.3-2.8-0.6-5.8-2-8.3c-3.5-6.1-13.2-7.4-21.1-7.4v0c-0.1,0-0.2,0-0.2,0c-0.1,0-0.2,0-0.2,0v0
				c-7.9,0-17.6,1.3-21.1,7.4c-1.4,2.5-1.7,5.4-2,8.3c0,3.6-0.7,7.1-0.4,10.7c0.8,10.5,13.2,18.1,23.5,18.4v0c0.1,0,0.2,0,0.2,0
				c0.1,0,0.2,0,0.2,0v0c10.4-0.3,22.7-7.9,23.5-18.4C185.5,86.8,184.8,83.3,184.8,79.7z"/>
			<path class="st5" d="M169,104.3c-2.1-1.1-4.7-1.3-7.2-1.2c-0.1,0-0.2,0-0.3,0c-0.1,0-0.2,0-0.3,0c-2.5-0.1-5.1,0.1-7.2,1.2
				c-8.6,4.3,2,8.1,7.3,8.4c0,0,0.1,0,0.1,0v0c0,0,0,0,0,0c0,0,0,0,0,0v0c0,0,0.1,0,0.1,0C166.9,112.4,177.5,108.6,169,104.3z"/>
			<path d="M157.6,109.3c1.1,0,2.2-0.3,3.3-0.4c0.9-0.1,1.7-0.1,2.6,0.1c0.8,0.1,1.6,0.3,2.4,0.2c0.8-0.1,1.6-0.5,1.9-1.3
				c0.2-0.8-0.2-1.6-0.7-2.2c-0.9-0.9-2.2-1.3-3.4-1.4c-1.3-0.1-2.5,0.1-3.8,0.4c-1.1,0.2-2.2,0.5-3.2,1.1
				C154.2,107.3,154.8,109.3,157.6,109.3z"/>
			<path class="st5" d="M175.3,93.4c-2.7-3.4-7.7-5.4-12.7-5.7c-0.4,0-0.8,0-1.1,0c-0.4,0-0.8,0-1.1,0c-5,0.2-10,2.2-12.7,5.7
				c-2.4,3-4.2,9.4-2.1,12.7c1.3,1.9,4,2.7,6.7,2.4c3.3-0.3,6.2-1,9.3-1.2c3.1,0.2,6.1,0.9,9.4,1.2c2.7,0.2,5.3-0.5,6.6-2.4
				C179.6,102.8,177.7,96.4,175.3,93.4z"/>
			<path class="st5" d="M170.1,89.4c-2.7-1.3-5-9.3-4.3-12.2c0.6-2.6,0.9-5.5,2.8-7.6c-1.6-0.1-3.9,0.8-5,1.8
				c-0.1,0.1-1.9-3.3-2.1-3.5c-0.2,0.3-1.9,3.6-2,3.5c-1.2-1.1-3.4-2-5-1.8c1.9,2.1,2.2,5,2.8,7.6c0.7,2.9-1.6,11-4.3,12.2
				c-6.4,3,0.8,3.2,3.5,5.6c1.4,1.3,3.2,1.5,5,1c0,0,0.1,0,0.1,0c0,0,0.1,0,0.1,0c1.7,0.4,3.5,0.3,5-1
				C169.2,92.6,176.5,92.4,170.1,89.4z"/>
			<path d="M167.6,95c0,2.7-2.8,5-6.2,5c-3.4,0-6.2-2.2-6.2-5c0-2.7,2.8-3.1,6.2-3.1C164.9,91.9,167.6,92.2,167.6,95z"/>
			<g>
				<path d="M145.9,83.7c0,3.2,1.3,5.7,2.8,5.7c1.6,0,2.8-2.6,2.8-5.7c0-3.2-1.3-5.7-2.8-5.7C147.1,77.9,145.9,80.5,145.9,83.7z"/>
				<path class="st5" d="M148.6,81.8c-0.4,1-1.1,1.5-1.7,1.2c-0.6-0.3-0.8-1.3-0.4-2.3c0.4-1,1.1-1.5,1.7-1.2
					C148.7,79.8,148.9,80.8,148.6,81.8z"/>
			</g>
			<g>
				<path d="M171.5,83.7c0,3.2,1.3,5.7,2.8,5.7c1.6,0,2.8-2.6,2.8-5.7c0-3.2-1.3-5.7-2.8-5.7C172.7,77.9,171.5,80.5,171.5,83.7z"/>
				<path class="st5" d="M174.2,81.8c-0.4,1-1.1,1.5-1.7,1.2c-0.6-0.3-0.8-1.3-0.4-2.3c0.4-1,1.1-1.5,1.7-1.2
					C174.3,79.8,174.5,80.8,174.2,81.8z"/>
			</g>
			<path d="M161.5,108.3c-0.4,0-0.7-0.3-0.7-0.7v-8.7c0-0.4,0.3-0.7,0.7-0.7c0.4,0,0.7,0.3,0.7,0.7v8.7
				C162.2,107.9,161.9,108.3,161.5,108.3z"/>
		</g>
		<g>
			<g>
				<g>
					<path class="st23" d="M137.3,65.2c1.7-0.6,3.5-0.9,5.3-1.1c0.7-0.1,1.4,0.1,2.1,0.3c1.6,0.5,3.6,0.5,3.7,1.4
						c0.5,3.2-2.7,4.8-4.2,7.1c-1.6,2.3-1.9,5.6-2.3,8.4c-1,6.8-0.8,13.7,0.6,20.4c1.2,6,3.4,12.3,0.9,17.9
						c-0.4-1.8-1.2-3.6-2.4-5.1c-0.8,2.4-1.8,4.7-2.9,6.9c-1-1.2-1.6-2.6-1.9-4.1c-1.5,2.4-1.7,2.6-4.1,4.5c-1.1-1.2-2.5-2-2.6-3.3
						c-0.4,1.7-4.9,3.2-5,3.8c0.1-1.1,0.2-2.1,0.3-3.2c-1.7,2.1-4.2,3.4-6.8,3.6c1.7-5.5-3.3-11.4-1.9-17c1-3.8,4.8-6.6,4.9-10.5
						c0.2-3.2-0.4-6.3,0.1-9.5c0.6-4.3,3.5-5.8,6.1-8.6c3.1-3.3,2.9-7.9,7-10.6C135.3,66,136.2,65.6,137.3,65.2z"/>
				</g>
				<g>
					<path class="st23" d="M185.7,65.2c-1.7-0.6-3.5-0.9-5.3-1.1c-0.7-0.1-1.4,0.1-2.1,0.3c-1.6,0.5-3.6,0.5-3.7,1.4
						c-0.5,3.2,2.7,4.8,4.2,7.1c1.6,2.3,1.9,5.6,2.3,8.4c1,6.8,0.8,13.7-0.6,20.4c-1.2,6-3.4,12.3-0.9,17.9c0.4-1.8,1.2-3.6,2.4-5.1
						c0.8,2.4,1.8,4.7,2.9,6.9c1-1.2,1.6-2.6,1.9-4.1c1.5,2.4,1.9,3.4,4.6,4.4c0.9-1.8,2.1-1.8,2.1-3.2c0.4,1.7,4.9,3.2,5,3.8
						c-0.1-1.1-0.2-2.1-0.3-3.2c1.7,2.1,4.2,3.4,6.8,3.6c-1.7-5.5,3.3-11.4,1.9-17c-1-3.8-4.8-6.6-4.9-10.5
						c-0.2-3.2,0.4-6.3-0.1-9.5c-0.6-4.3-3.5-5.8-6.1-8.6c-3.1-3.3-2.9-7.9-7-10.6C187.7,66,186.7,65.6,185.7,65.2z"/>
				</g>
			</g>
		</g>
	</g>
	<path class="st24" d="M141.9,136.9c0.5,0.5,1.2,0.9,1.8,1.3c0.2-0.6,0.5-1.2,0.8-1.8c0.2,0.6,0.6,1.1,1,1.6c0.2-0.5,0.5-1,0.8-1.4
		c-0.1,1.2,0.7,2.2,1.3,3.3c0.6,1,1.1,2.3,0.4,3.3c-0.4,0.6-1.2,1-2,1.2c-2,0.6-4.2,0.8-6.3,0.6c-1.2-0.1-2.5-0.5-3.4-1.4
		c-0.8-0.9-0.9-2.4,0.2-3c0.5-0.3,2.6-0.3,2.8-0.7c0.3-0.6-1.4-1.6-1.6-2c0.1,0.1,2.4,0.6,2.7,0.7c0.7,0.2,0.5,0.2,0.9-0.3
		C141.6,137.9,141.7,137.3,141.9,136.9z"/>
	<path class="st24" d="M181,136.9c-0.5,0.5-1.2,0.9-1.8,1.3c-0.2-0.6-0.5-1.2-0.8-1.8c-0.2,0.6-0.6,1.1-1,1.6
		c-0.2-0.5-0.5-1-0.8-1.4c0.1,1.2-0.7,2.2-1.3,3.3c-0.6,1-1.1,2.3-0.4,3.3c0.4,0.6,1.2,1,2,1.2c2,0.6,4.2,0.8,6.3,0.6
		c1.2-0.1,2.5-0.5,3.4-1.4c0.8-0.9,0.9-2.4-0.2-3c-0.5-0.3-2.6-0.3-2.8-0.7c-0.3-0.6,1.4-1.6,1.6-2c-0.1,0.1-2.4,0.6-2.7,0.7
		c-0.7,0.2-0.5,0.2-0.9-0.3C181.3,137.9,181.2,137.3,181,136.9z"/>
	<g>
		<path class="st21" d="M150.7,137.9c0.4,1.1,0.7,2.3,1.3,3.3c0.6-1,1.3-2.1,1.9-3.1c0.3,1.2,0.5,2.3,0.8,3.5c0.5-0.7,1-1.4,1.6-2.1
			c-0.1-1.2-0.1-2.4-0.1-3.7c0-0.3,0-0.5,0.1-0.8c0.3-3.9,1.1-7.9,0.5-11.4c-0.2-1.4-0.7-2.7-1.5-3.8c-0.7-1-1.7-2-3.1-2.7
			c-1.9-1.1-3.3-0.9-4.2,0c-1.6,1.6-2,5.3-1.9,8.1c0,2.4,0.3,4.7,0.7,6.9c0,0,0,0,0,0c0.1,0.4,0.2,0.9,0.3,1.3
			c0,0.2,0.1,0.4,0.1,0.6c0.3,1.3,0.6,2.7,0.8,4c0.6,0.8,1.1,1.6,1.5,2.5C149.9,139.8,150.3,138.8,150.7,137.9z"/>
		<path class="st5" d="M156.7,144.2c-0.1-1.5-0.2-3-0.3-4.6c-0.6,0.6-1.2,1.3-1.6,2.1c-0.3-1.2-0.5-2.3-0.8-3.5
			c-0.6,1-1.3,2.1-1.9,3.1c-0.6-1-0.9-2.2-1.3-3.3c-0.4,0.9-0.8,1.8-1.2,2.8c-0.4-0.9-0.9-1.8-1.5-2.5c0.1,0.9,0.2,1.8,0.2,2.6
			c0,0.5,0,0.9-0.1,1.1c0,0.1,0,0.3-0.1,0.4c-0.2,0.7-0.6,0.8-1.2,1.8c-5,9,9.6,10,9.8,2.4c0-0.6,0-1.3,0-1.9
			C156.7,144.4,156.7,144.3,156.7,144.2z"/>
	</g>
	<g>
		<path class="st21" d="M172.8,137.9c-0.4,1.1-0.7,2.3-1.3,3.3c-0.6-1-1.3-2.1-1.9-3.1c-0.3,1.2-0.5,2.3-0.8,3.5
			c-0.5-0.7-1-1.4-1.6-2.1c0.1-1.2,0.1-2.4,0.1-3.7c0-0.3,0-0.5-0.1-0.8c-0.3-3.9-1.1-7.9-0.5-11.4c0.2-1.4,0.7-2.7,1.5-3.8
			c0.7-1,1.7-2,3.1-2.7c1.9-1.1,3.3-0.9,4.2,0c1.6,1.6,2,5.3,1.9,8.1c0,2.4-0.3,4.7-0.7,6.9c0,0,0,0,0,0c-0.1,0.4-0.2,0.9-0.3,1.3
			c0,0.2-0.1,0.4-0.1,0.6c-0.3,1.3-0.6,2.7-0.8,4c-0.6,0.8-1.1,1.6-1.5,2.5C173.5,139.8,173.1,138.8,172.8,137.9z"/>
		<path class="st5" d="M166.7,144.2c0.1-1.5,0.2-3,0.3-4.6c0.6,0.6,1.2,1.3,1.6,2.1c0.3-1.2,0.5-2.3,0.8-3.5c0.6,1,1.3,2.1,1.9,3.1
			c0.6-1,0.9-2.2,1.3-3.3c0.4,0.9,0.8,1.8,1.2,2.8c0.4-0.9,0.9-1.8,1.5-2.5c-0.1,0.9-0.2,1.8-0.2,2.6c0,0.5,0,0.9,0.1,1.1
			c0,0.1,0,0.3,0.1,0.4c0.2,0.7,0.6,0.8,1.2,1.8c5,9-9.6,10-9.8,2.4c0-0.6,0-1.3,0-1.9C166.7,144.4,166.7,144.3,166.7,144.2z"/>
	</g>
</g>
</svg>
