<?xml version="1.0" encoding="utf-8"?>
<!-- Generator: Adobe Illustrator 24.2.3, SVG Export Plug-In . SVG Version: 6.00 Build 0)  -->
<svg version="1.1" id="Layer_1" xmlns="http://www.w3.org/2000/svg" xmlns:xlink="http://www.w3.org/1999/xlink" x="0px" y="0px"
	 viewBox="0 0 800 186" style="enable-background:new 0 0 800 186;" xml:space="preserve">
<style type="text/css">
	.st0{fill:#372D3A;}
	.st1{opacity:0.3;}
	.st2{fill:#C4908C;}
	.st3{fill:#453F4C;}
	.st4{fill:#DFB3AE;}
	.st5{fill:#7DAF68;}
	.st6{fill:#EFC1AF;}
	.st7{fill:#FFFFFF;}
	.st8{fill:#8C5522;}
	.st9{fill:#B27436;}
	.st10{fill:#C68947;}
	.st11{fill:#F2BB79;}
	.st12{fill:#552D0A;}
	.st13{fill:#BF7532;}
	.st14{fill:#45484C;}
	.st15{fill:#D68C43;}
	.st16{fill:#535659;}
	.st17{fill:#EFAA5E;}
	.st18{fill:#6DAEE6;}
	.st19{fill:#B58352;}
	.st20{fill:#A55A1C;}
	.st21{fill:#FEFCFC;}
	.st22{fill:#C1742E;}
	.st23{fill:#D1D1D1;}
	.st24{fill:#1C75BC;}
	.st25{fill:#404241;}
	.st26{fill:#D6878B;}
	.st27{fill:#7F4721;}
	.st28{fill:#E1D6D0;}
	.st29{fill:#9E938F;}
	.st30{fill:#A0693F;}
	.st31{fill:#2E3192;}
	.st32{fill:#F4EFEC;}
	.st33{fill:#DBB086;}
	.st34{fill:#AD7D4D;}
	.st35{fill:#BCAFAA;}
	.st36{fill:#262324;}
	.st37{fill:#3D393A;}
	.st38{fill:#F7941D;}
	.st39{fill:#D3ACA3;}
	.st40{fill:#492B20;}
	.st41{fill:#6B4738;}
	.st42{fill:#00AEEF;}
	.st43{fill:#282525;}
	.st44{fill:#E5CDC6;}
	.st45{fill:#ADADAD;}
	.st46{fill:#C1C1C1;}
	.st47{fill:#EF4136;}
</style>
<g>
	<path class="st0" d="M478.7,123.6c0,0.4,0,0.7-0.1,1.1c-0.3,3.2-6.9,14.9-10.3,8.8c-1.4-2.4,2.8-3.1,4.4-4.3c2.6-1.8,3.1-4,3.1-7
		c0-1.5,0.4-3.3,1.1-4.6c0.4-0.6,2.8-3.4,3.4-1.9c0.2,0.4-0.3,0.8-0.6,1.2C478.3,119.2,478.7,121,478.7,123.6z"/>
	<path class="st1" d="M486.1,145.4c0,4-11.9,7.3-26.5,7.3c-14.6,0-26.5-3.3-26.5-7.3c0-4,11.9-7.3,26.5-7.3
		C474.2,138.1,486.1,141.4,486.1,145.4z"/>
	<g>
		<g>
			<path class="st0" d="M451.9,136.1c-3.1-4.4-8.8-7.6-12-2.2c-1.4,2.5,0.7,6,2.2,7.9c0.5,0,1.1,0.1,1.6,0c0.8,0,1.6-0.2,2.3,0.1
				c0.9,0.3,1.4,1.1,1.5,2.1c0.1,0.7-0.2,1.3-0.6,1.8c1.8-0.4,3.6-1,4.8-2.5C453.2,141.4,453.3,138.1,451.9,136.1z"/>
			<path class="st2" d="M447.5,143.9c-0.1-0.9-0.6-1.7-1.5-2.1c-0.7-0.3-1.5-0.1-2.3-0.1c-0.5,0-1.1,0-1.6,0c0,0,0,0,0,0.1
				c-0.8,0.4-1.8,0-2.6,0.8c-0.6,0.7-0.7,2,0,2.7c1.6,1.8,4.3,0.9,6.2,0.6c0.4-0.1,0.7-0.1,1.1-0.2
				C447.3,145.2,447.6,144.6,447.5,143.9z"/>
		</g>
		<g>
			<path class="st0" d="M467.1,136.1c3.1-4.4,8.8-7.6,12-2.2c1.4,2.5-0.7,6-2.2,7.9c-0.5,0-1.1,0.1-1.6,0c-0.8,0-1.6-0.2-2.3,0.1
				c-0.9,0.3-1.4,1.1-1.5,2.1c-0.1,0.7,0.2,1.3,0.6,1.8c-1.8-0.4-3.6-1-4.8-2.5C465.9,141.4,465.7,138.1,467.1,136.1z"/>
			<path class="st2" d="M471.5,143.9c0.1-0.9,0.6-1.7,1.5-2.1c0.7-0.3,1.5-0.1,2.3-0.1c0.5,0,1.1,0,1.6,0c0,0,0,0,0,0.1
				c0.8,0.4,1.8,0,2.6,0.8c0.6,0.7,0.7,2,0,2.7c-1.6,1.8-4.3,0.9-6.2,0.6c-0.4-0.1-0.7-0.1-1.1-0.2
				C471.7,145.2,471.5,144.6,471.5,143.9z"/>
		</g>
	</g>
	<path class="st0" d="M459.6,119.9c-2.4,0-5.2-0.6-7.5,0.4c-7.8,3.3-7.9,16.2-3,22.1c2.8,3.4,7.7,3.3,11.7,3.2
		c4.6-0.1,8.1,0.6,9.7-4.3c1.1-3,1.9-6.1,2.5-9.3C474.7,123.5,466.5,119.9,459.6,119.9z"/>
	<path class="st2" d="M468.1,125.1c-2.1-4-8.2-4.1-11.5-3.1c-2.6,0.8-5.1,1.8-6.6,4.8c-0.9,1.8-1,3.6-0.5,5.5c0.3,1,0.7,2,1,3
		c0.3,0.9,0.1,1.3,0.2,2.1c0.3,2.5,1.9,5.4,3.3,7.2c0.4,0.5,0.7,0.9,1.2,1.3c2.4,0.2,7,0.3,9.4,0.1c1.3-1.3,2.3-3.3,3.1-5
		C470.1,136.9,470.8,130.1,468.1,125.1z"/>
	<path class="st3" d="M454.6,126.6c-1.3-0.1-2.2-0.3-3.2,0.7c-1.2,1.3-0.7,3.2,1.1,3.5c1.7,0.2,3-0.8,4.8,0.1c1.5,0.8,2.6,1,4.3,0.4
		c1.8-0.7,2.7-0.9,4.6-0.5c0.9,0.2,1.4,0.2,1.9-0.7c0.6-1.2,0.1-3.1-1-3.7c-1-0.6-2.7-0.3-3.9-0.2c-1.5,0.2-2.7,0.8-4.3,0.7
		C457.5,126.8,456,126.8,454.6,126.6z"/>
	<g>
		<g>
			<path class="st3" d="M464.8,128.6c0,0,2.6,7.8-1.4,17.5l5.8,1.4c0,0,6-13.1-0.1-23.2L464.8,128.6z"/>
			<g>
				<g>
					<g>
						<path class="st4" d="M462.7,146.2c-0.3,1.9,1.3,3.7,3.6,4.1c2.3,0.3,4.5-0.9,4.8-2.9c0.3-1.9-1.3-3.7-3.6-4.1
							C465.2,143,463,144.3,462.7,146.2z"/>
					</g>
				</g>
			</g>
		</g>
		<g>
			<path class="st3" d="M454.3,128.6c0,0-2.6,7.8,1.4,17.5l-5.8,1.4c0,0-6-13.1,0.1-23.2L454.3,128.6z"/>
			<g>
				<g>
					<g>
						<path class="st4" d="M456.4,146.2c0.3,1.9-1.3,3.7-3.6,4.1c-2.3,0.3-4.5-0.9-4.8-2.9c-0.3-1.9,1.3-3.7,3.6-4.1
							C453.9,143,456,144.3,456.4,146.2z"/>
					</g>
				</g>
			</g>
		</g>
	</g>
	<path class="st5" d="M447.8,119.1c-0.6,1.3-0.6,3.5,0,4.7c0.6,1.2,1.6,2.2,2.6,2.9c2.2,1.6,4.8,2.4,7.4,2.5
		c3.8,0.2,7.7,0.2,10.8-2.4c1.5-1.3,2.8-2.7,3.1-4.9c0.7-5.8-4.3-7.1-8.6-8c-4-0.8-10.2-1.4-13.3,2.4
		C449.2,117.1,448.2,118.2,447.8,119.1z"/>
	<g>
		<path class="st3" d="M477.4,110.5c2.1-5.4,2.1-11.2-1.5-15.5c-2.2-2.7-5.9-4.9-9.1-5.9c-2.6-0.8-5.3-1-8-0.7
			c-2.1,0.2-4.5,0.3-6.9,0.6c-2.1,0.3-4.2,0.8-5.9,1.9c-6.9,4.5-6.9,13.2-3.8,20.3c3.6,8.5,10,14.6,19.2,13.8
			C467.8,124.6,474.6,118,477.4,110.5z"/>
		<path class="st6" d="M477.1,111.4c-1,0-2.8,0.9-3.5,1.1c-1.6,0.4-3.3,0.6-5,0.3c-1.9-0.3-3.4-0.4-4.3-2.3c-0.1-0.3-0.3-0.8-0.5-1
			c-1.3-0.8-0.4,1.8-0.3,2.3c0.1,0.5,0.5,2.5-0.4,2.8c-0.9,0.3-1.8,0.5-2.7,0.6c-1,0.1-1.9-0.1-2.8-0.1c-0.7,0-1.1,0.2-1.6-0.4
			c-0.8-0.8-0.6-2.5-0.4-3.5c0.1-0.5,0.6-1.3,0-1.5c-0.8-0.4-1.1,1-1.4,1.4c-0.4,0.6-1.2,1.2-1.9,1.5c-1.8,0.6-3.7,0.6-5.6,0.3
			c-0.5-0.1-4-0.5-4.2-0.9c3.7,8.2,9.9,14,18.9,13.2C467.6,124.7,474,118.5,477.1,111.4z"/>
	</g>
	<path d="M463.5,114c0,1.6-1.8,2.8-4,2.8c-2.2,0-3.9-1.3-3.9-2.9c0-1.6,1.8-2.8,4-2.8C461.7,111.1,463.5,112.4,463.5,114z"/>
	<path d="M459.5,120.3c-0.7,0.2,0.1-1.3-0.2-2.8c-0.1-0.8-0.8-2.2-0.3-2.4C460.4,114.7,460.5,120.5,459.5,120.3
		C459.5,120.3,459.6,120.3,459.5,120.3z"/>
	<path d="M463.8,121.3c-1.3,0-2.7-0.3-3.9-0.7c-0.6-0.2-1.3,0.2-2,0.3c-0.7,0.1-1.4,0.1-2.1,0.1c-1.2,0.1-3.3-0.8-2.5-2.2
		c0.7-1.1,1.6,0.2,0.9,0.3c-0.8,0.2,0.3,1.1,0.7,1.1c1.3,0.1,2.7,0,3.9-0.4c1.1-0.4,2.3,0.3,3.5,0.5c0.8,0.1,1.8,0.4,2.6,0
		c1-0.4-0.1-1.5,0.5-1.8c0.7-0.4,0.8,1.4,0.6,1.8C465.6,121.1,464.6,121.3,463.8,121.3C463.5,121.3,464.6,121.3,463.8,121.3z"/>
	<g>
		<path class="st6" d="M464,98.6c3.2-2.7,6,2.7,1.9,3.8C463.4,103.1,461.8,100.5,464,98.6z"/>
		<path class="st6" d="M455.1,98.6c-3.2-2.7-6,2.7-1.9,3.8C455.7,103.1,457.2,100.5,455.1,98.6z"/>
	</g>
	<g>
		<g>
			<path class="st7" d="M474.8,106.8c0,2.7-2.2,4.8-4.9,4.8c-2.7,0-4.9-2.2-4.9-4.8c0-2.7,2.2-4.8,4.9-4.8
				C472.6,101.9,474.8,104.1,474.8,106.8z"/>
		</g>
		<g>
			<path class="st7" d="M454.1,106.8c0,2.7-2.2,4.8-4.9,4.8c-2.7,0-4.9-2.2-4.9-4.8c0-2.7,2.2-4.8,4.9-4.8
				C451.9,101.9,454.1,104.1,454.1,106.8z"/>
			<path d="M453.2,106.8c0,2.2-1.8,3.9-4,3.9c-2.2,0-4-1.8-4-3.9c0-2.2,1.8-3.9,4-3.9C451.4,102.8,453.2,104.6,453.2,106.8z"/>
			<path class="st7" d="M446.5,105c1-2,3.6-0.7,1.8,0.9C447.2,106.9,445.9,106.3,446.5,105z"/>
		</g>
	</g>
	<g>
		<g>
			<path class="st3" d="M489.3,77.7c-3.1-3.2-12,3.3-14.5,4.8c-4.3,2.5-10.6,4.5-9.8,10.8c0.1,0.5,0.1,0.9,0.2,1.2
				c0.8,2.9,3.8,2.8,6.2,4c3,1.5,6.5,4.7,9.8,3.1c2.9-1.3,4.7-5.5,5.9-8.1c1.3-2.9,0.8-6,1.3-9.1C488.6,82.6,490.9,79.3,489.3,77.7z
				"/>
			<path class="st6" d="M472.5,91.2c-0.1,0.1-0.2,0.2-0.4,0.3c1.1,0.2,2.1-0.1,3.1,0c-0.5,1.2-1.9,1.9-2.7,2.9
				c1.1,0.8,2,1.8,2.7,3.1c1,2,2.1,3.3,4.5,2.5c4.3-1.4,5.5-9.4,5.8-13.2c0.1-1.7,1.3-3.2,1.3-4.7c0.1-5.5-11.7,3.7-12.7,4.2
				c-1,0.6-2.4,0.7-3.4,1.4c-0.9,0.6-1.6,1.7-2.5,2.4c2.1,0.3,4.3-1.3,6.2-1.3C473.9,89.7,473.2,90.5,472.5,91.2z"/>
		</g>
		<g>
			<path class="st3" d="M429.9,76.5c3.3-2.9,11.7,4.2,14.2,5.9c4.1,2.8,10.3,5.3,9,11.5c-0.1,0.4-0.2,0.8-0.3,1.2
				c-1,2.8-4,2.5-6.4,3.5c-3.1,1.3-6.8,4.2-10,2.4c-2.8-1.5-4.3-5.9-5.3-8.5c-1.1-3-0.4-6.1-0.6-9.1C430.2,81.4,428.2,78,429.9,76.5
				z"/>
			<path class="st6" d="M446.1,90.6c0.1,0.1,0.2,0.3,0.3,0.4c-1.1,0.2-2.1-0.3-3.1-0.3c0.4,1.3,1.8,2.1,2.5,3.1
				c-1.2,0.7-2.1,1.7-2.9,2.9c-1.2,1.9-2.3,3.2-4.6,2.2c-4.2-1.8-4.8-9.8-4.8-13.6c0-1.7-1-3.2-1-4.8c0.3-5.5,11.4,4.5,12.4,5.2
				c1,0.6,2.3,0.9,3.3,1.6c0.9,0.7,1.5,1.8,2.3,2.6c-2.1,0.2-4.2-1.6-6.1-1.7C444.9,88.9,445.5,89.8,446.1,90.6z"/>
		</g>
	</g>
	<g>
		<path d="M473.8,106.8c0,2.2-1.8,3.9-4,3.9c-2.2,0-4-1.8-4-3.9c0-2.2,1.8-3.9,4-3.9C472,102.8,473.8,104.6,473.8,106.8z"/>
		<path class="st7" d="M467.1,105c1-2,3.6-0.7,1.8,0.9C467.9,106.9,466.5,106.3,467.1,105z"/>
	</g>
</g>
<g>
	<path class="st8" d="M582.4,123.9c-0.6,0.2-1.2,0.4-1.8,0.6c-4.9,1.8-11.2,2.5-15-1.8c-5-5.6,1.4-10,6.4-12c2.6-1,5.8-0.8,8.3-2.1
		c0.6-0.3,3.9-3.6,3.6-3.5c-1.1,0.2-2.6-0.4-3.6-0.2c0.7-0.8,1.1-2.3,1.8-3.1c-2.1-0.3-4,0.8-5.9,1.7c-0.2-0.2-0.3-0.3-0.5-0.5
		c0.6-1.1,0.5-2.4,0.9-3.5c-0.4,0.9-5.1,3-6.2,3.8c0.2-1.3,0.1-3.2,0.3-4.4c-1.1,0.3-2.5,0.7-3.5,1.3c0.6-2.6,3-5,5.4-6.4
		c-1.9-0.1-4,0-5.8-0.5c3.9-2.4,7.7-4.3,12.4-4.3c-0.7-0.5-1.9-1.8-2.7-2.2c3.5-0.4,7,1,10.5,0.7c-0.3-0.6-0.3-1.7-0.7-2.4
		c2.2-0.2,10.2,3.8,9.7,6.2c0.3-1.3,0.9-2.6,0.7-4.1c1.7,3.2,2.9,6.6,2.8,10.7c0.9-1.1,2.3-2.2,3.6-2.7c-0.5,3.2-0.3,7.1-2.3,10.1
		c1-1,2.6-1.7,3.7-2.1c-0.5,2.7-2.9,6.5-4.7,7.4c1.2-0.4,2.4-0.4,3.6-0.5c-1.6,1.8-4.7,4.1-6,4.7c0.6,0,1.4,0.2,1.9,0.1
		c-2.1,1.9-5.6,3.4-8.2,4.6c1.8-0.3,2.8,0.3,4,0.8C590.6,121.4,586.7,122.4,582.4,123.9z"/>
	<path class="st1" d="M599.1,142c0,5.9-19.7,10.7-44,10.7c-24.3,0-44-4.8-44-10.7c0-5.9,19.7-10.7,44-10.7
		C579.4,131.3,599.1,136.1,599.1,142z"/>
	<g>
		<path class="st9" d="M551.3,88c-7.8,0-14.9,3.5-22.4,4.8c-6.4,1.1-8.1,10.5-8.3,15.8c-0.1,2.8-1.1,6.5,0.2,9.2
			c0.8,1.8,1.4,2.7,1.9,4.8c0.5,2.5,1.2,4.9,2.5,7.1c2.2,3.4,3.5,6.6,7,9c3.1,2.1,7.8,3.1,11.5,2.8c4.2-0.3,8.5,0.2,12.7,0
			c4.5-0.2,9.6,0.2,13.9-1.7c3.9-1.7,8.2-2.6,11.6-5.5c4-3.4,6.1-8.5,7.1-13.5c0.8-3.8,0.7-7.5,0.2-11.4c-0.9-7-2.6-13.4-9.8-16.5
			c-3-1.3-5.9-2.9-9.2-3.4C563.9,88.7,557.5,88,551.3,88z"/>
		<path class="st9" d="M577.3,113c5.2-2,10.1-1,15,0.9c4.3,1.7,4.8,5.3,5,9.1c0.2,3.1-0.7,6.6-2.4,9.3c-1.2,1.9-4.3,3.1-5,5.2
			c2.2,1.1,5.6,0.1,5.1,3.5c-0.6,3.9-6.9,3-10.1,2.6c-4.5-0.5-9.5-0.1-12.1-3.9c-4.3-6.3-2.9-14.6-0.1-21
			C574,115.7,573.7,114.4,577.3,113z"/>
		<path class="st9" d="M532.3,112.7c-5.2-2-10.1-1-15,0.9c-4.3,1.7-4.8,5.3-5,9.1c-0.2,3.1,0.7,6.6,2.4,9.3c1.2,1.9,4.3,3.1,5,5.2
			c-2.2,1.1-5.6,0.1-5.1,3.5c0.6,3.9,6.9,3,10.1,2.6c4.5-0.5,9.5-0.1,12.1-3.9c4.3-6.3,2.9-14.6,0.1-21
			C535.6,115.4,535.9,114.1,532.3,112.7z"/>
		<path class="st10" d="M541.6,108.5c-0.2,0-0.4-0.1-0.5-0.1c-2.5-0.6-3.5,0.1-5.8,1.2c-3.2,1.6-5.2,4.5-5.8,7.8
			c-0.3,1.6,0.2,3.1,0.1,4.7c-0.2,2-0.9,4-0.2,6c0.4-0.5,0.8-1.2,1.4-1.6c0.6,2,0.9,4,1.7,5.9c0.1-0.6,0.3-1.2,0.7-1.8
			c0,1.7-0.2,4.1,1,5.4c0-0.4,0.2-0.7,0.3-1.1c2.2,3.1-4.2,8.1-4.5,11c-0.2,2,1.1,3.4,3.1,4.1c4,1.4,12,0,14.5-3.5
			c2.3-3.3,0.5-7.4,1.8-11c0.2,0.4,0.6,0.7,0.8,1.1c0.2-2.2-0.6-4.3-1-6.3c0.5,0.4,1,0.9,1.6,1.2c0.2-1.9-1.2-3.6-1.2-5.5
			c0-1.7,0.5-3.5,0.5-5.2c0.1-3.6-0.4-7.4-3.3-10.1C545.1,109.4,543.5,109,541.6,108.5z"/>
		<path class="st10" d="M567.3,108.5c0.2,0,0.4-0.1,0.5-0.1c2.5-0.6,3.4,0.1,5.7,1.2c3.2,1.6,5.2,4.5,5.7,7.8
			c0.3,1.6-0.2,3.1-0.1,4.7c0.2,2,0.9,4,0.2,6c-0.4-0.5-0.8-1.2-1.3-1.6c-0.6,2-0.9,4-1.6,5.9c-0.1-0.6-0.3-1.2-0.7-1.8
			c0,1.7,0.2,4.1-1,5.4c0-0.4-0.2-0.7-0.3-1.1c-2.2,3.1,4.1,8.1,4.4,11c0.2,2-1.1,3.4-3,4.1c-4,1.4-11.8,0-14.3-3.5
			c-2.3-3.3-0.5-7.4-1.7-11c-0.2,0.4-0.6,0.7-0.8,1.1c-0.2-2.2,0.6-4.3,1-6.3c-0.5,0.4-1,0.9-1.6,1.2c-0.2-1.9,1.2-3.6,1.2-5.5
			c0-1.7-0.5-3.5-0.5-5.2c-0.1-3.6,0.4-7.4,3.2-10.1C563.8,109.4,565.4,109,567.3,108.5z"/>
		<path class="st11" d="M595.1,90.4c-0.3-1.9-2.1-3.7-2-5.5c0.6,0.2,1.2,0.5,1.7,0.8c1.1-1-2-8.4-3.6-8.8c0.8,0.2,1.6,0.5,2.4,0.6
			c-0.7-0.1-2.3-2.8-3.1-3.3c-1-0.6-2.1-0.9-3.2-1.3c-3.1-1.1-6.2-2-9.4-3c-6.2-1.9-13.5-1.3-19.9-1.9c-1.1-0.1-2.1-0.2-3.2-0.3v0
			c-0.1,0-0.2,0-0.3,0c-0.1,0-0.2,0-0.3,0v0c-1.1,0.1-2.1,0.2-3.2,0.3c-6.5,0.6-13.7,0-19.9,1.9c-3.2,1-6.3,1.9-9.4,3
			c-1.1,0.4-2.3,0.7-3.2,1.3c-0.8,0.5-2.3,3.2-3.1,3.3c0.8-0.1,1.6-0.4,2.4-0.6c-1.6,0.4-4.7,7.8-3.6,8.8c0.5-0.3,1.1-0.6,1.7-0.8
			c0.1,1.8-1.7,3.7-2,5.5c-0.4,2.2-0.8,4.6-0.6,6.8c0.8-0.3,1.5-1.2,2.4-1.4c0.3,3.7,0.7,7.7,3.4,10.7c0.4-0.7,0.6-1.5,1.1-2.1
			c0,2.1,1,4.1,1.9,6c0.5,1.1,1.5,3.9,2.6,4.3c0.1-0.8,0.2-1.5,0.5-2.2c-0.4,1,3.8,3.7,4.4,4.5c1.5,1.7,3,3.5,5,4.8
			c0.1-1-0.1-2.1,0.5-2.9c0.9,1.2,3.8,3.6,5.2,3.9c0.1-0.9,0.3-1.7,0.5-2.6c1.4,1.2,2.9,2.6,4.6,3.3c0.2-1.1,0.5-2.3,1-3.3
			c0.2-0.3,4.6,3,4.8,3.9c0.3-0.9,0.6-2,1.1-2.7c1,1.2,0.8,3,1.9,4c0.9-1.5,1.7-3.2,2.8-4.6c-0.1,1.3,0.5,2.5,0.6,3.8
			c1.4-1.9,3.9-3.7,6-4.8c0.2,1,0,2.1-0.3,3c2.5-0.7,5.3-2.7,7.3-4.3c0.1,1.1,0,2.2-0.1,3.3c1.8-0.2,4-2.5,5.6-3.5
			c0,1.1-0.6,1.9-0.5,3c1.2-0.7,9.1-6.9,8.4-8.6c0.3,0.7,0.4,1.4,0.5,2.2c1.1-0.4,2.1-3.2,2.6-4.3c0.9-1.9,1.9-4,1.9-6
			c0.6,0.6,0.7,1.4,1.1,2.1c2.7-3,3.1-7,3.4-10.7c0.9,0.2,1.6,1.1,2.4,1.4C595.9,95,595.5,92.6,595.1,90.4z"/>
		<path class="st10" d="M591.3,75.8c0.7-0.1,1.3,0.1,1.8,0.5c-1.1-3.6-4.3-6.9-4-10.6c0,0.2,1,0.8,1.1,0.9c-1.2-2.4-1.1-5.3-2.1-7.9
			c0.3,0.1,0.8,0.1,1.1,0.2c-0.3-3.2-3-7.5-5.6-9.1c0.7-0.2,1-0.7,2-0.7c-2.2-2.8-9.7-7.7-13.1-7.7c0.7-0.8,2.2-1.3,2.9-1.7
			c-1.4-0.6-8.6-2.4-9.7-0.9c0.6-0.9,1.7-1.5,2.1-2.5c-1.5-0.1-3.4,0.7-4.8,1c-1.4,0.3-2.8,0.5-3.9,1.4c0.4-0.9,1-1.6,1.5-2.4
			c-2.7-0.2-6.2,1.7-8.4,3.2c-1.2-2.1-4.8-2.8-7.1-2.7c0.7,0.7,1.1,1.6,1.5,2.5c-1.6-0.3-2.9-1.4-4.4-2c-0.5-0.2-5.5-1-5.5-1
			c0.5,1.6,1.9,3,3.1,4.3c-2.6-1.8-5.6-0.6-8.4-0.3c-2.6,0.3-5-0.5-7,1.1c0.4-0.3,2.9,0.9,3.3,1.1c-3.5,3.4-7.2,4.7-8.2,9.9
			c-0.9,4.7-3.8,9.1-4,13.9c0.3-0.1,0.5-0.3,0.8-0.4c0.2,2.2-0.5,4.4-1.1,6.5c-0.5,1.9-0.5,3.8-0.7,5.7c-0.1,0.8-0.8,2.7-0.3,3.2
			c0.6-0.7,1.1-2,1.9-2.4c-0.9,0.4,2.8,10.3,3.2,11.3c0.5,1.1,0.9,2.5,1.6,3.5c1.1-0.8,1-1.6,1.8,0.1c0.5,1.2,1.5,2.9,2.5,3.6
			c0-1.1,0.4-2.4,1-3.2c0.3,1,1.2,1.6,1.9,2.3c0.2,0.2,2.4,2.3,2.4,2.3c0-0.6,0.4-1.1,0.3-1.8c0.7,1.2,1.8,1.1,2.7,1.9
			c1.1,1.1,1.4,3,2.7,4c0.1-0.7,0.7-1.4,0.8-2c0.5,2.1,3,6.2,5.4,6.3c0.2-0.9,0.4-1.7,0.6-2.6c1.6,0.8,3.7,3.3,5.1,4.7
			c0.1-0.9,0.6-1.5,1.1-2.1c0.7,1,1.8,2.6,3.1,2.2c1.2-0.4,0.7-2.2,2.5-2.1c0.3,5,5.2-0.4,7.2-0.5c0,0.5,0.4,1,0.3,1.5
			c1.5-0.5,2.1-1.6,3.2-2.6c1.2-1.1,1.2-0.9,2.6-1.2c2-0.3,4.7-1.5,5.8-3.5c-0.3,0.6-0.6,1.4-0.9,2c2.4-0.8,3.9-3.8,6.5-4.5
			c-0.1,0.7-0.4,1.4-0.3,2.2c2.6-1.9,5.1-4.7,7-7.4c0.3,1,0.1,2.2,0.2,3.3c1.1-1,1.2-4.1,1.6-5.6c0.5-2,0.5-5,1.4-6.7
			c0.9,0.5,1.4,1.8,2.4,2C592,82.8,591.1,79.3,591.3,75.8z"/>
		<path class="st11" d="M571.6,79.8c0.3,0,0.6,0,0.8,0c-0.5-1-1.5-2.2-2.3-3.1c-3-3-6.4-6.3-11-6.4c-2.6-0.1-5.1,0.5-7.7,0.4
			c-3.3-0.1-6.7,0.7-9.6,2.1c-1.2,0.6-2.3,1.3-3.3,2.2c-1.8,1.6-4.5,5.1-4.2,7.7c0.5-0.1,1-0.4,1.5-0.4c0.2,0.9-0.3,1.6-0.5,2.4
			c-0.3,1.1-0.3,2.2-0.4,3.3c-0.1,1.8,0.2,3.2,0.7,4.8c0.1-0.2,0.5-0.5,0.6-0.7c0.8,1.4,1.5,4.1,3.1,4.9c0.1-0.4,0.3-0.8,0.4-1.1
			c0.7,0.9,1.9,2.6,3.1,2.8c0.1-0.4,0.2-0.8,0.4-1.2c-0.4,0.6,3.1,2.5,3.5,2.8c0.4-0.6,0.8-1.3,1.1-1.9c0.8,0.9,1.5,2.5,2.7,2.9
			c0.1-0.4,0.2-1.2,0.5-1.6c0.7-1.2,3.2,0.9,3.9,1.8c0.7-0.5,1.2-1.6,2.1-1.8c1.1-0.3,1,0.7,1.5,1.4c0.9-0.6,1.7-1.5,2.4-2.3
			c0.3,0.7,1.1,1.2,1.2,1.9c0.1,0.6,3-2.3,3.2-2.5c0.6-0.8,1.8-3,2.4-1c0.4-0.5,0.7-1.1,1-1.7c1.4-2.8,3-5.7,3.6-8.9
			c0.3-1.2-0.1-6.6-1.9-6.8C570.8,79.8,571.2,79.8,571.6,79.8z"/>
		<path d="M562.2,71.9c0.7,7.3-18.3,8-18.3,0.9c0-4,6.3-3.8,9.1-4.1C555.7,68.4,561.9,68.1,562.2,71.9z"/>
		<path d="M571.5,65.2c1,0.6,2.2,1.2,2.4,1.8c1.3,2.9-6.2,3.3-7.9,2.7c-3-1-4.5-5-0.6-6c1.9-0.4,2.9-0.2,4.4,0.6
			C570.3,64.5,570.9,64.8,571.5,65.2z"/>
		<path class="st7" d="M566.4,66c-0.4,0.8-1.2,1.2-1.9,0.9c-0.7-0.3-0.9-1.1-0.6-1.9c0.4-0.8,1.2-1.2,1.9-0.9
			C566.5,64.4,566.8,65.2,566.4,66z"/>
		<path d="M535.7,65.6c-1,0.5-2.1,1.2-2.3,1.7c-1.3,2.8,5.9,3.1,7.5,2.6c2.9-1,4.3-4.8,0.6-5.7c-1.8-0.4-2.8-0.2-4.2,0.6
			C536.9,65,536.3,65.3,535.7,65.6z"/>
		<path class="st7" d="M537.1,66.5c-0.4,0.8-1.2,1.2-1.9,0.9c-0.7-0.3-0.9-1.1-0.6-1.9c0.4-0.8,1.2-1.2,1.9-0.9
			C537.2,64.8,537.5,65.7,537.1,66.5z"/>
		<path d="M567.1,85.1c-0.4-0.1-0.8,0.2-0.8,0.6c-0.5,3-3.3,4.6-5.9,4.9c-2.3,0.3-5.1-0.4-6.2-3.1c-0.1-0.2-0.2-0.3-0.4-0.4v0
			c0,0,0,0,0,0c0,0-0.1,0-0.1,0c0,0-0.1,0-0.1,0c0,0,0,0,0,0v0c-0.2,0.1-0.3,0.2-0.4,0.4c-1.1,2.7-3.9,3.4-6.2,3.1
			c-2.6-0.3-5.5-1.9-5.9-4.9c-0.1-0.4-0.4-0.7-0.8-0.6c-0.4,0.1-0.7,0.4-0.6,0.8c0.6,3.7,4,5.8,7.2,6.1c0.4,0,0.7,0.1,1.1,0.1
			c2.4,0,4.5-1,5.8-2.6c1.3,1.7,3.3,2.6,5.8,2.6c0.3,0,0.7,0,1.1-0.1c3.2-0.4,6.6-2.4,7.2-6.1C567.7,85.5,567.5,85.2,567.1,85.1z"/>
		<path class="st11" d="M584.8,68.2c0.6,0.5,1.4,0.8,2.1,0.6c0.6-3.4-2.4-7.9-4.7-10.2c-2.6-2.7-6-4.5-9.7-5.2
			c-5.5-1-13.5,0.7-12.1,8.1c2.1-1.9,2.1,2.9,4,3.7c0.1-0.6,0.6-0.6,0.9-1.1c0.6,1.1,1.5,2.1,3,2c0-0.6,0.4-1.1,0.5-1.7
			c1.8,0.5,3,2.9,4.7,3.6c0-0.7,0.1-1.2-0.1-1.9c0.8,1.9,4,3.5,5.9,3c0-0.2-0.1-0.3,0-0.5c0.9,0.7,1.8,0.6,2.8,0.7
			c1,0.1,2,0.4,2.9,0.4C585.2,69.2,585.2,68.6,584.8,68.2z"/>
		<path class="st11" d="M521.7,68.4c-0.6,0.5-1.4,0.8-2.1,0.6c-0.6-3.4,2.4-7.9,4.7-10.2c2.6-2.7,6-4.5,9.7-5.2
			c5.5-1,13.5,0.7,12.1,8.1c-2.1-1.9-2.1,2.9-4,3.7c-0.1-0.6-0.7-0.5-1-1c-0.6,1.1-1.4,2-3,1.9c0-0.6-0.4-1.1-0.5-1.7
			c-1.8,0.5-3,2.9-4.7,3.6c0-0.7-0.1-1.2,0.1-1.9c-0.8,1.9-4,3.5-5.9,3c0-0.2,0.1-0.3,0-0.5c-0.9,0.7-1.8,0.6-2.8,0.7
			c-1,0.1-2,0.4-2.9,0.4C521.3,69.5,521.3,68.8,521.7,68.4z"/>
		<path class="st11" d="M572.6,41.4c0.7-0.8,2.2-1.3,2.9-1.7c-1.4-0.6-8.6-2.4-9.7-0.9c0.6-0.9,1.7-1.5,2.1-2.5
			c-1.5-0.1-3.4,0.7-4.8,1c-1.4,0.3-2.8,0.5-3.9,1.4c0.4-0.9,1-1.6,1.5-2.4c-2.7-0.2-6.2,1.7-8.4,3.2c-1.2-2.1-4.8-2.8-7.1-2.7
			c0.7,0.7,1.1,1.6,1.5,2.5c-1.6-0.3-2.9-1.4-4.4-2c-0.5-0.2-5.5-1-5.5-1c0.5,1.6,1.9,3,3.1,4.3c-2.6-1.8-5.6-0.6-8.4-0.3
			c-2.6,0.3-5-0.5-7,1.1c0.4-0.3,2.9,0.9,3.3,1.1c-2.4,2.4-5,3.8-6.7,6.2c0.2-0.1,0.5-0.3,0.7-0.4c2-0.8,4.5-0.6,6.6-1.6
			c-0.6,0.3-0.8,0.7-1.2,1.1c3-0.2,6-1.7,9.1-1.7c-0.3,0.4-0.6,1.1-0.8,1.5c0.9-1.3,6.1-0.9,7.5-0.8c-0.8,0.4-1.3,1.2-1.4,2.1
			c2-0.9,4-2.3,6.2-2.1c-0.7,1-1.6,2.1-2.1,3.4c1.5-0.1,2.7-1.8,4.3-1.9c0.1,1.4-0.5,3.3,0,4.4c1.3-1.1,1.9-2.8,3.2-3.8
			c0.7,1.4,2.5,3,3.7,3.6c0.1-1.4,0-2.7,0.3-4.1c1.1,1.1,3,2.3,4.5,2.7c1.1-1.3-0.2-2.7-0.2-4.2c1.7,0.7,3.6,2.4,5.6,2.3
			c-0.1-1.1-1.1-2-1.6-3c0.3,0.6,7.6,0.4,8.6,0.4c2.5,0,5.6-0.4,8,0.5c1.3,0.4,2.3,1,3.3,1.4C582.6,45.8,575.8,41.4,572.6,41.4z"/>
		<g>
			<path class="st8" d="M585.4,40.4c0.3-2.2,0.2-4.5-2.8-4.7c-4.7-0.2-19.9,7.4-14.1,12.8c0.2,0.2,0.3,0.3,0.5,0.4
				c1.4,0.4,2.9-0.2,4.3,0.2c-0.1,0.3-0.3,0.5-0.5,0.8c1.7,0.4,4.1,0,5.7-0.4c-0.1,0.2-0.3,0.5-0.3,0.7c0.3,0.1,0.8,0.1,1.3,0.1
				c1.4-0.4,2.6-1.1,3.5-2.1c0.7-0.8,0.9-2.1,1.2-3.1C584.7,43.6,585.2,42,585.4,40.4C585.4,40.4,585.4,40.4,585.4,40.4z"/>
			<path class="st12" d="M582.1,39.7c0.1,0,0.2,0.1,0.3,0.2c0.7,0.6,0.4,1.7,0.4,2.4c0,0.9-0.2,1.9-0.4,2.7
				c-0.6,1.7-1.8,3.1-3.7,3.4c-2.6,0.4-6.7-1-5.7-3.4c0.8-1.8,2.5-3,4.2-3.9C578.2,40.6,580.7,39,582.1,39.7z"/>
		</g>
		<g>
			<path class="st8" d="M521.8,38c0-2.4,0.5-4.9,3.4-4.6c4.7,0.5,18.6,11,12.2,15.9c-0.2,0.1-0.4,0.3-0.6,0.4
				c-1.5,0.2-2.8-0.6-4.3-0.4c0.1,0.3,0.2,0.6,0.4,0.9c-1.7,0.1-4-0.7-5.6-1.3c0.1,0.3,0.2,0.6,0.2,0.8c-0.3,0-0.8,0-1.3-0.1
				c-1.3-0.7-2.4-1.6-3.2-2.8c-0.6-0.9-0.6-2.4-0.8-3.5C522,41.6,521.7,39.8,521.8,38C521.8,38,521.8,38,521.8,38z"/>
			<path class="st12" d="M525.1,37.8c-0.1,0-0.2,0.1-0.3,0.1c-0.7,0.5-0.7,1.7-0.8,2.5c-0.1,1-0.1,2,0.1,3c0.3,1.9,1.3,3.6,3.2,4.3
				c2.5,0.8,6.8-0.1,6.1-2.7c-0.5-2-2-3.6-3.6-4.9C528.9,39.3,526.6,37.2,525.1,37.8z"/>
		</g>
	</g>
</g>
<g>
	<path class="st13" d="M358.4,95.9c-0.7,1.7-1.5,3.4-2.4,5c-7.5,12-10.3-8.5-3.8-1.1c0,0,0.1,0,0.1-0.1c1.5-0.7,2.2-3.6,1.9-5.5
		c-0.6-3.7-3.3-6-6.4-6.3c-3.3-0.3-5.3,1.3-7.2,4.4c-3.3,5.5-4.3,13.9-0.4,19.3c3.7,5.2,9.2,6.9,14.3,4.5c1.1-0.5,2.6-1.4,4.2-2.5
		c0.8,0.9,1.7,1.9,2.7,2.9C360.6,110.3,359.3,101.8,358.4,95.9z"/>
	<path class="st14" d="M358.4,95.9c-0.7,1.7-1.5,3.4-2.4,5c-7.5,12-10.3-8.5-3.8-1.1c0,0,0.1,0,0.1-0.1c1.6-1-2.3-4.3-2.9-4.7
		c-2.4-1.6-5.4-1.7-6.9,1.5c-0.6,1.2-0.8,2.6-1,4c-0.1,0.9-0.2,1.9-0.2,2.8c0,0.4,0,0.8,0,1.1c0-0.1,0-0.1,0,0c0,0.2,0,2.3,0.8,3.5
		c0.7,1,1.5,1.9,2.5,2.4c2.2,1.3,4.7,1.8,7.2,1.8c1.4,0,2.9-0.2,4.2-1c0.2-0.5,1.3,0.6,2.9,2.4c0.8,0.9,1.7,1.9,2.7,2.9
		C360.6,110.3,359.3,101.8,358.4,95.9z"/>
	<path class="st1" d="M412.5,143c0,5.3-16.3,9.7-36.4,9.7c-20.1,0-36.4-4.3-36.4-9.7c0-5.3,16.3-9.7,36.4-9.7
		C396.2,133.3,412.5,137.7,412.5,143z"/>
	<g>
		<g>
			<g>
				<path class="st15" d="M395.8,140.9c-3-0.7-6.5-1.6-8.7-5.2c-2.1-3.5-2.3-10.4-0.3-14.8c4.4-9.4,12.8-16.7,17.4-5.7
					c2.1,5.1-1,12.7-3.3,16.8c1.2,0.7,2.7-0.1,3.7,1.5c0.9,1.4,1,4.1,0.1,5.7C402.4,143,398.5,141.5,395.8,140.9z"/>
			</g>
			<g>
				<path class="st15" d="M357.2,142.2c2.8-0.7,6-1.7,8-5.4c1.9-3.6,1.9-10.4-0.2-14.7c-4.4-9.2-12.6-16.2-16.5-5.2
					c-1.9,5.1,1.4,12.6,3.6,16.5c-1.1,0.7-2.5-0.1-3.4,1.6c-0.8,1.5-0.8,4.1,0.1,5.7C351.1,144.6,354.7,142.9,357.2,142.2z"/>
			</g>
		</g>
	</g>
	<path class="st16" d="M396.5,96.9c-1.3-5.1-3.3-8.7-7.5-9.2c-4.1-0.5-8.4-1.4-12.6-1.5v0c-0.1,0-0.1,0-0.2,0c-0.1,0-0.1,0-0.2,0v0
		c-4.2,0.2-8.5,1-12.6,1.5c-4.3,0.5-6.2,4.1-7.5,9.2c-1.2,4.5-1.4,9-0.7,13.7c0.7,4.7,1.7,9.9,3.4,14.2c1.5,3.9,2.8,8.9,5.1,12
		c0.8,1.1,1.8,1.8,2.9,2.2c1.6,1.7,5.3,2.8,9.7,2.8c4.3,0,8.1-1.2,9.6-2.8c0,0,0,0,0.1,0c0,0,0-0.1,0.1-0.1c0,0,0,0,0,0
		c0,0,0,0.1-0.1,0.1c1.1-0.4,2.1-1.1,2.9-2.2c2.3-3.1,3.6-8.1,5.1-12c1.7-4.4,2.7-9.5,3.4-14.2C397.8,105.9,397.7,101.5,396.5,96.9z
		"/>
	<g>
		<path class="st17" d="M376.7,114.3c3.1,0.3,8.4,1,9.9-3c0.8-2-0.5-2.8-1.2-4.4c-0.8-1.9,0.3-2.9,1.3-4.4c1.5-2.3,4.2-10.3-0.9-10
			c-2.2,0.1-4.3,1.2-6.5,1.7c-2.4,0.6-5.5,0.6-8,0.2c-1.5-0.2-3.1-0.6-4.6-1.2c-4.5-1.7-3.4,3-2.3,5.9c0.5,1.4,2,3,1.9,4.5
			c-0.2,1.7-1.5,3.5-1.6,5.3c-0.3,3.5,4.1,4.7,6.7,5.5C373.3,115.1,374.9,114.1,376.7,114.3z"/>
		<path class="st15" d="M381.2,113.8c-1.9,0.6-2.8-0.2-4.5-0.4c-1.8-0.2-3.4,0.7-5.1,0.2c-2.8-0.8-6.1-3-8.7-4.7
			c0.1,1.1,0.1,2.2,0.2,3.3c0.1,2.3-0.4,4.2-0.5,6.4c-0.2,4.6,1.4,9.2,2.5,13.6c0.4,1.5,1,2.9,1.6,4.3c0.6,1.5,1.8,3.4,3.1,4.4
			c1.9,1.4,4.8,1.1,7,1.1c7.1,0.2,11.7-4.2,13.1-11c0.7-3.6,0.8-7.4,1-11.1c0.2-3.3,0.1-6.5-0.2-9.8
			C387.6,111.4,384.4,112.8,381.2,113.8z"/>
	</g>
	<g>
		<g>
			<g>
				<g>
					<path class="st17" d="M382.2,105.8c0.5-2,1.5-3.7,3.3-4.6c4.2-2.1,9-0.6,10.3,3.9c2.1,7.1-1.8,13.6-2.9,20.4
						c-0.6,3.9-0.9,7.6-1.2,11.5c-0.1,1.6-0.8,3.7,0.1,5.2c0.9,1.6,3,1.5,4.2,2.9c1.5,1.9,0.1,3.8-2.1,4.3c-2.2,0.5-4.6-0.3-6.5-1.2
						c-6.8-3.4-5.5-11.1-5.5-17.2c0-5.7,0.4-11.5,0-17.1C381.7,111.6,381.5,108.5,382.2,105.8z"/>
				</g>
			</g>
			<g>
				<g>
					<path class="st17" d="M370.6,105.9c-0.5-2-1.5-3.7-3.3-4.6c-4.2-2.1-9-0.6-10.3,3.9c-2.1,7.1,1.8,13.6,2.9,20.4
						c0.6,3.9,0.9,7.6,1.2,11.5c0.1,1.6,0.8,3.7,0,5.2c-0.9,1.6-3,1.5-4.2,2.9c-1.5,1.9-0.1,3.8,2.1,4.3c2.2,0.5,4.6-0.3,6.5-1.2
						c6.8-3.4,5.5-11.1,5.5-17.2c0-5.7-0.4-11.5-0.1-17.1C371.1,111.6,371.2,108.5,370.6,105.9z"/>
				</g>
			</g>
		</g>
	</g>
	<g>
		<g>
			<g>
				<path class="st18" d="M359,80.9c-0.8,2.3-0.9,6.3,0,8.5c0.8,2.1,2.3,4,3.7,5.3c3.1,3,7,4.3,10.7,4.6c5.5,0.4,11.1,0.3,15.6-4.5
					c2.2-2.4,4.1-4.9,4.5-8.9c1-10.6-6.2-13-12.4-14.6c-5.8-1.4-14.7-2.5-19.1,4.3C361.1,77.2,359.6,79.2,359,80.9z"/>
			</g>
		</g>
		<path class="st17" d="M399,76.9c-0.2-1.7-1.4-3.1-1.8-4.8c1,0.1,2-0.2,3.1-0.3c-1.7-2.2-3.8-4.7-4.7-7.3c-0.8-2.4-1.3-4.4-2.7-6.7
			c-1.9-3.2-3.2-6.3-6.8-8.1c-3.8-1.9-8.6-1.3-12.6-1.2c-0.9,0-1.7,0-2.6,0c-1.8,0.1-3.5,0.4-5,1.2c-3.6,1.8-4.9,4.9-6.8,8.1
			c-1.4,2.3-1.9,4.3-2.7,6.7c-0.8,2.7-3,5.1-4.7,7.3c1,0.1,2,0.3,3.1,0.3c-0.4,1.7-1.6,3-1.8,4.8c0.3-0.2,1.9-0.9,1.9-1.1
			c-0.2,0.5-1.4,5.2-1.6,5.2c0.8-0.3,1.4-1,1.8-1.7c1.2,1.5,1.8,3.4,2.8,5.1c1.4,2.5,3.6,4.7,5.7,6.5c2.1,1.9,4.6,3.4,7.2,4.4
			c1.3,0.5,2.7,1,4.2,1.4c1.2,0.3,2.5,0,3.8-0.3c4.5-1.2,8.5-4,11.7-7.3c1.4-1.4,2.8-3,3.8-4.7c0.9-1.7,1.6-3.6,2.8-5.1
			c0.4,0.7,1.1,1.4,1.8,1.7c-0.1,0-1.3-4.7-1.6-5.2C397.2,76,398.8,76.7,399,76.9z"/>
		<path class="st16" d="M381.8,76.2c-0.1-0.1-0.2-0.3-0.4-0.4c-0.2-0.3-2.7-3.4-2.6-3.4c-0.4,1.4-1.5,3.4-3.2,3.2
			c-0.6-0.1-2.8-3-2.4-3.2c-1.3,0.8-1.7,2.3-2.7,3.4c-0.9,1.1-1.9,1.8-2.7,3.1c-1.8,3-2.9,6.5-2.5,10c0.5,4.5,2.5,7.2,6.7,8.7
			c0.7,0.2,1.4,0.4,2.1,0.5c3,0.5,6.8-0.2,9.1-2.4c4-3.8,4-10.8,1.6-15.5C384.1,78.6,382.8,77.5,381.8,76.2z"/>
		<path d="M372.2,80.8c-1,0.4-1.6,1-1.6,1.8c0.1,0.8,0.8,1,1.5,1.5c1.4,1,2.5,2.1,4.5,1.9c1.9-0.2,5.1-2.3,4.5-4.1
			C380.5,79.8,375,79.5,372.2,80.8z"/>
		<path d="M376.1,92C376.1,92,376,92,376.1,92c-1.2,0.7-2.8,1.4-4.3,1c-1.2-0.4-2.3-1-2.3-2.4c1,0.8,2.5,1.3,3.8,1.2
			c0.4-0.1,2.9-1.7,2.9-1.7c1.1,0.9,2.2,1.4,3.7,1.5c1.4,0.1,1.5-0.4,2.6-0.9c-0.3,1.3-1.8,2-3,2.2c-0.7,0.1-1.4,0.1-2-0.1
			C377.3,92.7,376.3,92.2,376.1,92z"/>
		<path class="st16" d="M376,46.6L376,46.6C375.9,46.6,375.9,46.6,376,46.6C375.9,46.6,375.9,46.6,376,46.6L376,46.6
			c-4.9,0.1-10.4,1.5-7.1,5.8c1,1.3,2,2.2,2.8,3.6c0.6,1.1,1.2,2.2,1.9,3.3c0.4-0.7,0.4-1.7,1.1-2c-0.2,0.1,1,2,1.2,2.4v0
			c0,0,0,0,0,0c0,0,0,0,0,0c0,0,0,0,0,0c0,0,0,0,0,0v0c0.2-0.4,1.4-2.3,1.2-2.4c0.7,0.3,0.7,1.3,1.1,2c0.7-1,1.3-2.2,1.9-3.3
			c0.8-1.5,1.8-2.3,2.8-3.6C386.3,48,380.8,46.7,376,46.6z"/>
		<g>
			<g>
				<g>
					<g>
						<path class="st16" d="M391.4,59.3c-0.9-1.2-1.8-2.5-1.7-2.5c-0.5,0.3-0.8,1-1.2,1.4c-0.3-1.1-0.7-2.3-1.3-3.2
							c-0.6,0.4-1.1,1.1-1.6,1.5c-0.2-0.7-0.7-2.5-1.6-2.7c-0.3-0.1-2.1,1.4-2.3,1.2c-2.2-3.9,1-9.1,3.2-12.3c1-1.5,6.6-10.4,8.6-10
							c2.2,0.4,3.2,11.9,3.3,13.9c0.2,2.9,0,5.8-0.6,8.6c-0.6,2.4-2.4,4.2-3.3,6.5C392.9,61.5,392.2,60.4,391.4,59.3z"/>
					</g>
				</g>
				<path class="st19" d="M385.6,51.6c0-0.1,0-0.2,0-0.3c-1,0.4-2,1-2.7,2c0.5-4.2,2.6-6.5,4.7-10c0.8-1.3,1.7-2.6,2.6-3.8
					c0.7-1.1,1.3-2.6,2.2-3.6c2.3,2.3,1.6,7.8,1.7,11c0.2,3.7,0.4,8.1-1.3,11.4c-0.9-0.6-0.6-3.3-2-3.4c-0.6,0-1.2,1.3-1.6,1.5
					c-0.2-1.2-0.6-3.5-1.6-4.3c-0.5,0.6-1,1.3-1.5,1.8C385.9,53.2,385.7,52.4,385.6,51.6z"/>
			</g>
			<g>
				<g>
					<g>
						<path class="st16" d="M360.4,59.3c0.9-1.2,1.8-2.5,1.7-2.5c0.5,0.3,0.8,1,1.2,1.4c0.3-1.1,0.7-2.3,1.3-3.2
							c0.6,0.4,1.1,1.1,1.6,1.5c0.2-0.7,0.7-2.5,1.6-2.7c0.3-0.1,2.1,1.4,2.3,1.2c2.2-3.9-1-9.1-3.2-12.3c-1-1.5-6.6-10.4-8.6-10
							c-2.2,0.4-3.2,11.9-3.3,13.9c-0.2,2.9,0,5.8,0.6,8.6c0.6,2.4,2.4,4.2,3.3,6.5C359,61.5,359.7,60.4,360.4,59.3z"/>
					</g>
				</g>
				<path class="st19" d="M366.3,51.6c0-0.1,0-0.2,0-0.3c1,0.4,2,1,2.7,2c-0.5-4.2-2.6-6.5-4.7-10c-0.8-1.3-1.7-2.6-2.6-3.8
					c-0.7-1.1-1.3-2.6-2.2-3.6c-2.3,2.3-1.6,7.8-1.7,11c-0.2,3.7-0.4,8.1,1.3,11.4c0.9-0.6,0.6-3.3,2-3.4c0.6,0,1.2,1.3,1.6,1.5
					c0.2-1.2,0.6-3.5,1.6-4.3c0.5,0.6,1,1.3,1.5,1.8C366,53.2,366.2,52.4,366.3,51.6z"/>
			</g>
		</g>
		<g>
			<g>
				<path class="st16" d="M390.5,70.9c-0.1,0.5-0.3,1-0.5,1.4c-0.9,1.6-4.3,2.9-6.1,2c-1.7-0.9-3.2-2.2-3.9-4.1
					c-0.7-2.1-0.9-4.9-0.3-7.1c0.7-2.6,3.1-4.7,5.9-4.3c3.4,0.5,4.9,5.6,5.1,8.5C390.7,68.4,390.8,69.7,390.5,70.9z"/>
			</g>
			<g>
				<path class="st16" d="M361.4,70.9c0.1,0.5,0.3,1,0.5,1.4c0.9,1.6,4.3,2.9,6.1,2c1.7-0.9,3.2-2.2,3.9-4.1
					c0.7-2.1,0.9-4.9,0.3-7.1c-0.7-2.6-3.1-4.7-5.9-4.3c-3.4,0.5-4.9,5.6-5.1,8.5C361.1,68.4,361.1,69.7,361.4,70.9z"/>
			</g>
			<g>
				<path d="M364.4,66.1c0,2.9,1.3,5.3,2.8,5.3c1.6,0,2.8-2.4,2.8-5.3c0-2.9-1.3-5.3-2.8-5.3C365.7,60.8,364.4,63.2,364.4,66.1z"/>
				<path class="st7" d="M367.1,64.3c-0.4,0.9-1.1,1.4-1.7,1.1c-0.6-0.3-0.8-1.2-0.4-2.1c0.4-0.9,1.1-1.4,1.7-1.1
					C367.3,62.5,367.5,63.4,367.1,64.3z"/>
			</g>
			<g>
				<path d="M381.7,66.1c0,2.9,1.3,5.3,2.8,5.3s2.8-2.4,2.8-5.3c0-2.9-1.3-5.3-2.8-5.3S381.7,63.2,381.7,66.1z"/>
				<path class="st7" d="M384.4,64.3c-0.4,0.9-1.1,1.4-1.7,1.1c-0.6-0.3-0.8-1.2-0.4-2.1c0.4-0.9,1.1-1.4,1.7-1.1
					C384.6,62.5,384.8,63.4,384.4,64.3z"/>
			</g>
		</g>
	</g>
</g>
<g>
	<g>
		<path class="st20" d="M312.4,107.1c-2.7,0.7-5.2,1.3-8,1.2c0.7-1.8,2.3-3.7,2.7-5.6c-0.1,0.3-5.3-0.3-8.3-1
			c-3,2.9-5.8,6.6-7.7,9.9c-1.8,3.2-3.3,11.1,3.1,9c2.9-0.9,5.7-2.4,8.4-4c2.7-1.5,5.7-3,8.4-4.9
			C311.9,110.3,312.6,108.5,312.4,107.1z"/>
		<path class="st21" d="M316.2,107.2c1.4-1.8,2.2-4,2.5-6.4c0.1-0.7,0.1-7.2,0.1-7.3c-0.3,0.1-0.5,0.3-0.8,0.4
			c0.5-0.9,0.3-1.5,0.6-2.5c-3.9,2.5-8.5,3.6-12.7,5.4c-1.2,0.5-2.4,1.1-3.5,1.9c-1.2,0.8-2.5,1.8-3.7,2.9c3,0.7,8.3,1.2,8.3,1
			c-0.4,2-2,3.8-2.7,5.6c2.8,0.2,5.4-0.5,8-1.2c0.2,1.4-0.5,3.2-1.4,4.7c1.7-1.1,3.2-2.4,4.6-3.9C315.8,107.7,316,107.5,316.2,107.2
			z"/>
	</g>
	<path class="st1" d="M308,142c0,5.9-18.7,10.6-41.9,10.6c-23.1,0-41.9-4.8-41.9-10.6c0-5.9,18.7-10.6,41.9-10.6
		C289.3,131.4,308,136.1,308,142z"/>
	<path class="st22" d="M263,79.8c-6.9,0-13.3,3.9-20,5.3c-5.7,1.2-7.2,11.6-7.4,17.5c-0.1,3.1-1,7.2,0.1,10.1c0.7,2,1.3,3,1.7,5.3
		c0.4,2.7,1,5.5,2.3,7.8c2,3.8,3.1,7.3,6.2,9.9c2.7,2.3,6.9,3.4,10.3,3.1c3.8-0.3,7.5,0.3,11.3,0c4-0.3,8.6,0.2,12.4-1.9
		c3.5-1.9,7.3-2.9,10.3-6c3.5-3.7,5.5-9.4,6.3-15c0.7-4.3,0.6-8.3,0.2-12.6c-0.8-7.7-2.3-14.8-8.7-18.2c-2.6-1.4-5.3-3.2-8.2-3.7
		C274.3,80.5,268.6,79.8,263,79.8z"/>
	<path class="st23" d="M287.8,115c0.8,13.5-12.4,25.1-20.9,25.4c-8.9,0.4-14.7-2-19.7-12.3c-2.4-5-2.5-10.7-2.8-16.6
		c-0.6-15.4,10.1-19,19.3-19.6c6.5-0.4,15.9-1,20.4,7.2C286.1,102.9,287.5,110.4,287.8,115z"/>
	<g>
		<g>
			<path class="st22" d="M287.6,110.9c4.9-2,9.6-1,14.3,0.9c4.1,1.7,4.6,5.3,4.8,9c0.2,3-0.7,6.6-2.3,9.3c-1.1,1.9-4.1,3.1-4.7,5.1
				c2.1,1.1,5.3,0.1,4.9,3.5c-0.5,3.9-6.5,3-9.6,2.6c-4.3-0.5-9-0.1-11.5-3.9c-4-6.3-2.8-14.6-0.1-20.9
				C284.5,113.6,284.2,112.3,287.6,110.9z"/>
			<path class="st23" d="M304.3,130.1c1.1-1.8,1.8-3.9,2.1-6.1c-3.2,2.8-7.5,2.2-11,0c-4-2.6-2.3-9-7.7-9.4c-1.3-0.1-2.6,0-4,0.3
				c-0.2,0.5-0.3,1-0.6,1.5c-2.6,6.4-3.9,14.7,0.1,20.9c2.4,3.8,7.2,3.4,11.5,3.9c3,0.3,9,1.3,9.6-2.6c0.5-3.3-2.8-2.4-4.9-3.5
				C300.3,133.2,303.2,132,304.3,130.1z"/>
		</g>
		<g>
			<path class="st22" d="M244.7,110.9c-4.9-2-9.6-1-14.3,0.9c-4.1,1.7-4.6,5.3-4.8,9c-0.2,3,0.7,6.6,2.3,9.3
				c1.1,1.9,4.1,3.1,4.7,5.1c-2.1,1.1-5.3,0.1-4.9,3.5c0.5,3.9,6.5,3,9.6,2.6c4.3-0.5,9-0.1,11.5-3.9c4-6.3,2.8-14.6,0.1-20.9
				C247.9,113.6,248.1,112.3,244.7,110.9z"/>
			<path class="st23" d="M228,130.1c-1.1-1.8-1.8-3.9-2.1-6.1c3.2,2.8,7.5,2.2,11,0c4-2.6,2.3-9,7.7-9.4c1.3-0.1,2.6,0,4,0.3
				c0.2,0.5,0.3,1,0.6,1.5c2.6,6.4,3.9,14.7-0.1,20.9c-2.4,3.8-7.2,3.4-11.5,3.9c-3,0.3-9,1.3-9.6-2.6c-0.5-3.3,2.8-2.4,4.9-3.5
				C232,133.2,229.1,132,228,130.1z"/>
		</g>
	</g>
	<g>
		<g>
			<path class="st21" d="M281.8,107.3c0.5-3.1,1.6-7.8,4.5-9.8c-1.5-1.3-3.7-1.6-6.8,0c-2.2,1.1-3.8,2.5-4.9,4.1
				c-4.5,6-2.4,14.6-1.6,22.7c0.6,5.9-0.8,11.2-0.6,16.9c0.4,11.3,23.9,9.8,15.8-3.5c-1.3-2.2-2.2-1.4-2.1-4.9
				c0-3.3,0.8-6.7,1.6-9.9c0.2-1,0.4-1.9,0.6-2.9c-0.3,0.1-0.6,0.1-0.9,0.1C281.1,120.2,281.2,111.3,281.8,107.3z"/>
			<path class="st22" d="M286.3,97.5c-2.9,2-4,6.7-4.5,9.8c-0.7,4-0.7,13,5.5,12.8c0.3,0,0.6-0.1,0.9-0.1c0.7-3.4,1.1-6.8,1.2-10.3
				C289.5,105.4,288.9,99.8,286.3,97.5z"/>
		</g>
		<g>
			<path class="st21" d="M250.6,107.3c-0.5-3.1-1.6-7.8-4.5-9.8c1.5-1.3,3.7-1.6,6.8,0c2.2,1.1,3.8,2.5,4.9,4.1
				c4.5,6,2.4,14.6,1.6,22.7c-0.6,5.9,0.8,11.2,0.6,16.9c-0.4,11.3-23.9,9.8-15.8-3.5c1.3-2.2,2.2-1.4,2.1-4.9
				c0-3.3-0.8-6.7-1.6-9.9c-0.2-1-0.4-1.9-0.6-2.9c0.3,0.1,0.6,0.1,0.9,0.1C251.3,120.2,251.3,111.3,250.6,107.3z"/>
			<path class="st22" d="M246.2,97.5c2.9,2,4,6.7,4.5,9.8c0.7,4,0.7,13-5.5,12.8c-0.3,0-0.6-0.1-0.9-0.1c-0.7-3.4-1.1-6.8-1.2-10.3
				C242.9,105.4,243.5,99.8,246.2,97.5z"/>
		</g>
	</g>
	<path class="st21" d="M296,83c-5.5-8.9-16.4-13.8-25.6-14.7c-1.5-0.2-3.1-0.2-4.7-0.1c-1.6-0.1-3.1,0-4.7,0.1
		c-5.1,0.5-9.7,3-14.6,4c-4.1,0.8-8.1,3.7-10.7,7.2c1.1-0.2,2.4-0.7,3.5-0.7c-1.8,0-4.8,6.3-5.2,8c-1.1,3.8,1,8.4,1.2,12.2
		c0.7-0.6,1.5-1.3,2-2.1c0,2.5,1.4,6.4,2.8,7.9c0.2-0.7,0.9-1.4,1.1-1.9c0,0.1,3.6,6,3.9,6.3c0.4-1,0.6-2.7,0.7-3.9
		c1.3,1.5,2,3.6,3.4,5c1,1,2.4,2,3.6,2.8c2.8,1.9,6.2,3.2,9.4,3.9c0-0.8-0.2-1.6-0.5-2.3c1.1,0.9,4.6,3,4.6,3c0,0,3.3-2.5,4.8-3.3
		c0.2,0.9,0.2,1.8,0.2,2.7c0-0.1,5.1-1.9,5.6-2.1c3.9-1.9,7.1-5.4,9.7-9.1c0,1.2-0.3,2.6-0.8,3.6c3-0.1,4.1-5.7,5.9-7.6
		c0.4,1,0.6,2.6,1.2,3.4c1.5-2.8,1.4-5.7,1.8-8.8c0.9,0.5,1.6,2.2,1.9,3.3c1.2-2,0.4-5.5,0.8-7.8C297.8,88.6,297.7,85.7,296,83z"/>
	<g>
		<path class="st24" d="M292.9,80.4c1.3,2.3,1.4,6.4,0.1,8.6c-1.3,2.2-3.7,4-5.9,5.4c-4.9,3-11,4.3-16.9,4.6
			c-8.6,0.4-17.6,0.3-24.6-4.5c-3.5-2.4-6.4-4.9-7.1-9c-1.6-10.7,9.8-13.2,19.5-14.7c9.2-1.5,23.2-2.5,30.1,4.4
			C289.6,76.7,291.9,78.6,292.9,80.4z"/>
	</g>
	<g>
		<path class="st21" d="M278.8,87c-2.3-7.6-13.6-9.3-19.5-5.9c-7.3,4.1-9.3,16-0.6,19.7c4.5,1.9,11.1,2.2,15.4-0.3
			C278.6,97.9,280.4,92.3,278.8,87z"/>
		<path class="st22" d="M299.4,77.2c-0.5-10.2-1.2-20.6-3.3-30.6c-0.7-3.4-1.7-8.1-4.1-10.8c-3.6-4-9.2-4.3-14.4-4.4
			c-3.8-0.1-7.7,0-11.5,0.2c-3.8-0.2-7.7-0.3-11.5-0.2c-5.2,0.1-10.7,0.4-14.4,4.4c-2.4,2.7-3.4,7.4-4.1,10.8
			c-2.1,10-2.8,20.4-3.3,30.6c-0.2,3.6,1.8,8.7,5,10.9c4.1,2.8,10.2,0.4,14.9,1.2c4.4,0.8,8.4,1.5,12.8,1.6v0c0.2,0,0.3,0,0.5,0
			c0.2,0,0.3,0,0.5,0v0c4.4-0.1,8.4-0.8,12.8-1.6c4.6-0.8,10.8,1.6,14.9-1.2C297.6,85.9,299.5,80.8,299.4,77.2z"/>
		<g>
			<path class="st25" d="M287.9,76.7c-5.8,5.3-17.6-6.9-20-12.2c-3.3-7.3-1-20.8,7.1-23.4c8.5-2.8,17.6,8.8,16.9,17
				c-0.2,3.1-1.8,6.2-2.2,9.3C289.2,70.1,290,74.8,287.9,76.7z"/>
			<path class="st25" d="M244.4,76.7c5.8,5.3,17.6-6.9,20-12.2c3.3-7.3,1-20.8-7.1-23.4c-8.5-2.8-17.6,8.8-16.9,17
				c0.2,3.1,1.8,6.2,2.2,9.3C243.1,70.1,242.3,74.8,244.4,76.7z"/>
		</g>
		<path class="st26" d="M271.8,90.1c-1-0.7-2.5-0.9-3.4-1.6c-0.7-0.6-1.5-2.9-2.5-3c-0.9,0-1.4,1.9-2,2.5c-1.5,1.5-4.5,1.5-4.4,4.3
			c0.1,2.5,2.6,4.4,4.8,4.7c3.4,0.4,9.2-0.7,8.3-5.6C272.5,90.8,272.2,90.4,271.8,90.1z"/>
		<path class="st21" d="M268.1,43.1c-0.3-0.3-0.8-0.5-1.3-0.7c-4-1.4-5.6,2.3-5.7,5.5c0,4,0.1,5.7-2.8,8.5c-2.6,2.5-5.8,4.5-8.2,7.3
			c-3.5,4-5.4,9.1-6,14.4c-0.6,5.4-1.1,12.3,4.9,14.5c4.1,1.5,5.2-2.4,8.9-2.6c1.3-0.1,2.3,0.3,3.6,0c1-0.2,2.4-0.7,3.1-1.6
			c0.9-0.9,0.9-2.6,2.4-2.3c1,0.2,1.3,1.6,1.9,2.3c0.8,0.9,1.9,1.4,2.9,1.7c2.6,0.9,5.4-0.2,7.7,1.1c7.1,3.9,8.8-5.8,8.8-11.3
			c0-10.1-4.1-16.1-12-21.7c-2.9-2-5.4-2.6-6.4-6C269.2,49.5,270.5,45.1,268.1,43.1z"/>
		<g>
			<path d="M274.3,91.3c-2.2,0-4.1-0.6-5.6-1.7c-2.8-2-3.3-5.2-3.3-5.3c0-0.1,0-0.1,0-0.2V71.9c0-0.5,0.4-0.9,0.8-0.9
				c0.5,0,0.8,0.4,0.8,0.9v12.2c0.1,0.4,0.6,2.6,2.6,4c2,1.5,5,1.7,8.6,0.8c0.4-0.1,0.9,0.2,1,0.7c0.1,0.5-0.2,1-0.6,1.1
				C277.1,91.1,275.6,91.3,274.3,91.3z"/>
			<path d="M258,91.4c-1.3,0-2.8-0.2-4.3-0.6c-0.4-0.1-0.7-0.6-0.6-1.1c0.1-0.5,0.6-0.8,1-0.7c3.7,1,6.6,0.7,8.6-0.8
				c2-1.5,2.6-3.7,2.7-4.1V71.9c0-0.5,0.4-0.9,0.8-0.9c0.5,0,0.8,0.4,0.8,0.9v12.3c0,0.1,0,0.1,0,0.2c0,0.1-0.6,3.3-3.4,5.4
				C262.1,90.9,260.2,91.4,258,91.4z"/>
			<path d="M275.3,68.4c-0.3,0.7-1,1.6-2.1,2.5c-3.9,3.2-19.5,3.2-15.8-5.2C259.3,61.1,278,62.5,275.3,68.4z"/>
			<g>
				<path d="M248.7,52.6c0,3.3,1.6,6,3.6,6c2,0,3.6-2.7,3.6-6c0-3.3-1.6-6-3.6-6C250.4,46.6,248.7,49.3,248.7,52.6z"/>
				<path class="st7" d="M252.5,50.6c-0.5,1-1.5,1.6-2.2,1.3c-0.8-0.3-1-1.4-0.6-2.4c0.5-1,1.5-1.6,2.2-1.3
					C252.7,48.5,253,49.6,252.5,50.6z"/>
			</g>
			<g>
				<path d="M276.3,52.6c0,3.3,1.6,6,3.6,6c2,0,3.6-2.7,3.6-6c0-3.3-1.6-6-3.6-6C277.9,46.6,276.3,49.3,276.3,52.6z"/>
				<path class="st7" d="M280.1,50.6c-0.5,1-1.5,1.6-2.2,1.3c-0.8-0.3-1-1.4-0.6-2.4c0.5-1,1.5-1.6,2.2-1.3
					C280.3,48.5,280.6,49.6,280.1,50.6z"/>
			</g>
		</g>
		<g>
			<path class="st25" d="M293.3,53.7c-1.5-6-6.7-10.8-6.1-17.2c0.4-3.9,1.4-3.9,4-5c4.9-2.3,9.6-1.5,13.7,2.2c2.5,2.3,4.6,5,7.2,7.2
				c1.8,1.6,5.3,3.4,6.6,5.5c3.6,6.5-3.2,11.5-6.9,15.1c-3.5,3.4-6.1,13.1-11.5,12.8C292.1,74,294.7,59.3,293.3,53.7z"/>
			<path class="st25" d="M239,53.7c1.5-6,6.7-10.8,6.1-17.2c-0.4-3.9-1.4-3.9-4-5c-4.9-2.3-9.6-1.5-13.7,2.2c-2.5,2.3-4.6,5-7.2,7.2
				c-1.8,1.6-5.3,3.4-6.6,5.5c-3.6,6.5,3.2,11.5,6.9,15.1c3.5,3.4,6.1,13.1,11.5,12.8C240.2,74,237.6,59.3,239,53.7z"/>
		</g>
	</g>
</g>
<g>
	<path class="st1" d="M701,143.8c0,4.9-17.2,8.9-38.3,8.9c-21.2,0-38.3-4-38.3-8.9c0-4.9,17.2-8.9,38.3-8.9
		C683.9,134.9,701,138.9,701,143.8z"/>
	<path class="st27" d="M640.4,145.5c3.1-0.5,6.7-1.2,8.9-3.5c2.1-2.2,2.3-6.5,0.2-9.1c-4.6-5.6-13.2-9.8-17.9-2.9
		c-2.2,3.2,1.1,7.8,3.4,10.1c-1.3,0.5-2.8,0-3.8,1.1c-0.9,0.9-1,2.5,0,3.5C633.6,147.1,637.6,146,640.4,145.5z"/>
	<path class="st27" d="M682.8,144.6c-3.1-0.5-6.7-1.1-9.1-3.3c-2.2-2.1-2.6-6.2-0.5-8.8c4.4-5.5,13-9.6,17.9-3
		c2.3,3.1-0.9,7.5-3.1,9.8c1.3,0.4,2.8,0,3.9,1c1,0.9,1.1,2.4,0.2,3.4C689.7,146,685.6,145,682.8,144.6z"/>
	<path class="st27" d="M684.1,115.5c-3.9-4.2-16-3-22.3-2.8c-6.3-0.1-18.4-1.4-22.3,2.8c-3,3.2-3.3,8.3-2.4,12.4
		c0.8,3.7,1.7,9.5,4.3,12.6c3.1,3.7,6.7,2.8,11.4,3.1c3,0.1,5.9,0.3,8.9,0.3v0c0,0,0.1,0,0.1,0c0,0,0.1,0,0.1,0v0
		c2.9-0.1,5.9-0.2,8.9-0.3c4.7-0.2,8.3,0.6,11.4-3.1c2.6-3.2,3.5-8.9,4.3-12.6C687.4,123.8,687.1,118.7,684.1,115.5z"/>
	<g>
		<path class="st28" d="M678.8,128.9c0.2-3.3-0.7-6.8-2.8-9.7c-3.5-4.8-13.4-4.8-18.8-3.7c-4.3,0.9-8.4,2.1-10.8,5.8
			c-1.4,2.1-1.6,4.3-0.8,6.6c0.1,0.4,0.3,0.8,0.5,1.2C652.4,130.9,665.5,133.5,678.8,128.9z"/>
		<path class="st29" d="M646.2,129.1c0.4,0.8,0.8,1.6,1.2,2.4c0.4,1,0.2,1.5,0.4,2.5c0.4,3,3.1,6.4,5.4,8.6c0.6,0.6,1.2,1.1,1.9,1.6
			c3.9,0.2,11.5,0.3,15.4,0.1c2.1-1.5,3.7-3.9,5.1-5.9c1.9-2.7,3.1-6.1,3.3-9.6C665.5,133.5,652.4,130.9,646.2,129.1z"/>
	</g>
	<g>
		<g>
			<g>
				<g>
					<path class="st30" d="M655.6,145.3c-0.1,2.6-3.3,4.6-7.3,4.5c-4-0.1-7.2-2.2-7.1-4.8c0.1-2.6,3.3-4.6,7.3-4.5
						C652.5,140.6,655.7,142.7,655.6,145.3z"/>
				</g>
			</g>
			<path class="st30" d="M652.5,121.4c0,0-6.1,11.4,1.5,23.2l-8.5,1.2c0,0-13.6-16.1-2-27.9L652.5,121.4z"/>
		</g>
	</g>
	<g>
		<g>
			<g>
				<g>
					<path class="st30" d="M667.7,145.3c0.1,2.6,3.3,4.6,7.3,4.5c4-0.1,7.2-2.2,7.1-4.8c-0.1-2.6-3.3-4.6-7.3-4.5
						C670.9,140.6,667.7,142.7,667.7,145.3z"/>
				</g>
			</g>
			<path class="st30" d="M670.9,122.1c0,0,6.1,10.7-1.6,22.5l8.5,1.2c0,0,13.6-16.1,2-27.9L670.9,122.1z"/>
		</g>
	</g>
	<path class="st31" d="M641.7,112.2c-0.9,1.9-1,5.2,0,7c0.9,1.7,2.7,3.3,4.3,4.4c3.5,2.4,7.9,3.5,12.2,3.7
		c6.2,0.3,12.7,0.3,17.7-3.7c2.5-2,4.7-4,5.1-7.3c1.2-8.7-7-10.7-14.1-11.9c-6.6-1.2-16.8-2-21.7,3.5
		C644,109.2,642.4,110.8,641.7,112.2z"/>
	<g>
		<g>
			<g>
				<path class="st32" d="M690,111.5c-0.9,2.7-2.5,4.8-5.2,6c-3.2,1.4-7.5,2.4-10.9,2.9c-7.1,1.1-14,1-21.1,0.9
					c-6.2-0.1-15.4-0.4-18.6-7.1c-3.6-7.6-3.2-15.8,0.4-23.3c6-12.7,22.2-18,34.8-14.6c1.8,0.5,3.7,0.7,5.5,1c2.2,0.4,3.2,1.6,5,2.9
					c2.2,1.5,4.5,2.9,6.1,5.1c1.2,1.7,2.3,3.7,3.5,5.6C692.6,96,691.8,105.9,690,111.5z"/>
			</g>
			<path class="st30" d="M689.4,90.8c-1.1-1.8-2.2-3.8-3.5-5.6c-1.6-2.2-3.9-3.6-6.1-5.1c-1.8-1.3-2.8-2.5-5-2.9
				c-1.8-0.3-3.7-0.5-5.5-1c-2.5-0.7-5.2-1-7.9-1c-0.5,0-0.5,10.2,0.7,14.8c0.7,2.8,2,5.2,3.7,7.5c5.7,7.3,15.8,16.3,25.2,9.6
				C692,101.8,691.9,94.9,689.4,90.8z"/>
		</g>
		<path class="st33" d="M680.4,104.1c-1.5-2.5-3.2-4.7-4.6-6.1c-3.6-3.5-9.1-4-13.9-4c-5,0-9.9,1.6-14.1,4.3
			c-3.7,2.4-5.3,6.4-6.9,10.5c-1.2,3.1-2.4,8.5,0,11.3c2.5,3,8.5,4,11.9,2.1c3.6-2,3-7.3,6-9.8c2.3-1.9,4.9-1,6.7,1.2
			c1.8,2.1,1.8,5.3,3.4,7.4c1.6,2.1,4.3,3.1,6.8,3.1C687.5,124.2,684.3,110.6,680.4,104.1z"/>
		<path d="M669.4,99.3c3.9,6.9-9.5,8.3-12.9,5c-4.2-3.9,0.5-7.8,4.8-7.8C663.6,96.5,668.1,97,669.4,99.3z"/>
		<g>
			<g>
				<path d="M674.5,90.6c0,0.3-0.1,0.7-0.1,1.1c0,3.2,1.6,5.8,3.6,5.8c2,0,3.6-2.6,3.6-5.8c0-0.4,0-0.7-0.1-1.1H674.5z"/>
			</g>
			<g>
				<path d="M642.9,90.6c0,0.3-0.1,0.7-0.1,1.1c0,3.2,1.6,5.8,3.6,5.8c2,0,3.6-2.6,3.6-5.8c0-0.4,0-0.7-0.1-1.1H642.9z"/>
			</g>
			<path class="st7" d="M643.7,90.8c-0.5,1.1-0.3,2.3,0.5,2.6c0.8,0.3,1.8-0.3,2.3-1.5c0.2-0.5,0.3-0.9,0.2-1.3h-3
				C643.8,90.7,643.7,90.7,643.7,90.8z"/>
			<path class="st7" d="M675.2,90.8c-0.5,1.1-0.3,2.3,0.5,2.6c0.8,0.3,1.8-0.3,2.3-1.5c0.2-0.5,0.3-0.9,0.2-1.3h-3
				C675.2,90.7,675.2,90.7,675.2,90.8z"/>
		</g>
		<path class="st34" d="M674,118.2c-0.5-1.7-2.1-3.3-3.4-4.3c-3.3-2.4-10.7-4.7-14.3-2c-2.2,1.7-8,6.5-5.6,10.1
			c2.3,3.2,9.2,2.8,12.4,2.9c3.2,0.1,7.5-1,9.9-3.4C674.2,120.4,674.3,119.3,674,118.2z"/>
		<g>
			<path class="st32" d="M633.1,86.4c2.9-0.2,5.3,1.6,8.1,1.1c3-0.5,6.3-2.2,8.3-4.4c3.7-4.1-1.3-7.5-5.2-9.4
				c-2.3-1.1-7-1.9-9.6-1.4c-3.2,0.7-9.2,5.7-10.5,8.7c-0.6,1.6,0.1,3.3,1.6,4.5C628,87.3,630.6,86.6,633.1,86.4z"/>
			<path class="st35" d="M637.5,78.1c-3.8-0.3-8,1-11.1,3.4c-0.8,0.6-1.6,1.5-2,2.4c0.3,0.6,0.8,1.2,1.4,1.6
				c2.2,1.7,4.8,1.1,7.3,0.8c2.2-0.2,4,0.8,6,1.1c0.7-0.1,1.4-0.3,2-0.6c2.6-1.2,4.6-2.5,2.6-5.4C642.4,79.6,639.8,78.3,637.5,78.1z
				"/>
		</g>
		<g>
			<path class="st30" d="M690.9,86.4c-2.9-0.2-5.3,1.6-8.1,1.1c-3-0.5-6.3-2.2-8.3-4.4c-3.7-4.1,1.3-7.5,5.2-9.4
				c2.3-1.1,7-1.9,9.6-1.4c3.2,0.7,9.2,5.7,10.5,8.7c0.6,1.6-0.1,3.3-1.6,4.5C695.9,87.3,693.4,86.6,690.9,86.4z"/>
			<path class="st27" d="M686.5,78.1c3.8-0.3,8,1,11.1,3.4c0.8,0.6,1.6,1.5,2,2.4c-0.3,0.6-0.8,1.2-1.4,1.6
				c-2.2,1.7-4.8,1.1-7.3,0.8c-2.2-0.2-4,0.8-6,1.1c-0.7-0.1-1.4-0.3-2-0.6c-2.6-1.2-4.6-2.5-2.6-5.4
				C681.6,79.6,684.2,78.3,686.5,78.1z"/>
		</g>
		<g>
			<path d="M673.1,117c-0.2,0-0.5-0.1-0.6-0.3c-3.6-5.1-10.1-5.1-10.2-5.1c-0.2,0-0.4-0.1-0.5-0.2c-0.1-0.1-0.2-0.3-0.2-0.5l0.1-6
				c0-0.4,0.4-0.7,0.8-0.7c0.4,0,0.7,0.4,0.7,0.8l-0.1,5.3c2,0.2,7.3,1.1,10.6,5.7c0.2,0.3,0.2,0.8-0.2,1.1
				C673.4,117,673.3,117,673.1,117z"/>
			<path d="M652.4,116.1c-0.1,0-0.3,0-0.4-0.1c-0.3-0.2-0.4-0.7-0.2-1.1c4-5.8,10.4-4.8,10.7-4.8c0.4,0.1,0.7,0.5,0.6,0.9
				c-0.1,0.4-0.4,0.7-0.9,0.6c-0.2,0-5.8-0.8-9.2,4.2C652.9,116,652.7,116.1,652.4,116.1z"/>
		</g>
	</g>
</g>
<g>
	<path class="st36" d="M81.7,125.1c2.2-1.9,3.7-4.4,5.3-6.9c0.1,0.5,0.1,1.1-0.1,1.7c0.9-1.1,1.8-2.2,2.9-3.1
		c-0.2,0.7-0.4,1.4-0.6,2c0.4-0.2,0.9-0.4,1.2-0.8c-0.2,0.7-0.4,1.5-0.6,2.2c0.5-0.3,1.1-0.5,1.6-0.8c-0.3,1.5-0.9,3-1.8,4.3
		c0.5-0.2,1-0.4,1.4-0.5c-1.7,3.6-4.4,6.6-7.3,9.3c-2.4,2.2-5.2,4.3-8.4,5.1c-1.1,0.3-2.2,0.4-3.3,0.1c-3.5-1.2-1.6-4.4,0.3-6.2
		C75.1,128.8,78.9,127.7,81.7,125.1z"/>
	<g>
		<path class="st1" d="M87.7,144.8c0,4.4-11.7,7.9-26.2,7.9c-14.5,0-26.2-3.5-26.2-7.9c0-4.4,11.7-7.9,26.2-7.9
			C76,136.9,87.7,140.4,87.7,144.8z"/>
		<g>
			<g>
				<g>
					<path class="st36" d="M71.8,144.1c-3.3-2.1-3.5-6.6-1.8-9.7c1.3-2.4,6-5.3,8.9-5.2c2.7,0.1,5,2.3,5.5,4.7
						c0.3,1.5-0.5,4.9-1.2,6.3c-0.1-0.2-0.4-0.4-0.5-0.6c0.2,0.3-1,2-1,2.5c0,1,1,1.3,1.2,2c0.3,1.3-1.2,1.6-2.4,1.7
						C77.8,146.2,74.1,145.6,71.8,144.1z"/>
				</g>
				<g>
					<path class="st36" d="M52.1,144.1c3.3-2.1,3.5-6.6,1.8-9.7c-1.3-2.4-6-5.3-8.9-5.2c-2.7,0.1-5,2.3-5.5,4.7
						c-0.3,1.5,0.5,4.9,1.2,6.3c0.1-0.2,0.4-0.4,0.5-0.6c-0.2,0.3,1,2,1,2.5c0,1-1,1.3-1.2,2c-0.3,1.3,1.2,1.6,2.4,1.7
						C46.1,146.2,49.8,145.6,52.1,144.1z"/>
				</g>
			</g>
		</g>
		<path class="st36" d="M78.8,132.6c0.2-0.9,0.4-1.7,0.5-2.7c0.3-2.2,0-5.1-0.8-7.1c-5.4-13.2-22-13-30.4-4
			c-5.5,5.8-4.3,14.4-0.3,20.7c3.9,6.2,12,6.4,18,5.3C72,143.9,77,139.3,78.8,132.6z"/>
		<path class="st37" d="M78.6,122.9c-5.4-13.2-22-13-30.4-4c-2.3,2.5-3.4,5.4-3.7,8.5c0.6,0.9,1.4,1.7,2.3,2.3
			c0-0.3,0.3-0.7,0.2-1.1c1.5,2.5,3.5,3.2,6.1,3.9c2.2,0.6,5.3,1.5,7.5,1.3c0-0.4,0.1-1,0.1-1.4c0.3,0.4,0.6,1,1,1.3
			c0.3-0.5,0.6-1.1,1-1.4c0.2,0.5,0.4,1.1,0.5,1.6c5,0.4,10.5-3.3,13.8-6.9c-0.1,0.5,0.1,0.9-0.1,1.4c0.8,0.1,1.7-0.4,2.5-1.2
			C79.4,125.7,79.1,124.1,78.6,122.9z"/>
		<g>
			<g>
				<g>
					<path class="st37" d="M64.1,142.2c0.1-1.1,0.3-2.3,0.4-3.2c-0.3,0.2-0.9,1.2-1.1,1.3c-0.4-2.1,1-4.6,1-6.5
						c-0.1-2.1-0.7-3.6,0.4-5.6c2-3.4,7.5-5.3,9.4-0.8c0.9,2.1,0.6,4.3,0.3,6.5c-0.3,1.9-0.3,3.8-0.4,5.7c-0.2-0.2-0.6-0.4-0.8-0.8
						c-1,2.4-0.2,3.1,0.9,5c1,1.6,0.5,3.4-1.1,4.3c-2.1,1.1-6.4,1.1-8.1-1C63.9,145.8,63.9,144,64.1,142.2z"/>
				</g>
				<g>
					<path class="st37" d="M59,142.2c-0.1-0.9-0.1-1.9,0-2.7c0.2,0.3,0.7,0.5,1,0.8c-0.7-2.4-1.1-4-1-6.5c0.1-2.1,0.7-3.6-0.4-5.6
						c-1.8-3.4-7-5.3-8.8-0.8c-0.8,2.1-0.6,4.5-0.2,6.7c0.4,2.1-0.1,3.9,0.1,6c0.2-0.3,0.8-0.5,1-0.6c-0.2,0.2,0.1,1.8,0.1,2.1
						c-0.1,0.9-0.6,1.3-0.9,2.1c-0.6,1.6-0.6,3.4,1.1,4.3c1.8,1,4.5,0.9,6.3,0C59.4,146.8,59.2,144.5,59,142.2z"/>
				</g>
			</g>
		</g>
		<path class="st38" d="M77.9,115.2c0,5.2-7.2,9.3-16,9.3c-8.8,0-16-4.2-16-9.3c0-5.2,7.2-9.3,16-9.3
			C70.8,105.8,77.9,110,77.9,115.2z"/>
	</g>
	<g>
		<path class="st37" d="M81.1,91.5c0.2-3,0.7-5.4-1.4-7.6c-3.4-3.6-12.2-4.3-17.4-4.4v0c-0.1,0-0.2,0-0.2,0c-0.1,0-0.2,0-0.2,0v0
			c-5.2,0.1-14,0.8-17.4,4.4c-2.1,2.2-1.2,4.6-1.4,7.6c-0.3,4.5-0.8,10.2-0.5,14.7c0.4,7.2,8,8.1,14.7,8.5c1.6,0.1,3.3,0,4.9-0.1
			c1.6,0.1,3.3,0.2,4.9,0.1c6.6-0.4,14.5-1.3,14.9-8.5C82.1,101.8,80.6,98.1,81.1,91.5z"/>
		<g>
			<path class="st37" d="M57.9,75.9c0.3,0.7,0.6,1.4,0.7,2.1c-1.6-0.6-3.3-0.9-5.1-1c0.5,0.5,1,1.1,1.5,1.6
				c-2.7-0.9-5.8,0.1-7.6,2.3c-0.1,0.2-0.3,0.3-0.3,0.6c0,0.5,0.5,0.8,0.9,0.9c1.5,0.5,3.1,0.5,4.7,0.5c2.8-0.1,5.7-0.4,8.4-1
				c0.4-0.1,0.9-0.2,1.2-0.4C64.9,79.7,58.4,76.9,57.9,75.9z"/>
			<path class="st37" d="M65.5,75.9c-0.3,0.7-0.6,1.4-0.7,2.1c1.6-0.6,3.3-0.9,5.1-1c-0.5,0.5-1,1.1-1.5,1.6
				c2.7-0.9,5.8,0.1,7.6,2.3c0.1,0.2,0.3,0.3,0.3,0.6c0,0.5-0.5,0.8-0.9,0.9c-1.5,0.5-3.1,0.5-4.7,0.5c-2.8-0.1-5.7-0.4-8.4-1
				c-0.4-0.1-0.9-0.2-1.2-0.4C58.5,79.7,65,76.9,65.5,75.9z"/>
		</g>
		<g>
			<path class="st37" d="M41.1,108.3c-0.1,1.7-0.3,3.4-0.4,5.1c0.4-0.3,0.8-0.6,1.2-0.9c-0.2,1.6,0,3.2,0.5,4.7
				c0.5-0.7,1-1.4,1.4-2.2c0.4,1.5,1.2,2.8,2.3,3.8c0.3-0.5,0.3-1.1,0.1-1.6c0.4,1.2,1.2,2.4,2.2,3.1c0.1-0.4,0.1-0.8,0.2-1.3
				c0.6,0.7,1.2,1.3,2,1.8c1.5-2.2,2.8-4.7,3.3-7.4c0.5-2.7,0.1-5.5-1.3-7.8c-1.4-2.3-4.9-4.4-7.7-3.6c-2.5,0.7-4.6,4.6-5,6.9
				C40,108.8,41,108.5,41.1,108.3z"/>
			<path class="st37" d="M83.2,108.3c0.1,1.7,0.3,3.4,0.4,5.1c-0.4-0.3-0.8-0.6-1.2-0.9c0.2,1.6,0,3.2-0.5,4.7
				c-0.5-0.7-1-1.4-1.4-2.2c-0.4,1.5-1.2,2.8-2.3,3.8c-0.3-0.5-0.3-1.1-0.1-1.6c-0.4,1.2-1.2,2.4-2.2,3.1c-0.1-0.4-0.1-0.8-0.2-1.3
				c-0.6,0.7-1.2,1.3-2,1.8c-1.5-2.2-2.8-4.7-3.3-7.4c-0.5-2.7-0.1-5.5,1.3-7.8c1.4-2.3,4.9-4.4,7.7-3.6c2.5,0.7,4.6,4.6,5,6.9
				C84.2,108.8,83.2,108.5,83.2,108.3z"/>
		</g>
		<path class="st37" d="M68.6,112.7c-1.2-0.4-2.5-0.4-3.8-0.5c-0.5,0-1.1,0-1.5,0.2c-0.5,0.2-0.8,0.6-1.2,1c-0.4-0.4-0.7-0.8-1.2-1
			c-0.5-0.2-1-0.2-1.5-0.2c-1.3,0.1-2.5,0.1-3.8,0.5c-3.5,1.1-6.1,7.1-1.8,9.4c0-0.4,0.1-0.8,0-1.2c1,0.8,2,1.5,3.2,2
			c0.2-0.5,0.2-1.3-0.1-1.8c0.9,0.8,1.8,1.5,2.7,2c0.1,0.1,0.2,0.1,0.3,0.1c0.1-0.1,0.1-0.2,0.2-0.4c0.1-0.7,0.1-1.4,0.1-2.1
			c0.6,0.8,1.2,1.5,1.7,2.3c0.1,0,0.1-0.1,0.1-0.1c0,0,0.1,0.1,0.1,0.1c0.6-0.8,1.2-1.5,1.7-2.3c0,0.7,0,1.4,0.1,2.1
			c0,0.1,0,0.3,0.2,0.4c0.1,0.1,0.2,0,0.3-0.1c1-0.6,1.9-1.3,2.7-2c-0.3,0.5-0.3,1.2-0.1,1.8c1.2-0.4,2.2-1.2,3.2-2
			c-0.1,0.4,0,0.8,0,1.2C74.7,119.7,72.1,113.8,68.6,112.7z"/>
		<g>
			<path d="M33,85.5c-1.4,2-2.4,4.2-2.8,6.6c-0.8,4,1.4,7.6,1.3,11.5c0,0.1,0,0.3,0.1,0.4c0.2,0.2,0.5,0.1,0.8,0
				c0.5-0.2,0.9-0.4,1.4-0.7c0,0.5,0.1,1,0.3,1.5c2.2-0.3,4-1.5,5.7-2.8c1.5-1.2,3.4-2.6,4.5-4.1c1-1.3,1.5-2.9,1.9-4.5
				c0.7-2.8,1.1-5.6,2.1-8.3c0.4-1.1,0.9-2.3,1.4-3.4c0.4-0.9,1.6-2.2-0.2-2.3c-2.4,0-4.8,0.4-6.9,1.4c-0.5,0.2-1.1,0.5-1.6,0.3
				c-0.3-0.1-0.6-0.4-0.9-0.6c-0.7-0.3-1.4,0-2.1,0.4C36,82.1,34.3,83.6,33,85.5z"/>
			<path d="M91.2,86.5c1.4,2,2.4,4.2,2.8,6.6c0.8,4-1.4,7.6-1.3,11.5c0,0.1,0,0.3-0.1,0.4c-0.2,0.2-0.5,0.1-0.8,0
				c-0.5-0.2-0.9-0.4-1.4-0.7c0,0.5-0.1,1-0.3,1.5c-2.2-0.3-4-1.5-5.7-2.8c-1.5-1.2-3.4-2.6-4.5-4.1c-1-1.3-1.5-2.9-1.9-4.5
				c-0.7-2.8-1.1-5.6-2.1-8.3c-0.4-1.1-0.9-2.3-1.4-3.4c-0.4-0.9-1.6-2.2,0.2-2.3c2.4,0,4.8,0.4,6.9,1.4c0.5,0.2,1.1,0.5,1.6,0.3
				c0.3-0.1,0.6-0.4,0.9-0.6c0.7-0.3,1.4,0,2.1,0.4C88.3,83.1,89.9,84.7,91.2,86.5z"/>
		</g>
		<path d="M66.5,115.6c0.4-0.8-0.5-1.2-1.6-1.5c-0.5-0.2-1.1-0.2-1.6-0.3c-1.3-0.1-2.7,0-4,0.3c-2.5,0.5-1.8,2.6,0.3,3.2
			c0.9,0.2,1.8,0.2,2.7,0.2c1.8,0,2.7-0.2,3.8-1.3C66.3,115.9,66.4,115.7,66.5,115.6z"/>
		<g>
			<path class="st7" d="M66.4,97.3c0.1,0,0.3-0.1,0.4-0.1c-0.6,0.8-1.2,1.5-1.8,2.3c0.2-0.3,6.6,0.3,7.1,0.6c-0.4,0.4-1,0.8-1.4,1.2
				c2.8-0.3,5.7,0.4,8,2c-0.7-0.1-1.4-0.1-2.1,0.1c0.8,0.5,1.5,1.3,2,2c0.8,1,1.4,2.2,1.8,3.4c0.2,0.6,0.5,2.4,1,2.7
				c-1-0.5-2.1-0.7-3.2-0.8c0.8,1.2,1.6,2.3,2.3,3.5c-1.6-0.2-3.2-0.5-4.7-1c0.7,0.9,1.4,1.9,1.9,3c-1.8,0-3.7-0.3-5.5-0.8
				c0.8,0.7,1.5,1.6,2,2.6c-1.6-0.3-3.2-0.7-4.8-1.3c0.7,0.8,1.3,1.8,1.8,2.8c-2.2-0.8-4.7-1.2-6.5-2.7c-1.9-1.6-3.3-3.7-3.9-6.1
				c-0.4-2.1-0.3-4.3-0.1-6.5c0.2-1.9,0.2-4,0.8-5.9c0.4-1.5,1.3-2.9,2.7-3.7c-0.6,1-1.1,2.4-0.9,3.6C64.4,98.2,65.4,97.7,66.4,97.3
				z"/>
			<path class="st7" d="M57.8,97.3c-0.1,0-0.3-0.1-0.4-0.1c0.6,0.8,1.2,1.5,1.8,2.3c-0.2-0.3-6.6,0.3-7.1,0.6c0.4,0.4,1,0.8,1.4,1.2
				c-2.8-0.3-5.7,0.4-8,2c0.7-0.1,1.4-0.1,2.1,0.1c-0.8,0.5-1.5,1.3-2,2c-0.8,1-1.4,2.2-1.8,3.4c-0.2,0.6-0.5,2.4-1,2.7
				c1-0.5,2.1-0.7,3.2-0.8c-0.8,1.2-1.6,2.3-2.3,3.5c1.6-0.2,3.2-0.5,4.7-1c-0.7,0.9-1.4,1.9-1.9,3c1.8,0,3.7-0.3,5.5-0.8
				c-0.8,0.7-1.5,1.6-2,2.6c1.6-0.3,3.2-0.7,4.8-1.3c-0.7,0.8-1.3,1.8-1.8,2.8c2.2-0.8,4.7-1.2,6.5-2.7c1.9-1.6,3.3-3.7,3.9-6.1
				c0.4-2.1,0.3-4.3,0.1-6.5c-0.2-1.9-0.2-4-0.8-5.9c-0.4-1.5-1.3-2.9-2.7-3.7c0.6,1,1.1,2.4,0.9,3.6C59.8,98.2,58.8,97.7,57.8,97.3
				z"/>
		</g>
		<path d="M66.8,105.3c-0.7-1.8-3.3-2-4.6-2.1c0,0,0,0,0,0l0,0l0,0h0l0,0c0,0,0,0,0,0c-1.3,0.1-3.9,0.3-4.6,2.1
			c-1.2,3.1,1.8,5.8,4.7,6l0,0h0l0,0l0,0C65,111.2,68,108.5,66.8,105.3z"/>
		<g>
			<g>
				<g>
					<circle cx="51.4" cy="95.6" r="3.8"/>
					<path class="st7" d="M50.4,94.8c-0.3,0.8-1.1,1.3-1.6,1.1c-0.5-0.2-0.7-1.1-0.4-1.9c0.3-0.8,1.1-1.3,1.6-1.1
						C50.6,93.1,50.8,94,50.4,94.8z"/>
				</g>
			</g>
			<path class="st7" d="M56.1,93.8c-1.8-1.3-3.7-2.2-6-1.4c-2.5,0.9-4.5,3.7-7.2,3.8c1-0.9,2-2,2.9-3.1c-0.7,0.3-1.4,0.6-2.1,0.9
				c0.9-1.2,1.9-2.3,2.8-3.5c0.7-0.9,1.5-1.8,2.5-2.5c1.6-1,3.7-1,5.4,0c0-0.5-0.1-1.1-0.4-1.5c0.7,0.9,2.1,0.9,2.8,2.1
				c0.7,1.1,1.1,2.7,1.2,4c-0.5-0.2-1-0.4-1.5-0.4c0.4,0.6,0.6,1.4,0.5,2.1C56.7,94.2,56.4,94,56.1,93.8z"/>
			<g>
				<g>
					<circle cx="72.9" cy="95.6" r="3.8"/>
					<path class="st7" d="M71.9,94.8c-0.3,0.8-1.1,1.3-1.6,1.1c-0.5-0.2-0.7-1.1-0.4-1.9c0.3-0.8,1.1-1.3,1.6-1.1
						C72.1,93.1,72.3,94,71.9,94.8z"/>
				</g>
			</g>
			<path class="st7" d="M68.1,93.8c1.8-1.3,3.7-2.2,6-1.4c2.5,0.9,4.5,3.7,7.2,3.8c-1-0.9-2-2-2.9-3.1c0.7,0.3,1.4,0.6,2.1,0.9
				c-0.9-1.2-1.9-2.3-2.8-3.5c-0.7-0.9-1.5-1.8-2.5-2.5c-1.6-1-3.7-1-5.4,0c0-0.5,0.1-1.1,0.4-1.5c-0.7,0.9-2.1,0.9-2.8,2.1
				c-0.7,1.1-1.1,2.7-1.2,4c0.5-0.2,1-0.4,1.5-0.4c-0.4,0.6-0.6,1.4-0.5,2.1C67.6,94.2,67.8,94,68.1,93.8z"/>
		</g>
	</g>
</g>
<g>
	<path class="st39" d="M196.1,135c0.5-0.3,0.9-0.7,1.4-1.2c-1.6-0.1-3.2-0.2-4.8-0.3c1.4-0.6,2.8-1.3,4.2-1.9c-3.1-0.1-6-1.3-9-2.1
		c-2.2-0.6-4.7-0.9-6.9-0.3c-1.9,0.5-3.8,0.7-5.7,1.2c-2.3,0.6-6.5,3.4-2.5,5.5c1.8,0.9,3.8,1.5,5.8,2.1c2,0.6,4.1,1.3,6.2,1.7
		c2,0.4,4.4,0.4,6.5-0.2c1.1-0.3,2.2-0.8,3.1-1.4c0.3-0.2,2.5-1.8,2.8-1.8c-0.8-0.1-2.1-0.4-2.9-0.4
		C194.9,135.8,195.6,135.5,196.1,135z"/>
	<path class="st1" d="M189.2,145.8c0,3.8-12.6,6.9-28.2,6.9c-15.6,0-28.2-3.1-28.2-6.9c0-3.8,12.6-6.9,28.2-6.9
		C176.6,139,189.2,142,189.2,145.8z"/>
	<path class="st40" d="M153,130.7c-0.3-1.4-0.8-2.7-1.3-3.9c-0.1-0.2-0.1-0.4-0.2-0.5c0,0,0-0.1,0-0.1c-0.1-0.2-0.1-0.3-0.2-0.4
		c-0.5-1.3-0.7-2.1-2.7-2.8c-3.6-1.4-7-0.7-10.5,0.6c-3,1.2-3.3,3.7-3.5,6.4c0,0.7,0,1.4,0.1,2.1c0,0,0,0.1,0,0.1
		c0,0.2,0.1,0.4,0.1,0.5c0,0,0,0.1,0,0.1c0.2,0.9,0.5,1.8,1,2.7c0.3,0.6,0.8,1.2,1.2,1.8c0.2,0.2,3,2.7,2.7,2.8
		c-1.5,0.8-3.9,0.1-3.6,2.5c0.4,2.7,4.8,2.1,7,1.8c2.1-0.2,4.4-0.2,6.2-1c0.9-0.4,1.6-0.9,2.2-1.8
		C153.8,138.4,153.9,134.4,153,130.7z"/>
	<path class="st40" d="M188.1,129.9c-0.1-2.6-0.5-5.2-3.5-6.4c-3.5-1.4-6.9-2.1-10.5-0.6c-2,0.8-2.3,1.5-2.7,2.8
		c-0.1,0.1-0.1,0.3-0.2,0.4c0,0,0,0.1,0,0.1c-0.1,0.2-0.1,0.3-0.2,0.5c-0.5,1.2-1,2.5-1.3,3.9c-0.9,3.7-0.8,7.6,1.4,10.9
		c0.6,0.9,1.3,1.4,2.2,1.8c1.8,0.8,4.1,0.7,6.2,1c2.2,0.2,6.6,0.9,7-1.8c0.3-2.4-2-1.7-3.6-2.5c-0.3-0.2,2.5-2.6,2.7-2.8
		c0.5-0.5,0.9-1.1,1.2-1.8c0.5-0.8,0.8-1.7,1-2.7c0,0,0-0.1,0-0.1c0-0.2,0.1-0.4,0.1-0.5c0,0,0-0.1,0-0.1
		C188.1,131.3,188.1,130.6,188.1,129.9z"/>
	<path class="st40" d="M159.2,109.2c-4.4,0-8.4,2.3-12.6,3.2c-3.6,0.7-4.5,7-4.7,10.5c-0.1,1.9-0.6,4.3,0.1,6.1
		c0.5,1.2,0.8,1.8,1,3.2c0.3,1.6,0.7,3.3,1.4,4.7c1.2,2.3,2,4.4,3.9,6c1.7,1.4,4.4,2.1,6.5,1.9c2.4-0.2,4.8,0.2,7.2,0
		c2.6-0.2,5.4,0.1,7.8-1.1c2.2-1.1,4.6-1.7,6.5-3.6c2.2-2.2,3.5-5.7,4-9c0.4-2.6,0.4-5,0.1-7.6c-0.5-4.6-1.4-8.9-5.5-10.9
		c-1.7-0.8-3.4-1.9-5.2-2.2C166.3,109.7,162.8,109.2,159.2,109.2z"/>
	<path class="st40" d="M174.9,130.4c0.5,8.1-6.2,15.5-13.2,15.3c-5.7-0.2-9.3-1.2-12.5-7.4c-1.5-3-1.6-6.4-1.7-9.9
		c-0.3-9.3,6.4-11.4,12.2-11.7c4.1-0.3,10.1-0.6,12.9,4.3C173.8,123.1,174.8,127.6,174.9,130.4z"/>
	<path class="st41" d="M173.6,104.4c-3.1-2.4-7.8-3.4-11.9-2.7c-4.1-0.7-8.8,0.2-11.9,2.7c-4,3.1-6.9,10-4.5,14.9
		c2.4,5.1,9.6,9,15,8.9c1.9,0,3.8-0.5,5.6-1c5.2-1.4,10.8-3.5,12.4-9.1C179.7,113.2,177.6,107.6,173.6,104.4z"/>
	<g>
		<path class="st42" d="M176.2,99.6c-0.6-1.5-1.9-3.1-2.8-4.3c-2.8-3.9-7.8-4.7-12.3-4.4c-4.5-0.3-9.5,0.4-12.3,4.4
			c-0.9,1.2-2.2,2.8-2.8,4.3c-0.8,1.9-0.8,5.2,0,7.1c0.7,1.8,2.2,3.3,3.5,4.4c2.9,2.4,6.5,3.6,9.9,3.8c0.6,0,1.1,0.1,1.7,0.1v0
			c0,0,0.1,0,0.1,0c0,0,0.1,0,0.1,0v0c0.6,0,1.1,0,1.7-0.1c3.5-0.2,7-1.3,9.9-3.8c1.3-1.1,2.7-2.7,3.5-4.4
			C177,104.8,176.9,101.5,176.2,99.6z"/>
		<g>
			<path class="st41" d="M184.8,79.7c-0.3-2.8-0.6-5.8-2-8.3c-3.5-6.1-13.2-7.4-21.1-7.4v0c-0.1,0-0.2,0-0.2,0c-0.1,0-0.2,0-0.2,0v0
				c-7.9,0-17.6,1.3-21.1,7.4c-1.4,2.5-1.7,5.4-2,8.3c0,3.6-0.7,7.1-0.4,10.7c0.8,10.5,13.2,18.1,23.5,18.4v0c0.1,0,0.2,0,0.2,0
				c0.1,0,0.2,0,0.2,0v0c10.4-0.3,22.7-7.9,23.5-18.4C185.5,86.8,184.8,83.3,184.8,79.7z"/>
			<path class="st7" d="M169,104.3c-2.1-1.1-4.7-1.3-7.2-1.2c-0.1,0-0.2,0-0.3,0c-0.1,0-0.2,0-0.3,0c-2.5-0.1-5.1,0.1-7.2,1.2
				c-8.6,4.3,2,8.1,7.3,8.4c0,0,0.1,0,0.1,0v0c0,0,0,0,0,0c0,0,0,0,0,0v0c0,0,0.1,0,0.1,0C166.9,112.4,177.5,108.6,169,104.3z"/>
			<path d="M157.6,109.3c1.1,0,2.2-0.3,3.3-0.4c0.9-0.1,1.7-0.1,2.6,0.1c0.8,0.1,1.6,0.3,2.4,0.2c0.8-0.1,1.6-0.5,1.9-1.3
				c0.2-0.8-0.2-1.6-0.7-2.2c-0.9-0.9-2.2-1.3-3.4-1.4c-1.3-0.1-2.5,0.1-3.8,0.4c-1.1,0.2-2.2,0.5-3.2,1.1
				C154.2,107.3,154.8,109.3,157.6,109.3z"/>
			<path class="st7" d="M175.3,93.4c-2.7-3.4-7.7-5.4-12.7-5.7c-0.4,0-0.8,0-1.1,0c-0.4,0-0.8,0-1.1,0c-5,0.2-10,2.2-12.7,5.7
				c-2.4,3-4.2,9.4-2.1,12.7c1.3,1.9,4,2.7,6.7,2.4c3.3-0.3,6.2-1,9.3-1.2c3.1,0.2,6.1,0.9,9.4,1.2c2.7,0.2,5.3-0.5,6.6-2.4
				C179.6,102.8,177.7,96.4,175.3,93.4z"/>
			<path class="st7" d="M170.1,89.4c-2.7-1.3-5-9.3-4.3-12.2c0.6-2.6,0.9-5.5,2.8-7.6c-1.6-0.1-3.9,0.8-5,1.8
				c-0.1,0.1-1.9-3.3-2.1-3.5c-0.2,0.3-1.9,3.6-2,3.5c-1.2-1.1-3.4-2-5-1.8c1.9,2.1,2.2,5,2.8,7.6c0.7,2.9-1.6,11-4.3,12.2
				c-6.4,3,0.8,3.2,3.5,5.6c1.4,1.3,3.2,1.5,5,1c0,0,0.1,0,0.1,0c0,0,0.1,0,0.1,0c1.7,0.4,3.5,0.3,5-1
				C169.2,92.6,176.5,92.4,170.1,89.4z"/>
			<path d="M167.6,95c0,2.7-2.8,5-6.2,5c-3.4,0-6.2-2.2-6.2-5c0-2.7,2.8-3.1,6.2-3.1C164.9,91.9,167.6,92.2,167.6,95z"/>
			<g>
				<path d="M145.9,83.7c0,3.2,1.3,5.7,2.8,5.7c1.6,0,2.8-2.6,2.8-5.7c0-3.2-1.3-5.7-2.8-5.7C147.1,77.9,145.9,80.5,145.9,83.7z"/>
				<path class="st7" d="M148.6,81.8c-0.4,1-1.1,1.5-1.7,1.2c-0.6-0.3-0.8-1.3-0.4-2.3c0.4-1,1.1-1.5,1.7-1.2
					C148.7,79.8,148.9,80.8,148.6,81.8z"/>
			</g>
			<g>
				<path d="M171.5,83.7c0,3.2,1.3,5.7,2.8,5.7c1.6,0,2.8-2.6,2.8-5.7c0-3.2-1.3-5.7-2.8-5.7C172.7,77.9,171.5,80.5,171.5,83.7z"/>
				<path class="st7" d="M174.2,81.8c-0.4,1-1.1,1.5-1.7,1.2c-0.6-0.3-0.8-1.3-0.4-2.3c0.4-1,1.1-1.5,1.7-1.2
					C174.3,79.8,174.5,80.8,174.2,81.8z"/>
			</g>
			<path d="M161.5,108.3c-0.4,0-0.7-0.3-0.7-0.7v-8.7c0-0.4,0.3-0.7,0.7-0.7c0.4,0,0.7,0.3,0.7,0.7v8.7
				C162.2,107.9,161.9,108.3,161.5,108.3z"/>
		</g>
		<g>
			<g>
				<g>
					<path class="st43" d="M137.3,65.2c1.7-0.6,3.5-0.9,5.3-1.1c0.7-0.1,1.4,0.1,2.1,0.3c1.6,0.5,3.6,0.5,3.7,1.4
						c0.5,3.2-2.7,4.8-4.2,7.1c-1.6,2.3-1.9,5.6-2.3,8.4c-1,6.8-0.8,13.7,0.6,20.4c1.2,6,3.4,12.3,0.9,17.9
						c-0.4-1.8-1.2-3.6-2.4-5.1c-0.8,2.4-1.8,4.7-2.9,6.9c-1-1.2-1.6-2.6-1.9-4.1c-1.5,2.4-1.7,2.6-4.1,4.5c-1.1-1.2-2.5-2-2.6-3.3
						c-0.4,1.7-4.9,3.2-5,3.8c0.1-1.1,0.2-2.1,0.3-3.2c-1.7,2.1-4.2,3.4-6.8,3.6c1.7-5.5-3.3-11.4-1.9-17c1-3.8,4.8-6.6,4.9-10.5
						c0.2-3.2-0.4-6.3,0.1-9.5c0.6-4.3,3.5-5.8,6.1-8.6c3.1-3.3,2.9-7.9,7-10.6C135.3,66,136.2,65.6,137.3,65.2z"/>
				</g>
				<g>
					<path class="st43" d="M185.7,65.2c-1.7-0.6-3.5-0.9-5.3-1.1c-0.7-0.1-1.4,0.1-2.1,0.3c-1.6,0.5-3.6,0.5-3.7,1.4
						c-0.5,3.2,2.7,4.8,4.2,7.1c1.6,2.3,1.9,5.6,2.3,8.4c1,6.8,0.8,13.7-0.6,20.4c-1.2,6-3.4,12.3-0.9,17.9c0.4-1.8,1.2-3.6,2.4-5.1
						c0.8,2.4,1.8,4.7,2.9,6.9c1-1.2,1.6-2.6,1.9-4.1c1.5,2.4,1.9,3.4,4.6,4.4c0.9-1.8,2.1-1.8,2.1-3.2c0.4,1.7,4.9,3.2,5,3.8
						c-0.1-1.1-0.2-2.1-0.3-3.2c1.7,2.1,4.2,3.4,6.8,3.6c-1.7-5.5,3.3-11.4,1.9-17c-1-3.8-4.8-6.6-4.9-10.5
						c-0.2-3.2,0.4-6.3-0.1-9.5c-0.6-4.3-3.5-5.8-6.1-8.6c-3.1-3.3-2.9-7.9-7-10.6C187.7,66,186.7,65.6,185.7,65.2z"/>
				</g>
			</g>
		</g>
	</g>
	<path class="st44" d="M141.9,136.9c0.5,0.5,1.2,0.9,1.8,1.3c0.2-0.6,0.5-1.2,0.8-1.8c0.2,0.6,0.6,1.1,1,1.6c0.2-0.5,0.5-1,0.8-1.4
		c-0.1,1.2,0.7,2.2,1.3,3.3c0.6,1,1.1,2.3,0.4,3.3c-0.4,0.6-1.2,1-2,1.2c-2,0.6-4.2,0.8-6.3,0.6c-1.2-0.1-2.5-0.5-3.4-1.4
		c-0.8-0.9-0.9-2.4,0.2-3c0.5-0.3,2.6-0.3,2.8-0.7c0.3-0.6-1.4-1.6-1.6-2c0.1,0.1,2.4,0.6,2.7,0.7c0.7,0.2,0.5,0.2,0.9-0.3
		C141.6,137.9,141.7,137.3,141.9,136.9z"/>
	<path class="st44" d="M181,136.9c-0.5,0.5-1.2,0.9-1.8,1.3c-0.2-0.6-0.5-1.2-0.8-1.8c-0.2,0.6-0.6,1.1-1,1.6
		c-0.2-0.5-0.5-1-0.8-1.4c0.1,1.2-0.7,2.2-1.3,3.3c-0.6,1-1.1,2.3-0.4,3.3c0.4,0.6,1.2,1,2,1.2c2,0.6,4.2,0.8,6.3,0.6
		c1.2-0.1,2.5-0.5,3.4-1.4c0.8-0.9,0.9-2.4-0.2-3c-0.5-0.3-2.6-0.3-2.8-0.7c-0.3-0.6,1.4-1.6,1.6-2c-0.1,0.1-2.4,0.6-2.7,0.7
		c-0.7,0.2-0.5,0.2-0.9-0.3C181.3,137.9,181.2,137.3,181,136.9z"/>
	<g>
		<path class="st41" d="M150.7,137.9c0.4,1.1,0.7,2.3,1.3,3.3c0.6-1,1.3-2.1,1.9-3.1c0.3,1.2,0.5,2.3,0.8,3.5c0.5-0.7,1-1.4,1.6-2.1
			c-0.1-1.2-0.1-2.4-0.1-3.7c0-0.3,0-0.5,0.1-0.8c0.3-3.9,1.1-7.9,0.5-11.4c-0.2-1.4-0.7-2.7-1.5-3.8c-0.7-1-1.7-2-3.1-2.7
			c-1.9-1.1-3.3-0.9-4.2,0c-1.6,1.6-2,5.3-1.9,8.1c0,2.4,0.3,4.7,0.7,6.9c0,0,0,0,0,0c0.1,0.4,0.2,0.9,0.3,1.3
			c0,0.2,0.1,0.4,0.1,0.6c0.3,1.3,0.6,2.7,0.8,4c0.6,0.8,1.1,1.6,1.5,2.5C149.9,139.8,150.3,138.8,150.7,137.9z"/>
		<path class="st7" d="M156.7,144.2c-0.1-1.5-0.2-3-0.3-4.6c-0.6,0.6-1.2,1.3-1.6,2.1c-0.3-1.2-0.5-2.3-0.8-3.5
			c-0.6,1-1.3,2.1-1.9,3.1c-0.6-1-0.9-2.2-1.3-3.3c-0.4,0.9-0.8,1.8-1.2,2.8c-0.4-0.9-0.9-1.8-1.5-2.5c0.1,0.9,0.2,1.8,0.2,2.6
			c0,0.5,0,0.9-0.1,1.1c0,0.1,0,0.3-0.1,0.4c-0.2,0.7-0.6,0.8-1.2,1.8c-5,9,9.6,10,9.8,2.4c0-0.6,0-1.3,0-1.9
			C156.7,144.4,156.7,144.3,156.7,144.2z"/>
	</g>
	<g>
		<path class="st41" d="M172.8,137.9c-0.4,1.1-0.7,2.3-1.3,3.3c-0.6-1-1.3-2.1-1.9-3.1c-0.3,1.2-0.5,2.3-0.8,3.5
			c-0.5-0.7-1-1.4-1.6-2.1c0.1-1.2,0.1-2.4,0.1-3.7c0-0.3,0-0.5-0.1-0.8c-0.3-3.9-1.1-7.9-0.5-11.4c0.2-1.4,0.7-2.7,1.5-3.8
			c0.7-1,1.7-2,3.1-2.7c1.9-1.1,3.3-0.9,4.2,0c1.6,1.6,2,5.3,1.9,8.1c0,2.4-0.3,4.7-0.7,6.9c0,0,0,0,0,0c-0.1,0.4-0.2,0.9-0.3,1.3
			c0,0.2-0.1,0.4-0.1,0.6c-0.3,1.3-0.6,2.7-0.8,4c-0.6,0.8-1.1,1.6-1.5,2.5C173.5,139.8,173.1,138.8,172.8,137.9z"/>
		<path class="st7" d="M166.7,144.2c0.1-1.5,0.2-3,0.3-4.6c0.6,0.6,1.2,1.3,1.6,2.1c0.3-1.2,0.5-2.3,0.8-3.5c0.6,1,1.3,2.1,1.9,3.1
			c0.6-1,0.9-2.2,1.3-3.3c0.4,0.9,0.8,1.8,1.2,2.8c0.4-0.9,0.9-1.8,1.5-2.5c-0.1,0.9-0.2,1.8-0.2,2.6c0,0.5,0,0.9,0.1,1.1
			c0,0.1,0,0.3,0.1,0.4c0.2,0.7,0.6,0.8,1.2,1.8c5,9-9.6,10-9.8,2.4c0-0.6,0-1.3,0-1.9C166.7,144.4,166.7,144.3,166.7,144.2z"/>
	</g>
</g>
<g>
	<path class="st45" d="M762.4,131.1c-0.2-0.3-0.6-0.4-1.1-0.3c0.3-2.8-4.5-3.3-4.4-1.3c-0.1-2.6-6.5-0.7-3.4,2.4c-1.8,0-2.7,3-0.7,3
		c-1.1,0.4-0.4,1.8,0.3,2.4c0.3,0.3,2.7,0.7,2.4,0.2c0.8,1.4,3.8,1.4,3.7-0.6c1.8,0.9,4-0.7,2.5-2.6
		C762.7,133.9,763.1,131.9,762.4,131.1z"/>
	<path class="st1" d="M766.5,147.1c0,3.2-9.7,5.7-21.5,5.6c-11.9-0.1-21.5-2.7-21.4-5.9c0-3.2,9.7-5.7,21.5-5.6
		C756.9,141.2,766.5,143.9,766.5,147.1z"/>
	<g>
		<path class="st7" d="M754.8,143.6c0.5-0.5,1-1,1.5-1.8c4.7-7.2-1.1-18.1-10.2-17.6c-2.4,0.1-4.9,0.5-7.3,0.9
			c-4.9,0.7-7.7,4.8-8.5,9.1c-0.8,4,1,6.8,4.1,9.3c2.8,2.3,5.1,1.5,8.6,2c2.5,0.3,4.5-0.3,6.8-0.6
			C751.7,144.8,753.2,145,754.8,143.6z"/>
		<path class="st46" d="M757.5,132.6c-0.4,0.2-0.9,0.3-1.6,0.3c0,1-0.5,1.8-1.4,2.2c-1.3,0.6-2.1-0.6-3-0.4
			c-0.8,0.2-1.1,1.6-2.2,1.8c-1,0.2-1.9-0.2-2.7-0.7c-0.6,0.9-1.5,1.1-2.4,1.1v0c0,0,0,0,0,0c0,0,0,0,0,0v0
			c-0.9,0.1-1.8-0.2-2.4-1.1c-0.8,0.6-1.7,1-2.7,0.7c-1.1-0.2-1.5-1.6-2.2-1.8c-0.9-0.2-1.7,1-3,0.4c-0.9-0.4-1.4-1.2-1.4-2.2
			c-0.7,0-1.2-0.1-1.6-0.3c-0.2,0.5-0.3,1.1-0.4,1.6c-0.8,4,1,6.8,4.1,9.3c2.8,2.3,5.1,1.5,8.6,2c2.5,0.3,4.5-0.3,6.8-0.6
			c1.9-0.2,3.4,0,5-1.4c0.5-0.5,1-1,1.5-1.8C758.2,139,758.4,135.6,757.5,132.6z"/>
	</g>
	<path class="st46" d="M734.2,145.7c9.8-3.5-6.5-16.6-8.8-7.8c-0.4,1.4-0.2,2.4,0.4,3.7c0.2,0.5,0.8,0.8,1,1.2
		c0.3,0.6-0.2,1.1,0.2,1.7C728.4,146.7,732,146.6,734.2,145.7z"/>
	<path class="st46" d="M753.9,145.7c-9.8-3.5,6.5-16.6,8.8-7.8c0.4,1.4,0.2,2.4-0.4,3.7c-0.2,0.5-0.8,0.8-1,1.2
		c-0.3,0.6,0.2,1.1-0.2,1.7C759.7,146.7,756.2,146.6,753.9,145.7z"/>
	<path class="st7" d="M757.1,135.8c-0.3-3.1-2.9-5.8-6.3-5.7c-5.3,0.1-5.4,9.7-5,12.9c0.3,2.8-1,6,3.3,6.6c1.4,0.2,2.5,0.1,3.7,0
		c2.5,0,3.2-0.8,3.9-3.1C757.6,143.6,757.5,139,757.1,135.8z"/>
	<path class="st7" d="M731.1,135.8c0.3-3.1,2.9-5.8,6.3-5.7c5.3,0.1,5.4,9.7,5,12.9c-0.3,2.8,1,6-3.3,6.6c-1.4,0.2-2.5,0.1-3.7,0
		c-2.5,0-3.2-0.8-3.9-3.1C730.6,143.6,730.8,139,731.1,135.8z"/>
	<path class="st47" d="M755.7,121.6c-0.5-1-1.5-2.2-2.2-3c-2.2-2.7-6-3.3-9.5-3.1c-3.5-0.2-7.3,0.4-9.5,3.1c-0.7,0.9-1.7,2-2.2,3
		c-0.6,1.3-0.6,3.7,0,5c0.6,1.2,1.7,2.3,2.7,3.1c2.3,1.7,5.1,2.5,7.9,2.7c0.3,0,0.6,0,0.9,0v0c0.1,0,0.1,0,0.2,0c0.1,0,0.1,0,0.2,0
		v0c0.3,0,0.6,0,0.9,0c2.7-0.2,5.6-0.9,7.9-2.7c1-0.8,2.2-1.9,2.7-3.1C756.3,125.3,756.3,122.9,755.7,121.6z"/>
	<g>
		<g>
			<path class="st7" d="M765,108.5c0.1-0.9-0.4-1.9-1.3-2.2c0.9-1.2,0.8-4.7-1.2-4.6c1.1-1,0.4-3.6-1.3-3.6c0.4-1.2-0.1-2.3-1-3
				c-0.2-0.2-2.2-1.8-2.4-1.1c0.7-1.8-1.9-3.6-3.3-2.2c0.2-2.2-3.4-1.9-3.4-1.6c-0.3-2-3.7-2.4-4.5-0.6c-0.3-1-1.5-1.6-2.6-1.7v0
				c0,0,0,0,0,0c0,0,0,0,0,0v0c-1.1,0.1-2.3,0.7-2.6,1.7c-0.9-1.8-4.3-1.5-4.5,0.6c0-0.3-3.5-0.6-3.4,1.6c-1.4-1.3-4,0.5-3.3,2.2
				c-0.3-0.7-2.2,0.9-2.4,1.1c-0.9,0.8-1.4,1.8-1,3c-1.7,0-2.4,2.6-1.3,3.6c-2,0-2.1,3.5-1.2,4.6c-0.9,0.3-1.4,1.3-1.3,2.2
				c0.1,0.5,0.3,1,0.9,1.3c-0.5-0.3-0.9,1.7-0.8,1.9c0.1,0.7,0.6,1.1,1.2,1.4c-0.7,0.5-1,1.2-0.8,2.1c0.3,1.2,1,1.4,2.1,1.4
				c-1,0-0.5,3.6,1.5,2.9c-0.3,0.7-0.4,1.5-0.1,2.2c0.3,0.6,1.1,1.4,1.8,0.8c-0.7,1.2,1.6,2.6,2.5,2c0.4,0.9,0.1,1.5,0.9,2.1
				c0.6,0.4,1.5,0.8,2.1,0.2c0.8,1,2.5,3.1,3.8,1.2c0.6,0.4,0.7,0.9,1.5,1.2c0.9,0.3,1.8,0,2.2-0.9c-0.4,0.8,1.2,1,2.4,0.9
				c1.2,0,2.8-0.1,2.4-0.9c0.5,0.9,1.3,1.2,2.2,0.9c0.8-0.3,0.9-0.8,1.5-1.2c1.3,1.9,3-0.2,3.8-1.2c0.6,0.6,1.5,0.3,2.1-0.2
				c0.9-0.7,0.6-1.3,0.9-2.1c0.9,0.6,3.2-0.8,2.5-2c0.7,0.6,1.5-0.2,1.8-0.8c0.3-0.7,0.2-1.4-0.1-2.2c1.9,0.7,2.5-2.9,1.5-2.9
				c1.1,0,1.8-0.2,2.1-1.4c0.2-0.8-0.1-1.6-0.8-2.1c0.6-0.3,1.1-0.6,1.2-1.4c0-0.3-0.4-2.2-0.8-1.9C764.6,109.5,764.9,109,765,108.5
				z"/>
			<path class="st7" d="M765,108.5c0.1-0.9-0.4-1.9-1.3-2.2c0.9-1.2,0.8-4.7-1.2-4.6c1.1-1,0.4-3.6-1.3-3.6c0.4-1.2-0.1-2.3-1-3
				c-0.2-0.2-2.2-1.8-2.4-1.1c0.7-1.8-1.9-3.6-3.3-2.2c0.2-2.2-3.4-1.9-3.4-1.6c-0.3-2-3.7-2.4-4.5-0.6c-0.3-1-1.5-1.6-2.6-1.7v0
				c0,0,0,0,0,0c0,0,0,0,0,0v0c-1.1,0.1-2.3,0.7-2.6,1.7c-0.9-1.8-4.3-1.5-4.5,0.6c0-0.3-3.5-0.6-3.4,1.6c-1.4-1.3-4,0.5-3.3,2.2
				c-0.3-0.7-2.2,0.9-2.4,1.1c-0.9,0.8-1.4,1.8-1,3c-1.7,0-2.4,2.6-1.3,3.6c-2,0-2.1,3.5-1.2,4.6c-0.9,0.3-1.4,1.3-1.3,2.2
				c0.1,0.5,0.3,1,0.9,1.3c-0.5-0.3-0.9,1.7-0.8,1.9c0.1,0.7,0.6,1.1,1.2,1.4c-0.7,0.5-1,1.2-0.8,2.1c0.3,1.2,1,1.4,2.1,1.4
				c-1,0-0.5,3.6,1.5,2.9c-0.3,0.7-0.4,1.5-0.1,2.2c0.3,0.6,1.1,1.4,1.8,0.8c-0.7,1.2,1.6,2.6,2.5,2c0.4,0.9,0.1,1.5,0.9,2.1
				c0.6,0.4,1.5,0.8,2.1,0.2c0.8,1,2.5,3.1,3.8,1.2c0.6,0.4,0.7,0.9,1.5,1.2c0.9,0.3,1.8,0,2.2-0.9c-0.4,0.8,1.2,1,2.4,0.9
				c1.2,0,2.8-0.1,2.4-0.9c0.5,0.9,1.3,1.2,2.2,0.9c0.8-0.3,0.9-0.8,1.5-1.2c1.3,1.9,3-0.2,3.8-1.2c0.6,0.6,1.5,0.3,2.1-0.2
				c0.9-0.7,0.6-1.3,0.9-2.1c0.9,0.6,3.2-0.8,2.5-2c0.7,0.6,1.5-0.2,1.8-0.8c0.3-0.7,0.2-1.4-0.1-2.2c1.9,0.7,2.5-2.9,1.5-2.9
				c1.1,0,1.8-0.2,2.1-1.4c0.2-0.8-0.1-1.6-0.8-2.1c0.6-0.3,1.1-0.6,1.2-1.4c0-0.3-0.4-2.2-0.8-1.9C764.6,109.5,764.9,109,765,108.5
				z"/>
			<path class="st46" d="M730,98.9c-0.8-0.6-2.1-1-3.3-1.1c0,0.1,0,0.1,0,0.2c-1.7,0-2.4,2.6-1.3,3.6c-2,0-2.1,3.5-1.2,4.6
				c-0.9,0.3-1.4,1.3-1.3,2.2c0.1,0.5,0.3,1,0.9,1.3c-0.5-0.3-0.9,1.7-0.8,1.9c0.1,0.5,0.3,0.8,0.6,1c0.7-0.2,1.3-1,1.2-2
				c0.1,0.1,0.2,0.2,0.4,0.3c1.5-0.2,2.8-0.6,2.5-2.5c2,0.2,2.9-0.8,2.6-2.6C733.6,104.9,732.3,100.5,730,98.9z"/>
			<path class="st46" d="M764.1,109.8c0.5-0.3,0.8-0.8,0.9-1.3c0.1-0.9-0.4-1.9-1.3-2.2c0.9-1.2,0.8-4.7-1.2-4.6
				c1.1-1,0.4-3.6-1.3-3.6c0-0.1,0-0.1,0-0.2c-1.2,0-2.5,0.5-3.3,1.1c-2.3,1.6-3.6,5.9-0.2,7.1c-0.4,1.8,0.6,2.8,2.6,2.6
				c-0.3,1.9,1.1,2.3,2.5,2.5c0.1-0.1,0.2-0.2,0.4-0.3c-0.1,0.9,0.5,1.7,1.2,2c0.3-0.2,0.5-0.5,0.6-1
				C765,111.5,764.6,109.6,764.1,109.8z"/>
		</g>
		<g>
			<g>
				<path class="st7" d="M722.7,99c0.1,0,0.1,0,0.2,0c0.3-3.4,4.4-2.6,6.3-1.4c2.3,1.6,3.6,5.9,0.2,7.1c0.4,1.8-0.6,2.8-2.6,2.6
					c0.3,1.9-1.1,2.3-2.5,2.5c-0.1-0.1-0.2-0.2-0.4-0.3c0.2,1.6-1.7,2.8-2.8,1.5c0.2,0.2-2.6,0.9-3.4,0c-0.3-0.3-0.8-2.7,0-2.4
					c-1.5-0.6-1.6-2.6-0.2-3.5c-0.3-1.2-0.1-3,1.5-3C718.3,99.7,720.6,98.6,722.7,99z"/>
			</g>
			<g>
				<path class="st7" d="M765.1,99c-0.1,0-0.1,0-0.2,0c-0.3-3.4-4.4-2.6-6.3-1.4c-2.3,1.6-3.6,5.9-0.2,7.1c-0.4,1.8,0.6,2.8,2.6,2.6
					c-0.3,1.9,1.1,2.3,2.5,2.5c0.1-0.1,0.2-0.2,0.4-0.3c-0.2,1.6,1.7,2.8,2.8,1.5c-0.2,0.2,2.6,0.9,3.4,0c0.3-0.3,0.8-2.7,0-2.4
					c1.5-0.6,1.6-2.6,0.2-3.5c0.3-1.2,0.1-3-1.5-3C769.5,99.7,767.2,98.6,765.1,99z"/>
			</g>
		</g>
		<path d="M744.6,121.7c-0.7,0-1.3,0.3-2,0.4c-0.4,0.1-2.1,0-1.8,0.7c0.2,0.5,1.6,0.9,2.1,1c1,0.2,2.1,0.1,3-0.2
			c0.4-0.1,1.1-0.4,1.3-0.8c0.3-0.5-0.5-0.5-0.9-0.6C745.7,122.1,745.2,121.7,744.6,121.7z"/>
		<path class="st46" d="M757.7,119.7c-0.2-2.1-1.1-3.2-2.8-4.3c-1.5-1-3.1-1.7-4.9-1.9c-2.6-0.4-5.3-0.8-7.9-0.6
			c-2.1,0.2-4.3,0.5-6.4,1.2c-1.3,0.4-2.9,0.7-3.9,1.8c-0.9,1-1.5,2.6-1.7,3.9c-0.1,0.5,0,1,0.1,1.4c0.1,0.3,0.6,0.2,0.7,0.5
			c0.1,0.3-0.3,0.6-0.2,0.9c0.3,1.1,0.6,1.8,1.9,1.8c-0.2,1.2,1.1,1.8,2.2,1.8c-0.2,1.2,1.7,1.3,2.3,0.5c0.6,1.7,1.8,0,2.3-0.8
			c0.4-0.6,0.8-1.3,1.1-2c0.2-0.6,0.6-1.5,1.4-1.5c0.6,0,1.2,0.3,1.8,0.4c0.7,0,1.3-0.1,1.9-0.2c0.8-0.2,1.4,0.4,1.7,1.1
			c0.3,0.7,0.7,1.5,1.1,2.1c0.5,0.8,1.8,2.7,2.4,0.9c0.6,0.7,2.5,0.6,2.3-0.5c1,0.1,2.4-0.6,2.2-1.8c1.3,0,1.6-0.7,1.9-1.8
			c0.1-0.3-0.3-0.6-0.2-0.9c0.1-0.2,0.6-0.2,0.7-0.5C757.7,120.7,757.7,120.1,757.7,119.7z"/>
		<path class="st7" d="M756.9,119.1c-0.3-2.6-3-5-5.4-6.2c-2.2-1.1-4.8-1.6-7.5-1.7c0,0-0.1,0-0.1,0c0,0-0.1,0-0.1,0
			c-2.7,0-5.3,0.5-7.5,1.7c-2.4,1.2-5,3.6-5.4,6.2c-0.1,0.4,0,0.9,0.1,1.2c0.1,0.3,0.6,0.2,0.6,0.4c0.1,0.2-0.3,0.5-0.2,0.8
			c0.2,0.9,0.5,1.6,1.7,1.5c-0.2,1,1.1,1.6,2,1.5c-0.2,1,1.6,1.1,2.2,0.5c0.5,1.5,1.7,0.1,2.2-0.6c0.8-1.1,0.9-2.4,2.5-2.7
			c0.6-0.1,1.1,0,1.6,0.3c0.5-0.5,1.4-0.4,1.9-0.3c0.3,0.1,0.5,0.1,0.8,0.3c1.1,0.5,1.4,1.9,2.1,2.7c0.2,0.3,0.6,0.8,1,0.9
			c0.2,0,1.1-0.4,0.8-0.7c0.5,0.6,2.4,0.6,2.2-0.5c1,0.1,2.2-0.5,2-1.5c1.2,0,1.5-0.6,1.7-1.5c0.1-0.2-0.3-0.5-0.2-0.8
			c0.1-0.2,0.5-0.2,0.6-0.4C756.9,120,756.9,119.5,756.9,119.1z"/>
		<g>
			<path d="M747.2,116.1c0,1.1-1.7,1.9-3.8,1.9c-2.1,0-3.8-0.9-3.8-1.9c0-1.1,1.7-1.9,3.8-1.9C745.5,114.2,747.2,115.1,747.2,116.1z
				"/>
			<g>
				<path d="M733.7,109.2c0,2.2,1.1,4.1,2.4,4.1c1.3,0,2.4-1.8,2.4-4.1c0-2.2-1.1-4.1-2.4-4.1C734.8,105.2,733.7,107,733.7,109.2z"
					/>
				<path class="st7" d="M736.3,107.9c-0.3,0.7-1,1.1-1.5,0.9c-0.5-0.2-0.7-0.9-0.4-1.6c0.3-0.7,1-1.1,1.5-0.9
					C736.4,106.5,736.6,107.2,736.3,107.9z"/>
			</g>
			<g>
				<path d="M748.5,109.2c0,2.2,1.1,4.1,2.4,4.1c1.3,0,2.4-1.8,2.4-4.1c0-2.2-1.1-4.1-2.4-4.1C749.5,105.2,748.5,107,748.5,109.2z"
					/>
				<path class="st7" d="M751,107.9c-0.3,0.7-1,1.1-1.5,0.9c-0.5-0.2-0.7-0.9-0.4-1.6c0.3-0.7,1-1.1,1.5-0.9
					C751.1,106.5,751.3,107.2,751,107.9z"/>
			</g>
		</g>
	</g>
</g>
</svg>
