<?xml version="1.0" encoding="utf-8"?>
<!-- Generator: Adobe Illustrator 24.2.3, SVG Export Plug-In . SVG Version: 6.00 Build 0)  -->
<svg version="1.1" id="Layer_1" xmlns="http://www.w3.org/2000/svg" xmlns:xlink="http://www.w3.org/1999/xlink" x="0px" y="0px"
	 viewBox="0 0 800 186" style="enable-background:new 0 0 800 186;" xml:space="preserve">
<style type="text/css">
	.st0{fill:#512F18;}
	.st1{opacity:0.3;}
	.st2{fill:#5E3A1E;}
	.st3{fill:#89542C;}
	.st4{fill:#FFF200;}
	.st5{fill:#FFFFFF;}
	.st6{fill:#C19E6C;}
	.st7{fill:#EAD1AD;}
	.st8{fill:#D2B27C;}
	.st9{fill:#FCF6EF;}
	.st10{fill:#6E7FD3;}
	.st11{fill:#997A4F;}
	.st12{fill:#FEFAF1;}
	.st13{fill:#EADAAD;}
	.st14{fill:#995120;}
	.st15{fill:#FCF7E7;}
	.st16{fill:#EF4136;}
	.st17{fill:#663008;}
	.st18{fill:#7C4811;}
	.st19{fill:#99550A;}
	.st20{fill:#E8D7D1;}
	.st21{fill:#BC6906;}
	.st22{fill:#0096FC;}
	.st23{fill:#3A3A3A;}
	.st24{fill:#212121;}
	.st25{fill:#514539;}
	.st26{fill:#BAB9B9;}
	.st27{fill:#D1D1D1;}
	.st28{fill:#3D3D3D;}
	.st29{fill:#EDFAFB;}
	.st30{fill:#F7941D;}
	.st31{fill:#75260B;}
	.st32{fill:#D38D4F;}
	.st33{fill:#EEB375;}
	.st34{fill:#FFE3CA;}
	.st35{fill:#009444;}
	.st36{fill:#AA694D;}
	.st37{fill:#BCB7B3;}
	.st38{fill:#E2D6CC;}
	.st39{fill:#F15A29;}
	.st40{fill:#FFFDF3;}
	.st41{fill:#A97C50;}
</style>
<g>
	<path class="st0" d="M255.4,117.1c0.8,0.7,1.6,1.4,2.3,2.3c0.8,1,1.6,1.8,2.7,2.5c3.9,2.4,11.7,5.6,13.4-0.9c0-0.1,0-0.1,0-0.2
		c1.1-4.5-3-7-6.5-8.6c-2.1-0.9-4.3-1.6-6.5-2.4c-2.7-1-5.3-2.7-7.5-4.6c-1.1-1-6.9-8.9-7.6-9.8c-1.4-2-0.4,5-0.3,5.4
		c1.8,6.4,2.8,7.4,3.6,8.9C250.6,112.7,252.8,114.8,255.4,117.1z"/>
	<path class="st1" d="M238.8,147.9c0,5.2,18.9,9.5,42.2,9.5c23.3,0,42.2-4.2,42.2-9.5c0-5.2-18.9-9.5-42.2-9.5
		C257.7,138.4,238.8,142.7,238.8,147.9z"/>
	<path class="st2" d="M253.6,137.7c-3.6-3.5-8.9-9.9-8.9-15.8c0,0,0,0,0,0c0,0,0,0,0,0c0-0.2,0-0.5,0-0.7c0,0,0-0.1,0-0.1
		c0-0.2,0-0.4,0.1-0.6c0,0,0-0.1,0-0.1c0-0.2,0.1-0.4,0.1-0.6c0-0.1,0-0.1,0-0.2c0.1-0.2,0.1-0.5,0.2-0.7c0.1-0.2,0.2-0.5,0.3-0.7
		c0-0.1,0.1-0.2,0.1-0.2c0.1-0.1,0.1-0.3,0.2-0.4c0-0.1,0.1-0.2,0.1-0.3c0.1-0.1,0.1-0.2,0.2-0.4c0-0.1,0.1-0.2,0.1-0.3
		c0.1-0.1,0.1-0.2,0.2-0.3c0-0.1,0.1-0.2,0.1-0.3c0.1-0.1,0.1-0.2,0.2-0.3c0.1-0.1,0.1-0.2,0.2-0.2c0.1-0.1,0.1-0.2,0.2-0.3
		c0.1-0.1,0.1-0.2,0.2-0.2c0.1-0.1,0.1-0.2,0.2-0.3c0.1-0.1,0.1-0.1,0.2-0.2c0.1-0.1,0.1-0.2,0.2-0.3c0-0.1,0.1-0.1,0.1-0.2
		c0.1-0.1,0.2-0.2,0.3-0.3c0,0,0.1-0.1,0.1-0.1c0.1-0.1,0.2-0.2,0.4-0.4c0,0,0.1-0.1,0.1-0.1c0.1-0.1,0.2-0.2,0.3-0.2
		c0.1,0,0.1-0.1,0.2-0.1c0.1-0.1,0.2-0.1,0.2-0.2c0.1,0,0.1-0.1,0.2-0.1c0.1-0.1,0.2-0.1,0.2-0.2c0.1,0,0.1-0.1,0.2-0.1
		c0.1-0.1,0.2-0.1,0.3-0.2c0.1,0,0.1-0.1,0.2-0.1c0.1-0.1,0.2-0.1,0.3-0.2c0.1,0,0.1-0.1,0.2-0.1c0.1-0.1,0.2-0.1,0.3-0.1
		c0.1,0,0.1-0.1,0.2-0.1c0.1-0.1,0.2-0.1,0.4-0.2c0,0,0.1,0,0.1,0c0.3-0.1,0.6-0.2,1-0.3c0,0,0,0,0,0c0.2,0,0.3-0.1,0.5-0.1
		c0,0,0.1,0,0.1,0c0.1,0,0.3-0.1,0.4-0.1c0,0,0.1,0,0.1,0c0.1,0,0.3,0,0.4-0.1c0,0,0.1,0,0.1,0c0.1,0,0.3,0,0.4,0c0,0,0.1,0,0.1,0
		c0.1,0,0.3,0,0.4,0c0,0,0.1,0,0.1,0c0.2,0,0.3,0,0.5,0c0,0,0,0,0,0c0.9,0,1.8,0.1,2.8,0.3c0,0,0,0,0,0c0.2,0,0.4,0.1,0.5,0.1
		c0,0,0,0,0,0c0.2,0,0.4,0.1,0.5,0.1c0,0,0,0,0,0c0,0,0,0,0,0c4.9,1.4,9.9,5,13.8,9.4c4.1,4.5,5,12.7,2.4,17.5
		c-2.7,5-8.1,7.1-12.7,8.8c-4.1,1.5-10.1,4.6-14.5,0.6c-1.8-1.6-2.1-4.8-1-6.7C249.3,138.4,251.8,138.9,253.6,137.7z"/>
	<path class="st2" d="M290.5,120.5c3.9-4.4,9-8,13.8-9.4v0c0,0,0,0,0,0c0.2-0.1,0.4-0.1,0.5-0.1c0,0,0,0,0,0c0.2,0,0.4-0.1,0.5-0.1
		c0,0,0,0,0,0c0.9-0.2,1.9-0.3,2.8-0.3c0,0,0,0,0,0c0.2,0,0.3,0,0.5,0c0,0,0.1,0,0.1,0c0.1,0,0.3,0,0.4,0c0,0,0.1,0,0.1,0
		c0.1,0,0.3,0,0.4,0c0,0,0.1,0,0.1,0c0.1,0,0.3,0,0.4,0.1c0,0,0.1,0,0.1,0c0.1,0,0.3,0.1,0.4,0.1c0,0,0.1,0,0.1,0
		c0.2,0,0.3,0.1,0.5,0.1c0,0,0,0,0,0c0.3,0.1,0.7,0.2,1,0.3c0,0,0.1,0,0.1,0c0.1,0.1,0.3,0.1,0.4,0.2c0,0,0.1,0,0.1,0.1
		c0.1,0.1,0.2,0.1,0.3,0.2c0.1,0,0.1,0.1,0.2,0.1c0.1,0.1,0.2,0.1,0.3,0.2c0.1,0,0.1,0.1,0.2,0.1c0.1,0.1,0.2,0.1,0.3,0.2
		c0.1,0,0.1,0.1,0.2,0.1c0.1,0.1,0.2,0.1,0.3,0.2c0.1,0,0.1,0.1,0.2,0.1c0.1,0.1,0.2,0.1,0.3,0.2c0,0,0.1,0.1,0.1,0.1
		c0.1,0.1,0.2,0.2,0.3,0.3c0,0,0.1,0.1,0.1,0.1c0.1,0.1,0.3,0.3,0.4,0.4c0,0,0,0,0,0c0.1,0.1,0.2,0.3,0.4,0.4c0,0,0.1,0.1,0.1,0.1
		c0.1,0.1,0.2,0.2,0.2,0.3c0,0.1,0.1,0.1,0.1,0.2c0.1,0.1,0.1,0.2,0.2,0.3c0,0.1,0.1,0.1,0.1,0.2c0.1,0.1,0.1,0.2,0.2,0.3
		c0,0.1,0.1,0.2,0.1,0.2c0.1,0.1,0.1,0.2,0.2,0.3c0,0.1,0.1,0.2,0.1,0.2c0.1,0.1,0.1,0.2,0.2,0.3c0,0.1,0.1,0.2,0.1,0.3
		c0.1,0.1,0.1,0.2,0.2,0.4c0,0.1,0.1,0.2,0.1,0.3c0.1,0.1,0.1,0.3,0.2,0.4c0,0.1,0.1,0.1,0.1,0.2c0.1,0.2,0.2,0.5,0.3,0.7
		c0.1,0.2,0.2,0.5,0.2,0.7c0,0.1,0,0.1,0,0.2c0,0.2,0.1,0.4,0.1,0.6c0,0,0,0.1,0,0.1c0,0.2,0.1,0.4,0.1,0.6c0,0,0,0.1,0,0.1
		c0,0.2,0,0.5,0,0.7c0,0,0,0,0,0c0,0,0,0,0,0c0.1,6-5.2,12.4-8.9,15.8c1.8,1.2,4.3,0.7,5.6,2.9c1.2,2,0.8,5.1-1,6.7
		c-4.5,4-10.4,0.9-14.5-0.6c-4.6-1.7-10-3.8-12.7-8.8C285.5,133.2,286.5,125,290.5,120.5z"/>
	<path class="st3" d="M257.4,93.4c1.6-5.9,4-10,9.2-10.6c5-0.6,10.3-1.6,15.4-1.8v0c0.1,0,0.2,0,0.3,0c0.1,0,0.2,0,0.3,0v0
		c5.1,0.2,10.3,1.2,15.4,1.8c5.2,0.6,7.5,4.8,9.2,10.6c1.5,5.2,1.7,10.3,0.8,15.8c-0.3,1.7-0.6,3.4-0.9,5.2
		c-0.8,3.9-1.8,7.8-3.2,11.2c-1.8,4.5-3.5,10.3-6.2,13.8c-1,1.2-2.2,2-3.5,2.5c-1.9,1.9-6.5,2.7-11.8,2.7c-5.3,0-9.8-0.8-11.7-2.7
		c0,0,0,0-0.1,0c-1.3-0.5-2.5-1.3-3.5-2.5c-2.8-3.5-4.4-9.4-6.2-13.8c-1.3-3.2-2.3-6.8-3-10.5c-0.4-2-0.8-4-1.1-5.9
		C255.7,103.7,255.9,98.6,257.4,93.4z"/>
	<path class="st2" d="M270,115.4c5.4,0,9,3.2,14.9,1.8c5-1.2,10.5-3.2,13.3,1.8c3.4,6,3.7,14.2,0.4,20.6c-0.3,0.4-0.7,0.8-1.1,1.2
		c-1,0.9-2.2,1.5-3.5,1.9c-1.9,1.4-6.5,2-11.8,2c-5.3,0-9.8-0.6-11.7-2c0,0,0,0-0.1,0c-1.3-0.3-2.5-0.9-3.5-1.9
		c-1.7-1.7-3-4-4.2-6.3C262.1,128.4,261.4,115.4,270,115.4z"/>
	<g>
		<g>
			<path class="st4" d="M302.1,82.9c1,2.4,1,6.6,0,8.9c-0.9,2.2-2.7,4.2-4.4,5.6c-3.6,3.1-8.2,4.5-12.5,4.8
				c-6.4,0.4-13,0.4-18.2-4.7c-2.6-2.5-4.8-5.1-5.3-9.3c-1.2-11.1,7.2-13.6,14.5-15.2c6.8-1.5,17.2-2.6,22.3,4.5
				C299.6,79.1,301.3,81.1,302.1,82.9z"/>
		</g>
		<path class="st3" d="M281.5,93.7c2.1-0.4,4.2-0.7,6.6-0.2c6.2,1.3,8.6-0.6,12.7-5.7c5.7-7,2.1-12.3,4-19.4c1.3-4.8,5-9.7,5.9-15
			c1.3-7.7-0.2-16.4-5.7-22.2c-2.8-3-5.2-3.8-9-4c-4.5-0.2-8.2,2.6-12.5,2.5c-2.7-0.1-5.1-2.6-8.2-2.7c-7.6-0.3-14.4,6.2-16.5,13.3
			c-0.9,3.2-1.5,6.6-1.6,10c-0.1,3.4,0,6.8,1,10c0.9,2.8,3.7,4.5,4.2,7.3c0.3,1.8-0.9,6.5-0.8,8.4c0.3,3.7,0.6,6,2,9.5
			C266.6,93.6,273.8,95.2,281.5,93.7z"/>
		<path class="st2" d="M259.5,59.9c0.3-2.7,0.7-5.4,1-8.1c0.4-3.7,1.2-6.6,3-10c2.2-4.1,9.1-11.3,0.6-13.8c-4.7-1.4-11,6.5-13.1,9.9
			c-1.5,2.5-1.6,5.6-3,8c-1.9,3.3-5.2,5.4-5.6,9.1c-0.7,5.8,5,9,7.1,13.8c0.5,1.2,0.5,3.8,2.2,4.4C258.6,75.9,259.2,63.1,259.5,59.9
			z"/>
		<path class="st2" d="M309.1,59.9c-0.3-2.7-0.7-5.4-1-8.1c-0.4-3.7-1.2-6.6-3-10c-2.2-4.1-9.1-11.3-0.6-13.8
			c4.7-1.4,11,6.5,13.1,9.9c1.5,2.5,1.6,5.6,3,8c1.9,3.3,5.2,5.4,5.6,9.1c0.7,5.8-5,9-7.1,13.8c-0.5,1.2-0.5,3.8-2.2,4.4
			C310,75.9,309.5,63.1,309.1,59.9z"/>
		<path d="M274.2,88.5c0.8,0.4,1.6,0.7,2.6,0.7c0.8,0,1.7-0.1,2.4-0.4c0.7-0.3,1.2-0.9,1.9-1.2c0.5-0.2,1.1-0.5,1.6-0.5
			c0.9-0.1,1.4,0.6,2.1,1.2c0.8,0.6,2,0.9,3,1c1.6,0.2,3.7,0.1,5.1-1.2c0.2-0.2,0.4-0.6,0.7-0.8c0.1,0.8-0.5,1.6-0.9,1.9
			c-0.6,0.4-1.5,0.9-2.2,1.3c-0.8,0.4-1.6,0.5-2.5,0.6c-1.2,0.1-2.5,0.1-3.6-0.6c-1.3-0.7-1.6-1.3-3-0.4c-1.1,0.7-2.3,0.9-3.5,1
			c-0.7,0-1.4,0.2-2.1,0c-1.9-0.4-3.9-2.1-4.4-4.6c0.5,0.1,0.8,0.8,1.2,1.1c0.4,0.4,0.9,0.7,1.4,0.9C274,88.4,274.1,88.4,274.2,88.5
			z"/>
		<path d="M274.3,74.1c-1.7,7.7,16.5,7.9,17.3,2c0.7-5.3-5.8-6.2-9-6.2C278.8,69.9,275.4,69.4,274.3,74.1z"/>
		<g>
			<path d="M267,54.4c0,3.2,1.7,5.9,3.7,5.9s3.7-2.6,3.7-5.9c0-3.2-1.7-5.9-3.7-5.9S267,51.2,267,54.4z"/>
			<path class="st5" d="M270.9,52.5c-0.5,1-1.5,1.6-2.3,1.3c-0.8-0.3-1-1.3-0.6-2.3c0.5-1,1.5-1.6,2.3-1.3
				C271.1,50.5,271.3,51.5,270.9,52.5z"/>
		</g>
		<g>
			<path d="M291.7,54.4c0,3.2,1.7,5.9,3.7,5.9s3.7-2.6,3.7-5.9c0-3.2-1.7-5.9-3.7-5.9S291.7,51.2,291.7,54.4z"/>
			<path class="st5" d="M295.6,52.5c-0.5,1-1.5,1.6-2.3,1.3c-0.8-0.3-1-1.3-0.6-2.3c0.5-1,1.5-1.6,2.3-1.3
				C295.8,50.5,296,51.5,295.6,52.5z"/>
		</g>
	</g>
	<path class="st3" d="M257.6,149.8c1.4-1.4,4-1.4,5.1-3.1c1.1-1.6,0.2-3.8,0.1-5.5c-0.4-4.1-0.8-8.2-1.5-12.3
		c-0.1-0.7-0.3-1.4-0.4-2c-1.7-6.6-5.5-12.9-3.1-19.8c1.6-4.8,7.5-6.4,12.6-4.2c1.5,0.6,2.5,1.7,3.2,2.9c0.4,0.6,0.6,1.3,0.8,2
		c0.8,2.8,0.6,6.2,0.4,8.6c-0.4,6.1,0.1,12.3,0.1,18.3c-0.1,6.6,1.6,14.8-6.8,18.5c-2.4,1-5.2,1.8-8,1.3
		C257.5,153.9,255.7,151.8,257.6,149.8z"/>
	<path class="st3" d="M305.9,149.8c-1.4-1.4-4-1.4-5.1-3.1c-1.1-1.6-0.2-3.8-0.1-5.5c0.4-4.1,0.8-8.2,1.5-12.3
		c0.1-0.7,0.3-1.4,0.4-2c1.7-6.6,5.5-12.9,3.1-19.8c-1.6-4.8-7.5-6.4-12.6-4.2c-1.5,0.6-2.5,1.7-3.2,2.9c-0.4,0.6-0.6,1.3-0.8,2
		c-0.8,2.8-0.6,6.2-0.4,8.6c0.4,6.1-0.1,12.3-0.1,18.3c0.1,6.6-1.6,14.8,6.8,18.5c2.4,1,5.2,1.8,8,1.3
		C306,153.9,307.8,151.8,305.9,149.8z"/>
</g>
<g>
	<path class="st6" d="M79.9,134.1c-1.2-0.1-1.9-0.1-2.5-1.1c-0.6-1-1-2.4-0.4-3.4c0.8-1.5,3.5-2.3,5.1-2.3c1.9-0.1,3.8-0.4,5.4,0.6
		c-0.4,0.3-1.2,0.5-1.8,0.6c1-0.1,2,1.2,2.7,1.8c0.6,0.6,1.4,1.1,1.8,1.9c-0.3,0.2-0.7,0.1-1.1,0.1c0.8,1.2,1.5,2.4,1.6,4
		c-0.2,0-0.4,0-0.5,0c-0.1,1,0.1,2,0.1,3c-0.1-0.1-0.4-0.2-0.5-0.4c-0.2,0.7-0.2,1.4-0.5,2c-0.1-0.2-0.4-0.4-0.4-0.6
		c-0.2,0.5-0.2,1.1-0.4,1.7c-0.7-0.3-0.8-1.5-1.6-1.8c-0.1,0.2-0.1,0.5-0.1,0.8c-0.3-0.9-1.5-1.5-2.2-2c-0.7-0.6-1.3-1.4-1.8-2.2
		C82.1,135.5,81.3,134.3,79.9,134.1z"/>
	<path class="st1" d="M35.6,150.2c0,4,11.8,7.2,26.3,7.2c14.5,0,26.3-3.2,26.3-7.2c0-4-11.8-7.2-26.3-7.2
		C47.3,143,35.6,146.2,35.6,150.2z"/>
	<path class="st7" d="M37.9,148.2c-0.1,0.1-1.2,0.9-0.8,0.9c1.2,0.1,2.3,0,3.2-0.6c-0.1,0.2,0,0.4-0.1,0.7c1.1,0.1,1.8-0.5,2.7-0.6
		c0,0.4,0.2,0.7,0.2,1.1c0.9-0.2,1.8-0.7,2.6-1c1-0.3,1.9-0.3,2.8-0.8c2.8-1.6,4.5-4.3,5.1-6.8c0.7-3-1.8-7.7-5.9-8.8
		c-3.8-1-8.6,2.5-9.5,5.5c0.5,0,0.9-0.3,1.5-0.3c-0.1,1.3-1.7,2.5-1.9,3.9c0.5-0.2,1-0.4,1.6-0.5c0,0.5-0.6,1.1-0.8,1.6
		c-0.3,0.6-0.4,1.3-0.4,1.9c0.3-0.2,0.7-0.4,1-0.6c-0.2,0.1-0.6,1.9-0.8,2.3c-0.4,0.8-1,1.3-1.8,1.9
		C37.2,148.2,37.2,148.4,37.9,148.2z"/>
	<path class="st7" d="M86.1,148.1c0.1,0.1,1.2,1,0.8,1c-1.2,0.1-2.3,0-3.2-0.6c0.2,0.3,0,0.5,0.1,0.8c-1.1,0.2-1.8-0.5-2.7-0.6
		c0,0.4-0.2,0.8-0.2,1.2c-0.9-0.2-1.8-0.8-2.7-1c-1-0.3-1.9-0.4-2.8-0.9c-2.9-1.7-4.6-4.7-5.2-7.5c-0.7-3.3,1.8-8.6,5.9-9.9
		c3.8-1.2,8.7,2.7,9.7,6c-0.5,0-0.9-0.3-1.5-0.3c0.1,1.5,1.8,2.8,1.9,4.3c-0.5-0.2-1.1-0.5-1.6-0.5c0,0.6,0.6,1.2,0.9,1.8
		c0.3,0.7,0.4,1.4,0.4,2.1c-0.4-0.2-0.7-0.4-1-0.6c0.2,0.1,0.6,2.2,0.8,2.5c0.5,0.9,1,1.5,1.8,2.1C86.8,148.1,86.8,148.3,86.1,148.1
		z"/>
	<path class="st8" d="M45.7,138.6c0.3,1.9-1.1,4.1,0.1,5.9c0.6,0.8,0.8,0.7,1.2,1.7c0.1,0.5,1.3,2.4,1.2,2.7c0-0.5,0-1.1,0.2-1.5
		c1.7,2.3,5,1,7.2,0.9c3.2,0,6.3,0.8,9.5,0.6c2.1-0.1,4.2-0.6,6.4-0.3c1.8,0.2,3.2,1.1,4.4-0.8c0.1,0.3,0.4,0.6,0.5,0.9
		c0.7-1.3,2.4-3.4,1.6-4.9c0.1,0.2,0.5,0.5,0.6,0.6c0.5-1.7,0-3.4,0.2-5.1c0.2,0.2,0.7,0.4,0.9,0.6c0.1-2.3-0.7-4.3-0.8-6.4
		c0.4,0.3,0.9,0.7,1.3,1c0.5-4.6-2-11.6-6.1-14.2c-1.9-1.2-4.4-1.6-6.7-2c-2.6-0.5-5.3-1-8-0.8c-2.5,0.2-4.6,1.3-7.1,1.7
		c-3.7,0.5-4.2,1.8-5.4,5c-1,2.8-2.6,5-2.8,8.1c-0.2,2.4,0.8,4.7,0,7.2C44.7,139.2,45.2,138.9,45.7,138.6z"/>
	<g>
		<path class="st9" d="M57.4,125.6c0.8,0.7-0.8,3-0.8,3.7c-0.1,1.7,1.6,2.8,1.9,4.5c-0.6-0.2-1.2-0.3-1.8-0.3
			c-0.1,1.4,1,2.6,1.5,3.9c-0.6-0.1-1.2-0.3-1.8-0.5c0.3,1.4,1.6,3,2.2,4.4c-0.5-0.2-1.1-0.1-1.6-0.3c0.1,1.2,1.2,2.8,1.8,3.9
			c-0.7,0.1-1.3-0.1-1.8-0.4c3.3,2.1,3,9.3-2,7.1c-0.8,1.2-1.6,1-2.8,0.3c-0.8-0.5-0.3-0.5-1.2-0.5c-0.9,0.1-1.4,1-2.5,0.3
			c-0.5-0.3-0.9-1.3-1-1.9c-0.1-0.6,0.7-4.2,1.1-4.5c-0.4,0.2-0.7,0.3-1,0.6c-0.1-2.1,0.1-4.4,0.2-6.5c-0.3,0.4-0.6,0.5-0.9,0.7
			c-0.1-1.9,0.5-3.7,0.3-5.7c-0.2,0.2-0.5,0.4-0.7,0.6c-0.3-1.8,0.6-3.9,1.1-5.6c-0.6,0.4-1.2,0.9-1.8,1.2c-0.3-1.5,1.7-3.4,2.2-4.9
			c0.7-2.1,1.5-4.1,2.9-6C50.8,119.9,57.3,125.6,57.4,125.6z"/>
	</g>
	<g>
		<path class="st9" d="M67.4,126.5c-0.8,0.7,0.8,3,0.8,3.7c0.1,1.7-1.6,2.8-1.9,4.5c0.6-0.2,1.2-0.3,1.8-0.3c0.1,1.4-1,2.6-1.5,3.9
			c0.6-0.1,1.2-0.3,1.8-0.5c-0.3,1.4-1.6,3-2.2,4.4c0.5-0.2,1.1-0.1,1.6-0.3c-0.1,1.2-1.2,2.8-1.8,3.9c0.7,0.1,1.3-0.1,1.8-0.4
			c-3.3,2.1-3,9.3,2,7.1c0.8,1.2,1.6,1,2.8,0.3c0.8-0.5,0.3-0.5,1.2-0.5c0.9,0.1,1.4,1,2.5,0.3c0.5-0.3,0.9-1.3,1-1.9
			c0.1-0.6-0.7-4.2-1.1-4.5c0.4,0.2,0.7,0.3,1,0.6c0.1-2.1-0.1-4.4-0.2-6.5c0.3,0.4,0.6,0.5,0.9,0.7c0.1-1.9-0.5-3.7-0.3-5.7
			c0.2,0.2,0.5,0.4,0.7,0.6c0.3-1.8-0.6-3.9-1.1-5.6c0.6,0.4,1.2,0.9,1.8,1.2c0.3-1.5-1.7-3.4-2.2-4.9c-0.7-2.1-1.5-4.1-2.9-6
			C74,120.7,67.5,126.4,67.4,126.5z"/>
	</g>
	<path class="st9" d="M44.4,129.9c0.5-2.2,1.7-3.9,2.5-6.1c1.1-3,1.7-4.2,5.4-4.7c2.4-0.3,4.6-1.3,7.1-1.6c2.7-0.2,5.4,0.2,8,0.7
		c2.3,0.4,4.7,0.8,6.7,1.9c3.5,2.1,5.8,7.1,6.1,11.2c-0.5-0.3-0.9-0.7-1.5-0.9c0,1.2-0.7,3-1.5,4c-0.6-0.3-0.8-1.1-1.5-1.4
		c-0.1,1-0.7,2.5-1.4,3.1c-0.3-0.7-0.5-1.9-1.3-2.2c-0.1,1-1,2-1.8,2.6c-0.5-0.7-0.6-2-1.6-2.4c-0.7,0.7-0.8,1.9-1.8,2.4
		c-0.5-0.8-0.8-1.6-1.6-2.1c-0.6,0.8-1.6,1.3-2.1,2.1c-0.3-0.6-0.3-1.4-1.2-1.4c0,0.7-0.6,1-1,1.5c-0.9-1-1.1-2.1-2.2-0.8
		c-1.3,1.5-1.1,0.9-2.3-0.4c-2.1-2-0.7,1.3-2.4,1.3c-1.3,0-1.3-2.8-2.8-2.7c-0.1,1.3-0.1,2.1-1.3,1.1c-0.8-0.8-1.9-1.6-2.5-2.5
		c0,0.5,0,1.1-0.2,1.6c-0.8-1.1-1.4-2.3-2-3.6c-0.1,0.5-0.3,1.1-0.6,1.7C45,131.8,44.6,130.9,44.4,129.9z"/>
	<path class="st10" d="M77.6,118.5c0.7,1.5,0.8,4.3,0,5.8c-0.7,1.4-2.1,2.7-3.3,3.6c-2.8,2-6.2,2.9-9.6,3.1c-4.9,0.3-9.9,0.2-13.9-3
		c-2-1.6-3.7-3.3-4-6c-0.9-7.2,5.5-8.8,11-9.8c5.2-1,13.2-1.7,17.1,2.9C75.7,116,77,117.3,77.6,118.5z"/>
	<g>
		<path class="st11" d="M76.9,95.4c-0.6-1.5-0.7-3,0.2-4.3c2.3-3.3,9.5,1.3,11.9,2.8c2.2,1.4,4.2,3.2,6,5.2c0.9,1,3.3,5.1,4.5,5.4
			c-0.9-0.2-1.9-0.3-2.8-0.2c1.4,2,3.3,4.4,3.2,7c-0.6-0.1-1.3,0-1.9-0.1c0,2.8,0.5,6,0.9,8.8c-0.3-0.2-0.8-0.2-1.1-0.4
			c-1.4,1.5-1,3.3-3.1,3.9c-1.6,0.5-3.3,0.3-4.3,2c-1.5-1.3-2.1,0-3.5-0.2c-1.3-0.2-2.2-1.6-2.7-2.6c-1.8-3.3-1.8-7.1-1.6-11
			c0.1-3.9,0.3-7.6-2.1-11C79.4,99.5,77.7,97.5,76.9,95.4z"/>
		<path class="st11" d="M46.1,95.4c0.6-1.5,0.7-3-0.2-4.3c-2.3-3.3-9.5,1.3-11.9,2.8c-2.2,1.4-4.2,3.2-6,5.2c-0.9,1-3.3,5.1-4.5,5.4
			c0.9-0.2,1.9-0.3,2.8-0.2c-1.4,2-3.3,4.4-3.2,7c0.6-0.1,1.3,0,1.9-0.1c0,2.8-0.5,6-0.9,8.8c0.3-0.2,0.8-0.2,1.1-0.4
			c1.4,1.5,1,3.3,3.1,3.9c1.6,0.5,3.3,0.3,4.3,2c1.5-1.3,2.1,0,3.5-0.2c1.3-0.2,2.2-1.6,2.7-2.6c1.8-3.3,1.8-7.1,1.6-11
			c-0.1-3.9-0.3-7.6,2.1-11C43.7,99.5,45.3,97.5,46.1,95.4z"/>
		<path class="st8" d="M40.3,106.1c0.3-0.4,0.7-0.8,1.2-1.2c2.3-2.1,5-3.3,7.9-4.2c6.3-1.8,12.6-2.5,19.3-2.2
			c7.7,0.4,15.1,3.9,16.7,12.3c1,5.6-4.1,11.3-7.8,14.6c0.1-0.6-0.2-1.2-0.3-1.8c-1.1,0.4-1.7,1.5-2.7,1.9c-0.3-0.2-0.3-0.4-0.3-0.7
			c-1.3,0.7-2.3,2.1-3.7,2.8c0.1-0.1-0.3-1.4-0.3-1.5c-1.5,0.7-3.1,2.3-4.9,2.3c-0.4-0.8-0.8-1.7-1.1-2.6c-0.9,0.7-1.5,1.8-2,2.8
			c-1.2-1.2-2.9-2.6-4.5-3c-0.1,1,0,2.1,0.1,3c-1.3-1-3-2.5-4.3-3.2c0,0.8,0,1.7-0.2,2.4c-2.3-0.9-3.3-5.1-5-1.4
			c-0.5-0.3-2.9-3.1-2.8-3.7c-0.1,0.3-0.4,0.8-0.4,1.2c-1.6-3.1-4.3-5-5.7-8.3C37.7,111.5,37.7,108.9,40.3,106.1z"/>
		<path class="st12" d="M86,111.5c0-1,0-2-0.1-3c-0.6-5-0.4-10.3-4.2-13.6c0.5,0.1,1.2-0.1,1.7-0.1c-0.4-1.9-4.3-4.2-5.9-4.3
			c0.7-0.4,1.7-0.7,2.6-1.1c-2.9-2.3-7.1-2-10.5-2c0.3-0.3,1.4-1.9,1.7-1.9c-1,0-2,0.1-3,0.3c-0.7,0.2-1.5,0.2-2.2,0.5
			c-0.4,0.1-0.7,0.4-1.1,0.4c0.7-0.9,1.1-1.8,2.1-2.4c-1-0.4-2.6,0.3-3.6,0.6c-1.4,0.5-2.4,1.4-3.5,2.2c-1.8-1.5-3.8-2.1-6.2-2
			c0.6,0.7,1,1.2,1.3,2.1c-1.2-0.2-2.3-1-3.5-1.2c-1.2-0.2-2.6-0.1-3.6,0.6c0.3,0.2,0.6,0.7,0.9,0.9c-1.5,0.4-4.4,1.4-5.5,2.6
			c0.4,0.1,0.6,0.3,1.1,0.3c-1.9,0.6-3.9,2.1-4.5,4.3c0.4-0.3,0.9-0.4,1.3-0.7c-2.7,2-2.8,7.7-3.1,10.8c-0.2,2.2-0.2,4.5,0,6.8H86z"
			/>
		<path class="st8" d="M80.9,118.5c-8.3,0.5-19.8-6.5-15.7-16.1c1-2.3,3.9-5.8,6.4-6.5c-0.3,0.8-0.8,1.5-1.3,2.1
			c1.9-1.2,7.5-2.5,9.5-1.4c-0.5,0.1-1.1,0.3-1.6,0.4c2.8,0.4,5.6,2.4,7.6,4.1c-0.8,0.3-1.6,0.2-2.3-0.1c3.1,3,4.3,5.2,4.1,9.7
			c-0.4-0.2-1.1-0.2-1.5-0.5c0.4,1.5,1,4.3,0.2,5.7C85.4,117.6,82.5,118.4,80.9,118.5z"/>
		<path class="st8" d="M42.4,118.5c8.3,0.5,19.8-6.5,15.7-16.1c-1-2.3-3.9-5.8-6.4-6.5c0.3,0.8,0.8,1.5,1.3,2.1
			c-1.9-1.2-7.5-2.5-9.5-1.4c0.5,0.1,1.1,0.3,1.6,0.4c-2.8,0.4-5.6,2.4-7.6,4.1c0.8,0.3,1.6,0.2,2.3-0.1c-3.1,3-4.3,5.2-4.1,9.7
			c0.4-0.2,1.1-0.2,1.5-0.5c-0.4,1.5-1,4.3-0.2,5.7C37.9,117.6,40.8,118.4,42.4,118.5z"/>
		<path d="M79.6,103.9c0,2.8-2.3,5-5.2,5c-2.9,0-5.2-2.3-5.2-5c0-2.8,2.3-5,5.2-5C77.2,98.9,79.6,101.1,79.6,103.9z"/>
		<path d="M55.1,103.3c0,2.8-2.3,5-5.2,5c-2.9,0-5.2-2.3-5.2-5c0-2.8,2.3-5,5.2-5C52.7,98.3,55.1,100.5,55.1,103.3z"/>
		<path class="st12" d="M73.5,100.3c0.5,0.5,0.3,1.5-0.4,2.3c-0.8,0.8-1.8,1-2.3,0.5c-0.5-0.5-0.3-1.5,0.4-2.3
			C71.9,100,72.9,99.8,73.5,100.3z"/>
		<path d="M66.5,117.9c-3.2-2.9-7.9-2.8-10.7,0.8c-0.8,1.1-1.6,2.5-0.2,3.6c1.7,1.3,4.6-0.5,6.2-1.2
			C64.4,124.7,70.9,121.9,66.5,117.9z"/>
		<path class="st12" d="M46.6,124.4c6-0.4,14.1-1,15.8-8.2c0.3-1.5,0.3-3.1-0.2-4.5c-0.2-0.6-2.3-2.7-2.3-2.8c0,0.5-0.4,1.1-0.4,1.6
			c-1.6-1.6-2.3-2.6-5-2.9c0.2,0.4,0.2,1.1,0.3,1.5c-2.4-0.9-6.2-0.3-8.6,0.3c0.4,0.1,1.1,0.6,1.5,0.9c-2,0.7-5.8,1.1-7,3
			c0.8-0.1,1.7-0.2,2.5-0.3c-1.1,1-2.4,1.8-3.3,3.1c-0.7,1-0.8,2.1-1.5,2.9c1,0,1.4,0.8,1.2,1.8c1,0.1,4.5,1,2.7,2.3
			C43.5,123,46.1,123.8,46.6,124.4C46.5,124.4,46.5,124.4,46.6,124.4z"/>
		<path class="st12" d="M77,124.4c-6-0.4-14.1-1-15.8-8.2c-0.3-1.5-0.3-3.1,0.2-4.5c0.2-0.6,2.3-2.7,2.3-2.8c0,0.5,0.4,1.1,0.4,1.6
			c1.6-1.6,2.3-2.6,5-2.9c-0.2,0.4-0.2,1.1-0.3,1.5c2.4-0.9,6.2-0.3,8.6,0.3c-0.4,0.1-1.1,0.6-1.5,0.9c2,0.7,5.8,1.1,7,3
			c-0.8-0.1-1.7-0.2-2.5-0.3c1.1,1,2.4,1.8,3.3,3.1c0.7,1,0.8,2.1,1.5,2.9c-1,0-1.4,0.8-1.2,1.8c-1,0.1-4.5,1-2.7,2.3
			C80,123,77.5,123.8,77,124.4C77.1,124.4,77.1,124.4,77,124.4z"/>
		<path d="M65.8,109.1c1.1,4-7.6,4.2-8.2,0.5c-0.3-2,2.8-2.3,4.3-2.3C63.4,107.4,65.4,107.5,65.8,109.1z"/>
		<path class="st12" d="M48.9,100.3c0.5,0.5,0.3,1.5-0.4,2.3c-0.8,0.8-1.8,1-2.3,0.5c-0.5-0.5-0.3-1.5,0.4-2.3
			C47.4,100,48.4,99.8,48.9,100.3z"/>
	</g>
</g>
<g>
	<g>
		<path class="st1" d="M206.2,149.4c0,4.4-15.9,8-35.5,8c-19.6,0-35.5-3.6-35.5-8c0-4.4,15.9-8,35.5-8
			C190.3,141.4,206.2,145,206.2,149.4z"/>
		<g>
			<path class="st13" d="M189.6,129.6c-2.2,1.9-4.8,3.5-5.1,0.6c-0.2-1.7,2.2-2.5,3.3-3.2c2-1.4,3.7-3.4,4.9-5.5
				c0.8-1.4,1.4-2.9,1.9-4.4c0.3-1.1,0.5-3.1,1.5-3.8c2.6-2,1,6.2,0.7,6.8c-1,2.4-2.2,4.5-3.9,6.3
				C192.5,126.8,191.1,128.2,189.6,129.6z"/>
			<path class="st14" d="M196.1,113.2c-1,0.7-1.2,2.7-1.5,3.8c-0.4,1.2-0.8,2.3-1.4,3.4c1,0.2,1.9,0.9,2.8,1.5
				c0.3-0.6,0.6-1.3,0.9-1.9C197.1,119.4,198.8,111.2,196.1,113.2z"/>
		</g>
		<g>
			<g>
				<g>
					<path class="st13" d="M199.6,145.6c-1.2-1.1-2.9-0.7-4.4-1.2c0,0,0.1,0,0.1-0.1c2.6-2.6,6.3-7.5,3.8-11
						c-5.3-7.5-15.2-3-20.4,3.1c-2.4,2.8-2.2,7.5,0.3,9.9c2.1,2.1,5.2,3,8.2,3.5c0.6,0.1,1.3,0.2,1.9,0.3c3.1,0.5,7.8,1.7,10.6-0.8
						C200.8,148.4,200.7,146.6,199.6,145.6z"/>
				</g>
			</g>
		</g>
		<g>
			<g>
				<g>
					<path class="st13" d="M142.6,146c1.2-1.1,2.9-0.7,4.4-1.2c0,0-0.1,0-0.1-0.1c-2.6-2.6-6.3-7.5-3.8-11c5.3-7.5,15.2-3,20.4,3.1
						c2.4,2.8,2.2,7.5-0.3,9.9c-2.1,2.1-5.2,3-8.2,3.5c-0.6,0.1-1.3,0.2-1.9,0.3c-3.1,0.5-7.8,1.7-10.6-0.8
						C141.5,148.8,141.6,147,142.6,146z"/>
				</g>
			</g>
		</g>
		<path class="st15" d="M188.6,140.2c-0.2,0.6-0.4,1.2-0.6,1.7c-0.4,1-1,2-1.7,2.9c-0.5,0.7-1.1,1.5-1.8,2.1
			c-1.6,1.4-5.1,1.7-7.2,1.9c-3,0.4-6.1,0.4-9.1,0.6c-1.8,0.1-3.9,0.3-5.6-0.1c-1.5-0.3-2.6-1.4-3.7-2.2c-0.7-0.6-1.5-1.2-2.2-1.8
			c-1.2-1.3-1.6-2.9-2.3-4.5c-1.1-2.6-1.6-5.1-2.2-7.9c-0.5-2.6-0.1-5.1,0-7.7c0.1-2.3,1.1-4.8,2.1-7c0.6-1.3,1.2-2,2.3-3
			c3.9-3.6,8.5-6.8,14.4-7.1c6.5-0.3,14,1.8,16.4,7.7c0.5,1.1,1,2.2,1.4,3.4c0.7,2,1.4,4.2,1.7,6.3c0.6,4.2,0.5,8.3-1.1,12.3
			C189.2,138.5,188.9,139.4,188.6,140.2z"/>
		<g>
			<path class="st14" d="M190.8,125.3c-0.3-2.1-1.1-4.1-1.8-6.2c-0.3-0.8-0.6-1.6-1-2.4c-0.7,0.8-0.9,2.2-0.6,3.2
				c0.4,1.3,0.2,2.2-0.2,3.5c-0.6,1.9-0.3,3.2,0.5,5c0.6,1.2,1.8,2.7,3.2,2.6C191,129.2,191,127.2,190.8,125.3z"/>
			<path class="st14" d="M154.9,128.5c0.8-1.8,1.1-3.1,0.5-5c-0.4-1.4-0.6-2.3-0.2-3.5c0.3-0.8,0.1-1.9-0.3-2.7
				c-0.2,0.3-0.3,0.6-0.5,0.9c-1,2.1-2,4.6-2.1,7c-0.1,2.1-0.4,4-0.2,6C153.3,130.9,154.4,129.6,154.9,128.5z"/>
		</g>
		<path class="st16" d="M155.4,111.1c-0.8,1.7-0.9,4.8,0,6.5c0.8,1.6,2.3,3,3.6,4.1c3,2.2,6.7,3.3,10.3,3.5
			c5.3,0.3,10.8,0.3,15.1-3.4c2.1-1.8,4-3.7,4.3-6.8c1-8.1-6-9.9-11.9-11.1c-5.6-1.1-14.2-1.9-18.4,3.3
			C157.4,108.3,156,109.7,155.4,111.1z"/>
		<path class="st13" d="M181.8,146.8c-0.1,0-0.1,0.1-0.2,0.1c-3,2.2-9,2.9-12.9,2.8c-2.9-0.1-7.3-1.1-8.9-3.1
			c-1.8-2.2-0.8-5.9-0.8-8.4c0-1.7-1.2-6.6,2.3-7.2c1.1-0.2,1.9,0.4,2.9,0.8c2.5,0.9,5.4,1,8.2,0.8c1.5-0.1,3-0.1,4.4-0.5
			c1.3-0.3,2.4-1.1,3.8-1.4c4.2-0.7,4.6,3.5,4.9,5.7C185.8,140,185.3,144.1,181.8,146.8z"/>
		<g>
			<path class="st15" d="M180,131.4c0,0,3.9,7.6-2.1,17.1l8.7,1.3c0,0,9-12.8-0.1-22.7c0,0-1.4-2-5.1-0.4
				C177.9,128.3,180,131.4,180,131.4z"/>
			<g>
				<g>
					<g>
						<path class="st15" d="M175.3,148.1c-0.6,2.8,2.4,5.4,6.8,5.9c4.3,0.5,8.3-1.4,8.9-4.1c0.6-2.8-2.4-5.4-6.8-5.9
							C179.9,143.5,175.9,145.4,175.3,148.1z"/>
					</g>
				</g>
			</g>
		</g>
		<g>
			<path class="st15" d="M163.4,131.6c0,0-3.9,7.6,2.1,17.1l-8.7,1.3c0,0-9-12.8,0.1-22.7c0,0,1.4-2,5.1-0.4
				C165.6,128.5,163.4,131.6,163.4,131.6z"/>
			<g>
				<g>
					<g>
						<path class="st15" d="M167.9,148.4c0.6,2.7-2.4,5.3-6.6,5.8c-4.2,0.5-8.1-1.3-8.7-4.1c-0.6-2.7,2.4-5.3,6.6-5.8
							C163.5,143.9,167.4,145.7,167.9,148.4z"/>
					</g>
				</g>
			</g>
		</g>
		<g>
			<path class="st17" d="M138.1,88.4c3-5.3,6.6-11.9,10.5-16.7c3.7-4.6,9-4.6,8,2.3c-0.7,4.9-3.8,8.7-5,13.4
				c-2.5,10-2.1,23.1,0.5,33c1.1,4.1,1,7.3-3.4,9.4c-1.9,0.9-7.2,2.9-9,2.3c-6.5-2.3-8.7-12.9-8.8-18.7
				C130.7,104.8,133.9,95.9,138.1,88.4z"/>
			<path class="st17" d="M204.7,88.6c-3.9-7-7.8-16.4-15.4-20.1c-1.9-0.9-3.3-1.7-3.7,0.8c-0.2,1.9,0.7,3.4,0.9,5.2
				c0.5,4.7,3.5,8.6,4.6,13.1c2.5,10,2.1,23.1-0.5,33c-1.1,4.1-1,7.3,3.4,9.4c1.9,0.9,7.2,2.9,9,2.3c6.5-2.3,8.7-12.9,8.8-18.7
				C212.1,105,208.9,96.1,204.7,88.6z"/>
			<path class="st14" d="M195,104.4C194.6,98,192,92.1,191,86c-1-6.4-0.6-13.7-3.8-19.6c-3.5-6.5-9.7-8.4-16.1-8.2
				c-6.4-0.2-12.6,1.7-16.1,8.2c-3.2,5.9-2.7,13.2-3.8,19.6c-1,6.1-3.6,12-3.9,18.4c-0.6,10.6,11.9,14,20,12.9
				c1.3-0.2,2.6-0.1,3.8,0.1c1.3-0.2,2.6-0.2,3.8-0.1C183,118.4,195.5,115,195,104.4z"/>
			<path class="st13" d="M173.7,120.9c1.7,0.3,3.5,1,5.1,0.5c2.4-0.7,2.3-2.8,1.7-4.8c-1.5-4.8-7.5-5.1-11.4-3.4
				c-1.8,0.8-4.2,2.3-4.9,4.3c-0.7,1.9,0.9,3.8,2.9,4.1c1.6,0.2,3.2-0.7,4.8-0.9C172.4,120.8,173,120.8,173.7,120.9z"/>
			<path d="M175,113.6c-2-0.1-5.7-0.9-7.5,0.2c-2,1.2,0.7,3.5,2.1,3.9c2.2,0.6,4.9,0.4,6.8-1C178.5,115.1,177.4,113.8,175,113.6z"/>
			<path class="st15" d="M185.1,99.3c-1.9-3.5-4.7-6.4-6.8-9.8c-1.7-2.8-1.9-7.2-2.1-10.4c0-0.1,0-0.2,0-0.3
				c-0.2-3.4-0.1-18.4-3.9-20.4c-0.4,0-0.8,0-1.2,0c-0.2,0-0.5,0-0.7,0c-5.1,2.2-2.8,18.5-3.8,23.2c-0.7,3.4-1.2,6.7-3.6,9.3
				c-4,4.4-7.3,7.5-7.7,14.8c-0.2,3.4,0.1,7.7,1.6,10.9c0.7,1.4,1.6,2.5,2.7,3.3c3.9,2.5,6,0,8-2.4c1.7-2,3.3-4,5.9-2.7
				c1.2,0.6,2.1,1.8,3.1,2.9c1,1.2,2.1,2.2,3.4,2.4c2.9,0.4,4.8-1.3,5.9-3.8c0.7-1.5,1-3.2,1.2-4.9
				C187.7,107.2,187.1,102.9,185.1,99.3z"/>
			<path d="M172.1,98.2c3.2,0.4,9.8,3.9,5.8,8.2c-2.1,2.3-10.6,2.8-12.3-0.2C163.2,102,168.7,97.8,172.1,98.2z"/>
			<g>
				<path d="M155.6,82c0,3.6,1.7,6.5,3.7,6.5c2.1,0,3.7-2.9,3.7-6.5c0-3.6-1.7-6.5-3.7-6.5C157.3,75.5,155.6,78.4,155.6,82z"/>
				<path class="st5" d="M159.5,79.8c-0.5,1.1-1.5,1.7-2.3,1.4c-0.8-0.3-1-1.5-0.6-2.6c0.5-1.1,1.5-1.7,2.3-1.4
					C159.8,77.5,160,78.7,159.5,79.8z"/>
			</g>
			<g>
				<path d="M179.3,82c0,3.6,1.7,6.5,3.7,6.5c2.1,0,3.7-2.9,3.7-6.5c0-3.6-1.7-6.5-3.7-6.5C181,75.5,179.3,78.4,179.3,82z"/>
				<path class="st5" d="M183.2,79.8c-0.5,1.1-1.5,1.7-2.3,1.4c-0.8-0.3-1-1.5-0.6-2.6c0.5-1.1,1.5-1.7,2.3-1.4
					C183.5,77.5,183.7,78.7,183.2,79.8z"/>
			</g>
			<rect x="166.6" y="109.8" transform="matrix(8.806218e-03 -1 1 8.806218e-03 60.3622 281.2546)" width="10.9" height="0.8"/>
		</g>
	</g>
</g>
<g>
	<g>
		<path class="st1" d="M428.7,146.2c0,6.2-16.7,11.3-37.3,11.3c-20.6,0-37.3-5-37.3-11.3c0-6.2,16.7-11.3,37.3-11.3
			C412,134.9,428.7,139.9,428.7,146.2z"/>
		<g>
			<g>
				<g>
					<g>
						<path class="st18" d="M416.3,120.7c-1.6,1.6-2.4,3.6-4.1,5.1c-3.2,2.9-9.5,7.4-10.9,2.3c0,0,0-0.1,0-0.1
							c-0.8-3.5,2.5-6.5,5.4-8.6c3.5-2.5,7-4.8,10.4-7.3c0.9-0.7,1.9-1.4,2.8-2.2c0.4-0.3,1.8-2,2.3-1.9c1.6,0.4-0.1,5-0.6,5.8
							c-1.3,2.4-3,4.7-5.1,6.5C416.5,120.5,416.4,120.6,416.3,120.7z"/>
					</g>
				</g>
			</g>
		</g>
		<g>
			<path class="st19" d="M384.8,134.8c-0.3-4-2-8.2-5.1-11.4c-4.2-4.4-10.2-9.2-17.1-6c-4.3,2-5.3,4.9-4.8,8.6
				c0.3,2.6,1.7,6.1,3.5,8.3c1.3,1.5,4.9,3.1,3.9,5.2c-0.4,0.9-2.2,1.3-2.9,2c-1,1-1.5,2.3-1.5,3.7c0.1,2.9,2.8,3.1,5.8,3.1
				c4.7-0.1,9.3-0.7,13.2-2.9C384.7,142.5,385.2,139.7,384.8,134.8z"/>
			<path class="st20" d="M360.7,145.3c-0.1-1.3,0.4-2.7,1.5-3.7c0.7-0.7,2.5-1.1,2.9-2c0.7-1.5-0.9-2.7-2.3-3.8c0,0,0,0,0,0
				c1.1,0.4,2.2,0.5,3.4,0.4c2.1-0.3,4.6-0.4,6.5-1c0.7,2.1,2.2,3.8,2.6,6.2c0.3,2.2-0.2,4.4-1.4,6.1c-2.4,0.5-4.9,0.7-7.4,0.8
				C363.5,148.4,360.9,148.1,360.7,145.3z"/>
		</g>
		<path class="st19" d="M398.8,134.8c0.3-4,2-8.2,5.1-11.4c4.2-4.4,10.2-9.2,17.1-6c4.3,2,5.3,4.9,4.8,8.6c-0.3,2.6-1.7,6.1-3.5,8.3
			c-1.3,1.5-4.9,3.1-3.9,5.2c0.4,0.9,2.2,1.3,2.9,2c1,1,1.5,2.3,1.5,3.7c-0.1,2.9-2.8,3.1-5.8,3.1c-4.7-0.1-9.3-0.7-13.2-2.9
			C398.9,142.5,398.4,139.7,398.8,134.8z"/>
		<path class="st20" d="M422.8,145.3c0.1-1.3-0.4-2.7-1.5-3.7c-0.7-0.7-2.5-1.1-2.9-2c-0.7-1.5,0.9-2.7,2.3-3.8c0,0,0,0,0,0
			c-1.1,0.4-2.2,0.5-3.4,0.4c-2.1-0.3-4.6-0.4-6.5-1c-0.7,2.1-2.2,3.8-2.6,6.2c-0.3,2.2,0.2,4.4,1.4,6.1c2.4,0.5,4.9,0.7,7.4,0.8
			C420.1,148.4,422.7,148.1,422.8,145.3z"/>
		<g>
			<path class="st21" d="M415.5,99.6c-1.4-4.2-3.7-7.8-5.1-11.9c-1.7-5.1,0.5-10.5-1.1-15.6c-1.4-4.5-6.5-7.1-11-9.1
				c-2.3-1-4.5-1.6-6.8-1.9v0c0,0,0,0,0,0c0,0,0,0,0,0v0c-2.2,0.3-4.5,0.9-6.8,1.9c-4.4,2-9.5,4.7-11,9.1
				c-1.7,5.1,0.5,10.5-1.1,15.6c-1.4,4.3-3.9,8.1-5.2,12.4c-0.1,0.3-0.2,0.6-0.2,0.8C373.8,104.2,394.3,112.1,415.5,99.6z"/>
			<path class="st19" d="M415.5,99.6c-21.2,12.6-41.7,4.6-48.3,1.3c-3,11.1,1.5,21.1,4.7,31.7c1.6,5.3,5.2,10.1,11.1,12.5
				c2.5,1,5.5,1.4,8.6,1.4v0c0,0,0,0,0,0c0,0,0,0,0,0v0c3.1-0.1,6.1-0.4,8.6-1.4c5.8-2.4,9.5-7.2,11.1-12.5
				c3.3-10.9,7.9-21.1,4.5-32.5C415.6,99.9,415.5,99.7,415.5,99.6z"/>
			<path class="st5" d="M399.1,145.2c5.3-3.6,2.5-13.1,2.8-18.7c0.3-7.1-0.7-14.3,0.6-21.4c0.7-3.6,7.6-14.5-0.9-12.7
				c-4.2,0.9-8.6,1.1-12.9,0.6c-2.6-0.3-8.6-3.1-10.4-0.9c-1.9,2.4-0.7,4.2,0,6.9c1.1,4.3,3,11.4,3.2,15.8c0.2,5-0.1,10-0.6,14.9
				c-0.4,4.3-1.9,10.2,0.5,14.2"/>
			<path class="st20" d="M402.6,105c-8.3,2.1-16,1.7-22.3,0.4c0.6,3.1,1.1,6.3,1.3,9.5c0.2,5-0.1,10-0.6,14.9
				c-0.4,4.3-1.9,10.2,0.5,14.2c0.2,0.3,0.5,0.7,0.7,1c0.2,0.1,0.4,0.2,0.7,0.3c2.5,1,5.5,1.4,8.6,1.4v0c0,0,0,0,0,0c0,0,0,0,0,0v0
				c2.2-0.1,4.4-0.3,6.4-0.7c0.4-0.2,0.8-0.4,1.2-0.7c5.3-3.6,2.5-13.1,2.8-18.7c0.3-7.1-0.7-14.3,0.6-21.4
				C402.5,105.1,402.6,105,402.6,105z"/>
		</g>
		<g>
			<g>
				<g>
					<path class="st21" d="M398.5,100.7c4.8-5,12.5,0.5,12.7,5.3c0.3,7.9-2.6,16.1-3.4,24c-0.5,4.2-2,9.6-0.2,13.6
						c2.1,0.4,3.5,2.7,3.4,4.4c0,2.7-1.8,3.3-4.6,3.4c-6.4,0.2-9.6-0.3-10.2-5.8c-0.7-6.4-0.4-12.6,0.3-19
						c0.6-5.8,0.2-11.6,0.3-17.4C396.7,106.7,396.5,102.7,398.5,100.7z"/>
				</g>
			</g>
			<path class="st5" d="M408,127.8c-0.1,0-0.2-0.1-0.4-0.1c-3.6-0.8-4.6-2.7-4.7-6.5c-0.2-4.5,0.7-8.8,1.1-13.2c0.1-1.5,0.9-5.8,1-9
				c-2.3-0.8-4.5-0.5-6.5,1.7c-1.9,2-1.8,6-1.8,8.4c-0.1,5.8,0.3,11.6-0.3,17.4c-0.7,6.4-1,12.7-0.3,19c0.6,5.5,3.8,6,10.2,5.8
				c2.9-0.1,4.6-0.6,4.6-3.4c0-1.7-1.3-4-3.4-4.4c-1.7-4-0.2-9.4,0.2-13.6C407.8,129.2,407.9,128.5,408,127.8z"/>
		</g>
		<g>
			<g>
				<g>
					<path class="st21" d="M385,100.7c-4.8-5-12.5,0.5-12.7,5.3c-0.3,7.9,2.6,16.1,3.4,24c0.5,4.2,2,9.6,0.2,13.6
						c-2.1,0.4-3.5,2.7-3.4,4.4c0,2.7,1.8,3.3,4.6,3.4c6.4,0.2,9.6-0.3,10.2-5.8c0.7-6.4,0.4-12.6-0.3-19
						c-0.6-5.8-0.2-11.6-0.3-17.4C386.8,106.7,386.9,102.7,385,100.7z"/>
				</g>
			</g>
			<path class="st5" d="M375.5,127.8c0.1,0,0.2-0.1,0.4-0.1c3.6-0.8,4.6-2.7,4.7-6.5c0.2-4.5-0.7-8.8-1.1-13.2c-0.1-1.5-0.9-5.8-1-9
				c2.3-0.8,4.5-0.5,6.5,1.7c1.9,2,1.8,6,1.8,8.4c0.1,5.8-0.3,11.6,0.3,17.4c0.7,6.4,1,12.7,0.3,19c-0.6,5.5-3.8,6-10.2,5.8
				c-2.9-0.1-4.6-0.6-4.6-3.4c0-1.7,1.3-4,3.4-4.4c1.7-4,0.2-9.4-0.2-13.6C375.7,129.2,375.6,128.5,375.5,127.8z"/>
		</g>
		<g>
			<path class="st22" d="M411.3,86.2c0,5.8-9,10.6-20.1,10.6c-11.1,0-20.1-4.7-20.1-10.6c0-5.8,9-10.6,20.1-10.6
				C402.3,75.6,411.3,80.3,411.3,86.2z"/>
			<g>
				<path class="st23" d="M415.1,50.5c-1.3-3.1-2.6-6.2-4.6-9.3c-1.5-2.3-4.3-3.6-5.7-5.7c-1.2-1.7-1.1-0.7-0.2-2.5
					c1.2-2.3,4.5-3.9,6.8-4.8c7.1-2.9,14.7-0.6,20,4.5c0.8,0.8,7.9,8.8,7.2,9.3c-2,1.5-5.1,0.9-7.4,0.3c-3.9-0.9-4.6,2.5-7.2,4.8
					c-0.9,0.8-7.3,6.8-7.4,6.7C416.1,52.7,415.6,51.6,415.1,50.5z"/>
				<path class="st24" d="M430.7,42.2c-1.6-1.2-3.8-1.9-5.3-2.7c-1.9-1-3.3-2.6-5.2-3.6c-4.5-2.4-9.3,0.7-9.1,5.9c0,0.2,0,0.3,0,0.5
					c1.4,2.3,2.4,4.5,3.4,6.8c1.1,1.4,2.4,2.6,3.6,3.5c2-1.8,5.4-4.9,6-5.5C426.4,44.9,427.2,41.7,430.7,42.2z"/>
				<path class="st23" d="M364.9,50.5c1.3-3.1,2.6-6.2,4.6-9.3c1.5-2.3,4.3-3.6,5.7-5.7c1.2-1.7,1.1-0.7,0.2-2.5
					c-1.2-2.3-4.5-3.9-6.8-4.8c-7.1-2.9-14.7-0.6-20,4.5c-0.8,0.8-7.9,8.8-7.2,9.3c2,1.5,5.1,0.9,7.4,0.3c3.9-0.9,4.6,2.5,7.2,4.8
					c0.9,0.8,7.3,6.8,7.4,6.7C364,52.7,364.5,51.6,364.9,50.5z"/>
				<path class="st24" d="M349.4,42.2c1.6-1.2,3.8-1.9,5.3-2.7c1.9-1,3.3-2.6,5.2-3.6c4.5-2.4,9.3,0.7,9.1,5.9c0,0.2,0,0.3,0,0.5
					c-1.4,2.3-2.4,4.5-3.4,6.8c-1.1,1.4-2.4,2.6-3.6,3.5c-2-1.8-5.4-4.9-6-5.5C353.6,44.9,352.9,41.7,349.4,42.2z"/>
				<path class="st21" d="M417.3,44.1c-2.4-5.2-6.6-11.4-12.1-12.6c-4.4-1-9.1,0.8-13.7,0.6v0c-0.1,0-0.3,0-0.4,0
					c-0.1,0-0.3,0-0.4,0v0c-4.6,0.2-9.4-1.6-13.7-0.6c-5.4,1.2-9.6,7.4-12.1,12.6c-5.2,11.1,1.7,30.2,7.6,39.7
					c3.9,6.2,11.5,8,18.2,8.7v0.1c0.1,0,0.3,0,0.4,0c0.1,0,0.3,0,0.4,0v-0.1c6.7-0.6,15.5-3,19.3-9.2
					C416.7,73.7,422.5,55.2,417.3,44.1z"/>
				<path class="st25" d="M389.7,68.8c1.1-5.9,3.6-13.8-2.5-18c-3.4-2.4-9.5-3.3-13.3-1.4c-5.2,2.5-5.7,10.4-3.2,14.9
					c1.7,3.1,4,5.7,5.4,9c1.1,2.6,1.5,8.6,5,9.1C387.7,83.2,388.8,73.1,389.7,68.8z"/>
				<path class="st25" d="M393.2,68.8c-1.2-5.9-3.6-13.8,2.5-18c3.4-2.4,9.5-3.3,13.3-1.4c5.2,2.5,5.7,10.4,3.2,14.9
					c-1.7,3.1-4,5.7-5.4,9c-1.1,2.6-1.5,8.6-5,9.1C395.2,83.2,394,73.1,393.2,68.8z"/>
				<path class="st5" d="M403.7,73.5c-0.5-0.2-2.2-4.3-3.1-5.2c-2.3-2.1-5.1-3.3-6.6-6.2c-1.8-3.4,0.2-7,0.8-10.5
					c-1.1,0.1-1.9,1.4-3,1.4c-0.8,0-2-0.9-2.8-1.2c0.5,3.1,1.6,4.8,0.8,8.1c-1,4.1-4.5,6.2-7.4,8.9c-1.4,1.3-5.8,5.3-1.6,6
					c1.2,0.2,4.8-1.7,6.2-2.1c2-0.5,3.9-1,5.9-1.1C396.5,71.7,400.2,72.3,403.7,73.5z"/>
				<g>
					<path class="st5" d="M393.4,81c-3.2-0.7-14,1.9-11.2,7.4c1.3,2.5,7.6,2.1,9.8,1.9c3-0.2,7.5,1.4,8.8-2.5
						C402,84.3,396.1,81.6,393.4,81z"/>
					<path d="M398,83.6c-3.3-1.8-7.5-1.4-11-0.2c-1.3,0.5-2.1,2.1-0.4,2.8c1.5,0.6,3.2-0.8,4.6-1.2c1.5-0.5,3.2,0.5,4.7,0.8
						C397.7,86.1,400.6,85,398,83.6z"/>
					<path class="st25" d="M408.4,81.1c-0.2-0.9-0.5-1.9-0.8-2.7c-3.8-11.3-13-15.2-22.4-11.6c-3.4,1.3-6.9,4.4-8.5,8.3
						c-1.7,3.9-3.4,11.6-0.6,15.4c3.9,5.1,6.8,0.9,9.1-3c3-5,10.3-6.1,13.6-1.1c1.1,1.7,1.2,4.6,2.8,5.7c2,1.4,5.3-0.7,6.4-2.7
						C409.4,87.1,409.1,83.9,408.4,81.1z"/>
					<path d="M399,72.1c2.3,7.7-15.6,8.8-13.3-0.6c0.7-2.9,4.6-2.4,7-2.3C395.4,69.4,398.2,69.3,399,72.1z"/>
					<g>
						<path d="M374.2,58.8c0,3.8,1.8,6.9,3.9,6.9c2.2,0,3.9-3.1,3.9-6.9c0-3.8-1.8-6.9-3.9-6.9C375.9,52,374.2,55,374.2,58.8z"/>
						<path class="st5" d="M378.3,56.6c-0.5,1.2-1.6,1.8-2.4,1.5c-0.8-0.3-1.1-1.6-0.6-2.7c0.5-1.2,1.6-1.8,2.4-1.5
							C378.5,54.2,378.8,55.4,378.3,56.6z"/>
					</g>
					<g>
						<path d="M401,58.8c0,3.8,1.8,6.9,3.9,6.9c2.2,0,3.9-3.1,3.9-6.9c0-3.8-1.8-6.9-3.9-6.9C402.8,52,401,55,401,58.8z"/>
						<path class="st5" d="M405.1,56.6c-0.5,1.2-1.6,1.8-2.4,1.5c-0.8-0.3-1.1-1.6-0.6-2.7c0.5-1.2,1.6-1.8,2.4-1.5
							C405.3,54.2,405.6,55.4,405.1,56.6z"/>
					</g>
					<path d="M392.4,84.6c-0.3,0-0.6-0.3-0.6-0.6v-7.2c0-0.3,0.3-0.6,0.6-0.6s0.6,0.3,0.6,0.6V84C392.9,84.4,392.7,84.6,392.4,84.6z
						"/>
				</g>
			</g>
		</g>
	</g>
</g>
<g>
	<path d="M758.3,115.1c0.1-0.7,0.2-1.4,0.2-2.1c-1.5,1.3-2.9,2.5-4.4,3.8c0.7-1.7,1.4-3.4,2-5.2c-2.7,2.5-6.3,3.8-9.5,5.7
		c-2.4,1.3-4.7,3.1-6.2,5.5c-1.2,2-2.6,3.7-3.8,5.8c-1.5,2.4-2.7,8.3,2.4,6.7c2.3-0.7,4.5-1.9,6.7-3c2.2-1.2,4.6-2.3,6.7-3.7
		c2.1-1.3,4.1-3.4,5.4-5.5c0.7-1.1,1.2-2.4,1.5-3.7c0.1-0.5,0.7-3.6,0.9-3.8c-0.7,0.6-2.1,1.5-2.8,2.1
		C757.8,116.7,758.1,115.9,758.3,115.1z"/>
	<path class="st1" d="M757.5,149.2c0,4.5-15.1,8.2-33.6,8.2c-18.6,0-33.6-3.7-33.6-8.2c0-4.5,15-8.2,33.6-8.2
		C742.5,141.1,757.5,144.7,757.5,149.2z"/>
	<g>
		<path class="st24" d="M696.8,135.8c1.1,0.9,2.4,1.6,3.7,2c0.2,0.1,0.3,0.1,0.5,0c0.3-0.1,0.3-0.4,0.3-0.7c0.1-0.6,0.1-1.3,0.2-1.9
			c0.5,1.1,1.3,2.1,2.4,2.8c0.5-1,0.8-2.1,1-3.2c0.6,1.2,1.1,2.4,1.7,3.6c2.4-2.6,5-5,7.8-7.2c-0.4-1.6-0.9-3.2-1.5-4.7
			c-0.1-0.2-0.2-0.4-0.2-0.6c0,0,0-0.1-0.1-0.1c-0.1-0.2-0.1-0.4-0.2-0.5c-0.6-1.6-0.9-2.4-3.3-3.4c-4.3-1.7-8.4-0.9-12.5,0.8
			c-3.6,1.4-4,4.5-4.2,7.6c0,0.8,0,1.7,0.1,2.5c0,0,0,0.1,0,0.1c0,0.2,0.1,0.4,0.1,0.6c0,0,0,0.1,0,0.1c0.2,1.1,0.6,2.2,1.2,3.2
			c1.1,0.5,2.3,0.9,3.5,1.4C697.4,137.4,697.2,136.6,696.8,135.8z"/>
		<path class="st26" d="M706.6,138.5c-0.6-1.2-1.1-2.4-1.7-3.6c-0.2,1.1-0.5,2.2-1,3.2c-1-0.6-1.9-1.6-2.4-2.8
			c-0.1,0.6-0.1,1.3-0.2,1.9c0,0.3-0.1,0.6-0.3,0.7c-0.2,0.1-0.3,0-0.5,0c-1.4-0.4-2.6-1.1-3.7-2c0.4,0.8,0.6,1.7,0.5,2.5
			c-1.2-0.4-2.3-0.9-3.5-1.4c0.4,0.8,0.9,1.5,1.5,2.1c0.3,0.3,3.6,3.2,3.2,3.4c-1.8,0.9-4.6,0.1-4.2,2.9c0.5,3.3,5.7,2.5,8.4,2.2
			c2.5-0.3,5.2-0.2,7.4-1.2c1-0.4,2-1.1,2.6-2.2c2.6-3.8,2.7-8.6,1.7-13C711.6,133.5,709,135.8,706.6,138.5z"/>
	</g>
	<g>
		<path class="st24" d="M751.8,135.8c-1.1,0.9-2.4,1.6-3.7,2c-0.2,0.1-0.3,0.1-0.5,0c-0.3-0.1-0.3-0.4-0.3-0.7
			c-0.1-0.6-0.1-1.3-0.2-1.9c-0.5,1.1-1.3,2.1-2.4,2.8c-0.5-1-0.8-2.1-1-3.2c-0.6,1.2-1.1,2.4-1.7,3.6c-2.4-2.6-5-5-7.8-7.2
			c0.4-1.6,0.9-3.2,1.5-4.7c0.1-0.2,0.2-0.4,0.2-0.6c0,0,0-0.1,0.1-0.1c0.1-0.2,0.1-0.4,0.2-0.5c0.6-1.6,0.9-2.4,3.3-3.4
			c4.3-1.7,8.4-0.9,12.5,0.8c3.6,1.4,4,4.5,4.2,7.6c0,0.8,0,1.7-0.1,2.5c0,0,0,0.1,0,0.1c0,0.2-0.1,0.4-0.1,0.6c0,0,0,0.1,0,0.1
			c-0.2,1.1-0.6,2.2-1.2,3.2c-1.1,0.5-2.3,0.9-3.5,1.4C751.2,137.4,751.4,136.6,751.8,135.8z"/>
		<path class="st26" d="M742,138.5c0.6-1.2,1.1-2.4,1.7-3.6c0.2,1.1,0.5,2.2,1,3.2c1-0.6,1.9-1.6,2.4-2.8c0.1,0.6,0.1,1.3,0.2,1.9
			c0,0.3,0.1,0.6,0.3,0.7c0.2,0.1,0.3,0,0.5,0c1.4-0.4,2.6-1.1,3.7-2c-0.4,0.8-0.6,1.7-0.5,2.5c1.2-0.4,2.3-0.9,3.5-1.4
			c-0.4,0.8-0.9,1.5-1.5,2.1c-0.3,0.3-3.6,3.2-3.2,3.4c1.8,0.9,4.6,0.1,4.2,2.9c-0.5,3.3-5.7,2.5-8.4,2.2c-2.5-0.3-5.2-0.2-7.4-1.2
			c-1-0.4-2-1.1-2.6-2.2c-2.6-3.8-2.7-8.6-1.7-13C737,133.5,739.6,135.8,742,138.5z"/>
	</g>
	<path class="st24" d="M721.8,105.6c-5.2,0-10,2.8-15.1,3.8c-4.3,0.9-5.4,8.3-5.6,12.5c-0.1,2.2-0.7,5.1,0.1,7.3
		c0.6,1.4,1,2.1,1.2,3.8c0.3,2,0.8,3.9,1.7,5.6c1.5,2.7,2.4,5.2,4.7,7.1c2.1,1.7,5.2,2.4,7.7,2.3c2.8-0.2,5.7,0.2,8.5,0
		c3-0.2,6.5,0.1,9.3-1.4c2.6-1.4,5.5-2.1,7.8-4.3c2.7-2.7,4.1-6.8,4.8-10.7c0.5-3,0.4-6,0.1-9c-0.6-5.5-1.7-10.6-6.6-13
		c-2-1-4-2.3-6.2-2.7C730.3,106.2,726,105.7,721.8,105.6z"/>
	<path class="st27" d="M740.5,130.8c0.6,9.6-7.4,18.4-15.8,18.2c-6.7-0.2-11.1-1.5-14.9-8.8c-1.8-3.5-1.9-7.7-2.1-11.8
		c-0.4-11,7.6-13.6,14.5-14c4.9-0.3,12-0.7,15.4,5.2C739.2,122.2,740.3,127.6,740.5,130.8z"/>
	<g>
		<path class="st28" d="M711.6,139.8c0.4,1.4,0.9,2.7,1.6,4c0.8-1.2,1.5-2.5,2.3-3.7c0.3,1.4,0.6,2.8,0.9,4.2
			c0.6-0.9,1.2-1.7,1.9-2.5c-0.1-1.4-0.2-2.9-0.1-4.4c0-0.3,0-0.6,0.1-1c0.4-4.6,1.3-9.4,0.6-13.6c-0.3-1.7-0.8-3.2-1.8-4.6
			c-0.9-1.2-2-2.3-3.6-3.2c-2.3-1.3-3.9-1.1-5,0c-1.9,1.9-2.4,6.3-2.3,9.7c0.1,2.8,0.4,5.5,0.9,8.2c0,0,0,0,0,0
			c0.1,0.5,0.2,1.1,0.3,1.6c0,0.2,0.1,0.5,0.1,0.7c0.3,1.6,0.7,3.2,0.9,4.8c0.7,0.9,1.3,1.9,1.8,3
			C710.7,142,711.1,140.9,711.6,139.8z"/>
		<path class="st29" d="M718.8,147.3c-0.1-1.8-0.3-3.6-0.4-5.4c-0.7,0.8-1.4,1.6-1.9,2.5c-0.3-1.4-0.6-2.8-0.9-4.2
			c-0.8,1.2-1.5,2.5-2.3,3.7c-0.7-1.2-1.1-2.6-1.6-4c-0.5,1.1-0.9,2.2-1.4,3.3c-0.4-1.1-1-2.1-1.8-3c0.1,1,0.2,2.1,0.3,3.1
			c0,0.6,0,1-0.1,1.4c0,0.2-0.1,0.3-0.1,0.5c-0.2,0.8-0.7,0.9-1.4,2.1c-5.9,10.7,11.4,11.9,11.7,2.8c0-0.8,0-1.5,0-2.2
			C718.8,147.6,718.8,147.4,718.8,147.3z"/>
	</g>
	<g>
		<path class="st28" d="M737.9,139.8c-0.4,1.4-0.9,2.7-1.6,4c-0.8-1.2-1.5-2.5-2.3-3.7c-0.3,1.4-0.6,2.8-0.9,4.2
			c-0.6-0.9-1.2-1.7-1.9-2.5c0.1-1.4,0.2-2.9,0.1-4.4c0-0.3,0-0.6-0.1-1c-0.4-4.6-1.3-9.4-0.6-13.6c0.3-1.7,0.8-3.2,1.8-4.6
			c0.9-1.2,2-2.3,3.6-3.2c2.3-1.3,3.9-1.1,5,0c1.9,1.9,2.4,6.3,2.3,9.7c-0.1,2.8-0.4,5.5-0.9,8.2c0,0,0,0,0,0
			c-0.1,0.5-0.2,1.1-0.3,1.6c0,0.2-0.1,0.5-0.1,0.7c-0.3,1.6-0.7,3.2-0.9,4.8c-0.7,0.9-1.3,1.9-1.8,3
			C738.8,142,738.4,140.9,737.9,139.8z"/>
		<path class="st29" d="M730.7,147.3c0.1-1.8,0.3-3.6,0.4-5.4c0.7,0.8,1.4,1.6,1.9,2.5c0.3-1.4,0.6-2.8,0.9-4.2
			c0.8,1.2,1.5,2.5,2.3,3.7c0.7-1.2,1.1-2.6,1.6-4c0.5,1.1,0.9,2.2,1.4,3.3c0.4-1.1,1-2.1,1.8-3c-0.1,1-0.2,2.1-0.3,3.1
			c0,0.6,0,1,0.1,1.4c0,0.2,0.1,0.3,0.1,0.5c0.2,0.8,0.7,0.9,1.4,2.1c5.9,10.7-11.4,11.9-11.7,2.8c0-0.8,0-1.5,0-2.2
			C730.7,147.6,730.7,147.4,730.7,147.3z"/>
	</g>
	<g>
		<path class="st29" d="M738.9,99.9c-3.7-2.9-9.3-4-14.2-3.2c-4.9-0.9-10.5,0.3-14.2,3.2c-5.9,4.6-8.3,14.1-4,20.4
			c0.4-0.9,0.5-1.3,1.2-2.2c0.4,1,4.9,6.6,4.8,6.9c0.4-1.2,0.5-2.6,0.5-3.9c2.5,2.3,3.5,5.7,6.2,8c0.6-1.5,0.7-3.3,0.8-5
			c0,2.2,3.1,5,4.5,6.5c1.2-1.4,5.1-4.6,5-6.5c0,1.7,0.2,3.4,0.8,5c2.7-2.3,3.6-5.7,6.2-8c0,1.3,0.1,2.6,0.5,3.9
			c-0.1-0.4,4.3-6.4,4.7-7.4c0.4,0.9,0.7,1.3,1.1,2.3C747,113.7,744.9,104.6,738.9,99.9z"/>
		<path class="st30" d="M742,100.7c-0.7-1.7-2.3-3.6-3.3-5c-3.3-4.6-9.1-5.5-14.4-5.1c-5.3-0.4-11.1,0.5-14.4,5.1
			c-1,1.4-2.6,3.3-3.3,5c-0.9,2.2-1,6.1,0,8.3c0.9,2.1,2.5,3.9,4.1,5.2c3.4,2.9,7.6,4.2,11.6,4.4c0.6,0,1.3,0.1,1.9,0.1v0
			c0,0,0.1,0,0.1,0c0,0,0.1,0,0.1,0v0c0.6,0,1.3-0.1,1.9-0.1c4-0.3,8.3-1.6,11.6-4.4c1.5-1.3,3.2-3.1,4.1-5.2
			C743,106.8,742.9,102.9,742,100.7z"/>
		<path class="st28" d="M749,69c-4.4-10.2-15.1-8.9-24.6-9.1c-8.6-0.2-21.1-0.4-25.1,8.8c-3.9,9.2-0.2,21.9,4.1,30.1
			c4.6,8.9,11.7,13.9,21.1,14.6v0c0,0,0.1,0,0.1,0c0,0,0.1,0,0.1,0v0c9.4-0.7,16.5-6.1,21.1-15C750.2,90.2,753,78.2,749,69z"/>
		<path class="st29" d="M738.2,97c-1.2-2.4-2.8-4.4-4.4-6.5c-1.5-2-3.7-3.4-4.8-5.7c-1-2.2-1.5-4.6-1.6-7c-0.4-5,0.4-10.7,3.3-15
			c0.6-0.8,1.3-1.9,1.5-2.9c-1.2-0.4-2.6-0.5-3.9-0.6c-1.3-0.1-2.6-0.1-3.9-0.1c-2.6,0-5.1,0.2-7.6,0.5c-0.4,0-0.9,0-1.2,0.2
			c-0.4,0.2-0.2,0.5,0,0.9c0.4,0.7,0.8,1.5,1.2,2.1c3.1,4.4,4.3,10.3,3.8,15.5c-0.2,2.5-0.9,5.1-2.2,7.3c-2.5,4.1-6.4,7-8.5,11.5
			c-2.5,5.3-2.8,11.6,2.7,14.3c3.1,1.5,7.7,2.6,11.1,2.6c0,0,0.1,0,0.1,0c0,0,0.1,0,0.1,0c0.1,0,0.1,0,0.2,0c0.1,0,0.1,0,0.2,0
			c0,0,0.1,0,0.1,0c0,0,0.1,0,0.1,0c3.5,0,8-1.2,11.1-2.8C741.2,108.5,740.8,102.2,738.2,97z"/>
		<g>
			<path d="M719.4,95.5c1-0.7,2.8-1,4.7-1l0,0h0c0,0,0,0,0,0l0,0c1.9,0,3.7,0.3,4.7,1c5,3.2,0.3,7.9-4.7,8.2v0c0,0,0,0,0,0
				c0,0,0,0,0,0l0,0C719.1,103.4,714.4,98.7,719.4,95.5z"/>
			<g>
				<path d="M706.7,83.8c0,3.6,1.6,6.5,3.5,6.5c1.9,0,3.5-2.9,3.5-6.5c0-3.6-1.6-6.5-3.5-6.5C708.3,77.2,706.7,80.2,706.7,83.8z"/>
				<path class="st5" d="M710.4,81.6c-0.4,1.1-1.4,1.7-2.2,1.4c-0.7-0.3-1-1.5-0.5-2.6c0.4-1.1,1.4-1.7,2.2-1.4
					C710.6,79.3,710.9,80.5,710.4,81.6z"/>
			</g>
			<g>
				<path d="M734.5,83.8c0,3.6,1.6,6.5,3.5,6.5c1.9,0,3.5-2.9,3.5-6.5c0-3.6-1.6-6.5-3.5-6.5C736.1,77.2,734.5,80.2,734.5,83.8z"/>
				<path class="st5" d="M738.2,81.6c-0.4,1.1-1.4,1.7-2.2,1.4c-0.7-0.3-1-1.5-0.5-2.6c0.4-1.1,1.4-1.7,2.2-1.4
					C738.4,79.3,738.6,80.5,738.2,81.6z"/>
			</g>
			<g>
				<g>
					<path d="M724.3,108.7c0.4,0,0.8-0.4,0.8-0.8V101c0-0.4-0.4-0.8-0.8-0.8c-0.4,0-0.8,0.4-0.8,0.8v6.9
						C723.5,108.3,723.9,108.7,724.3,108.7z"/>
				</g>
				<path d="M715,105.2c0.4-0.2,0.9-0.1,1.1,0.3c0.6,1.1,2.8,2.2,3.9,2.4c1.6,0.3,2.9-0.1,4.2-0.8V107c0,0,0,0,0.1,0c0,0,0,0,0.1,0
					v0.1c1.3,0.7,2.6,1.1,4.2,0.8c1.1-0.2,3.3-1.3,3.9-2.4c0.2-0.4,0.7-0.5,1.1-0.3c0.4,0.2,0.5,0.7,0.3,1.1c-1,1.6-3.7,2.9-5,3.1
					c-0.5,0.1-1,0.1-1.4,0.1c-1.2,0-2.2-0.3-3.2-0.8c-0.9,0.4-1.9,0.8-3.2,0.8c-0.4,0-0.9,0-1.4-0.1c-1.3-0.2-4-1.5-5-3.1
					C714.5,105.9,714.7,105.4,715,105.2z"/>
			</g>
		</g>
		<g>
			<path d="M752.9,58.9c3.1,0.8,6,2.2,8.6,4.1c2.9,2.1,5.4,4.7,7.7,7.8c0.9,1.3,6,9.5,7.5,9c-1.5,0.5-3.2,0.5-4.7,0
				c1.8,2.2,3.5,4.5,5,6.9c-1.8-0.4-3.5-0.8-5.2-1.4c2.1,1.9,4.1,3.9,6.1,6.1c-1.8,0.4-3.8,0.1-5.4-1c2.6,5.9-0.2,13.7,3.2,19
				c-0.8-1.3-5.5-3.1-6.7-2.4c0.3,1.2,0.9,2.3,1.3,3.5c-4.9-1.4-9.1-5.2-11.7-10.2c0,2.1,0.4,4.3,1.1,6.2c-3.7-2.6-7-6.1-9.4-10.4
				c-0.8,1.8-1.2,3.7-1.2,5.7c-2.2-3.6-4.3-7.6-5-12.1c-1.2-7.7,1.7-16.4-1.3-23.2c-0.6-1.4-1.5-2.8-1.6-4.4
				C740.6,56,750.4,58.2,752.9,58.9z"/>
		</g>
		<g>
			<path d="M696.1,58.9c-3.1,0.8-6,2.2-8.6,4.1c-2.9,2.1-5.4,4.7-7.7,7.8c-0.9,1.3-6,9.5-7.5,9c1.5,0.5,3.2,0.5,4.7,0
				c-1.8,2.2-3.5,4.5-5,6.9c1.8-0.4,3.5-0.8,5.2-1.4c-2.1,1.9-4.1,3.9-6.1,6.1c1.8,0.4,3.8,0.1,5.4-1c-2.6,5.9,0.2,13.7-3.2,19
				c0.8-1.3,5.5-3.1,6.7-2.4c-0.3,1.2-0.9,2.3-1.3,3.5c4.9-1.4,9.1-5.2,11.7-10.2c0,2.1-0.4,4.3-1.1,6.2c3.7-2.6,7-6.1,9.4-10.4
				c0.8,1.8,1.2,3.7,1.2,5.7c2.2-3.6,4.3-7.6,5-12.1c1.2-7.7-1.7-16.4,1.3-23.2c0.6-1.4,1.5-2.8,1.6-4.4
				C708.5,56,698.6,58.2,696.1,58.9z"/>
		</g>
	</g>
</g>
<g>
	<g>
		<g>
			<path class="st31" d="M630.7,126.5c-3.9,3.2-8.7,5.4-13.7,5.6c-8.4,0.4-2.6-7.3,1.3-9.9c5.9-4.1,8-10.3,12.8-15.2
				c2.6-2.7,6-4.7,9.8-5c-0.7,0.7-1.4,1.4-2.1,2.1c2.2-0.1,4.3,0,6.4,0.3c-1.3,0.8-2.5,1.7-3.7,2.7c0.6,0,1.2,0,1.8,0
				c-1.9,4.3-3.8,8.6-6.4,12.5C635.3,122.1,633.1,124.5,630.7,126.5z"/>
		</g>
	</g>
	<path class="st1" d="M642,145.7c0,6.5-17.9,11.7-40,11.7c-22.1,0-40-5.2-40-11.7c0-6.5,17.9-11.7,40-11.7
		C624.1,134,642,139.2,642,145.7z"/>
	<g>
		<g>
			<g>
				<g>
					<g>
						<path class="st32" d="M594.5,133.9c-0.3-4.2-2.2-8.5-5.5-11.9c-4.5-4.5-10.9-9.5-18.4-6.2c-4.6,2.1-5.6,5.1-5.2,9
							c0.3,2.8,1.8,6.3,3.8,8.7c1.3,1.6,5.2,3.2,4.2,5.4c-0.4,0.9-2.3,1.3-3.1,2.1c-1.1,1.1-1.6,2.4-1.6,3.8c0.1,3,3,3.3,6.2,3.2
							c5-0.1,10-0.7,14.2-3.1C594.4,141.9,594.9,138.9,594.5,133.9z"/>
					</g>
				</g>
			</g>
		</g>
		<g>
			<g>
				<g>
					<g>
						<path class="st32" d="M609.4,133.9c0.3-4.2,2.2-8.5,5.5-11.9c4.5-4.5,10.9-9.5,18.4-6.2c4.6,2.1,5.6,5.1,5.2,9
							c-0.3,2.8-1.8,6.3-3.8,8.7c-1.3,1.6-5.2,3.2-4.2,5.4c0.4,0.9,2.3,1.3,3.1,2.1c1.1,1.1,1.6,2.4,1.6,3.8c-0.1,3-3,3.3-6.2,3.2
							c-5-0.1-10-0.7-14.2-3.1C609.5,141.9,609.1,138.9,609.4,133.9z"/>
					</g>
				</g>
			</g>
		</g>
	</g>
	<g>
		<path class="st33" d="M631.2,100.4c-0.1-1-0.2-2-0.3-3c0-0.2-0.1-0.5-0.1-0.7c-1.2-8.2-8.8-12.8-8.5-21.1c0.3-9.2-4-13-12.4-16.6
			c-2.5-1.1-5-1.7-7.4-2c0,0,0,0,0,0c0,0,0,0,0,0c-0.1,0-0.2,0-0.4,0c-0.1,0-0.2,0-0.4,0c0,0,0,0,0,0c0,0,0,0,0,0
			c-2.5,0.3-5,0.9-7.4,2c-8.4,3.7-12.7,7.4-12.4,16.6c0.2,8.3-7.3,13-8.5,21.1c0,0.2-0.1,0.5-0.1,0.7c-0.2,1.2-0.3,2.5-0.4,3.8
			C580.4,105.3,603.7,114.7,631.2,100.4z"/>
		<path class="st32" d="M572.7,101.2c-0.2,2.8-0.1,5.8,0.6,8.4c0.9,3.4,3.1,6.5,4.5,9.7c4.2,9.6,3.1,20.9,14.4,25.4
			c2.7,1.1,6,1.4,9.4,1.5c0,0,0,0,0,0h0c0.1,0,0.2,0,0.4,0c0.1,0,0.2,0,0.4,0h0c0,0,0,0,0,0c3.4-0.1,6.7-0.4,9.4-1.5
			c11.3-4.4,10.2-15.7,14.4-25.4c1.4-3.2,3.6-6.3,4.5-9.7c0.7-2.8,0.8-6.1,0.5-9.2C603.7,114.7,580.4,105.3,572.7,101.2z"/>
	</g>
	<path class="st34" d="M621.2,107.3c-1.2-1.5-3.2-2.8-5.6-3.1c-4.7-0.6-8.9,2.3-13.6,2.8c-4.7-0.4-8.9-3.4-13.6-2.8
		c-2.4,0.3-4.4,1.6-5.6,3.1c-2.4,3-1.7,7.1,1.6,9.6c3.4,2.5,9.1,3.3,13.6,1.8c1.4-0.5,2.7-1.1,4-1.6c1.3,0.5,2.6,1.1,4,1.6
		c4.5,1.5,10.2,0.7,13.6-1.8C622.9,114.4,623.6,110.3,621.2,107.3z"/>
	<path class="st35" d="M624.8,81.9c0,7.8-10.2,14.2-22.8,14.2c-12.6,0-22.8-6.4-22.8-14.2c0-7.9,10.2-14.2,22.8-14.2
		C614.5,67.7,624.8,74.1,624.8,81.9z"/>
	<g>
		<path class="st33" d="M620.2,142.9c-1.8-4.2-0.2-9.8,0.3-14.2c0.1-1.2,0.3-2.4,0.5-3.7c1.2-7.1,3.4-14.2,3.1-21.3
			c-0.2-5-8.3-10.7-13.4-5.5c-2.1,2.1-1.9,6.3-1.9,8.8c-0.1,3.9,0.1,7.8,0,11.6c0,2.1-0.1,4.3-0.4,6.4c-0.7,6.7-1,13.2-0.3,19.8
			c0.6,5.7,4.1,6.2,10.8,6c3-0.1,4.9-0.7,4.9-3.5C623.9,145.7,622.4,143.3,620.2,142.9z"/>
		<path class="st33" d="M595.5,125.2c-0.2-2.1-0.3-4.3-0.4-6.4c0-3.9,0.1-7.8,0-11.6c0-2.5,0.1-6.6-1.9-8.8
			c-5.1-5.2-13.2,0.5-13.4,5.5c-0.3,7.1,1.9,14.2,3.1,21.3c0.2,1.2,0.4,2.4,0.5,3.7c0.5,4.4,2.1,10,0.3,14.2
			c-2.2,0.4-3.7,2.8-3.6,4.6c0,2.8,1.9,3.4,4.9,3.5c6.7,0.2,10.2-0.3,10.8-6C596.5,138.4,596.2,131.8,595.5,125.2z"/>
	</g>
	<g>
		<path class="st33" d="M630.7,46c-0.4-4.9,0-10.7-2.7-14.9c-1.7-2.6-5-3.2-7.6-3.8c-3.5-0.7-7-1.2-10.5-0.5c-1.5,0.3-3,0.8-4.5,1.1
			c-2.9,0.6-5.9,0.6-8.8-0.2c-1.3-0.4-4-1.3-5.3-1.4c-3.1-0.2-3.4,0.4-5.4,0.8c-2.6,0.6-4,1.4-6.4,2.3c-1.8,0.6-3.1,1.1-4.3,2.9
			c-2.5,3.8-1.7,9.2-2.1,13.7c-0.6,7.8-3.4,20.5-1.2,28c2.6,9.1,7.3,11.2,15.1,14.1c4.8,1.8,9.9,2.4,14.9,2.3
			c5.1,0.1,10.1-0.5,14.9-2.3c7.8-3,12.5-5,15.1-14.1C634.1,66.5,631.3,53.8,630.7,46z"/>
		<g>
			<path class="st31" d="M569.5,30.3c-2.9,1.1-5.1-1.2-9,2c-2.8,2.3-5,8.5-4.3,12.5c0.3,2,1.3,5.9,2.1,7.6c1.5,3.2,2.6,7,1.7,11
				c-0.2,0.9-0.5,2-0.2,2.8c0.3,0.7,1.1,0.8,1.8,0.7c3.9-0.6,8.4-3.2,10.6-8c3.1-6.7,2.9-15.9,7.4-21.7c4.3-5.5,8-10.7,0.8-11.1
				C574.9,25.7,573.5,28.7,569.5,30.3z"/>
			<path class="st31" d="M634.4,30.3c2.9,1.1,5.1-1.2,9,2c2.8,2.3,5,8.5,4.3,12.5c-0.3,2-1.3,5.9-2.2,7.6c-1.5,3.2-2.6,7-1.7,11
				c0.2,0.9,0.5,2,0.2,2.8c-0.3,0.7-1.1,0.8-1.8,0.7c-3.9-0.6-8.4-3.2-10.6-8c-3.1-6.7-2.9-15.9-7.4-21.7c-4.3-5.5-8-10.7-0.8-11.1
				C629.1,25.7,630.4,28.7,634.4,30.3z"/>
		</g>
		<path class="st36" d="M584,72.3c-1.2,1.6-2.8,3.2-2.5,5.1c0.2,1.2,1.1,2.1,2.2,2.6c1.1,0.5,2.3,0.6,3.5,0.6c4.5,0,9-1.5,12.5-4.3
			c0.4-0.3,0.9-0.7,1.4-0.9c1.7-0.6,3.3,0.8,4.8,1.9c2.1,1.6,4.7,2.7,7.3,2.8c2.7,0.1,5.4-0.7,7.4-2.5c1.3-1.1,2.2-2.9,1.6-4.5
			c-0.3-0.8-1-1.5-1.6-2.1c-2.9-2.9-5.5-6.1-7.5-9.7c-0.9-1.5-1.2-2.6-2.7-3.5c-1.3-0.8-2.7-1.4-4.2-1.7c-5.8-1.5-13.3-0.3-17.3,4.4
			c-2.7,3.2-2.2,7.3-4.3,10.7C584.4,71.7,584.2,72,584,72.3z"/>
		<path class="st36" d="M595.8,82.9c1.3-0.5,2.5-1,3.8-1.2c2.7-0.4,5.3,0.6,7.9,1.4c3.4,1,7.2,1.5,10.4,0c3.2-1.5,5.5-5.5,4-8.7
			c-1.1-2.2-3.5-3.4-5.9-4.2c-8.8-2.9-18.8-2.3-27.2,1.7c-3.4,1.6-9.5,5.1-6.3,9.4C585.5,85.5,591.6,84.4,595.8,82.9z"/>
		<g>
			<path d="M615.7,43.9c2.4-0.3,4.7,0.9,6.9,2c0.2,0.1,0.3,0.2,0.4,0.4c0,0.1,0,0.2,0,0.3c-0.6,2.6-3.2,4-5.7,4.3
				c-2.1,0.2-6.9,1-6.6-2.6C610.9,46.1,613.8,44.1,615.7,43.9z"/>
			<path class="st5" d="M615.3,46.1c0.3-0.8,0.4-1.6,0.2-2.2c-1.1,0.2-2.6,1-3.6,2.1c-0.1,0.9,0.2,1.7,0.8,1.9
				C613.6,48.3,614.7,47.5,615.3,46.1z"/>
			<path d="M588.3,43.9c-2.4-0.3-4.7,0.9-6.9,2c-0.2,0.1-0.3,0.2-0.4,0.4c0,0.1,0,0.2,0,0.3c0.6,2.6,3.2,4,5.7,4.3
				c2.1,0.2,6.9,1,6.6-2.6C593,46.1,590.1,44.1,588.3,43.9z"/>
			<path class="st5" d="M583.3,47.9c0.9,0.4,2-0.4,2.6-1.8c0.3-0.8,0.4-1.5,0.2-2.1c-1.2,0.2-2.4,0.7-3.5,1.3
				C582.2,46.5,582.5,47.6,583.3,47.9z"/>
		</g>
		<g>
			<path class="st36" d="M589.9,56.1c-0.1,0-0.2,0-0.3-0.1c-0.2-0.2-0.2-0.4,0-0.6c1.4-1.6,3.1-2.9,5.1-3.8c0.2-0.1,0.3-0.1,0.5-0.2
				c0.6-0.3,1.2-0.5,1.6-0.9c0.9-0.7,1.5-2,1.6-3.3c0-1.2-0.3-2.5-1.1-3.7c-0.1-0.2-0.1-0.5,0.2-0.6c0.2-0.1,0.5-0.1,0.6,0.2
				c0.8,1.4,1.3,2.8,1.2,4.2c-0.1,1.6-0.8,3.1-1.9,4c-0.6,0.4-1.2,0.7-1.8,1c-0.2,0.1-0.3,0.1-0.5,0.2c-1.8,0.8-3.5,2-4.8,3.6
				C590.2,56,590,56.1,589.9,56.1z"/>
			<path class="st36" d="M614,56.1c-0.1,0-0.2-0.1-0.3-0.2c-1.3-1.5-3-2.7-4.8-3.6c-0.2-0.1-0.3-0.1-0.5-0.2c-0.6-0.3-1.3-0.5-1.8-1
				c-1.2-0.9-1.9-2.4-1.9-4c0-1.4,0.4-2.8,1.2-4.2c0.1-0.2,0.4-0.3,0.6-0.2c0.2,0.1,0.3,0.4,0.2,0.6c-0.7,1.2-1.1,2.5-1.1,3.7
				c0,1.3,0.6,2.6,1.6,3.3c0.5,0.4,1,0.6,1.6,0.9c0.2,0.1,0.3,0.1,0.5,0.2c1.9,0.9,3.7,2.2,5.1,3.8c0.2,0.2,0.1,0.5,0,0.6
				C614.2,56,614.1,56.1,614,56.1z"/>
			<path class="st36" d="M602,50.8c-0.2,0-0.4-0.2-0.4-0.4v-9.7c0-0.2,0.2-0.4,0.4-0.4c0.2,0,0.4,0.2,0.4,0.4v9.7
				C602.4,50.6,602.2,50.8,602,50.8z"/>
		</g>
		<g>
			<g>
				<path d="M611.5,58.1c-0.8-3.8-5.5-4.7-9.4-4.6c-3.9-0.1-8.6,0.8-9.4,4.6c-1,4.9,3.8,9.6,8,9.7c0.5,0,0.9,0,1.4-0.1
					c0.5,0.1,0.9,0.1,1.4,0.1C607.7,67.6,612.5,62.9,611.5,58.1z"/>
				<path d="M589.9,82.3c-3.7,0-7.4-2.2-9-5.6c-0.3-0.6,0-1.2,0.5-1.5c0.6-0.3,1.2,0,1.5,0.5c1.4,3.1,5.3,4.9,8.6,4.1
					c2-0.5,3.7-1.7,5.5-3.1c0.6-0.4,1.2-0.9,1.9-1.3c1.1-0.7,2.4-1.4,3.8-1.3c1.3,0.1,2.4,0.8,3.3,1.5l0.1,0.1
					c2.1,1.5,5.3,3.4,8.7,3.5c2.7,0.1,6-1.3,6.9-4.2c0.2-0.6,0.8-0.9,1.4-0.7c0.6,0.2,0.9,0.8,0.7,1.4c-1.2,3.9-5.5,5.9-9.1,5.7
					c-4-0.1-7.5-2.3-9.9-3.9l-0.1-0.1c-0.8-0.5-1.5-1-2.2-1.1c-0.8-0.1-1.7,0.4-2.4,0.9c-0.6,0.4-1.2,0.9-1.8,1.3
					c-1.9,1.4-3.9,2.8-6.3,3.4C591.3,82.2,590.6,82.3,589.9,82.3z"/>
				<path d="M602.1,76.3c-0.6,0-1.1-0.5-1.1-1.1v-8.6c0-0.6,0.5-1.1,1.1-1.1c0.6,0,1.1,0.5,1.1,1.1v8.6
					C603.2,75.8,602.7,76.3,602.1,76.3z"/>
			</g>
			<path class="st36" d="M576.4,77.1c-0.2,0-0.3-0.1-0.4-0.2c-0.7-1.3,0-2.9,0.8-3.7c0.9-0.9,2.2-1.4,3.3-1.7
				c0.2-0.1,0.5,0.1,0.6,0.3c0.1,0.2-0.1,0.5-0.3,0.6c-1,0.3-2.1,0.7-2.9,1.5c-0.7,0.7-1.1,1.8-0.7,2.7c0.1,0.2,0,0.5-0.2,0.6
				C576.6,77.1,576.5,77.1,576.4,77.1z"/>
			<path class="st36" d="M627.7,74.9c-0.2,0-0.4-0.2-0.4-0.4c-0.1-1.1-0.3-2.4-0.9-3.4c-0.6-0.8-1.8-1.4-2.7-0.9
				c-0.2,0.1-0.5,0-0.6-0.2c-0.1-0.2,0-0.5,0.2-0.6c1.3-0.7,3,0.1,3.8,1.2c0.8,1.1,0.9,2.6,1.1,3.8C628.2,74.7,628,74.9,627.7,74.9
				C627.8,74.9,627.7,74.9,627.7,74.9z"/>
		</g>
	</g>
</g>
<g>
	<path class="st37" d="M515.8,123.1c-0.8-0.6-1.7-1-2.7-1c-1.2,0-2.4,0.5-3.4,1.2c-3.2,2.1-5.3,6-5.8,9.6c-0.7,5.3,10.6-0.9,12-2.5
		c1.2-1.5,1.9-3.5,1.4-5.3C516.9,124.3,516.4,123.6,515.8,123.1z"/>
	<g>
		<path class="st1" d="M520.6,147.4c0,5.5-12.8,10-28.5,10c-15.7,0-28.5-4.5-28.5-10c0-5.5,12.8-10,28.5-10
			C507.8,137.4,520.6,141.9,520.6,147.4z"/>
		<path class="st38" d="M474.8,149.8c2.5-0.5,5.3-1.1,7.1-3.3c1.7-2.1,1.9-6.1,0.1-8.5c-3.7-5.3-10.7-9.2-14.4-2.7
			c-1.7,3,0.9,7.3,2.8,9.5c-1,0.4-2.2,0-3.1,1c-0.7,0.9-0.8,2.4,0,3.3C469.3,151.3,472.6,150.2,474.8,149.8z"/>
		<path class="st38" d="M507.7,148.9c-2.5-0.4-5.4-1-7.2-3.1c-1.8-2.1-2-6.1-0.3-8.7c3.6-5.5,10.5-9.7,14.4-3.3
			c1.8,3-0.8,7.5-2.6,9.8c1,0.4,2.2-0.1,3.1,0.9c0.8,0.8,0.9,2.4,0.1,3.3C513.2,150.3,509.9,149.3,507.7,148.9z"/>
		<path class="st38" d="M502,119.8c-2.6-5.4-10-5.4-14-4.1c-3.2,1-6.2,2.4-8,6.5c-1,2.4-1.2,4.8-0.6,7.4c0.3,1.4,0.9,2.7,1.2,4.1
			c0.3,1.1,0.2,1.7,0.3,2.8c0.3,3.4,1.2,7.7,2.9,10.2c0.4,0.6,1,1.1,2.6,1.3c2.9,0.3,8.6,0.3,11.5,0.2c1.6-1.7,2.7-4.4,3.8-6.7
			C504.4,135.6,505.3,126.5,502,119.8z"/>
		<path class="st5" d="M502.7,126.7c0,3-5.5,5.4-12.2,5.4c-6.7,0-12.2-2.4-12.2-5.4c0-3,5.5-5.4,12.2-5.4
			C497.3,121.4,502.7,123.8,502.7,126.7z"/>
		<g>
			<path class="st5" d="M499,124.4c0,0,3.7,10.7-2,24l8.2,1.9c0,0,6.8-16.5-1.7-30.3L499,124.4z"/>
			<g>
				<g>
					<g>
						<path class="st5" d="M495,149.7c-0.5,2.3,1.7,4.3,4.9,4.7c3.2,0.3,6.2-1.2,6.7-3.5c0.5-2.2-1.7-4.3-4.9-4.7
							C498.5,145.9,495.5,147.4,495,149.7z"/>
					</g>
				</g>
			</g>
		</g>
		<g>
			<path class="st5" d="M483.9,124.4c0,0-3.7,10.7,2,24l-8.2,1.9c0,0-6.8-16.5,1.7-30.3L483.9,124.4z"/>
			<g>
				<g>
					<g>
						<path class="st5" d="M487.9,149.7c0.5,2.3-1.7,4.3-4.9,4.7c-3.2,0.3-6.2-1.2-6.7-3.5c-0.5-2.2,1.7-4.3,4.9-4.7
							C484.4,145.9,487.4,147.4,487.9,149.7z"/>
					</g>
				</g>
			</g>
		</g>
	</g>
	<g>
		<path class="st39" d="M478.2,116.1c-0.7,1.5-0.7,4.1,0,5.5c0.7,1.4,1.9,2.6,3.1,3.4c2.5,1.9,5.7,2.8,8.7,2.9
			c4.5,0.2,9.1,0.2,12.7-2.9c1.8-1.5,3.3-3.1,3.7-5.7c0.8-6.8-5.1-8.4-10.1-9.4c-4.7-0.9-12-1.6-15.6,2.8
			C479.9,113.8,478.8,115,478.2,116.1z"/>
	</g>
	<g>
		<path class="st5" d="M517.6,90.1c-0.5-1.8-1.2-3.7-2.5-5c-1.4-1.4-3.3-1.9-5.1-2.3c-5.9-1.2-11.9-1.3-17.9-1.2
			c-6-0.1-12,0-17.9,1.2c-1.8,0.4-3.7,0.9-5.1,2.3c-1.3,1.3-2,3.1-2.5,5c-1.7,6.6-1.1,14,1.8,20.1c2.9,6.1,8.1,10.8,14.1,12.7
			c1.9,0.6,3.9,0.9,5.9,1.1c2.2,0.3,5.1,0.3,7.4,0c2-0.2,4-0.5,5.9-1.1c6-1.8,11.2-6.6,14.1-12.7C518.7,104.2,519.3,96.8,517.6,90.1
			z"/>
		<g>
			<g>
				<ellipse cx="476.8" cy="101.6" rx="5" ry="4.9"/>
				<path class="st40" d="M476.6,99c0.6,0.9,0.3,2.1-0.7,2.8c-1,0.7-2.3,0.6-2.9-0.3c-0.6-0.9-0.3-2.1,0.7-2.8
					C474.7,98,476,98.1,476.6,99z"/>
			</g>
			<g>
				<path d="M512.4,101.6c0,2.7-2.2,4.9-5,4.9s-5-2.2-5-4.9s2.2-4.9,5-4.9S512.4,98.9,512.4,101.6z"/>
				<path class="st40" d="M507.2,99c0.6,0.9,0.3,2.1-0.7,2.8c-1,0.7-2.3,0.6-2.9-0.3c-0.6-0.9-0.3-2.1,0.7-2.8
					C505.3,98,506.6,98.1,507.2,99z"/>
			</g>
		</g>
		<g>
			<path d="M496.6,106.5c-2-1-6.2-0.8-7.4-0.5c-1.5,0.3-4.4,0.9-3.1,3.2c0.9,1.6,3.6,3.1,5.6,3c2,0.1,4.7-1.3,5.6-3
				C498.1,107.9,497.6,107,496.6,106.5z"/>
			<g>
				<path d="M492,117C492,117,492,117,492,117c-0.5,0-0.8-0.4-0.7-0.8c0.1-1.2,0.1-2.2,0.1-3.2c0-0.8,0-1.7,0.1-2.7
					c-0.1-0.1-0.2-0.3-0.2-0.5c0-0.4,0.3-0.7,0.7-0.7h0.2c0.2,0,0.4,0.1,0.5,0.2c0.1,0.1,0.2,0.3,0.2,0.6c-0.1,1.2-0.1,2.2-0.1,3.2
					c0,1,0,2-0.1,3.3C492.7,116.7,492.4,117,492,117z"/>
				<path d="M496.3,118.7c-1.7,0-3.4-0.6-4.7-1.8c-0.3-0.3-0.3-0.7-0.1-1c0.3-0.3,0.7-0.3,1-0.1c2.3,2.1,5.9,1.9,8.4-0.5
					c0.3-0.3,0.8-0.3,1,0c0.3,0.3,0.3,0.8,0,1C500.3,117.9,498.3,118.7,496.3,118.7z"/>
				<path d="M487.9,118.7c-2,0-4-0.8-5.6-2.4c-0.3-0.3-0.3-0.7,0-1c0.3-0.3,0.7-0.3,1,0c2.5,2.4,6,2.6,8.4,0.5
					c0.3-0.3,0.8-0.2,1,0.1c0.3,0.3,0.2,0.8-0.1,1C491.3,118.1,489.6,118.7,487.9,118.7z"/>
			</g>
		</g>
		<g>
			<g>
				<path class="st5" d="M518.1,90.1c-3.7,1.7-9.4,1.5-12.4-1.8c-4.7-5.2,0.9-14.8,5.6-17.7c2.9-1.8,6.5-2.5,9.7-1.3
					c4.1,1.6,6.6,6.7,5.5,11.1c-0.4,1.7-1.3,3.2-2.3,4.5C522.7,87.1,520.6,88.9,518.1,90.1z"/>
				<g>
					<path class="st41" d="M521.2,74.8c-1.3-0.9-2.9-0.9-4.4-0.5c-0.9,0.2-1.7,0.5-2.5,0.9c-2,1.1-3.5,3-4.9,4.9
						c-0.6,0.8-1.2,1.8-1.5,2.8c2.1,0.3,4.3,0.7,6.1,1.9c0.7,0.5,1.4,1.1,2,1.8c0.2,0.2,0.3,0.4,0.5,0.6c1.8-0.9,3.5-2.4,4.7-4.1
						c0.9-1.2,1.5-2.7,1.6-4.2C522.9,77.3,522.4,75.7,521.2,74.8z"/>
				</g>
			</g>
			<g>
				<path class="st5" d="M466.1,90.1c3.7,1.7,9.4,1.5,12.4-1.8c4.7-5.2-0.9-14.8-5.6-17.7c-2.9-1.8-6.5-2.5-9.7-1.3
					c-4.1,1.6-6.6,6.7-5.5,11.1c0.4,1.7,1.3,3.2,2.3,4.5C461.5,87.1,463.6,88.9,466.1,90.1z"/>
				<g>
					<path class="st41" d="M463,74.8c1.3-0.9,2.9-0.9,4.4-0.5c0.9,0.2,1.7,0.5,2.5,0.9c2,1.1,3.5,3,4.9,4.9c0.6,0.8,1.2,1.8,1.5,2.8
						c-2.1,0.3-4.3,0.7-6.1,1.9c-0.7,0.5-1.4,1.1-2,1.8c-0.2,0.2-0.3,0.4-0.5,0.6c-1.8-0.9-3.5-2.4-4.7-4.1
						c-0.9-1.2-1.5-2.7-1.6-4.2C461.3,77.3,461.8,75.7,463,74.8z"/>
				</g>
			</g>
		</g>
	</g>
</g>
</svg>
