<?xml version="1.0" encoding="utf-8"?>
<!-- Generator: Adobe Illustrator 24.2.3, SVG Export Plug-In . SVG Version: 6.00 Build 0)  -->
<svg version="1.1" id="Layer_1" xmlns="http://www.w3.org/2000/svg" xmlns:xlink="http://www.w3.org/1999/xlink" x="0px" y="0px"
	 viewBox="0 0 800 186" style="enable-background:new 0 0 800 186;" xml:space="preserve">
<style type="text/css">
	.st0{opacity:0.3;fill:#231F20;}
	.st1{fill:#7C4811;}
	.st2{fill:#99550A;}
	.st3{fill:#E8D7D1;}
	.st4{fill:#BC6906;}
	.st5{fill:#FFFFFF;}
	.st6{fill:#0096FC;}
	.st7{fill:#3A3A3A;}
	.st8{fill:#212121;}
	.st9{fill:#514539;}
	.st10{fill:#A52F4E;}
	.st11{fill:#FEFEFE;}
	.st12{fill:#231F20;}
	.st13{fill:#CCC7C6;}
	.st14{fill:#0B0808;}
	.st15{fill:#1B75BC;}
	.st16{fill:#B76C00;}
	.st17{fill:#A00A2B;}
	.st18{fill:#AFAFAF;}
	.st19{fill:#F15A29;}
	.st20{fill:#B7375C;}
	.st21{fill:#2D2A21;}
	.st22{fill:#E5E5E5;}
	.st23{fill:#D3834C;}
	.st24{fill:#454136;}
	.st25{fill:#BCAC39;}
	.st26{fill:#912F41;}
	.st27{fill:#8C5522;}
	.st28{fill:#C68947;}
	.st29{fill:#B27436;}
	.st30{fill:#D6D6D6;}
	.st31{fill:#F2BB79;}
	.st32{fill:#552D0A;}
	.st33{fill:#D1D1D1;}
	.st34{fill:#A55A1C;}
	.st35{fill:#FEFCFC;}
	.st36{fill:#C1742E;}
	.st37{fill:#1C75BC;}
	.st38{fill:#2B2B2B;}
	.st39{fill:#D6878B;}
	.st40{fill:#404241;}
	.st41{fill:none;}
	.st42{fill:#4C4A46;}
	.st43{fill:#A35B24;}
	.st44{fill:#D38D54;}
	.st45{fill:#FFE5C5;}
	.st46{fill:#CE1D2E;}
	.st47{opacity:0.25;fill:#0B0808;}
</style>
<g>
	<path class="st0" d="M658.2,153.2c0,3.7-16,6.6-35.7,6.6c-19.7,0-35.7-3-35.7-6.6c0-3.7,16-6.6,35.7-6.6
		C642.2,146.6,658.2,149.6,658.2,153.2z"/>
	<g>
		<g>
			<g>
				<g>
					<path class="st1" d="M647.7,124.8c-1.6,1.6-2.4,3.6-4.1,5.2c-3.2,2.9-9.6,7.4-11,2.3c0,0,0-0.1,0-0.1c-0.9-3.5,2.6-6.6,5.5-8.7
						c3.5-2.5,7-4.8,10.5-7.4c1-0.7,1.9-1.4,2.8-2.2c0.4-0.3,1.8-2,2.3-1.9c1.6,0.4-0.2,5-0.6,5.9c-1.3,2.4-3.1,4.7-5.1,6.6
						C647.9,124.7,647.8,124.8,647.7,124.8z"/>
				</g>
			</g>
		</g>
	</g>
	<g>
		<path class="st2" d="M615.9,139.1c-0.3-4.1-2.1-8.3-5.2-11.5c-4.2-4.4-10.3-9.2-17.3-6c-4.4,2-5.3,4.9-4.9,8.7
			c0.3,2.7,1.7,6.1,3.6,8.4c1.3,1.5,4.9,3.1,3.9,5.3c-0.4,0.9-2.2,1.3-2.9,2c-1.1,1-1.5,2.4-1.5,3.7c0.1,2.9,2.8,3.2,5.9,3.1
			c4.7-0.1,9.4-0.7,13.3-3C615.8,146.9,616.3,144,615.9,139.1z"/>
		<path class="st3" d="M591.6,149.6c-0.1-1.3,0.4-2.7,1.5-3.7c0.7-0.7,2.5-1.1,2.9-2c0.7-1.5-0.9-2.7-2.3-3.8c0,0,0,0,0,0
			c1.1,0.4,2.2,0.5,3.4,0.4c2.1-0.3,4.6-0.4,6.6-1c0.7,2.1,2.2,3.8,2.6,6.3c0.3,2.3-0.2,4.4-1.4,6.1c-2.4,0.5-4.9,0.7-7.4,0.8
			C594.4,152.8,591.8,152.5,591.6,149.6z"/>
	</g>
	<path class="st2" d="M630,139.1c0.3-4.1,2.1-8.3,5.2-11.5c4.2-4.4,10.3-9.2,17.3-6c4.4,2,5.3,4.9,4.9,8.7c-0.3,2.7-1.7,6.1-3.6,8.4
		c-1.3,1.5-4.9,3.1-3.9,5.3c0.4,0.9,2.2,1.3,2.9,2c1.1,1,1.5,2.4,1.5,3.7c-0.1,2.9-2.8,3.2-5.9,3.1c-4.7-0.1-9.4-0.7-13.3-3
		C630.1,146.9,629.6,144,630,139.1z"/>
	<path class="st3" d="M654.3,149.6c0.1-1.3-0.4-2.7-1.5-3.7c-0.7-0.7-2.5-1.1-2.9-2c-0.7-1.5,0.9-2.7,2.3-3.8c0,0,0,0,0,0
		c-1.1,0.4-2.2,0.5-3.4,0.4c-2.1-0.3-4.6-0.4-6.6-1c-0.7,2.1-2.2,3.8-2.6,6.3c-0.3,2.3,0.2,4.4,1.4,6.1c2.4,0.5,4.9,0.7,7.4,0.8
		C651.5,152.8,654.2,152.5,654.3,149.6z"/>
	<g>
		<path class="st4" d="M641.7,91.3h-38.1c0,0.1,0,0.1-0.1,0.2c-1.4,4.4-3.9,8.1-5.3,12.5c-0.1,0.3-0.2,0.6-0.2,0.8
			c6.7,3.3,27.4,11.3,48.8-1.3c-1.4-4.2-3.7-7.8-5.1-12C641.7,91.4,641.7,91.4,641.7,91.3z"/>
		<path class="st2" d="M646.9,103.5c-21.4,12.7-42,4.6-48.8,1.3c-3,11.2,1.5,21.3,4.8,32c1.6,5.4,5.3,10.2,11.2,12.7
			c2.5,1,5.5,1.4,8.6,1.5v0c0,0,0,0,0,0c0,0,0,0,0,0v0c3.1-0.1,6.2-0.4,8.6-1.5c5.9-2.4,9.6-7.3,11.2-12.7c3.3-11,8-21.3,4.5-32.8
			C647,103.9,646.9,103.7,646.9,103.5z"/>
		<path class="st5" d="M630.3,149.6c5.4-3.7,2.6-13.3,2.8-18.8c0.3-7.2-0.7-14.5,0.6-21.6c0.7-3.6,7.7-14.7-0.9-12.8
			c-4.3,0.9-8.6,1.1-13,0.6c-2.7-0.3-8.7-3.1-10.5-0.9c-2,2.4-0.7,4.3,0,6.9c1.1,4.4,3,11.5,3.2,16c0.3,5-0.1,10.1-0.6,15
			c-0.4,4.4-1.9,10.3,0.5,14.3"/>
		<path class="st3" d="M633.8,109c-8.4,2.1-16.1,1.7-22.5,0.4c0.7,3.2,1.1,6.3,1.3,9.6c0.3,5-0.1,10.1-0.6,15
			c-0.4,4.4-1.9,10.3,0.5,14.3c0.2,0.4,0.5,0.7,0.7,1c0.2,0.1,0.5,0.2,0.7,0.3c2.5,1,5.5,1.4,8.6,1.5v0c0,0,0,0,0,0c0,0,0,0,0,0v0
			c2.3-0.1,4.5-0.3,6.5-0.8c0.4-0.2,0.8-0.4,1.2-0.7c5.4-3.7,2.6-13.3,2.8-18.8c0.3-7.2-0.7-14.5,0.6-21.6
			C633.8,109.1,633.8,109,633.8,109z"/>
	</g>
	<g>
		<g>
			<g>
				<path class="st4" d="M629.7,104.7c4.8-5.1,12.6,0.5,12.8,5.3c0.3,8-2.6,16.2-3.5,24.2c-0.5,4.2-2,9.7-0.2,13.7
					c2.1,0.4,3.5,2.7,3.5,4.4c0,2.8-1.8,3.3-4.7,3.4c-6.4,0.2-9.7-0.3-10.3-5.8c-0.7-6.4-0.4-12.7,0.3-19.2
					c0.6-5.8,0.2-11.7,0.3-17.5C627.9,110.7,627.7,106.7,629.7,104.7z"/>
			</g>
		</g>
		<path class="st5" d="M639.3,132c-0.1,0-0.2-0.1-0.4-0.1c-3.7-0.8-4.6-2.7-4.8-6.5c-0.2-4.6,0.7-8.9,1.1-13.3
			c0.1-1.5,0.9-6.3,1-9.6c-2.3-0.8-4.5,0-6.6,2.2c-2,2.1-1.8,6.1-1.8,8.5c-0.1,5.8,0.3,11.7-0.3,17.5c-0.7,6.5-1,12.8-0.3,19.2
			c0.6,5.5,3.9,6,10.3,5.8c2.9-0.1,4.7-0.6,4.7-3.4c0-1.7-1.4-4-3.5-4.4c-1.8-4-0.2-9.5,0.2-13.7C639.1,133.4,639.2,132.7,639.3,132
			z"/>
	</g>
	<g>
		<g>
			<g>
				<path class="st4" d="M616.1,104.7c-4.8-5.1-12.6,0.5-12.8,5.3c-0.3,8,2.6,16.2,3.5,24.2c0.5,4.2,2,9.7,0.2,13.7
					c-2.1,0.4-3.5,2.7-3.5,4.4c0,2.8,1.8,3.3,4.7,3.4c6.4,0.2,9.7-0.3,10.3-5.8c0.7-6.4,0.4-12.7-0.3-19.2
					c-0.6-5.8-0.2-11.7-0.3-17.5C617.9,110.7,618.1,106.7,616.1,104.7z"/>
			</g>
		</g>
		<path class="st5" d="M606.5,132c0.1,0,0.2-0.1,0.4-0.1c3.7-0.8,4.6-2.7,4.8-6.5c0.2-4.6-0.7-8.9-1.1-13.3c-0.1-1.5-1.1-6-1.2-9.3
			c2.3-0.8,4.6-0.3,6.7,1.9c2,2.1,1.8,6.1,1.8,8.5c0.1,5.8-0.3,11.7,0.3,17.5c0.7,6.5,1,12.8,0.3,19.2c-0.6,5.5-3.9,6-10.3,5.8
			c-2.9-0.1-4.7-0.6-4.7-3.4c0-1.7,1.4-4,3.5-4.4c1.8-4,0.2-9.5-0.2-13.7C606.7,133.4,606.6,132.7,606.5,132z"/>
	</g>
	<g>
		<g>
			<path class="st6" d="M643.5,90c0,6.1-9.4,11.1-21.1,11.1c-11.6,0-21.1-5-21.1-11.1c0-6.1,9.4-11.1,21.1-11.1
				C634,78.9,643.5,83.9,643.5,90z"/>
		</g>
	</g>
	<g>
		<g>
			<g>
				<path class="st7" d="M647.5,80.8c-0.1-3.2,0-6.5-0.8-9.8c-0.6-2.5-2.8-4.4-3.4-6.7c-0.5-1.9-0.8-1,0.8-2.3
					c2.2-1.9,6.2-2.5,8.9-2.8c8.4-1,15.2,3,18.5,9.1c0.5,0.9,4.3,10.1,3.4,10.4c-2.7,0.9-5.5-0.4-7.6-1.5c-3.6-1.8-5.8,1.2-9.3,2.7
					c-1.2,0.5-10.3,4.5-10.3,4.4C647.6,83.1,647.5,82,647.5,80.8z"/>
				<path class="st8" d="M666.8,76.9c-1.1-1.5-3-2.7-4.3-3.8c-1.6-1.4-2.2-3.2-3.7-4.6c-3.6-3.3-9.8-1.7-11.7,3.2
					c-0.1,0.2-0.1,0.3-0.2,0.5c0.5,2.5,0.5,4.8,0.6,7.2c0.6,1.5,1.3,3,2.2,4.2c2.8-1.2,7.5-3.2,8.3-3.6
					C661.3,78.4,663.5,75.6,666.8,76.9z"/>
			</g>
			<g>
				<path class="st7" d="M599.1,80.8c0.1-3.2,0-6.5,0.8-9.8c0.6-2.5,2.8-4.4,3.4-6.7c0.5-1.9,0.8-1-0.8-2.3
					c-2.2-1.9-6.2-2.5-8.9-2.8c-8.4-1-15.2,3-18.5,9.1c-0.5,0.9-4.3,10.1-3.4,10.4c2.7,0.9,5.5-0.4,7.6-1.5c3.6-1.8,5.8,1.2,9.3,2.7
					c1.2,0.5,10.3,4.5,10.3,4.4C599,83.1,599,82,599.1,80.8z"/>
				<path class="st8" d="M579.8,76.9c1.1-1.5,3-2.7,4.3-3.8c1.6-1.4,2.2-3.2,3.7-4.6c3.6-3.3,9.8-1.7,11.7,3.2
					c0.1,0.2,0.1,0.3,0.2,0.5c-0.5,2.5-0.5,4.8-0.6,7.2c-0.6,1.5-1.3,3-2.2,4.2c-2.8-1.2-7.5-3.2-8.3-3.6
					C585.2,78.4,583.1,75.6,579.8,76.9z"/>
			</g>
		</g>
		<path class="st4" d="M650.2,80.7c-2.6,5.5-7.1,12.2-12.9,13.5c-4.7,1-9.7-0.9-14.7-0.7v0c-0.1,0-0.3,0-0.4,0c-0.1,0-0.3,0-0.4,0v0
			c-4.9-0.2-10,1.7-14.7,0.7c-5.8-1.3-10.3-8-12.9-13.5c-5.5-11.9,1.8-32.3,8.1-42.4c4.1-6.7,12.3-8.6,19.5-9.3h0.9
			c7.1,0.7,16.5,3.2,20.7,9.8C649.5,49,655.7,68.8,650.2,80.7z"/>
		<path class="st5" d="M623.2,30.7c-0.5,0-1,0-1.6,0.2c-3.3,0.8-5.7,2.4-7.5,4c-3,2.5-4.9,5.4-5.9,8.3c-1.5,4.1-1.5,8.3-0.4,12.5
			c1.9,7.8,11.1,7,15.3,6.6c4.2,0.4,13.3,1.2,15.3-6.6c0.2-0.7,0.3-1.3,0.4-2c0.7-4,0.4-8-1.4-11.9c-1.3-2.7-3.2-5.4-6.4-7.7
			c-1.1-0.8-2.4-1.6-3.8-2.2c-0.6-0.3-1.2-0.5-1.9-0.7C624.4,30.9,623.9,30.7,623.2,30.7z"/>
		<path class="st9" d="M622.5,28.4c-20.4-4.1-21.5,16.3-18.2,20.7c4.5,6.1,8,1,10.6-3.5c3.5-5.9,12-7.3,15.8-1.2
			c1.3,2,1.4,5.4,3.3,6.7c2.4,1.6,6.1-0.8,7.5-3.3C643,45.1,641.6,22.5,622.5,28.4z"/>
		<g>
			<path class="st10" d="M631.5,38.8c-1.7,0.5-3.1,1.7-4.8,2.2c-1.2,0.4-2.5,0.3-3.6-0.4v-0.1c0,0-0.1,0-0.1,0.1c0,0-0.1,0-0.1-0.1
				v0.1c-1.1,0.7-2.4,0.8-3.6,0.4c-1.7-0.5-3.1-1.7-4.8-2.2c-0.3,3.4-0.3,6.8-0.1,10.2c0.2,1.9,0.5,4,1.7,5.4
				c1.8,2.1,4.5,2.9,6.9,2.9c2.3,0,5.1-0.8,6.9-2.9c1.2-1.4,1.5-3.4,1.7-5.4C631.8,45.6,631.8,42.2,631.5,38.8z"/>
			<g>
				<g>
					<path d="M623,40.7c0.5,0,0.8-0.4,0.8-0.8v-6.9c0-0.4-0.4-0.8-0.8-0.8c-0.5,0-0.8,0.4-0.8,0.8V40
						C622.1,40.4,622.5,40.7,623,40.7z"/>
				</g>
				<path d="M613.1,36.6c0.4-0.3,0.9-0.1,1.1,0.3c0.7,1.3,3,2.7,4.2,2.9c1.7,0.4,3-0.1,4.4-1v-0.1c0,0,0,0,0.1,0c0,0,0,0,0.1,0v0.1
					c1.4,0.9,2.7,1.4,4.4,1c1.2-0.3,3.5-1.6,4.2-2.9c0.2-0.5,0.7-0.6,1.1-0.3c0.4,0.3,0.5,0.9,0.3,1.3c-1,2-4,3.5-5.3,3.8
					c-0.5,0.1-1,0.2-1.5,0.2c-1.3,0-2.4-0.4-3.4-0.9c-1,0.5-2.1,0.9-3.4,0.9c-0.5,0-1-0.1-1.5-0.2c-1.3-0.3-4.3-1.8-5.3-3.8
					C612.6,37.5,612.7,36.9,613.1,36.6z"/>
			</g>
		</g>
		<g>
			<path d="M616.2,31c-2.3-7.3,15.9-8.3,13.6,0.5c-0.7,2.7-4.7,2.3-7.2,2.2C619.9,33.6,617,33.6,616.2,31z"/>
			<path class="st5" d="M622.8,27.1c0.3,0.8-0.7,1.8-2.2,2.3c-1.5,0.5-3,0.2-3.2-0.6c-0.3-0.8,0.7-1.8,2.2-2.3
				C621,26.1,622.5,26.3,622.8,27.1z"/>
		</g>
	</g>
</g>
<g>
	<g>
		<path class="st11" d="M182.8,110.8c2.1-2.3,4.1-4.5,4.6-5.2c0.6-0.7,1.4-1.5,2.2-1.1c0.8,0.5,0.7,1.8,0.4,2.7
			c-0.6,2.1-1.9,4.6-3.5,6.8C185.4,112.8,184.2,111.6,182.8,110.8z"/>
		<path class="st12" d="M182.8,110.8c1.4,0.8,2.7,1.9,3.6,3.3c-1.7,2.4-3.8,4.5-5.9,5.4c-1,0.4-3.3,0.8-3.2-1.5
			C177.3,117.1,180.1,113.8,182.8,110.8z"/>
	</g>
	<path class="st0" d="M125.6,154.4c0,2.5,13.6,5.5,31.7,5.5c18.1,0,34.9-2.2,34.9-4.7c0-2.5-13.4-4.6-31.4-4.6
		C142.7,150.6,125.6,151.9,125.6,154.4z"/>
	<g>
		<g>
			<g>
				<g>
					<path class="st13" d="M174.7,117.2c-0.2-0.3-7.9-7.3-14.8-0.9c-3,2.8-1.7,7.6,0.5,10.8c2.6,3.8,3.8,8.2,8.1,10.7
						c0.6,0.4,1.3,0.7,1.8,1.2c0.7,0.7,0.9,1.7,1.1,2.6c0.6,2.6,1.3,5.4,1.4,8.1c0,0.7-0.2,1.3,0.3,1.9c0.6,0.6,2.8,1.8,3.5,1.5
						C179.7,151.7,180.6,127.1,174.7,117.2z"/>
				</g>
				<path class="st13" d="M173.5,153.7c-4.6,0-4.8-2.2-4.2-3.5c0.7-1.8,2.2-2.7,2.9-3c2.1-0.7,6.1-1.8,6.5,1.6
					C179,151.6,178.4,153.7,173.5,153.7z"/>
			</g>
		</g>
		<g>
			<g>
				<g>
					<path class="st13" d="M140.5,121c-0.3-1.6-0.9-3-2.2-3.8c-2.9-2-6.4-1.2-7.6,2.1c-1.8,5.3,0.8,10.6,1.3,16
						c0.3,3,0.7,8.1,0.8,11.2c0,1.1-0.6,2.5-0.9,3.1c-0.5,1.2,6.7,2.7,7.2,0.4c0.9-4.3,1.1-20.6,1.3-22.8
						C140.7,125.5,140.9,123.1,140.5,121z"/>
				</g>
			</g>
		</g>
		<g>
			<g>
				<g>
					<path class="st11" d="M179.9,115.7c-3.5-3-12.8-2.4-14.2-2.4c-2.4,0.2-3.4-0.4-5.7-0.9c-1.3-0.3-2.5-0.9-3.6-1.4
						c-1.2-0.6-2.7-1.2-3.7-2c-3.3-2.7-5.6-5.2-10.2-5.2c-3.4,0-6.7,1.6-8.9,4.1c-1.1,1.2-1.9,2.6-2.6,4.1c-0.8,1.8-1.1,2.4-1.2,4.4
						c-0.2,4.1,0.4,9.8,0.9,11.4c1,2.8,3.6,5.3,6.6,7.3c6.1,4,13.4,2.6,20,1.2c2.8-0.6,3.5-1.6,6.5-1.6c2.7,0,6,1.4,8.7,1.2
						c4.9-0.4,8.4-3.3,10.3-8C184.3,123.8,183.2,118.5,179.9,115.7z"/>
				</g>
			</g>
			<path class="st13" d="M171.8,131.2c-1.9-1.8-4.1-1.9-6.6-1.7c-3.7,0.3-7.2,2.4-10.9,2c-3.7-0.5-7.5-1.7-11-3.1
				c-1.7-0.7-0.6,1.6-2.6,1.6c-1.9,0-2.6,0.6-6.2-0.2c-0.8-0.2-3.2-1.1-3.9-1.5c1,2.7,3.6,5.1,6.5,7.1c6.1,4,13.4,2.6,20,1.2
				c2.8-0.6,3.5-1.6,6.5-1.6c2.7,0,6,1.4,8.7,1.2c0.2,0,0.4,0,0.7-0.1C173.6,134.3,173.4,132.5,171.8,131.2z"/>
		</g>
		<g>
			<g>
				<g>
					<path class="st13" d="M128.7,150.5c0,2.5,1.5,2.8,4.4,3c3.9,0.3,6.2-1.8,6.3-3.9c0.1-2.1-2.3-3.9-5.2-3.6
						C131.3,146.2,128.8,148.4,128.7,150.5z"/>
				</g>
			</g>
		</g>
		<g>
			<g>
				<path class="st5" d="M149.7,126.2c-1.5-5.2-7.9-8.6-9.8-3.4c-1.6,4.6-0.3,10.3,0.6,15.5c0.4,2.7,1.9,13.3,1,15.4
					c-0.3,0.7-2.1,1.3-1.4,2.4c1.7,3.1,6.9,1,8-0.5C150,152.9,151.7,132.9,149.7,126.2z"/>
			</g>
			<path class="st12" d="M145.8,124.2c-0.2-2.5,0.7-4.5,0.2-7.1c-0.1-0.5-0.2-0.9-0.3-1.4c2.7-1.7,5.1-4.1,5.5-7.2
				c0-0.3,0-0.5,0-0.8c0.5,0.4,0.9,0.8,1.4,1.2c1,0.8,2.5,1.4,3.7,2c1.2,0.6,2.4,1.2,3.6,1.4c2.2,0.5,3.2,1,5.3,0.9
				c-1,1.7-2.5,3-4.3,3.8c-4.5,2-5.7,2.6-8.5,6.7c-0.6,0.9-1.2,1.8-2,2.4c-0.8,0.6-2,1-3,0.6C146.5,126.4,145.9,125.3,145.8,124.2z"
				/>
			<path class="st14" d="M151.2,108.6c0-0.3,0-0.5,0-0.8c0.5,0.4,0.9,0.8,1.4,1.2c1,0.8,2.5,1.4,3.7,2c1.2,0.6,2.4,1.2,3.6,1.4
				c1.4,0.3,2.3,0.6,3.3,0.8c-1.7,2.5-4.7,4.4-8.3,5.6c-2.8,0.9-5.6,0.5-6.6-2.5c-0.2-0.6-0.3-1.5-0.3-2.5
				C149.7,112.4,150.9,110.6,151.2,108.6z"/>
			<g>
				<g>
					<g>
						<path class="st5" d="M138.1,153.4c-0.7,2.6,1.8,4.4,5.3,4.2c4.1-0.2,5.6-1.2,5.9-3.5c0.4-2.3-1.8-4.4-4.9-4.6
							C141.2,149.3,138.7,151.1,138.1,153.4z"/>
					</g>
				</g>
			</g>
		</g>
		<g>
			<g>
				<path class="st11" d="M182.6,117.6c-0.2-0.3-9-6.9-15.6,0.6c-2.9,3.2-1,8.2,1.6,11.3c3.1,3.8,4.8,8.2,9.6,10.4
					c0.7,0.3,1.4,0.6,2,1.1c0.8,0.7,1.1,1.7,1.5,2.7c0.9,2.7,1.9,5.6,2.3,8.4c0.1,0.7-0.1,1.4,0.5,1.9c0.6,0.6,3.1,1.6,3.8,1.2
					C191.3,153.3,189.8,127.3,182.6,117.6z"/>
			</g>
			<path class="st12" d="M185.9,124.3c-5.2,0.8-14.9-5-14.8-10.4c0-0.2,0-0.4,0-0.6c3.2,0.2,7,0.6,8.9,2.2c0.2,0.2,0.5,0.5,0.7,0.7
				c1.2,0.6,2,1.3,2.1,1.4C184.2,119.3,185,121.7,185.9,124.3z"/>
			<path class="st11" d="M184.6,156.1c-4.8,0-5-2.4-4.5-3.7c0.8-1.9,2.3-2.9,3-3.1c2.2-0.7,6.4-1.9,6.9,1.7
				C190.4,153.8,189.8,156,184.6,156.1z"/>
		</g>
		<g>
			<path class="st15" d="M144,102.5c8.1,0.8,10.2,9.2,5.3,12.9c-4.2,3.2-9.5,3.4-12.1,3.2c-2.9-0.3-6.4-1.2-8.1-2.7
				c-1.8-1.7-1.8-3.8-2.2-6c-0.1-0.5-0.2-1.1,0-1.6c0.2-0.7,0.8-1.2,1.4-1.7C132.3,103.3,138.3,101.9,144,102.5z"/>
		</g>
		<g>
			<g>
				<path class="st5" d="M124.5,68.7c3.2-0.6,6,3.8,8.7,5.4c2.8,1.6,5.5,0.8,8.7,1.2c2.7,0.3,6.2,0.3,8.6,1.7
					c4.8,2.7,6.4,6.9,7.4,11.9c1.5,6.7,2.1,12.3-1.4,18.4c-2,3.6-11,7.9-21,6.6c-5.6-0.7-9.3-3.3-13-7c-2.7-2.7-4.9-7.8-6.4-11.3
					c-0.7-1.7-0.8-3.5-1.4-5.1c-0.8-2-2.6-3.5-3.4-5.6c-0.9-2.3-1.1-5,0-7.3C112.6,74.9,121.6,69.2,124.5,68.7z"/>
				<path class="st16" d="M122.7,103.9c1.1-2,2.6-3.7,3.6-5.7c1.7-3.3,2.2-7.1,3.4-10.7c1-3.1,2.9-7.5,6.6-7.9
					c3.8-0.3,7.7-0.2,11.4,1.1c3.3,1.2,6.9,3,9.7,5.3c0.2,0.9,0.5,1.7,0.7,2.6c1.5,6.7,2.1,12.3-1.4,18.4c-2,3.6-11,7.9-21,6.6
					c-5.6-0.7-9.3-3.3-13-7c-0.3-0.3-0.5-0.5-0.8-0.8C122,105.2,122.3,104.5,122.7,103.9z"/>
				<path class="st14" d="M128.4,74.1c0.4-0.9,0.4-2.3,0.1-3.6l0,0c0,0,0,0,0,0c0,0,0,0,0,0l0,0c-0.3-1.4-0.7-1.9-1.4-2.5
					c-2.5-2.1-6.1,0.2-5.7,3.9l0,0c0,0,0,0,0,0c0,0,0,0,0,0l0,0C122.4,75.5,126.7,78.3,128.4,74.1z"/>
			</g>
			<path class="st12" d="M155.4,117.5c-2.7,0.9-5.2,0.6-6.2-2.4c-1.6-4.7,2.8-20.3,3.3-21.7c0.6-1.8,1.2-3.6,3.7-3.2
				c2.8,0.5,5.3,3.9,7,6C170.1,105.1,165.6,114,155.4,117.5z"/>
			<path class="st14" d="M137,83.6c0,0,0,0.1,0,0.1c0.2,2.2,0.3,4.3,0.2,6.4c0,0.6,0.4,1,0.9,1c0.5,0,0.9-0.4,0.9-1c0,0,0,0,0,0
				c0-1.4,0-2.7,0-4.1c1.3,1.3,2.6,2.7,3.9,4.1c0.4,0.4,0.9,0.4,1.3,0c0.4-0.4,0.4-1,0-1.4c-1.8-2-3.7-3.9-5.6-5.8
				c-0.3-0.3-0.7-0.3-1-0.1C137.2,82.9,137,83.3,137,83.6z"/>
			<path class="st14" d="M117.9,76.1c0.1,0.1,0.3,0.1,0.4,0c0.3-0.1,0.6-0.4,0.8-0.6c0.3-0.1,0.6-0.3,0.8-0.4
				c0.9-0.4,1.9-0.8,2.8-1.2c0.3-0.1,0.4-0.5,0.3-0.8c-0.1-0.3-0.5-0.4-0.8-0.3c-1,0.5-1.9,0.9-2.9,1.4c-0.5,0.3-1.1,0.5-1.6,0.8
				c-0.1,0.1-0.4,0.1-0.4,0.3C117.3,75.7,117.6,76,117.9,76.1z"/>
			<path class="st17" d="M113.8,76.1c-2.8,2.7-0.4,5.4,4,2.8c2.6-1.5,2.4-6.1-2-4.3C114.9,75,114.3,75.5,113.8,76.1z"/>
		</g>
	</g>
</g>
<g>
	<path class="st18" d="M409.1,110.5c-1.1,0-2.3-0.2-3.4-0.6c0.9,1.3,1.6,2.7,2.2,4.1c-6.5-2.1-13.5-2.9-19.3-6.5
		c-1.4-0.9-2.8-1.9-3.8-3.3c-2.9-4.2-0.6-13.2,5.6-12.3c5.3,0.8,10.8,5.7,14,9.8C406.6,104.3,408.2,107.3,409.1,110.5z"/>
	<path class="st18" d="M334.8,110.5c1.1,0,2.3-0.2,3.4-0.6c-0.9,1.3-1.6,2.7-2.2,4.1c6.5-2.1,13.5-2.9,19.3-6.5
		c1.4-0.9,2.8-1.9,3.8-3.3c2.9-4.2,0.6-13.2-5.6-12.3c-5.3,0.8-10.8,5.7-14,9.8C337.4,104.3,335.8,107.3,334.8,110.5z"/>
	<path class="st0" d="M399,151.2c0,4.8-12.6,8.6-28.1,8.6c-15.5,0-28.1-3.9-28.1-8.6c0-4.8,12.6-8.7,28.1-8.7
		C386.4,142.6,399,146.4,399,151.2z"/>
	<g>
		<path class="st18" d="M363.1,141c0.1-1.6-0.1-4-0.9-5.5c-0.7-1.3-3-2.6-4.2-3.5c-1.1-0.8-2.3-1.4-3.6-1.3
			c-1.2,0.2-2.4,0.1-3.6,0.6c-2.1,0.8-3.6,2.9-4.3,5.1c-0.7,2.3-0.6,4.7-0.1,7c0.5,2.5,1.4,5.3,0.1,7.4c0.3-0.5,2.3-0.9,2.8-1.1
			c-0.1,0.6-0.5,0.9-0.8,1.4c1.5,0.1,3-0.4,4.2-1.3c-0.3,0.6-0.5,1.1-0.8,1.7c-0.1,0.2,3.7-0.3,4.1-0.4c1.5-0.5,2.5-1.5,3.7-2.4
			C362.2,147,362.9,144,363.1,141z"/>
		<path class="st18" d="M378.1,141c-0.1-1.6,0.1-4,0.9-5.5c0.7-1.3,3-2.6,4.2-3.5c1.1-0.8,2.3-1.4,3.6-1.3c1.2,0.2,2.4,0.1,3.6,0.6
			c2.1,0.8,3.6,2.9,4.3,5.1c0.7,2.3,0.6,4.7,0.1,7c-0.5,2.5-1.4,5.3-0.1,7.4c-0.3-0.5-2.3-0.9-2.8-1.1c0.1,0.6,0.5,0.9,0.8,1.4
			c-1.5,0.1-3-0.4-4.2-1.3c0.3,0.6,0.5,1.1,0.8,1.7c0.1,0.2-3.7-0.3-4.1-0.4c-1.5-0.5-2.5-1.5-3.7-2.4C379,147,378.2,144,378.1,141z
			"/>
	</g>
	<path class="st5" d="M383.5,114.5c-3.4-6-12.9-6-18.1-4.5c-4.2,1.1-6.1,1.8-8.4,6.3c-1.3,2.6-2.9,6.3-2.1,9.2
		c0.4,1.5,0.5,2.7,1,4.2c0.4,1.3,0.2,1.9,0.4,3.1c0.4,3.8,3,7.9,5.2,10.6c1.8,2.2,3.7,4.2,6.4,5c1.6,0.5,3.4,0.8,5.1,0.5
		c2.8-0.4,5.2-2.7,6.7-5c1.2-1.9,2.4-3.7,3.5-5.7C386.5,131.9,387.6,121.9,383.5,114.5z"/>
	<path class="st18" d="M382.1,140c0-0.1-0.1-0.3-0.1-0.4c-0.4-1.5-1.1-3-2.5-3.8c-3.6-1.9-8.2,1.6-12.1,0.2c-1-0.4-1.9-1.1-3-1.3
		c-2.4-0.6-4.8,1.2-5.7,3.4c-0.2,0.6-0.4,1.2-0.6,1.9c0.9,1.6,1.9,3.1,2.9,4.3c1.8,2.2,3.7,4.2,6.4,5c1.6,0.5,3.4,0.8,5.1,0.5
		c2.8-0.4,5.2-2.7,6.7-5C380.2,143.2,381.2,141.7,382.1,140z"/>
	<path class="st5" d="M383.8,116.6c-2.3-1.2-6.2,4-7.1,5.6c-1.2,2.3-1.9,4.9-2.4,7.5c-1.6,7.7-1.9,15.3-2.5,23c0,0.2,0,0.4,0.1,0.5
		c0.1,0.1,0.3,0.1,0.4,0c1.1-0.3,2.2-0.6,3.3-1c-0.2,0.6-0.3,1.2-0.5,1.8c1.5-0.1,2.9-0.8,4-1.9c-0.2,0.6-0.2,1.2-0.2,1.9
		c1-0.2,1.9-0.7,2.6-1.5c-0.1,0.6,0,1.2,0.3,1.7c0.9-0.6,1.7-1.5,2.3-2.5c0.2,0.7,0.4,1.5,0.6,2.2c0.6-2,1.1-4.3,1.5-6.7
		c0-0.3,0.2-0.7,0.3-1c1.7-5.8,2.4-12,1.5-18.1c-0.3-2-0.7-3.9-1.4-5.7c-0.6-1.6-1.3-4.1-2.4-5.4C384.2,116.8,384,116.7,383.8,116.6
		z"/>
	<path class="st5" d="M367.2,141.5c0.8-1,1.4-2.2,2-3.3c0.5,1.2,0.9,2.5,1.2,3.8c0.7-1.3,1.3-2.6,2-3.9c0.5,1.3,1.1,2.4,1.8,3.5
		c0.1,0.1,0.2,0.3,0.3,0.3c0.2,0,0.4-0.2,0.5-0.4c0.8-1.6,1.7-3.3,1.5-5.1c-0.1-1.4-0.8-2.6-1.8-3.3c-0.7-0.5-1.6-0.6-2.4-0.7
		c-1.6-0.1-3.3,0-4.9,0.3c-1.9,0.4-3.9,1.2-5,3c-0.8,1.4-1.1,3.9,0.5,4.7c1.4,0.7,2.6-1,3.4-2.1C366.8,139.2,367,140.4,367.2,141.5z
		"/>
	<path class="st5" d="M357.2,116.6c2.3-1.2,6.2,4,7.1,5.6c1.2,2.3,1.9,4.9,2.4,7.5c1.6,7.7,1.9,15.3,2.5,23c0,0.2,0,0.4-0.1,0.5
		c-0.1,0.1-0.3,0.1-0.4,0c-1.1-0.3-2.2-0.6-3.3-1c0.2,0.6,0.3,1.2,0.5,1.8c-1.5-0.1-2.9-0.8-4-1.9c0.2,0.6,0.2,1.2,0.2,1.9
		c-1-0.2-1.9-0.7-2.6-1.5c0.1,0.6,0,1.2-0.3,1.7c-0.9-0.6-1.7-1.5-2.3-2.5c-0.2,0.7-0.4,1.5-0.6,2.2c-0.6-2-1.1-4.3-1.5-6.7
		c0-0.3-0.2-0.7-0.3-1c-1.7-5.8-2.4-12-1.5-18.1c0.3-2,0.7-3.9,1.4-5.7c0.6-1.6,1.3-4.1,2.4-5.4C356.9,116.8,357,116.7,357.2,116.6z
		"/>
	<g>
		<path class="st19" d="M354.8,110c-0.8,1.9-0.9,5.3,0,7.2c0.8,1.8,2.3,3.4,3.6,4.5c3,2.5,6.8,3.6,10.4,3.9
			c5.3,0.3,10.8,0.3,15.1-3.8c2.2-2,4-4.1,4.4-7.5c1-9-6-11-12-12.3c-5.6-1.2-14.3-2.1-18.5,3.7C356.8,106.8,355.4,108.5,354.8,110z
			"/>
	</g>
	<path class="st5" d="M391.7,87.7c-0.2-1.2-0.7-2.4-1.4-3.5c-2.2-3.3-4.9-6.4-8.8-8.3c-3.7-1.8-8.4-1.9-12.6-1.5
		c-2.6,0.2-5.1,0.6-7.2,1.8c-2.3,1.3-4.5,2.6-6.4,4.3c-5.9,5.1-5.8,12.4-4.8,19.4c0.9,6.4,3.8,13.5,11.3,17c2.6,1.4,5.7,2.1,9.4,2
		c3.6,0.1,6.7-0.7,9.4-2c6.6-3.1,9.6-9.1,10.9-14.8c0.7-3.2,0.9-6.3,0.8-9.4C392,91,392,89.3,391.7,87.7z"/>
	<g>
		<path class="st5" d="M403.2,85c-0.4-2.8-8.4-6.9-12.7-7.9c-7.9-1.9-21.6,2.6-13.6,11.7c0.6,0.6,1.2,1.1,1.8,1.5c0,0.4,0,0.8,0,1.2
			c0.3,4.9,5.1,6.8,8.7,8.8c6.2,3.5,7.8,7.2,11.5,13.1c1.8-3.1,2-6.5,0.6-10.4c2.1,1.4,3,2.4,4.1,4c0.3-3.3,0.3-6.7-1.6-9.8
			c0.5,0,2.6,1.8,3.9,4.2c1.4-2.5-1.7-8.8-4.7-12.6c1.3,0.2,2.3,0.6,3.6,1.1c-1.6-2.6-3.6-5-6.9-6.5C398.3,83.3,400.9,83.7,403.2,85
			z"/>
		<path class="st5" d="M338.7,85.8c0.2-2.8,7.8-7.6,12-9c7.7-2.6,21.8,0.8,14.5,10.5c-0.5,0.7-1.1,1.2-1.7,1.7
			c0,0.4,0.1,0.8,0.1,1.2c0.1,4.9-4.5,7.2-8,9.6c-5.9,4-7.2,7.8-10.4,14.1c-2-2.9-2.5-6.3-1.4-10.3c-2,1.6-2.8,2.6-3.7,4.4
			c-0.6-3.3-0.8-6.6,0.8-9.9c-0.5,0-2.4,2-3.5,4.5c-1.6-2.4,1-8.9,3.6-12.9c-1.3,0.3-2.2,0.8-3.5,1.4c1.4-2.7,3.2-5.3,6.3-7.1
			C343.5,83.7,340.9,84.4,338.7,85.8z"/>
	</g>
	<g>
		<g>
			<path d="M377.8,73.7c0,2-3.1,4.7-7,4.7c-3.9,0-7-2.7-7-4.7c0-2,3.1-2.8,7-2.8C374.6,70.9,377.8,71.7,377.8,73.7z"/>
		</g>
		<path class="st5" d="M371,72.2c0.2,0.7-0.9,1.6-2.5,2.1c-1.6,0.5-3,0.3-3.2-0.4c-0.2-0.7,0.9-1.6,2.5-2.1
			C369.3,71.4,370.8,71.6,371,72.2z"/>
		<g>
			<path class="st20" d="M378.5,81.3c-1.4,0.5-2.6,1.6-4.1,2.1c-1,0.4-2.1,0.3-3-0.3V83c0,0,0,0-0.1,0c0,0,0,0-0.1,0v0.1
				c-0.9,0.6-2,0.7-3,0.3c-1.4-0.5-2.6-1.6-4.1-2.1c-0.3,3.2-0.3,6.3,0,9.5c0.1,1.8,0.4,3.7,1.4,5c1.5,1.9,3.8,2.7,5.8,2.7
				c2,0,4.3-0.7,5.8-2.7c1-1.3,1.3-3.2,1.4-5C378.8,87.7,378.8,84.5,378.5,81.3z"/>
			<g>
				<g>
					<path class="st14" d="M371.3,83.2c0.4,0,0.7-0.3,0.7-0.7V76c0-0.4-0.3-0.7-0.7-0.7c-0.4,0-0.7,0.3-0.7,0.7v6.4
						C370.6,82.9,370.9,83.2,371.3,83.2z"/>
				</g>
				<path class="st14" d="M363,79.3c0.3-0.3,0.8-0.1,1,0.3c0.6,1.2,2.5,2.5,3.5,2.7c1.4,0.4,2.6-0.1,3.7-0.9v-0.1c0,0,0,0,0.1,0
					c0,0,0,0,0.1,0v0.1c1.2,0.8,2.3,1.3,3.7,0.9c1-0.2,3-1.5,3.5-2.7c0.2-0.4,0.6-0.6,1-0.3c0.3,0.3,0.4,0.8,0.2,1.2
					c-0.9,1.9-3.3,3.3-4.5,3.6c-0.4,0.1-0.9,0.2-1.2,0.2c-1.1,0-2-0.4-2.8-0.9c-0.8,0.5-1.7,0.9-2.8,0.9c-0.4,0-0.8,0-1.2-0.2
					c-1.1-0.3-3.6-1.7-4.5-3.6C362.6,80.1,362.7,79.6,363,79.3z"/>
			</g>
		</g>
	</g>
</g>
<g>
	<path class="st21" d="M687.3,132.1c0-1.2-0.3-3.7-2-2.7c-0.6,0.4-0.8,1.1-1.6,1.3c-1,0.2-2.8-0.3-3.8-0.7c-1.6-0.6-3.1-1.9-4.5-2.9
		c-0.9,1.5-0.3,5.1,0.6,6.7c0.5,0.9,1,1.7,1.9,2.3c0.6,0.4,1.2,0.7,1.9,1c1,0.4,1.8,0.2,2.8,0.2c0.9,0.1,1.5,0.1,2.2-0.5
		C686.3,135.9,687.3,134,687.3,132.1z"/>
	<path class="st0" d="M748.1,150.8c0,5-15.3,9-34.2,9c-18.9,0-34.2-4-34.2-9c0-5,15.3-9,34.2-9C732.8,141.8,748.1,145.9,748.1,150.8
		z"/>
	<path class="st21" d="M701.3,145.1c-4.2,0.2-7.4-4.5-8.2-8.6c-0.7-3.8-0.7-8.3,2.2-11.2c2.6-2.7,5.2-5.4,9-6.2
		c2.6-0.5,5.2-0.5,7.6,0.4c3.7,1.3,6.6,3.9,7.3,7.9c0.7,4.6-1.1,8.5-3.1,12.5c-0.9,1.8-1.8,2.7-0.4,4.3c1.2,1.4,3.6,1.4,3.7,3.9
		c-2.6,0.9-9.7,1.7-12.3,0.6c-3.6-1.5,1.2-6.8,2.1-9.3c-0.2,1.6-3.5,4-4.8,4.8C703.3,144.8,702.3,145.1,701.3,145.1z"/>
	<g>
		<polygon class="st21" points="734.8,148.3 726.7,148.1 726.6,117.8 734.6,118 		"/>
		<path class="st22" d="M726.5,148.3c0,2.4,2.9,4.3,6.4,4.3c3.5,0,6.2-2,6.2-4.4c0-2.4-2.9-4.3-6.4-4.3
			C729.3,143.9,726.5,145.9,726.5,148.3z"/>
	</g>
	<g>
		<g>
			<path class="st23" d="M701.2,133.4c-0.1,4.7,3.3,8.6,7.6,8.7c4.3,0.1,7.9-3.6,8-8.3c0.1-4.7-3.3-8.6-7.6-8.7
				C704.9,125,701.3,128.7,701.2,133.4z"/>
		</g>
		<g>
			<path class="st24" d="M711.9,129.1c6.2-3.9,12.4-6.8,18.1-8.5c-0.1-1.1-0.3-2.3-0.6-3.5c-1.4-5-3.3-8.8-6.9-12.7
				c-5.7-6.3-15.4-5.2-21.4,0.2c-2.8,2.5-4.7,4.9-6.2,8.2c-1.5,3.3-2.3,6.3-5.1,8.8c-2.8,2.4-6.3,5.5-8,9.1c-2,4.2-1.1,7.7,1.2,10.6
				c2.2,2.7,5.6,4.8,9,6.1C696,141.3,703.1,134.7,711.9,129.1z"/>
			<path class="st22" d="M703.3,147c3.9-2.2,8.6-3.4,12.2-6.1c3.2-2.4,6.6-5.2,9.5-8.2c3.5-3.7,5.3-7.5,5-12.1
				c-5.7,1.7-11.9,4.6-18.1,8.5c-8.9,5.6-15.9,12.2-20,18.3c1.1,0.4,2.2,0.8,3.3,1C698.5,149.3,700.5,148.5,703.3,147z"/>
		</g>
	</g>
	<g>
		<g>
			<g>
				
					<rect x="703.4" y="132.2" transform="matrix(5.994482e-03 -1 1 5.994482e-03 577.984 853.9117)" class="st24" width="30.2" height="8.1"/>
			</g>
			<g>
				<path class="st11" d="M713.7,152.1c0.1,2.4,2.9,4.3,6.4,4.2c3.5-0.1,6.2-2.1,6.2-4.5c-0.1-2.4-2.9-4.3-6.4-4.2
					C716.5,147.7,713.7,149.7,713.7,152.1z"/>
			</g>
		</g>
	</g>
	<path class="st25" d="M704.3,100.4l3.7-0.6c-0.6,1.9-1,3.4-1,5.5c0,5.8,1.5,12.1,5.9,15.8c2.5,2.1,5.3,3.8,8.7,3.8
		c2.8,0,5.5-0.3,8,1.3c2.3,1.5,1.6,3-0.9,3.5c-3.1,0.7-6.8,0.3-9.8-0.4c-3-0.7-6-1.9-8.6-3.7c-5.2-3.6-8-9.3-8.4-15.7
		C701.6,106.5,702.7,103.2,704.3,100.4z"/>
	<path class="st24" d="M691.5,151.9c-4.2,0.3-7.5-4.4-8.4-8.5c-0.8-3.8-0.8-8.3,2.1-11.3c2.6-2.7,5.1-5.5,9-6.3
		c2.6-0.6,5.2-0.5,7.6,0.3c3.7,1.3,6.7,3.8,7.3,7.9c0.5,3.2-0.2,6.2-1.4,9.2c-1,2.4-3,4.6-3.7,7.1c1.8-0.2,4.3-0.1,5,2
		c1.6,4.6-10,3.9-11.8,3.1c-3.6-1.5-0.6-3.8,0.4-6.5C695.6,152.3,692.5,151.9,691.5,151.9z"/>
	<g>
		<path class="st24" d="M742.1,75.3c1.8-1.8,7.7-9.1,10.8-7.2c1.6,1,0.6,4.3,0.8,6.1c0.7,5.3,0.9,8.2-1.5,11.2
			c-0.8,1.1-2,2.1-3.5,3.3c-0.8,0.6-1.5,0.9-2.1,1c-1.6,0.3-3-0.7-5.1-0.7c-2.2,0-3.6,0.2-4.7-1.7c-0.2-0.3-0.3-0.6-0.4-0.9
			C734.4,81.3,739.1,78.3,742.1,75.3z"/>
		<g>
			<path class="st11" d="M726.2,116.3c1.8-2.4,4.3-3.9,6.6-5.8c2.6-2.1,3.3-5.1,3-8.4c-0.3-2.6-1.4-6.4-2.5-8.8
				c-1.2-2.7-3.3-4.6-5.6-6.3c-1-0.7-2.3-2-3.4-2.4c-0.8-0.3-2.2-0.2-3.5-0.2c0,0,0.1,0,0.1,0c1.9-0.5,3.9-0.4,6-0.1
				c2.6,0.4,3.4,0.4,5.5-0.5c0.3-0.1,0.6-0.2,0.9-0.3c0,0,0.1,0,0.1,0c0.3-0.1,0.6-0.2,0.8-0.2c0,0,0,0,0,0c0.6-0.1,1.2-0.3,1.9-0.3
				c0,0,0,0,0,0c0.2,0.1,0.3,0.2,0.5,0.4c2.5,2.1,4.1,4.1,5.4,7.3c0.6,1.5,1,2.9,1.1,4.5c0.1,1.5-0.2,3.1,0.5,4.4
				c2.5,4.5,8.9,3.6,12.8,5.8c0,0,0,0,0,0c0.1,0.3,0.2,0.5,0.3,0.8c0,0,0,0,0,0.1c0.1,0.3,0.2,0.5,0.2,0.8c0,0.1,0,0.2,0.1,0.3
				c0,0.2,0.1,0.4,0.1,0.6c0.1,0.3,0.1,0.7,0.1,1c0.4,5.7,0.4,11.3-5.3,14.5c-0.9,1-2.3,1.6-3.9,2.4c-6.5,3.4-14.5,2.8-21.4,2.2
				c-0.4,0-0.8-0.1-1.1-0.1c-0.2,0-0.4-0.1-0.7-0.1c-0.2,0-0.3,0-0.5-0.1c-0.3-0.1-0.6-0.1-0.9-0.2c-0.1,0-0.2,0-0.2,0
				c-0.4-0.1-0.7-0.2-1.1-0.2c0,0-0.1,0-0.1,0c-0.4-0.1-0.8-0.2-1.1-0.3c0,0,0,0,0,0c-1.2-0.3-2.3-0.7-3.5-1.2c0,0,0,0,0,0
				c1.2-0.5,2.4-0.9,3.2-1.5C723.3,122.3,724.3,119,726.2,116.3z"/>
			<path class="st24" d="M706.4,100.8c0.3-2.5,0.3-4.9,1.3-6.8c3-6,7.7-8,13.2-9.4c1.3,0.1,2.7,0,3.5,0.2c1.2,0.4,2.4,1.7,3.4,2.4
				c2.3,1.7,4.3,3.6,5.6,6.3c1.1,2.4,2.2,6.2,2.5,8.8c0.4,3.3-0.3,6.3-3,8.4c-2.3,1.8-4.9,3.3-6.6,5.8c-2,2.7-2.9,6-5.7,8
				c-0.8,0.6-2,1-3.2,1.5c-3.4-1.5-6.5-3.7-8.5-6.8C705.9,114.4,705.5,107.1,706.4,100.8z"/>
			<path class="st24" d="M743.6,99.6c-0.7-1.3-0.4-3-0.5-4.4c-0.1-1.6-0.5-3-1.1-4.5c-1.2-3.2-2.8-5.2-5.4-7.3
				c-0.1-0.1-0.3-0.2-0.5-0.4c3.8-0.4,7.8,0.5,11.1,2.1c3.1,1.5,7.9,4.4,8.4,8.6c0.2,0.4,0.3,0.9,0.3,1.3c0.2,2.5-0.6,4.9-2,6.6
				c1,1.1,1.8,2.4,2.4,3.8C752.5,103.1,746.1,104.1,743.6,99.6z"/>
		</g>
		<g>
			<path class="st5" d="M716.3,101.5c-0.1,4.4,2.1,7.9,9,8c3.6,0.1,6.9-2.9,7.3-7.3c0.4-4.4-2.1-8.3-5.7-8.6
				C723.3,93.2,716.4,96.2,716.3,101.5z"/>
			<path class="st14" d="M721.5,101.3c-0.3,2.9,1.6,5.4,4.2,5.7c2.6,0.3,5-1.9,5.2-4.7c0.3-2.9-1.6-5.4-4.2-5.7
				C724.1,96.3,721.8,98.4,721.5,101.3z"/>
			<path class="st11" d="M726,101.2c-0.6,1.3-1.7,2.2-2.4,1.8c-0.7-0.3-0.9-1.7-0.3-3c0.6-1.3,1.7-2.2,2.4-1.8
				C726.5,98.5,726.6,99.8,726,101.2z"/>
		</g>
		<g>
			<path class="st5" d="M744,96.1c-0.3,3.1,1.8,5.9,4.8,6.2c3,0.3,5.6-2,6-5.1c0.3-3.1-1.8-5.9-4.8-6.2
				C747,90.6,744.3,92.9,744,96.1z"/>
			<path class="st14" d="M746.7,96.7c-0.2,2.2,1.2,4.2,3.2,4.4c2,0.2,3.8-1.5,4-3.7c0.2-2.2-1.2-4.2-3.2-4.4
				C748.8,92.9,747,94.5,746.7,96.7z"/>
			<path class="st11" d="M749.8,96.5c-0.4,1-1.2,1.6-1.8,1.4c-0.5-0.2-0.6-1.2-0.1-2.3c0.4-1,1.2-1.6,1.8-1.4
				C750.2,94.5,750.3,95.5,749.8,96.5z"/>
		</g>
		<path class="st24" d="M713.1,75.7c1.5-2.5,6.1-12.1,10-10.7c2,0.7,1.7,4.8,2.3,6.7c2,5.9,2.8,9.1,1,13.1c-0.7,1.4-1.6,2.9-3,4.6
			c-0.7,0.9-1.4,1.3-2,1.6c-1.7,0.7-3.4-0.1-5.6,0.3c-2.3,0.5-3.8,1.1-5.4-0.9c-0.2-0.3-0.5-0.6-0.7-1
			C706.3,84.4,710.7,79.8,713.1,75.7z"/>
		<path class="st21" d="M725.5,84.6c0.6-4.4-0.3-8.3-1.7-12.5c-0.2-0.5-0.2-1.4-0.6-1.8c-0.7-0.6-0.5-0.2-1.3-0.2
			c-1.1-0.1-1.4-0.4-2.1,0.9c-1.2,2.1-1.9,4.4-3.5,6.2c-2,2.3-3.9,5.3-4.4,8.4c-0.2,1.5,0.1,3.1,0.8,4.5c1.8,1.8,3.2,1,5.5,0.3
			c2.2-0.7,3.9-0.1,5.5-1C724.8,88.1,725.3,86.4,725.5,84.6z"/>
		<path class="st21" d="M751.5,84c1.2-3.6,0.7-6.3,0.4-10.1c0-0.4,0.5-2,0.3-2.4c-0.4-0.7-0.3-0.2-0.9-0.5c-0.8-0.3-1-0.6-1.7,0.3
			c-1.2,1.5-2.2,3.3-3.7,4.5c-1.8,1.5-3.8,3.6-4.7,6.2c-0.4,1.2-0.4,2.6-0.1,4c1.1,1.9,2.3,1.5,4.1,1.4c1.7-0.1,3,0.7,4.3,0.4
			C750.4,86.7,751,85.4,751.5,84z"/>
		<g>
			<g>
				<path class="st26" d="M746.7,115.8c-0.6-0.3-1.5-0.1-2.1,0.1c-1.4,0.4-2.7,1.2-4.1,1.5c-1.7,0.4-3.4,0.7-5.2,0.7
					c-0.8,0-3.3-1.3-3.2,0.2c0,0.9,0.8,1.8,1.6,2.4c1-1.3,2.6-2.6,4.4-2.5c0.6,0,1,0.3,1.5,0.2c0.6,0,1.3-0.2,2-0.2
					c1.2,0,2.1,0.1,3.1,0.5c0.6-0.6,1.1-1.2,1.8-1.8C746.7,116.4,747.5,116.3,746.7,115.8z"/>
				<path class="st20" d="M734.4,121.2c-0.3-0.1-0.6-0.3-0.9-0.6c-0.2,0.2-0.3,0.4-0.4,0.6c-1.1,1.8-1,3.9-1.8,5.8
					c-0.6,1.3-0.7,3.3,1.1,4c1.4,0.6,3.3,0.4,4.6-0.1c0.7-0.3,1.3-0.6,1.8-1.1c0.6-0.6,0.8-1.3,1-2c0.2-0.7,0.2-1.2,0.5-2
					c0.3-0.9,0.3-1.5,0.6-2.4c0.2-0.8,0.2-1.8,0.6-2.5c0-0.1,0.1-0.1,0.1-0.2c0.1-0.2,0.3-0.4,0.5-0.6c-1.1,0.4-2.3,0.8-3.5,1.2
					C737.2,121.8,735.7,121.8,734.4,121.2z"/>
				<path class="st20" d="M739.4,118.4c-0.5,0-0.9-0.2-1.5-0.2c-1.8,0-3.4,1.3-4.4,2.5c0.3,0.3,0.7,0.5,0.9,0.6
					c1.3,0.6,2.8,0.6,4.1,0.2c1.1-0.3,2.3-0.7,3.5-1.2c0.3-0.3,0.6-0.5,1-0.7c0.1-0.1,0.5-0.3,1-0.4c0.2-0.1,0.3-0.3,0.5-0.4
					c-1-0.4-1.8-0.5-3.1-0.5C740.7,118.1,740.1,118.4,739.4,118.4z"/>
			</g>
			<path class="st14" d="M739.8,104.8c0.2,2.2,3,3.7,6.4,3.4c3.3-0.3,5.9-2.3,5.7-4.5c-0.2-2.2-3-3.7-6.4-3.4
				C742.2,100.6,739.6,102.6,739.8,104.8z"/>
			<path class="st11" d="M744.3,104.4c-1.3,0.5-2.7,0.4-2.9-0.4c-0.3-0.7,0.6-1.7,2-2.2s2.7-0.4,2.9,0.4S745.6,103.8,744.3,104.4z"
				/>
			<g>
				<path class="st14" d="M746.3,115.9c0.3,0,0.5-0.2,0.7-0.5c1.8-4.6,0.2-8,0.1-8.1c-0.2-0.4-0.6-0.5-0.9-0.1
					c-0.3,0.3-0.4,1-0.2,1.4c0.1,0.1,1.2,2.6-0.1,6c-0.2,0.5-0.1,1.1,0.2,1.3C746.2,115.8,746.2,115.9,746.3,115.9z"/>
				<path class="st14" d="M733.5,118.8c4.3,1,11.4-2,13.1-2.8c3.2,2.1,5.4,2.7,6.9,1.8c1-0.6,1.3-1.8,1.3-2.4c0-0.4-0.3-0.8-0.7-0.8
					c-0.4,0-0.7,0.4-0.7,0.8c0,0,0,0.7-0.6,1c-0.4,0.3-1.9,0.6-5.7-2c-0.2-0.1-0.4-0.1-0.6,0c-2.8,1.3-10.8,4.4-13.7,2.3
					c-0.7-0.5-1.1-1.3-1.1-2.4c0-0.4-0.3-0.7-0.7-0.7c-0.4,0-0.7,0.4-0.7,0.8c0,1.6,0.6,2.8,1.7,3.6
					C732.4,118.4,733,118.7,733.5,118.8z"/>
			</g>
		</g>
	</g>
</g>
<g>
	<path class="st27" d="M543.2,138.2c-0.6,0.5-1.1,1-1.7,1.6c-4.7,4.5-11.6,8.4-18.1,5.4c-8.5-3.9-3.4-12.2,1.3-16.9
		c2.5-2.4,6.2-3.8,8.4-6.5c0.5-0.7,2.7-6.1,2.3-5.8c-1.1,0.8-3.1,0.9-4.2,1.6c0.4-1.3,0.1-3.1,0.5-4.4c-2.6,0.8-4.2,2.9-5.9,4.9
		c-0.3-0.1-0.5-0.2-0.8-0.3c0.2-1.5-0.7-3-0.7-4.4c0,1.2-4.4,6-5.2,7.4c-0.3-1.6-1.5-3.7-1.8-5.2c-1.1,0.9-2.5,2-3.3,3.2
		c-0.6-3.2,0.9-7.3,3-10c-2.2,0.9-4.6,2-6.9,2.3c3.2-4.7,6.7-8.8,12-11.1c-1-0.2-3.1-1.1-4.2-1.1c3.8-2.2,8.5-2.4,12.3-4.5
		c-0.7-0.6-1.2-1.8-2-2.4c2.4-1.4,13.5-0.8,14.2,2.3c-0.4-1.7-0.3-3.5-1.3-5.1c3.6,2.8,6.7,6.1,8.5,10.8c0.5-1.7,1.6-3.7,2.7-4.9
		c1,3.9,3.2,8.3,2.4,12.7c0.7-1.7,2.1-3.2,3.2-4.3c0.7,3.3-0.1,8.9-1.7,10.8c1.2-1,2.5-1.6,3.9-2.4c-1,2.9-3.3,7-4.5,8.3
		c0.7-0.3,1.6-0.5,2.2-0.8c-1.5,3.2-4.7,6.7-7.1,9.4c1.9-1.3,3.3-1.1,5-1.1C551.3,131.3,547.3,134.4,543.2,138.2z"/>
	<path class="st27" d="M427,138.7c-0.3-0.5-0.5-1.2-0.6-1.9c0-0.1,0-0.1,0-0.2c0-0.1,0-0.2,0-0.2c0-0.1,0-0.1,0-0.2
		c0-0.1,0-0.2,0-0.2c0-0.1,0-0.1,0-0.2c0-0.1,0-0.1,0.1-0.2c1.1-3.3,8.5-4.3,11.3-4.7c-0.1-0.3-0.5-0.7-1-0.8c1-1.2,4.2-0.8,5.7-1.3
		c-0.3-0.4-0.9-0.7-1.3-0.9c0.8-0.7,1.7-0.9,2.7-1c0.7-0.1,1.5-0.1,2.2-0.2c1.7-0.1,3.4-0.9,5.2-1c4.3-0.2,10.7,2.7,12.8,7
		c3,6.3-2.9,10.7-8.2,10.8c-2.5,0-4.9,0.6-7.3,0.7c-1,0-2.4,0.2-3.4-0.1c0.2-0.1,0.4-0.6,0.6-0.7c-1.4-0.1-3.7-0.5-4.8-1.4
		c0.6-0.2,1.2-0.2,1.7-0.4c-0.9,0.4-3.7-2.3-4.8-2.5c-1.9-0.4-3.5,0.1-5.1,1C430.6,141.4,428.1,140.8,427,138.7z"/>
	<path class="st0" d="M569.3,151.4c0,11.6-32.8,21-73.2,21c-40.4,0-73.2-9.4-73.2-21c0-11.6,32.8-21,73.2-21
		C536.5,130.4,569.3,139.8,569.3,151.4z"/>
	<path class="st27" d="M567.6,143.6c0.3-0.5,0.5-1.2,0.6-1.9c0-0.1,0-0.1,0-0.2c0-0.1,0-0.2,0-0.2c0-0.1,0-0.1,0-0.2
		c0-0.1,0-0.2,0-0.2c0-0.1,0-0.1,0-0.2c0-0.1,0-0.1-0.1-0.2c-1.1-3.3-8.5-4.3-11.3-4.7c0.1-0.3,0.5-0.6,1-0.8
		c-1-1.2-4.2-0.8-5.7-1.3c0.3-0.4,0.9-0.7,1.3-0.9c-0.8-0.7-1.7-0.9-2.7-1c-0.7-0.1-1.5-0.1-2.2-0.2c-1.7-0.1-3.4-0.9-5.2-1
		c-4.3-0.2-10.7,2.7-12.8,7c-3,6.3,2.9,10.7,8.2,10.8c2.5,0,4.9,0.6,7.3,0.7c1,0.1,2.4,0.2,3.4-0.1c-0.2-0.1-0.4-0.6-0.6-0.7
		c1.4-0.1,3.7-0.5,4.8-1.4c-0.6-0.2-1.2-0.2-1.7-0.4c0.9,0.4,3.7-2.3,4.8-2.5c1.9-0.4,3.5,0.1,5.1,1
		C563.9,146.3,566.4,145.7,567.6,143.6z"/>
	<path class="st28" d="M461.9,147.8c-0.8-0.2-2.2-0.2-3.3-0.5c-0.7-0.2-1.3-0.6-1.5-1.2c-0.6-1.5,1.4-3.5,1.5-5.2
		c0.1-2.3-0.3-4.2-2-5.6c-3.5-2.9-10.8-2-14.4,0.2c-3.8,2.4-11.4,12.3-6.5,16.9c0.4-0.6,1.4-1.1,1.8-1.8c1.2,2.9,0.7,7.4,3.4,9.7
		c0-0.6,0.3-1.2,0.4-1.7c-0.7,5.2,17.3,5.6,20.1,3.3c-1.1-0.1-2.4-0.6-3.2-1.1C462.7,163.1,472.6,150.2,461.9,147.8z"/>
	<g>
		<g>
			<path class="st29" d="M437.3,127.7c1.8,3.9,3.6,6.6,6.8,8.9c3.9,2.8,6.9,6.7,10.6,9.7c8.5,6.9,18.4,10.2,28.8,11.6
				c7.7,1.1,15.7,2.1,23.5,0.7c3.5-0.6,6.8-2.1,10.4-2.7c2.8-0.4,5-1,7.5-2.7c4.8-3.3,7.6-8.4,11.5-12.6c3.3-3.6,6-7.3,5.3-12.8
				c-0.8-6.5-1.2-13-4.5-18.7c-3.4-5.7-8.9-10.7-14-14.6c-6.6-5.1-15.1-8.9-23-10.7c-15.8-3.6-35.4-5.1-50.6,2.5
				C435.3,93.6,430.4,112.4,437.3,127.7z"/>
			<g>
				<path class="st30" d="M479.3,123.3c23.4,0,43.2,11.1,49.8,26.4c-1.3,1.4-2.8,2.6-4.3,3.7c-2.5,1.7-4.7,2.2-7.5,2.7
					c-3.5,0.5-6.8,2-10.4,2.7c-7.8,1.4-15.7,0.3-23.5-0.7c-10.3-1.4-20.3-4.7-28.8-11.6c-3.7-3-6.7-7-10.6-9.7
					c-0.8-0.6-1.6-1.2-2.2-1.9C451.4,127.7,464.6,123.3,479.3,123.3z"/>
			</g>
		</g>
	</g>
	<path class="st29" d="M539.4,162c3.3-2.5,6-6,7.2-9.7c0.2,0.5,0.9,1.5,1,2.1c4.7-9.8-2-30.1-13-33.2c-7.1-2-15.9,3.9-11.9,13
		c1.2,2.8,3,3.3,1.1,6.5c-1.2,2-3.3,3.3-5.2,4.4c-4.2,2.3-8.9,3.2-13.4,4.5c-4.1,1.2-8,1.9-9.5,7.2c-1.4,4.8-0.1,10.4,4.6,12.1
		c4.6,1.7,10.4-1.9,14.9-2.7c2.1-0.4,15.2-1.5,16-3.3c-0.4,0.9-1.3,2.1-2.2,2.9C532.7,165.8,536.3,164.3,539.4,162z"/>
	<path class="st31" d="M537.1,121.6c-0.8-4.6-6.2-10.1-9.2-13.5c-1.6-1.8-2.8-3.4-4.1-5.5c-1.5-2.6-1.5-5.6-4.2-7.1
		c-2.4-1.3-6.6-1.9-9.3-2.4c-7.1-1.3-14.4-0.9-21.6-1.7c-1.4-0.1-2.8-0.3-4.2-0.4l0-0.1c-0.1,0-0.3,0-0.4,0c-0.1,0-0.3,0-0.4,0
		l0,0.1c-1.4,0.1-2.8,0.2-4.2,0.3c-8.5,0.7-18.1-0.2-26.3,2.2c-4.2,1.2-8.3,2.3-12.4,3.8c-1.5,0.5-3,0.9-4.3,1.7
		c-1,0.7-3.1,4.2-4.1,4.3c1.1-0.1,2.2-0.5,3.2-0.8c-2.1,0.5-6.3,10.2-4.9,11.5c0.7-0.3,1.5-0.8,2.3-1c0.1,2.4-2.2,4.8-2.7,7.3
		c-0.6,2.9-1.1,6.1-0.9,9c1.1-0.4,1.9-1.6,3.2-1.8c0.3,4.9,0.8,10.2,4.3,14.2c0.5-0.9,0.8-1.9,1.5-2.7c0,2.7,1.3,5.4,2.4,8
		c0.6,1.4,1.9,5.1,3.4,5.7c0.1-1,0.3-2,0.7-2.9c-0.6,1.4,4.9,5,5.7,5.9c2,2.3,3.9,4.7,6.5,6.3c0.1-1.3-0.1-2.8,0.7-3.8
		c1.2,1.6,4.9,4.9,6.8,5.1c0.2-1.1,0.4-2.3,0.6-3.4c1.9,1.7,3.8,3.4,6,4.5c0.3-1.5,0.7-3.1,1.4-4.4c0.2-0.4,6,4.1,6.3,5.2
		c0.4-1.2,0.8-2.7,1.5-3.6c1.3,1.6,1,3.9,2.5,5.4c1.2-2,2.2-4.2,3.7-6c-0.1,1.7,0.6,3.3,0.7,5c1.9-2.5,5.2-4.8,8-6.2
		c0.2,1.3,0,2.7-0.5,3.9c3.3-0.8,7-3.4,9.7-5.5c0.1,1.5-0.1,3-0.2,4.4c2.4-0.3,5.3-3.3,7.4-4.6c0,1.4-0.9,2.5-0.7,3.9
		c1.6-0.9,12.1-9,11.2-11.3c0.4,0.9,0.5,1.9,0.6,3c1.5-0.5,2.9-4.2,3.5-5.6c1.2-2.5,2.5-5.2,2.6-7.9c0.7,0.8,1,1.8,1.5,2.8
		c3.5-3.9,4.2-9.2,4.6-14.1c1.2,0.3,2.1,1.4,3.1,1.9C538.1,127.6,537.6,124.4,537.1,121.6z"/>
	<g>
		<path class="st28" d="M534.5,113.1c0.9,0,1.7,0.2,2.3,0.8c-1-4.8-4.9-9.5-4-14.3c0,0.2,1.2,1.1,1.4,1.3c-1.3-3.3-0.8-7.1-1.9-10.6
			c0.4,0.2,1,0.2,1.4,0.4c0-4.2-1.7-8.3-4.9-10.7c0.9-0.2,3.8-0.6,5.2-0.4c-2.6-4-15.8-13.4-20.2-13.7c1-1,3-1.4,4-1.9
			c-1.7-0.9-11.1-4.1-12.6-2.3c0.9-1.1,2.4-1.8,3.1-3.1c-1.9-0.3-4.5,0.6-6.5,0.8c-1.9,0.2-3.8,0.4-5.3,1.4c0.6-1.1,1.5-2,2.3-3
			c-3.5-0.5-8.4,1.5-11.4,3.2c-1.3-2.9-6-4.2-9-4.3c0.8,1,1.2,2.3,1.7,3.4c-2.1-0.6-3.7-2.1-5.6-3.1c-0.7-0.3-7.1-1.9-7.1-1.9
			c0.5,2.1,2.2,4.1,3.6,6c-3.2-2.7-7.3-1.5-11-1.4c-3.4,0.1-6.5-1.2-9.3,0.7c0.6-0.4,3.7,1.4,4.2,1.8c-4.9,4-10,5.4-11.9,12
			c-1.7,6.1-6.1,11.5-6.8,17.8c0.4-0.1,0.7-0.3,1.1-0.5c0,2.9-1.2,5.7-2.2,8.4c-0.8,2.4-1.1,4.9-1.6,7.5c-0.2,1-1.4,3.4-0.8,4.1
			c0.9-0.8,1.7-2.5,2.7-2.9c-1.3,0.4,2.6,13.9,3,15.1c0.5,1.5,0.9,3.4,1.7,4.8c1.6-0.9,1.5-2,2.4,0.3c0.6,1.6,1.6,3.9,2.9,5
			c0.1-1.4,0.8-3.1,1.6-4.1c0.3,1.4,1.5,2.2,2.2,3.3c0.3,0.3,2.9,3.3,2.9,3.3c0.1-0.7,0.6-1.5,0.6-2.3c0.8,1.7,2.3,1.6,3.3,2.9
			c1.3,1.6,1.5,4.1,3.1,5.5c0.3-0.9,1-1.7,1.3-2.5c0.5,2.8,3.3,8.4,6.3,8.8c0.4-1.1,0.7-2.2,1.1-3.3c2.1,1.3,4.4,4.7,6.1,6.8
			c0.2-1.1,0.9-1.9,1.7-2.7c0.8,1.5,2,3.7,3.8,3.2c1.6-0.4,1.2-2.8,3.5-2.5c-0.2,6.6,6.9,0.1,9.5,0.1c0,0.7,0.4,1.3,0.3,2
			c2-0.5,3-1.9,4.4-3.1c1.7-1.4,1.7-1.1,3.6-1.3c2.7-0.2,6.4-1.4,8-3.9c-0.5,0.8-1,1.7-1.4,2.5c3.2-0.8,5.6-4.5,9.1-5.1
			c-0.2,0.9-0.7,1.9-0.7,2.9c3.7-2.2,7.2-5.6,10-9c0.2,1.4-0.1,2.9-0.1,4.4c1.6-1.2,2.1-5.3,2.7-7.2c0.9-2.6,1.2-6.5,2.6-8.7
			c1.1,0.8,1.6,2.6,2.9,2.9C534.7,122.3,533.9,117.7,534.5,113.1z"/>
		<path class="st31" d="M507.7,119c0.4,0,0.7,0.1,1.1,0.1c-0.5-1.4-1.7-3.1-2.7-4.3c-3.6-4.3-7.7-9-13.8-9.6
			c-3.3-0.4-6.7,0.1-10.1-0.3c-4.3-0.6-8.8,0.2-12.8,1.6c-1.7,0.6-3.1,1.4-4.5,2.5c-2.5,1.9-6.5,6.2-6.4,9.6c0.6-0.1,1.3-0.5,2-0.4
			c0.1,1.1-0.6,2-1,3c-0.5,1.4-0.7,2.9-0.9,4.3c-0.3,2.3-0.1,4.2,0.4,6.4c0.2-0.3,0.7-0.6,0.9-0.8c0.9,1.9,1.5,5.6,3.5,6.8
			c0.2-0.5,0.4-1,0.6-1.4c0.8,1.3,2.2,3.6,3.7,4c0.2-0.5,0.3-1,0.7-1.5c-0.5,0.7,3.7,3.6,4.3,4c0.6-0.7,1.1-1.6,1.6-2.4
			c0.9,1.2,1.7,3.5,3.2,4.1c0.2-0.6,0.5-1.6,0.8-2.1c1.1-1.5,4.1,1.6,4.9,2.8c0.9-0.6,1.7-2,2.9-2.2c1.4-0.2,1.2,1,1.8,2
			c1.2-0.6,2.4-1.7,3.4-2.7c0.4,0.9,1.3,1.7,1.4,2.6c0.1,0.8,4.2-2.6,4.5-3c0.9-1,2.6-3.7,3.3-1c0.6-0.6,1.1-1.4,1.5-2.1
			c2.2-3.6,4.6-7.2,5.7-11.2c0.5-1.6,0.6-8.7-1.7-9.2C506.5,118.8,507.1,119,507.7,119z"/>
		<path class="st14" d="M495.9,108c0.1,9.7-25,8.4-24.1-0.9c0.5-5.2,8.7-4.3,12.3-4.4C487.7,102.7,495.8,102.9,495.9,108z"/>
		
			<ellipse transform="matrix(0.9991 -4.311769e-02 4.311769e-02 0.9991 -4.1429 20.778)" class="st5" cx="479.6" cy="106.4" rx="5.4" ry="2.3"/>
		<path class="st31" d="M513.8,65.9c1-1,3-1.4,4-1.9c-1.7-0.9-11.1-4.1-12.6-2.3c0.9-1.1,2.4-1.8,3.1-3.1c-1.9-0.3-4.5,0.6-6.5,0.8
			c-1.9,0.2-3.8,0.4-5.3,1.4c0.6-1.1,1.5-2,2.3-3c-3.5-0.5-8.4,1.5-11.4,3.2c-1.3-2.9-6-4.2-9-4.3c0.8,1,1.2,2.3,1.7,3.4
			c-2.1-0.6-3.7-2.1-5.6-3.1c-0.7-0.3-7.1-1.9-7.1-1.9c0.5,2.1,2.2,4.1,3.6,6c-3.2-2.7-7.3-1.5-11-1.4c-3.4,0.1-6.5-1.2-9.3,0.7
			c0.6-0.4,3.7,1.4,4.2,1.8c-3.5,2.9-7,4.4-9.5,7.4c0.3-0.2,0.7-0.3,1-0.4c2.8-0.8,6-0.3,8.8-1.4c-0.8,0.3-1.2,0.9-1.7,1.2
			c4,0.1,8.1-1.6,12.1-1.2c-0.5,0.4-0.9,1.4-1.2,1.8c1.4-1.6,8.1-0.5,9.9-0.2c-1,0.5-1.8,1.4-2,2.6c2.7-0.9,5.5-2.5,8.4-2.1
			c-1.1,1.3-2.3,2.6-3.2,4.2c2,0,3.7-2.1,5.8-2c-0.1,1.8-1.1,4.2-0.5,5.8c1.8-1.3,2.8-3.4,4.6-4.6c0.7,1.9,2.9,4.3,4.5,5.2
			c0.3-1.8,0.4-3.6,0.9-5.3c1.3,1.6,3.7,3.3,5.6,4.1c1.6-1.5,0.1-3.6,0.2-5.5c2.1,1.1,4.5,3.6,7.1,3.6c-0.1-1.5-1.2-2.7-1.8-4.1
			c0.3,0.8,9.9,1.4,11.2,1.5c3.3,0.3,7.4,0.1,10.5,1.5c1.6,0.7,2.8,1.6,4.2,2.3C526.6,72.7,518,66.1,513.8,65.9z"/>
		<g>
			<g>
				<path class="st27" d="M531.3,69.4c-0.1,0-0.3,0-0.4,0c-3.3-0.3-6.6-0.7-9.8-0.9c-3.5-0.1-7.6-0.4-10.8,1.3
					c-1.1,0.6-3.4,2.3-3.1,3.9c0.2,1.1,5.8,3,6.1,2.5c-0.2,0.3-0.6,0.6-0.9,0.9c0.1-0.1,6.6,1.1,7.4,1.2c-0.1,0.2,0,0.4-0.1,0.5
					c3.1,0.8,7.1-0.9,9.9-2c1.8-0.7,5.4-2.4,6.4-4.2C537.7,69.9,533.4,69.6,531.3,69.4z"/>
			</g>
			<path class="st32" d="M531.9,73.1c0.6,0.2,1.4,0.4,0.6,1c-0.8,0.6-2.1,0.9-3,1.3c-1,0.4-4.9,1.7-5.8,2c-1.1,0.3-2.5,0.2-3.6-0.1
				c-1.1-0.3-4.9-1.1-4.1-2.2c0.8-1.1,2.5-1.7,4.1-1.9c1.3-0.2,2.7-0.3,4-0.4C527,72.6,531.9,73.1,531.9,73.1z"/>
		</g>
		<g>
			<g>
				<path class="st27" d="M446.4,60.7c0.1,0,0.3,0,0.4,0.1c3.3,0.5,6.6,0.8,9.8,1.5c3.4,0.7,7.5,1.4,10.2,3.8c1,0.9,2.7,3.1,2,4.5
					c-0.5,1.1-6.4,1.5-6.6,1c0.1,0.4,0.4,0.7,0.6,1c-0.1-0.1-6.7-0.5-7.5-0.6c0,0.2,0,0.4-0.1,0.5c-3.2,0.1-6.7-2.6-9.1-4.3
					c-1.6-1.2-4.7-3.6-5.3-5.6C440,59.6,444.2,60.4,446.4,60.7z"/>
			</g>
			<path class="st32" d="M444.9,64.1c-0.6,0-1.5,0.1-0.8,0.8c0.6,0.8,1.8,1.4,2.6,2c0.8,0.6,4.3,2.8,5.2,3.3c1,0.6,2.4,0.8,3.5,0.8
				c1.1,0,5,0.1,4.5-1.2c-0.5-1.2-2.1-2.2-3.5-2.9c-1.2-0.5-2.5-0.9-3.8-1.3C449.8,64.8,445,64.1,444.9,64.1z"/>
		</g>
		<path class="st14" d="M473.7,95.9c-1,0.4-2.3,0.4-3.1,0.3c-1.2-0.1-2.5-0.2-3.7-0.4c-1.6-0.2-3.3-0.4-4.9-0.5
			c-2.2-0.2-4.6-0.2-6.7-0.8c0.5,0.1,2.7-1.8,3-2.2c-1.2-0.5-2.3-1.3-3.2-2.3c2.4,0.6,5.3,0.6,7.7,0.9c3.1,0.5,6.1,0.9,9.2,1.3
			c1.2,0.2,3.2,0,3.3,1.5C475.3,94.9,474.6,95.6,473.7,95.9z"/>
		<path class="st14" d="M498.3,98.6c0.8,0.7,2,1.1,2.8,1.3c1.2,0.3,2.4,0.6,3.6,0.9c1.6,0.3,3.2,0.7,4.8,1.1
			c2.1,0.5,4.3,1.3,6.6,1.5c-0.5,0-1.9-2.6-1.9-3.1c1.3-0.1,2.6-0.5,3.8-1.2c-2.5-0.2-5.1-1.2-7.5-1.6c-3-0.5-6-1.2-9-1.7
			c-1.2-0.2-2.9-1-3.6,0.3C497.2,97.2,497.6,98,498.3,98.6z"/>
		<path class="st31" d="M525.9,103.9c0.8,0.7,1.7,1.2,2.7,1.1c1.2-4.5-2.3-10.6-5.1-14c-3.1-3.8-7.4-6.6-12.2-7.9
			c-7.1-1.9-17.8-0.6-16.8,9.3c2.9-2.2,2.5,4,4.9,5.3c0.3-0.8,1-1.6,1.4-2.2c0.7,1.5,1.6,3.7,3.6,3.8c0.1-0.8,0.6-1.4,0.8-2.1
			c2.3,0.8,3.6,4.1,5.8,5.3c0-0.9,0.3-1.6,0-2.5c0.8,2.5,4.8,5.1,7.5,4.7c0-0.2-0.1-0.5,0-0.6c1,1,2.3,1,3.6,1.2
			c1.2,0.2,2.5,0.8,3.7,0.8C526.4,105.4,526.4,104.5,525.9,103.9z"/>
		<path class="st31" d="M443.7,94.8c-0.9,0.5-1.9,0.8-2.9,0.4c-0.1-4.6,4.7-9.8,8.1-12.4c3.9-3,8.7-4.8,13.7-4.9
			c7.4-0.2,17.4,3.5,14.2,12.9c-2.3-2.9-3.3,3.4-6,4c-0.1-0.8-0.6-1.7-0.9-2.4c-1,1.3-2.4,3.2-4.4,2.8c0.1-0.8-0.3-1.5-0.3-2.3
			c-2.4,0.3-4.5,3.2-6.8,3.8c0.2-0.8,0.1-1.6,0.5-2.4c-1.4,2.3-5.9,3.8-8.3,2.8c0-0.2,0.2-0.4,0.2-0.6c-1.2,0.8-2.4,0.4-3.8,0.3
			c-1.3-0.1-2.6,0.2-3.8,0C442.9,96.1,443,95.3,443.7,94.8z"/>
	</g>
	<path class="st28" d="M516.8,161.4c0.2,4.2-1.6,9.9-6.5,10.3c-1.6,0.1-3-0.2-4.4,0c-1.5,0.3-2.3,1.5-4.3,1.1
		c-1.5-0.3-2.2-1.4-3.5-1.6c-1.6-0.3-2.8,1.2-4.5,0.5c-3-1.3-2.8-4.7-2-7.2c-0.8,0.5-1.8,0.4-2.5,0.7c0.2-2.2,1.3-4.6,2.9-6.3
		c-0.8,0.2-2-0.2-2.9-0.1c1.3-4.3,10.2-7.6,14.3-7.8C510.6,150.6,516.6,155.3,516.8,161.4z"/>
	<g>
		<g>
			<path class="st26" d="M503,120.8c-1,0-2,0.3-2.8,0.6c-3.6,1.4-6.1,4.8-9.5,6.5c-1.5,0.7-3.1,1.6-4.8,1.5
				c-1.4-0.1-2.8-0.7-4.1,0.1c-0.9,0.6-2.3,1-3.1,1.8c0.9,1.2,3.3,1,4.5,0.7c1.6-0.4,3.1,0,4.8,0.3c3.5,0.7,6.3-1.6,8.8-3.7
				c1.5-1.2,3.3-2,5-2.8c1.2-0.6,3.6-1.2,4-2.6c0.3-1.1-0.6-1.9-1.6-2.2C503.8,120.8,503.4,120.8,503,120.8z"/>
		</g>
		<path class="st14" d="M477.7,131.9c-1.1,0-2.1-0.2-2.9-0.4c-2-0.5-3.4-1.5-4.6-2.4c-1.3-1-2.9-2.5-3.5-4.2
			c-0.2-0.6,0.1-1.2,0.7-1.4c0.6-0.2,1.2,0.1,1.4,0.7c0.4,1.2,1.7,2.3,2.8,3.2c1.4,1.1,2.5,1.7,3.8,2.1c1.1,0.3,2.7,0.5,4,0.1
			c1.1-0.3,1.9-1,2.9-1.9l0.5-0.4c0.3-0.2,0.6-0.3,1-0.2c0.3,0.1,0.6,0.4,0.7,0.7c0.1,0.3,0.3,0.5,0.6,0.7c0.8,0.4,2.3,0.4,3.2,0
			c1.7-0.5,3.3-1.6,4.8-2.7c0.6-0.4,1.1-0.8,1.7-1.2c0.8-0.5,1.5-1.2,2.2-1.8c1.8-1.8,3.7-3.6,7.9-2.4c0.6,0.2,0.9,0.8,0.7,1.3
			c-0.2,0.6-0.8,0.9-1.3,0.7c-3-0.9-4.1,0.2-5.8,1.8c-0.7,0.7-1.5,1.5-2.5,2.1c-0.6,0.4-1.1,0.7-1.6,1.1c-1.7,1.2-3.4,2.4-5.4,3
			c-1.3,0.4-3.4,0.6-4.9-0.2c-0.3-0.2-0.6-0.4-0.9-0.6c-0.9,0.8-1.9,1.5-3.2,1.9C479.2,131.8,478.4,131.9,477.7,131.9z"/>
	</g>
</g>
<g>
	<g>
		<path class="st0" d="M225.4,150.5c0.1,5.7,20.5,9.9,45.6,9.3c25-0.6,45.2-5.7,45.1-11.4c-0.1-5.7-20.5-9.9-45.6-9.3
			C245.5,139.7,225.3,144.8,225.4,150.5z"/>
		<path class="st33" d="M291,99.5c1-1.8,2.4-3.5,4.5-5.1c8.1-6.2,11.2,3.8,12.1,10.8c0.6,4.7,0.6,9.3,0.1,14
			c-0.3,3.5-0.6,7.1-0.1,10.6c0.5,3.6,1.3,2.7,2.9,4.7c10.4,12.4-13.7,18.3-15.8,6.6c-1.1-5.9-0.5-11.7-1.9-17.7
			C290.7,115.2,287.3,106.6,291,99.5z"/>
		<path class="st33" d="M264.7,100.6c-1-1.8-2.5-3.5-4.7-5c-8.4-6-11.3,4.2-12,11.2c-0.5,4.7-0.3,9.4,0.2,14.1
			c0.4,3.5,0.8,7.1,0.4,10.6c-0.4,3.7-1.2,2.7-2.9,4.8c-10.2,12.7,14.4,17.9,16.2,6.1c0.9-6,0.2-11.8,1.5-17.8
			C265.4,116.2,268.6,107.5,264.7,100.6z"/>
		<g>
			<path class="st34" d="M322.3,87.5c-3,0.2-5.9,0.2-8.9-0.5c1.2-1.7,3.3-3.3,4.1-5.3c-0.1,0.3-5.7-1.4-8.8-2.8
				c-3.9,2.3-7.7,5.5-10.4,8.6c-2.6,2.9-5.9,10.7,1.5,10.1c3.3-0.3,6.7-1.3,9.9-2.3c3.3-1,6.8-1.9,10.2-3.2
				C321.1,90.7,322.3,89,322.3,87.5z"/>
			<path class="st35" d="M326.4,88.5c1.9-1.6,3.2-3.7,4.1-6c0.3-0.7,1.6-7.5,1.7-7.5c-0.4,0-0.6,0.2-1,0.2c0.7-0.8,0.6-1.5,1.2-2.5
				c-4.7,1.7-10,1.8-14.8,2.8c-1.4,0.3-2.8,0.6-4.2,1.2c-1.5,0.6-3.1,1.3-4.6,2.3c3.1,1.4,8.7,3.1,8.8,2.8c-0.8,2-3,3.6-4.1,5.3
				c3,0.8,5.9,0.7,8.9,0.5c0,1.5-1.2,3.2-2.5,4.5c2.1-0.8,4-1.8,5.8-3C326,88.8,326.2,88.6,326.4,88.5z"/>
		</g>
		<path class="st36" d="M273.4,79.4c4.9,0,9.6,1.3,14.3,2.6c2,0.5,3.9,0.4,5.9,1.1c1.9,0.7,3.6,1.9,5.1,3.2c1.5,1.4,2.7,3.2,3.5,5
			c1.2,2.7,1.8,4.8,1.6,7.8c-0.1,3.3-0.2,6.9-1.5,10.1c-1.1,2.6-1.6,5.7-3.2,8.1c-2.2,3.1-3.5,6-6.8,8.1c-3,1.9-7.7,2.8-11.3,2.6
			c-4.2-0.3-8.3,0.2-12.5,0c-4.5-0.2-9.5,0.2-13.7-1.6c-3.8-1.6-8.1-2.4-11.4-5c-3.9-3.1-6-7.7-7-12.3c-0.8-3.5-0.7-6.8-0.2-10.3
			c0.9-6.3,2.5-12.1,9.7-14.9c2.9-1.1,5.9-2.6,9.1-3.1C261,80,267.3,79.4,273.4,79.4z"/>
		<path class="st33" d="M236.5,110.3c-1.1,9.7,15.9,18.1,26.8,18.4c3.2,0.1,6.4,0,9.6-0.4c7.2-1.1,14.8,1.3,21.4-3
			c2.7-1.8,4.8-3.6,6.3-6.5c3.5-7.1-3.8-13.5-10.5-13.5c-5.1,0-8.3-2.7-12.6-5.2c-4.3-2.5-8.7-5.3-13.6-6.4c-4.1-0.9-8-1-11.9,0.4
			c-3.9,1.4-7.7,1.8-10.7,4.9C238.7,101.6,236.9,107,236.5,110.3z"/>
		<path class="st36" d="M307.6,105.2c0.6,4.7,0.6,9.3,0.1,14c0,0.4-0.1,0.8-0.1,1.2c-1,0.4-2,0.3-3.1-0.1c-0.3-0.1-0.6-0.2-0.8-0.3
			c-3.3-1.5-3.8-3.9-5-7.5c-0.8-2.4-1.3-4.6-1.6-7.1c-0.3-2.5-0.3-4.6-0.1-7.2c0.1-2,1-4.4,2.5-5.8
			C304.7,91.8,306.8,99.5,307.6,105.2z"/>
		<g>
			<g>
				<path class="st35" d="M272.8,106.2c1-1.9,2.5-3.6,4.7-5.2c8.5-6.3,11.8,3.8,12.7,10.8c0.6,4.7,0.6,9.4,0.1,14.2
					c-0.3,3.5-0.6,7.2-0.1,10.7c0.5,3.7,1.3,2.7,3.1,4.7c14.2,16-14.4,18.6-16.6,6.8c-1.1-6-0.5-11.8-2-17.9
					C272.6,121.9,269,113.3,272.8,106.2z"/>
			</g>
			<path class="st36" d="M290.7,120.1c0-2.8-0.1-5.6-0.5-8.4c-0.7-4.9-2.4-11.4-6.4-12.6c-3.3,2.3-3.4,8-3.2,11.5
				c0.2,4.1,1.9,13.1,7.8,11.5C289.5,121.9,290.2,121.2,290.7,120.1z"/>
		</g>
		<g>
			<g>
				<path class="st35" d="M249.5,106.2c-1-1.9-2.5-3.6-4.7-5.2c-8.5-6.3-11.8,3.8-12.7,10.8c-0.6,4.7-0.6,9.4-0.1,14.2
					c0.3,3.5,0.6,7.2,0.1,10.7c-0.5,3.7-1.3,2.7-3.1,4.7c-14.2,16,14.4,18.6,16.6,6.8c1.1-6,0.5-11.8,2-17.9
					C249.8,121.9,253.4,113.3,249.5,106.2z"/>
			</g>
			<path class="st36" d="M231.6,120.1c0-2.8,0.1-5.6,0.5-8.4c0.7-4.9,2.4-11.4,6.4-12.6c3.3,2.3,3.4,8,3.2,11.5
				c-0.2,4.1-1.9,13.1-7.8,11.5C232.9,121.9,232.1,121.2,231.6,120.1z"/>
		</g>
		<path class="st35" d="M227.9,85.3c6.1-9.5,18.1-14.6,28.3-15.6c1.7-0.2,3.4-0.2,5.1-0.1c1.7-0.1,3.5,0,5.1,0.1
			c5.7,0.6,10.7,3.1,16.2,4.2c4.5,0.9,8.9,3.9,11.8,7.6c-1.2-0.2-2.6-0.7-3.8-0.7c2,0,5.3,6.7,5.8,8.4c1.2,4-1.1,8.8-1.4,12.9
			c-0.7-0.6-1.6-1.4-2.2-2.3c0.1,2.6-1.5,6.7-3.1,8.4c-0.2-0.8-1-1.5-1.2-2c0,0.1-3.9,6.3-4.3,6.7c-0.5-1.1-0.7-2.9-0.8-4.2
			c-1.4,1.6-2.3,3.8-3.8,5.3c-1.1,1.1-2.7,2.1-4,2.9c-3.1,2-6.8,3.4-10.4,4.1c0-0.8,0.3-1.6,0.5-2.5c-1.2,0.9-5.1,3.1-5.1,3.1
			c0,0-3.6-2.6-5.3-3.5c-0.2,0.9-0.2,1.9-0.2,2.9c0-0.1-5.7-2-6.2-2.2c-4.3-2-7.9-5.7-10.8-9.6c0,1.3,0.3,2.7,0.9,3.8
			c-3.4-0.1-4.6-6-6.5-8c-0.5,1.1-0.7,2.8-1.4,3.6c-1.6-2.9-1.6-6-1.9-9.3c-1,0.6-1.7,2.3-2.1,3.4c-1.3-2.2-0.5-5.8-0.8-8.2
			C226,91.3,226.1,88.2,227.9,85.3z"/>
		<g>
			<path class="st37" d="M226,90.3c-0.8,3.1,0.3,8,2.4,10.4c2,2.3,5.1,3.9,7.9,5c6.1,2.4,13.1,2.4,19.5,1.3c9.4-1.7,19-4,25.2-11.7
				c3.1-3.8,5.5-7.6,5.1-12.7c-1.3-13.4-14.2-13.4-25.2-12.8c-10.3,0.6-25.7,2.9-31.1,12.9C228.5,85,226.6,87.9,226,90.3z"/>
		</g>
	</g>
	<g>
		<path class="st38" d="M237.8,65.4c2.2-6.3,8.8-11.1,8.5-18.1c-0.2-4.3-1.4-4.3-4.3-5.8c-5.6-2.8-11.3-2.4-16.5,1.3
			c-3.2,2.3-5.9,5-9.1,7.2c-2.3,1.5-6.6,3.2-8.2,5.4c-4.8,6.7,2.9,12.6,7.1,16.9c3.9,4,6.3,14.6,12.7,14.8
			C237.7,87.4,235.7,71.3,237.8,65.4z"/>
		<path class="st36" d="M279.7,84.3c4.1-8.3,3.2-19.3-0.2-27.5c-1.1-2.7-3-5-4.1-7.6c-1.4-3.1-1.5-6.3-4-8.9
			c-4-4.1-5.4-3.6-10.7-4.7c-4.7-1-16.7,0.1-21.5,0.8c-14.5,2-16.1,4.8-17.6,13.5c-0.7,4.2,0.3,13.3-3.1,16.3
			c-2.6,2.3-8.5,3.8-11.6,4.8c-14.5,4.5,1.4,30.5,15.7,31.2c10.3,0.5,26.3,0.9,36.3-1.2C271.3,98.4,278.1,87.5,279.7,84.3z"/>
		<path class="st35" d="M243,88.2c-4.4-6.2-21.9-1.9-27.5,2.9c-6.8,5.9-9.7,17.7,4.3,18.1c5.4,0.1,11.5-3.4,16.6-4.8
			C244.1,102.4,246,92.5,243,88.2z"/>
		<path class="st39" d="M222.8,101.9c0,0,0.1-0.1,0.1-0.1c0.3-0.3,1.5-1,1.6-1.3c0.3-1.2-3.3-0.3-3.9-0.2c-1.5,0.2-3,0.2-4.4-0.2
			c-1.3-0.4-2.5-1-3.8-1.6c-3-1.3-4.4,1-4.3,3.6c0.1,2.6,1.5,4.4,4.1,5.1c2.2,0.6,4.6,0.2,6.6-0.8c1-0.5,1.9-1.2,2.6-2.1
			C222,103.5,222.2,102.7,222.8,101.9z"/>
		<path class="st40" d="M262.8,60.9c-2.2-6.3-8.8-11.1-8.5-18.1c0.2-4.3,1.4-4.3,4.3-5.8c5.6-2.8,11.3-2.4,16.5,1.3
			c3.2,2.3,5.9,5,9.1,7.2c2.3,1.5,6.6,3.2,8.2,5.4c4.8,6.7-2.9,12.6-7.1,16.9c-3.9,4-6.3,14.6-12.7,14.8
			C262.9,82.9,264.9,66.9,262.8,60.9z"/>
		<path class="st40" d="M249.9,84.6c-6.6,5.6-20.1-7.3-22.8-12.9c-3.8-7.7-1.2-21.9,8-24.7c9.7-2.9,20,9.3,19.3,18
			c-0.3,3.3-2,6.5-2.6,9.9C251.4,77.7,252.4,82.6,249.9,84.6z"/>
		<path class="st14" d="M243.6,60.8c-0.3,3.8-2.5,6.8-4.8,6.6c-2.3-0.2-4-3.5-3.7-7.3c0.3-3.8,2.5-6.8,4.8-6.6
			C242.3,53.7,243.9,57,243.6,60.8z"/>
		<path class="st35" d="M240,55.4c-0.9,0.2-1.2,1.7-0.8,3.3c0.4,1.6,1.5,2.6,2.4,2.4c0.9-0.2,1.2-1.7,0.8-3.3
			C241.9,56.2,240.9,55.1,240,55.4z"/>
		<path class="st35" d="M227.4,49.1c-0.4-0.3-0.9-0.6-1.5-0.8c-4.6-1.5-4.8,2.5-4.9,5.9c-0.1,7.2-3,12-10.2,14.3
			c-8.1,2.7-14.8,9-12.3,17.9c1,3.4,2.3,7.2,3.9,10.3c0.9,1.8,1.2,4.4,3.6,4.2c2-0.2,3.3-3.2,5.5-2.7c2.5,0.5,4.5,3,7.2,2.7
			c1.6-0.1,2.9-0.8,4.4-1.2c1.6-0.4,3.6-0.4,5.1,0.3c1.3,0.5,2.3,1.3,3.6,1.7c0.9,0.3,1.6,0.8,2.4,1.2c2,1.2,4.1,1.5,6.4,1.3
			c10.7-1.2,11.7-20.3,1.3-27.5c-4-2.8-9.1-8.9-11.8-13.2C227.4,59.4,231.8,52.4,227.4,49.1z"/>
		<path class="st14" d="M215.5,75.2c-0.3,0.8-1,1.7-2.1,2.6c-3.8,3.3-17,3.7-13.4-5.2C202,67.7,218.3,68.8,215.5,75.2z"/>
		<path class="st35" d="M206.9,72c-0.4,1,0.8,2.3,2.5,3s3.5,0.5,3.9-0.5c0.4-1-0.8-2.3-2.5-3S207.3,71,206.9,72z"/>
		<g>
			<g>
				<path class="st14" d="M230,102.2c0.3,0,0.7-0.2,0.8-0.5c0.3-0.5,0.1-1.1-0.4-1.3c-0.1-0.1-0.3-0.2-0.4-0.2c-1.6-1-4-2.4-8.3-1.1
					c-4.5,1.3-9.6-1.7-11-2.6l-2.4-16.7c-0.1-0.5-0.6-0.9-1.1-0.8c-0.5,0.1-0.9,0.6-0.8,1.1l2.4,17.2c0,0.3,0.2,0.5,0.4,0.6
					c0.3,0.2,6.9,4.9,13,3.1c3.5-1,5.3,0,6.7,0.9c0.2,0.1,0.3,0.2,0.4,0.3C229.7,102.2,229.9,102.2,230,102.2z"/>
				<path class="st14" d="M206,102.2c0.1,0,0.1,0,0.2,0c3.9-0.8,4.7-4.8,4.7-5c0.1-0.5-0.3-1-0.8-1.1c-0.5-0.1-1,0.2-1.1,0.8
					c0,0.1-0.6,2.9-3.2,3.5c-0.5,0.1-0.9,0.6-0.7,1.2C205.1,101.9,205.5,102.2,206,102.2z"/>
			</g>
		</g>
	</g>
</g>
<line class="st41" x1="614.7" y1="159.9" x2="617.7" y2="158.1"/>
<g>
	<path class="st42" d="M95.1,121.7c-1.2,1-5.2,4.2-6.7,1.7c-1.1-1.8,1.7-4.4,3.1-5.2c2.5-1.6,4.8-4.1,7.1-6
		c-0.1,1.3-0.5,2.2-1.2,3.4c0.6-0.1,1.2-0.4,1.7-0.8C99.1,117.6,97.4,119.7,95.1,121.7z"/>
	<g>
		<path class="st43" d="M48.1,135.8c1.4-1.3,3.4-3.7,5.4-3.8c1.6-0.1,4.2,0.2,5.2,1.4c1.1,1.1,1.6,4.3,0.6,5.5
			c-0.8,0.8-3.4,1.6-4.4,2.2c-0.9,0.7-1.5,1.7-1.9,2.8c-0.3,1-1,4.8-0.6,5.4c-1-0.8-2-1.8-2.4-3c-0.1,0.8-0.1,1.7,0,2.5
			c-0.9-0.9-1.4-1.9-1.8-3c-0.2,0.8-0.2,1.7-0.2,2.6c-0.7-1-1.6-2-2.3-3.1c-0.2,0.6-0.3,1.2-0.4,1.8c-0.4-0.6-0.7-1.3-0.8-2.9
			c0-1.1,0-2.1,0.3-3.1C45.5,139.1,46.6,137.2,48.1,135.8z"/>
		<path class="st43" d="M90.6,144c0.3,0.1,0.5,0.1,0.7,0c-0.2-0.7-0.8-1.3-1.3-1.9c0.4,0.5,1.6,0.7,2,0.2c-1.2-0.8-1.9-1.8-2.3-3.3
			c-0.3-1.4-0.3-2.9-0.7-4.3c-0.4-1.6-1.2-3.1-2.2-4.5c-1.4-2-3.2-3.7-5.2-4.7c-1.6-0.8-4.6-1.7-6.1-0.6c-0.5,0.4-1,1.3-1.4,1.8
			c-0.7,0.8-1.2,1.8-1.5,2.9c-0.5,1.9-0.3,4.3,1,5.8c0.5,0.7,1.2,1.2,1.9,1.6c0.7,0.5,1.5,0.8,2.3,1c1.3,0.3,2.8,0,3.9,0.8
			c1.1,0.8,1.5,2.2,2.1,3.4c0.7,1.5,1.3,3,2.4,4.3c0-0.7-0.2-1.4-0.2-2.1c0,0.3,1.6,1.3,1.9,1.5c0.2-0.7,0-1.3-0.5-1.8
			c0.8,0.5,1.8,0.7,2.7,0.5c-0.4-0.3-0.6-0.8-1-1.2C89.6,143.7,90.1,143.9,90.6,144z"/>
		<path class="st43" d="M91.7,120.6c2.9,2.1,4.2,6,2.9,10c-1.2,3.6-6.2,10.9-10.1,7.4c0.4,0.4,0.4,0.7,0.6,1.1
			c-1.2,0.2-3.2-0.2-4.3-1c-0.1-0.1-0.1-0.1,0,0c0.2,0.4,0.5,1.1,0.4,1.5c-1.1-0.2-2.2-0.7-3.3-1.2c0.2,0.5,0.4,1.1,0.7,1.6
			c-1.5-0.1-3-0.5-4.5-1c0.2,0.6,0.5,1.2,0.7,1.7c-0.9-0.3-1.9-0.6-2.8-1c0.1,0.5,0.1,1,0.2,1.5c0,0.1-3.7-0.3-4.1-0.4
			c-1.5-0.3-2.9-0.7-4.3-1.3c-1.2-0.5-1.7-0.8-2.4-2c-0.7-1.3-1.3-2.6-2.1-3.8c-3-4.9-1.5-11.7,2.3-15.3c1.7-1.6,3.8-3,5.9-3.4
			c1.8-0.4,2.8,0.8,4.4,1.2c1.6,0.5,3.2-0.3,4.8-0.5c-0.4,0.8-1,1.6-1.4,2.4c1.8,0.2,3.4-0.8,5.2-0.8c-0.3,0.4-0.6,1.1-0.9,1.5
			c1.8-0.1,3.7-0.7,5.6-1c-0.3,0.2-0.7,0.9-1,1.1C86.8,119.9,89.2,118.7,91.7,120.6z"/>
		<path class="st44" d="M102,144.7c0.3,0.1,0.6,0.1,0.9,0.1c-0.3-0.8-0.9-1.5-1.5-2.2c0.5,0.6,1.9,0.8,2.3,0.3
			c-1.4-0.9-2.3-2.1-2.7-3.7c-0.4-1.6-0.4-3.3-0.8-4.9c-0.5-1.8-1.4-3.5-2.5-5.1c-1.6-2.2-3.7-4.2-6.1-5.4c-1.8-0.9-5.3-2-7.1-0.7
			c-0.6,0.4-1.1,1.4-1.6,2c-0.7,0.9-1.4,2-1.7,3.2c-0.6,2.2-0.2,4.8,1.3,6.6c0.6,0.8,1.4,1.3,2.2,1.8c0.9,0.5,1.8,1,2.7,1.2
			c1.5,0.3,3.2,0,4.5,0.9c1.3,0.9,1.7,2.6,2.4,3.9c0.9,1.7,1.6,3.4,2.8,4.9c0-0.7-0.3-1.5-0.3-2.3c0,0.4,1.9,1.5,2.2,1.7
			c0.2-0.8-0.1-1.4-0.6-2.1c1,0.6,2,0.8,3.1,0.6c-0.5-0.4-0.7-0.9-1.2-1.4C100.9,144.4,101.5,144.6,102,144.7z"/>
		<path class="st44" d="M57.4,139.5c0.9-1.8,3-2.6,5-3.2c1-0.3,2.6-1.1,3-2.3c0.6-1.7-1-3.2-0.1-5.1c0-0.1,0.1-0.2,0.1-0.3
			c0.1-0.1,0.1-0.3,0.2-0.4c0.7-1.1,1.8-2,3-2.2c2-0.3,4.2,0.8,4.8,2.8c0.2,0.6,0.4,1.5,0.4,2.1c0.1,1.5-0.1,3.1-0.4,4.5
			c0,0,0,0,0,0.1c-0.5,2-1.5,3.7-3.7,4.4c-1.7,0.6-5.9,0.6-5.7,3.3c0,0.3,0.2,0.7,0.4,1c0.4,0.9,0.8,1.5,0.1,2.5
			c-0.4,0.6-1.1,1-1.8,1.2c-0.7,0.3-1.5,0.5-2.3,0.4c-2.1-0.2-2.6-2.3-3-3.9C56.9,142.8,56.6,141,57.4,139.5z"/>
		<path class="st45" d="M69.5,124.2c-1,2.4-1.1,5.6,1.4,6.7c1,0.5,2.1,0.9,3.2,1.4c1.2,0.6,2.5,0.3,3.7,0.8c0.9,0.4,1.6,1.4,2.6,1.8
			c0-0.9-0.1-1.7-0.2-2.6c1.3,1,2.7,1.5,4.1,1.9c0-0.8-0.2-1.6-0.4-2.3c1.4,0.3,3.2,1.3,4.5,1.3c-0.1-0.6-0.4-1.2-0.5-1.8
			c0.9,0.8,2.7,1.3,3.9,1.3c-0.2-0.8-0.8-1.6-0.9-2.5c1.1,0.9,2.9,1.3,4.2,1.6c-0.1-0.5-0.5-1.7-0.8-2.1c0.6,0.8,3.8,1.3,4.7,1.4
			c-0.2-6-4.5-8.8-10.2-10.5c-3.8-1.1-7.8-1.1-11.6-1C73.7,119.9,71.2,120.1,69.5,124.2z"/>
		<path class="st45" d="M70.4,119.4c-0.7,0.1-1.4,0.4-2,0.9c-0.5,0.4-0.7,1-1.1,1.4c-0.9,0.9-2.3,0.6-3.4,1c-1.7,0.6-3.2,1-4.6,2.2
			c-1.4,1.2-1.6,2.1-1.9,3.8c-0.3,1.4-0.7,2.7-0.7,4.1c0,0.7,0.1,1.4,0.1,2.1c0,0.6-0.3,1.4-0.1,2c0.4-0.7,1.2-1,1.6-1.7
			c0.2,0.8,0.5,2.4,1.1,2.9c0.2-0.7,0.4-1.6,0.8-2.3c0.2,0.5,0.5,1,0.9,1.4c0.1,0.1,1.2,0.8,1.2,0.7c-0.1-0.8,0-1.7,0.3-2.4
			c0.8,1,2.1,1.8,3.3,2.2c0-0.9-0.3-1.6-0.5-2.4c0.9,1,3,1.3,4.1,1.8c0-0.8-0.2-1.6-0.3-2.4c1.2,0.6,3,0.7,4.1,1.5
			c-0.1-0.7-0.5-1.3-0.9-1.9c-0.1-0.1-0.1-0.1,0,0c1,0.6,2.2,1.4,3.4,1.4c-0.1-0.4-0.2-0.9-0.6-1.2c0.6,1,1.9,1.1,2.9,1.3
			c0.2-4.5,0.9-11.7-2.3-15.1C74,119.1,72.5,119.1,70.4,119.4z"/>
		<path class="st42" d="M97.5,125.2c-0.5-2.2-2.8-4.1-5.3-5.3c-2.8-1.3-5.1-1.1-8.1-1c0.3-0.2,0.7-0.8,1-1.1c-1.8,0.3-3.7,0.9-5.6,1
			c0.3-0.4,0.6-1.1,0.9-1.5c-1.8,0-3.4,1-5.2,0.8c0.4-0.8,1-1.6,1.4-2.4c-1.6,0.3-3.2,1-4.8,0.5c-1.2-0.4-2.1-1.1-3.2-1.3
			c-1.1,1.7-1,3.9,0.4,5.6c0.5,0.6,5.6,3.6,5.3,4.3c0.2-0.6,0.1-1.2,0.1-1.9c1.3,0.8,2.7,1.2,3.9,1.8c-0.2-0.6-0.4-1.1-0.6-1.7
			c1.2,0.9,2.9,1.7,4.3,1.8c0-0.6-0.1-1.2-0.2-1.8c1.1,0.8,3.4,1.2,4.7,1.2c-0.1-0.4,0-1-0.1-1.4c1.3,0.6,4,1.3,5.1,2.3
			c0-0.6-0.1-2-0.5-2.4c0.8,0.7,1.8,0.9,2.8,1.3C94.7,124.5,96.9,124.9,97.5,125.2z"/>
		<g>
			<path class="st46" d="M70.3,112.2c3.3,2.6,2.7,8.9-1.3,14c-4,5.2-10,7.3-13.3,4.7c-3.3-2.6-2.7-8.9,1.3-14
				C61.1,111.7,67,109.6,70.3,112.2z"/>
			<g>
				<g>
					<path class="st43" d="M37.5,109.7c2,2.2,5.2,4,7.9,4.4c3.5,0.6,6.3-1.1,7.2-4.5c1.5-5.9-2.4-11.2-7.6-13.7
						c-1.4-0.7-2.9-1.1-4.3-1.6c-1.1-0.4-2.1-1.2-3.2-1.7c0,0.7,0.5,1.4,0.7,2.1c-0.6-0.3-1.1-0.8-1.7-1.2c-0.2,1.5-1.2,3-1.4,4.6
						c-0.3,1.7-0.1,3.6,0,5.3c0.1,1.7,0.4,3.3,1.3,4.8C36.7,108.8,37.1,109.3,37.5,109.7z"/>
				</g>
				<path class="st44" d="M40.3,134.5c1.8,0.9,3.7,1.5,5.6,1.7c6.8,0.7,13.1-2.5,16.8-7.9c0,0.8-0.1,1.7,0,2.6
					c1.6-1.8,2.3-4.7,3.8-6.3c0.1,0.5,0.4,1,0.4,1.6c-0.1-1.4,1.5-3.9,1.8-5.5c0.5,0.9,0.7,2,0.9,3c0.4-1.7,0.6-3.8,0.7-5.6
					c0.3,0.4,0.7,0.7,0.9,1.2c0.3-2.1-0.3-4.1-0.3-6.3c0.3,0.3,0.8,0.4,1.1,0.6c-0.6-3.8-2.6-7.2-4.3-10.5c-2.4-4.6-5.5-3.1-9.5-3.2
					c0.8-0.9,0.4-1.8,1.2-2.7c-1.8,0.7-4.4,1.8-5.8,3.3c-0.5-1.2-1.6-2.1-3-2.3c0.2,0.9,0.5,1.8,0.6,2.7c-3.1,1.3-8.2,2.6-9.5,6.2
					c0.5,0,2.1-0.3,2.4-0.7c-0.7,1-1.5,1.7-2.2,2.9c-0.6,1.2-0.8,2.6-1.3,3.8c-0.7,1.6-1.8,3.8-2.9,5.1c0.5-0.2,1.1-0.2,1.5-0.4
					c-0.7,2.2-1.7,4-2.9,5.9c-2.1,3.2-3.7,5.1-0.5,8.1C37.4,132.8,38.8,133.7,40.3,134.5z"/>
				<path d="M54.1,116c0.4,1.6-0.4,3.2-1.7,3.5c-1.4,0.4-2.8-0.7-3.2-2.2c-0.4-1.6,0.4-3.2,1.7-3.5C52.3,113.4,53.7,114.4,54.1,116z
					"/>
				<path class="st5" d="M51.4,116.3c0.5,0.6,1.2,0.9,1.7,0.6c0.4-0.3,0.4-1.1,0-1.8s-1.2-0.9-1.7-0.6
					C50.9,114.8,50.9,115.6,51.4,116.3z"/>
				<path d="M43.8,117.8c0.3,1.3-0.2,2.5-1.1,2.7c-0.9,0.2-1.8-0.6-2.1-1.9c-0.3-1.3,0.2-2.5,1.1-2.7
					C42.5,115.7,43.5,116.5,43.8,117.8z"/>
				<path class="st5" d="M41.9,117.8c0.4,0.5,0.9,0.7,1.2,0.5c0.3-0.2,0.3-0.8-0.1-1.3c-0.4-0.5-0.9-0.7-1.2-0.5
					C41.5,116.7,41.5,117.3,41.9,117.8z"/>
				<path class="st44" d="M58.7,124.3c-2.8-3.6-9.4-3-14.5-1.8l0,0c0,0-0.1,0-0.1,0c0,0-0.1,0-0.1,0l0,0c-5,1.4-11,4.1-11.7,8.6
					c-0.2,1.5,1.5,3.5,2.6,4.5c1,1,2.3,1.7,3.6,2.2c0.4,0.2,3,0.7,3.2,1.1c-0.2-0.4-0.2-1-0.3-1.4c1.1,0.6,2.2,1.3,3.5,1
					c-0.2-0.3-0.1-0.8-0.3-1.2c1,0.5,2.1,0.7,3.1,0.9c0.1-0.3,0.2-0.6,0.3-1c0.2,0.3,0.5,0.5,0.8,0.7c0.8-0.7,1.7-1.4,2.3-2.3
					c0,0.4,0.3,0.8,0.3,1.2c1.3-0.3,1.9-1.5,2.6-2.5c0,0.4,0.3,0.9,0.4,1.4c0-0.4,2-2.1,2.3-2.5c0.9-1.1,1.7-2.4,2.1-3.7
					C59.1,128.1,59.7,125.5,58.7,124.3z"/>
				<path d="M46.9,130.8c0.3,0.3,0.5,0.7,0.6,1.2c0.2,1-0.9,2-1.7,2.5c-1.1,0.6-2.5,0.8-3.7,0.5c-1-0.3-2.5-1.1-2.8-2.1
					C38.4,129.9,44.8,128.7,46.9,130.8z"/>
				<path class="st17" d="M40.4,133.2c0.5,0.8,1.8,1.3,3,1.2c0.7-0.1,1.4-0.3,2-0.8c0.5-0.4,1.2-1.1,1.3-1.8
					c-0.9,0.4-1.9,0.6-2.8,0.3c-0.5-0.1-1.2-0.3-1.7-0.2c-0.4,0.1-0.3,0.3-0.7,0.5C41.4,132.5,40.4,133.3,40.4,133.2z"/>
				<path class="st45" d="M32.7,127.7c0.1-0.1,0.2-0.3,0.3-0.4c2-2.4,4.5-4.6,7.7-4.6c1.1,0,3.8,0.8,3.4,2.5
					c-0.3,1.3-2.3,0.9-3.1,1.6c-1,1-1.1,3.8-1,5.4c0.1,1.4,0.2,3.6,0.8,5c-0.8-0.8-1.5-1.8-2-2.8c-0.1,0.7,0.1,2,0.2,2.8
					c-1-0.7-2.1-2.4-3.3-2.8c0.2,0.9,0.2,1.8,0.3,2.7c-0.9-0.6-1.6-1.4-2.2-2.8c-0.2,1.1-0.2,2.3-0.1,3.4c-0.6-1-0.8-2.2-1.5-3.2
					c-0.5,0.6-0.9,1.5-1.4,2.1C30,133.4,30.9,130.1,32.7,127.7z"/>
				<path class="st45" d="M47.1,130.5c0.9-0.3,1.9,0.1,2.8,0.1c-2-1.1-3.4-4.4-5.8-4.6c-1.5-0.2-2.9,0.1-4.3,0.6
					c-1.4,0.3-2.8,0.7-4,1.6c-2,1.4-1.6,4.9-2.8,6.9c0.8-0.4,1.6-1.3,2.4-1.5c-0.1,0.3,0,0.7-0.1,1.1c0.8-0.3,1.3-1.3,2.2-1.6
					c0.1,0.4,0.1,0.9,0.1,1.3c0.8-0.6,1.1-1.7,2-2.1c0,0.3,0.3,0.6,0.3,0.9c0.3-0.2,0.9-0.8,1.3-1.1c0.5,0,1.3,0.3,1.7,0.3
					c-0.1-0.3-0.1-0.7-0.2-0.9c1,0,1.8,0.8,2.8,0.9c-0.2-0.4-0.4-0.8-0.5-1.2c0.9-0.1,1.8,0.6,2.7,0.4
					C47.4,131.1,47.3,130.7,47.1,130.5z"/>
				<path class="st45" d="M40.8,115.7c0.4-0.3,0.9-0.5,1.4-0.6c0.7-0.1,3.5,0.1,3.9,1c-0.4-0.8-1-1.7-1.6-2.4c0.5,0,1,0.2,1.4,0.5
					c-0.4-0.6-0.9-1.4-1.3-2.1c0.6-0.1,1.2,0.3,1.8,0.5c-0.2-0.1-0.7-1.4-0.9-1.6c-1.9-3.1-4.7-4.4-7.2-2.6c-0.9,0.7-1.9,1.7-2.5,3
					c-1.3,2.7-1.1,7.6-0.8,11c0.1,0.9,0.2,1.8,0.3,2.6c0.1-1.7,0.5-3.7,1.1-5.1c0.1,1.5,0.2,3.1,0.7,4.4c-0.3-0.7,0.3-2.8,0.5-3.4
					c0.3-1.1,0.7-2,1.2-2.9C39.4,117.1,40,116.2,40.8,115.7z"/>
				<g>
					<path class="st44" d="M54,97.6c-0.3,0.7-0.3,3.5-1.2,3.9c-0.8,0.3-0.9-0.8-0.8-1.3c0.1-1.7-0.3-2.8-1.1-4.3
						c-0.7-1.2-1.9-2.8-3.3-3.3c1.5,0.8,3.2,1.1,4.3,2.5c0.1-0.8-0.3-2.1-0.5-2.7c0.8,0.8,1.6,1.7,1.9,2.8c0.4-1.7,2.8-2.2,4.3-2.7
						C56.2,93.9,54.6,95.9,54,97.6z"/>
					<g>
						<path class="st46" d="M47.1,102.9c0.8,1.5,6-1.3,5.2-3c-0.3-0.6-4.1-3.4-4.7-3.1C46.4,97.4,46.5,101.8,47.1,102.9z"/>
						<path class="st46" d="M58.9,101.8c-0.5,1.6-6.1-0.2-5.7-2c0.2-0.7,3.5-4.1,4.1-3.9C58.6,96.3,59.3,100.6,58.9,101.8z"/>
						<path class="st46" d="M54.5,100c0.1,1.3-0.5,2.4-1.5,2.5c-0.9,0.1-1.8-0.9-1.9-2.2c-0.1-1.3,0.5-2.4,1.5-2.5
							C53.5,97.7,54.4,98.7,54.5,100z"/>
					</g>
				</g>
				<g>
					<path class="st44" d="M72.6,102.4c-1,2.8-3.4,5.6-5.7,7c-3,1.8-6.3,1.3-8.4-1.6c-3.6-5-1.9-11.3,2.1-15.5
						c1.1-1.1,2.3-2,3.4-3.1c0.9-0.8,1.5-1.9,2.3-2.7c0.2,0.7,0.1,1.5,0.1,2.2c0.4-0.5,0.8-1.1,1.2-1.7c0.7,1.4,2.2,2.3,3,3.7
						c0.9,1.5,1.4,3.3,1.9,5c0.5,1.6,0.8,3.2,0.6,4.9C73,101.3,72.9,101.9,72.6,102.4z"/>
					<path class="st43" d="M70.3,103c-0.6,1.3-1.6,2.5-2.3,3.7c-0.5-0.7-0.9-1.4-1.5-2c0,0.6,0.1,1.3,0.1,2
						c-0.8-0.7-1.6-1.6-2.4-2.4c-0.2,0.6-0.3,1.2-0.5,1.7c-0.8-0.7-1.5-1.6-2.2-2.3c-0.7,0.5-0.9,1.5-1.5,2
						c-0.8-1.8-1.1-3.8-0.7-5.8c0.9-4,3.5-6.2,6.4-9c0.1,0.8,0.3,1.8,0.1,2.5c0.6-0.4,0.9-1.3,1.4-1.8c0.1,0.7,0.3,1.6,0.4,2.3
						c0.2-0.4,0.3-0.9,0.5-1.3c0.4,1.2,1.5,2,1.9,3.3c0.4,1.3,1,2.6,1,3.9C71.1,101,70.8,102,70.3,103z"/>
				</g>
				<path class="st45" d="M54.1,113c-0.6-0.1-1.3-0.1-1.9,0c-0.8,0.2-4.1,1.5-4.2,2.5c0.1-0.9,0.5-2,0.9-2.8
					c-0.6,0.2-1.1,0.5-1.5,1.1c0.2-0.7,0.4-1.6,0.6-2.4c-0.8,0.2-1.3,0.7-1.9,1.2c0.2-0.1,0.3-1.5,0.3-1.8c1-3.7,3.8-5.9,7.5-5.2
					c1.4,0.3,3,0.9,4.2,1.8c2.7,2,4.6,6.6,5.7,9.9c0.3,0.9,0.5,1.7,0.8,2.5c-0.9-1.5-2.1-3.3-3.5-4.3c0.6,1.4,1.1,2.9,1.1,4.4
					c0-0.8-1.6-2.4-2.1-2.9c-0.8-0.9-1.7-1.5-2.7-2.2C56.4,113.7,55.3,113.2,54.1,113z"/>
				<path class="st45" d="M52.6,123.6c-0.2-0.1-0.3-0.1-0.5-0.2c-3.4-1.1-7.3-1.7-10.6-0.1c-1.1,0.5-3.5,2.7-2.1,3.9
					c1.1,1,2.9-0.4,4.2-0.2c1.6,0.3,3.3,2.8,4,4.1c0.7,1.3,1.8,3.2,2,4.7c0.4-1,0.5-2.3,0.5-3.4c0.5,0.6,1,1.8,1.3,2.6
					c0.7-1.1,0.9-3.2,1.9-4.1c0.3,0.8,0.8,1.7,1.2,2.5c0.6-1-0.1-2.5,0.7-3.6c0.8,0.8,1.5,1.9,2,2.9c0.1-1.1-0.4-2.3-0.2-3.5
					c0.9,0.3,1.8,0.9,2.7,1.1C58.5,127.2,55.7,124.8,52.6,123.6z"/>
				<path d="M37.2,125.6c1-0.2,2.1-0.2,2.5,0.2c2,1.7-1.5,5.3-3.9,3.6C33.7,127.8,34.9,126,37.2,125.6z"/>
				<path class="st5" d="M38.4,127.7c0.8,0.1,1.4-0.2,1.5-0.6c0.1-0.4-0.5-0.9-1.3-1c-0.8-0.1-1.4,0.2-1.5,0.6
					C37,127.2,37.6,127.6,38.4,127.7z"/>
			</g>
		</g>
		<path class="st44" d="M57.3,139.5c0.8-1.7,2.1-3.2,4-4c1.4-0.6,3.1-0.9,4.6-0.2c1.4,0.7,2.4,2.4,1.9,3.9c-0.4,1.1-1.4,1.8-2.1,2.7
			c-0.6,1-0.8,2.2-0.7,3.3c0.1,1.1,0.5,2,0.6,3.1c0.1,0.6,0.2,1.8,0.8,2.1c-1.1-0.6-2.4-1.1-3.3-1.9c0.2,0.8,0.5,1.6,1,2.3
			c-1.1-0.5-2-1.3-2.8-2.1c0.1,0.8,0.4,1.7,0.7,2.5c-1.1-0.7-2.2-1.2-3.2-2c0,0.6,0.1,1.2,0.3,1.8c-0.2-0.4-0.7-0.7-1-1.1
			c-0.3-0.4-0.6-0.9-0.8-1.3c-0.5-0.9-0.8-2-0.9-3C56.2,143.4,56.4,141.3,57.3,139.5z"/>
	</g>
	<path class="st47" d="M93.8,156.9c0,1.7-9.5,3-22.4,3c-12.9,0-23.4-1.3-23.4-3c0-1.7,10.5-3,23.4-3
		C84.3,153.9,93.8,155.2,93.8,156.9z"/>
</g>
</svg>
