<?xml version="1.0" encoding="utf-8"?>
<!-- Generator: Adobe Illustrator 24.2.3, SVG Export Plug-In . SVG Version: 6.00 Build 0)  -->
<svg version="1.1" id="Layer_1" xmlns="http://www.w3.org/2000/svg" xmlns:xlink="http://www.w3.org/1999/xlink" x="0px" y="0px"
	 viewBox="0 0 458 186" style="enable-background:new 0 0 458 186;" xml:space="preserve">
<style type="text/css">
	.st0{fill:none;}
	.st1{fill:#FEFEFE;}
	.st2{fill:#231F20;}
	.st3{opacity:0.3;fill:#231F20;}
	.st4{fill:#CCC7C6;}
	.st5{fill:#FFFFFF;}
	.st6{fill:#0B0808;}
	.st7{fill:#1B75BC;}
	.st8{fill:#B76C00;}
	.st9{fill:#A00A2B;}
	.st10{fill:#2D2A21;}
	.st11{fill:#E5E5E5;}
	.st12{fill:#D3834C;}
	.st13{fill:#454136;}
	.st14{fill:#BCAC39;}
	.st15{fill:#912F41;}
	.st16{fill:#B7375C;}
	.st17{fill:#8C5522;}
	.st18{fill:#C68947;}
	.st19{fill:#B27436;}
	.st20{fill:#D6D6D6;}
	.st21{fill:#F2BB79;}
	.st22{fill:#552D0A;}
	.st23{fill:#4C4A46;}
	.st24{fill:#A35B24;}
	.st25{fill:#D38D54;}
	.st26{fill:#FFE5C5;}
	.st27{fill:#CE1D2E;}
	.st28{opacity:0.25;fill:#0B0808;}
</style>
<line class="st0" x1="391.6" y1="145" x2="394.7" y2="143.2"/>
<g>
	<g>
		<path class="st1" d="M170.5,95.9c2.1-2.3,4.1-4.5,4.6-5.2c0.6-0.7,1.4-1.5,2.2-1.1c0.8,0.5,0.7,1.8,0.4,2.7
			c-0.6,2.1-1.9,4.6-3.5,6.8C173.1,97.8,171.9,96.7,170.5,95.9z"/>
		<path class="st2" d="M170.5,95.9c1.4,0.8,2.7,1.9,3.6,3.3c-1.7,2.4-3.8,4.5-5.9,5.4c-1,0.4-3.3,0.8-3.2-1.5
			C165,102.2,167.8,98.9,170.5,95.9z"/>
	</g>
	<path class="st3" d="M113.3,139.5c0,2.5,13.6,5.5,31.7,5.5c18.1,0,34.9-2.2,34.9-4.7c0-2.5-13.4-4.6-31.4-4.6
		C130.4,135.7,113.3,136.9,113.3,139.5z"/>
	<g>
		<g>
			<g>
				<g>
					<path class="st4" d="M162.4,102.3c-0.2-0.3-7.9-7.3-14.8-0.9c-3,2.8-1.7,7.6,0.5,10.8c2.6,3.8,3.8,8.2,8.1,10.7
						c0.6,0.4,1.3,0.7,1.8,1.2c0.7,0.7,0.9,1.7,1.1,2.6c0.6,2.6,1.3,5.4,1.4,8.1c0,0.7-0.2,1.3,0.3,1.9c0.6,0.6,2.8,1.8,3.5,1.5
						C167.4,136.7,168.3,112.1,162.4,102.3z"/>
				</g>
				<path class="st4" d="M161.2,138.8c-4.6,0-4.8-2.2-4.2-3.5c0.7-1.8,2.2-2.7,2.9-3c2.1-0.7,6.1-1.8,6.5,1.6
					C166.7,136.7,166.1,138.8,161.2,138.8z"/>
			</g>
		</g>
		<g>
			<g>
				<g>
					<path class="st4" d="M128.2,106.1c-0.3-1.6-0.9-3-2.2-3.8c-2.9-2-6.4-1.2-7.6,2.1c-1.8,5.3,0.8,10.6,1.3,16
						c0.3,3,0.7,8.1,0.8,11.2c0,1.1-0.6,2.5-0.9,3.1c-0.5,1.2,6.7,2.7,7.2,0.4c0.9-4.3,1.1-20.6,1.3-22.8
						C128.4,110.6,128.6,108.2,128.2,106.1z"/>
				</g>
			</g>
		</g>
		<g>
			<g>
				<g>
					<path class="st1" d="M167.6,100.7c-3.5-3-12.8-2.4-14.2-2.4c-2.4,0.2-3.4-0.4-5.7-0.9c-1.3-0.3-2.5-0.9-3.6-1.4
						c-1.2-0.6-2.7-1.2-3.7-2c-3.3-2.7-5.6-5.2-10.2-5.2c-3.4,0-6.7,1.6-8.9,4.1c-1.1,1.2-1.9,2.6-2.6,4.1c-0.8,1.8-1.1,2.4-1.2,4.4
						c-0.2,4.1,0.4,9.8,0.9,11.4c1,2.8,3.6,5.3,6.6,7.3c6.1,4,13.4,2.6,20,1.2c2.8-0.6,3.5-1.6,6.5-1.6c2.7,0,6,1.4,8.7,1.2
						c4.9-0.4,8.4-3.3,10.3-8C172,108.9,170.9,103.6,167.6,100.7z"/>
				</g>
			</g>
			<path class="st4" d="M159.5,116.2c-1.9-1.8-4.1-1.9-6.6-1.7c-3.7,0.3-7.2,2.4-10.9,2c-3.7-0.5-7.5-1.7-11-3.1
				c-1.7-0.7-0.6,1.6-2.6,1.6c-1.9,0-2.6,0.6-6.2-0.2c-0.8-0.2-3.2-1.1-3.9-1.5c1,2.7,3.6,5.1,6.5,7.1c6.1,4,13.4,2.6,20,1.2
				c2.8-0.6,3.5-1.6,6.5-1.6c2.7,0,6,1.4,8.7,1.2c0.2,0,0.4,0,0.7-0.1C161.3,119.3,161,117.6,159.5,116.2z"/>
		</g>
		<g>
			<g>
				<g>
					<path class="st4" d="M116.4,135.6c0,2.5,1.5,2.8,4.4,3c3.9,0.3,6.2-1.8,6.3-3.9c0.1-2.1-2.3-3.9-5.2-3.6
						C119,131.3,116.5,133.5,116.4,135.6z"/>
				</g>
			</g>
		</g>
		<g>
			<g>
				<path class="st5" d="M137.4,111.2c-1.5-5.2-7.9-8.6-9.8-3.4c-1.6,4.6-0.3,10.3,0.6,15.5c0.4,2.7,1.9,13.3,1,15.4
					c-0.3,0.7-2.1,1.3-1.4,2.4c1.7,3.1,6.9,1,8-0.5C137.7,138,139.4,118,137.4,111.2z"/>
			</g>
			<path class="st2" d="M133.5,109.2c-0.2-2.5,0.7-4.5,0.2-7.1c-0.1-0.5-0.2-0.9-0.3-1.4c2.7-1.7,5.1-4.1,5.5-7.2c0-0.3,0-0.5,0-0.8
				c0.5,0.4,0.9,0.8,1.4,1.2c1,0.8,2.5,1.4,3.7,2c1.2,0.6,2.4,1.2,3.6,1.4c2.2,0.5,3.2,1,5.3,0.9c-1,1.7-2.5,3-4.3,3.8
				c-4.5,2-5.7,2.6-8.5,6.7c-0.6,0.9-1.2,1.8-2,2.4c-0.8,0.6-2,1-3,0.6C134.2,111.5,133.6,110.3,133.5,109.2z"/>
			<path class="st6" d="M138.9,93.6c0-0.3,0-0.5,0-0.8c0.5,0.4,0.9,0.8,1.4,1.2c1,0.8,2.5,1.4,3.7,2c1.2,0.6,2.4,1.2,3.6,1.4
				c1.4,0.3,2.3,0.6,3.3,0.8c-1.7,2.5-4.7,4.4-8.3,5.6c-2.8,0.9-5.6,0.5-6.6-2.5c-0.2-0.6-0.3-1.5-0.3-2.5
				C137.4,97.5,138.6,95.7,138.9,93.6z"/>
			<g>
				<g>
					<g>
						<path class="st5" d="M125.7,138.4c-0.7,2.6,1.8,4.4,5.3,4.2c4.1-0.2,5.6-1.2,5.9-3.5c0.4-2.3-1.8-4.4-4.9-4.6
							C128.9,134.4,126.4,136.2,125.7,138.4z"/>
					</g>
				</g>
			</g>
		</g>
		<g>
			<g>
				<path class="st1" d="M170.3,102.6c-0.2-0.3-9-6.9-15.6,0.6c-2.9,3.2-1,8.2,1.6,11.3c3.1,3.8,4.8,8.2,9.6,10.4
					c0.7,0.3,1.4,0.6,2,1.1c0.8,0.7,1.1,1.7,1.5,2.7c0.9,2.7,1.9,5.6,2.3,8.4c0.1,0.7-0.1,1.4,0.5,1.9c0.6,0.6,3.1,1.6,3.8,1.2
					C179,138.4,177.5,112.4,170.3,102.6z"/>
			</g>
			<path class="st2" d="M173.6,109.3c-5.2,0.8-14.9-5-14.8-10.4c0-0.2,0-0.4,0-0.6c3.2,0.2,7,0.6,8.9,2.2c0.2,0.2,0.5,0.5,0.7,0.7
				c1.2,0.6,2,1.3,2.1,1.4C171.9,104.4,172.7,106.7,173.6,109.3z"/>
			<path class="st1" d="M172.3,141.1c-4.8,0-5-2.4-4.5-3.7c0.8-1.9,2.3-2.9,3-3.1c2.2-0.7,6.4-1.9,6.9,1.7
				C178.1,138.9,177.5,141.1,172.3,141.1z"/>
		</g>
		<g>
			<path class="st7" d="M131.7,87.6c8.1,0.8,10.2,9.2,5.3,12.9c-4.2,3.2-9.5,3.4-12.1,3.2c-2.9-0.3-6.4-1.2-8.1-2.7
				c-1.8-1.7-1.8-3.8-2.2-6c-0.1-0.5-0.2-1.1,0-1.6c0.2-0.7,0.8-1.2,1.4-1.7C120,88.4,126,87,131.7,87.6z"/>
		</g>
		<g>
			<g>
				<path class="st5" d="M112.2,53.8c3.2-0.6,6,3.8,8.7,5.4c2.8,1.6,5.5,0.8,8.7,1.2c2.7,0.3,6.2,0.3,8.6,1.7
					c4.8,2.7,6.4,6.9,7.4,11.9c1.5,6.7,2.1,12.3-1.4,18.4c-2,3.6-11,7.9-21,6.6c-5.6-0.7-9.3-3.3-13-7c-2.7-2.7-4.9-7.8-6.4-11.3
					c-0.7-1.7-0.8-3.5-1.4-5.1c-0.8-2-2.6-3.5-3.4-5.6c-0.9-2.3-1.1-5,0-7.3C100.3,59.9,109.3,54.3,112.2,53.8z"/>
				<path class="st8" d="M110.4,89c1.1-2,2.6-3.7,3.6-5.7c1.7-3.3,2.2-7.1,3.4-10.7c1-3.1,2.9-7.5,6.6-7.9c3.8-0.3,7.7-0.2,11.4,1.1
					c3.3,1.2,6.9,3,9.7,5.3c0.2,0.9,0.5,1.7,0.7,2.6c1.5,6.7,2.1,12.3-1.4,18.4c-2,3.6-11,7.9-21,6.6c-5.6-0.7-9.3-3.3-13-7
					c-0.3-0.3-0.5-0.5-0.8-0.8C109.7,90.2,110,89.6,110.4,89z"/>
				<path class="st6" d="M116.1,59.1c0.4-0.9,0.4-2.3,0.1-3.6l0,0c0,0,0,0,0,0c0,0,0,0,0,0l0,0c-0.3-1.4-0.7-1.9-1.4-2.5
					c-2.5-2.1-6.1,0.2-5.7,3.9l0,0c0,0,0,0,0,0c0,0,0,0,0,0l0,0C110.1,60.6,114.4,63.3,116.1,59.1z"/>
			</g>
			<path class="st2" d="M143.1,102.6c-2.7,0.9-5.2,0.6-6.2-2.4c-1.6-4.7,2.8-20.3,3.3-21.7c0.6-1.8,1.2-3.6,3.7-3.2
				c2.8,0.5,5.3,3.9,7,6C157.8,90.1,153.3,99.1,143.1,102.6z"/>
			<path class="st6" d="M124.7,68.7c0,0,0,0.1,0,0.1c0.2,2.2,0.3,4.3,0.2,6.4c0,0.6,0.4,1,0.9,1c0.5,0,0.9-0.4,0.9-1c0,0,0,0,0,0
				c0-1.4,0-2.7,0-4.1c1.3,1.3,2.6,2.7,3.9,4.1c0.4,0.4,0.9,0.4,1.3,0c0.4-0.4,0.4-1,0-1.4c-1.8-2-3.7-3.9-5.6-5.8
				c-0.3-0.3-0.7-0.3-1-0.1C124.9,68,124.7,68.3,124.7,68.7z"/>
			<path class="st6" d="M105.6,61.2c0.1,0.1,0.3,0.1,0.4,0c0.3-0.1,0.6-0.4,0.8-0.6c0.3-0.1,0.6-0.3,0.8-0.4
				c0.9-0.4,1.9-0.8,2.8-1.2c0.3-0.1,0.4-0.5,0.3-0.8c-0.1-0.3-0.5-0.4-0.8-0.3c-1,0.5-1.9,0.9-2.9,1.4c-0.5,0.3-1.1,0.5-1.6,0.8
				c-0.1,0.1-0.4,0.1-0.4,0.3C105,60.8,105.3,61.1,105.6,61.2z"/>
			<path class="st9" d="M101.5,61.2c-2.8,2.7-0.4,5.4,4,2.8c2.6-1.5,2.4-6.1-2-4.3C102.6,60.1,102,60.6,101.5,61.2z"/>
		</g>
	</g>
</g>
<g>
	<path class="st10" d="M374.2,121.1c0-1.2-0.3-3.7-2-2.7c-0.6,0.4-0.8,1.1-1.6,1.3c-1,0.2-2.8-0.3-3.8-0.7c-1.6-0.6-3.1-1.9-4.5-2.9
		c-0.9,1.5-0.3,5.1,0.6,6.7c0.5,0.9,1,1.7,1.9,2.3c0.6,0.4,1.2,0.7,1.9,1c1,0.4,1.8,0.2,2.8,0.2c0.9,0.1,1.5,0.1,2.2-0.5
		C373.3,125,374.2,123,374.2,121.1z"/>
	<path class="st3" d="M435.1,139.9c0,5-15.3,9-34.2,9c-18.9,0-34.2-4-34.2-9c0-5,15.3-9,34.2-9C419.8,130.9,435.1,134.9,435.1,139.9
		z"/>
	<path class="st10" d="M388.2,134.2c-4.2,0.2-7.4-4.5-8.2-8.6c-0.7-3.8-0.7-8.3,2.2-11.2c2.6-2.7,5.2-5.4,9-6.2
		c2.6-0.5,5.2-0.5,7.6,0.4c3.7,1.3,6.6,3.9,7.3,7.9c0.7,4.6-1.1,8.5-3.1,12.5c-0.9,1.8-1.8,2.7-0.4,4.3c1.2,1.4,3.6,1.4,3.7,3.9
		c-2.6,0.9-9.7,1.7-12.3,0.6c-3.6-1.5,1.2-6.8,2.1-9.3c-0.2,1.6-3.5,4-4.8,4.8C390.2,133.8,389.2,134.2,388.2,134.2z"/>
	<g>
		<polygon class="st10" points="421.7,137.4 413.6,137.2 413.5,106.9 421.6,107.1 		"/>
		<path class="st11" d="M413.5,137.3c0,2.4,2.9,4.3,6.4,4.3c3.5,0,6.2-2,6.2-4.4c0-2.4-2.9-4.3-6.4-4.3
			C416.2,133,413.4,134.9,413.5,137.3z"/>
	</g>
	<g>
		<g>
			<path class="st12" d="M388.1,122.5c-0.1,4.7,3.3,8.6,7.6,8.7c4.3,0.1,7.9-3.6,8-8.3c0.1-4.7-3.3-8.6-7.6-8.7
				C391.8,114.1,388.2,117.8,388.1,122.5z"/>
		</g>
		<g>
			<path class="st13" d="M398.8,118.2c6.2-3.9,12.4-6.8,18.1-8.5c-0.1-1.1-0.3-2.3-0.6-3.5c-1.4-5-3.3-8.8-6.9-12.7
				c-5.7-6.3-15.4-5.2-21.4,0.2c-2.8,2.5-4.7,4.9-6.2,8.2c-1.5,3.3-2.3,6.3-5.1,8.8c-2.8,2.4-6.3,5.5-8,9.1c-2,4.2-1.1,7.7,1.2,10.6
				c2.2,2.7,5.6,4.8,9,6.1C383,130.4,390,123.8,398.8,118.2z"/>
			<path class="st11" d="M390.2,136c3.9-2.2,8.6-3.4,12.2-6.1c3.2-2.4,6.6-5.2,9.5-8.2c3.5-3.7,5.3-7.5,5-12.1
				c-5.7,1.7-11.9,4.6-18.1,8.5c-8.9,5.6-15.9,12.2-20,18.3c1.1,0.4,2.2,0.8,3.3,1C385.4,138.4,387.4,137.6,390.2,136z"/>
		</g>
	</g>
	<g>
		<g>
			<g>
				
					<rect x="390.3" y="121.3" transform="matrix(5.994482e-03 -1 1 5.994482e-03 277.7025 529.9731)" class="st13" width="30.2" height="8.1"/>
			</g>
			<g>
				<path class="st1" d="M400.7,141.2c0.1,2.4,2.9,4.3,6.4,4.2c3.5-0.1,6.2-2.1,6.2-4.5c-0.1-2.4-2.9-4.3-6.4-4.2
					C403.4,136.8,400.6,138.8,400.7,141.2z"/>
			</g>
		</g>
	</g>
	<path class="st14" d="M391.2,89.4l3.7-0.6c-0.6,1.9-1,3.4-1,5.5c0,5.8,1.5,12.1,5.9,15.8c2.5,2.1,5.3,3.8,8.7,3.8
		c2.8,0,5.5-0.3,8,1.3c2.3,1.5,1.6,3-0.9,3.5c-3.1,0.7-6.8,0.3-9.8-0.4c-3-0.7-6-1.9-8.6-3.7c-5.2-3.6-8-9.3-8.4-15.7
		C388.6,95.5,389.6,92.3,391.2,89.4z"/>
	<path class="st13" d="M378.4,141c-4.2,0.3-7.5-4.4-8.4-8.5c-0.8-3.8-0.8-8.3,2.1-11.3c2.6-2.7,5.1-5.5,9-6.3
		c2.6-0.6,5.2-0.5,7.6,0.3c3.7,1.3,6.7,3.8,7.3,7.9c0.5,3.2-0.2,6.2-1.4,9.2c-1,2.4-3,4.6-3.7,7.1c1.8-0.2,4.3-0.1,5,2
		c1.6,4.6-10,3.9-11.8,3.1c-3.6-1.5-0.6-3.8,0.4-6.5C382.5,141.4,379.4,140.9,378.4,141z"/>
	<g>
		<path class="st13" d="M429,64.4c1.8-1.8,7.7-9.1,10.8-7.2c1.6,1,0.6,4.3,0.8,6.1c0.7,5.3,0.9,8.2-1.5,11.2c-0.8,1.1-2,2.1-3.5,3.3
			c-0.8,0.6-1.5,0.9-2.1,1c-1.6,0.3-3-0.7-5.1-0.7c-2.2,0-3.6,0.2-4.7-1.7c-0.2-0.3-0.3-0.6-0.4-0.9C421.3,70.4,426,67.4,429,64.4z"
			/>
		<g>
			<path class="st1" d="M413.2,105.3c1.8-2.4,4.3-3.9,6.6-5.8c2.6-2.1,3.3-5.1,3-8.4c-0.3-2.6-1.4-6.4-2.5-8.8
				c-1.2-2.7-3.3-4.6-5.6-6.3c-1-0.7-2.3-2-3.4-2.4c-0.8-0.3-2.2-0.2-3.5-0.2c0,0,0.1,0,0.1,0c1.9-0.5,3.9-0.4,6-0.1
				c2.6,0.4,3.4,0.4,5.5-0.5c0.3-0.1,0.6-0.2,0.9-0.3c0,0,0.1,0,0.1,0c0.3-0.1,0.6-0.2,0.8-0.2c0,0,0,0,0,0c0.6-0.1,1.2-0.3,1.9-0.3
				c0,0,0,0,0,0c0.2,0.1,0.3,0.2,0.5,0.4c2.5,2.1,4.1,4.1,5.4,7.3c0.6,1.5,1,2.9,1.1,4.5c0.1,1.5-0.2,3.1,0.5,4.4
				c2.5,4.5,8.9,3.6,12.8,5.8c0,0,0,0,0,0c0.1,0.3,0.2,0.5,0.3,0.8c0,0,0,0,0,0.1c0.1,0.3,0.2,0.5,0.2,0.8c0,0.1,0,0.2,0.1,0.3
				c0,0.2,0.1,0.4,0.1,0.6c0.1,0.3,0.1,0.7,0.1,1c0.4,5.7,0.4,11.3-5.3,14.5c-0.9,1-2.3,1.6-3.9,2.4c-6.5,3.4-14.5,2.8-21.4,2.2
				c-0.4,0-0.8-0.1-1.1-0.1c-0.2,0-0.4-0.1-0.7-0.1c-0.2,0-0.3,0-0.5-0.1c-0.3-0.1-0.6-0.1-0.9-0.2c-0.1,0-0.2,0-0.2,0
				c-0.4-0.1-0.7-0.2-1.1-0.2c0,0-0.1,0-0.1,0c-0.4-0.1-0.8-0.2-1.1-0.3c0,0,0,0,0,0c-1.2-0.3-2.3-0.7-3.5-1.2c0,0,0,0,0,0
				c1.2-0.5,2.4-0.9,3.2-1.5C410.2,111.3,411.2,108.1,413.2,105.3z"/>
			<path class="st13" d="M393.3,89.8c0.3-2.5,0.3-4.9,1.3-6.8c3-6,7.7-8,13.2-9.4c1.3,0.1,2.7,0,3.5,0.2c1.2,0.4,2.4,1.7,3.4,2.4
				c2.3,1.7,4.3,3.6,5.6,6.3c1.1,2.4,2.2,6.2,2.5,8.8c0.4,3.3-0.3,6.3-3,8.4c-2.3,1.8-4.9,3.3-6.6,5.8c-2,2.7-2.9,6-5.7,8
				c-0.8,0.6-2,1-3.2,1.5c-3.4-1.5-6.5-3.7-8.5-6.8C392.9,103.4,392.4,96.2,393.3,89.8z"/>
			<path class="st13" d="M430.5,88.7c-0.7-1.3-0.4-3-0.5-4.4c-0.1-1.6-0.5-3-1.1-4.5c-1.2-3.2-2.8-5.2-5.4-7.3
				c-0.1-0.1-0.3-0.2-0.5-0.4c3.8-0.4,7.8,0.5,11.1,2.1c3.1,1.5,7.9,4.4,8.4,8.6c0.2,0.4,0.3,0.9,0.3,1.3c0.2,2.5-0.6,4.9-2,6.6
				c1,1.1,1.8,2.4,2.4,3.8C439.5,92.2,433.1,93.1,430.5,88.7z"/>
		</g>
		<g>
			<path class="st5" d="M403.2,90.5c-0.1,4.4,2.1,7.9,9,8c3.6,0.1,6.9-2.9,7.3-7.3c0.4-4.4-2.1-8.3-5.7-8.6
				C410.2,82.3,403.3,85.2,403.2,90.5z"/>
			<path class="st6" d="M408.4,90.4c-0.3,2.9,1.6,5.4,4.2,5.7c2.6,0.3,5-1.9,5.2-4.7c0.3-2.9-1.6-5.4-4.2-5.7
				C411.1,85.4,408.7,87.5,408.4,90.4z"/>
			<path class="st1" d="M413,90.2c-0.6,1.3-1.7,2.2-2.4,1.8c-0.7-0.3-0.9-1.7-0.3-3s1.7-2.2,2.4-1.8C413.4,87.5,413.6,88.9,413,90.2
				z"/>
		</g>
		<g>
			<path class="st5" d="M430.9,85.1c-0.3,3.1,1.8,5.9,4.8,6.2c3,0.3,5.6-2,6-5.1c0.3-3.1-1.8-5.9-4.8-6.2
				C433.9,79.7,431.2,82,430.9,85.1z"/>
			<path class="st6" d="M433.7,85.8c-0.2,2.2,1.2,4.2,3.2,4.4c2,0.2,3.8-1.5,4-3.7c0.2-2.2-1.2-4.2-3.2-4.4
				C435.7,81.9,433.9,83.6,433.7,85.8z"/>
			<path class="st1" d="M436.7,85.6c-0.4,1-1.2,1.6-1.8,1.4c-0.5-0.2-0.6-1.2-0.1-2.3c0.4-1,1.2-1.6,1.8-1.4
				C437.1,83.6,437.2,84.6,436.7,85.6z"/>
		</g>
		<path class="st13" d="M400,64.8c1.5-2.5,6.1-12.1,10-10.7c2,0.7,1.7,4.8,2.3,6.7c2,5.9,2.8,9.1,1,13.1c-0.7,1.4-1.6,2.9-3,4.6
			c-0.7,0.9-1.4,1.3-2,1.6c-1.7,0.7-3.4-0.1-5.6,0.3c-2.3,0.5-3.8,1.1-5.4-0.9c-0.2-0.3-0.5-0.6-0.7-1
			C393.2,73.4,397.6,68.9,400,64.8z"/>
		<path class="st10" d="M412.4,73.7c0.6-4.4-0.3-8.3-1.7-12.5c-0.2-0.5-0.2-1.4-0.6-1.8c-0.7-0.6-0.5-0.2-1.3-0.2
			c-1.1-0.1-1.4-0.4-2.1,0.9c-1.2,2.1-1.9,4.4-3.5,6.2c-2,2.3-3.9,5.3-4.4,8.4c-0.2,1.5,0.1,3.1,0.8,4.5c1.8,1.8,3.2,1,5.5,0.3
			c2.2-0.7,3.9-0.1,5.5-1C411.7,77.1,412.2,75.5,412.4,73.7z"/>
		<path class="st10" d="M438.4,73c1.2-3.6,0.7-6.3,0.4-10.1c0-0.4,0.5-2,0.3-2.4c-0.4-0.7-0.3-0.2-0.9-0.5c-0.8-0.3-1-0.6-1.7,0.3
			c-1.2,1.5-2.2,3.3-3.7,4.5c-1.8,1.5-3.8,3.6-4.7,6.2c-0.4,1.2-0.4,2.6-0.1,4c1.1,1.9,2.3,1.5,4.1,1.4c1.7-0.1,3,0.7,4.3,0.4
			C437.3,75.7,437.9,74.5,438.4,73z"/>
		<g>
			<g>
				<path class="st15" d="M433.6,104.9c-0.6-0.3-1.5-0.1-2.1,0.1c-1.4,0.4-2.7,1.2-4.1,1.5c-1.7,0.4-3.4,0.7-5.2,0.7
					c-0.8,0-3.3-1.3-3.2,0.2c0,0.9,0.8,1.8,1.6,2.4c1-1.3,2.6-2.6,4.4-2.5c0.6,0,1,0.3,1.5,0.2c0.6,0,1.3-0.2,2-0.2
					c1.2,0,2.1,0.1,3.1,0.5c0.6-0.6,1.1-1.2,1.8-1.8C433.7,105.5,434.4,105.4,433.6,104.9z"/>
				<path class="st16" d="M421.3,110.3c-0.3-0.1-0.6-0.3-0.9-0.6c-0.2,0.2-0.3,0.4-0.4,0.6c-1.1,1.8-1,3.9-1.8,5.8
					c-0.6,1.3-0.7,3.3,1.1,4c1.4,0.6,3.3,0.4,4.6-0.1c0.7-0.3,1.3-0.6,1.8-1.1c0.6-0.6,0.8-1.3,1-2c0.2-0.7,0.2-1.2,0.5-2
					c0.3-0.9,0.3-1.5,0.6-2.4c0.2-0.8,0.2-1.8,0.6-2.5c0-0.1,0.1-0.1,0.1-0.2c0.1-0.2,0.3-0.4,0.5-0.6c-1.1,0.4-2.3,0.8-3.5,1.2
					C424.1,110.9,422.6,110.9,421.3,110.3z"/>
				<path class="st16" d="M426.3,107.5c-0.5,0-0.9-0.2-1.5-0.2c-1.8,0-3.4,1.3-4.4,2.5c0.3,0.3,0.7,0.5,0.9,0.6
					c1.3,0.6,2.8,0.6,4.1,0.2c1.1-0.3,2.3-0.7,3.5-1.2c0.3-0.3,0.6-0.5,1-0.7c0.1-0.1,0.5-0.3,1-0.4c0.2-0.1,0.3-0.3,0.5-0.4
					c-1-0.4-1.8-0.5-3.1-0.5C427.6,107.2,427,107.4,426.3,107.5z"/>
			</g>
			<path class="st6" d="M426.7,93.8c0.2,2.2,3,3.7,6.4,3.4c3.3-0.3,5.9-2.3,5.7-4.5c-0.2-2.2-3-3.7-6.4-3.4
				C429.1,89.6,426.5,91.7,426.7,93.8z"/>
			<path class="st1" d="M431.2,93.4c-1.3,0.5-2.7,0.4-2.9-0.4c-0.3-0.7,0.6-1.7,2-2.2c1.3-0.5,2.7-0.4,2.9,0.4
				C433.4,91.9,432.5,92.9,431.2,93.4z"/>
			<g>
				<path class="st6" d="M433.3,105c0.3,0,0.5-0.2,0.7-0.5c1.8-4.6,0.2-8,0.1-8.1c-0.2-0.4-0.6-0.5-0.9-0.1c-0.3,0.3-0.4,1-0.2,1.4
					c0.1,0.1,1.2,2.6-0.1,6c-0.2,0.5-0.1,1.1,0.2,1.3C433.1,104.9,433.2,105,433.3,105z"/>
				<path class="st6" d="M420.5,107.9c4.3,1,11.4-2,13.1-2.8c3.2,2.1,5.4,2.7,6.9,1.8c1-0.6,1.3-1.8,1.3-2.4c0-0.4-0.3-0.8-0.7-0.8
					c-0.4,0-0.7,0.4-0.7,0.8c0,0,0,0.7-0.6,1c-0.4,0.3-1.9,0.6-5.7-2c-0.2-0.1-0.4-0.1-0.6,0c-2.8,1.3-10.8,4.4-13.7,2.3
					c-0.7-0.5-1.1-1.3-1.1-2.4c0-0.4-0.3-0.7-0.7-0.7c-0.4,0-0.7,0.4-0.7,0.8c0,1.6,0.6,2.8,1.7,3.6
					C419.3,107.5,419.9,107.7,420.5,107.9z"/>
			</g>
		</g>
	</g>
</g>
<g>
	<path class="st17" d="M321.1,123.3c-0.6,0.5-1.1,1-1.7,1.6c-4.7,4.5-11.6,8.4-18.1,5.4c-8.5-3.9-3.4-12.2,1.3-16.9
		c2.5-2.4,6.2-3.8,8.4-6.5c0.5-0.7,2.7-6.1,2.3-5.8c-1.1,0.8-3.1,0.9-4.2,1.6c0.4-1.3,0.1-3.1,0.5-4.4c-2.6,0.8-4.2,2.9-5.9,4.9
		c-0.3-0.1-0.5-0.2-0.8-0.3c0.2-1.5-0.7-3-0.7-4.4c0,1.2-4.4,6-5.2,7.4c-0.3-1.6-1.5-3.7-1.8-5.2c-1.1,0.9-2.5,2-3.3,3.2
		c-0.6-3.2,0.9-7.3,3-10c-2.2,0.9-4.6,2-6.9,2.3c3.2-4.7,6.7-8.8,12-11.1c-1-0.2-3.1-1.1-4.2-1.1c3.8-2.2,8.5-2.4,12.3-4.5
		c-0.7-0.6-1.2-1.8-2-2.4c2.4-1.4,13.5-0.8,14.2,2.3c-0.4-1.7-0.3-3.5-1.3-5.1c3.6,2.8,6.7,6.1,8.5,10.8c0.5-1.7,1.6-3.7,2.7-4.9
		c1,3.9,3.2,8.3,2.4,12.7c0.7-1.7,2.1-3.2,3.2-4.3c0.7,3.3-0.1,8.9-1.7,10.8c1.2-1,2.5-1.6,3.9-2.4c-1,2.9-3.3,7-4.5,8.3
		c0.7-0.3,1.6-0.5,2.2-0.8c-1.5,3.2-4.7,6.7-7.1,9.4c1.9-1.3,3.3-1.1,5-1.1C329.2,116.4,325.2,119.5,321.1,123.3z"/>
	<path class="st17" d="M204.9,123.7c-0.3-0.5-0.5-1.2-0.6-1.9c0-0.1,0-0.1,0-0.2c0-0.1,0-0.2,0-0.2c0-0.1,0-0.1,0-0.2
		c0-0.1,0-0.2,0-0.2c0-0.1,0-0.1,0-0.2c0-0.1,0-0.1,0.1-0.2c1.1-3.3,8.5-4.3,11.3-4.7c-0.1-0.3-0.5-0.7-1-0.8c1-1.2,4.2-0.8,5.7-1.3
		c-0.3-0.4-0.9-0.7-1.3-0.9c0.8-0.7,1.7-0.9,2.7-1c0.7-0.1,1.5-0.1,2.2-0.2c1.7-0.1,3.4-0.9,5.2-1c4.3-0.2,10.7,2.7,12.8,7
		c3,6.3-2.9,10.7-8.2,10.8c-2.5,0-4.9,0.6-7.3,0.7c-1,0-2.4,0.2-3.4-0.1c0.2-0.1,0.4-0.6,0.6-0.7c-1.4-0.1-3.7-0.5-4.8-1.4
		c0.6-0.2,1.2-0.2,1.7-0.4c-0.9,0.4-3.7-2.3-4.8-2.5c-1.9-0.4-3.5,0.1-5.1,1C208.5,126.5,206.1,125.8,204.9,123.7z"/>
	<path class="st3" d="M347.2,136.5c0,11.6-32.8,21-73.2,21c-40.4,0-73.2-9.4-73.2-21c0-11.6,32.8-21,73.2-21
		C314.4,115.5,347.2,124.9,347.2,136.5z"/>
	<path class="st17" d="M345.5,128.7c0.3-0.5,0.5-1.2,0.6-1.9c0-0.1,0-0.1,0-0.2c0-0.1,0-0.2,0-0.2c0-0.1,0-0.1,0-0.2
		c0-0.1,0-0.2,0-0.2c0-0.1,0-0.1,0-0.2c0-0.1,0-0.1-0.1-0.2c-1.1-3.3-8.5-4.3-11.3-4.7c0.1-0.3,0.5-0.6,1-0.8
		c-1-1.2-4.2-0.8-5.7-1.3c0.3-0.4,0.9-0.7,1.3-0.9c-0.8-0.7-1.7-0.9-2.7-1c-0.7-0.1-1.5-0.1-2.2-0.2c-1.7-0.1-3.4-0.9-5.2-1
		c-4.3-0.2-10.7,2.7-12.8,7c-3,6.3,2.9,10.7,8.2,10.8c2.5,0,4.9,0.6,7.3,0.7c1,0.1,2.4,0.2,3.4-0.1c-0.2-0.1-0.4-0.6-0.6-0.7
		c1.4-0.1,3.7-0.5,4.8-1.4c-0.6-0.2-1.2-0.2-1.7-0.4c0.9,0.4,3.7-2.3,4.8-2.5c1.9-0.4,3.5,0.1,5.1,1
		C341.9,131.4,344.3,130.8,345.5,128.7z"/>
	<path class="st18" d="M239.8,132.9c-0.8-0.2-2.2-0.2-3.3-0.5c-0.7-0.2-1.3-0.6-1.5-1.2c-0.6-1.5,1.4-3.5,1.5-5.2
		c0.1-2.3-0.3-4.2-2-5.6c-3.5-2.9-10.8-2-14.4,0.2c-3.8,2.4-11.4,12.3-6.5,16.9c0.4-0.6,1.4-1.1,1.8-1.8c1.2,2.9,0.7,7.4,3.4,9.7
		c0-0.6,0.3-1.2,0.4-1.7c-0.7,5.2,17.3,5.6,20.1,3.3c-1.1-0.1-2.4-0.6-3.2-1.1C240.7,148.2,250.5,135.3,239.8,132.9z"/>
	<g>
		<g>
			<path class="st19" d="M215.2,112.8c1.8,3.9,3.6,6.6,6.8,8.9c3.9,2.8,6.9,6.7,10.6,9.7c8.5,6.9,18.4,10.2,28.8,11.6
				c7.7,1.1,15.7,2.1,23.5,0.7c3.5-0.6,6.8-2.1,10.4-2.7c2.8-0.4,5-1,7.5-2.7c4.8-3.3,7.6-8.4,11.5-12.6c3.3-3.6,6-7.3,5.3-12.8
				c-0.8-6.5-1.2-13-4.5-18.7c-3.4-5.7-8.9-10.7-14-14.6c-6.6-5.1-15.1-8.9-23-10.7c-15.8-3.6-35.4-5.1-50.6,2.5
				C213.2,78.7,208.3,97.4,215.2,112.8z"/>
			<g>
				<path class="st20" d="M257.2,108.4c23.4,0,43.2,11.1,49.8,26.4c-1.3,1.4-2.8,2.6-4.3,3.7c-2.5,1.7-4.7,2.2-7.5,2.7
					c-3.5,0.5-6.8,2-10.4,2.7c-7.8,1.4-15.7,0.3-23.5-0.7c-10.3-1.4-20.3-4.7-28.8-11.6c-3.7-3-6.7-7-10.6-9.7
					c-0.8-0.6-1.6-1.2-2.2-1.9C229.3,112.7,242.5,108.4,257.2,108.4z"/>
			</g>
		</g>
	</g>
	<path class="st19" d="M317.3,147.1c3.3-2.5,6-6,7.2-9.7c0.2,0.5,0.9,1.5,1,2.1c4.7-9.8-2-30.1-13-33.2c-7.1-2-15.9,3.9-11.9,13
		c1.2,2.8,3,3.3,1.1,6.5c-1.2,2-3.3,3.3-5.2,4.4c-4.2,2.3-8.9,3.2-13.4,4.5c-4.1,1.2-8,1.9-9.5,7.2c-1.4,4.8-0.1,10.4,4.6,12.1
		c4.6,1.7,10.4-1.9,14.9-2.7c2.1-0.4,15.2-1.5,16-3.3c-0.4,0.9-1.3,2.1-2.2,2.9C310.6,150.9,314.3,149.4,317.3,147.1z"/>
	<path class="st21" d="M315,106.6c-0.8-4.6-6.2-10.1-9.2-13.5c-1.6-1.8-2.8-3.4-4.1-5.5c-1.5-2.6-1.5-5.6-4.2-7.1
		c-2.4-1.3-6.6-1.9-9.3-2.4c-7.1-1.3-14.4-0.9-21.6-1.7c-1.4-0.1-2.8-0.3-4.2-0.4l0-0.1c-0.1,0-0.3,0-0.4,0c-0.1,0-0.3,0-0.4,0
		l0,0.1c-1.4,0.1-2.8,0.2-4.2,0.3c-8.5,0.7-18.1-0.2-26.3,2.2c-4.2,1.2-8.3,2.3-12.4,3.8c-1.5,0.5-3,0.9-4.3,1.7
		c-1,0.7-3.1,4.2-4.1,4.3c1.1-0.1,2.2-0.5,3.2-0.8c-2.1,0.5-6.3,10.2-4.9,11.5c0.7-0.3,1.5-0.8,2.3-1c0.1,2.4-2.2,4.8-2.7,7.3
		c-0.6,2.9-1.1,6.1-0.9,9c1.1-0.4,1.9-1.6,3.2-1.8c0.3,4.9,0.8,10.2,4.3,14.2c0.5-0.9,0.8-1.9,1.5-2.7c0,2.7,1.3,5.4,2.4,8
		c0.6,1.4,1.9,5.1,3.4,5.7c0.1-1,0.3-2,0.7-2.9c-0.6,1.4,4.9,5,5.7,5.9c2,2.3,3.9,4.7,6.5,6.3c0.1-1.3-0.1-2.8,0.7-3.8
		c1.2,1.6,4.9,4.9,6.8,5.1c0.2-1.1,0.4-2.3,0.6-3.4c1.9,1.7,3.8,3.4,6,4.5c0.3-1.5,0.7-3.1,1.4-4.4c0.2-0.4,6,4.1,6.3,5.2
		c0.4-1.2,0.8-2.7,1.5-3.6c1.3,1.6,1,3.9,2.5,5.4c1.2-2,2.2-4.2,3.7-6c-0.1,1.7,0.6,3.3,0.7,5c1.9-2.5,5.2-4.8,8-6.2
		c0.2,1.3,0,2.7-0.5,3.9c3.3-0.8,7-3.4,9.7-5.5c0.1,1.5-0.1,3-0.2,4.4c2.4-0.3,5.3-3.3,7.4-4.6c0,1.4-0.9,2.5-0.7,3.9
		c1.6-0.9,12.1-9,11.2-11.3c0.4,0.9,0.5,1.9,0.6,3c1.5-0.5,2.9-4.2,3.5-5.6c1.2-2.5,2.5-5.2,2.6-7.9c0.7,0.8,1,1.8,1.5,2.8
		c3.5-3.9,4.2-9.2,4.6-14.1c1.2,0.3,2.1,1.4,3.1,1.9C316,112.7,315.5,109.5,315,106.6z"/>
	<g>
		<path class="st18" d="M312.5,98.1c0.9,0,1.7,0.2,2.3,0.8c-1-4.8-4.9-9.5-4-14.3c0,0.2,1.2,1.1,1.4,1.3c-1.3-3.3-0.8-7.1-1.9-10.6
			c0.4,0.2,1,0.2,1.4,0.4c0-4.2-1.7-8.3-4.9-10.7c0.9-0.2,3.8-0.6,5.2-0.4c-2.6-4-15.8-13.4-20.2-13.7c1-1,3-1.4,4-1.9
			c-1.7-0.9-11.1-4.1-12.6-2.3c0.9-1.1,2.4-1.8,3.1-3.1c-1.9-0.3-4.5,0.6-6.5,0.8c-1.9,0.2-3.8,0.4-5.3,1.4c0.6-1.1,1.5-2,2.3-3
			c-3.5-0.5-8.4,1.5-11.4,3.2c-1.3-2.9-6-4.2-9-4.3c0.8,1,1.2,2.3,1.7,3.4c-2.1-0.6-3.7-2.1-5.6-3.1c-0.7-0.3-7.1-1.9-7.1-1.9
			c0.5,2.1,2.2,4.1,3.6,6c-3.2-2.7-7.3-1.5-11-1.4c-3.4,0.1-6.5-1.2-9.3,0.7c0.6-0.4,3.7,1.4,4.2,1.8c-4.9,4-10,5.4-11.9,12
			c-1.7,6.1-6.1,11.5-6.8,17.8c0.4-0.1,0.7-0.3,1.1-0.5c0,2.9-1.2,5.7-2.2,8.4c-0.8,2.4-1.1,4.9-1.6,7.5c-0.2,1-1.4,3.4-0.8,4.1
			c0.9-0.8,1.7-2.5,2.7-2.9c-1.3,0.4,2.6,13.9,3,15.1c0.5,1.5,0.9,3.4,1.7,4.8c1.6-0.9,1.5-2,2.4,0.3c0.6,1.6,1.6,3.9,2.9,5
			c0.1-1.4,0.8-3.1,1.6-4.1c0.3,1.4,1.5,2.2,2.2,3.3c0.3,0.3,2.9,3.3,2.9,3.3c0.1-0.7,0.6-1.5,0.6-2.3c0.8,1.7,2.3,1.6,3.3,2.9
			c1.3,1.6,1.5,4.1,3.1,5.5c0.3-0.9,1-1.7,1.3-2.5c0.5,2.8,3.3,8.4,6.3,8.8c0.4-1.1,0.7-2.2,1.1-3.3c2.1,1.3,4.4,4.7,6.1,6.8
			c0.2-1.1,0.9-1.9,1.7-2.7c0.8,1.5,2,3.7,3.8,3.2c1.6-0.4,1.2-2.8,3.5-2.5c-0.2,6.6,6.9,0.1,9.5,0.1c0,0.7,0.4,1.3,0.3,2
			c2-0.5,3-1.9,4.4-3.1c1.7-1.4,1.7-1.1,3.6-1.3c2.7-0.2,6.4-1.4,8-3.9c-0.5,0.8-1,1.7-1.4,2.5c3.2-0.8,5.6-4.5,9.1-5.1
			c-0.2,0.9-0.7,1.9-0.7,2.9c3.7-2.2,7.2-5.6,10-9c0.2,1.4-0.1,2.9-0.1,4.4c1.6-1.2,2.1-5.3,2.7-7.2c0.9-2.6,1.2-6.5,2.6-8.7
			c1.1,0.8,1.6,2.6,2.9,2.9C312.6,107.3,311.8,102.7,312.5,98.1z"/>
		<path class="st21" d="M285.6,104.1c0.4,0,0.7,0.1,1.1,0.1c-0.5-1.4-1.7-3.1-2.7-4.3c-3.6-4.3-7.7-9-13.8-9.6
			c-3.3-0.4-6.7,0.1-10.1-0.3c-4.3-0.6-8.8,0.2-12.8,1.6c-1.7,0.6-3.1,1.4-4.5,2.5c-2.5,1.9-6.5,6.2-6.4,9.6c0.6-0.1,1.3-0.5,2-0.4
			c0.1,1.1-0.6,2-1,3c-0.5,1.4-0.7,2.9-0.9,4.3c-0.3,2.3-0.1,4.2,0.4,6.4c0.2-0.3,0.7-0.6,0.9-0.8c0.9,1.9,1.5,5.6,3.5,6.8
			c0.2-0.5,0.4-1,0.6-1.4c0.8,1.3,2.2,3.6,3.7,4c0.2-0.5,0.3-1,0.7-1.5c-0.5,0.7,3.7,3.6,4.3,4c0.6-0.7,1.1-1.6,1.6-2.4
			c0.9,1.2,1.7,3.5,3.2,4.1c0.2-0.6,0.5-1.6,0.8-2.1c1.1-1.5,4.1,1.6,4.9,2.8c0.9-0.6,1.7-2,2.9-2.2c1.4-0.2,1.2,1,1.8,2
			c1.2-0.6,2.4-1.7,3.4-2.7c0.4,0.9,1.3,1.7,1.4,2.6c0.1,0.8,4.2-2.6,4.5-3c0.9-1,2.6-3.7,3.3-1c0.6-0.6,1.1-1.4,1.5-2.1
			c2.2-3.6,4.6-7.2,5.7-11.2c0.5-1.6,0.6-8.7-1.7-9.2C284.4,103.9,285,104,285.6,104.1z"/>
		<path class="st6" d="M273.8,93c0.1,9.7-25,8.4-24.1-0.9c0.5-5.2,8.7-4.3,12.3-4.4C265.6,87.7,273.8,87.9,273.8,93z"/>
		
			<ellipse transform="matrix(0.9991 -4.311769e-02 4.311769e-02 0.9991 -3.7058 11.189)" class="st5" cx="257.5" cy="91.5" rx="5.4" ry="2.3"/>
		<path class="st21" d="M291.7,50.9c1-1,3-1.4,4-1.9c-1.7-0.9-11.1-4.1-12.6-2.3c0.9-1.1,2.4-1.8,3.1-3.1c-1.9-0.3-4.5,0.6-6.5,0.8
			c-1.9,0.2-3.8,0.4-5.3,1.4c0.6-1.1,1.5-2,2.3-3c-3.5-0.5-8.4,1.5-11.4,3.2c-1.3-2.9-6-4.2-9-4.3c0.8,1,1.2,2.3,1.7,3.4
			c-2.1-0.6-3.7-2.1-5.6-3.1c-0.7-0.3-7.1-1.9-7.1-1.9c0.5,2.1,2.2,4.1,3.6,6c-3.2-2.7-7.3-1.5-11-1.4c-3.4,0.1-6.5-1.2-9.3,0.7
			c0.6-0.4,3.7,1.4,4.2,1.8c-3.5,2.9-7,4.4-9.5,7.4c0.3-0.2,0.7-0.3,1-0.4c2.8-0.8,6-0.3,8.8-1.4c-0.8,0.3-1.2,0.9-1.7,1.2
			c4,0.1,8.1-1.6,12.1-1.2c-0.5,0.4-0.9,1.4-1.2,1.8c1.4-1.6,8.1-0.5,9.9-0.2c-1,0.5-1.8,1.4-2,2.6c2.7-0.9,5.5-2.5,8.4-2.1
			c-1.1,1.3-2.3,2.6-3.2,4.2c2,0,3.7-2.1,5.8-2c-0.1,1.8-1.1,4.2-0.5,5.8c1.8-1.3,2.8-3.4,4.6-4.6c0.7,1.9,2.9,4.3,4.5,5.2
			c0.3-1.8,0.4-3.6,0.9-5.3c1.3,1.6,3.7,3.3,5.6,4.1c1.6-1.5,0.1-3.6,0.2-5.5c2.1,1.1,4.5,3.6,7.1,3.6c-0.1-1.5-1.2-2.7-1.8-4.1
			c0.3,0.8,9.9,1.4,11.2,1.5c3.3,0.3,7.4,0.1,10.5,1.5c1.6,0.7,2.8,1.6,4.2,2.3C304.5,57.7,295.9,51.2,291.7,50.9z"/>
		<g>
			<g>
				<path class="st17" d="M309.2,54.5c-0.1,0-0.3,0-0.4,0c-3.3-0.3-6.6-0.7-9.8-0.9c-3.5-0.1-7.6-0.4-10.8,1.3
					c-1.1,0.6-3.4,2.3-3.1,3.9c0.2,1.1,5.8,3,6.1,2.5c-0.2,0.3-0.6,0.6-0.9,0.9c0.1-0.1,6.6,1.1,7.4,1.2c-0.1,0.2,0,0.4-0.1,0.5
					c3.1,0.8,7.1-0.9,9.9-2c1.8-0.7,5.4-2.4,6.4-4.2C315.7,55,311.4,54.6,309.2,54.5z"/>
			</g>
			<path class="st22" d="M309.9,58.2c0.6,0.2,1.4,0.4,0.6,1c-0.8,0.6-2.1,0.9-3,1.3c-1,0.4-4.9,1.7-5.8,2c-1.1,0.3-2.5,0.2-3.6-0.1
				c-1.1-0.3-4.9-1.1-4.1-2.2c0.8-1.1,2.5-1.7,4.1-1.9c1.3-0.2,2.7-0.3,4-0.4C305,57.7,309.8,58.2,309.9,58.2z"/>
		</g>
		<g>
			<g>
				<path class="st17" d="M224.3,45.8c0.1,0,0.3,0,0.4,0.1c3.3,0.5,6.6,0.8,9.8,1.5c3.4,0.7,7.5,1.4,10.2,3.8c1,0.9,2.7,3.1,2,4.5
					c-0.5,1.1-6.4,1.5-6.6,1c0.1,0.4,0.4,0.7,0.6,1c-0.1-0.1-6.7-0.5-7.5-0.6c0,0.2,0,0.4-0.1,0.5c-3.2,0.1-6.7-2.6-9.1-4.3
					c-1.6-1.2-4.7-3.6-5.3-5.6C217.9,44.7,222.2,45.4,224.3,45.8z"/>
			</g>
			<path class="st22" d="M222.8,49.2c-0.6,0-1.5,0.1-0.8,0.8c0.6,0.8,1.8,1.4,2.6,2c0.8,0.6,4.3,2.8,5.2,3.3c1,0.6,2.4,0.8,3.5,0.8
				c1.1,0,5,0.1,4.5-1.2c-0.5-1.2-2.1-2.2-3.5-2.9c-1.2-0.5-2.5-0.9-3.8-1.3C227.7,49.9,222.9,49.2,222.8,49.2z"/>
		</g>
		<path class="st6" d="M251.6,81c-1,0.4-2.3,0.4-3.1,0.3c-1.2-0.1-2.5-0.2-3.7-0.4c-1.6-0.2-3.3-0.4-4.9-0.5
			c-2.2-0.2-4.6-0.2-6.7-0.8c0.5,0.1,2.7-1.8,3-2.2c-1.2-0.5-2.3-1.3-3.2-2.3c2.4,0.6,5.3,0.6,7.7,0.9c3.1,0.5,6.1,0.9,9.2,1.3
			c1.2,0.2,3.2,0,3.3,1.5C253.2,80,252.5,80.6,251.6,81z"/>
		<path class="st6" d="M276.2,83.7c0.8,0.7,2,1.1,2.8,1.3c1.2,0.3,2.4,0.6,3.6,0.9c1.6,0.3,3.2,0.7,4.8,1.1c2.1,0.5,4.3,1.3,6.6,1.5
			c-0.5,0-1.9-2.6-1.9-3.1c1.3-0.1,2.6-0.5,3.8-1.2c-2.5-0.2-5.1-1.2-7.5-1.6c-3-0.5-6-1.2-9-1.7c-1.2-0.2-2.9-1-3.6,0.3
			C275.1,82.2,275.5,83.1,276.2,83.7z"/>
		<path class="st21" d="M303.8,89c0.8,0.7,1.7,1.2,2.7,1.1c1.2-4.5-2.3-10.6-5.1-14c-3.1-3.8-7.4-6.6-12.2-7.9
			c-7.1-1.9-17.8-0.6-16.8,9.3c2.9-2.2,2.5,4,4.9,5.3c0.3-0.8,1-1.6,1.4-2.2c0.7,1.5,1.6,3.7,3.6,3.8c0.1-0.8,0.6-1.4,0.8-2.1
			c2.3,0.8,3.6,4.1,5.8,5.3c0-0.9,0.3-1.6,0-2.5c0.8,2.5,4.8,5.1,7.5,4.7c0-0.2-0.1-0.5,0-0.6c1,1,2.3,1,3.6,1.2
			c1.2,0.2,2.5,0.8,3.7,0.8C304.3,90.4,304.3,89.6,303.8,89z"/>
		<path class="st21" d="M221.6,79.9c-0.9,0.5-1.9,0.8-2.9,0.4c-0.1-4.6,4.7-9.8,8.1-12.4c3.9-3,8.7-4.8,13.7-4.9
			c7.4-0.2,17.4,3.5,14.2,12.9c-2.3-2.9-3.3,3.4-6,4c-0.1-0.8-0.6-1.7-0.9-2.4c-1,1.3-2.4,3.2-4.4,2.8c0.1-0.8-0.3-1.5-0.3-2.3
			c-2.4,0.3-4.5,3.2-6.8,3.8c0.2-0.8,0.1-1.6,0.5-2.4c-1.4,2.3-5.9,3.8-8.3,2.8c0-0.2,0.2-0.4,0.2-0.6c-1.2,0.8-2.4,0.4-3.8,0.3
			c-1.3-0.1-2.6,0.2-3.8,0C220.8,81.2,221,80.4,221.6,79.9z"/>
	</g>
	<path class="st18" d="M294.8,146.5c0.2,4.2-1.6,9.9-6.5,10.3c-1.6,0.1-3-0.2-4.4,0c-1.5,0.3-2.3,1.5-4.3,1.1
		c-1.5-0.3-2.2-1.4-3.5-1.6c-1.6-0.3-2.8,1.2-4.5,0.5c-3-1.3-2.8-4.7-2-7.2c-0.8,0.5-1.8,0.4-2.5,0.7c0.2-2.2,1.3-4.6,2.9-6.3
		c-0.8,0.2-2-0.2-2.9-0.1c1.3-4.3,10.2-7.6,14.3-7.8C288.6,135.7,294.5,140.3,294.8,146.5z"/>
	<g>
		<g>
			<path class="st15" d="M280.9,105.9c-1,0-2,0.3-2.8,0.6c-3.6,1.4-6.1,4.8-9.5,6.5c-1.5,0.7-3.1,1.6-4.8,1.5
				c-1.4-0.1-2.8-0.7-4.1,0.1c-0.9,0.6-2.3,1-3.1,1.8c0.9,1.2,3.3,1,4.5,0.7c1.6-0.4,3.1,0,4.8,0.3c3.5,0.7,6.3-1.6,8.8-3.7
				c1.5-1.2,3.3-2,5-2.8c1.2-0.6,3.6-1.2,4-2.6c0.3-1.1-0.6-1.9-1.6-2.2C281.8,105.9,281.3,105.8,280.9,105.9z"/>
		</g>
		<path class="st6" d="M255.6,117c-1.1,0-2.1-0.2-2.9-0.4c-2-0.5-3.4-1.5-4.6-2.4c-1.3-1-2.9-2.5-3.5-4.2c-0.2-0.6,0.1-1.2,0.7-1.4
			c0.6-0.2,1.2,0.1,1.4,0.7c0.4,1.2,1.7,2.3,2.8,3.2c1.4,1.1,2.5,1.7,3.8,2.1c1.1,0.3,2.7,0.5,4,0.1c1.1-0.3,1.9-1,2.9-1.9l0.5-0.4
			c0.3-0.2,0.6-0.3,1-0.2c0.3,0.1,0.6,0.4,0.7,0.7c0.1,0.3,0.3,0.5,0.6,0.7c0.8,0.4,2.3,0.4,3.2,0c1.7-0.5,3.3-1.6,4.8-2.7
			c0.6-0.4,1.1-0.8,1.7-1.2c0.8-0.5,1.5-1.2,2.2-1.8c1.8-1.8,3.7-3.6,7.9-2.4c0.6,0.2,0.9,0.8,0.7,1.3c-0.2,0.6-0.8,0.9-1.3,0.7
			c-3-0.9-4.1,0.2-5.8,1.8c-0.7,0.7-1.5,1.5-2.5,2.1c-0.6,0.4-1.1,0.7-1.6,1.1c-1.7,1.2-3.4,2.4-5.4,3c-1.3,0.4-3.4,0.6-4.9-0.2
			c-0.3-0.2-0.6-0.4-0.9-0.6c-0.9,0.8-1.9,1.5-3.2,1.9C257.1,116.9,256.4,117,255.6,117z"/>
	</g>
</g>
<g>
	<path class="st23" d="M77.8,106.7c-1.2,1-5.2,4.2-6.7,1.7c-1.1-1.8,1.7-4.4,3.1-5.2c2.5-1.6,4.8-4.1,7.1-6
		c-0.1,1.3-0.5,2.2-1.2,3.4c0.6-0.1,1.2-0.4,1.7-0.8C81.8,102.7,80.1,104.8,77.8,106.7z"/>
	<g>
		<path class="st24" d="M30.8,120.9c1.4-1.3,3.4-3.7,5.4-3.8c1.6-0.1,4.2,0.2,5.2,1.4c1.1,1.1,1.6,4.3,0.6,5.5
			c-0.8,0.8-3.4,1.6-4.4,2.2c-0.9,0.7-1.5,1.7-1.9,2.8c-0.3,1-1,4.8-0.6,5.4c-1-0.8-2-1.8-2.4-3c-0.1,0.8-0.1,1.7,0,2.5
			c-0.9-0.9-1.4-1.9-1.8-3c-0.2,0.8-0.2,1.7-0.2,2.6c-0.7-1-1.6-2-2.3-3.1c-0.2,0.6-0.3,1.2-0.4,1.8c-0.4-0.6-0.7-1.3-0.8-2.9
			c0-1.1,0-2.1,0.3-3.1C28.2,124.2,29.3,122.3,30.8,120.9z"/>
		<path class="st24" d="M73.3,129.1c0.3,0.1,0.5,0.1,0.7,0c-0.2-0.7-0.8-1.3-1.3-1.9c0.4,0.5,1.6,0.7,2,0.2
			c-1.2-0.8-1.9-1.8-2.3-3.3c-0.3-1.4-0.3-2.9-0.7-4.3c-0.4-1.6-1.2-3.1-2.2-4.5c-1.4-2-3.2-3.7-5.2-4.7c-1.6-0.8-4.6-1.7-6.1-0.6
			c-0.5,0.4-1,1.3-1.4,1.8c-0.7,0.8-1.2,1.8-1.5,2.9c-0.5,1.9-0.3,4.3,1,5.8c0.5,0.7,1.2,1.2,1.9,1.6c0.7,0.5,1.5,0.8,2.3,1
			c1.3,0.3,2.8,0,3.9,0.8c1.1,0.8,1.5,2.2,2.1,3.4c0.7,1.5,1.3,3,2.4,4.3c0-0.7-0.2-1.4-0.2-2.1c0,0.3,1.6,1.3,1.9,1.5
			c0.2-0.7,0-1.3-0.5-1.8c0.8,0.5,1.8,0.7,2.7,0.5c-0.4-0.3-0.6-0.8-1-1.2C72.3,128.8,72.8,129,73.3,129.1z"/>
		<path class="st24" d="M74.4,105.7c2.9,2.1,4.2,6,2.9,10c-1.2,3.6-6.2,10.9-10.1,7.4c0.4,0.4,0.4,0.7,0.6,1.1
			c-1.2,0.2-3.2-0.2-4.3-1c-0.1-0.1-0.1-0.1,0,0c0.2,0.4,0.5,1.1,0.4,1.5c-1.1-0.2-2.2-0.7-3.3-1.2c0.2,0.5,0.4,1.1,0.7,1.6
			c-1.5-0.1-3-0.5-4.5-1c0.2,0.6,0.5,1.2,0.7,1.7c-0.9-0.3-1.9-0.6-2.8-1c0.1,0.5,0.1,1,0.2,1.5c0,0.1-3.7-0.3-4.1-0.4
			c-1.5-0.3-2.9-0.7-4.3-1.3c-1.2-0.5-1.7-0.8-2.4-2c-0.7-1.3-1.3-2.6-2.1-3.8c-3-4.9-1.5-11.7,2.3-15.3c1.7-1.6,3.8-3,5.9-3.4
			c1.8-0.4,2.8,0.8,4.4,1.2c1.6,0.5,3.2-0.3,4.8-0.5c-0.4,0.8-1,1.6-1.4,2.4c1.8,0.2,3.4-0.8,5.2-0.8c-0.3,0.4-0.6,1.1-0.9,1.5
			c1.8-0.1,3.7-0.7,5.6-1c-0.3,0.2-0.7,0.9-1,1.1C69.5,104.9,71.9,103.8,74.4,105.7z"/>
		<path class="st25" d="M84.7,129.8c0.3,0.1,0.6,0.1,0.9,0.1c-0.3-0.8-0.9-1.5-1.5-2.2c0.5,0.6,1.9,0.8,2.3,0.3
			c-1.4-0.9-2.3-2.1-2.7-3.7c-0.4-1.6-0.4-3.3-0.8-4.9c-0.5-1.8-1.4-3.5-2.5-5.1c-1.6-2.2-3.7-4.2-6.1-5.4c-1.8-0.9-5.3-2-7.1-0.7
			c-0.6,0.4-1.1,1.4-1.6,2c-0.7,0.9-1.4,2-1.7,3.2c-0.6,2.2-0.2,4.8,1.3,6.6c0.6,0.8,1.4,1.3,2.2,1.8c0.9,0.5,1.8,1,2.7,1.2
			c1.5,0.3,3.2,0,4.5,0.9c1.3,0.9,1.7,2.6,2.4,3.9c0.9,1.7,1.6,3.4,2.8,4.9c0-0.7-0.3-1.5-0.3-2.3c0,0.4,1.9,1.5,2.2,1.7
			c0.2-0.8-0.1-1.4-0.6-2.1c1,0.6,2,0.8,3.1,0.6c-0.5-0.4-0.7-0.9-1.2-1.4C83.6,129.4,84.2,129.7,84.7,129.8z"/>
		<path class="st25" d="M40.1,124.6c0.9-1.8,3-2.6,5-3.2c1-0.3,2.6-1.1,3-2.3c0.6-1.7-1-3.2-0.1-5.1c0-0.1,0.1-0.2,0.1-0.3
			c0.1-0.1,0.1-0.3,0.2-0.4c0.7-1.1,1.8-2,3-2.2c2-0.3,4.2,0.8,4.8,2.8c0.2,0.6,0.4,1.5,0.4,2.1c0.1,1.5-0.1,3.1-0.4,4.5
			c0,0,0,0,0,0.1c-0.5,2-1.5,3.7-3.7,4.4c-1.7,0.6-5.9,0.6-5.7,3.3c0,0.3,0.2,0.7,0.4,1c0.4,0.9,0.8,1.5,0.1,2.5
			c-0.4,0.6-1.1,1-1.8,1.2c-0.7,0.3-1.5,0.5-2.3,0.4c-2.1-0.2-2.6-2.3-3-3.9C39.6,127.9,39.3,126.1,40.1,124.6z"/>
		<path class="st26" d="M52.2,109.3c-1,2.4-1.1,5.6,1.4,6.7c1,0.5,2.1,0.9,3.2,1.4c1.2,0.6,2.5,0.3,3.7,0.8c0.9,0.4,1.6,1.4,2.6,1.8
			c0-0.9-0.1-1.7-0.2-2.6c1.3,1,2.7,1.5,4.1,1.9c0-0.8-0.2-1.6-0.4-2.3c1.4,0.3,3.2,1.3,4.5,1.3c-0.1-0.6-0.4-1.2-0.5-1.8
			c0.9,0.8,2.7,1.3,3.9,1.3c-0.2-0.8-0.8-1.6-0.9-2.5c1.1,0.9,2.9,1.3,4.2,1.6c-0.1-0.5-0.5-1.7-0.8-2.1c0.6,0.8,3.8,1.3,4.7,1.4
			c-0.2-6-4.5-8.8-10.2-10.5c-3.8-1.1-7.8-1.1-11.6-1C56.4,104.9,53.9,105.2,52.2,109.3z"/>
		<path class="st26" d="M53.1,104.5c-0.7,0.1-1.4,0.4-2,0.9c-0.5,0.4-0.7,1-1.1,1.4c-0.9,0.9-2.3,0.6-3.4,1c-1.7,0.6-3.2,1-4.6,2.2
			c-1.4,1.2-1.6,2.1-1.9,3.8c-0.3,1.4-0.7,2.7-0.7,4.1c0,0.7,0.1,1.4,0.1,2.1c0,0.6-0.3,1.4-0.1,2c0.4-0.7,1.2-1,1.6-1.7
			c0.2,0.8,0.5,2.4,1.1,2.9c0.2-0.7,0.4-1.6,0.8-2.3c0.2,0.5,0.5,1,0.9,1.4c0.1,0.1,1.2,0.8,1.2,0.7c-0.1-0.8,0-1.7,0.3-2.4
			c0.8,1,2.1,1.8,3.3,2.2c0-0.9-0.3-1.6-0.5-2.4c0.9,1,3,1.3,4.1,1.8c0-0.8-0.2-1.6-0.3-2.4c1.2,0.6,3,0.7,4.1,1.5
			c-0.1-0.7-0.5-1.3-0.9-1.9c-0.1-0.1-0.1-0.1,0,0c1,0.6,2.2,1.4,3.4,1.4c-0.1-0.4-0.2-0.9-0.6-1.2c0.6,1,1.9,1.1,2.9,1.3
			c0.2-4.5,0.9-11.7-2.3-15.1C56.7,104.2,55.2,104.2,53.1,104.5z"/>
		<path class="st23" d="M80.2,110.2c-0.5-2.2-2.8-4.1-5.3-5.3c-2.8-1.3-5.1-1.1-8.1-1c0.3-0.2,0.7-0.8,1-1.1c-1.8,0.3-3.7,0.9-5.6,1
			c0.3-0.4,0.6-1.1,0.9-1.5c-1.8,0-3.4,1-5.2,0.8c0.4-0.8,1-1.6,1.4-2.4c-1.6,0.3-3.2,1-4.8,0.5c-1.2-0.4-2.1-1.1-3.2-1.3
			c-1.1,1.7-1,3.9,0.4,5.6c0.5,0.6,5.6,3.6,5.3,4.3c0.2-0.6,0.1-1.2,0.1-1.9c1.3,0.8,2.7,1.2,3.9,1.8c-0.2-0.6-0.4-1.1-0.6-1.7
			c1.2,0.9,2.9,1.7,4.3,1.8c0-0.6-0.1-1.2-0.2-1.8c1.1,0.8,3.4,1.2,4.7,1.2c-0.1-0.4,0-1-0.1-1.4c1.3,0.6,4,1.3,5.1,2.3
			c0-0.6-0.1-2-0.5-2.4c0.8,0.7,1.8,0.9,2.8,1.3C77.4,109.6,79.6,110,80.2,110.2z"/>
		<g>
			<path class="st27" d="M53,97.3c3.3,2.6,2.7,8.9-1.3,14c-4,5.2-10,7.3-13.3,4.7c-3.3-2.6-2.7-8.9,1.3-14
				C43.7,96.8,49.7,94.7,53,97.3z"/>
			<g>
				<g>
					<path class="st24" d="M20.2,94.8c2,2.2,5.2,4,7.9,4.4c3.5,0.6,6.3-1.1,7.2-4.5c1.5-5.9-2.4-11.2-7.6-13.7
						c-1.4-0.7-2.9-1.1-4.3-1.6c-1.1-0.4-2.1-1.2-3.2-1.7c0,0.7,0.5,1.4,0.7,2.1c-0.6-0.3-1.1-0.8-1.7-1.2c-0.2,1.5-1.2,3-1.4,4.6
						c-0.3,1.7-0.1,3.6,0,5.3c0.1,1.7,0.4,3.3,1.3,4.8C19.4,93.8,19.8,94.3,20.2,94.8z"/>
				</g>
				<path class="st25" d="M23,119.6c1.8,0.9,3.7,1.5,5.6,1.7c6.8,0.7,13.1-2.5,16.8-7.9c0,0.8-0.1,1.7,0,2.6
					c1.6-1.8,2.3-4.7,3.8-6.3c0.1,0.5,0.4,1,0.4,1.6c-0.1-1.4,1.5-3.9,1.8-5.5c0.5,0.9,0.7,2,0.9,3c0.4-1.7,0.6-3.8,0.7-5.6
					c0.3,0.4,0.7,0.7,0.9,1.2c0.3-2.1-0.3-4.1-0.3-6.3c0.3,0.3,0.8,0.4,1.1,0.6c-0.6-3.8-2.6-7.2-4.3-10.5c-2.4-4.6-5.5-3.1-9.5-3.2
					c0.8-0.9,0.4-1.8,1.2-2.7c-1.8,0.7-4.4,1.8-5.8,3.3c-0.5-1.2-1.6-2.1-3-2.3c0.2,0.9,0.5,1.8,0.6,2.7c-3.1,1.3-8.2,2.6-9.5,6.2
					c0.5,0,2.1-0.3,2.4-0.7c-0.7,1-1.5,1.7-2.2,2.9c-0.6,1.2-0.8,2.6-1.3,3.8c-0.7,1.6-1.8,3.8-2.9,5.1c0.5-0.2,1.1-0.2,1.5-0.4
					c-0.7,2.2-1.7,4-2.9,5.9c-2.1,3.2-3.7,5.1-0.5,8.1C20.1,117.8,21.5,118.8,23,119.6z"/>
				<path d="M36.8,101.1c0.4,1.6-0.4,3.2-1.7,3.5c-1.4,0.4-2.8-0.7-3.2-2.2c-0.4-1.6,0.4-3.2,1.7-3.5C35,98.5,36.4,99.5,36.8,101.1z
					"/>
				<path class="st5" d="M34.1,101.3c0.5,0.6,1.2,0.9,1.7,0.6c0.4-0.3,0.4-1.1,0-1.8s-1.2-0.9-1.7-0.6
					C33.6,99.9,33.6,100.7,34.1,101.3z"/>
				<path d="M26.5,102.9c0.3,1.3-0.2,2.5-1.1,2.7c-0.9,0.2-1.8-0.6-2.1-1.9c-0.3-1.3,0.2-2.5,1.1-2.7
					C25.2,100.7,26.2,101.6,26.5,102.9z"/>
				<path class="st5" d="M24.6,102.9c0.4,0.5,0.9,0.7,1.2,0.5c0.3-0.2,0.3-0.8-0.1-1.3c-0.4-0.5-0.9-0.7-1.2-0.5
					C24.2,101.8,24.2,102.4,24.6,102.9z"/>
				<path class="st25" d="M41.4,109.4c-2.8-3.6-9.4-3-14.5-1.8l0,0c0,0-0.1,0-0.1,0c0,0-0.1,0-0.1,0l0,0c-5,1.4-11,4.1-11.7,8.6
					c-0.2,1.5,1.5,3.5,2.6,4.5c1,1,2.3,1.7,3.6,2.2c0.4,0.2,3,0.7,3.2,1.1c-0.2-0.4-0.2-1-0.3-1.4c1.1,0.6,2.2,1.3,3.5,1
					c-0.2-0.3-0.1-0.8-0.3-1.2c1,0.5,2.1,0.7,3.1,0.9c0.1-0.3,0.2-0.6,0.3-1c0.2,0.3,0.5,0.5,0.8,0.7c0.8-0.7,1.7-1.4,2.3-2.3
					c0,0.4,0.3,0.8,0.3,1.2c1.3-0.3,1.9-1.5,2.6-2.5c0,0.4,0.3,0.9,0.4,1.4c0-0.4,2-2.1,2.3-2.5c0.9-1.1,1.7-2.4,2.1-3.7
					C41.8,113.1,42.4,110.5,41.4,109.4z"/>
				<path d="M29.6,115.9c0.3,0.3,0.5,0.7,0.6,1.2c0.2,1-0.9,2-1.7,2.5c-1.1,0.6-2.5,0.8-3.7,0.5c-1-0.3-2.5-1.1-2.8-2.1
					C21.1,115,27.5,113.7,29.6,115.9z"/>
				<path class="st9" d="M23.1,118.3c0.5,0.8,1.8,1.3,3,1.2c0.7-0.1,1.4-0.3,2-0.8c0.5-0.4,1.2-1.1,1.3-1.8
					c-0.9,0.4-1.9,0.6-2.8,0.3c-0.5-0.1-1.2-0.3-1.7-0.2c-0.4,0.1-0.3,0.3-0.7,0.5C24.1,117.6,23.1,118.3,23.1,118.3z"/>
				<path class="st26" d="M15.4,112.8c0.1-0.1,0.2-0.3,0.3-0.4c2-2.4,4.5-4.6,7.7-4.6c1.1,0,3.8,0.8,3.4,2.5
					c-0.3,1.3-2.3,0.9-3.1,1.6c-1,1-1.1,3.8-1,5.4c0.1,1.4,0.2,3.6,0.8,5c-0.8-0.8-1.5-1.8-2-2.8c-0.1,0.7,0.1,2,0.2,2.8
					c-1-0.7-2.1-2.4-3.3-2.8c0.2,0.9,0.2,1.8,0.3,2.7c-0.9-0.6-1.6-1.4-2.2-2.8c-0.2,1.1-0.2,2.3-0.1,3.4c-0.6-1-0.8-2.2-1.5-3.2
					c-0.5,0.6-0.9,1.5-1.4,2.1C12.7,118.5,13.6,115.2,15.4,112.8z"/>
				<path class="st26" d="M29.8,115.6c0.9-0.3,1.9,0.1,2.8,0.1c-2-1.1-3.4-4.4-5.8-4.6c-1.5-0.2-2.9,0.1-4.3,0.6
					c-1.4,0.3-2.8,0.7-4,1.6c-2,1.4-1.6,4.9-2.8,6.9c0.8-0.4,1.6-1.3,2.4-1.5c-0.1,0.3,0,0.7-0.1,1.1c0.8-0.3,1.3-1.3,2.2-1.6
					c0.1,0.4,0.1,0.9,0.1,1.3c0.8-0.6,1.1-1.7,2-2.1c0,0.3,0.3,0.6,0.3,0.9c0.3-0.2,0.9-0.8,1.3-1.1c0.5,0,1.3,0.3,1.7,0.3
					c-0.1-0.3-0.1-0.7-0.2-0.9c1,0,1.8,0.8,2.8,0.9c-0.2-0.4-0.4-0.8-0.5-1.2c0.9-0.1,1.8,0.6,2.7,0.4
					C30.1,116.2,30,115.8,29.8,115.6z"/>
				<path class="st26" d="M23.5,100.7c0.4-0.3,0.9-0.5,1.4-0.6c0.7-0.1,3.5,0.1,3.9,1c-0.4-0.8-1-1.7-1.6-2.4c0.5,0,1,0.2,1.4,0.5
					c-0.4-0.6-0.9-1.4-1.3-2.1c0.6-0.1,1.2,0.3,1.8,0.5c-0.2-0.1-0.7-1.4-0.9-1.6c-1.9-3.1-4.7-4.4-7.2-2.6c-0.9,0.7-1.9,1.7-2.5,3
					c-1.3,2.7-1.1,7.6-0.8,11c0.1,0.9,0.2,1.8,0.3,2.6c0.1-1.7,0.5-3.7,1.1-5.1c0.1,1.5,0.2,3.1,0.7,4.4c-0.3-0.7,0.3-2.8,0.5-3.4
					c0.3-1.1,0.7-2,1.2-2.9C22.1,102.2,22.7,101.3,23.5,100.7z"/>
				<g>
					<path class="st25" d="M36.7,82.7c-0.3,0.7-0.3,3.5-1.2,3.9c-0.8,0.3-0.9-0.8-0.8-1.3c0.1-1.7-0.3-2.8-1.1-4.3
						c-0.7-1.2-1.9-2.8-3.3-3.3c1.5,0.8,3.2,1.1,4.3,2.5c0.1-0.8-0.3-2.1-0.5-2.7c0.8,0.8,1.6,1.7,1.9,2.8c0.4-1.7,2.8-2.2,4.3-2.7
						C38.9,78.9,37.3,81,36.7,82.7z"/>
					<g>
						<path class="st27" d="M29.8,88c0.8,1.5,6-1.3,5.2-3c-0.3-0.6-4.1-3.4-4.7-3.1C29.1,82.5,29.2,86.9,29.8,88z"/>
						<path class="st27" d="M41.6,86.9c-0.5,1.6-6.1-0.2-5.7-2c0.2-0.7,3.5-4.1,4.1-3.9C41.3,81.4,42,85.7,41.6,86.9z"/>
						<path class="st27" d="M37.2,85c0.1,1.3-0.5,2.4-1.5,2.5c-0.9,0.1-1.8-0.9-1.9-2.2c-0.1-1.3,0.5-2.4,1.5-2.5
							C36.2,82.7,37.1,83.7,37.2,85z"/>
					</g>
				</g>
				<g>
					<path class="st25" d="M55.3,87.5c-1,2.8-3.4,5.6-5.7,7c-3,1.8-6.3,1.3-8.4-1.6c-3.6-5-1.9-11.3,2.1-15.5c1.1-1.1,2.3-2,3.4-3.1
						c0.9-0.8,1.5-1.9,2.3-2.7c0.2,0.7,0.1,1.5,0.1,2.2c0.4-0.5,0.8-1.1,1.2-1.7c0.7,1.4,2.2,2.3,3,3.7c0.9,1.5,1.4,3.3,1.9,5
						c0.5,1.6,0.8,3.2,0.6,4.9C55.7,86.3,55.6,86.9,55.3,87.5z"/>
					<path class="st24" d="M53,88.1c-0.6,1.3-1.6,2.5-2.3,3.7c-0.5-0.7-0.9-1.4-1.5-2c0,0.6,0.1,1.3,0.1,2c-0.8-0.7-1.6-1.6-2.4-2.4
						c-0.2,0.6-0.3,1.2-0.5,1.7c-0.8-0.7-1.5-1.6-2.2-2.3c-0.7,0.5-0.9,1.5-1.5,2c-0.8-1.8-1.1-3.8-0.7-5.8c0.9-4,3.5-6.2,6.4-9
						c0.1,0.8,0.3,1.8,0.1,2.5c0.6-0.4,0.9-1.3,1.4-1.8c0.1,0.7,0.3,1.6,0.4,2.3c0.2-0.4,0.3-0.9,0.5-1.3c0.4,1.2,1.5,2,1.9,3.3
						c0.4,1.3,1,2.6,1,3.9C53.8,86,53.5,87.1,53,88.1z"/>
				</g>
				<path class="st26" d="M36.8,98c-0.6-0.1-1.3-0.1-1.9,0c-0.8,0.2-4.1,1.5-4.2,2.5c0.1-0.9,0.5-2,0.9-2.8
					c-0.6,0.2-1.1,0.5-1.5,1.1c0.2-0.7,0.4-1.6,0.6-2.4c-0.8,0.2-1.3,0.7-1.9,1.2c0.2-0.1,0.3-1.5,0.3-1.8c1-3.7,3.8-5.9,7.5-5.2
					c1.4,0.3,3,0.9,4.2,1.8c2.7,2,4.6,6.6,5.7,9.9c0.3,0.9,0.5,1.7,0.8,2.5c-0.9-1.5-2.1-3.3-3.5-4.3c0.6,1.4,1.1,2.9,1.1,4.4
					c0-0.8-1.6-2.4-2.1-2.9c-0.8-0.9-1.7-1.5-2.7-2.2C39.1,98.8,38,98.2,36.8,98z"/>
				<path class="st26" d="M35.3,108.7c-0.2-0.1-0.3-0.1-0.5-0.2c-3.4-1.1-7.3-1.7-10.6-0.1c-1.1,0.5-3.5,2.7-2.1,3.9
					c1.1,1,2.9-0.4,4.2-0.2c1.6,0.3,3.3,2.8,4,4.1c0.7,1.3,1.8,3.2,2,4.7c0.4-1,0.5-2.3,0.5-3.4c0.5,0.6,1,1.8,1.3,2.6
					c0.7-1.1,0.9-3.2,1.9-4.1c0.3,0.8,0.8,1.7,1.2,2.5c0.6-1-0.1-2.5,0.7-3.6c0.8,0.8,1.5,1.9,2,2.9c0.1-1.1-0.4-2.3-0.2-3.5
					c0.9,0.3,1.8,0.9,2.7,1.1C41.2,112.3,38.4,109.9,35.3,108.7z"/>
				<path d="M19.9,110.7c1-0.2,2.1-0.2,2.5,0.2c2,1.7-1.5,5.3-3.9,3.6C16.4,112.9,17.6,111.1,19.9,110.7z"/>
				<path class="st5" d="M21,112.8c0.8,0.1,1.4-0.2,1.5-0.6c0.1-0.4-0.5-0.9-1.3-1c-0.8-0.1-1.4,0.2-1.5,0.6
					C19.7,112.2,20.3,112.7,21,112.8z"/>
			</g>
		</g>
		<path class="st25" d="M40,124.5c0.8-1.7,2.1-3.2,4-4c1.4-0.6,3.1-0.9,4.6-0.2c1.4,0.7,2.4,2.4,1.9,3.9c-0.4,1.1-1.4,1.8-2.1,2.7
			c-0.6,1-0.8,2.2-0.7,3.3c0.1,1.1,0.5,2,0.6,3.1c0.1,0.6,0.2,1.8,0.8,2.1c-1.1-0.6-2.4-1.1-3.3-1.9c0.2,0.8,0.5,1.6,1,2.3
			c-1.1-0.5-2-1.3-2.8-2.1c0.1,0.8,0.4,1.7,0.7,2.5c-1.1-0.7-2.2-1.2-3.2-2c0,0.6,0.1,1.2,0.3,1.8c-0.2-0.4-0.7-0.7-1-1.1
			c-0.3-0.4-0.6-0.9-0.8-1.3c-0.5-0.9-0.8-2-0.9-3C38.9,128.5,39.1,126.4,40,124.5z"/>
	</g>
	<path class="st28" d="M76.5,141.9c0,1.7-9.5,3-22.4,3c-12.9,0-23.4-1.3-23.4-3c0-1.7,10.5-3,23.4-3C67,138.9,76.5,140.3,76.5,141.9
		z"/>
</g>
</svg>
