<?xml version="1.0" encoding="utf-8"?>
<!-- Generator: Adobe Illustrator 24.2.3, SVG Export Plug-In . SVG Version: 6.00 Build 0)  -->
<svg version="1.1" id="Layer_1" xmlns="http://www.w3.org/2000/svg" xmlns:xlink="http://www.w3.org/1999/xlink" x="0px" y="0px"
	 viewBox="0 0 458 186" style="enable-background:new 0 0 458 186;" xml:space="preserve">
<style type="text/css">
	.st0{fill:#AFAFAF;}
	.st1{opacity:0.3;}
	.st2{fill:#CCCAC8;}
	.st3{fill:#E5E5E5;}
	.st4{fill:#FEFEFE;}
	.st5{fill:#F15A29;}
	.st6{fill:#FFFFFF;}
	.st7{fill:#494041;}
	.st8{fill:#E7C4C2;}
	.st9{fill:#DBA77D;}
	.st10{fill:#EFC095;}
	.st11{fill:#FFDDBB;}
	.st12{fill:#EF4136;}
	.st13{fill:#E5B27F;}
	.st14{fill:#47382C;}
	.st15{fill:#E1D6D0;}
	.st16{fill:#9E938F;}
	.st17{fill:#6D5641;}
	.st18{fill:#DB8042;}
	.st19{fill:#110E0C;}
	.st20{fill:#1B1B1E;}
	.st21{fill:#E8D7D1;}
	.st22{fill:#DEDEE2;}
	.st23{fill:#3E3E44;}
	.st24{fill:#F9ED32;}
	.st25{fill:#C46E33;}
	.st26{fill:none;}
</style>
<g>
	<path class="st0" d="M390.4,135.1c0.2-1,0.4-3.2-1.3-2.4c-0.6,0.3-0.9,1-1.6,1.1c-0.9,0.2-2.5-0.3-3.3-0.7
		c-1.3-0.5-2.5-1.6-3.5-2.6c-1.1,1.3-1.2,4.4-0.7,5.9c0.3,0.8,0.6,1.5,1.3,2c0.5,0.4,1,0.7,1.5,0.9c0.8,0.4,1.6,0.2,2.5,0.2
		c0.8,0.1,1.3,0.1,2.1-0.4C388.9,138.4,390.1,136.7,390.4,135.1z"/>
	<path class="st1" d="M436.6,157.5c0,4.9-14.8,8.8-32.9,8.8c-18.2,0-33-4-33-8.8c0-4.9,14.8-8.8,33-8.8
		C421.8,148.7,436.6,152.6,436.6,157.5z"/>
	<path class="st2" d="M383.6,159.5c2.8-0.5,6.2-1.3,8.2-3.8c2-2.4,2.2-7,0.2-9.8c-4.3-6.1-12.3-10.6-16.7-3.2c-2,3.5,1.1,8.4,3.2,11
		c-1.2,0.5-2.6,0-3.5,1.1c-0.9,1-0.9,2.8,0,3.8C377.3,161.2,381,160,383.6,159.5z"/>
	<path class="st2" d="M421.7,158.5c-2.9-0.5-6.2-1.1-8.3-3.6c-2-2.4-2.3-7.1-0.4-10c4.2-6.3,12.1-11.2,16.6-3.8
		c2.1,3.5-0.9,8.6-3,11.3c1.2,0.5,2.6-0.1,3.6,1.1c0.9,1,1,2.8,0.1,3.9C428.1,160,424.3,158.9,421.7,158.5z"/>
	<path class="st2" d="M402.6,126.6c-3.6,0-7.7-0.8-11.1,0.4c-1.3,0.5-1.9,1.4-2.8,2.4c-1.2,1.2-2.7,1.9-3.6,3.5
		c-0.5,0.9-0.6,1.9-1.1,2.7c-0.7,1.2-1.8,2.1-2.3,3.4c-1,2.4-1.7,5.7-1.5,8.3c0.4,3.8,1.8,7.2,5.4,8.4c2.5,0.8,5.5,1,7.9,1.4
		c5.7,0.9,11.6,0.5,17.5,0.2c3.9-0.2,9.5,0.5,12.1-3.2c2.2-3.1,2-7.9,1.2-11.6c-0.9-4.1-3-7.7-5.5-10.8
		C415.3,127.3,407.6,126.6,402.6,126.6z"/>
	<path class="st3" d="M415.1,133.1c-3-4.8-11.5-4.8-16.2-3.6c-3.7,0.9-7.2,2.1-9.3,5.7c-1.2,2.1-1.4,4.2-0.7,6.5
		c0.4,1.2,1,2.4,1.4,3.6c0.4,1,0.2,1.5,0.3,2.5c0.4,3,2.7,6.4,4.6,8.6c0.5,0.6,1,1.1,1.6,1.6c3.3,0.2,9.9,0.3,13.3,0.1
		c1.8-1.5,3.2-3.9,4.4-5.9C417.9,147.1,418.9,139.1,415.1,133.1z"/>
	<g>
		<path class="st4" d="M394.1,137.1c0,0-4.3,9.5,2.3,21.2l-9.5,1.6c0,0-7.9-14.6,2-26.8L394.1,137.1z"/>
		<g>
			<g>
				<g>
					<path class="st4" d="M397.7,157.9c0.4,2.5-2.1,5-5.5,5.6c-3.4,0.5-6.4-1.1-6.8-3.6c-0.4-2.5,2.1-5,5.5-5.6
						C394.3,153.8,397.3,155.4,397.7,157.9z"/>
				</g>
			</g>
		</g>
	</g>
	<g>
		<path class="st4" d="M411.6,137.1c0,0,4.3,9.5-2.3,21.2l9.5,1.6c0,0,7.9-14.6-2-26.8L411.6,137.1z"/>
		<g>
			<g>
				<g>
					<path class="st4" d="M408,157.9c-0.4,2.5,2.1,5,5.5,5.6c3.4,0.5,6.4-1.1,6.8-3.6c0.4-2.5-2.1-5-5.5-5.6
						C411.4,153.8,408.4,155.4,408,157.9z"/>
				</g>
			</g>
		</g>
	</g>
	<path class="st5" d="M385.9,125.5c-0.8,1.7-0.9,4.7,0,6.4c0.8,1.6,2.3,3,3.7,4c3,2.2,6.8,3.2,10.5,3.4c5.3,0.3,10.9,0.3,15.3-3.3
		c2.2-1.8,4-3.6,4.4-6.6c1-7.9-6.1-9.7-12.1-10.8c-5.7-1.1-14.4-1.8-18.7,3.2C388,122.7,386.6,124.2,385.9,125.5z"/>
	<g>
		<path class="st6" d="M425.4,125.8c0.7-1.5,1.1-3.1,1.1-4.6c0-7.1,1.9-16.2-3-22.4c-2.7-3.4-6.8-5.7-11.2-6.9
			c-3.4-0.9-7-1.1-10.6-0.8c-2.8,0.3-6,0.4-9,0.7c-2.8,0.4-5.6,1-7.8,2.2c-5.3,3-7.7,7.3-8.2,13.1c0,0.3,0,0.6-0.1,0.9c0,0,0,0,0,0
			c0,0.1,0,0.1,0,0.2c0,0.1,0,0.1,0,0.2c0,0.2,0,0.4,0,0.6c0,0.3,0,0.5,0,0.8c0,0.2,0,0.4,0,0.6c0,0.1,0,0.1,0,0.2
			c0.2,3.7,0.1,7.3,0.6,11c0.3,2.6,0.9,5.1,3.5,6.6c1.2,0.7,2.2,0.9,3.6,0.9c2.1,0.1,4.2,0.5,6.3,1c1.9,0.4,3.7,1.3,5.7,1.7
			c3.5,0.7,7.1,1,10.7,0.6c3-0.3,5.8-1.3,8.7-2c2.7-0.6,6.1-0.7,8.2-2.6C424.5,127.3,425,126.6,425.4,125.8z"/>
		<path class="st7" d="M410.2,91.5c-0.2,0-0.3-0.1-0.5-0.1c-0.4-0.1-0.7-0.1-1.1-0.2c-0.1,0-0.1,0-0.2,0c-0.4,0-0.8-0.1-1.3-0.1
			c0,0,0,0-0.1,0c-1.8-0.1-3.5-0.1-5.3,0.1c0,0,0,0,0,0c-0.2,1.3,0,2.7-0.1,3.8c-0.3,4.6-0.6,9.4,0.4,14c1.5,6.7,9.3,7.5,14,11.5
			c2.6,2.2,4.2,5.1,8.1,4c0.7-0.2,1.3-0.4,1.9-0.6c0.3-0.9,0.4-1.9,0.4-2.7c0-6.9,1.8-15.5-2.5-21.7c-0.2-0.2-0.3-0.5-0.5-0.7
			c0,0,0,0-0.1-0.1c-0.2-0.3-0.4-0.5-0.6-0.7c-0.1-0.1-0.2-0.2-0.2-0.3c-0.2-0.2-0.3-0.3-0.5-0.5c-0.2-0.2-0.3-0.3-0.5-0.5
			c-0.1-0.1-0.3-0.2-0.4-0.4c-0.2-0.1-0.3-0.3-0.5-0.4c-0.1-0.1-0.1-0.1-0.2-0.2c-0.6-0.5-1.3-0.9-1.9-1.3c0,0,0,0,0,0
			c-0.7-0.4-1.4-0.8-2.1-1.1c-0.1,0-0.1-0.1-0.2-0.1c-0.2-0.1-0.4-0.2-0.6-0.3c-0.2-0.1-0.3-0.1-0.5-0.2c-0.2-0.1-0.5-0.2-0.7-0.3
			c-0.2-0.1-0.5-0.2-0.7-0.2c-0.1,0-0.2-0.1-0.3-0.1c-0.3-0.1-0.7-0.2-1-0.3c-0.4-0.1-0.8-0.2-1.3-0.3
			C410.7,91.6,410.5,91.6,410.2,91.5z"/>
	</g>
	<path class="st7" d="M394,101.5c1.4,1.1,2.6,2.7,3.3,4.6c1.6,4.1-4.8,8.8-8.1,9.3c-2.8,0.3-5.8-0.1-7.5-2.6
		c-3.4-4.8-0.4-10.7,4.3-12.5C389,99.1,391.8,99.7,394,101.5z"/>
	<g>
		<path class="st8" d="M395.8,119.5c-0.7-2,1.6-4.3,3.7-5c1.4-0.4,3-0.2,4.4,0.1c2.8,0.7,4.6,2.7,4,5.3c-0.6,2.7-1.2,4.1,0.6,6.6
			c2,2.8-2,1-3.6,0.5c-3.7-1.1-6.4,1.2-10.2,1.1c-0.5-2.4,3-3.6,3-5.7C397.7,121.4,396.1,120.4,395.8,119.5z"/>
		<path d="M405.5,116.3c-0.9-1.2-6.3-1-7.3,0.1c-1.4,1.4,1.3,3.2,2.2,3.8c2.2,1.5,3,0.1,4.3-1.9
			C405.2,117.6,406.1,117.2,405.5,116.3z"/>
		<path d="M410.4,128.9c-1.6,0-3.4-0.4-5.5-1.3c-1.7-0.7-2.9-1-4.7-0.3c-0.1,0-5.4,2.2-7.8,0.9c-0.6-0.3-1-0.9-1.1-1.5
			c-0.1-0.3,0.2-0.6,0.5-0.7c0.3-0.1,0.6,0.2,0.7,0.5c0.1,0.3,0.2,0.5,0.5,0.7c1.3,0.7,4.8-0.1,6.9-1c2.1-0.8,3.6-0.5,5.5,0.3
			c4.2,1.7,7.1,1.6,9-0.5c0.2-0.2,0.6-0.2,0.8,0c0.2,0.2,0.2,0.6,0,0.8C413.9,128.3,412.3,128.9,410.4,128.9z"/>
		<path d="M402.7,126.9C402.7,126.9,402.6,126.9,402.7,126.9c-0.4-0.1-0.6-0.3-0.6-0.7c0.1-0.3-0.1-1-0.2-1.6
			c-0.1-0.5-0.2-1-0.3-1.4c-0.1-0.9-0.1-1.8,0-2.6c0-0.4,0-0.8,0-1.2c0-0.3,0.3-0.6,0.6-0.6c0.3,0,0.6,0.3,0.6,0.6
			c0,0.4,0,0.9,0,1.3c0,0.8-0.1,1.7,0,2.5c0,0.4,0.1,0.8,0.2,1.3c0.2,0.8,0.3,1.5,0.2,2C403.2,126.7,403,126.9,402.7,126.9z"/>
	</g>
	<g>
		<g>
			<path class="st6" d="M423.3,107.6c0,3.1-3.2,5.5-7.2,5.5c-4,0-7.2-2.5-7.2-5.5c0-3.1,3.2-5.5,7.2-5.5
				C420.1,102.1,423.3,104.6,423.3,107.6z"/>
			<path d="M421.4,107.6c0,2.9-2.4,5.2-5.3,5.2c-2.9,0-5.3-2.3-5.3-5.2c0-2.9,2.4-5.2,5.3-5.2C419,102.4,421.4,104.7,421.4,107.6z"
				/>
			<path class="st6" d="M416,105.9c0,1.2-0.9,2.2-2,2.2c-1.1,0-2-1-2-2.2s0.9-2.2,2-2.2C415.1,103.7,416,104.7,416,105.9z"/>
		</g>
		<g>
			<path class="st6" d="M396.1,107.6c0,3.1-3.2,5.5-7.2,5.5c-4,0-7.2-2.5-7.2-5.5c0-3.1,3.2-5.5,7.2-5.5
				C392.9,102.1,396.1,104.6,396.1,107.6z"/>
			<path d="M394.2,107.6c0,2.9-2.4,5.2-5.3,5.2c-2.9,0-5.3-2.3-5.3-5.2c0-2.9,2.4-5.2,5.3-5.2C391.8,102.4,394.2,104.7,394.2,107.6z
				"/>
			<path class="st6" d="M388.8,105.9c0,1.2-0.9,2.2-2,2.2c-1.1,0-2-1-2-2.2s0.9-2.2,2-2.2C387.9,103.7,388.8,104.7,388.8,105.9z"/>
		</g>
	</g>
	<g>
		<g>
			<path class="st7" d="M414.2,95.5c-1.9-0.4-4.5,0.2-5.6-1.7c-0.9-1.7-0.1-4.1,0.1-5.9c0.4-3.1,2-5.9,4.1-8.2
				c2.8-3.1,8-6.3,12.3-7.1c3.8-0.7,5,5.6,5.7,8.2c1,4.4,1,9.8-0.8,14c-1.3,3-5.5,8-8.8,4.4C419.2,97,417.3,96.1,414.2,95.5z"/>
			<path class="st8" d="M419.6,94.4c-2.6-1.1-8.2,1.5-8.9-2.1c-0.5-2.5,1.9-5.4,3.1-7.4c2.3-3.4,5.5-6.1,9.6-6.9
				c6.6-1.2,4,12.4,2.7,15.6c-0.6,1.4-1.3,3-3,3C421.6,96.5,420.9,95,419.6,94.4z"/>
		</g>
		<g>
			<path class="st6" d="M390.5,95.5c1.9-0.4,4.5,0.2,5.6-1.7c0.9-1.7,0.1-4.1-0.1-5.9c-0.4-3.1-2-5.9-4.1-8.2
				c-2.8-3.1-8-6.3-12.3-7.1c-3.8-0.7-5,5.6-5.7,8.2c-1,4.4-1,9.8,0.8,14c1.3,3,5.5,8,8.8,4.4C385.4,97,387.4,96.1,390.5,95.5z"/>
			<path class="st8" d="M384.6,94.9c2.6-1.1,8.2,1.5,8.9-2.1c0.5-2.5-1.9-5.4-3.1-7.4c-2.3-3.4-5.5-6.1-9.6-6.9
				c-6.6-1.2-4,12.4-2.7,15.6c0.6,1.4,1.3,3,3,3C382.7,97,383.3,95.4,384.6,94.9z"/>
		</g>
	</g>
</g>
<g>
	<path class="st9" d="M321.8,120.3c-0.9,0.8-1.8,1.6-2.6,2.6c-0.9,1.1-1.8,2.1-3,2.8c-4.4,2.7-13.3,6.4-15.3-1.1
		c0-0.1,0-0.1-0.1-0.2c-1.3-5.2,3.5-8,7.5-9.8c2.4-1,4.9-1.8,7.4-2.8c3.1-1.2,6.1-3,8.5-5.3c1.2-1.1,7.9-10.1,8.6-11.1
		c1.6-2.3,0.5,5.7,0.4,6.1c-2,7.3-3.2,8.4-4.1,10.2C327.2,115.3,324.7,117.8,321.8,120.3z"/>
	<path class="st1" d="M340.7,155.5c0,6-21.6,10.8-48.2,10.8c-26.6,0-48.2-4.8-48.2-10.8c0-6,21.6-10.8,48.2-10.8
		C319.1,144.7,340.7,149.6,340.7,155.5z"/>
	<path class="st10" d="M323.8,143.9c4.2-4,10.2-11.3,10.1-18.1c0,0,0,0,0,0c0,0,0,0,0,0c0-0.3,0-0.5,0-0.8c0,0,0-0.1,0-0.1
		c0-0.2-0.1-0.5-0.1-0.7c0-0.1,0-0.1,0-0.2c0-0.2-0.1-0.4-0.1-0.6c0-0.1,0-0.1,0-0.2c-0.1-0.3-0.2-0.5-0.2-0.8
		c-0.1-0.3-0.2-0.5-0.3-0.8c0-0.1-0.1-0.2-0.1-0.3c-0.1-0.2-0.1-0.3-0.2-0.5c0-0.1-0.1-0.2-0.1-0.3c-0.1-0.1-0.1-0.3-0.2-0.4
		c-0.1-0.1-0.1-0.2-0.2-0.3c-0.1-0.1-0.1-0.3-0.2-0.4c-0.1-0.1-0.1-0.2-0.2-0.3c-0.1-0.1-0.1-0.2-0.2-0.3c-0.1-0.1-0.1-0.2-0.2-0.3
		c-0.1-0.1-0.1-0.2-0.2-0.3c-0.1-0.1-0.1-0.2-0.2-0.3c-0.1-0.1-0.1-0.2-0.2-0.3c-0.1-0.1-0.1-0.2-0.2-0.2c-0.1-0.1-0.2-0.2-0.3-0.3
		c-0.1-0.1-0.1-0.1-0.2-0.2c-0.1-0.1-0.2-0.3-0.3-0.4c0,0-0.1-0.1-0.1-0.1c-0.1-0.1-0.3-0.3-0.4-0.4c-0.1-0.1-0.1-0.1-0.2-0.2
		c-0.1-0.1-0.2-0.2-0.3-0.3c-0.1-0.1-0.1-0.1-0.2-0.2c-0.1-0.1-0.2-0.2-0.3-0.2c-0.1-0.1-0.1-0.1-0.2-0.2c-0.1-0.1-0.2-0.1-0.3-0.2
		c-0.1,0-0.1-0.1-0.2-0.1c-0.1-0.1-0.2-0.1-0.3-0.2c-0.1,0-0.1-0.1-0.2-0.1c-0.1-0.1-0.2-0.1-0.3-0.2c-0.1,0-0.1-0.1-0.2-0.1
		c-0.1-0.1-0.2-0.1-0.3-0.2c-0.1,0-0.1-0.1-0.2-0.1c-0.1-0.1-0.3-0.1-0.4-0.2c0,0-0.1,0-0.1-0.1c-0.4-0.1-0.7-0.3-1.1-0.4
		c0,0,0,0,0,0c-0.2,0-0.3-0.1-0.5-0.1c0,0-0.1,0-0.1,0c-0.2,0-0.3-0.1-0.5-0.1c0,0-0.1,0-0.1,0c-0.1,0-0.3,0-0.4-0.1
		c0,0-0.1,0-0.1,0c-0.2,0-0.3,0-0.5,0c0,0-0.1,0-0.1,0c-0.2,0-0.3,0-0.5,0c0,0-0.1,0-0.1,0c-0.2,0-0.4,0-0.5,0c0,0,0,0-0.1,0
		c-1,0-2.1,0.2-3.2,0.4c0,0,0,0,0,0c-0.2,0-0.4,0.1-0.6,0.1c0,0,0,0,0,0c-0.2,0.1-0.4,0.1-0.6,0.2c0,0,0,0,0,0c0,0,0,0,0,0
		c-5.6,1.6-11.3,5.7-15.8,10.7c-4.7,5.2-5.7,14.5-2.7,20c3.1,5.7,9.3,8.1,14.5,10c4.7,1.7,11.5,5.2,16.6,0.7
		c2.1-1.8,2.4-5.4,1.1-7.7C328.6,144.7,325.8,145.3,323.8,143.9z"/>
	<path class="st10" d="M281.6,124.2c-4.5-5-10.2-9.1-15.8-10.7v0c0,0,0,0,0,0c-0.2-0.1-0.4-0.1-0.6-0.2c0,0,0,0,0,0
		c-0.2-0.1-0.4-0.1-0.6-0.1c0,0,0,0,0,0c-1.1-0.2-2.1-0.4-3.2-0.4c0,0,0,0-0.1,0c-0.2,0-0.4,0-0.5,0c0,0-0.1,0-0.1,0
		c-0.2,0-0.3,0-0.5,0c0,0-0.1,0-0.1,0c-0.2,0-0.3,0-0.5,0c0,0-0.1,0-0.1,0c-0.2,0-0.3,0-0.5,0.1c0,0-0.1,0-0.1,0
		c-0.2,0-0.3,0.1-0.5,0.1c0,0-0.1,0-0.1,0c-0.2,0-0.4,0.1-0.5,0.1c0,0,0,0,0,0c-0.4,0.1-0.8,0.2-1.1,0.4c0,0-0.1,0-0.1,0
		c-0.1,0.1-0.3,0.1-0.4,0.2c-0.1,0-0.1,0-0.2,0.1c-0.1,0.1-0.2,0.1-0.4,0.2c-0.1,0-0.1,0.1-0.2,0.1c-0.1,0.1-0.2,0.1-0.3,0.2
		c-0.1,0-0.1,0.1-0.2,0.1c-0.1,0.1-0.2,0.1-0.3,0.2c-0.1,0-0.1,0.1-0.2,0.1c-0.1,0.1-0.2,0.1-0.3,0.2c-0.1,0-0.1,0.1-0.2,0.1
		c-0.1,0.1-0.2,0.2-0.3,0.3c-0.1,0-0.1,0.1-0.2,0.1c-0.1,0.1-0.2,0.2-0.3,0.3c0,0-0.1,0.1-0.1,0.1c-0.2,0.1-0.3,0.3-0.5,0.5
		c0,0,0,0,0,0c-0.1,0.2-0.3,0.3-0.4,0.5c0,0.1-0.1,0.1-0.1,0.2c-0.1,0.1-0.2,0.2-0.3,0.4c-0.1,0.1-0.1,0.1-0.2,0.2
		c-0.1,0.1-0.2,0.2-0.2,0.3c-0.1,0.1-0.1,0.2-0.2,0.2c-0.1,0.1-0.2,0.2-0.2,0.3c-0.1,0.1-0.1,0.2-0.2,0.3c-0.1,0.1-0.1,0.2-0.2,0.4
		c-0.1,0.1-0.1,0.2-0.2,0.3c-0.1,0.1-0.1,0.3-0.2,0.4c0,0.1-0.1,0.2-0.1,0.3c-0.1,0.1-0.1,0.3-0.2,0.4c0,0.1-0.1,0.2-0.1,0.3
		c-0.1,0.2-0.1,0.3-0.2,0.5c0,0.1-0.1,0.2-0.1,0.3c-0.1,0.3-0.2,0.5-0.3,0.8c-0.1,0.3-0.2,0.5-0.2,0.8c0,0.1,0,0.1,0,0.2
		c-0.1,0.2-0.1,0.4-0.1,0.6c0,0.1,0,0.1,0,0.2c0,0.2-0.1,0.5-0.1,0.7c0,0,0,0.1,0,0.1c0,0.3,0,0.5,0,0.8c0,0,0,0,0,0c0,0,0,0,0,0
		c-0.1,6.8,5.9,14.1,10.1,18.1c-2.1,1.3-4.9,0.8-6.4,3.3c-1.3,2.2-0.9,5.9,1.1,7.7c5.1,4.5,11.9,1,16.6-0.7
		c5.2-1.9,11.4-4.3,14.5-10C287.4,138.8,286.3,129.4,281.6,124.2z"/>
	<path class="st11" d="M319.5,93.3c-1.9-6.7-4.5-11.4-10.5-12.1c-5.7-0.7-11.7-1.8-17.5-2v0c-0.1,0-0.2,0-0.3,0c-0.1,0-0.2,0-0.3,0
		v0c-5.8,0.2-11.8,1.3-17.5,2c-5.9,0.7-8.6,5.4-10.5,12.1c-1.7,5.9-1.9,11.8-0.9,18c0.3,1.9,0.6,3.9,1,5.9c0.9,4.4,2,8.9,3.6,12.8
		c2.1,5.1,3.9,11.7,7.1,15.8c1.1,1.4,2.5,2.3,4,2.8c2.2,2.2,7.4,3.1,13.4,3.1c6,0,11.2-0.9,13.4-3.1c0,0,0.1,0,0.1,0
		c1.5-0.5,2.9-1.4,4-2.8c3.2-4,5-10.7,7.1-15.8c1.5-3.7,2.6-7.8,3.5-11.9c0.5-2.3,0.9-4.6,1.2-6.8
		C321.4,105.1,321.1,99.3,319.5,93.3z"/>
	<path class="st10" d="M305.1,118.4c-6.1,0-10.2,3.6-17,2c-5.8-1.4-12-3.6-15.1,2c-3.9,6.9-4.2,16.2-0.5,23.5
		c0.4,0.5,0.8,0.9,1.2,1.3c1.1,1,2.5,1.7,4,2.1c2.2,1.6,7.4,2.3,13.4,2.3c6,0,11.2-0.7,13.4-2.3c0,0,0.1,0,0.1,0
		c1.5-0.4,2.9-1.1,4-2.1c2-1.9,3.5-4.5,4.8-7.2C314.1,133.2,314.9,118.4,305.1,118.4z"/>
	<g>
		<g>
			<path class="st12" d="M268.5,81.4c-1.1,2.7-1.2,7.5-0.1,10.2c1.1,2.5,3.1,4.8,5,6.4c4.1,3.5,9.3,5.1,14.3,5.4
				c7.3,0.5,14.9,0.4,20.8-5.3c3-2.9,5.5-5.8,6-10.6c1.4-12.6-8.3-15.5-16.5-17.3c-7.8-1.7-19.7-3-25.5,5.1
				C271.3,77,269.3,79.3,268.5,81.4z"/>
		</g>
		<path class="st11" d="M292,93.6c-2.4-0.5-4.8-0.8-7.5-0.3c-7,1.5-9.8-0.6-14.5-6.5c-6.5-8-2.4-14-4.5-22.1
			c-1.4-5.4-5.7-11.1-6.7-17.1c-1.5-8.8,0.3-18.7,6.5-25.3c3.2-3.4,5.9-4.3,10.3-4.6c5.2-0.3,9.3,3,14.3,2.8
			c3.1-0.1,5.9-2.9,9.3-3.1c8.7-0.3,16.4,7.1,18.8,15.2c1.1,3.6,1.7,7.6,1.9,11.4c0.1,3.9,0,7.7-1.1,11.4c-1,3.2-4.3,5.1-4.8,8.4
			c-0.4,2.1,1,7.4,0.9,9.6c-0.3,4.2-0.7,6.8-2.2,10.8C309,93.6,300.8,95.4,292,93.6z"/>
		<path class="st13" d="M317,55.1c-0.4-3.1-0.8-6.2-1.1-9.3c-0.4-4.2-1.3-7.6-3.4-11.4c-2.5-4.6-10.3-12.9-0.7-15.8
			c5.4-1.6,12.6,7.4,14.9,11.3c1.7,2.8,1.8,6.4,3.5,9.2c2.2,3.7,5.9,6.1,6.4,10.3c0.8,6.6-5.7,10.3-8.1,15.7
			c-0.6,1.4-0.5,4.3-2.5,5.1C318.1,73.4,317.5,58.8,317,55.1z"/>
		<path class="st13" d="M260.5,55.1c0.4-3.1,0.8-6.2,1.1-9.3c0.4-4.2,1.3-7.6,3.4-11.4c2.5-4.6,10.3-12.9,0.7-15.8
			c-5.4-1.6-12.6,7.4-14.9,11.3c-1.7,2.8-1.8,6.4-3.5,9.2c-2.2,3.7-5.9,6.1-6.4,10.3c-0.8,6.6,5.7,10.3,8.1,15.7
			c0.6,1.4,0.5,4.3,2.5,5.1C259.4,73.4,260.1,58.8,260.5,55.1z"/>
		<path d="M300.3,87.7c-0.9,0.5-1.9,0.8-2.9,0.8c-0.9,0-1.9-0.1-2.7-0.5c-0.7-0.4-1.4-1.1-2.1-1.4c-0.5-0.2-1.3-0.6-1.8-0.6
			c-1.1-0.1-1.6,0.7-2.4,1.3c-0.9,0.7-2.3,1.1-3.4,1.2c-1.8,0.2-4.3,0.1-5.8-1.3c-0.3-0.3-0.5-0.7-0.8-0.9c-0.1,0.9,0.6,1.9,1.1,2.2
			c0.7,0.5,1.7,1,2.5,1.4c0.9,0.5,1.8,0.6,2.8,0.7c1.4,0.1,2.8,0.1,4.1-0.6c1.5-0.9,1.9-1.4,3.4-0.5c1.2,0.8,2.6,1,4,1.1
			c0.8,0,1.6,0.2,2.4,0c2.2-0.5,4.5-2.3,5-5.3c-0.6,0.1-0.9,0.9-1.4,1.3c-0.5,0.4-1.1,0.7-1.6,1.1C300.5,87.6,300.4,87.6,300.3,87.7
			z"/>
		<path d="M300.1,71.3c2,8.7-18.8,9-19.8,2.3c-0.8-6.1,6.6-7,10.2-7C295.1,66.5,298.9,65.9,300.1,71.3z"/>
		<g>
			<path d="M272.2,48.7c0,3.7,1.8,6.7,4.1,6.7c2.2,0,4.1-3,4.1-6.7c0-3.7-1.8-6.7-4.1-6.7C274.1,41.9,272.2,44.9,272.2,48.7z"/>
			<path class="st6" d="M276.1,46.4c-0.5,1.1-1.6,1.8-2.5,1.5c-0.9-0.3-1.1-1.5-0.6-2.7c0.5-1.1,1.6-1.8,2.5-1.5
				C276.4,44.1,276.6,45.3,276.1,46.4z"/>
		</g>
		<g>
			<path d="M300.1,48.7c0,3.7,1.8,6.7,4.1,6.7c2.2,0,4.1-3,4.1-6.7c0-3.7-1.8-6.7-4.1-6.7C302,41.9,300.1,44.9,300.1,48.7z"/>
			<path class="st6" d="M304,46.4c-0.5,1.1-1.6,1.8-2.5,1.5c-0.9-0.3-1.1-1.5-0.6-2.7c0.5-1.1,1.6-1.8,2.5-1.5
				C304.3,44.1,304.5,45.3,304,46.4z"/>
		</g>
	</g>
	<path class="st11" d="M319.2,157.7c-1.6-1.7-4.5-1.6-5.8-3.5c-1.2-1.8-0.3-4.3-0.1-6.3c0.4-4.7,0.9-9.3,1.7-14.1
		c0.1-0.8,0.3-1.6,0.5-2.3c1.9-7.5,6.2-14.7,3.5-22.6c-1.9-5.4-8.5-7.3-14.4-4.7c-1.7,0.7-2.9,1.9-3.7,3.3c-0.4,0.7-0.7,1.5-1,2.3
		c-1,3.2-0.7,7-0.5,9.8c0.5,6.9-0.1,14-0.1,20.9c0.1,7.6-1.8,16.9,7.7,21.1c2.7,1.2,6,2.1,9.1,1.5
		C319.3,162.4,321.4,160,319.2,157.7z"/>
	<path class="st11" d="M264.1,157.7c1.6-1.7,4.5-1.6,5.8-3.5c1.2-1.8,0.3-4.3,0.1-6.3c-0.4-4.7-0.9-9.3-1.7-14.1
		c-0.1-0.8-0.3-1.6-0.5-2.3c-1.9-7.5-6.2-14.7-3.5-22.6c1.9-5.4,8.5-7.3,14.4-4.7c1.7,0.7,2.9,1.9,3.7,3.3c0.4,0.7,0.7,1.5,1,2.3
		c1,3.2,0.7,7,0.5,9.8c-0.5,6.9,0.1,14,0.1,20.9c-0.1,7.6,1.8,16.9-7.7,21.1c-2.7,1.2-6,2.1-9.1,1.5C264,162.4,262,160,264.1,157.7z
		"/>
</g>
<g>
	<path class="st14" d="M45.5,133.6c3.7,0.5,7.3-1.2,3.8-4.7c-2.4-2.5-6.2-2.9-9.3-4.1c-3.9-1.4-8.3-2.8-11.8-5.1
		C30.2,126,39,132.7,45.5,133.6z"/>
	<path class="st1" d="M115.5,154.9c0,6.3-20.2,11.5-45.1,11.5c-24.9,0-45.1-5.1-45.1-11.5c0-6.3,20.2-11.5,45.1-11.5
		C95.3,143.4,115.5,148.5,115.5,154.9z"/>
	<path class="st14" d="M42.9,157.4c3.9-0.7,8.5-1.7,11.3-4.9c2.7-3.1,3-9.1,0.2-12.7c-5.9-7.9-16.9-13.7-22.8-4.1
		c-2.8,4.5,1.5,10.9,4.4,14.3c-1.6,0.6-3.5,0-4.9,1.5c-1.2,1.3-1.3,3.6,0,4.9C34.3,159.6,39.4,158.1,42.9,157.4z"/>
	<path class="st14" d="M95.1,156.1c-3.9-0.6-8.5-1.4-11.4-4.7c-2.8-3.1-3.1-9.2-0.5-13c5.7-8.2,16.6-14.6,22.7-4.9
		c2.9,4.5-1.2,11.2-4.1,14.7c1.6,0.6,3.5-0.1,4.9,1.4c1.2,1.3,1.4,3.6,0.1,5C103.8,158.1,98.6,156.7,95.1,156.1z"/>
	<path class="st14" d="M95.6,118.4c-4.6-5.4-18.9-3.8-26.3-3.7c-7.4-0.2-21.7-1.7-26.3,3.7c-3.5,4.1-3.8,10.7-2.8,16
		c0.9,4.8,2,12.2,5.1,16.3c3.6,4.8,7.9,3.7,13.4,3.9c3.5,0.2,7,0.4,10.5,0.4v0c0.1,0,0.1,0,0.2,0c0.1,0,0.1,0,0.2,0v0
		c3.5-0.1,7-0.3,10.5-0.4c5.5-0.3,9.8,0.8,13.4-3.9c3.1-4.1,4.2-11.5,5.1-16.3C99.5,129.1,99.1,122.5,95.6,118.4z"/>
	<g>
		<path class="st15" d="M89.4,135.7c0.2-4.3-0.8-8.7-3.3-12.5C82,117,70.4,117,64,118.5c-5.1,1.2-9.9,2.7-12.7,7.5
			c-1.6,2.7-1.9,5.5-0.9,8.5c0.2,0.5,0.4,1,0.6,1.5C58.3,138.2,73.7,141.6,89.4,135.7z"/>
		<path class="st16" d="M51,136c0.5,1,1,2.1,1.4,3.1c0.5,1.3,0.3,2,0.5,3.3c0.5,3.9,3.7,8.3,6.3,11.1c0.7,0.7,1.4,1.4,2.2,2.1
			c4.5,0.3,13.5,0.4,18.2,0.2c2.5-2,4.3-5,6-7.6c2.2-3.4,3.7-7.9,3.8-12.4C73.7,141.6,58.3,138.2,51,136z"/>
	</g>
	<g>
		<g>
			<path class="st17" d="M62,156.8c-0.1,3.3-3.9,5.9-8.6,5.8c-4.7-0.1-8.4-2.9-8.4-6.2c0.1-3.3,3.9-5.9,8.6-5.8
				C58.4,150.7,62.1,153.5,62,156.8z"/>
		</g>
		<path class="st17" d="M57,128.4c0,0-5.9,12.3,3.1,27.6l-10,1.6c0,0-16-20.8-2.4-36L57,128.4z"/>
	</g>
	<g>
		<g>
			<path class="st17" d="M76.3,156.8c0.1,3.3,3.9,5.9,8.6,5.8c4.7-0.1,8.4-2.9,8.4-6.2c-0.1-3.3-3.9-5.9-8.6-5.8
				C80,150.7,76.2,153.5,76.3,156.8z"/>
		</g>
		<path class="st17" d="M81.3,128.4c0,0,5.9,12.3-3.1,27.6l10,1.6c0,0,16-20.8,2.4-36L81.3,128.4z"/>
	</g>
	<g>
		<path class="st5" d="M46.7,113.3c-1.1,2.2-1.2,6.1-0.1,8.2c1.1,2.1,3.1,3.9,5,5.2c4.2,2.9,9.4,4.1,14.4,4.4
			c7.3,0.4,14.9,0.3,20.9-4.3c3-2.3,5.5-4.7,6-8.6c1.4-10.2-8.3-12.6-16.6-14c-7.8-1.4-19.8-2.4-25.6,4.2
			C49.5,109.8,47.5,111.6,46.7,113.3z"/>
	</g>
	<g>
		<g>
			<path class="st14" d="M97.4,74.7c0.6,0.7,1.2,1.4,1.7,2.2c4.5,7.2-5,13.2-11.1,9.6c-5.6-3.2-9.8-11.3-8.1-17.7
				c0.4-1.6,2.1-4.3,4.2-4.4c1.9-0.1,4.2,3.3,5.7,4.4C92.4,70.8,95.2,72.4,97.4,74.7z"/>
			<path class="st14" d="M40,74.7c-0.6,0.7-1.2,1.4-1.7,2.2c-4.5,7.2,5,13.2,11.1,9.6c5.6-3.2,9.8-11.3,8.1-17.7
				c-0.4-1.6-2.1-4.3-4.2-4.4c-1.9-0.1-4.2,3.3-5.7,4.4C45.1,70.8,42.2,72.4,40,74.7z"/>
		</g>
		<g>
			<path class="st17" d="M95,91.1c-1.2-3.9-0.1-7-2.7-10.4c-3.4-4.4-9.5-5.9-14.4-7.8c-3.7-1.4-6.8-0.3-10.2-0.5v50.4
				c2.6-0.1,5.1-0.5,7.9-0.9c4.5-0.6,9.2-0.7,13.6-2.2c3.8-1.4,6.6-6.3,7.7-10.1C98.8,103,97,97.4,95,91.1z"/>
			<path class="st17" d="M42.5,91.1c1.2-3.9,0.1-7,2.7-10.4c3.4-4.4,9.5-5.9,14.4-7.8c3.7-1.4,6.8-0.3,10.2-0.5v50.4
				c-2.6-0.1-5.1-0.5-7.9-0.9c-4.5-0.6-9.2-0.7-13.6-2.2c-3.8-1.4-6.6-6.3-7.7-10.1C38.7,103,40.5,97.4,42.5,91.1z"/>
		</g>
		<path class="st14" d="M73,115c-1.6-0.9-3.3-1.6-4.7-1.5c-2.6,0-6.6,2.1-8.6,3.8c-1.6,1.2-4.2,5.9-2.6,7.6c2,2.2,10.4,1.8,13.3,1.8
			c4.2,0,14-1.3,8.7-6.8C77.8,118.4,75.5,116.4,73,115z"/>
		<path class="st18" d="M89.6,113.2c-0.9-1.5-1.7-2.9-2.5-4.2c-1-1.6-2.2-3.1-4.1-4.5c-3.7-2.8-7-5-11.8-5.4c-0.9-0.1-1.7,0-2.6,0.1
			c-0.8-0.1-1.7-0.2-2.6-0.1c-4.8,0.4-8.1,2.6-11.8,5.4c-1.9,1.4-3,2.8-4.1,4.5c-0.8,1.3-1.5,2.6-2.5,4.2c-1.7,2.9-1.6,5.2,0.9,7.6
			c5.4,5.2,12.3,1.9,17.6-1.6c0.8-0.5,1.6-0.8,2.4-1c0.8,0.2,1.6,0.5,2.4,1c5.3,3.4,12.2,6.7,17.6,1.6
			C91.3,118.4,91.4,116.1,89.6,113.2z"/>
		<path class="st19" d="M76.8,99.5c4.4,6.9-17.4,7.1-16.7,1.5c0.4-3,5.8-2.8,7.9-2.8C70.1,98.1,75.6,97.5,76.8,99.5z"/>
		<g>
			<path class="st19" d="M58.4,123.7c0.1,0,0.1,0,0.2,0c3.3-1,10.3-4.8,10.5-4.9c0.2-0.1,0.4-0.4,0.4-0.7l-0.1-14.2
				c0-0.4-0.4-0.8-0.8-0.8c-0.5,0-0.8,0.4-0.8,0.8l0.1,13.8c-1.4,0.9-7.1,3.7-9.7,4.5c-0.4,0.1-0.7,0.6-0.5,1
				C57.7,123.5,58,123.7,58.4,123.7z"/>
			<path class="st19" d="M79.1,123.7c-0.1,0-0.1,0-0.2,0c-3.3-1-10.3-4.8-10.5-4.9c-0.2-0.1-0.4-0.4-0.4-0.7l0.1-14.2
				c0-0.4,0.4-0.8,0.8-0.8c0.5,0,0.8,0.4,0.8,0.8l-0.1,13.8c1.4,0.9,7.1,3.7,9.7,4.5c0.4,0.1,0.7,0.6,0.5,1
				C79.8,123.5,79.4,123.7,79.1,123.7z"/>
		</g>
		<path class="st15" d="M69.9,78.3c-0.2-0.1-0.4-0.3-0.6-0.3c-0.1,0-0.2-0.1-0.3-0.1v-0.1c-0.1,0-0.2,0-0.2,0c-0.1,0-0.2,0-0.2,0
			v0.1c-0.1,0-0.2,0-0.3,0.1c-0.2,0.1-0.4,0.2-0.6,0.3c-2.1,1.6-1.5,5.5-1.2,7.5c0.2,1.6,0.2,4.4,1.1,5.8c0.3,0.5,0.7,0.8,1.1,0.9
			v0.1c0.1,0,0.2,0,0.2,0c0.1,0,0.2,0,0.2,0v-0.1c0.4-0.1,0.7-0.4,1.1-0.9c0.9-1.4,0.9-4.3,1.1-5.8C71.4,83.7,71.9,79.8,69.9,78.3z"
			/>
		<g>
			<path d="M50.3,92.8c0,2.7,1.4,4.8,3.1,4.8c1.7,0,3.1-2.2,3.1-4.8c0-2.7-1.4-4.8-3.1-4.8C51.7,88,50.3,90.2,50.3,92.8z"/>
			<path class="st6" d="M53.3,91.2c-0.4,0.8-1.3,1.3-1.9,1.1c-0.7-0.2-0.9-1.1-0.5-1.9c0.4-0.8,1.3-1.3,1.9-1.1
				C53.5,89.5,53.7,90.4,53.3,91.2z"/>
		</g>
		<g>
			<path d="M80.8,92.8c0,2.7,1.4,4.8,3.1,4.8c1.7,0,3.1-2.2,3.1-4.8c0-2.7-1.4-4.8-3.1-4.8C82.2,88,80.8,90.2,80.8,92.8z"/>
			<path class="st6" d="M83.8,91.2c-0.4,0.8-1.3,1.3-1.9,1.1s-0.9-1.1-0.5-1.9c0.4-0.8,1.3-1.3,1.9-1.1C84,89.5,84.2,90.4,83.8,91.2
				z"/>
		</g>
	</g>
</g>
<g>
	<g>
		<path class="st20" d="M191.6,129.4c-1.3,1-0.5,2.7,0.6,3.5c1.3,0.9,3.1,1,4.5,0.7c3-0.7,9-2.1,8.7-6.3c-0.4-5.4-11.6-7.9-12.7-1.9
			c-0.4,2.1,1.1,3.6,3,4.1c2,0.5,3.6,0.1,5.5-0.6c-0.6-0.3-1.7-0.2-2.1-0.7c-0.4-0.5,0-1.6,0.8-1.5c0.8,0.1,0.2,1.1-0.2,1.4
			c-0.6,0.6-1.7,0.8-2.5,0.8C195.5,128.8,193,128.3,191.6,129.4z"/>
		<path class="st21" d="M196.8,127.3c-0.3-0.4-0.8-1.2-0.9-1.7c-0.6,0.4-1.8,0.7-1.8,0.7s-0.8-1.4-0.9-2.1c-0.4,0.5-0.8,1.6-0.5,2.7
			c0.6,2.1,2.2,3.1,4.1,3.6c1.6,0.4,3.8,0.3,5.1-0.8c-1-0.4-1.9-0.8-2.4-1.5c-0.5-0.6-0.6-1-0.1-1.7
			C199.1,126.8,197.5,127,196.8,127.3z"/>
	</g>
	<path class="st1" d="M206.4,157c0,5.2-13.9,9.4-31.1,9.4c-17.2,0-31.1-4.2-31.1-9.4c0-5.2,13.9-9.4,31.1-9.4
		C192.4,147.6,206.4,151.8,206.4,157z"/>
	<g>
		<g>
			<path class="st20" d="M169.4,147.5c-0.2-3.4-1.7-6.8-4.3-9.5c-3.5-3.6-8.5-7.6-14.3-5c-3.6,1.7-4.4,4.1-4,7.2
				c0.2,2.2,1.4,5.1,2.9,7c1,1.3,4,2.6,3.2,4.3c-0.3,0.7-1.8,1.1-2.4,1.6c-0.9,0.8-1.3,1.9-1.2,3.1c0.1,2.4,2.3,2.6,4.8,2.6
				c3.9-0.1,7.7-0.6,11-2.5C169.3,154,169.7,151.6,169.4,147.5z"/>
			<path class="st22" d="M149.3,156.2c0-1.1,0.4-2.2,1.2-3.1c0.6-0.6,2.1-0.9,2.4-1.6c0.6-1.2-0.7-2.2-1.9-3.2c0,0,0,0,0,0
				c0.9,0.3,1.9,0.4,2.8,0.3c1.7-0.3,3.8-0.4,5.4-0.8c0.6,1.7,1.8,3.1,2.1,5.2c0.3,1.9-0.2,3.6-1.2,5.1c-2,0.4-4.1,0.6-6.1,0.6
				C151.6,158.8,149.4,158.6,149.3,156.2z"/>
		</g>
		<path class="st20" d="M181,147.5c0.2-3.4,1.7-6.8,4.3-9.5c3.5-3.6,8.5-7.6,14.3-5c3.6,1.7,4.4,4.1,4,7.2c-0.2,2.2-1.4,5.1-2.9,7
			c-1,1.3-4,2.6-3.2,4.3c0.3,0.7,1.8,1.1,2.4,1.6c0.9,0.8,1.3,1.9,1.2,3.1c-0.1,2.4-2.3,2.6-4.8,2.6c-3.9-0.1-7.7-0.6-11-2.5
			C181.1,154,180.8,151.6,181,147.5z"/>
		<path class="st22" d="M201.1,156.2c0-1.1-0.4-2.2-1.2-3.1c-0.6-0.6-2.1-0.9-2.4-1.6c-0.6-1.2,0.7-2.2,1.9-3.2c0,0,0,0,0,0
			c-0.9,0.3-1.9,0.4-2.8,0.3c-1.7-0.3-3.8-0.4-5.4-0.8c-0.6,1.7-1.8,3.1-2.1,5.2c-0.3,1.9,0.2,3.6,1.2,5.1c2,0.4,4.1,0.6,6.1,0.6
			C198.8,158.8,201,158.6,201.1,156.2z"/>
	</g>
	<g>
		<path class="st23" d="M194.7,118.1c-1.1-3.5-3-6.5-4.1-9.9c-1.3-4.3,0.4-8.8-0.9-13c-1.2-3.7-5.3-5.9-8.9-7.6
			c-1.8-0.9-3.7-1.4-5.5-1.6v0c0,0,0,0,0,0c0,0,0,0,0,0v0c-1.8,0.2-3.7,0.7-5.5,1.6c-3.6,1.7-7.8,3.9-8.9,7.6
			c-1.3,4.2,0.4,8.8-0.9,13c-1.1,3.6-3.2,6.7-4.2,10.4c-0.1,0.2-0.1,0.5-0.2,0.7C160.8,122,177.5,128.6,194.7,118.1z"/>
		<path class="st20" d="M194.7,118.1c-17.2,10.5-33.9,3.8-39.3,1.1c-2.4,9.2,1.2,17.6,3.8,26.4c1.3,4.5,4.3,8.4,9,10.5
			c2,0.8,4.5,1.1,7,1.2l0,0c0,0,0,0,0,0c0,0,0,0,0,0l0,0c2.5-0.1,5-0.4,7-1.2c4.8-2,7.7-6,9-10.5c2.7-9.1,6.5-17.6,3.6-27.1
			C194.8,118.4,194.8,118.3,194.7,118.1z"/>
		<path class="st6" d="M181.6,156.2c4.5-3,2.1-11,2.3-15.6c0.3-5.9-0.1-14.6,1-20.5c0.5-3,5.9-9.5-1.2-8c-3.5,0.8-7.1,0.9-10.7,0.5
			c-2.2-0.3-7.2-2.6-8.7-0.7c-1.6,2-0.5,3.5,0,5.7c0.9,3.6,2.5,9.5,2.7,13.2c0.2,4.2-0.1,8.4-0.5,12.4c-0.4,3.6-1.6,8.5,0.4,11.9"/>
		<path class="st22" d="M184.4,122.6c-6.9,1.7-13.3,1.4-18.6,0.3c0.5,2.6,0.9,5.2,1.1,7.9c0.2,4.2-0.1,8.4-0.5,12.4
			c-0.4,3.6-1.6,8.5,0.4,11.9c0.2,0.3,0.4,0.6,0.6,0.8c0.2,0.1,0.4,0.2,0.6,0.3c2.1,0.8,4.6,1.1,7.1,1.2l0,0c0,0,0,0,0,0
			c0,0,0,0,0,0l0,0c1.9,0,3.7-0.2,5.3-0.6c0.4-0.2,0.7-0.4,1-0.6c4.5-3,2.1-11,2.3-15.6c0.3-5.9-0.6-12,0.5-17.9
			C184.4,122.7,184.4,122.7,184.4,122.6z"/>
	</g>
	<path class="st24" d="M192.7,106.9c0,5.1-7.8,9.2-17.4,9.2c-9.6,0-17.4-4.1-17.4-9.2s7.8-9.2,17.4-9.2
		C184.9,97.8,192.7,101.9,192.7,106.9z"/>
	<path class="st23" d="M198.3,72.8c-2.1-4.2-5.9-9.3-10.7-10.3c-3.9-0.8-8.1,0.7-12.1,0.5v0c-0.1,0-0.2,0-0.4,0c-0.1,0-0.2,0-0.4,0
		v0c-4.1,0.1-8.3-1.3-12.1-0.5c-4.8,1-8.5,6.1-10.7,10.3c-4.6,9.1,1.5,24.7,6.7,32.4c3.4,5.1,10.2,6.6,16.1,7.1v0.1
		c0.1,0,0.2,0,0.4,0c0.1,0,0.2,0,0.4,0v-0.1c5.9-0.5,13.7-2.4,17.1-7.5C197.8,97,202.9,81.8,198.3,72.8z"/>
	<path class="st25" d="M199.4,84.4c-6.8,11.3-13,9.3-17,8c-2.7-0.9-5.9-3.5-7,0.4c-1.1-3.9-4.3-1.3-7-0.4c-4,1.4-12.1,0.2-17-8
		c-0.2-0.3-0.5-0.2-0.8-0.2c1,7.7,4.7,16,8.1,21c0.9,1.4,2.1,2.5,3.4,3.4c1.6,0.4,3.3,0.6,5,0.1c1.7-0.4,2.8-1.7,4.3-2.3
		c0.9-0.4,1.7-0.2,2.5-1.1c0.7-0.8,1.3-1.9,1.6-3.2c0.4,1.3,0.9,2.4,1.6,3.2c0.8,0.8,1.6,0.6,2.5,1.1c1.5,0.7,2.6,1.9,4.3,2.3
		c1.5,0.4,3,0.3,4.5,0c1.7-1,3.2-2.3,4.3-3.9c3.3-5,6.6-13,7.3-20.5C199.8,84.3,199.5,84.3,199.4,84.4z"/>
	<path class="st6" d="M177.8,88.2c0-0.9-0.1-1.6-0.2-2.2c-0.5-2.8-0.5-5.6-1-8.4c-0.2-1.2-0.6-2.5-1.3-2.8v0c0,0,0,0-0.1,0
		c0,0,0,0-0.1,0v0c-0.7,0.3-1.1,1.6-1.3,2.8c-0.5,2.8-0.5,5.6-1,8.4c-0.1,0.5-0.2,1.3-0.2,2.2c-4.6,2.1-9.9,7.9-7.7,17.3
		c1.3,5.6,7.4,5.1,10.3,4.8c2.9,0.3,9,0.8,10.3-4.8C187.7,96.1,182.4,90.3,177.8,88.2z"/>
	<g>
		<g>
			<g>
				<g>
					<g>
						<g>
							<g>
								<path class="st23" d="M169.6,119.1c-4-4.2-10.4,0.4-10.6,4.4c-0.2,6.6,2.1,13.4,2.9,20c0.4,3.5,1.7,8,0.2,11.4
									c-1.8,0.3-2.9,2.2-2.9,3.6c0,2.3,1.5,2.7,3.9,2.8c5.3,0.2,8-0.3,8.5-4.8c0.6-5.3,0.3-10.5-0.2-15.9
									c-0.5-4.8-0.2-9.7-0.2-14.5C171.1,124.1,171.2,120.8,169.6,119.1z"/>
							</g>
						</g>
					</g>
				</g>
			</g>
			<path class="st6" d="M171.9,148.2C171.9,148.2,171.9,148.2,171.9,148.2c0-0.1,0-0.1,0-0.2c0-0.5,0-1.1-0.1-1.6c0-0.1,0-0.2,0-0.3
				c0-0.4,0-0.9-0.1-1.3c0,0,0,0,0,0c-0.1-1.4-0.2-2.9-0.4-4.3c-0.5-4.8-0.2-9.7-0.2-14.5c0-2,0.1-5.3-1.5-7
				c-1.6-1.6-3.5-1.9-5.3-1.4c1.5,4.1,4.5,21.8,4.6,25.7c0,1.2-0.5,2.4-1.8,2.4c-1.9,0-3.4-0.2-5.1-0.6c0.5,3.2,1.2,6.9,0,9.7
				c-1.8,0.3-2.9,2.2-2.9,3.6c0,2.3,1.5,2.7,3.9,2.8c5.3,0.2,8-0.3,8.5-4.8C171.9,153.7,172,151,171.9,148.2z"/>
		</g>
		<g>
			<g>
				<g>
					<g>
						<g>
							<g>
								<path class="st23" d="M180.4,119.1c4-4.2,10.4,0.4,10.6,4.4c0.2,6.6-2.1,13.4-2.9,20c-0.4,3.5-1.7,8-0.2,11.4
									c1.8,0.3,2.9,2.2,2.9,3.6c0,2.3-1.5,2.7-3.9,2.8c-5.3,0.2-8-0.3-8.5-4.8c-0.6-5.3-0.3-10.5,0.2-15.9
									c0.5-4.8,0.2-9.7,0.2-14.5C179,124.1,178.8,120.8,180.4,119.1z"/>
							</g>
						</g>
					</g>
				</g>
			</g>
			<path class="st6" d="M178.1,148.2C178.1,148.2,178.1,148.2,178.1,148.2c0-0.1,0-0.1,0-0.2c0-0.5,0-1.1,0.1-1.6c0-0.1,0-0.2,0-0.3
				c0-0.4,0.1-0.9,0.1-1.3c0,0,0,0,0,0c0.1-1.4,0.2-2.9,0.4-4.3c0.5-4.8,0.2-9.7,0.2-14.5c0-2-0.1-5.3,1.5-7
				c1.6-1.6,3.5-1.9,5.3-1.4c-1.5,4.1-4.5,21.8-4.6,25.7c0,1.2,0.5,2.4,1.8,2.4c1.9,0,3.4-0.2,5.1-0.6c-0.5,3.2-1.2,6.9,0,9.7
				c1.8,0.3,2.9,2.2,2.9,3.6c0,2.3-1.5,2.7-3.9,2.8c-5.3,0.2-8-0.3-8.5-4.8C178.1,153.7,178.1,151,178.1,148.2z"/>
		</g>
	</g>
	<g>
		<path d="M180.3,97.7c1.7,5.2-11.4,5.9-9.7-0.4c0.5-2,3.4-1.6,5.2-1.5C177.6,95.8,179.7,95.8,180.3,97.7z"/>
		<g>
			<g>
				<path class="st23" d="M199.1,78.8c-8.3,6.7-21.6-5.3-18.3-14.4c1.6-4.4,2.8-9.3,4.7-13.7c1-2.2,5.8-12.1,8.6-12
					c3.4,0.1,6.3,10.8,7.2,13c1.7,4.3,3.6,9.8,3.2,14.5C204,70.5,202.5,76,199.1,78.8z"/>
				<path class="st25" d="M196.9,75.3c4.4-3.8,4.6-10.2,2.7-15.4c-1-2.7-1.6-5.5-3.1-8.1c-1-1.8-2.3-4.9-3.9-6.2
					c-1.3,1-2,3.4-2.7,4.8c-0.8,1.6-1.6,3.3-2.2,5c-1,2.6-2.7,5.1-3.3,7.7C184.6,62.1,195.8,71.1,196.9,75.3z"/>
			</g>
			<g>
				<path class="st23" d="M151.4,78.8c8.3,6.7,21.6-5.3,18.3-14.4c-1.6-4.4-2.8-9.3-4.7-13.7c-1-2.2-5.8-12.1-8.6-12
					c-3.4,0.1-6.3,10.8-7.2,13c-1.7,4.3-3.6,9.8-3.2,14.5C146.5,70.5,148,76,151.4,78.8z"/>
				<path class="st25" d="M153.6,75.3c-4.4-3.8-4.6-10.2-2.7-15.4c1-2.7,1.6-5.5,3.1-8.1c1-1.8,2.3-4.9,3.9-6.2c1.3,1,2,3.4,2.7,4.8
					c0.8,1.6,1.6,3.3,2.2,5c1,2.6,2.7,5.1,3.3,7.7C165.9,62.1,154.7,71.1,153.6,75.3z"/>
			</g>
		</g>
		<g>
			<path d="M159.6,84c0,3.4,1.6,6.1,3.5,6.1s3.5-2.7,3.5-6.1c0-3.4-1.6-6.1-3.5-6.1S159.6,80.6,159.6,84z"/>
			<path class="st6" d="M163.3,81.9c-0.4,1-1.4,1.6-2.2,1.3c-0.7-0.3-1-1.4-0.5-2.4c0.4-1,1.4-1.6,2.2-1.3
				C163.5,79.8,163.7,80.9,163.3,81.9z"/>
		</g>
		<g>
			<path d="M183.7,84c0,3.4,1.6,6.1,3.5,6.1c2,0,3.5-2.7,3.5-6.1c0-3.4-1.6-6.1-3.5-6.1C185.3,77.9,183.7,80.6,183.7,84z"/>
			<path class="st6" d="M187.4,81.9c-0.4,1-1.4,1.6-2.2,1.3c-0.7-0.3-1-1.4-0.5-2.4c0.4-1,1.4-1.6,2.2-1.3
				C187.6,79.8,187.8,80.9,187.4,81.9z"/>
		</g>
		<path d="M175.1,107.5c-0.3,0-0.5-0.2-0.5-0.5v-8.3c0-0.3,0.2-0.5,0.5-0.5c0.3,0,0.5,0.2,0.5,0.5v8.3
			C175.6,107.3,175.4,107.5,175.1,107.5z"/>
		<path d="M172.4,108.7c-0.8,0-3.3-0.5-3.8-1.5c-0.1-0.2,0-0.6,0.2-0.7c0.2-0.1,0.6-0.1,0.7,0.2c0.2,0.4,2.1,1,2.9,1c0,0,0,0,0.1,0
			c1.1,0,1.5-0.4,2.2-1.4c0.1-0.2,0.3-0.2,0.5-0.2c0.2,0,0.4,0.2,0.4,0.4c0.2,0.6,0.6,0.9,1.3,1.1c1.5,0.3,3.3-0.5,3.9-1.3
			c0.2-0.2,0.5-0.3,0.7-0.1c0.2,0.2,0.3,0.5,0.1,0.7c-0.8,1.2-3.2,2-4.9,1.7c-0.8-0.1-1.4-0.5-1.8-1
			C174.4,108.2,173.7,108.6,172.4,108.7C172.5,108.7,172.5,108.7,172.4,108.7z"/>
	</g>
	<path class="st25" d="M183.6,74.2c0,1.5-1.2,2.7-2.8,2.7c-1.5,0-2.8-1.2-2.8-2.7s1.2-2.7,2.8-2.7C182.4,71.5,183.6,72.7,183.6,74.2
		z"/>
	<path class="st25" d="M172.3,74.2c0,1.5-1.2,2.7-2.8,2.7c-1.5,0-2.8-1.2-2.8-2.7s1.2-2.7,2.8-2.7C171,71.5,172.3,72.7,172.3,74.2z"
		/>
</g>
<line class="st26" x1="384.6" y1="-56.4" x2="387.7" y2="-58.2"/>
</svg>
