<?xml version="1.0" encoding="utf-8"?>
<!-- Generator: Adobe Illustrator 24.2.3, SVG Export Plug-In . SVG Version: 6.00 Build 0)  -->
<svg version="1.1" id="Layer_1" xmlns="http://www.w3.org/2000/svg" xmlns:xlink="http://www.w3.org/1999/xlink" x="0px" y="0px"
	 viewBox="0 0 800 186" style="enable-background:new 0 0 800 186;" xml:space="preserve">
<style type="text/css">
	.st0{fill:#C65D34;}
	.st1{opacity:0.3;}
	.st2{fill:#E5B283;}
	.st3{fill:#DD7547;}
	.st4{fill:#FFD9B6;}
	.st5{fill:#409ED3;}
	.st6{fill:#FFFFFF;}
	.st7{fill:#AFAFAF;}
	.st8{fill:#CCCAC8;}
	.st9{fill:#E5E5E5;}
	.st10{fill:#FEFEFE;}
	.st11{fill:#F15A29;}
	.st12{fill:#494041;}
	.st13{fill:#E7C4C2;}
	.st14{fill:#DBA77D;}
	.st15{fill:#EFC095;}
	.st16{fill:#FFDDBB;}
	.st17{fill:#EF4136;}
	.st18{fill:#E5B27F;}
	.st19{fill:#47382C;}
	.st20{fill:#E1D6D0;}
	.st21{fill:#9E938F;}
	.st22{fill:#6D5641;}
	.st23{fill:#DB8042;}
	.st24{fill:#110E0C;}
	.st25{fill:#CC7229;}
	.st26{fill:#F2DFD6;}
	.st27{fill:#D8C1B8;}
	.st28{fill:#E8923D;}
	.st29{fill:#FFF0E7;}
	.st30{fill:#99693D;}
	.st31{fill:#72370F;}
	.st32{fill:#894919;}
	.st33{fill:#AF6E35;}
	.st34{fill:#F9ED32;}
	.st35{fill:#1B1B1E;}
	.st36{fill:#E8D7D1;}
	.st37{fill:#DEDEE2;}
	.st38{fill:#3E3E44;}
	.st39{fill:#C46E33;}
</style>
<g>
	<path class="st0" d="M405.1,132.1c0,0.1,0,0.1,0,0.2c0.3,1.8,0.4,4.2-0.8,5.7c-1.2,1.4-2.2,3.1-3.5,4.4c-2.1,2.2-5.4,4-7.3,0.5
		c-0.7-1.3,0.1-2.3,1.4-3c1.5-0.8,3.2-1.2,4.6-2.3c1.1-0.8,1.9-1.9,2.5-3.1c1-2.4,1-5.6,0.1-8c0.7,0.6,1.1,1.6,1.5,2.4
		c0.1-0.3-0.1-0.8,0.1-1.1C404.6,129.8,404.8,130.6,405.1,132.1z"/>
	<path class="st1" d="M414,156.7c0,4.6-13.6,8.3-30.3,8.3c-16.7,0-30.3-3.7-30.3-8.3c0-4.6,13.5-8.3,30.3-8.3
		C400.5,148.4,414,152.1,414,156.7z"/>
	<g>
		<g>
			<path class="st0" d="M375.1,146.1c-3.5-5-10.1-8.7-13.7-2.5c-1.7,2.8,0.8,6.9,2.6,9c0.6,0,1.2,0.1,1.8,0c0.9,0,1.8-0.2,2.6,0.1
				c1,0.4,1.6,1.3,1.7,2.3c0.1,0.8-0.2,1.5-0.7,2.1c2-0.5,4.1-1.2,5.5-2.9C376.5,152.2,376.7,148.4,375.1,146.1z"/>
			<path class="st2" d="M370.1,155c-0.1-1-0.7-2-1.7-2.3c-0.8-0.3-1.7-0.1-2.6-0.1c-0.6,0-1.2,0-1.8,0c0,0,0,0,0.1,0.1
				c-1,0.4-2.1,0-2.9,1c-0.7,0.8-0.8,2.3,0,3.1c1.9,2.1,5,1.1,7.1,0.7c0.4-0.1,0.8-0.2,1.3-0.3C369.9,156.4,370.2,155.8,370.1,155z"
				/>
		</g>
		<g>
			<path class="st0" d="M392.5,146.1c3.5-5,10.1-8.7,13.7-2.5c1.7,2.8-0.8,6.9-2.6,9c-0.6,0-1.2,0.1-1.8,0c-0.9,0-1.8-0.2-2.6,0.1
				c-1,0.4-1.6,1.3-1.7,2.3c-0.1,0.8,0.2,1.5,0.7,2.1c-2-0.5-4.1-1.2-5.5-2.9C391,152.2,390.8,148.4,392.5,146.1z"/>
			<path class="st2" d="M397.5,155c0.1-1,0.7-2,1.7-2.3c0.8-0.3,1.7-0.1,2.6-0.1c0.6,0,1.2,0,1.8,0c0,0,0,0-0.1,0.1
				c1,0.4,2.1,0,2.9,1c0.7,0.8,0.8,2.3,0,3.1c-1.9,2.1-5,1.1-7.1,0.7c-0.4-0.1-0.8-0.2-1.3-0.3C397.7,156.4,397.4,155.8,397.5,155z"
				/>
		</g>
	</g>
	<path class="st0" d="M383.9,127.6c-2.7,0-5.9-0.7-8.6,0.4c-8.9,3.8-9,18.5-3.5,25.2c3.2,3.9,8.8,3.7,13.3,3.6
		c5.3-0.2,9.2,0.6,11.1-4.9c1.2-3.5,2.1-7,2.9-10.6C401.1,131.7,391.7,127.6,383.9,127.6z"/>
	<path class="st2" d="M393.6,133.5c-2.4-4.6-9.4-4.6-13.1-3.5c-3,0.9-5.9,2-7.5,5.5c-1,2-1.1,4.1-0.5,6.3c0.3,1.2,0.8,2.3,1.2,3.5
		c0.3,1,0.2,1.5,0.3,2.4c0.3,2.9,2.2,6.2,3.8,8.2c0.4,0.5,0.9,1.1,1.3,1.5c2.7,0.2,8,0.3,10.8,0.1c1.5-1.5,2.6-3.7,3.6-5.7
		C395.8,147,396.6,139.2,393.6,133.5z"/>
	<path class="st3" d="M378.1,135.3c-1.4-0.1-2.6-0.4-3.7,0.8c-1.4,1.5-0.8,3.7,1.3,4c2,0.3,3.4-0.9,5.5,0.1c1.7,0.9,3,1.1,4.9,0.4
		c2-0.8,3.1-1,5.2-0.6c1,0.2,1.6,0.2,2.1-0.8c0.7-1.3,0.1-3.5-1.2-4.3c-1.2-0.7-3.1-0.3-4.4-0.2c-1.7,0.2-3.1,0.9-4.9,0.8
		C381.4,135.5,379.8,135.4,378.1,135.3z"/>
	<g>
		<g>
			<path class="st3" d="M389.8,137.5c0,0,3,8.9-1.6,20l6.6,1.5c0,0,6.8-15-0.1-26.5L389.8,137.5z"/>
			<g>
				<path class="st4" d="M387.4,157.6c-0.4,2.2,1.5,4.3,4.1,4.7c2.6,0.4,5.1-1.1,5.4-3.3c0.4-2.2-1.5-4.3-4.1-4.6
					C390.2,153.9,387.8,155.4,387.4,157.6z"/>
			</g>
		</g>
		<g>
			<path class="st3" d="M377.7,137.5c0,0-3,8.9,1.6,20l-6.6,1.5c0,0-6.8-15,0.1-26.5L377.7,137.5z"/>
			<g>
				<path class="st4" d="M380.1,157.6c0.4,2.2-1.5,4.3-4.1,4.7c-2.6,0.4-5.1-1.1-5.4-3.3c-0.4-2.2,1.5-4.3,4.1-4.6
					C377.4,153.9,379.8,155.4,380.1,157.6z"/>
			</g>
		</g>
	</g>
	<path class="st5" d="M370.3,126.7c-0.7,1.4-0.7,3.9,0,5.3c0.6,1.3,1.8,2.5,3,3.3c2.5,1.8,5.5,2.7,8.5,2.8c4.3,0.2,8.8,0.2,12.3-2.8
		c1.8-1.5,3.2-3,3.6-5.6c0.8-6.6-4.9-8.1-9.8-9.1c-4.6-0.9-11.7-1.6-15.1,2.7C372,124.4,370.8,125.6,370.3,126.7z"/>
	<g>
		<path class="st3" d="M404.2,116.9c2.3-6.1,2.4-12.8-1.7-17.6c-2.5-3-6.7-5.6-10.4-6.7c-2.9-0.9-6.1-1.1-9.2-0.8
			c-2.4,0.3-5.2,0.4-7.8,0.7c-2.5,0.4-4.8,1-6.8,2.2c-7.9,5.1-7.9,15-4.4,23.2c4.1,9.7,11.4,16.7,21.9,15.8
			C393.2,133,400.9,125.4,404.2,116.9z"/>
	</g>
	<path class="st4" d="M389.4,130.6c-3,0.8-6,0.7-9.1,0.2c-1.9-0.3-3.9-0.5-5.4-1.8c-1.7-1.5-2.3-4.2-2-6.4c0.2-1.8,1.2-3.6,2.6-4.7
		c1.3-1.1,3.1-1.6,4.5-2.7c1.6-1.2,1-2.5,1.2-4.3c0.1-0.8,0.1-1.5,0.7-2.1c1-1,0.7,0.2,1.7,0.3c1,0.1,0.8-1.5,2-1.1
		c0.9,0.3,0.9,1.4,0.9,2.1c0.1,1.7-0.3,3.6,0.7,4.8c1.2,1.5,3.2,2,4.5,3.5c1.4,1.5,1.9,3.4,2,5.4c0.1,1.8-0.4,3.9-1.7,5.3
		C391.5,129.8,390.5,130.3,389.4,130.6z"/>
	<path d="M388.3,120.9c0,1.8-2,3.2-4.5,3.2c-2.5,0-4.5-1.5-4.5-3.3c0-1.8,2-3.2,4.5-3.2C386.3,117.6,388.3,119.1,388.3,120.9z"/>
	<path d="M383.8,128.1c-0.9,0.2,0.1-1.5-0.2-3.2c-0.2-0.9-0.9-2.5-0.4-2.7C384.8,121.7,384.9,128.3,383.8,128.1
		C383.7,128.1,383.8,128.1,383.8,128.1z"/>
	<path d="M388.6,129.2c-1.4,0-3.1-0.3-4.5-0.8c-0.7-0.3-1.5,0.2-2.3,0.3c-0.8,0.1-1.6,0.2-2.4,0.1c-1.4,0.1-3.8-0.9-2.8-2.5
		c0.7-1.2,1.8,0.2,1,0.4c-0.9,0.2,0.4,1.3,0.8,1.3c1.4,0.1,3.1,0,4.5-0.4c1.3-0.4,2.6,0.3,4,0.5c1,0.2,2,0.4,3,0
		c1.1-0.5-0.2-1.7,0.5-2.1c0.8-0.5,0.9,1.6,0.7,2C390.7,129,389.5,129.2,388.6,129.2C388.3,129.2,389.5,129.2,388.6,129.2z"/>
	<g>
		<g>
			<path class="st6" d="M401.2,112.6c0,3.1-2.5,5.5-5.6,5.5c-3.1,0-5.6-2.5-5.6-5.5c0-3.1,2.5-5.5,5.6-5.5
				C398.7,107.1,401.2,109.5,401.2,112.6z"/>
		</g>
		<g>
			<path class="st6" d="M377.6,112.6c0,3.1-2.5,5.5-5.6,5.5c-3.1,0-5.6-2.5-5.6-5.5c0-3.1,2.5-5.5,5.6-5.5
				C375.1,107.1,377.6,109.5,377.6,112.6z"/>
			<path d="M376.5,112.6c0,2.5-2,4.5-4.5,4.5c-2.5,0-4.5-2-4.5-4.5c0-2.5,2-4.5,4.5-4.5C374.5,108.1,376.5,110.1,376.5,112.6z"/>
			<g>
				<path d="M400.1,112.6c0,2.5-2,4.5-4.5,4.5c-2.5,0-4.5-2-4.5-4.5c0-2.5,2-4.5,4.5-4.5C398,108.1,400.1,110.1,400.1,112.6z"/>
				<path class="st6" d="M392.3,110.8c1.3-2.6,4.7-1.5,2.4,0.8C393.3,113,391.5,112.6,392.3,110.8z"/>
			</g>
			<path class="st6" d="M368.8,110.8c1.3-2.6,4.7-1.5,2.4,0.8C369.7,113,367.9,112.6,368.8,110.8z"/>
		</g>
	</g>
	<g>
		<g>
			<path class="st3" d="M417.7,79.4c-3.5-3.6-13.7,3.8-16.6,5.5C396.3,87.8,389,90,390,97.2c0.1,0.5,0.2,1,0.3,1.4
				c0.9,3.3,4.3,3.2,7,4.6c3.4,1.7,7.4,5.3,11.2,3.6c3.3-1.5,5.4-6.3,6.7-9.3c1.5-3.3,1-6.9,1.4-10.4
				C417,85.1,419.6,81.3,417.7,79.4z"/>
			<path class="st4" d="M398.6,94.9c-0.1,0.1-0.3,0.3-0.4,0.4c1.2,0.3,2.4-0.2,3.6,0c-0.6,1.4-2.2,2.2-3.1,3.3
				c1.3,0.9,2.3,2.1,3,3.5c1.2,2.3,2.4,3.8,5.1,2.9c4.9-1.6,6.3-10.7,6.6-15c0.1-1.9,1.4-3.6,1.5-5.3c0.2-6.3-13.3,4.2-14.5,4.8
				c-1.2,0.6-2.7,0.8-3.8,1.6c-1.1,0.7-1.8,1.9-2.9,2.7c2.4,0.4,4.9-1.5,7.1-1.4C400.2,93.1,399.4,94.1,398.6,94.9z"/>
		</g>
		<g>
			<path class="st3" d="M349.9,78c3.8-3.3,13.4,4.8,16.2,6.7c4.6,3.2,11.7,6,10.2,13.1c-0.1,0.5-0.2,1-0.4,1.4
				c-1.2,3.2-4.5,2.8-7.4,4c-3.5,1.5-7.7,4.8-11.4,2.7c-3.2-1.8-4.9-6.7-6-9.8c-1.2-3.4-0.5-6.9-0.7-10.4
				C350.3,83.7,348,79.8,349.9,78z"/>
			<path class="st4" d="M368.4,94.1c0.1,0.1,0.3,0.3,0.4,0.4c-1.2,0.2-2.4-0.3-3.6-0.3c0.5,1.4,2,2.3,2.8,3.5
				c-1.3,0.8-2.4,1.9-3.3,3.3c-1.4,2.2-2.6,3.6-5.3,2.5c-4.8-2-5.5-11.1-5.5-15.5c0-1.9-1.2-3.7-1.1-5.4c0.3-6.3,13,5.2,14.1,5.9
				c1.1,0.7,2.7,1,3.7,1.8c1,0.8,1.7,2.1,2.7,2.9c-2.5,0.2-4.7-1.9-7-2C367,92.2,367.7,93.3,368.4,94.1z"/>
		</g>
	</g>
</g>
<g>
	<path class="st7" d="M593.3,133.7c0.2-1,0.4-3.2-1.3-2.4c-0.6,0.3-0.9,1-1.6,1.1c-0.9,0.2-2.5-0.3-3.3-0.7
		c-1.3-0.5-2.5-1.6-3.5-2.6c-1.1,1.3-1.2,4.4-0.7,5.9c0.3,0.8,0.6,1.5,1.3,2c0.5,0.4,1,0.7,1.5,0.9c0.8,0.4,1.6,0.2,2.5,0.2
		c0.8,0.1,1.3,0.1,2.1-0.4C591.7,137,592.9,135.4,593.3,133.7z"/>
	<path class="st1" d="M639.4,156.2c0,4.9-14.8,8.8-32.9,8.8c-18.2,0-33-4-33-8.8c0-4.9,14.8-8.8,33-8.8
		C624.7,147.3,639.4,151.3,639.4,156.2z"/>
	<path class="st8" d="M586.4,158.1c2.8-0.5,6.2-1.3,8.2-3.8c2-2.4,2.2-7,0.2-9.8c-4.3-6.1-12.3-10.6-16.7-3.2c-2,3.5,1.1,8.4,3.2,11
		c-1.2,0.5-2.6,0-3.5,1.1c-0.9,1-0.9,2.8,0,3.8C580.1,159.8,583.9,158.6,586.4,158.1z"/>
	<path class="st8" d="M624.5,157.1c-2.9-0.5-6.2-1.1-8.3-3.6c-2-2.4-2.3-7.1-0.4-10c4.2-6.3,12.1-11.2,16.6-3.8
		c2.1,3.5-0.9,8.6-3,11.3c1.2,0.5,2.6-0.1,3.6,1.1c0.9,1,1,2.8,0.1,3.9C630.9,158.6,627.1,157.5,624.5,157.1z"/>
	<path class="st8" d="M605.4,125.2c-3.6,0-7.7-0.8-11.1,0.4c-1.3,0.5-1.9,1.4-2.8,2.4c-1.2,1.2-2.7,1.9-3.6,3.5
		c-0.5,0.9-0.6,1.9-1.1,2.7c-0.7,1.2-1.8,2.1-2.3,3.4c-1,2.4-1.7,5.7-1.5,8.3c0.4,3.8,1.8,7.2,5.4,8.4c2.5,0.8,5.5,1,7.9,1.4
		c5.7,0.9,11.6,0.5,17.5,0.2c3.9-0.2,9.5,0.5,12.1-3.2c2.2-3.1,2-7.9,1.2-11.6c-0.9-4.1-3-7.7-5.5-10.8
		C618.1,126,610.4,125.2,605.4,125.2z"/>
	<path class="st9" d="M618,131.8c-3-4.8-11.5-4.8-16.2-3.6c-3.7,0.9-7.2,2.1-9.3,5.7c-1.2,2.1-1.4,4.2-0.7,6.5
		c0.4,1.2,1,2.4,1.4,3.6c0.4,1,0.2,1.5,0.3,2.5c0.4,3,2.7,6.4,4.6,8.6c0.5,0.6,1,1.1,1.6,1.6c3.3,0.2,9.9,0.3,13.3,0.1
		c1.8-1.5,3.2-3.9,4.4-5.9C620.7,145.8,621.7,137.7,618,131.8z"/>
	<g>
		<path class="st10" d="M597,135.8c0,0-4.3,9.5,2.3,21.2l-9.5,1.6c0,0-7.9-14.6,2-26.8L597,135.8z"/>
		<g>
			<g>
				<g>
					<path class="st10" d="M600.5,156.5c0.4,2.5-2.1,5-5.5,5.6c-3.4,0.5-6.4-1.1-6.8-3.6c-0.4-2.5,2.1-5,5.5-5.6
						C597.1,152.4,600.2,154,600.5,156.5z"/>
				</g>
			</g>
		</g>
	</g>
	<g>
		<path class="st10" d="M614.4,135.8c0,0,4.3,9.5-2.3,21.2l9.5,1.6c0,0,7.9-14.6-2-26.8L614.4,135.8z"/>
		<g>
			<g>
				<g>
					<path class="st10" d="M610.9,156.5c-0.4,2.5,2.1,5,5.5,5.6c3.4,0.5,6.4-1.1,6.8-3.6c0.4-2.5-2.1-5-5.5-5.6
						C614.3,152.4,611.2,154,610.9,156.5z"/>
				</g>
			</g>
		</g>
	</g>
	<path class="st11" d="M588.8,124.1c-0.8,1.7-0.9,4.7,0,6.4c0.8,1.6,2.3,3,3.7,4c3,2.2,6.8,3.2,10.5,3.4c5.3,0.3,10.9,0.3,15.3-3.3
		c2.2-1.8,4-3.6,4.4-6.6c1-7.9-6.1-9.7-12.1-10.8c-5.7-1.1-14.4-1.8-18.7,3.2C590.8,121.4,589.4,122.8,588.8,124.1z"/>
	<g>
		<path class="st6" d="M628.2,124.4c0.7-1.5,1.1-3.1,1.1-4.6c0-7.1,1.9-16.2-3-22.4c-2.7-3.4-6.8-5.7-11.2-6.9
			c-3.4-0.9-7-1.1-10.6-0.8c-2.8,0.3-6,0.4-9,0.7c-2.8,0.4-5.6,1-7.8,2.2c-5.3,3-7.7,7.3-8.2,13.1c0,0.3,0,0.6-0.1,0.9c0,0,0,0,0,0
			c0,0.1,0,0.1,0,0.2c0,0.1,0,0.1,0,0.2c0,0.2,0,0.4,0,0.6c0,0.3,0,0.5,0,0.8c0,0.2,0,0.4,0,0.6c0,0.1,0,0.1,0,0.2
			c0.2,3.7,0.1,7.3,0.6,11c0.3,2.6,0.9,5.1,3.5,6.6c1.2,0.7,2.2,0.9,3.6,0.9c2.1,0.1,4.2,0.5,6.3,1c1.9,0.4,3.7,1.3,5.7,1.7
			c3.5,0.7,7.1,1,10.7,0.6c3-0.3,5.8-1.3,8.7-2c2.7-0.6,6.1-0.7,8.2-2.6C627.3,126,627.8,125.2,628.2,124.4z"/>
		<path class="st12" d="M613,90.2c-0.2,0-0.3-0.1-0.5-0.1c-0.4-0.1-0.7-0.1-1.1-0.2c-0.1,0-0.1,0-0.2,0c-0.4,0-0.8-0.1-1.3-0.1
			c0,0,0,0-0.1,0c-1.8-0.1-3.5-0.1-5.3,0.1c0,0,0,0,0,0c-0.2,1.3,0,2.7-0.1,3.8c-0.3,4.6-0.6,9.4,0.4,14c1.5,6.7,9.3,7.5,14,11.5
			c2.6,2.2,4.2,5.1,8.1,4c0.7-0.2,1.3-0.4,1.9-0.6c0.3-0.9,0.4-1.9,0.4-2.7c0-6.9,1.8-15.5-2.5-21.7c-0.2-0.2-0.3-0.5-0.5-0.7
			c0,0,0,0-0.1-0.1c-0.2-0.3-0.4-0.5-0.6-0.7c-0.1-0.1-0.2-0.2-0.2-0.3c-0.2-0.2-0.3-0.3-0.5-0.5c-0.2-0.2-0.3-0.3-0.5-0.5
			c-0.1-0.1-0.3-0.2-0.4-0.4c-0.2-0.1-0.3-0.3-0.5-0.4c-0.1-0.1-0.1-0.1-0.2-0.2c-0.6-0.5-1.3-0.9-1.9-1.3c0,0,0,0,0,0
			c-0.7-0.4-1.4-0.8-2.1-1.1c-0.1,0-0.1-0.1-0.2-0.1c-0.2-0.1-0.4-0.2-0.6-0.3c-0.2-0.1-0.3-0.1-0.5-0.2c-0.2-0.1-0.5-0.2-0.7-0.3
			c-0.2-0.1-0.5-0.2-0.7-0.2c-0.1,0-0.2-0.1-0.3-0.1c-0.3-0.1-0.7-0.2-1-0.3c-0.4-0.1-0.8-0.2-1.3-0.3
			C613.6,90.3,613.3,90.2,613,90.2z"/>
	</g>
	<path class="st12" d="M596.9,100.1c1.4,1.1,2.6,2.7,3.3,4.6c1.6,4.1-4.8,8.8-8.1,9.3c-2.8,0.3-5.8-0.1-7.5-2.6
		c-3.4-4.8-0.4-10.7,4.3-12.5C591.8,97.7,594.7,98.4,596.9,100.1z"/>
	<g>
		<path class="st13" d="M598.7,118.1c-0.7-2,1.6-4.3,3.7-5c1.4-0.4,3-0.2,4.4,0.1c2.8,0.7,4.6,2.7,4,5.3c-0.6,2.7-1.2,4.1,0.6,6.6
			c2,2.8-2,1-3.6,0.5c-3.7-1.1-6.4,1.2-10.2,1.1c-0.5-2.4,3-3.6,3-5.7C600.5,120.1,599,119,598.7,118.1z"/>
		<path d="M608.3,115c-0.9-1.2-6.3-1-7.3,0.1c-1.4,1.4,1.3,3.2,2.2,3.8c2.2,1.5,3,0.1,4.3-1.9C608,116.3,608.9,115.8,608.3,115z"/>
		<path d="M613.2,127.6c-1.6,0-3.4-0.4-5.5-1.3c-1.7-0.7-2.9-1-4.7-0.3c-0.1,0-5.4,2.2-7.8,0.9c-0.6-0.3-1-0.9-1.1-1.5
			c-0.1-0.3,0.2-0.6,0.5-0.7c0.3-0.1,0.6,0.2,0.7,0.5c0.1,0.3,0.2,0.5,0.5,0.7c1.3,0.7,4.8-0.1,6.9-1c2.1-0.8,3.6-0.5,5.5,0.3
			c4.2,1.7,7.1,1.6,9-0.5c0.2-0.2,0.6-0.2,0.8,0c0.2,0.2,0.2,0.6,0,0.8C616.8,126.9,615.2,127.6,613.2,127.6z"/>
		<path d="M605.5,125.6C605.5,125.6,605.5,125.6,605.5,125.6c-0.4-0.1-0.6-0.3-0.6-0.7c0.1-0.3-0.1-1-0.2-1.6
			c-0.1-0.5-0.2-1-0.3-1.4c-0.1-0.9-0.1-1.8,0-2.6c0-0.4,0-0.8,0-1.2c0-0.3,0.3-0.6,0.6-0.6c0.3,0,0.6,0.3,0.6,0.6
			c0,0.4,0,0.9,0,1.3c0,0.8-0.1,1.7,0,2.5c0,0.4,0.1,0.8,0.2,1.3c0.2,0.8,0.3,1.5,0.2,2C606.1,125.4,605.8,125.6,605.5,125.6z"/>
	</g>
	<g>
		<g>
			<path class="st6" d="M626.1,106.3c0,3.1-3.2,5.5-7.2,5.5c-4,0-7.2-2.5-7.2-5.5c0-3.1,3.2-5.5,7.2-5.5
				C622.9,100.7,626.1,103.2,626.1,106.3z"/>
			<path d="M624.2,106.3c0,2.9-2.4,5.2-5.3,5.2c-2.9,0-5.3-2.3-5.3-5.2c0-2.9,2.4-5.2,5.3-5.2C621.8,101,624.2,103.4,624.2,106.3z"
				/>
			<path class="st6" d="M618.8,104.5c0,1.2-0.9,2.2-2,2.2c-1.1,0-2-1-2-2.2s0.9-2.2,2-2.2C617.9,102.3,618.8,103.3,618.8,104.5z"/>
		</g>
		<g>
			<path class="st6" d="M598.9,106.3c0,3.1-3.2,5.5-7.2,5.5c-4,0-7.2-2.5-7.2-5.5c0-3.1,3.2-5.5,7.2-5.5
				C595.7,100.7,598.9,103.2,598.9,106.3z"/>
			<path d="M597,106.3c0,2.9-2.4,5.2-5.3,5.2c-2.9,0-5.3-2.3-5.3-5.2c0-2.9,2.4-5.2,5.3-5.2C594.6,101,597,103.4,597,106.3z"/>
			<path class="st6" d="M591.6,104.5c0,1.2-0.9,2.2-2,2.2c-1.1,0-2-1-2-2.2s0.9-2.2,2-2.2C590.7,102.3,591.6,103.3,591.6,104.5z"/>
		</g>
	</g>
	<g>
		<g>
			<path class="st12" d="M617,94.1c-1.9-0.4-4.5,0.2-5.6-1.7c-0.9-1.7-0.1-4.1,0.1-5.9c0.4-3.1,2-5.9,4.1-8.2
				c2.8-3.1,8-6.3,12.3-7.1c3.8-0.7,5,5.6,5.7,8.2c1,4.4,1,9.8-0.8,14c-1.3,3-5.5,8-8.8,4.4C622.1,95.6,620.2,94.7,617,94.1z"/>
			<path class="st13" d="M622.4,93c-2.6-1.1-8.2,1.5-8.9-2.1c-0.5-2.5,1.9-5.4,3.1-7.4c2.3-3.4,5.5-6.1,9.6-6.9
				c6.6-1.2,4,12.4,2.7,15.6c-0.6,1.4-1.3,3-3,3C624.4,95.2,623.7,93.6,622.4,93z"/>
		</g>
		<g>
			<path class="st6" d="M593.3,94.1c1.9-0.4,4.5,0.2,5.6-1.7c0.9-1.7,0.1-4.1-0.1-5.9c-0.4-3.1-2-5.9-4.1-8.2
				c-2.8-3.1-8-6.3-12.3-7.1c-3.8-0.7-5,5.6-5.7,8.2c-1,4.4-1,9.8,0.8,14c1.3,3,5.5,8,8.8,4.4C588.3,95.6,590.2,94.7,593.3,94.1z"/>
			<path class="st13" d="M587.5,93.5c2.6-1.1,8.2,1.5,8.9-2.1c0.5-2.5-1.9-5.4-3.1-7.4c-2.3-3.4-5.5-6.1-9.6-6.9
				c-6.6-1.2-4,12.4-2.7,15.6c0.6,1.4,1.3,3,3,3C585.5,95.6,586.1,94.1,587.5,93.5z"/>
		</g>
	</g>
</g>
<g>
	<path class="st14" d="M524.6,119c-0.9,0.8-1.8,1.6-2.6,2.6c-0.9,1.1-1.8,2.1-3,2.8c-4.4,2.7-13.3,6.4-15.3-1.1c0-0.1,0-0.1-0.1-0.2
		c-1.3-5.2,3.5-8,7.5-9.8c2.4-1,4.9-1.8,7.4-2.8c3.1-1.2,6.1-3,8.5-5.3c1.2-1.1,7.9-10.1,8.6-11.1c1.6-2.3,0.5,5.7,0.4,6.1
		c-2,7.3-3.2,8.4-4.1,10.2C530,114,527.6,116.4,524.6,119z"/>
	<path class="st1" d="M543.5,154.2c0,6-21.6,10.8-48.2,10.8c-26.6,0-48.2-4.8-48.2-10.8c0-6,21.6-10.8,48.2-10.8
		C522,143.3,543.5,148.2,543.5,154.2z"/>
	<path class="st15" d="M526.6,142.6c4.2-4,10.2-11.3,10.1-18.1c0,0,0,0,0,0c0,0,0,0,0,0c0-0.3,0-0.5,0-0.8c0,0,0-0.1,0-0.1
		c0-0.2-0.1-0.5-0.1-0.7c0-0.1,0-0.1,0-0.2c0-0.2-0.1-0.4-0.1-0.6c0-0.1,0-0.1,0-0.2c-0.1-0.3-0.2-0.5-0.2-0.8
		c-0.1-0.3-0.2-0.5-0.3-0.8c0-0.1-0.1-0.2-0.1-0.3c-0.1-0.2-0.1-0.3-0.2-0.5c0-0.1-0.1-0.2-0.1-0.3c-0.1-0.1-0.1-0.3-0.2-0.4
		c-0.1-0.1-0.1-0.2-0.2-0.3c-0.1-0.1-0.1-0.3-0.2-0.4c-0.1-0.1-0.1-0.2-0.2-0.3c-0.1-0.1-0.1-0.2-0.2-0.3c-0.1-0.1-0.1-0.2-0.2-0.3
		c-0.1-0.1-0.1-0.2-0.2-0.3c-0.1-0.1-0.1-0.2-0.2-0.3c-0.1-0.1-0.1-0.2-0.2-0.3c-0.1-0.1-0.1-0.2-0.2-0.2c-0.1-0.1-0.2-0.2-0.3-0.3
		c-0.1-0.1-0.1-0.1-0.2-0.2c-0.1-0.1-0.2-0.3-0.3-0.4c0,0-0.1-0.1-0.1-0.1c-0.1-0.1-0.3-0.3-0.4-0.4c-0.1-0.1-0.1-0.1-0.2-0.2
		c-0.1-0.1-0.2-0.2-0.3-0.3c-0.1-0.1-0.1-0.1-0.2-0.2c-0.1-0.1-0.2-0.2-0.3-0.2c-0.1-0.1-0.1-0.1-0.2-0.2c-0.1-0.1-0.2-0.1-0.3-0.2
		c-0.1,0-0.1-0.1-0.2-0.1c-0.1-0.1-0.2-0.1-0.3-0.2c-0.1,0-0.1-0.1-0.2-0.1c-0.1-0.1-0.2-0.1-0.3-0.2c-0.1,0-0.1-0.1-0.2-0.1
		c-0.1-0.1-0.2-0.1-0.3-0.2c-0.1,0-0.1-0.1-0.2-0.1c-0.1-0.1-0.3-0.1-0.4-0.2c0,0-0.1,0-0.1-0.1c-0.4-0.1-0.7-0.3-1.1-0.4
		c0,0,0,0,0,0c-0.2,0-0.3-0.1-0.5-0.1c0,0-0.1,0-0.1,0c-0.2,0-0.3-0.1-0.5-0.1c0,0-0.1,0-0.1,0c-0.1,0-0.3,0-0.4-0.1
		c0,0-0.1,0-0.1,0c-0.2,0-0.3,0-0.5,0c0,0-0.1,0-0.1,0c-0.2,0-0.3,0-0.5,0c0,0-0.1,0-0.1,0c-0.2,0-0.4,0-0.5,0c0,0,0,0-0.1,0
		c-1,0-2.1,0.2-3.2,0.4c0,0,0,0,0,0c-0.2,0-0.4,0.1-0.6,0.1c0,0,0,0,0,0c-0.2,0.1-0.4,0.1-0.6,0.2c0,0,0,0,0,0c0,0,0,0,0,0
		c-5.6,1.6-11.3,5.7-15.8,10.7c-4.7,5.2-5.7,14.5-2.7,20c3.1,5.7,9.3,8.1,14.5,10c4.7,1.7,11.5,5.2,16.6,0.7
		c2.1-1.8,2.4-5.4,1.1-7.7C531.5,143.3,528.7,143.9,526.6,142.6z"/>
	<path class="st15" d="M484.5,122.9c-4.5-5-10.2-9.1-15.8-10.7v0c0,0,0,0,0,0c-0.2-0.1-0.4-0.1-0.6-0.2c0,0,0,0,0,0
		c-0.2-0.1-0.4-0.1-0.6-0.1c0,0,0,0,0,0c-1.1-0.2-2.1-0.4-3.2-0.4c0,0,0,0-0.1,0c-0.2,0-0.4,0-0.5,0c0,0-0.1,0-0.1,0
		c-0.2,0-0.3,0-0.5,0c0,0-0.1,0-0.1,0c-0.2,0-0.3,0-0.5,0c0,0-0.1,0-0.1,0c-0.2,0-0.3,0-0.5,0.1c0,0-0.1,0-0.1,0
		c-0.2,0-0.3,0.1-0.5,0.1c0,0-0.1,0-0.1,0c-0.2,0-0.4,0.1-0.5,0.1c0,0,0,0,0,0c-0.4,0.1-0.8,0.2-1.1,0.4c0,0-0.1,0-0.1,0
		c-0.1,0.1-0.3,0.1-0.4,0.2c-0.1,0-0.1,0-0.2,0.1c-0.1,0.1-0.2,0.1-0.4,0.2c-0.1,0-0.1,0.1-0.2,0.1c-0.1,0.1-0.2,0.1-0.3,0.2
		c-0.1,0-0.1,0.1-0.2,0.1c-0.1,0.1-0.2,0.1-0.3,0.2c-0.1,0-0.1,0.1-0.2,0.1c-0.1,0.1-0.2,0.1-0.3,0.2c-0.1,0-0.1,0.1-0.2,0.1
		c-0.1,0.1-0.2,0.2-0.3,0.3c-0.1,0-0.1,0.1-0.2,0.1c-0.1,0.1-0.2,0.2-0.3,0.3c0,0-0.1,0.1-0.1,0.1c-0.2,0.1-0.3,0.3-0.5,0.5
		c0,0,0,0,0,0c-0.1,0.2-0.3,0.3-0.4,0.5c0,0.1-0.1,0.1-0.1,0.2c-0.1,0.1-0.2,0.2-0.3,0.4c-0.1,0.1-0.1,0.1-0.2,0.2
		c-0.1,0.1-0.2,0.2-0.2,0.3c-0.1,0.1-0.1,0.2-0.2,0.2c-0.1,0.1-0.2,0.2-0.2,0.3c-0.1,0.1-0.1,0.2-0.2,0.3c-0.1,0.1-0.1,0.2-0.2,0.4
		c-0.1,0.1-0.1,0.2-0.2,0.3c-0.1,0.1-0.1,0.3-0.2,0.4c0,0.1-0.1,0.2-0.1,0.3c-0.1,0.1-0.1,0.3-0.2,0.4c0,0.1-0.1,0.2-0.1,0.3
		c-0.1,0.2-0.1,0.3-0.2,0.5c0,0.1-0.1,0.2-0.1,0.3c-0.1,0.3-0.2,0.5-0.3,0.8c-0.1,0.3-0.2,0.5-0.2,0.8c0,0.1,0,0.1,0,0.2
		c-0.1,0.2-0.1,0.4-0.1,0.6c0,0.1,0,0.1,0,0.2c0,0.2-0.1,0.5-0.1,0.7c0,0,0,0.1,0,0.1c0,0.3,0,0.5,0,0.8c0,0,0,0,0,0c0,0,0,0,0,0
		c-0.1,6.8,5.9,14.1,10.1,18.1c-2.1,1.3-4.9,0.8-6.4,3.3c-1.3,2.2-0.9,5.9,1.1,7.7c5.1,4.5,11.9,1,16.6-0.7
		c5.2-1.9,11.4-4.3,14.5-10C490.2,137.4,489.1,128.1,484.5,122.9z"/>
	<path class="st16" d="M522.3,92c-1.9-6.7-4.5-11.4-10.5-12.1c-5.7-0.7-11.7-1.8-17.5-2v0c-0.1,0-0.2,0-0.3,0c-0.1,0-0.2,0-0.3,0v0
		c-5.8,0.2-11.8,1.3-17.5,2c-5.9,0.7-8.6,5.4-10.5,12.1c-1.7,5.9-1.9,11.8-0.9,18c0.3,1.9,0.6,3.9,1,5.9c0.9,4.4,2,8.9,3.6,12.8
		c2.1,5.1,3.9,11.7,7.1,15.8c1.1,1.4,2.5,2.3,4,2.8c2.2,2.2,7.4,3.1,13.4,3.1c6,0,11.2-0.9,13.4-3.1c0,0,0.1,0,0.1,0
		c1.5-0.5,2.9-1.4,4-2.8c3.2-4,5-10.7,7.1-15.8c1.5-3.7,2.6-7.8,3.5-11.9c0.5-2.3,0.9-4.6,1.2-6.8C524.2,103.7,524,97.9,522.3,92z"
		/>
	<path class="st15" d="M507.9,117c-6.1,0-10.2,3.6-17,2c-5.8-1.4-12-3.6-15.1,2c-3.9,6.9-4.2,16.2-0.5,23.5c0.4,0.5,0.8,0.9,1.2,1.3
		c1.1,1,2.5,1.7,4,2.1c2.2,1.6,7.4,2.3,13.4,2.3c6,0,11.2-0.7,13.4-2.3c0,0,0.1,0,0.1,0c1.5-0.4,2.9-1.1,4-2.1
		c2-1.9,3.5-4.5,4.8-7.2C516.9,131.9,517.7,117.1,507.9,117z"/>
	<g>
		<g>
			<path class="st17" d="M471.3,80c-1.1,2.7-1.2,7.5-0.1,10.2c1.1,2.5,3.1,4.8,5,6.4c4.1,3.5,9.3,5.1,14.3,5.4
				c7.3,0.5,14.9,0.4,20.8-5.3c3-2.9,5.5-5.8,6-10.6c1.4-12.6-8.3-15.5-16.5-17.3c-7.8-1.7-19.7-3-25.5,5.1
				C474.1,75.6,472.2,77.9,471.3,80z"/>
		</g>
		<path class="st16" d="M494.8,92.3c-2.4-0.5-4.8-0.8-7.5-0.3c-7,1.5-9.8-0.6-14.5-6.5c-6.5-8-2.4-14-4.5-22.1
			c-1.4-5.4-5.7-11.1-6.7-17.1c-1.5-8.8,0.3-18.7,6.5-25.3c3.2-3.4,5.9-4.3,10.3-4.6c5.2-0.3,9.3,3,14.3,2.8
			c3.1-0.1,5.9-2.9,9.3-3.1c8.7-0.3,16.4,7.1,18.8,15.2c1.1,3.6,1.7,7.6,1.9,11.4c0.1,3.9,0,7.7-1.1,11.4c-1,3.2-4.3,5.1-4.8,8.4
			c-0.4,2.1,1,7.4,0.9,9.6c-0.3,4.2-0.7,6.8-2.2,10.8C511.8,92.2,503.6,94,494.8,92.3z"/>
		<path class="st18" d="M519.8,53.8c-0.4-3.1-0.8-6.2-1.1-9.3c-0.4-4.2-1.3-7.6-3.4-11.4c-2.5-4.6-10.3-12.9-0.7-15.8
			c5.4-1.6,12.6,7.4,14.9,11.3c1.7,2.8,1.8,6.4,3.5,9.2c2.2,3.7,5.9,6.1,6.4,10.3c0.8,6.6-5.7,10.3-8.1,15.7
			c-0.6,1.4-0.5,4.3-2.5,5.1C520.9,72,520.3,57.4,519.8,53.8z"/>
		<path class="st18" d="M463.3,53.8c0.4-3.1,0.8-6.2,1.1-9.3c0.4-4.2,1.3-7.6,3.4-11.4c2.5-4.6,10.3-12.9,0.7-15.8
			c-5.4-1.6-12.6,7.4-14.9,11.3c-1.7,2.8-1.8,6.4-3.5,9.2c-2.2,3.7-5.9,6.1-6.4,10.3c-0.8,6.6,5.7,10.3,8.1,15.7
			c0.6,1.4,0.5,4.3,2.5,5.1C462.2,72,462.9,57.4,463.3,53.8z"/>
		<path d="M503.2,86.3c-0.9,0.5-1.9,0.8-2.9,0.8c-0.9,0-1.9-0.1-2.7-0.5c-0.7-0.4-1.4-1.1-2.1-1.4c-0.5-0.2-1.3-0.6-1.8-0.6
			c-1.1-0.1-1.6,0.7-2.4,1.3c-0.9,0.7-2.3,1.1-3.4,1.2c-1.8,0.2-4.3,0.1-5.8-1.3c-0.3-0.3-0.5-0.7-0.8-0.9c-0.1,0.9,0.6,1.9,1.1,2.2
			c0.7,0.5,1.7,1,2.5,1.4c0.9,0.5,1.8,0.6,2.8,0.7c1.4,0.1,2.8,0.1,4.1-0.6c1.5-0.9,1.9-1.4,3.4-0.5c1.2,0.8,2.6,1,4,1.1
			c0.8,0,1.6,0.2,2.4,0c2.2-0.5,4.5-2.3,5-5.3c-0.6,0.1-0.9,0.9-1.4,1.3c-0.5,0.4-1.1,0.7-1.6,1.1C503.4,86.2,503.3,86.3,503.2,86.3
			z"/>
		<path d="M503,70c2,8.7-18.8,9-19.8,2.3c-0.8-6.1,6.6-7,10.2-7C497.9,65.2,501.8,64.5,503,70z"/>
		<g>
			<path d="M475.1,47.3c0,3.7,1.8,6.7,4.1,6.7c2.2,0,4.1-3,4.1-6.7c0-3.7-1.8-6.7-4.1-6.7C476.9,40.6,475.1,43.6,475.1,47.3z"/>
			<path class="st6" d="M479,45.1c-0.5,1.1-1.6,1.8-2.5,1.5c-0.9-0.3-1.1-1.5-0.6-2.7c0.5-1.1,1.6-1.8,2.5-1.5
				C479.2,42.7,479.5,43.9,479,45.1z"/>
		</g>
		<g>
			<path d="M503,47.3c0,3.7,1.8,6.7,4.1,6.7c2.2,0,4.1-3,4.1-6.7c0-3.7-1.8-6.7-4.1-6.7C504.8,40.6,503,43.6,503,47.3z"/>
			<path class="st6" d="M506.9,45.1c-0.5,1.1-1.6,1.8-2.5,1.5c-0.9-0.3-1.1-1.5-0.6-2.7c0.5-1.1,1.6-1.8,2.5-1.5
				C507.1,42.7,507.4,43.9,506.9,45.1z"/>
		</g>
	</g>
	<path class="st16" d="M522.1,156.3c-1.6-1.7-4.5-1.6-5.8-3.5c-1.2-1.8-0.3-4.3-0.1-6.3c0.4-4.7,0.9-9.3,1.7-14.1
		c0.1-0.8,0.3-1.6,0.5-2.3c1.9-7.5,6.2-14.7,3.5-22.6c-1.9-5.4-8.5-7.3-14.4-4.7c-1.7,0.7-2.9,1.9-3.7,3.3c-0.4,0.7-0.7,1.5-1,2.3
		c-1,3.2-0.7,7-0.5,9.8c0.5,6.9-0.1,14-0.1,20.9c0.1,7.6-1.8,16.9,7.7,21.1c2.7,1.2,6,2.1,9.1,1.5
		C522.2,161,524.2,158.6,522.1,156.3z"/>
	<path class="st16" d="M467,156.3c1.6-1.7,4.5-1.6,5.8-3.5c1.2-1.8,0.3-4.3,0.1-6.3c-0.4-4.7-0.9-9.3-1.7-14.1
		c-0.1-0.8-0.3-1.6-0.5-2.3c-1.9-7.5-6.2-14.7-3.5-22.6c1.9-5.4,8.5-7.3,14.4-4.7c1.7,0.7,2.9,1.9,3.7,3.3c0.4,0.7,0.7,1.5,1,2.3
		c1,3.2,0.7,7,0.5,9.8c-0.5,6.9,0.1,14,0.1,20.9c-0.1,7.6,1.8,16.9-7.7,21.1c-2.7,1.2-6,2.1-9.1,1.5
		C466.9,161,464.8,158.6,467,156.3z"/>
</g>
<g>
	<path class="st19" d="M59.3,132.2c3.7,0.5,7.3-1.2,3.8-4.7c-2.4-2.5-6.2-2.9-9.3-4.1c-3.9-1.4-8.3-2.8-11.8-5.1
		C44.1,124.6,52.8,131.4,59.3,132.2z"/>
	<path class="st1" d="M129.3,153.5c0,6.3-20.2,11.5-45.1,11.5c-24.9,0-45.1-5.1-45.1-11.5c0-6.3,20.2-11.5,45.1-11.5
		C109.1,142,129.3,147.2,129.3,153.5z"/>
	<path class="st19" d="M56.8,156.1c3.9-0.7,8.5-1.7,11.3-4.9c2.7-3.1,3-9.1,0.2-12.7c-5.9-7.9-16.9-13.7-22.8-4.1
		c-2.8,4.5,1.5,10.9,4.4,14.3c-1.6,0.6-3.5,0-4.9,1.5c-1.2,1.3-1.3,3.6,0,4.9C48.1,158.2,53.3,156.7,56.8,156.1z"/>
	<path class="st19" d="M109,154.8c-3.9-0.6-8.5-1.4-11.4-4.7c-2.8-3.1-3.1-9.2-0.5-13c5.7-8.2,16.6-14.6,22.7-4.9
		c2.9,4.5-1.2,11.2-4.1,14.7c1.6,0.6,3.5-0.1,4.9,1.4c1.2,1.3,1.4,3.6,0.1,5C117.7,156.7,112.5,155.3,109,154.8z"/>
	<path class="st19" d="M109.5,117c-4.6-5.4-18.9-3.8-26.3-3.7c-7.4-0.2-21.7-1.7-26.3,3.7c-3.5,4.1-3.8,10.7-2.8,16
		c0.9,4.8,2,12.2,5.1,16.3c3.6,4.8,7.9,3.7,13.4,3.9c3.5,0.2,7,0.4,10.5,0.4v0c0.1,0,0.1,0,0.2,0c0.1,0,0.1,0,0.2,0v0
		c3.5-0.1,7-0.3,10.5-0.4c5.5-0.3,9.8,0.8,13.4-3.9c3.1-4.1,4.2-11.5,5.1-16.3C113.3,127.7,113,121.2,109.5,117z"/>
	<g>
		<path class="st20" d="M103.2,134.3c0.2-4.3-0.8-8.7-3.3-12.5c-4.1-6.2-15.8-6.2-22.2-4.7c-5.1,1.2-9.9,2.7-12.7,7.5
			c-1.6,2.7-1.9,5.5-0.9,8.5c0.2,0.5,0.4,1,0.6,1.5C72.1,136.9,87.6,140.2,103.2,134.3z"/>
		<path class="st21" d="M64.8,134.6c0.5,1,1,2.1,1.4,3.1c0.5,1.3,0.3,2,0.5,3.3c0.5,3.9,3.7,8.3,6.3,11.1c0.7,0.7,1.4,1.4,2.2,2.1
			c4.5,0.3,13.5,0.4,18.2,0.2c2.5-2,4.3-5,6-7.6c2.2-3.4,3.7-7.9,3.8-12.4C87.6,140.2,72.1,136.9,64.8,134.6z"/>
	</g>
	<g>
		<g>
			<path class="st22" d="M75.9,155.5c-0.1,3.3-3.9,5.9-8.6,5.8c-4.7-0.1-8.4-2.9-8.4-6.2c0.1-3.3,3.9-5.9,8.6-5.8
				C72.2,149.4,75.9,152.1,75.9,155.5z"/>
		</g>
		<path class="st22" d="M70.9,127.1c0,0-5.9,12.3,3.1,27.6l-10,1.6c0,0-16-20.8-2.4-36L70.9,127.1z"/>
	</g>
	<g>
		<g>
			<path class="st22" d="M90.1,155.5c0.1,3.3,3.9,5.9,8.6,5.8c4.7-0.1,8.4-2.9,8.4-6.2c-0.1-3.3-3.9-5.9-8.6-5.8
				C93.8,149.4,90.1,152.1,90.1,155.5z"/>
		</g>
		<path class="st22" d="M95.1,127.1c0,0,5.9,12.3-3.1,27.6l10,1.6c0,0,16-20.8,2.4-36L95.1,127.1z"/>
	</g>
	<g>
		<path class="st11" d="M60.5,112c-1.1,2.2-1.2,6.1-0.1,8.2c1.1,2.1,3.1,3.9,5,5.2c4.2,2.9,9.4,4.1,14.4,4.4
			c7.3,0.4,14.9,0.3,20.9-4.3c3-2.3,5.5-4.7,6-8.6c1.4-10.2-8.3-12.6-16.6-14c-7.8-1.4-19.8-2.4-25.6,4.2
			C63.3,108.4,61.4,110.3,60.5,112z"/>
	</g>
	<g>
		<g>
			<path class="st19" d="M111.3,73.3c0.6,0.7,1.2,1.4,1.7,2.2c4.5,7.2-5,13.2-11.1,9.6c-5.6-3.2-9.8-11.3-8.1-17.7
				c0.4-1.6,2.1-4.3,4.2-4.4c1.9-0.1,4.2,3.3,5.7,4.4C106.2,69.5,109.1,71.1,111.3,73.3z"/>
			<path class="st19" d="M53.8,73.3c-0.6,0.7-1.2,1.4-1.7,2.2c-4.5,7.2,5,13.2,11.1,9.6c5.6-3.2,9.8-11.3,8.1-17.7
				c-0.4-1.6-2.1-4.3-4.2-4.4c-1.9-0.1-4.2,3.3-5.7,4.4C58.9,69.5,56,71.1,53.8,73.3z"/>
		</g>
		<g>
			<path class="st22" d="M108.8,89.8c-1.2-3.9-0.1-7-2.7-10.4c-3.4-4.4-9.5-5.9-14.4-7.8c-3.7-1.4-6.8-0.3-10.2-0.5v50.4
				c2.6-0.1,5.1-0.5,7.9-0.9c4.5-0.6,9.2-0.7,13.6-2.2c3.8-1.4,6.6-6.3,7.7-10.1C112.6,101.6,110.8,96,108.8,89.8z"/>
			<path class="st22" d="M56.3,89.8c1.2-3.9,0.1-7,2.7-10.4c3.4-4.4,9.5-5.9,14.4-7.8c3.7-1.4,6.8-0.3,10.2-0.5v50.4
				c-2.6-0.1-5.1-0.5-7.9-0.9c-4.5-0.6-9.2-0.7-13.6-2.2c-3.8-1.4-6.6-6.3-7.7-10.1C52.5,101.6,54.3,96,56.3,89.8z"/>
		</g>
		<path class="st19" d="M86.9,113.6c-1.6-0.9-3.3-1.6-4.7-1.5c-2.6,0-6.6,2.1-8.6,3.8c-1.6,1.2-4.2,5.9-2.6,7.6
			c2,2.2,10.4,1.8,13.3,1.8c4.2,0,14-1.3,8.7-6.8C91.7,117.1,89.3,115,86.9,113.6z"/>
		<path class="st23" d="M103.5,111.9c-0.9-1.5-1.7-2.9-2.5-4.2c-1-1.6-2.2-3.1-4.1-4.5c-3.7-2.8-7-5-11.8-5.4
			c-0.9-0.1-1.7,0-2.6,0.1c-0.8-0.1-1.7-0.2-2.6-0.1c-4.8,0.4-8.1,2.6-11.8,5.4c-1.9,1.4-3,2.8-4.1,4.5c-0.8,1.3-1.5,2.6-2.5,4.2
			c-1.7,2.9-1.6,5.2,0.9,7.6c5.4,5.2,12.3,1.9,17.6-1.6c0.8-0.5,1.6-0.8,2.4-1c0.8,0.2,1.6,0.5,2.4,1c5.3,3.4,12.2,6.7,17.6,1.6
			C105.1,117.1,105.2,114.8,103.5,111.9z"/>
		<path class="st24" d="M90.6,98.1c4.4,6.9-17.4,7.1-16.7,1.5c0.4-3,5.8-2.8,7.9-2.8C84,96.8,89.4,96.2,90.6,98.1z"/>
		<g>
			<path class="st24" d="M72.2,122.3c0.1,0,0.1,0,0.2,0c3.3-1,10.3-4.8,10.5-4.9c0.2-0.1,0.4-0.4,0.4-0.7l-0.1-14.2
				c0-0.4-0.4-0.8-0.8-0.8c-0.5,0-0.8,0.4-0.8,0.8l0.1,13.8c-1.4,0.9-7.1,3.7-9.7,4.5c-0.4,0.1-0.7,0.6-0.5,1
				C71.5,122.1,71.9,122.3,72.2,122.3z"/>
			<path class="st24" d="M92.9,122.3c-0.1,0-0.1,0-0.2,0c-3.3-1-10.3-4.8-10.5-4.9c-0.2-0.1-0.4-0.4-0.4-0.7l0.1-14.2
				c0-0.4,0.4-0.8,0.8-0.8c0.5,0,0.8,0.4,0.8,0.8l-0.1,13.8c1.4,0.9,7.1,3.7,9.7,4.5c0.4,0.1,0.7,0.6,0.5,1
				C93.6,122.1,93.3,122.3,92.9,122.3z"/>
		</g>
		<path class="st20" d="M83.7,76.9c-0.2-0.1-0.4-0.3-0.6-0.3c-0.1,0-0.2-0.1-0.3-0.1v-0.1c-0.1,0-0.2,0-0.2,0c-0.1,0-0.2,0-0.2,0
			v0.1c-0.1,0-0.2,0-0.3,0.1c-0.2,0.1-0.4,0.2-0.6,0.3c-2.1,1.6-1.5,5.5-1.2,7.5c0.2,1.6,0.2,4.4,1.1,5.8c0.3,0.5,0.7,0.8,1.1,0.9
			v0.1c0.1,0,0.2,0,0.2,0c0.1,0,0.2,0,0.2,0v-0.1c0.4-0.1,0.7-0.4,1.1-0.9c0.9-1.4,0.9-4.3,1.1-5.8C85.2,82.4,85.8,78.5,83.7,76.9z"
			/>
		<g>
			<path d="M64.2,91.5c0,2.7,1.4,4.8,3.1,4.8c1.7,0,3.1-2.2,3.1-4.8c0-2.7-1.4-4.8-3.1-4.8C65.6,86.6,64.2,88.8,64.2,91.5z"/>
			<path class="st6" d="M67.2,89.9c-0.4,0.8-1.3,1.3-1.9,1.1s-0.9-1.1-0.5-1.9c0.4-0.8,1.3-1.3,1.9-1.1C67.4,88.2,67.6,89,67.2,89.9
				z"/>
		</g>
		<g>
			<path d="M94.6,91.5c0,2.7,1.4,4.8,3.1,4.8c1.7,0,3.1-2.2,3.1-4.8c0-2.7-1.4-4.8-3.1-4.8C96,86.6,94.6,88.8,94.6,91.5z"/>
			<path class="st6" d="M97.6,89.9c-0.4,0.8-1.3,1.3-1.9,1.1s-0.9-1.1-0.5-1.9c0.4-0.8,1.3-1.3,1.9-1.1C97.8,88.2,98,89,97.6,89.9z"
				/>
		</g>
	</g>
</g>
<g>
	<g>
		<path class="st25" d="M686,119.8c0.3,0,0.6-0.1,0.9-0.1c3-0.8,5-4,8-4.3c4.8-0.5,6.4,8.4,3.8,11.2c-2.4,2.6-11,4-14.7,4
			c-5.7,0-10.6-3.8-12.8-9.9c-2.2-6.4,1.2-13.2,6-16.6c2.7-1.9,5.2-2.5,8.3-0.8c3,1.6,4.9,4.6,4.5,8.1c-0.2,1.8-1.8,4.1-3.6,4
			c-0.4-2.3-0.7-3.5-3-3.7c-1.9-0.2-3.2,1-3.5,3.1C679.4,117.9,683.3,119.9,686,119.8z"/>
		<path class="st26" d="M671.1,120.7c-2.2-6.4,1.2-13.2,6-16.6c2.7-1.9,5.2-2.5,8.3-0.8c3,1.6,4.9,4.6,4.5,8.1
			c-0.2,1.6-1.5,3.6-3,3.9c1.2-3.7,2.6-6.8-2.1-9.1c-4.1-2-8.5,1-10.2,4.8c-3.4,7.5,2.8,13.3,9.2,15.9c2.5,1.1,6,1,8.2,2.4
			c0.1,0,0.1,0.1,0.2,0.1c-3,0.7-6.3,1.1-8.2,1.1C678.1,130.6,673.2,126.8,671.1,120.7z"/>
	</g>
	<path class="st1" d="M756.3,154.5c0,5.8-18.4,10.5-41,10.5c-22.7,0-41-4.7-41-10.5c0-5.8,18.4-10.5,41-10.5
		C737.9,144.1,756.3,148.7,756.3,154.5z"/>
	<g>
		<g>
			<g>
				<path class="st27" d="M747,146.7c-1.2-1.8-2.8-0.9-4.2-1.6c0.7-1.2,1.5-2.7,2.2-4.4c1.9-4.3,3.3-9.8,1.5-13.8
					c-5.2-11.8-14.6-4-19.6,6.2c-0.8,1.5-1.2,3.4-1.5,5.3c-0.5,3.9,0.2,8.1,1.8,10.7c2.4,4,6.4,4.9,9.7,5.7c3,0.6,7.5,2.4,10.1-1.9
					C748.1,151.1,748,148.2,747,146.7z"/>
			</g>
			<g>
				<path class="st27" d="M705.4,138.4c-0.2-1.9-0.7-3.7-1.5-5.3c-5-10.2-14.4-18-19.6-6.2c-1.7,4-0.3,9.4,1.5,13.8
					c0.7,1.7,1.5,3.2,2.2,4.4c-1.4,0.7-3-0.1-4.2,1.6c-1,1.6-1.1,4.4-0.1,6.2c2.7,4.3,7.1,2.6,10.1,1.9c3.4-0.7,7.3-1.7,9.7-5.7
					C705.2,146.5,705.9,142.3,705.4,138.4z"/>
			</g>
		</g>
	</g>
	<path class="st28" d="M738.8,102.4c-1.6-5.7-3.8-9.7-8.7-10.3c-4.8-0.6-9.8-1.5-14.6-1.7v0c-0.1,0-0.2,0-0.2,0c-0.1,0-0.2,0-0.2,0
		v0c-4.8,0.2-9.8,1.1-14.6,1.7c-4.9,0.6-7.2,4.6-8.7,10.3c-1.4,5-1.6,10-0.8,15.3c0.8,5.3,1.9,11,3.9,15.9c1.7,4.3,3.3,10,5.9,13.4
		c0.9,1.2,2.1,2,3.3,2.4c1.8,1.8,6.1,3.2,11.2,3.2c5,0,9.3-1.3,11.2-3.1c0,0,0,0,0.1,0c0,0,0.1-0.1,0.1-0.1c0,0,0,0,0,0
		c0,0,0,0.1-0.1,0.1c1.2-0.4,2.4-1.2,3.3-2.4c2.6-3.4,4.2-9.1,5.9-13.4c2-4.9,3.1-10.6,3.9-15.9
		C740.4,112.4,740.2,107.5,738.8,102.4z"/>
	<g>
		<path class="st27" d="M726.9,121.2c-1.5,0.2-3,0.4-4.5,0.6c0,0,0,0,0,0c-0.4,0.1-0.8,0.1-1.2,0.2c-0.7,0.1-1.5,0.1-2.2,0.2
			c-0.1,0-0.2,0-0.3,0c-0.1,0-0.2,0-0.3,0c-1,0-2,0.1-3.1,0.1c-1.1,0-2.1,0-3.1-0.1c-0.1,0-0.2,0-0.3,0c-0.1,0-0.2,0-0.3,0
			c-0.7,0-1.5-0.1-2.2-0.2c-0.4,0-0.8-0.1-1.2-0.2c0,0,0,0,0,0c-1.5-0.2-3-0.4-4.5-0.6c-2.9-0.4-5.5-1.4-8.2-2.5
			c0.8,4.7,2.5,9.4,3.5,13.9c1,4.4,0.9,9.6,3.1,13.6c0.4,0.8,0.9,1.5,1.5,2.1c0.3,0.5,0.6,1,0.9,1.4c1.8,1.6,5.8,2.8,10.4,2.8
			c0,0,0,0,0.1,0c0.1,0,0.2,0,0.2,0c0,0,0.1,0,0.1,0c0,0,0.1,0,0.1,0c0.1,0,0.2,0,0.2,0c0,0,0,0,0.1,0c4.6,0,8.6-1.2,10.4-2.8
			c0.4-0.5,0.7-0.9,0.9-1.4c0.5-0.6,1-1.3,1.5-2.1c2.2-3.9,2.1-9.2,3.1-13.6c1-4.4,2.6-9.2,3.5-13.9
			C732.5,119.8,729.9,120.8,726.9,121.2z"/>
		<path class="st26" d="M735.6,110c0-0.1-0.5-2-1.4-3.7c-0.7-1.4-2-2.5-2.3-1.5c0.7-2.6,3.3-4.9,2.4-8c-0.1-0.3-0.3-0.6-0.6-0.8
			c0,0,0,0,0,0c0,0-0.1,0-0.1-0.1c-0.2-0.2-0.5-0.4-0.8-0.5c-0.8-0.4-1.8-0.7-2.8-0.8c-4.7-0.5-9.5-1.5-14.2-1.6v0
			c-0.1,0-0.1,0-0.2,0v0c0,0-0.1,0-0.1,0c0,0-0.1,0-0.1,0v0c-0.1,0-0.1,0-0.2,0v0c-4.7,0.2-9.6,1.1-14.2,1.6c-1.1,0.1-2,0.4-2.8,0.8
			c-0.3,0.1-0.6,0.3-0.8,0.5c0,0-0.1,0-0.1,0.1c0,0,0,0,0,0c-0.3,0.2-0.5,0.5-0.6,0.8c-1,3,1.6,5.4,2.4,8c-0.3-1-1.6,0.1-2.3,1.5
			c-0.9,1.8-1.4,3.6-1.4,3.7c-0.7,1.8,0.1,2.6,0.3,4.1c0.3,1.9-0.2,2.8,0.1,4.7c2.7,1,5.3,2,8.2,2.5c1.9,0.3,3.8,0.5,5.7,0.7
			c0.7,0.1,1.5,0.1,2.2,0.2c0.1,0,0.2,0,0.3,0c0.1,0,0.2,0,0.3,0c0.7,0,1.5,0.1,2.2,0.1c0.3,0,0.6,0,0.9,0c0.3,0,0.6,0,0.9,0
			c0.7,0,1.5,0,2.2-0.1c0.1,0,0.2,0,0.3,0c0.1,0,0.2,0,0.3,0c0.7,0,1.5-0.1,2.2-0.2c1.9-0.2,3.8-0.4,5.7-0.7
			c2.9-0.4,5.5-1.4,8.2-2.5c0.3-1.9-0.1-2.9,0.1-4.7C735.5,112.5,736.3,111.8,735.6,110z"/>
	</g>
	<g>
		<path class="st26" d="M733.5,124.9c1.5-3.8,3.5-10.2,2.1-14.9c-2.4-2.4-6.2-2.8-9.7-1.1c-2,1-3.1,2.9-3.7,5
			c-0.8,2.9-0.6,6.3-0.4,8.8c0.4,6.2-0.1,12.5,0,18.7c0,0.7,0,1.5,0,2.2c-0.1,6.3-0.6,13.3,6.2,16.6c2.2,1.1,4.8,1.9,7.3,1.3
			c2.5-0.5,4.1-2.7,2.4-4.7c-1.3-1.5-3.6-1.4-4.7-3.2c-1-1.6-0.2-3.9-0.1-5.7c0.1-0.7,0.1-1.4,0.2-2.1c0.3-3.5,0.7-6.9,1.2-10.4
			c0.3-1.7,0.7-3.3,1.2-4.9c-1,0-1.9-0.2-2.5-0.8C731.7,128.5,733,126.3,733.5,124.9z"/>
		<path class="st28" d="M737.5,113.1c-0.4-1.3-1-2.3-1.9-3.1c1.5,4.7-0.5,11.1-2.1,14.9c-0.6,1.4-1.8,3.6-0.6,4.9
			c0.6,0.6,1.5,0.8,2.5,0.8C737,124.8,739.3,119.2,737.5,113.1z"/>
	</g>
	<g>
		<path class="st17" d="M695.6,87.3c-1,2.5-1,7,0,9.5c0.9,2.4,2.7,4.4,4.3,5.9c3.6,3.3,8,4.8,12.3,5.1c6.3,0.4,12.8,0.4,17.9-5
			c2.6-2.7,4.7-5.4,5.2-9.9c1.2-11.8-7.1-14.5-14.2-16.2c-6.7-1.6-16.9-2.8-22,4.8C698,83.2,696.3,85.4,695.6,87.3z"/>
	</g>
	<g>
		<path class="st28" d="M745.2,82.2c0.1-2.8-1.6-5.2-2-8c-0.4-3.4,0.8-7.2,0.2-10.5c-0.6-3.2-3.5-6.9-5.6-9.1
			c-5.1-5-13.2-5.4-19.8-5.8c-0.9,0-1.8-0.1-2.7,0c-0.9,0-1.8,0-2.7,0c-6.5,0.3-14.7,0.7-19.8,5.8c-2.2,2.2-5,5.9-5.6,9.1
			c-0.6,3.3,0.6,7,0.2,10.5c-0.3,2.8-2.1,5.1-2,8c0.2,6.2,4.9,11.5,10.7,15.5c-0.2-0.2-0.3-0.3-0.5-0.5c-3.9-4-8-8.1-7.3-14.6
			c0.1-1.1,0.5-1.9,0.9-2.6c1.5-2.2,3.9-2.6,5.4-4.5c1.1-1.3,1-3.1,1.2-4.8c0.3-2.2,1-3.1,3.1-3.7c3-0.9,5.7,0,8.6,0.9
			c4,1.3,2-2.1,2.1-5.4c1.9,0.3,4.5,2.9,5.7,4.9c1.2-2,3.8-4.6,5.7-4.9c0,3.3-1.9,6.7,2.1,5.4c2.9-0.9,5.6-1.8,8.6-0.9
			c2.1,0.6,2.8,1.4,3.1,3.7c0.2,1.7,0.1,3.5,1.2,4.8c1.5,1.9,3.9,2.3,5.4,4.5c0.5,0.7,0.8,1.6,0.9,2.6c0.7,6.5-3.4,10.6-7.3,14.6
			c-0.2,0.2-0.3,0.3-0.5,0.5C740.3,93.7,745,88.4,745.2,82.2z"/>
		<path class="st29" d="M742.3,82.7c-0.1-1.1-0.5-1.9-0.9-2.6c-1.5-2.2-3.9-2.6-5.4-4.5c-1.1-1.3-1-3.1-1.2-4.8
			c-0.3-2.2-1-3.1-3.1-3.7c-3-0.9-5.7,0-8.6,0.9c-4,1.3-2-2.1-2.1-5.4c-1.9,0.3-4.5,2.9-5.7,4.9c-1.2-2-3.8-4.6-5.7-4.9
			c0,3.3,1.9,6.7-2.1,5.4c-2.9-0.9-5.6-1.8-8.6-0.9c-2.1,0.6-2.8,1.4-3.1,3.7c-0.2,1.7-0.1,3.5-1.2,4.8c-1.5,1.9-3.9,2.3-5.4,4.5
			c-0.5,0.7-0.8,1.6-0.9,2.6c-0.7,6.5,3.4,10.6,7.3,14.6c0.2,0.2,0.3,0.3,0.5,0.5c5.8,4,12.7,6.6,17.5,7.6c0.6,0.1,1.2,0.2,1.7,0.2
			v0c0,0,0,0,0.1,0c0,0,0,0,0.1,0v0c0.6,0,1.1-0.1,1.7-0.2c4.8-1,11.7-3.7,17.5-7.6c0.1-0.2,0.3-0.3,0.5-0.5
			C738.9,93.2,742.9,89.2,742.3,82.7z"/>
	</g>
	<g>
		<g>
			<path class="st28" d="M734.5,49.5c-2-0.6-4.9-1.1-7.3-0.6c-1.5,2.1-2.4,4.4-1.6,7.2c0.5,1.6,1.3,3.1,2.3,4.4
				c1.6,2.2,3.6,4.1,5.4,6c1.7,1.7,5.1,4.7,7.6,4.4c3.1-0.3,4.7-4.4,5.4-8.8c-1.3-2.2-1.9-4.9-3.8-6.9
				C740.3,53,737.5,50.5,734.5,49.5z"/>
			<path class="st26" d="M746.7,51.6c-0.1-1.4-0.4-3.1-0.8-4.5c-0.8-3.6-1.8-9.4-6.9-8c-3.2,0.9-6,3.6-8.2,5.8
				c-1.3,1.3-2.6,2.6-3.6,4c2.4-0.4,5.3,0,7.3,0.6c3,0.9,5.8,3.4,8,5.7c1.9,2,2.5,4.7,3.8,6.9C747,58,746.9,53.5,746.7,51.6z"/>
		</g>
		<g>
			<path class="st28" d="M696,49.5c2-0.6,4.9-1.1,7.3-0.6c1.5,2.1,2.4,4.4,1.6,7.2c-0.5,1.6-1.3,3.1-2.3,4.4c-1.6,2.2-3.6,4.1-5.4,6
				c-1.7,1.7-5.1,4.7-7.6,4.4c-3.1-0.3-4.7-4.4-5.4-8.8c1.3-2.2,1.9-4.9,3.8-6.9C690.2,53,693,50.5,696,49.5z"/>
			<path class="st26" d="M683.8,51.6c0.1-1.4,0.4-3.1,0.8-4.5c0.8-3.6,1.8-9.4,6.9-8c3.2,0.9,6,3.6,8.2,5.8c1.3,1.3,2.6,2.6,3.6,4
				c-2.4-0.4-5.3,0-7.3,0.6c-3,0.9-5.8,3.4-8,5.7c-1.9,2-2.5,4.7-3.8,6.9C683.5,58,683.6,53.5,683.8,51.6z"/>
		</g>
	</g>
	<g>
		<path class="st30" d="M730.2,58.6c-0.8-0.8-1.3-1.7-1.5-2.7c-0.5-3.6,3.3-7.6,6-9.5c0.9-0.6,1.8-1,2.8-1.4
			c3.6-1.1,4.5,2.8,5.1,5.2c0.2,0.9,0.4,1.9,0.5,2.7c0.3,2.7,0.7,12.5-3.8,11.3c-1.5-0.4-3.2-1.2-4.5-2
			C733.5,61.4,731.5,60.1,730.2,58.6z"/>
		<path class="st30" d="M700.3,58.6c0.8-0.8,1.3-1.7,1.5-2.7c0.5-3.6-3.3-7.6-6-9.5c-0.9-0.6-1.8-1-2.8-1.4
			c-3.6-1.1-4.5,2.8-5.1,5.2c-0.2,0.9-0.4,1.9-0.5,2.7c-0.3,2.7-0.7,12.5,3.8,11.3c1.5-0.4,3.2-1.2,4.5-2
			C697,61.4,699,60.1,700.3,58.6z"/>
	</g>
	<g>
		<g>
			<path d="M731.6,71c-0.2-0.1-0.5-0.2-0.8-0.2c-1.3-0.4-4.7-0.5-6-0.1c-3.2,0.9-2.3,3.6-1.9,5.3c2.5-0.1,6.4-1.9,8.1-3.3
				C732.2,71.5,732.4,71.2,731.6,71z"/>
			<path class="st6" d="M724.2,73.5c0.8,0.3,1.7-0.3,2.2-1.3c0.3-0.7,0.3-1.3,0-1.8c-0.7,0-1.2,0.1-1.6,0.2
				c-0.4,0.1-0.8,0.3-1.1,0.5c0,0,0,0,0,0.1C723.2,72.1,723.4,73.2,724.2,73.5z"/>
			<path d="M698.8,71c0.2-0.1,0.5-0.2,0.8-0.2c1.3-0.4,4.7-0.5,6-0.1c3.2,0.9,2.3,3.6,1.9,5.3c-2.5-0.1-6.4-1.9-8.1-3.3
				C698.2,71.5,698,71.2,698.8,71z"/>
			<path class="st6" d="M700.2,72.6c0.8,0.3,1.7-0.3,2.2-1.3c0.2-0.3,0.2-0.7,0.2-1c-1.2,0-2.4,0.2-3.1,0.3c0,0,0,0,0,0
				C699.3,71.6,699.6,72.4,700.2,72.6z"/>
		</g>
		<path d="M715.5,82.1L715.5,82.1c-0.1,0-0.1,0-0.2,0c-0.1,0-0.1,0-0.2,0v0c-4.4,0.2-9,2.4-5.6,6.6c1.3,1.6,3.5,2.2,5.8,2.1
			c2.3,0.1,4.5-0.5,5.8-2.1C724.5,84.5,719.8,82.4,715.5,82.1z"/>
		<path d="M728.4,93.4c-0.6,0.4-1.1,0.8-1.7,1.2c-0.8,0.5-1.5,1.1-2.3,1.5c-1,0.5-1.7,0.4-2.8,0.4c-2.7,0.1-3.9-1.7-6.1-2.1
			c0,0-0.1,0-0.1,0v0c0,0,0,0-0.1,0c0,0,0,0-0.1,0v0c0,0-0.1,0-0.1,0c-2.2,0.4-3.4,2.2-6.1,2.1c-1,0-1.8,0-2.8-0.4
			c-0.8-0.4-1.6-1-2.3-1.5c-0.6-0.4-1.2-0.8-1.7-1.2c-0.4-0.4-1-0.9-1.5-1c1.1,1.3,1.6,2.8,3,3.9c1.3,1.1,3.1,2,4.9,2.2
			c2.5,0.3,4.6-1.3,6.7-1.7c2.1,0.4,4.3,2,6.7,1.7c1.8-0.2,3.6-1.1,4.9-2.2c1.4-1.1,1.9-2.6,3-3.9C729.3,92.5,728.8,93,728.4,93.4z"
			/>
	</g>
	<g>
		<path class="st26" d="M697.1,125c-1.5-3.8-3.5-10.2-2.1-14.9c2.4-2.4,6.2-2.8,9.7-1.1c2,1,3.1,2.9,3.7,5c0.8,2.9,0.6,6.3,0.4,8.8
			c-0.4,6.2,0.1,12.5,0,18.7c0,0.7,0,1.5,0,2.2c0.1,6.3,0.6,13.3-6.2,16.6c-2.2,1.1-4.8,1.9-7.3,1.3c-2.5-0.5-4.1-2.7-2.4-4.7
			c1.3-1.5,3.6-1.4,4.7-3.2c1-1.6,0.2-3.9,0.1-5.7c-0.1-0.7-0.1-1.4-0.2-2.1c-0.3-3.5-0.7-6.9-1.2-10.4c-0.3-1.7-0.7-3.3-1.2-4.9
			c1,0,1.9-0.2,2.5-0.8C699,128.5,697.7,126.4,697.1,125z"/>
		<path class="st28" d="M693.2,113.2c0.4-1.3,1-2.3,1.9-3.1c-1.5,4.7,0.5,11.1,2.1,14.9c0.6,1.4,1.8,3.6,0.6,4.9
			c-0.6,0.6-1.5,0.8-2.5,0.8C693.6,124.9,691.3,119.2,693.2,113.2z"/>
	</g>
</g>
<g>
	<path class="st1" d="M314.1,156.4c0,4.8-12.6,8.6-28.2,8.6c-15.6,0-28.2-3.9-28.2-8.6c0-4.8,12.6-8.6,28.2-8.6
		C301.4,147.7,314.1,151.6,314.1,156.4z"/>
	<path class="st31" d="M306.5,148.9c-2.1-0.7-13.9-1.7-12.8-4.5c0.9-2,6.6-1.3,8.3-1c3.8,0.6,8.4,1.1,11.2,4
		c6.6,6.8-6.8,11.5-6.9,7.3c1.3-0.8,4.9-1.3,5.1-2.8C311.7,150,307.8,149.3,306.5,148.9z"/>
	<path class="st32" d="M302.6,111.7c0.6,2.8,0.7,5.7,0.4,8.4c-0.6,8.1-4.7,15.2-7.5,22.6c-2.7,7,1.4,14.1-11.2,14.7
		c-10.9,0.5-8.6-10.8-10.1-17.3c-2.2-9.5-9.4-19.3-6.4-29.6c2.3-7.9,10.4-13.1,17.5-11.8c5.6,1,10.2,0.5,14.1,5.7
		C301.1,106.5,302.1,109.1,302.6,111.7z"/>
	<path class="st32" d="M295.3,158.4c-13.7-0.9-2.4-34.5,8.5-35c3.6-0.1,6.5,3.4,7.1,7.5c1,7.6-6.1,14-9.2,20.4
		c0.1-0.3,6.5,2.8,1.7,6C301.3,158.9,297.8,158.5,295.3,158.4z"/>
	<path class="st32" d="M274.9,158.4c13.7-0.9,2.4-34.5-8.5-35c-3.6-0.1-6.5,3.4-7.1,7.5c-1,7.6,6.1,14,9.2,20.4
		c-0.1-0.3-6.5,2.8-1.7,6C268.9,158.9,272.5,158.5,274.9,158.4z"/>
	<path class="st33" d="M301.2,157.8c-0.9-1.6-2.7-1.5-3.4-3.4c-0.7-1.8-0.2-4.2,0-6.2c0-0.8,0.1-1.6,0.1-2.3
		c0.2-3.8,0.5-7.5,0.9-11.4c0.2-1.8,0.5-3.6,0.9-5.4c1.2-6.2,2.9-12.3,1.5-18.9c-0.3-1.4-0.8-2.5-1.4-3.4c-1.7-2.6-4.6-3.1-7.1-1.2
		c-1.5,1.1-2.3,3.1-2.7,5.4c-0.6,3.1-0.4,6.8-0.3,9.5c0.3,6.8-0.1,13.6,0,20.4c0,0.8,0,1.6,0,2.4c-0.1,6.8-0.5,14.4,4.6,18.1
		c1.6,1.2,3.5,2,5.4,1.5C301.3,162.3,302.5,160,301.2,157.8z"/>
	<path class="st33" d="M268.8,157.8c0.9-1.6,2.7-1.5,3.4-3.4c0.7-1.8,0.1-4.2,0-6.2c0-0.8-0.1-1.6-0.1-2.3
		c-0.2-3.8-0.5-7.5-0.9-11.4c-0.2-1.8-0.5-3.6-0.9-5.4c-1.2-6.2-2.9-12.3-1.5-18.9c0.3-1.4,0.8-2.5,1.4-3.4c1.7-2.6,4.6-3.1,7.1-1.2
		c1.5,1.1,2.3,3.1,2.7,5.4c0.6,3.1,0.4,6.8,0.3,9.5c-0.3,6.8,0.1,13.6,0,20.4c0,0.8,0,1.6,0,2.4c0.1,6.8,0.5,14.4-4.6,18.1
		c-1.6,1.2-3.5,2-5.4,1.5C268.7,162.3,267.5,160,268.8,157.8z"/>
	<path class="st33" d="M302.6,110.7c-0.6-2.5-1.6-4.8-3.2-6.7c-0.4-0.5-0.8-0.9-1.2-1.3c-0.7-0.1-1.5-0.1-2.2-0.1
		c-2.1,0.1-4.5,0.2-6.4,0.9c-1.9,0.7-3,2.2-5.1,2.2c-4.3-0.1-6.6-3.3-11.5-2.4c-0.5,0.1-1.1,0.2-1.7,0.4c-1.6,1.7-2.9,3.7-3.6,5.9
		c-1.2,3.7-0.8,7.4,0.3,11c0.7,0.1,1.4,0.3,2.2,0.5c2.6,0.6,5,1.4,7.6,0.8c1.9-0.5,3.3-2.1,5-2.8c3.8-1.4,8.7,1.7,12.3,2.2
		c2.2,0.3,5,0.4,7.5-0.2c0.2-0.8,0.3-1.7,0.4-2.5C303.3,115.9,303.2,113.2,302.6,110.7z"/>
	<path class="st34" d="M270.8,97.6c-0.7,1.5-0.7,4.2,0,5.7c0.7,1.4,1.9,2.7,3.1,3.6c2.6,2,5.8,2.9,8.8,3c4.5,0.3,9.2,0.2,12.9-3
		c1.8-1.6,3.4-3.2,3.7-5.9c0.9-7.1-5.1-8.7-10.2-9.7c-4.8-1-12.2-1.7-15.8,2.9C272.5,95.1,271.4,96.4,270.8,97.6z"/>
	<path class="st32" d="M295.9,101.4c-1.4,1.6-4.3,2.8-6.3,3.4c-3,0.8-6.3,0.8-9.3,0c-2-0.5-4-1.2-5.7-2.6
		c-4.3-3.5-1.4-10.1-1.3-14.7c0.1-4.8-0.8-9,4.6-12.7c3.8-2.6,10-3.7,13.9-0.9c5.1,3.7,3.7,11.7,4.5,16.7
		C296.9,94.5,298.2,98.7,295.9,101.4z"/>
	<g>
		<path class="st33" d="M290.1,44c-2.1-0.6-4.1-0.7-6.2-0.5c-2.1,0.2-4.3-0.1-6.3,0.5c-21,5.9-8.8,28.2-4.8,41.5
			c1.4,4.8,1,14,7.8,14.9c2,0.3,4.4,0.3,6.3,0c6.8-0.9,6.4-10.1,7.8-14.9C298.8,72.2,311,49.9,290.1,44z"/>
	</g>
	<path class="st33" d="M309.9,51.1c-2.6,2.5-5.1,4.7-9.1,4.9c-3.4,0.2-8.6-1-9.1-5.1c-0.5-4.4,5.3-9.9,9.3-11.3
		c3.8-1.4,7.1,0.6,10.5,2.2c0.7,0.3,9.5,2.7,9.5,2.6c-1.8,3.7-6.8,2.8-9.4,5.2C311,50,310.4,50.6,309.9,51.1z"/>
	<path class="st33" d="M258,51.1c2.6,2.5,5.1,4.7,9.1,4.9c3.4,0.2,8.6-1,9.1-5.1c0.5-4.4-5.3-9.9-9.3-11.3
		c-3.8-1.4-7.1,0.6-10.5,2.2c-0.7,0.3-9.5,2.7-9.5,2.6c1.8,3.7,6.8,2.8,9.4,5.2C256.9,50,257.4,50.6,258,51.1z"/>
	<g>
		<path d="M288.1,87.9c0.4,0.1,0.7,0.1,0.9,0.3c2.1,1.3-1.6,5-2.9,5.5c-2.2,0.9-5.6-0.8-6.6-2.8c-1.3-2.6,1.5-3,3.6-3
			C284.2,88,286.6,87.7,288.1,87.9z"/>
		<g>
			<path d="M270.9,65.1c0,3.3,1.6,5.9,3.6,5.9s3.6-2.6,3.6-5.9c0-3.3-1.6-5.9-3.6-5.9S270.9,61.8,270.9,65.1z"/>
			<path class="st6" d="M274.6,63.1c-0.5,1-1.4,1.6-2.2,1.3c-0.8-0.3-1-1.3-0.5-2.3c0.5-1,1.4-1.6,2.2-1.3
				C274.8,61.1,275.1,62.1,274.6,63.1z"/>
		</g>
		<g>
			<path d="M290.4,65.1c0,3.3,1.6,5.9,3.6,5.9s3.6-2.6,3.6-5.9c0-3.3-1.6-5.9-3.6-5.9S290.4,61.8,290.4,65.1z"/>
			<path class="st6" d="M294.1,63.1c-0.5,1-1.4,1.6-2.2,1.3c-0.8-0.3-1-1.3-0.5-2.3c0.5-1,1.4-1.6,2.2-1.3
				C294.3,61.1,294.5,62.1,294.1,63.1z"/>
		</g>
		<path d="M287.1,98.3c-0.8,0-1.3-0.5-1.8-0.9c-0.3-0.3-0.6-0.5-0.9-0.6c-0.3,0-0.7,0.2-1.2,0.5c-0.7,0.4-1.5,0.9-2.5,0.7
			c-0.6-0.1-1.2-0.6-1.7-1c-0.3-0.3-0.8-0.9-0.2-1.3c0.4-0.2,0.6,0.4,0.8,0.6c0.3,0.4,0.8,0.7,1.3,0.8c0.7,0.2,1.3-0.2,1.9-0.6
			c0.5-0.3,1.1-0.7,1.7-0.6c0.6,0,1,0.4,1.4,0.8c0.5,0.4,0.8,0.7,1.5,0.6c0.6-0.1,1.1-0.6,1.5-1c0.3-0.3,0.6-1.3,1.1-1.2
			c0.9,0.1-0.2,1.5-0.5,1.8c-0.5,0.6-1.2,1.1-1.9,1.3C287.4,98.3,287.2,98.3,287.1,98.3z"/>
		<rect x="284.1" y="92.8" width="0.8" height="3.9"/>
	</g>
</g>
<g>
	<g>
		<path class="st35" d="M205.4,128c-1.3,1-0.5,2.7,0.6,3.5c1.3,0.9,3.1,1,4.5,0.7c3-0.7,9-2.1,8.7-6.3c-0.4-5.4-11.6-7.9-12.7-1.9
			c-0.4,2.1,1.1,3.6,3,4.1c2,0.5,3.6,0.1,5.5-0.6c-0.6-0.3-1.7-0.2-2.1-0.7c-0.4-0.5,0-1.6,0.8-1.5c0.8,0.1,0.2,1.1-0.2,1.4
			c-0.6,0.6-1.7,0.8-2.5,0.8C209.3,127.4,206.9,126.9,205.4,128z"/>
		<path class="st36" d="M210.6,126c-0.3-0.4-0.8-1.2-0.9-1.7c-0.6,0.4-1.8,0.7-1.8,0.7s-0.8-1.4-0.9-2.1c-0.4,0.5-0.8,1.6-0.5,2.7
			c0.6,2.1,2.2,3.1,4.1,3.6c1.6,0.4,3.8,0.3,5.1-0.8c-1-0.4-1.9-0.8-2.4-1.5c-0.5-0.6-0.6-1-0.1-1.7
			C213,125.4,211.3,125.6,210.6,126z"/>
	</g>
	<path class="st1" d="M220.2,155.6c0,5.2-13.9,9.4-31.1,9.4c-17.2,0-31.1-4.2-31.1-9.4s13.9-9.4,31.1-9.4
		C206.3,146.2,220.2,150.4,220.2,155.6z"/>
	<g>
		<g>
			<path class="st35" d="M183.3,146.2c-0.2-3.4-1.7-6.8-4.3-9.5c-3.5-3.6-8.5-7.6-14.3-5c-3.6,1.7-4.4,4.1-4,7.2
				c0.2,2.2,1.4,5.1,2.9,7c1,1.3,4,2.6,3.2,4.3c-0.3,0.7-1.8,1.1-2.4,1.6c-0.9,0.8-1.3,1.9-1.2,3.1c0.1,2.4,2.3,2.6,4.8,2.6
				c3.9-0.1,7.7-0.6,11-2.5C183.2,152.6,183.5,150.2,183.3,146.2z"/>
			<path class="st37" d="M163.2,154.9c0-1.1,0.4-2.2,1.2-3.1c0.6-0.6,2.1-0.9,2.4-1.6c0.6-1.2-0.7-2.2-1.9-3.2c0,0,0,0,0,0
				c0.9,0.3,1.9,0.4,2.8,0.3c1.7-0.3,3.8-0.4,5.4-0.8c0.6,1.7,1.8,3.1,2.1,5.2c0.3,1.9-0.2,3.6-1.2,5.1c-2,0.4-4.1,0.6-6.1,0.6
				C165.5,157.5,163.3,157.3,163.2,154.9z"/>
		</g>
		<path class="st35" d="M194.9,146.2c0.2-3.4,1.7-6.8,4.3-9.5c3.5-3.6,8.5-7.6,14.3-5c3.6,1.7,4.4,4.1,4,7.2c-0.2,2.2-1.4,5.1-2.9,7
			c-1,1.3-4,2.6-3.2,4.3c0.3,0.7,1.8,1.1,2.4,1.6c0.9,0.8,1.3,1.9,1.2,3.1c-0.1,2.4-2.3,2.6-4.8,2.6c-3.9-0.1-7.7-0.6-11-2.5
			C195,152.6,194.6,150.2,194.9,146.2z"/>
		<path class="st37" d="M215,154.9c0-1.1-0.4-2.2-1.2-3.1c-0.6-0.6-2.1-0.9-2.4-1.6c-0.6-1.2,0.7-2.2,1.9-3.2c0,0,0,0,0,0
			c-0.9,0.3-1.9,0.4-2.8,0.3c-1.7-0.3-3.8-0.4-5.4-0.8c-0.6,1.7-1.8,3.1-2.1,5.2c-0.3,1.9,0.2,3.6,1.2,5.1c2,0.4,4.1,0.6,6.1,0.6
			C212.7,157.5,214.9,157.3,215,154.9z"/>
	</g>
	<g>
		<path class="st38" d="M208.6,116.8c-1.1-3.5-3-6.5-4.1-9.9c-1.3-4.3,0.4-8.8-0.9-13c-1.2-3.7-5.3-5.9-8.9-7.6
			c-1.8-0.9-3.7-1.4-5.5-1.6v0c0,0,0,0,0,0c0,0,0,0,0,0v0c-1.8,0.2-3.7,0.7-5.5,1.6c-3.6,1.7-7.8,3.9-8.9,7.6
			c-1.3,4.2,0.4,8.8-0.9,13c-1.1,3.6-3.2,6.7-4.2,10.4c-0.1,0.2-0.1,0.5-0.2,0.7C174.7,120.6,191.3,127.2,208.6,116.8z"/>
		<path class="st35" d="M208.6,116.8c-17.2,10.5-33.9,3.8-39.3,1.1c-2.4,9.2,1.2,17.6,3.8,26.4c1.3,4.5,4.3,8.4,9,10.5
			c2,0.8,4.5,1.1,7,1.2l0,0c0,0,0,0,0,0c0,0,0,0,0,0l0,0c2.5-0.1,5-0.4,7-1.2c4.8-2,7.7-6,9-10.5c2.7-9.1,6.5-17.6,3.6-27.1
			C208.7,117,208.6,116.9,208.6,116.8z"/>
		<path class="st6" d="M195.4,154.8c4.5-3,2.1-11,2.3-15.6c0.3-5.9-0.1-14.6,1-20.5c0.5-3,5.9-9.5-1.2-8c-3.5,0.8-7.1,0.9-10.7,0.5
			c-2.2-0.3-7.2-2.6-8.7-0.7c-1.6,2-0.5,3.5,0,5.7c0.9,3.6,2.5,9.5,2.7,13.2c0.2,4.2-0.1,8.4-0.5,12.4c-0.4,3.6-1.6,8.5,0.4,11.9"/>
		<path class="st37" d="M198.3,121.3c-6.9,1.7-13.3,1.4-18.6,0.3c0.5,2.6,0.9,5.2,1.1,7.9c0.2,4.2-0.1,8.4-0.5,12.4
			c-0.4,3.6-1.6,8.5,0.4,11.9c0.2,0.3,0.4,0.6,0.6,0.8c0.2,0.1,0.4,0.2,0.6,0.3c2.1,0.8,4.6,1.1,7.1,1.2l0,0c0,0,0,0,0,0
			c0,0,0,0,0,0l0,0c1.9,0,3.7-0.2,5.3-0.6c0.4-0.2,0.7-0.4,1-0.6c4.5-3,2.1-11,2.3-15.6c0.3-5.9-0.6-12,0.5-17.9
			C198.3,121.4,198.3,121.3,198.3,121.3z"/>
	</g>
	<path class="st34" d="M206.5,105.6c0,5.1-7.8,9.2-17.4,9.2c-9.6,0-17.4-4.1-17.4-9.2s7.8-9.2,17.4-9.2
		C198.7,96.4,206.5,100.5,206.5,105.6z"/>
	<path class="st38" d="M212.1,71.4c-2.1-4.2-5.9-9.3-10.7-10.3c-3.9-0.8-8.1,0.7-12.1,0.5v0c-0.1,0-0.2,0-0.4,0c-0.1,0-0.2,0-0.4,0
		v0c-4.1,0.1-8.3-1.3-12.1-0.5c-4.8,1-8.5,6.1-10.7,10.3c-4.6,9.1,1.5,24.7,6.7,32.4c3.4,5.1,10.2,6.6,16.1,7.1v0.1
		c0.1,0,0.2,0,0.4,0c0.1,0,0.2,0,0.4,0v-0.1c5.9-0.5,13.7-2.4,17.1-7.5C211.6,95.7,216.7,80.5,212.1,71.4z"/>
	<path class="st39" d="M213.3,83.1c-6.8,11.3-13,9.3-17,8c-2.7-0.9-5.9-3.5-7,0.4c-1.1-3.9-4.3-1.3-7-0.4c-4,1.4-12.1,0.2-17-8
		c-0.2-0.3-0.5-0.2-0.8-0.2c1,7.7,4.7,16,8.1,21c0.9,1.4,2.1,2.5,3.4,3.4c1.6,0.4,3.3,0.6,5,0.1c1.7-0.4,2.8-1.7,4.3-2.3
		c0.9-0.4,1.7-0.2,2.5-1.1c0.7-0.8,1.3-1.9,1.6-3.2c0.4,1.3,0.9,2.4,1.6,3.2c0.8,0.8,1.6,0.6,2.5,1.1c1.5,0.7,2.6,1.9,4.3,2.3
		c1.5,0.4,3,0.3,4.5,0c1.7-1,3.2-2.3,4.3-3.9c3.3-5,6.6-13,7.3-20.5C213.6,82.9,213.4,82.9,213.3,83.1z"/>
	<path class="st6" d="M191.6,86.8c0-0.9-0.1-1.6-0.2-2.2c-0.5-2.8-0.5-5.6-1-8.4c-0.2-1.2-0.6-2.5-1.3-2.8v0c0,0,0,0-0.1,0
		c0,0,0,0-0.1,0v0c-0.7,0.3-1.1,1.6-1.3,2.8c-0.5,2.8-0.5,5.6-1,8.4c-0.1,0.5-0.2,1.3-0.2,2.2c-4.6,2.1-9.9,7.9-7.7,17.3
		c1.3,5.6,7.4,5.1,10.3,4.8c2.9,0.3,9,0.8,10.3-4.8C201.5,94.8,196.2,88.9,191.6,86.8z"/>
	<g>
		<g>
			<g>
				<g>
					<g>
						<g>
							<g>
								<path class="st38" d="M183.5,117.7c-4-4.2-10.4,0.4-10.6,4.4c-0.2,6.6,2.1,13.4,2.9,20c0.4,3.5,1.7,8,0.2,11.4
									c-1.8,0.3-2.9,2.2-2.9,3.6c0,2.3,1.5,2.7,3.9,2.8c5.3,0.2,8-0.3,8.5-4.8c0.6-5.3,0.3-10.5-0.2-15.9
									c-0.5-4.8-0.2-9.7-0.2-14.5C184.9,122.7,185.1,119.4,183.5,117.7z"/>
							</g>
						</g>
					</g>
				</g>
			</g>
			<path class="st6" d="M185.8,146.9C185.8,146.9,185.8,146.9,185.8,146.9c0-0.1,0-0.1,0-0.2c0-0.5,0-1.1-0.1-1.6c0-0.1,0-0.2,0-0.3
				c0-0.4,0-0.9-0.1-1.3c0,0,0,0,0,0c-0.1-1.4-0.2-2.9-0.4-4.3c-0.5-4.8-0.2-9.7-0.2-14.5c0-2,0.1-5.3-1.5-7
				c-1.6-1.6-3.5-1.9-5.3-1.4c1.5,4.1,4.5,21.8,4.6,25.7c0,1.2-0.5,2.4-1.8,2.4c-1.9,0-3.4-0.2-5.1-0.6c0.5,3.2,1.2,6.9,0,9.7
				c-1.8,0.3-2.9,2.2-2.9,3.6c0,2.3,1.5,2.7,3.9,2.8c5.3,0.2,8-0.3,8.5-4.8C185.8,152.3,185.8,149.6,185.8,146.9z"/>
		</g>
		<g>
			<g>
				<g>
					<g>
						<g>
							<g>
								<path class="st38" d="M194.3,117.7c4-4.2,10.4,0.4,10.6,4.4c0.2,6.6-2.1,13.4-2.9,20c-0.4,3.5-1.7,8-0.2,11.4
									c1.8,0.3,2.9,2.2,2.9,3.6c0,2.3-1.5,2.7-3.9,2.8c-5.3,0.2-8-0.3-8.5-4.8c-0.6-5.3-0.3-10.5,0.2-15.9
									c0.5-4.8,0.2-9.7,0.2-14.5C192.8,122.7,192.6,119.4,194.3,117.7z"/>
							</g>
						</g>
					</g>
				</g>
			</g>
			<path class="st6" d="M192,146.9C192,146.9,192,146.9,192,146.9c0-0.1,0-0.1,0-0.2c0-0.5,0-1.1,0.1-1.6c0-0.1,0-0.2,0-0.3
				c0-0.4,0.1-0.9,0.1-1.3c0,0,0,0,0,0c0.1-1.4,0.2-2.9,0.4-4.3c0.5-4.8,0.2-9.7,0.2-14.5c0-2-0.1-5.3,1.5-7
				c1.6-1.6,3.5-1.9,5.3-1.4c-1.5,4.1-4.5,21.8-4.6,25.7c0,1.2,0.5,2.4,1.8,2.4c1.9,0,3.4-0.2,5.1-0.6c-0.5,3.2-1.2,6.9,0,9.7
				c1.8,0.3,2.9,2.2,2.9,3.6c0,2.3-1.5,2.7-3.9,2.8c-5.3,0.2-8-0.3-8.5-4.8C192,152.3,191.9,149.6,192,146.9z"/>
		</g>
	</g>
	<g>
		<path d="M194.1,96.3c1.7,5.2-11.4,5.9-9.7-0.4c0.5-2,3.4-1.6,5.2-1.5C191.4,94.5,193.5,94.5,194.1,96.3z"/>
		<g>
			<g>
				<path class="st38" d="M212.9,77.4c-8.3,6.7-21.6-5.3-18.3-14.4c1.6-4.4,2.8-9.3,4.7-13.7c1-2.2,5.8-12.1,8.6-12
					c3.4,0.1,6.3,10.8,7.2,13c1.7,4.3,3.6,9.8,3.2,14.5C217.8,69.1,216.4,74.6,212.9,77.4z"/>
				<path class="st39" d="M210.7,74c4.4-3.8,4.6-10.2,2.7-15.4c-1-2.7-1.6-5.5-3.1-8.1c-1-1.8-2.3-4.9-3.9-6.2c-1.3,1-2,3.4-2.7,4.8
					c-0.8,1.6-1.6,3.3-2.2,5c-1,2.6-2.7,5.1-3.3,7.7C198.4,60.8,209.6,69.7,210.7,74z"/>
			</g>
			<g>
				<path class="st38" d="M165.3,77.4c8.3,6.7,21.6-5.3,18.3-14.4c-1.6-4.4-2.8-9.3-4.7-13.7c-1-2.2-5.8-12.1-8.6-12
					c-3.4,0.1-6.3,10.8-7.2,13c-1.7,4.3-3.6,9.8-3.2,14.5C160.3,69.1,161.8,74.6,165.3,77.4z"/>
				<path class="st39" d="M167.4,74c-4.4-3.8-4.6-10.2-2.7-15.4c1-2.7,1.6-5.5,3.1-8.1c1-1.8,2.3-4.9,3.9-6.2c1.3,1,2,3.4,2.7,4.8
					c0.8,1.6,1.6,3.3,2.2,5c1,2.6,2.7,5.1,3.3,7.7C179.7,60.8,168.5,69.7,167.4,74z"/>
			</g>
		</g>
		<g>
			<path d="M173.4,82.6c0,3.4,1.6,6.1,3.5,6.1s3.5-2.7,3.5-6.1c0-3.4-1.6-6.1-3.5-6.1S173.4,79.2,173.4,82.6z"/>
			<path class="st6" d="M177.1,80.6c-0.4,1-1.4,1.6-2.2,1.3c-0.7-0.3-1-1.4-0.5-2.4c0.4-1,1.4-1.6,2.2-1.3
				C177.3,78.5,177.6,79.5,177.1,80.6z"/>
		</g>
		<g>
			<path d="M197.5,82.6c0,3.4,1.6,6.1,3.5,6.1c2,0,3.5-2.7,3.5-6.1c0-3.4-1.6-6.1-3.5-6.1C199.1,76.5,197.5,79.2,197.5,82.6z"/>
			<path class="st6" d="M201.2,80.6c-0.4,1-1.4,1.6-2.2,1.3c-0.7-0.3-1-1.4-0.5-2.4c0.4-1,1.4-1.6,2.2-1.3
				C201.4,78.5,201.6,79.5,201.2,80.6z"/>
		</g>
		<path d="M188.9,106.1c-0.3,0-0.5-0.2-0.5-0.5v-8.3c0-0.3,0.2-0.5,0.5-0.5c0.3,0,0.5,0.2,0.5,0.5v8.3
			C189.4,105.9,189.2,106.1,188.9,106.1z"/>
		<path d="M186.3,107.3c-0.8,0-3.3-0.5-3.8-1.5c-0.1-0.2,0-0.6,0.2-0.7c0.2-0.1,0.6-0.1,0.7,0.2c0.2,0.4,2.1,1,2.9,1c0,0,0,0,0.1,0
			c1.1,0,1.5-0.4,2.2-1.4c0.1-0.2,0.3-0.2,0.5-0.2c0.2,0,0.4,0.2,0.4,0.4c0.2,0.6,0.6,0.9,1.3,1.1c1.5,0.3,3.3-0.5,3.9-1.3
			c0.2-0.2,0.5-0.3,0.7-0.1c0.2,0.2,0.3,0.5,0.1,0.7c-0.8,1.2-3.2,2-4.9,1.7c-0.8-0.1-1.4-0.5-1.8-1
			C188.2,106.8,187.6,107.3,186.3,107.3C186.3,107.3,186.3,107.3,186.3,107.3z"/>
	</g>
	<path class="st39" d="M197.5,72.9c0,1.5-1.2,2.7-2.8,2.7c-1.5,0-2.8-1.2-2.8-2.7c0-1.5,1.2-2.7,2.8-2.7
		C196.2,70.1,197.5,71.4,197.5,72.9z"/>
	<path class="st39" d="M186.1,72.9c0,1.5-1.2,2.7-2.8,2.7c-1.5,0-2.8-1.2-2.8-2.7c0-1.5,1.2-2.7,2.8-2.7
		C184.9,70.1,186.1,71.4,186.1,72.9z"/>
</g>
</svg>
