<?xml version="1.0" encoding="utf-8"?>
<!-- Generator: Adobe Illustrator 24.2.3, SVG Export Plug-In . SVG Version: 6.00 Build 0)  -->
<svg version="1.1" id="Capa_1" xmlns="http://www.w3.org/2000/svg" xmlns:xlink="http://www.w3.org/1999/xlink" x="0px" y="0px"
	 viewBox="0 0 512 512" style="enable-background:new 0 0 512 512;" xml:space="preserve">
<style type="text/css">
	.st0{fill:#32B28E;stroke:#32B28E;stroke-width:10;stroke-miterlimit:10;}
	.st1{fill:#32B28E;}
</style>
<g>
	<g>
		<g>
			<path class="st0" d="M368,15H144c-22.1,0-40,17.9-40,40v400c0,22.1,17.9,40,40,40h224c22.1,0,40-17.9,40-40V55
				C407.9,32.9,390,15,368,15z M392,455c0,13.3-10.7,24-24,24H144c-13.3,0-24-10.7-24-24v-40h272V455z M392,399H120V79h272V399z
				 M392,63H120v-8c0-13.3,10.7-24,24-24h224c13.3,0,24,10.7,24,24V63z"/>
		</g>
	</g>
	<g>
		<g>
			<path class="st1" d="M256,423c-13.3,0-24,10.7-24,24s10.7,24,24,24c13.3,0,24-10.7,24-24S269.2,423,256,423z M256,455
				c-4.4,0-8-3.6-8-8s3.6-8,8-8s8,3.6,8,8S260.4,455,256,455z"/>
		</g>
	</g>
	<g>
		<g>
			<path class="st1" d="M264,39h-16c-4.4,0-8,3.6-8,8s3.6,8,8,8h16c4.4,0,8-3.6,8-8S268.4,39,264,39z"/>
		</g>
	</g>
	<g>
		<path class="st1" d="M253.7,234.3c7.9-0.3,16.2,0.3,24.2,3.4c13.2,5.2,23.7,13.5,30.4,26.2c2.9,5.5,6.3,10.8,8.3,16.6
			c3.3,9.6,3.7,19.6-0.1,29.2c-2.9,7.3-8,12.9-16,14.8c-5.2,1.2-9.9-0.2-14.4-2.7c-5.4-3.1-10.6-6.4-15.8-9.7
			c-10.7-6.8-21.4-6.7-32.2-0.2c-6,3.6-12,7.3-18.3,10.3c-10.5,4.8-20.4,1.3-26.2-8.7c-5.5-9.6-5.2-19.8-2.5-30
			c1.6-6,4.4-11.4,7.8-16.5c3.9-5.8,7.5-11.9,12.7-16.7C223.2,239.1,237,233.5,253.7,234.3z"/>
		<path class="st1" d="M257,188.7c-0.7-10.4,2.8-19.5,8.7-27.8c9.9-13.9,29.5-14.3,40.1,0.2c11.7,16,11.9,40.1,0.2,56.1
			c-4.4,6-10,10.1-17.5,11.1c-7.9,1.1-14.4-1.9-19.9-7.3c-7.4-7.5-11.1-16.6-11.6-27.2C257,192.1,257,190.4,257,188.7z"/>
		<path class="st1" d="M195,189.4c-0.6-10.6,2.3-20.1,8.7-28.6c7.2-9.4,18.6-13,28.5-8.9c7.2,3,12.2,8.5,15.3,15.5
			c7.6,16.9,7.2,33.6-3.3,49.3c-4.7,7-11.4,11.5-20.1,11.8c-9.4,0.3-16.2-4.6-21.4-11.9C197,208.4,194.5,199.3,195,189.4z"/>
		<path class="st1" d="M356.4,238.9c0,7.9-1.7,15.3-6.6,21.6c-9.2,12.1-23.4,12.1-32.6,0c-9.1-11.9-8.3-34.1,1.9-45.1
			c8.3-8.8,23-9,30.9,2.2C354.5,224.1,356.3,231.2,356.4,238.9z"/>
		<path class="st1" d="M200.4,239.1c0.6,6.8-0.9,13.2-4.5,19.1c-8.6,14.3-24.9,15.1-34.7,1.6c-7.9-11-7.6-31.8,0.7-42.5
			c5.6-7.2,12.9-9.9,21.6-7.7c6.9,1.7,10.8,7,13.9,12.9C200.1,227.7,200.8,233.3,200.4,239.1z"/>
	</g>
</g>
</svg>
