<?xml version="1.0" encoding="utf-8"?>
<!-- Generator: Adobe Illustrator 24.2.3, SVG Export Plug-In . SVG Version: 6.00 Build 0)  -->
<svg version="1.1" id="Capa_1" xmlns="http://www.w3.org/2000/svg" xmlns:xlink="http://www.w3.org/1999/xlink" x="0px" y="0px"
	 viewBox="0 0 480 480" style="enable-background:new 0 0 480 480;" xml:space="preserve">
<style type="text/css">
	.st0{fill:#FFFFFF;}
</style>
<g>
	<g>
		<path class="st0" d="M352.1,0h-224c-22.1,0-40,17.9-40,40v400c0,22.1,17.9,40,40,40h224c22.1,0,40-17.9,40-40V40
			C392,17.9,374.1,0,352.1,0z M376.1,440c0,13.3-10.7,24-24,24h-224c-13.3,0-24-10.7-24-24v-40h272V440z M376.1,384h-272V64h272V384
			z M376.1,48h-272v-8c0-13.3,10.7-24,24-24h224c13.3,0,24,10.7,24,24V48z"/>
	</g>
</g>
<g>
	<g>
		<path class="st0" d="M240.1,408c-13.3,0-24,10.7-24,24s10.7,24,24,24s24-10.7,24-24S253.3,408,240.1,408z M240.1,440
			c-4.4,0-8-3.6-8-8s3.6-8,8-8s8,3.6,8,8S244.5,440,240.1,440z"/>
	</g>
</g>
<g>
	<g>
		<path class="st0" d="M248.1,24h-16c-4.4,0-8,3.6-8,8s3.6,8,8,8h16c4.4,0,8-3.6,8-8S252.5,24,248.1,24z"/>
	</g>
</g>
<g>
	<path class="st0" d="M237.8,219.3c7.9-0.3,16.2,0.3,24.2,3.4c13.2,5.2,23.7,13.5,30.4,26.2c2.9,5.5,6.3,10.8,8.3,16.6
		c3.3,9.6,3.7,19.6-0.1,29.2c-2.9,7.3-8,12.9-16,14.8c-5.2,1.2-9.9-0.2-14.4-2.7c-5.4-3.1-10.6-6.4-15.8-9.7
		c-10.7-6.8-21.4-6.7-32.2-0.2c-6,3.6-12,7.3-18.3,10.3c-10.5,4.8-20.4,1.3-26.2-8.7c-5.5-9.6-5.2-19.8-2.5-30
		c1.6-6,4.4-11.4,7.8-16.5c3.9-5.8,7.5-11.9,12.7-16.7C207.3,224.1,221.1,218.5,237.8,219.3z"/>
	<path class="st0" d="M241.1,173.7c-0.7-10.4,2.8-19.5,8.7-27.8c9.9-13.9,29.5-14.3,40.1,0.2c11.7,16,11.9,40.1,0.2,56.1
		c-4.4,6-10,10.1-17.5,11.1c-7.9,1.1-14.4-1.9-19.9-7.3c-7.4-7.5-11.1-16.6-11.6-27.2C241.1,177.1,241.1,175.4,241.1,173.7z"/>
	<path class="st0" d="M179.1,174.4c-0.6-10.6,2.3-20.1,8.7-28.6c7.2-9.4,18.6-13,28.5-8.9c7.2,3,12.2,8.5,15.3,15.5
		c7.6,16.9,7.2,33.6-3.3,49.3c-4.7,7-11.4,11.5-20.1,11.8c-9.4,0.3-16.2-4.6-21.4-11.9C181.1,193.4,178.6,184.3,179.1,174.4z"/>
	<path class="st0" d="M340.5,223.9c0,7.9-1.7,15.3-6.6,21.6c-9.2,12.1-23.4,12.1-32.6,0c-9.1-11.9-8.3-34.1,1.9-45.1
		c8.3-8.8,23-9,30.9,2.2C338.6,209.1,340.4,216.2,340.5,223.9z"/>
	<path class="st0" d="M184.5,224.1c0.6,6.8-0.9,13.2-4.5,19.1c-8.6,14.3-24.9,15.1-34.7,1.6c-7.9-11-7.6-31.8,0.7-42.5
		c5.6-7.2,12.9-9.9,21.6-7.7c6.9,1.7,10.8,7,13.9,12.9C184.2,212.7,184.9,218.3,184.5,224.1z"/>
</g>
</svg>
