<?xml version="1.0" encoding="utf-8"?>
<!-- Generator: Adobe Illustrator 24.2.3, SVG Export Plug-In . SVG Version: 6.00 Build 0)  -->
<svg version="1.1" id="Layer_1" xmlns="http://www.w3.org/2000/svg" xmlns:xlink="http://www.w3.org/1999/xlink" x="0px" y="0px"
	 viewBox="0 0 541 87" style="enable-background:new 0 0 541 87;" xml:space="preserve">
<style type="text/css">
	.st0{enable-background:new    ;}
	.st1{fill:#FFFFFF;}
</style>
<g class="st0">
	<path class="st1" d="M70.11,54.95c0,10.18-9.93,19.04-30.2,19.04c-6.16,0-17.07-1.15-21.83-2.13c0-0.98,0.33-11.08,0.33-27.41
		c0-18.71-0.57-24.95-0.57-25.94c6.73-0.99,17.32-1.97,25.12-1.97c15.02,0,25.12,4.84,25.12,14.12c0,6.89-5.5,11.82-11.82,13.95
		C67.08,45.67,70.11,49.2,70.11,54.95z M41.14,29.92c-2.79,0-5.58,0.16-8.21,0.41c0,2.63-0.08,6.16-0.08,11.08
		c17.4-0.08,19.37-4.35,19.37-7.55C52.22,31.31,50.99,29.92,41.14,29.92z M55.01,55.11c0-1.72-0.82-3.04-12.48-3.04
		c-3.86,0-7.06,0.08-9.69,0.25c0,2.96,0.08,5.5,0.08,7.63c2.22,0.25,4.92,0.41,8.13,0.41C54.36,60.37,55.01,56.67,55.01,55.11z"/>
	<path class="st1" d="M173.04,31.48L170,44.2c-0.9-0.41-3.61-1.72-8.45-1.72c-3.69,0-8.62,0.74-11.41,2.13v5.66
		c0,17.73,0.33,21.75,0.33,22.9c-1.31,0-4.19-0.16-7.8-0.16c-4.1,0-6.48,0.16-7.63,0.16c0-1.15,0.33-5.17,0.33-22.9
		c0-11.66-1.15-19.94-1.15-20.93l15.1-2.71c0,1.15,0.49,3.78,0.66,12.48c1.31-5.83,5.66-12.48,14.04-12.48
		C169.01,26.63,171.72,29.01,173.04,31.48z"/>
	<path class="st1" d="M211.61,74.32c-4.68-6.48-14.45-21.42-16.5-25.2c0.08,12.97,0.33,23.15,0.33,24.05c-1.4,0-4.35-0.16-7.8-0.16
		c-4.1,0-6.4,0.16-7.63,0.16c0-1.15,0.33-16.74,0.33-34.23c0-5.99-1.56-23.88-1.56-24.87l15.76-1.4c0,1.89,0.57,14.86,0.57,26.26
		v9.52c5.25-6.16,13.05-15.18,16.91-21.42l16.99,0.9c-3.2,6.89-11.82,14.53-18.96,19.53c6.07,7.96,16.91,20.93,19.29,23.64
		L211.61,74.32z"/>
	<path class="st1" d="M306.98,44.69c0,24.71,0.08,27,0.16,28.48c-0.99,0-4.1-0.16-6.98-0.16c-3.04,0-6.07,0.16-7.55,0.16
		c0-1.48,0.25-3.78-0.25-28.48c-0.16-8.45,0.33-12.64,0.33-14.86c-4.27,14.36-11.16,39.56-12.15,42.43c-2.05-0.9-14.12-0.9-16.66,0
		c-0.98-2.79-8.78-27.5-13.54-41.94c0.08,2.63,0.16,6.65,0.16,14.36c0,22.32,0.33,27,0.25,28.48c-1.07,0-3.69-0.16-6.4-0.16
		c-3.61,0-6.57,0.16-7.63,0.16c0.08-1.48,0.25-8.78,0.25-28.48c0-18.88-0.25-25.2-0.25-26.68c2.63,0.08,21.09-0.57,24.21-0.98
		c2.05,8.29,3.04,10.34,5.01,16.99c2.79,9.52,4.6,15.59,5.74,20.03c1.07-3.94,2.71-9.52,5.09-18.22c2.13-7.88,3.04-10.51,4.84-18.8
		c4.43,0.49,23.39,1.07,25.53,0.98C307.14,20.56,306.98,28.19,306.98,44.69z"/>
	<path class="st1" d="M409.24,57.33l1.07,11.57c-1.31,1.48-6.32,5.09-15.76,5.09c-16.25,0-19.86-10.59-19.86-20.19V40.09
		c-2.54,0.08-4.76,0.25-6.32,0.41l-0.49-9.68c0.49-0.25,2.71-1.31,7.14-2.13c0.25-4.6,0.57-8.37,0.57-9.03l14.53-3.61
		c0,0.66-0.25,6.16-0.41,11.66c12.48,0.25,19.21,1.81,20.6,2.13l-0.57,10.1c-1.48,0-12.89-0.16-20.27-0.16v14.53
		c0,5.25,2.87,6.65,6.81,6.65C400.62,60.94,405.96,59.22,409.24,57.33z"/>
	<path class="st1" d="M414.82,50.27c0-13.46,10.18-23.72,25.77-23.72c9.93,0,16,4.19,20.93,7.8l-3.69,10.01
		c-5.25-2.54-10.42-4.68-15.92-4.68c-8.95,0-12.8,5.5-12.8,10.59s3.86,10.59,12.8,10.59c5.5,0,10.67-1.31,15.92-3.86l3.69,10.01
		c-4.92,3.61-11,6.98-20.93,6.98C425,73.99,414.82,63.73,414.82,50.27z"/>
	<path class="st1" d="M517.25,73.17c-1.72,0-4.6-0.16-8.45-0.16c-3.37,0-6.57,0.16-7.06,0.16c0-0.82,0.49-3.45,0.49-18.8v-7.22
		c0-5.17-3.53-6.24-6.98-6.24c-3.86,0-7.88,1.31-10.92,2.79c0.08,15.43,0.33,28.4,0.33,29.47c-1.4,0-4.35-0.16-7.8-0.16
		c-4.1,0-6.4,0.16-7.63,0.16c0-1.15,0.33-16.74,0.33-34.23c0-5.99-1.15-23.88-1.15-24.87c5.58-0.49,10.51-0.98,16.17-1.4
		c0,1.81-0.25,13.79-0.25,24.79c1.97-5.17,8.45-10.92,17.56-10.92c9.03,0,15.27,5.75,15.27,16.74v9.93
		C517.17,68.16,517.25,72.35,517.25,73.17z"/>
</g>
<g>
	<path class="st1" d="M100.63,45.29c2.31,0.23,4.69,0.77,6.88,2c3.63,2.04,6.33,4.91,7.76,8.88c0.62,1.71,1.38,3.4,1.71,5.16
		c0.56,2.92,0.27,5.84-1.24,8.47c-1.16,2-2.85,3.41-5.27,3.64c-1.55,0.15-2.88-0.46-4.06-1.39c-1.43-1.13-2.82-2.3-4.2-3.49
		c-2.83-2.43-5.93-2.84-9.35-1.4c-1.89,0.8-3.78,1.64-5.75,2.22c-3.24,0.97-5.99-0.46-7.26-3.63c-1.2-3.01-0.7-5.96,0.53-8.83
		c0.71-1.67,1.74-3.12,2.96-4.47c1.38-1.52,2.67-3.13,4.37-4.33C91.58,45.42,95.81,44.35,100.63,45.29z"/>
	<path class="st1" d="M103.49,32.19c0.23-3.05,1.62-5.55,3.68-7.72c3.44-3.62,9.15-2.93,11.63,1.71c2.74,5.12,1.8,12.14-2.27,16.3
		c-1.51,1.55-3.33,2.51-5.53,2.51c-2.34,0-4.11-1.14-5.47-2.95c-1.86-2.48-2.55-5.3-2.25-8.37
		C103.33,33.17,103.42,32.68,103.49,32.19z"/>
	<path class="st1" d="M85.46,29.81c0.27-3.11,1.5-5.76,3.72-7.94c2.47-2.42,5.95-3.01,8.64-1.4c1.96,1.17,3.21,2.99,3.82,5.12
		c1.5,5.23,0.7,10.06-3,14.18c-1.66,1.84-3.78,2.87-6.32,2.59c-2.75-0.3-4.51-2.01-5.73-4.35C85.23,35.41,84.89,32.66,85.46,29.81z"
		/>
	<path class="st1" d="M130.29,50.87c-0.32,2.29-1.14,4.36-2.81,6c-3.18,3.13-7.3,2.54-9.48-1.34c-2.15-3.83-1.01-10.27,2.43-13.01
		c2.77-2.22,7.07-1.67,8.89,1.93C130.35,46.49,130.59,48.63,130.29,50.87z"/>
	<path class="st1" d="M84.96,44.47c-0.09,2-0.81,3.79-2.09,5.37c-3.09,3.81-7.85,3.35-10.14-0.98c-1.85-3.51-0.89-9.56,1.97-12.32
		c1.92-1.85,4.14-2.33,6.6-1.34c1.92,0.78,2.85,2.47,3.5,4.33C85.35,41.15,85.32,42.79,84.96,44.47z"/>
</g>
<g>
	<path class="st1" d="M100.63,45.29c2.31,0.23,4.69,0.77,6.88,2c3.63,2.04,6.33,4.91,7.76,8.88c0.62,1.71,1.38,3.4,1.71,5.16
		c0.56,2.92,0.27,5.84-1.24,8.47c-1.16,2-2.85,3.41-5.27,3.64c-1.55,0.15-2.88-0.46-4.06-1.39c-1.43-1.13-2.82-2.3-4.2-3.49
		c-2.83-2.43-5.93-2.84-9.35-1.4c-1.89,0.8-3.78,1.64-5.75,2.22c-3.24,0.97-5.99-0.46-7.26-3.63c-1.2-3.01-0.7-5.96,0.53-8.83
		c0.71-1.67,1.74-3.12,2.96-4.47c1.38-1.52,2.67-3.13,4.37-4.33C91.58,45.42,95.81,44.35,100.63,45.29z"/>
	<path class="st1" d="M103.49,32.19c0.23-3.05,1.62-5.55,3.68-7.72c3.44-3.62,9.15-2.93,11.63,1.71c2.74,5.12,1.8,12.14-2.27,16.3
		c-1.51,1.55-3.33,2.51-5.53,2.51c-2.34,0-4.11-1.14-5.47-2.95c-1.86-2.48-2.55-5.3-2.25-8.37
		C103.33,33.17,103.42,32.68,103.49,32.19z"/>
	<path class="st1" d="M85.46,29.81c0.27-3.11,1.5-5.76,3.72-7.94c2.47-2.42,5.95-3.01,8.64-1.4c1.96,1.17,3.21,2.99,3.82,5.12
		c1.5,5.23,0.7,10.06-3,14.18c-1.66,1.84-3.78,2.87-6.32,2.59c-2.75-0.3-4.51-2.01-5.73-4.35C85.23,35.41,84.89,32.66,85.46,29.81z"
		/>
	<path class="st1" d="M130.29,50.87c-0.32,2.29-1.14,4.36-2.81,6c-3.18,3.13-7.3,2.54-9.48-1.34c-2.15-3.83-1.01-10.27,2.43-13.01
		c2.77-2.22,7.07-1.67,8.89,1.93C130.35,46.49,130.59,48.63,130.29,50.87z"/>
	<path class="st1" d="M84.96,44.47c-0.09,2-0.81,3.79-2.09,5.37c-3.09,3.81-7.85,3.35-10.14-0.98c-1.85-3.51-0.89-9.56,1.97-12.32
		c1.92-1.85,4.14-2.33,6.6-1.34c1.92,0.78,2.85,2.47,3.5,4.33C85.35,41.15,85.32,42.79,84.96,44.47z"/>
</g>
<g>
	<path class="st1" d="M340.48,45.29c2.31,0.23,4.69,0.77,6.88,2c3.63,2.04,6.33,4.91,7.76,8.88c0.62,1.71,1.38,3.4,1.71,5.16
		c0.56,2.92,0.27,5.84-1.24,8.47c-1.16,2-2.85,3.41-5.27,3.64c-1.55,0.15-2.88-0.46-4.06-1.39c-1.43-1.13-2.82-2.3-4.2-3.49
		c-2.83-2.43-5.93-2.84-9.35-1.4c-1.89,0.8-3.78,1.64-5.75,2.22c-3.24,0.97-5.99-0.46-7.26-3.63c-1.2-3.01-0.7-5.96,0.53-8.83
		c0.71-1.67,1.74-3.12,2.96-4.47c1.38-1.52,2.67-3.13,4.37-4.33C331.43,45.42,335.66,44.35,340.48,45.29z"/>
	<path class="st1" d="M343.35,32.19c0.23-3.05,1.62-5.55,3.68-7.72c3.44-3.62,9.15-2.93,11.63,1.71c2.74,5.12,1.8,12.14-2.27,16.3
		c-1.51,1.55-3.33,2.51-5.53,2.51c-2.34,0-4.11-1.14-5.47-2.95c-1.86-2.48-2.55-5.3-2.25-8.37
		C343.19,33.17,343.28,32.68,343.35,32.19z"/>
	<path class="st1" d="M325.31,29.81c0.27-3.11,1.5-5.76,3.72-7.94c2.47-2.42,5.95-3.01,8.64-1.4c1.96,1.17,3.21,2.99,3.82,5.12
		c1.5,5.23,0.7,10.06-3,14.18c-1.66,1.84-3.78,2.87-6.32,2.59c-2.75-0.3-4.51-2.01-5.73-4.35
		C325.08,35.41,324.74,32.66,325.31,29.81z"/>
	<path class="st1" d="M370.14,50.87c-0.32,2.29-1.14,4.36-2.81,6c-3.18,3.13-7.3,2.54-9.48-1.34c-2.15-3.83-1.01-10.27,2.43-13.01
		c2.77-2.22,7.07-1.67,8.89,1.93C370.2,46.49,370.44,48.63,370.14,50.87z"/>
	<path class="st1" d="M324.81,44.47c-0.09,2-0.81,3.79-2.09,5.37c-3.09,3.81-7.85,3.35-10.14-0.98c-1.85-3.51-0.89-9.56,1.97-12.32
		c1.92-1.85,4.14-2.33,6.6-1.34c1.92,0.78,2.85,2.47,3.5,4.33C325.21,41.15,325.18,42.79,324.81,44.47z"/>
</g>
</svg>
