<?xml version="1.0" encoding="utf-8"?>
<!-- Generator: Adobe Illustrator 24.2.3, SVG Export Plug-In . SVG Version: 6.00 Build 0)  -->
<svg version="1.1" id="Layer_1" xmlns="http://www.w3.org/2000/svg" xmlns:xlink="http://www.w3.org/1999/xlink" x="0px" y="0px"
	 viewBox="0 0 1589.9 186.8" style="enable-background:new 0 0 1589.9 186.8;" xml:space="preserve">
<style type="text/css">
	.st0{fill:#292F36;}
	.st1{fill:#ED1B2E;}
</style>
<g>
	<path class="st0" d="M1516.9,154.4c-1,0-1.8,0-2.7,0c-6.8,0-13.5,0-20.7,0c2.9-7,5.5-13.7,8.4-20.4c1.4-3.1,1.7-5.8,0.3-9.1
		c-6.5-16-12.7-32-18.9-48.1c-0.8-2.2-2-2.8-4.2-2.8c-8.3,0.1-8.3,0-8.3,8.2c0,15.7-0.1,31.3,0.1,47c0,3.2-1,4-4,3.9
		c-5-0.2-10.1-0.2-15.1,0c-2.6,0.1-3.5-0.8-3.5-3.5c0.1-17.1,0.1-34.1,0.1-51.2c0-1.3,0-2.6,0-4.3c-3.7,0-7.2,0-10.8,0
		c0-5.6,0-10.8,0-16.5c3.5,0,7,0,10.8,0c0-8.7,0-16.8,0-25.3c7.6,0,14.8,0,22.5,0c0,4.2,0,8.3,0,12.5c0,3.1,0.2,6.2-0.1,9.3
		c-0.2,2.6,0.7,3.6,3.4,3.5c7.3-0.2,14.6,0,21.9-0.1c2.5,0,3.7,0.5,4.6,3.1c4.2,12.6,8.8,25,13.2,37.5c0.3,0.8,0.6,1.4,1.3,2.9
		c0.7-1.6,1.1-2.6,1.4-3.5c4.1-12.3,8.2-24.6,12.1-36.9c0.8-2.4,1.8-3.2,4.3-3.1c6.5,0.2,13.1,0,20.3,0
		C1541.1,90.2,1529,122.3,1516.9,154.4z"/>
	<path class="st1" d="M753.8,52.2c1.3-1,2.6-1.8,3.7-2.7c12.4-10.6,35.9-6.8,43.7,13c5.4,13.9,3.3,27-3.8,39.7
		c-10.1,17.8-25.4,30.3-42.3,41.2c-0.6,0.4-1.9,0.3-2.6-0.1c-16.1-10.3-30.6-22.3-40.8-38.8c-5.3-8.6-8.8-17.9-8.1-28.2
		c0.7-10.6,3.8-20.3,12.9-26.8c11.3-8.1,24.1-7.6,35,0.9C752.2,50.9,752.9,51.5,753.8,52.2z M754.3,75.2c-3.3-2-6.2-4.2-9.4-5.3
		c-6.9-2.4-12.5,1.2-14.2,8.3c-0.9,3.8-0.6,7.5,1,11c4.7,10.1,12.4,17.5,20.7,24.6c0.6,0.5,2.5,0.3,3.2-0.3c7-6,13.5-12.5,18.3-20.4
		c3-4.9,4.4-10.2,2.6-15.9c-1.6-5.1-5.1-7.7-10.4-7.7C761,69.3,757.3,72,754.3,75.2z"/>
	<path class="st0" d="M96.9,64.9c0.1-0.2,0.2-0.2,0.2-0.3c0.6-6.3,0.6-6.3,7.1-6.3c5,0,10,0,15.2,0c0,25.2,0,50.1,0,75.3
		c-7.2,0-14.4,0-22,0c0-2,0-4.1,0-6.8c-1.1,0.8-1.7,1.1-2.2,1.5c-6.8,7-15.5,9-24.7,7.9c-16-1.9-26.9-10.9-31.5-26.2
		c-4.9-16.2-2.6-31.5,9.9-44c10.6-10.7,28.5-13.6,40.2-6.8C91.8,60.8,94.2,62.9,96.9,64.9z M78.2,115.4c11.1,0,19-7.9,19-19.3
		c0.1-11.3-7.8-19.4-18.9-19.5c-10.9-0.1-19.1,8.2-19.2,19.4C59.1,107,67.3,115.4,78.2,115.4z"/>
	<path class="st0" d="M485.2,65.4c0-2.5,0-4.5,0-6.7c7.5,0,14.8,0,22.2,0c0,24.9,0,49.8,0,74.8c-7.3,0-14.5,0-22,0
		c-0.1-2.1-0.2-4.2-0.3-6.7c-0.9,0.6-1.4,0.8-1.8,1.2c-7.2,7.7-16.4,9.2-26.2,7.9c-21.4-2.8-32.4-21.5-32.4-39.9
		c0-18.7,10.7-34.2,27.3-38.8c11.8-3.3,22.9-2.3,31.9,7.3C484,64.9,484.3,65,485.2,65.4z M466.1,115.4c11.1,0,19.1-8.2,19.1-19.7
		c0-11-8.3-19.1-19.4-19.1c-10.8,0-18.7,8.4-18.7,19.8C447.1,105.5,454.4,116.1,466.1,115.4z"/>
	<path class="st0" d="M269.6,65.3c0-2.4,0-4.3,0-6.5c7.6,0,14.8,0,22.3,0c0,24.8,0,49.8,0,74.8c-7.3,0-14.5,0-22,0
		c-0.1-2.2-0.2-4.2-0.3-6.8c-0.9,0.6-1.4,0.9-1.8,1.3c-7.1,7.4-15.9,9.2-25.6,7.9c-22.9-2.9-33.8-22.1-32.9-42.4
		c0.8-17.8,10.2-31.4,27.3-36.4c11.7-3.4,22.7-2.3,31.6,7.2C268.4,64.8,268.8,64.9,269.6,65.3z M250.8,115.4c11.2,0,19-8.2,19-19.9
		c-0.1-10.9-8.3-19-19.3-19c-10.8,0-18.9,8.5-18.9,19.8C231.6,107.2,239.9,115.4,250.8,115.4z"/>
	<path class="st0" d="M892.9,58.1c0,25.1,0,49.8,0,74.8c-7.3,0-14.6,0-22.1,0c-0.1-2-0.2-4.1-0.4-6.4c-0.7,0.2-1.2,0.2-1.4,0.5
		c-9.2,9.7-20.4,10.4-32.2,7c-15.5-4.5-23.3-15.9-26-31.2c-2.1-11.9,0.3-23,7.5-32.9c10-13.9,31.3-19.1,45-10.8
		c2.4,1.5,4.5,3.5,7.2,5.8c0.1-2.6,0.2-4.6,0.3-6.9C878.2,58.1,885.5,58.1,892.9,58.1z M870.7,95.5c0.1-11.2-7.9-19.4-19.1-19.5
		c-10.8-0.1-19,8.3-19.1,19.5c-0.1,11.1,8.2,19.6,19.1,19.5C862.6,115,870.6,106.8,870.7,95.5z"/>
	<path class="st0" d="M567.7,63.5c3.5-4.2,7.9-7,13.3-7.8c15.7-2.2,29,2.5,32.2,21.4c0.8,4.5,1.2,9.1,1.2,13.7
		c0.2,13.1,0,26.2,0.1,39.2c0,2.3-0.6,3.2-3,3.1c-5.5-0.2-10.9-0.2-16.4,0c-2.4,0.1-3.1-0.7-3.1-3.1c0.1-12.5,0-25.1,0-37.6
		c0-1.5,0-3-0.1-4.5c-0.8-9.8-8.9-14.7-18-10.9c-5.6,2.3-7,7.2-7.1,12.6c-0.1,13.2-0.1,26.4,0,39.5c0,3-0.7,4.1-3.8,4
		c-6-0.2-12-0.1-18.3-0.1c0-33.6,0-66.9,0-100.8c6.9,0,13.7-0.1,20.5,0.1c0.5,0,1.5,1.8,1.5,2.8c0.1,8.2,0.1,16.5,0.1,24.8
		c0,1,0,2.1,0,3.1C567.1,63.3,567.4,63.4,567.7,63.5z"/>
	<path class="st0" d="M1433.8,109.5c-3.2,7.3-7.4,13.2-13.4,17.8c-11.9,9-24.9,10.7-38.5,4.9c-13.8-5.9-22-16.6-24.2-31.5
		c-3.2-21,12.3-45,38.5-45.7c20.4-0.5,35.7,13.6,39.2,31.4c0.9,4.4,0.5,9.2,0.8,13.7c0.2,2.5-1,3-3.3,3c-16.5-0.1-33-0.1-49.5-0.1
		c-1.2,0-2.3,0-3.8,0c0.4,5.5,3.4,8.9,7.7,11.3c6.6,3.7,17.9,3.7,22.9-3.3c0.5-0.7,1.5-1.1,2.4-1.4c0.6-0.2,1.3-0.1,1.9-0.1
		C1420.8,109.5,1427,109.5,1433.8,109.5z M1413.6,86c-0.6-7.6-8.4-12.4-18.6-12.1c-7.4,0.2-14.4,5.9-14.5,11.9
		c0.6,0.1,1.2,0.2,1.8,0.2C1392.6,86,1403,86,1413.6,86z"/>
	<path class="st0" d="M1058.2,103c-18.7,0-37.2,0-56.2,0c0.4,4.8,2.5,8.1,6.1,10.6c6.7,4.7,19,5.4,24.7-2.6c0.4-0.6,1.4-0.9,2.2-0.9
		c6.8-0.1,13.7,0,20.6,0c-4.4,14.1-22.2,29.1-43.4,25c-20.9-4-35.8-25.1-32-45.7c4-22.5,23.5-36.7,44.6-33.7
		C1049.9,59.1,1062,82.8,1058.2,103z M1035.9,86.2c-0.2-6.4-7.7-11.8-15.6-12.1c-8.9-0.4-16.5,4.9-17.6,12.1
		C1013.8,86.2,1024.8,86.2,1035.9,86.2z"/>
	<path class="st0" d="M1194.5,135.2c-24.1,0.1-40.7-17.6-40.5-40.3c0.2-23.2,17.3-40,41-39.9c24,0.2,40.2,18.1,40.2,40
		C1235.2,117.8,1218.2,135.5,1194.5,135.2z M1212.9,95.2c0-10.8-8-19.3-18.2-19.3c-10.4,0-18.5,8.4-18.5,19.3
		c0,10.6,8.3,19.3,18.4,19.3C1204.7,114.5,1212.9,105.8,1212.9,95.2z"/>
	<path class="st0" d="M972.9,133.1c-7.7,0-14.9,0-22.4,0c0-1.3,0-2.4,0-3.6c0-12.9,0-25.7,0-38.6c0-1.6,0.1-3.2-0.2-4.8
		c-1.5-7.5-5.7-10.6-13.5-9.9c-7.1,0.6-11.2,5-11.3,13c-0.2,13.3-0.1,26.6-0.1,39.9c0,1.3,0,2.5,0,4.1c-7.1,0-13.8,0-20.5-0.1
		c-0.6,0-1.3-1-1.8-1.6c-0.2-0.3,0-0.8,0-1.3c0-23.2,0-46.5,0-69.8c0-0.7,0.1-1.4,0.2-2.5c6.5,0,12.8-0.1,19,0.1
		c0.6,0,1.5,1.2,1.7,2c0.3,1.4,0.1,2.9,0.1,4.8c0.9-0.5,1.4-0.6,1.7-1c8.2-9.9,18.8-10.1,29.8-7c10.7,3,15.3,11.4,16.8,21.7
		c0.6,4.1,0.6,8.3,0.6,12.5c0.1,12.8,0,25.5,0,38.3C972.9,130.5,972.9,131.7,972.9,133.1z"/>
	<path class="st0" d="M624.2,58c7.3,0,14.4,0,21.9,0c0,1.2,0,2.3,0,3.4c0,12.2,0,24.4,0,36.7c0,2.6,0.2,5.1,0.7,7.7
		c1.2,6.1,4.7,8.9,11.1,9.1c7.4,0.2,11.7-2.6,13.1-8.7c0.5-2.3,0.7-4.7,0.8-7c0.1-12.4,0-24.9,0-37.3c0-1.2,0-2.3,0-3.7
		c7.5,0,14.7,0,22.4,0c0,1.1,0,2.1,0,3.1c0,22.8,0,45.7,0.1,68.5c0,2.9-0.9,3.7-3.7,3.6c-5.7-0.2-11.3-0.1-17.2-0.1
		c-0.1-2.5-0.2-4.7-0.3-7.6c-1.7,1.8-2.8,3.1-4.1,4.3c-7.4,6.5-16,7-25,4.9c-11.9-2.7-19.1-11.4-19.6-24.9
		C623.8,92.7,624.2,75.6,624.2,58z"/>
	<path class="st0" d="M325.6,133.7c-7.5,0-14.5,0-21.8,0c0-24.9,0-49.8,0-74.9c6.6,0,13.3,0,20.2,0c0.1,2,0.2,4.1,0.4,6.9
		c1.1-1.1,1.8-1.6,2.4-2.2c5.5-6.4,12.7-8.1,20.8-7.7c6.5,0.3,12.4,2,17.3,6.5c5.5,5,7.8,11.7,8.1,18.7c0.6,16.9,0.5,33.8,0.6,50.8
		c0,0.5-0.1,1-0.3,1.8c-7.3,0-14.5,0-22.1,0c-0.1-1.2-0.2-2.4-0.2-3.6c0-12.3,0-24.7,0-37c0-1.8-0.1-3.6-0.3-5.4
		c-0.8-7.3-4.9-11-12.1-10.9c-7.2,0.1-12.2,4.5-12.4,11.5c-0.4,13.7-0.4,27.4-0.6,41.1C325.6,130.6,325.6,132,325.6,133.7z"/>
	<path class="st0" d="M1320.1,86.3c-7,0-13.9,0.1-20.9-0.1c-0.8,0-1.9-1.2-2.4-2.1c-5.3-10.2-21.9-11-28.8-3
		c-6.3,7.3-6.5,20.7,0.2,28.2c5.7,6.3,17.1,7.3,24.4,1.8c1.8-1.3,2.9-3.4,4.5-5c0.7-0.7,1.6-1.6,2.4-1.6c6.1-0.1,12.2-0.1,18.3-0.1
		c0.7,0,1.5,0.1,2.2,0.1c-1.6,13.8-17.2,30.3-37,30.7c-23.4,0.5-41.6-15.9-42.3-39c-0.7-20.9,14.6-40.3,38.4-41.3
		C1302.2,54,1317.8,70.8,1320.1,86.3z"/>
	<path class="st0" d="M1088.6,110.9c7.4,0,14.6,0,21.7,0c2.9,6.2,7.2,8.4,12.7,6.1c1.8-0.8,3.5-2.8,4.2-4.6c1-2.7-0.8-4.9-3.2-5.9
		c-5.6-2.3-11.3-4.5-17.1-6.6c-5.2-1.9-10.2-4.2-13.6-8.7c-6-7.8-4.9-19,2.4-27c11-12,33.8-12.4,45.2-0.8c3.8,3.8,6.3,10,6.2,15.1
		c-6.7,0-13.4,0-20.1-0.1c-0.5,0-1.3-0.9-1.6-1.6c-1.8-4.3-8.9-5.6-12.2-2.3c-2.2,2.2-2,5.6,0.9,7.1c3.6,1.9,7.4,3.2,11.2,4.6
		c4.5,1.7,9.2,3,13.5,5.1c12,5.7,13.2,19.1,8.6,28.9c-3.8,7.8-10.4,12.1-18.5,14.1c-10.9,2.7-21.3,1.4-30.6-5.4
		C1092.3,124.5,1089.4,118.3,1088.6,110.9z"/>
	<path class="st0" d="M160.8,75.2c0,19.7,0,38.9,0,58.4c-7.5,0-14.7,0-22.3,0c0-19.2,0-38.6,0-58.3c-3.8,0-7.3,0-11,0
		c0-5.8,0-11.2,0-17c3.5,0,7,0,10.8,0c0-8.6,0-16.8,0-25.2c7.6,0,14.8,0,22.4,0c0,8.2,0,16.4,0,25.1c3.8,0,7.3,0,11,0
		c0,5.4,0.1,10.3-0.1,15.2c0,0.6-1.4,1.7-2.2,1.7C166.7,75.3,164,75.2,160.8,75.2z"/>
	<path class="st0" d="M389.6,75.2c-4,0-7.4,0-11,0c0-5.6,0-10.9,0-16.6c2.8,0,5.5-0.1,8.3,0c2,0.1,2.6-0.7,2.6-2.6
		c-0.1-6.4,0-12.9,0-19.3c0-1.1,0-2.3,0-3.6c7.6,0,14.7,0,22.4,0c0,1.5,0,3,0,4.6c0,6,0.1,12,0,18c0,2.2,0.7,3.1,3,2.9
		c2.5-0.2,5.1,0,7.8,0c0,5.6,0,10.9,0,16.6c-2.3,0-4.4,0-6.5,0c-4.2,0-4.2,0-4.2,4.1c0,16.7,0,33.4,0,50.1c0,1.3,0,2.6,0,4.1
		c-7.4,0-14.6,0-22.2,0C389.6,114.3,389.6,95,389.6,75.2z"/>
	<path class="st0" d="M179,33c7.7,0,14.7,0,22.1,0c0,33.5,0,67,0,100.8c-6.8,0-13.6,0-20.5-0.1c-0.5,0-1.2-0.9-1.5-1.5
		c-0.3-0.6-0.1-1.5-0.1-2.2c0-31.1,0-62.1,0-93.2C179,35.6,179,34.5,179,33z"/>
	<path class="st0" d="M1328.4,57.5c7.1,0,14.2,0,21.4,0c0.1,1.2,0.2,2.3,0.2,3.3c0,22.8,0,45.7,0.1,68.5c0,2.9-0.7,4-3.7,3.8
		c-5.2-0.2-10.5-0.1-15.8-0.1c-1.7,0-2.6-0.4-2.6-2.3c0.1-24.1,0.1-48.2,0.1-72.4C1328.1,58.3,1328.2,58.1,1328.4,57.5z"/>
	<path class="st0" d="M1349.8,48.8c-7.3,0-14.3,0-21.5,0c0-5.5,0-10.8,0-16.3c7,0,14.1,0,21.5,0
		C1349.8,37.8,1349.8,43.2,1349.8,48.8z"/>
</g>
</svg>
