<?xml version="1.0" encoding="utf-8"?>
<!-- Generator: Adobe Illustrator 24.2.3, SVG Export Plug-In . SVG Version: 6.00 Build 0)  -->
<svg version="1.1" id="Layer_1" xmlns="http://www.w3.org/2000/svg" xmlns:xlink="http://www.w3.org/1999/xlink" x="0px" y="0px"
	 viewBox="0 0 1589.93 186.77" style="enable-background:new 0 0 1589.93 186.77;" xml:space="preserve">
<style type="text/css">
	.st0{fill:#FFFFFF;}
	.st1{fill:#ED1B2E;}
</style>
<g>
	<path class="st0" d="M1516.93,154.42c-0.96,0-1.81,0-2.66,0c-6.75,0-13.5,0-20.68,0c2.87-6.98,5.5-13.73,8.43-20.35
		c1.37-3.09,1.69-5.79,0.35-9.09c-6.47-15.96-12.72-32.01-18.91-48.08c-0.85-2.21-2.01-2.81-4.24-2.79c-8.29,0.07-8.29,0-8.29,8.25
		c0,15.65-0.09,31.31,0.07,46.96c0.03,3.18-0.97,4-3.99,3.86c-5.03-0.24-10.08-0.17-15.11-0.02c-2.63,0.08-3.48-0.78-3.47-3.49
		c0.12-17.05,0.06-34.1,0.06-51.15c0-1.28,0-2.55,0-4.26c-3.69,0-7.17,0-10.82,0c0-5.62,0-10.82,0-16.47c3.51,0,6.98,0,10.79,0
		c0-8.65,0-16.85,0-25.3c7.56,0,14.78,0,22.48,0c0,4.18,0,8.32,0,12.46c0,3.11,0.16,6.23-0.05,9.33c-0.17,2.64,0.68,3.57,3.4,3.51
		c7.29-0.16,14.58,0.04,21.87-0.1c2.47-0.05,3.68,0.54,4.56,3.13c4.23,12.56,8.76,25.01,13.19,37.5c0.27,0.75,0.64,1.45,1.29,2.9
		c0.65-1.64,1.07-2.57,1.39-3.52c4.06-12.28,8.18-24.55,12.1-36.88c0.76-2.39,1.85-3.19,4.3-3.13c6.52,0.15,13.05,0.05,20.31,0.05
		C1541.07,90.24,1529.03,122.27,1516.93,154.42z"/>
	<path class="st1" d="M753.75,52.17c1.31-0.96,2.57-1.76,3.7-2.72c12.42-10.56,35.93-6.85,43.69,13.02
		c5.42,13.87,3.35,27.05-3.81,39.71c-10.09,17.83-25.43,30.31-42.31,41.16c-0.61,0.39-1.92,0.33-2.56-0.07
		c-16.09-10.3-30.64-22.28-40.85-38.75c-5.33-8.6-8.77-17.95-8.11-28.25c0.68-10.59,3.85-20.3,12.92-26.81
		c11.29-8.1,24.09-7.63,35,0.88C752.17,50.93,752.92,51.52,753.75,52.17z M754.34,75.24c-3.34-1.96-6.15-4.24-9.37-5.35
		c-6.91-2.38-12.54,1.22-14.24,8.33c-0.91,3.82-0.61,7.46,1.01,10.96c4.66,10.06,12.43,17.55,20.7,24.58
		c0.59,0.5,2.52,0.28,3.21-0.31c6.99-6.02,13.54-12.47,18.35-20.44c2.98-4.94,4.39-10.19,2.63-15.95
		c-1.57-5.14-5.11-7.72-10.44-7.72C761.05,69.33,757.32,72.01,754.34,75.24z"/>
	<path class="st0" d="M96.89,64.91c0.12-0.18,0.22-0.25,0.23-0.34c0.63-6.31,0.63-6.31,7.05-6.31c5.02,0,10.03,0,15.25,0
		c0,25.24,0,50.15,0,75.32c-7.15,0-14.37,0-21.98,0c0-2,0-4.07,0-6.82c-1.11,0.78-1.71,1.08-2.16,1.54
		c-6.85,7.01-15.47,8.99-24.73,7.89c-16.01-1.91-26.94-10.87-31.54-26.2c-4.86-16.19-2.59-31.47,9.86-43.96
		c10.61-10.65,28.47-13.57,40.21-6.84C91.81,60.76,94.2,62.92,96.89,64.91z M78.22,115.4c11.12,0.02,18.97-7.95,19.04-19.35
		c0.06-11.33-7.78-19.43-18.87-19.51c-10.93-0.07-19.13,8.19-19.2,19.36C59.11,106.97,67.31,115.38,78.22,115.4z"/>
	<path class="st0" d="M485.2,65.43c0-2.5,0-4.47,0-6.66c7.54,0,14.76,0,22.18,0c0,24.94,0,49.77,0,74.83c-7.3,0-14.52,0-21.99,0
		c-0.1-2.12-0.2-4.19-0.32-6.7c-0.85,0.56-1.42,0.81-1.81,1.22c-7.22,7.66-16.35,9.24-26.21,7.95
		c-21.41-2.8-32.41-21.52-32.42-39.95c-0.02-18.68,10.73-34.15,27.27-38.76c11.81-3.29,22.89-2.27,31.87,7.32
		C483.96,64.9,484.3,64.97,485.2,65.43z M466.13,115.41c11.15-0.01,19.11-8.21,19.08-19.67c-0.02-11.03-8.26-19.14-19.39-19.12
		c-10.79,0.02-18.73,8.42-18.74,19.75C447.07,105.52,454.37,116.08,466.13,115.41z"/>
	<path class="st0" d="M269.57,65.35c0-2.38,0-4.35,0-6.54c7.57,0,14.8,0,22.27,0c0,24.85,0,49.75,0,74.84c-7.27,0-14.49,0-22,0
		c-0.1-2.16-0.2-4.23-0.32-6.76c-0.86,0.6-1.41,0.87-1.8,1.28c-7.06,7.41-15.95,9.16-25.59,7.92
		c-22.88-2.95-33.81-22.08-32.86-42.37c0.83-17.81,10.23-31.42,27.31-36.4c11.67-3.4,22.65-2.29,31.56,7.19
		C268.39,64.77,268.79,64.89,269.57,65.35z M250.75,115.41c11.2-0.03,19.03-8.23,18.97-19.86c-0.06-10.86-8.32-19.01-19.26-19
		c-10.81,0.01-18.94,8.53-18.87,19.77C231.65,107.25,239.88,115.44,250.75,115.41z"/>
	<path class="st0" d="M892.93,58.14c0,25.11,0,49.85,0,74.82c-7.35,0-14.57,0-22.11,0c-0.12-2.02-0.25-4.07-0.38-6.38
		c-0.67,0.22-1.16,0.23-1.4,0.48c-9.16,9.66-20.4,10.42-32.24,6.98c-15.5-4.51-23.29-15.94-25.97-31.17
		c-2.09-11.89,0.33-23,7.45-32.89c10.03-13.94,31.28-19.06,45.01-10.78c2.41,1.45,4.45,3.54,7.23,5.8c0.12-2.6,0.21-4.63,0.31-6.86
		C878.24,58.14,885.46,58.14,892.93,58.14z M870.7,95.47c0.1-11.16-7.94-19.39-19.06-19.52c-10.83-0.12-19.05,8.28-19.11,19.52
		c-0.06,11.1,8.22,19.55,19.11,19.53C862.63,114.98,870.59,106.82,870.7,95.47z"/>
	<path class="st0" d="M567.68,63.53c3.55-4.17,7.93-7.03,13.29-7.77c15.73-2.17,29.01,2.51,32.21,21.37
		c0.76,4.5,1.15,9.11,1.2,13.68c0.16,13.08,0,26.15,0.1,39.23c0.02,2.34-0.56,3.23-3.03,3.15c-5.46-0.17-10.93-0.16-16.4,0
		c-2.42,0.07-3.1-0.72-3.08-3.11c0.11-12.54,0.05-25.08,0.05-37.62c0-1.5,0.02-3.01-0.09-4.5c-0.76-9.77-8.89-14.71-17.96-10.9
		c-5.59,2.35-7.04,7.23-7.09,12.61c-0.12,13.18-0.13,26.37,0.02,39.55c0.04,3-0.65,4.13-3.85,3.99c-5.98-0.25-11.98-0.07-18.26-0.07
		c0-33.58,0-66.95,0-100.78c6.87,0,13.68-0.07,20.49,0.13c0.54,0.02,1.47,1.81,1.48,2.79c0.12,8.25,0.07,16.51,0.07,24.76
		c0,1.03,0,2.06,0,3.09C567.12,63.26,567.4,63.4,567.68,63.53z"/>
	<path class="st0" d="M1433.8,109.5c-3.15,7.35-7.44,13.21-13.43,17.75c-11.86,9-24.9,10.66-38.48,4.9
		c-13.84-5.86-22-16.55-24.25-31.54c-3.15-20.97,12.34-45.02,38.53-45.69c20.39-0.52,35.69,13.59,39.24,31.36
		c0.89,4.45,0.53,9.15,0.83,13.73c0.16,2.47-0.98,3-3.27,2.98c-16.51-0.09-33.02-0.05-49.53-0.05c-1.16,0-2.33,0-3.83,0
		c0.41,5.52,3.45,8.93,7.66,11.29c6.63,3.72,17.92,3.67,22.89-3.29c0.49-0.69,1.52-1.08,2.38-1.41c0.57-0.21,1.27-0.05,1.91-0.05
		C1420.75,109.5,1427.04,109.5,1433.8,109.5z M1413.57,85.97c-0.62-7.57-8.36-12.4-18.64-12.06c-7.39,0.25-14.44,5.94-14.52,11.87
		c0.6,0.06,1.22,0.18,1.84,0.18C1392.61,85.97,1402.97,85.97,1413.57,85.97z"/>
	<path class="st0" d="M1058.22,103.04c-18.71,0-37.23,0-56.16,0c0.36,4.75,2.53,8.06,6.08,10.56c6.65,4.67,18.98,5.36,24.71-2.59
		c0.4-0.56,1.45-0.9,2.2-0.91c6.85-0.07,13.71-0.04,20.62-0.04c-4.41,14.1-22.15,29.09-43.43,25.03
		c-20.93-4-35.75-25.12-32.04-45.71c4.05-22.48,23.52-36.68,44.6-33.74C1049.89,59.14,1061.97,82.79,1058.22,103.04z M1035.88,86.16
		c-0.24-6.4-7.66-11.78-15.57-12.13c-8.88-0.39-16.55,4.87-17.61,12.13C1013.78,86.16,1024.83,86.16,1035.88,86.16z"/>
	<path class="st0" d="M1194.5,135.16c-24.09,0.11-40.65-17.61-40.5-40.28c0.15-23.21,17.35-40.05,40.96-39.86
		c24.02,0.19,40.22,18.05,40.22,40.02C1235.18,117.81,1218.2,135.5,1194.5,135.16z M1212.94,95.2c0.04-10.76-7.98-19.27-18.19-19.31
		c-10.44-0.04-18.53,8.41-18.52,19.33c0.02,10.61,8.3,19.32,18.37,19.3C1204.68,114.51,1212.91,105.84,1212.94,95.2z"/>
	<path class="st0" d="M972.87,133.05c-7.71,0-14.86,0-22.42,0c0-1.29,0-2.43,0-3.57c0-12.86,0.01-25.72-0.01-38.58
		c0-1.6,0.06-3.24-0.25-4.8c-1.46-7.52-5.69-10.59-13.51-9.93c-7.11,0.6-11.19,5.03-11.32,13.03c-0.21,13.29-0.11,26.58-0.13,39.86
		c0,1.26,0,2.51,0,4.13c-7.06,0-13.78,0.04-20.5-0.07c-0.62-0.01-1.29-1-1.8-1.65c-0.21-0.27-0.05-0.83-0.05-1.26
		c0-23.25,0-46.51,0.01-69.76c0-0.72,0.11-1.44,0.2-2.5c6.45,0,12.75-0.06,19.04,0.09c0.6,0.01,1.52,1.24,1.67,2.02
		c0.27,1.41,0.08,2.91,0.08,4.83c0.9-0.5,1.44-0.64,1.73-0.99c8.18-9.87,18.79-10.12,29.84-7.01c10.71,3.02,15.33,11.38,16.78,21.73
		c0.58,4.11,0.59,8.32,0.61,12.48c0.07,12.75,0.03,25.51,0.03,38.26C972.87,130.51,972.87,131.66,972.87,133.05z"/>
	<path class="st0" d="M624.18,57.98c7.32,0,14.36,0,21.9,0c0,1.18,0,2.31,0,3.44c0,12.22-0.04,24.45,0.03,36.67
		c0.01,2.55,0.24,5.14,0.71,7.65c1.16,6.08,4.7,8.89,11.06,9.06c7.4,0.19,11.71-2.57,13.13-8.69c0.52-2.27,0.74-4.66,0.75-7
		c0.07-12.44,0.03-24.88,0.03-37.31c0-1.16,0-2.32,0-3.74c7.48,0,14.7,0,22.37,0c0,1.07,0,2.1,0,3.13c0,22.84-0.05,45.68,0.07,68.52
		c0.01,2.9-0.86,3.66-3.65,3.56c-5.65-0.2-11.31-0.06-17.2-0.06c-0.11-2.51-0.21-4.69-0.35-7.63c-1.7,1.77-2.84,3.12-4.14,4.27
		c-7.37,6.48-16.03,7.01-25.03,4.93c-11.9-2.74-19.13-11.41-19.56-24.95C623.76,92.71,624.18,75.55,624.18,57.98z"/>
	<path class="st0" d="M325.64,133.7c-7.5,0-14.54,0-21.79,0c0-24.95,0-49.77,0-74.87c6.61,0,13.29,0,20.24,0
		c0.11,2.01,0.22,4.07,0.38,6.9c1.12-1.05,1.82-1.59,2.38-2.25c5.51-6.42,12.72-8.11,20.78-7.67c6.49,0.35,12.38,2.05,17.3,6.53
		c5.52,5.03,7.83,11.69,8.07,18.68c0.57,16.91,0.46,33.85,0.61,50.77c0,0.52-0.14,1.04-0.26,1.78c-7.31,0-14.52,0-22.11,0
		c-0.06-1.18-0.17-2.42-0.17-3.65c-0.01-12.33,0-24.66-0.02-36.99c0-1.82-0.11-3.64-0.31-5.45c-0.78-7.32-4.89-11-12.08-10.91
		c-7.23,0.1-12.25,4.48-12.44,11.54c-0.37,13.7-0.41,27.41-0.58,41.11C325.62,130.63,325.64,132.01,325.64,133.7z"/>
	<path class="st0" d="M1320.12,86.29c-6.99,0-13.94,0.07-20.89-0.09c-0.83-0.02-1.93-1.18-2.39-2.07
		c-5.3-10.23-21.95-10.97-28.85-3.03c-6.35,7.3-6.5,20.74,0.2,28.17c5.71,6.33,17.06,7.26,24.39,1.8c1.75-1.3,2.92-3.36,4.47-4.96
		c0.66-0.69,1.6-1.55,2.43-1.57c6.11-0.13,12.22-0.08,18.33-0.07c0.74,0,1.48,0.08,2.23,0.12c-1.61,13.82-17.22,30.26-37.02,30.68
		c-23.43,0.49-41.56-15.95-42.3-39.04c-0.67-20.89,14.58-40.3,38.37-41.29C1302.24,53.95,1317.81,70.83,1320.12,86.29z"/>
	<path class="st0" d="M1088.62,110.9c7.4,0,14.56,0,21.69,0c2.92,6.16,7.22,8.4,12.71,6.05c1.77-0.76,3.51-2.78,4.19-4.62
		c0.98-2.65-0.76-4.88-3.22-5.9c-5.63-2.35-11.34-4.49-17.07-6.61c-5.18-1.92-10.16-4.22-13.62-8.69
		c-6.04-7.79-4.94-18.99,2.44-27.03c10.99-11.96,33.76-12.39,45.16-0.85c3.76,3.81,6.35,9.97,6.15,15.1
		c-6.69,0-13.4,0.04-20.11-0.07c-0.54-0.01-1.28-0.91-1.56-1.56c-1.84-4.27-8.94-5.62-12.21-2.26c-2.16,2.22-1.97,5.58,0.91,7.09
		c3.57,1.87,7.45,3.15,11.22,4.6c4.48,1.72,9.16,3.02,13.48,5.07c12.01,5.68,13.24,19.14,8.55,28.88
		c-3.77,7.83-10.39,12.13-18.52,14.12c-10.9,2.66-21.33,1.42-30.59-5.36C1092.28,124.51,1089.43,118.34,1088.62,110.9z"/>
	<path class="st0" d="M160.82,75.21c0,19.69,0,38.93,0,58.4c-7.51,0-14.74,0-22.34,0c0-19.24,0-38.57,0-58.29
		c-3.82,0-7.28,0-10.97,0c0-5.8,0-11.21,0-17.04c3.52,0,7,0,10.79,0c0-8.61,0-16.81,0-25.18c7.56,0,14.79,0,22.38,0
		c0,8.22,0,16.41,0,25.1c3.8,0,7.26,0,10.99,0c0,5.41,0.08,10.32-0.1,15.22c-0.02,0.63-1.42,1.65-2.25,1.72
		C166.67,75.35,163.99,75.21,160.82,75.21z"/>
	<path class="st0" d="M389.58,75.17c-4.04,0-7.43,0-11.01,0c0-5.61,0-10.91,0-16.61c2.8,0,5.55-0.09,8.3,0.03
		c1.99,0.09,2.59-0.69,2.57-2.62c-0.08-6.43-0.03-12.86-0.03-19.29c0-1.14,0-2.29,0-3.61c7.57,0,14.71,0,22.41,0
		c0,1.48,0,3.03,0,4.58c0,6,0.08,12-0.04,18c-0.05,2.25,0.72,3.08,2.96,2.94c2.54-0.15,5.09-0.04,7.79-0.04c0,5.63,0,10.92,0,16.65
		c-2.26,0-4.37,0-6.48,0c-4.23,0-4.24,0-4.24,4.1c0,16.72,0,33.43,0,50.15c0,1.28,0,2.57,0,4.11c-7.35,0-14.57,0-22.23,0
		C389.58,114.34,389.58,95.03,389.58,75.17z"/>
	<path class="st0" d="M179.04,33c7.68,0,14.74,0,22.06,0c0,33.51,0,66.97,0,100.81c-6.82,0-13.64,0.04-20.46-0.07
		c-0.53-0.01-1.25-0.9-1.51-1.53c-0.27-0.64-0.08-1.48-0.08-2.23c0-31.07,0-62.14,0-93.21C179.04,35.63,179.04,34.48,179.04,33z"/>
	<path class="st0" d="M1328.44,57.55c7.14,0,14.16,0,21.42,0c0.07,1.22,0.17,2.26,0.17,3.3c0.01,22.84-0.04,45.68,0.07,68.51
		c0.01,2.9-0.68,3.97-3.74,3.82c-5.24-0.25-10.5-0.1-15.76-0.05c-1.66,0.02-2.59-0.35-2.59-2.3c0.06-24.12,0.07-48.25,0.1-72.37
		C1328.11,58.27,1328.25,58.07,1328.44,57.55z"/>
	<path class="st0" d="M1349.77,48.82c-7.27,0-14.29,0-21.52,0c0-5.45,0-10.75,0-16.31c7.03,0,14.14,0,21.52,0
		C1349.77,37.78,1349.77,43.15,1349.77,48.82z"/>
</g>
</svg>
