<?xml version="1.0" encoding="utf-8"?>
<!-- Generator: Adobe Illustrator 24.2.3, SVG Export Plug-In . SVG Version: 6.00 Build 0)  -->
<svg version="1.1" id="Layer_1" xmlns="http://www.w3.org/2000/svg" xmlns:xlink="http://www.w3.org/1999/xlink" x="0px" y="0px"
	 viewBox="0 0 541 87" style="enable-background:new 0 0 541 87;" xml:space="preserve">
<style type="text/css">
	.st0{fill:#292F36;}
	.st1{enable-background:new    ;}
</style>
<g>
	<path class="st0" d="M114.5,48.1c1.7,1.2,3,2.8,4.4,4.3c1.2,1.4,2.2,2.8,3,4.5c1.2,2.9,1.7,5.8,0.5,8.8c-1.3,3.2-4,4.6-7.3,3.6
		c-2-0.6-3.9-1.4-5.8-2.2c-3.4-1.4-6.5-1-9.3,1.4c-1.4,1.2-2.8,2.4-4.2,3.5c-1.2,0.9-2.5,1.5-4.1,1.4c-2.4-0.2-4.1-1.6-5.3-3.6
		c-1.5-2.6-1.8-5.6-1.2-8.5c0.3-1.8,1.1-3.5,1.7-5.2c1.4-4,4.1-6.8,7.8-8.9c2.2-1.2,4.6-1.8,6.9-2C106.4,44.3,110.6,45.4,114.5,48.1
		z"/>
	<path class="st0" d="M98.9,33.7c0.3,3.1-0.4,5.9-2.2,8.4c-1.4,1.8-3.1,3-5.5,3c-2.2,0-4-1-5.5-2.5c-4.1-4.2-5-11.2-2.3-16.3
		c2.5-4.6,8.2-5.3,11.6-1.7c2.1,2.2,3.4,4.7,3.7,7.7C98.8,32.7,98.9,33.2,98.9,33.7z"/>
	<path class="st0" d="M115.6,38c-1.2,2.3-3,4-5.7,4.3c-2.5,0.3-4.7-0.8-6.3-2.6c-3.7-4.1-4.5-9-3-14.2c0.6-2.1,1.9-4,3.8-5.1
		c2.7-1.6,6.2-1,8.6,1.4c2.2,2.2,3.5,4.8,3.7,7.9C117.3,32.7,117,35.4,115.6,38z"/>
	<path class="st0" d="M72.9,44.4c1.8-3.6,6.1-4.2,8.9-1.9c3.4,2.7,4.6,9.2,2.4,13c-2.2,3.9-6.3,4.5-9.5,1.3c-1.7-1.6-2.5-3.7-2.8-6
		C71.6,48.6,71.8,46.5,72.9,44.4z"/>
	<path class="st0" d="M117.4,39.5c0.7-1.9,1.6-3.5,3.5-4.3c2.5-1,4.7-0.5,6.6,1.3c2.9,2.8,3.8,8.8,2,12.3c-2.3,4.3-7,4.8-10.1,1
		c-1.3-1.6-2-3.4-2.1-5.4C116.9,42.8,116.8,41.2,117.4,39.5z"/>
</g>
<g class="st1">
	<path class="st0" d="M70.1,55c0,10.2-9.9,19-30.2,19c-6.2,0-17.1-1.2-21.8-2.1c0-1,0.3-11.1,0.3-27.4c0-18.7-0.6-25-0.6-25.9
		c6.7-1,17.3-2,25.1-2c15,0,25.1,4.8,25.1,14.1c0,6.9-5.5,11.8-11.8,14C67.1,45.7,70.1,49.2,70.1,55z M41.1,29.9
		c-2.8,0-5.6,0.2-8.2,0.4c0,2.6-0.1,6.2-0.1,11.1c17.4-0.1,19.4-4.3,19.4-7.5C52.2,31.3,51,29.9,41.1,29.9z M55,55.1
		c0-1.7-0.8-3-12.5-3c-3.9,0-7.1,0.1-9.7,0.2c0,3,0.1,5.5,0.1,7.6c2.2,0.2,4.9,0.4,8.1,0.4C54.4,60.4,55,56.7,55,55.1z"/>
	<path class="st0" d="M173,31.5l-3,12.7c-0.9-0.4-3.6-1.7-8.4-1.7c-3.7,0-8.6,0.7-11.4,2.1v5.7c0,17.7,0.3,21.8,0.3,22.9
		c-1.3,0-4.2-0.2-7.8-0.2c-4.1,0-6.5,0.2-7.6,0.2c0-1.2,0.3-5.2,0.3-22.9c0-11.7-1.1-19.9-1.1-20.9l15.1-2.7c0,1.1,0.5,3.8,0.7,12.5
		c1.3-5.8,5.7-12.5,14-12.5C169,26.6,171.7,29,173,31.5z"/>
	<path class="st0" d="M211.6,74.3c-4.7-6.5-14.4-21.4-16.5-25.2c0.1,13,0.3,23.1,0.3,24c-1.4,0-4.4-0.2-7.8-0.2
		c-4.1,0-6.4,0.2-7.6,0.2c0-1.2,0.3-16.7,0.3-34.2c0-6-1.6-23.9-1.6-24.9l15.8-1.4c0,1.9,0.6,14.9,0.6,26.3v9.5
		c5.2-6.2,13.1-15.2,16.9-21.4l17,0.9c-3.2,6.9-11.8,14.5-19,19.5c6.1,8,16.9,20.9,19.3,23.6L211.6,74.3z"/>
	<path class="st0" d="M307,44.7c0,24.7,0.1,27,0.2,28.5c-1,0-4.1-0.2-7-0.2c-3,0-6.1,0.2-7.5,0.2c0-1.5,0.2-3.8-0.2-28.5
		c-0.2-8.5,0.3-12.6,0.3-14.9c-4.3,14.4-11.2,39.6-12.1,42.4c-2-0.9-14.1-0.9-16.7,0c-1-2.8-8.8-27.5-13.5-41.9
		c0.1,2.6,0.2,6.7,0.2,14.4c0,22.3,0.3,27,0.2,28.5c-1.1,0-3.7-0.2-6.4-0.2c-3.6,0-6.6,0.2-7.6,0.2c0.1-1.5,0.2-8.8,0.2-28.5
		c0-18.9-0.2-25.2-0.2-26.7c2.6,0.1,21.1-0.6,24.2-1c2,8.3,3,10.3,5,17c2.8,9.5,4.6,15.6,5.7,20c1.1-3.9,2.7-9.5,5.1-18.2
		c2.1-7.9,3-10.5,4.8-18.8c4.4,0.5,23.4,1.1,25.5,1C307.1,20.6,307,28.2,307,44.7z"/>
	<path class="st0" d="M409.2,57.3l1.1,11.6C409,70.4,404,74,394.5,74c-16.2,0-19.9-10.6-19.9-20.2V40.1c-2.5,0.1-4.8,0.2-6.3,0.4
		l-0.5-9.7c0.5-0.2,2.7-1.3,7.1-2.1c0.2-4.6,0.6-8.4,0.6-9l14.5-3.6c0,0.7-0.2,6.2-0.4,11.7c12.5,0.2,19.2,1.8,20.6,2.1L409.6,40
		c-1.5,0-12.9-0.2-20.3-0.2v14.5c0,5.2,2.9,6.7,6.8,6.7C400.6,60.9,406,59.2,409.2,57.3z"/>
	<path class="st0" d="M414.8,50.3c0-13.5,10.2-23.7,25.8-23.7c9.9,0,16,4.2,20.9,7.8l-3.7,10c-5.2-2.5-10.4-4.7-15.9-4.7
		c-9,0-12.8,5.5-12.8,10.6s3.9,10.6,12.8,10.6c5.5,0,10.7-1.3,15.9-3.9l3.7,10c-4.9,3.6-11,7-20.9,7C425,74,414.8,63.7,414.8,50.3z"
		/>
	<path class="st0" d="M517.2,73.2c-1.7,0-4.6-0.2-8.5-0.2c-3.4,0-6.6,0.2-7.1,0.2c0-0.8,0.5-3.4,0.5-18.8v-7.2c0-5.2-3.5-6.2-7-6.2
		c-3.9,0-7.9,1.3-10.9,2.8c0.1,15.4,0.3,28.4,0.3,29.5c-1.4,0-4.4-0.2-7.8-0.2c-4.1,0-6.4,0.2-7.6,0.2c0-1.2,0.3-16.7,0.3-34.2
		c0-6-1.1-23.9-1.1-24.9c5.6-0.5,10.5-1,16.2-1.4c0,1.8-0.2,13.8-0.2,24.8c2-5.2,8.5-10.9,17.6-10.9c9,0,15.3,5.8,15.3,16.7v9.9
		C517.2,68.2,517.2,72.3,517.2,73.2z"/>
</g>
<g>
	<path class="st0" d="M340.5,45.3c2.3,0.2,4.7,0.8,6.9,2c3.6,2,6.3,4.9,7.8,8.9c0.6,1.7,1.4,3.4,1.7,5.2c0.6,2.9,0.3,5.8-1.2,8.5
		c-1.2,2-2.9,3.4-5.3,3.6c-1.5,0.2-2.9-0.5-4.1-1.4c-1.4-1.1-2.8-2.3-4.2-3.5c-2.8-2.4-5.9-2.8-9.4-1.4c-1.9,0.8-3.8,1.6-5.8,2.2
		c-3.2,1-6-0.5-7.3-3.6c-1.2-3-0.7-6,0.5-8.8c0.7-1.7,1.7-3.1,3-4.5c1.4-1.5,2.7-3.1,4.4-4.3C331.4,45.4,335.7,44.3,340.5,45.3z"/>
	<path class="st0" d="M343.4,32.2c0.2-3,1.6-5.5,3.7-7.7c3.4-3.6,9.1-2.9,11.6,1.7c2.7,5.1,1.8,12.1-2.3,16.3
		c-1.5,1.5-3.3,2.5-5.5,2.5c-2.3,0-4.1-1.1-5.5-3c-1.9-2.5-2.5-5.3-2.2-8.4C343.2,33.2,343.3,32.7,343.4,32.2z"/>
	<path class="st0" d="M325.3,29.8c0.3-3.1,1.5-5.8,3.7-7.9c2.5-2.4,6-3,8.6-1.4c2,1.2,3.2,3,3.8,5.1c1.5,5.2,0.7,10.1-3,14.2
		c-1.7,1.8-3.8,2.9-6.3,2.6c-2.8-0.3-4.5-2-5.7-4.3C325.1,35.4,324.7,32.7,325.3,29.8z"/>
	<path class="st0" d="M370.1,50.9c-0.3,2.3-1.1,4.4-2.8,6c-3.2,3.1-7.3,2.5-9.5-1.3c-2.1-3.8-1-10.3,2.4-13c2.8-2.2,7.1-1.7,8.9,1.9
		C370.2,46.5,370.4,48.6,370.1,50.9z"/>
	<path class="st0" d="M324.8,44.5c-0.1,2-0.8,3.8-2.1,5.4c-3.1,3.8-7.9,3.3-10.1-1c-1.9-3.5-0.9-9.6,2-12.3c1.9-1.8,4.1-2.3,6.6-1.3
		c1.9,0.8,2.9,2.5,3.5,4.3C325.2,41.2,325.2,42.8,324.8,44.5z"/>
</g>
</svg>
