<?xml version="1.0" encoding="utf-8"?>
<!-- Generator: Adobe Illustrator 24.2.3, SVG Export Plug-In . SVG Version: 6.00 Build 0)  -->
<svg version="1.1" id="Layer_1" xmlns="http://www.w3.org/2000/svg" xmlns:xlink="http://www.w3.org/1999/xlink" x="0px" y="0px"
	 viewBox="0 0 143.5 171.3" style="enable-background:new 0 0 143.5 171.3;" xml:space="preserve">
<style type="text/css">
	.st0{opacity:0.15;}
	.st1{fill:#5ECDB3;}
</style>
<g class="st0">
	<path class="st1" d="M98.2,128.5c3.5,0.3,7.1,1.2,10.5,3c5.6,3.2,9.7,7.4,11.9,13.5c0.9,2.6,2.1,5.2,2.6,7.9
		c0.9,4.4,0.5,9-1.8,12.9c-1.8,3-4.4,5.2-8.1,5.5c-2.4,0.2-4.4-0.8-6.2-2.1c-2.1-1.7-4.3-3.5-6.4-5.3c-4.3-3.6-9-4.3-14.1-2.1
		c-2.9,1.2-5.8,2.4-8.8,3.3c-5,1.5-9.1-0.6-11.1-5.5c-1.8-4.6-1.1-9,0.8-13.4c1.2-2.6,2.7-4.7,4.6-6.8c2.1-2.3,4.1-4.7,6.7-6.5
		C84.5,128.8,90.9,127.1,98.2,128.5z"/>
	<path class="st1" d="M102.6,108.9c0.5-4.6,2.4-8.4,5.6-11.7c5.2-5.5,13.8-4.4,17.6,2.6c4.1,7.7,2.7,18.4-3.5,24.8
		c-2.3,2.3-5,3.8-8.4,3.8c-3.6,0-6.2-1.8-8.4-4.6c-2.7-3.8-3.8-8.1-3.3-12.8C102.3,110.2,102.5,109.5,102.6,108.9z"/>
	<path class="st1" d="M75.3,104.9c0.3-4.7,2.3-8.7,5.6-12c3.6-3.6,9-4.6,13.1-2.1c2.9,1.7,4.9,4.6,5.8,7.7
		c2.3,7.9,1.1,15.3-4.6,21.6c-2.4,2.7-5.8,4.4-9.6,4c-4.1-0.5-6.8-3-8.7-6.5C74.8,113.6,74.4,109.5,75.3,104.9z"/>
	<path class="st1" d="M143.3,137c-0.5,3.5-1.7,6.7-4.3,9.1c-4.9,4.9-11.1,4-14.4-2c-3.3-5.8-1.5-15.7,3.6-19.8
		c4.3-3.5,10.8-2.6,13.5,2.9C143.5,130.4,143.8,133.6,143.3,137z"/>
	<path class="st1" d="M74.4,127.2c-0.2,3-1.2,5.8-3.2,8.2c-4.7,5.8-11.9,5-15.3-1.5c-2.7-5.3-1.4-14.4,3-18.7c2.9-2.7,6.2-3.5,10-2
		c2.9,1.2,4.3,3.6,5.3,6.5C75.1,122.4,75,124.8,74.4,127.2z"/>
</g>
<g class="st0">
	<path class="st1" d="M68.1,45.9c2.6,1.8,4.6,4.3,6.7,6.5c1.8,2.1,3.3,4.3,4.6,6.8c1.8,4.4,2.6,8.8,0.8,13.4c-2,4.9-6.1,7-11.1,5.5
		c-3-0.9-5.9-2.1-8.8-3.3c-5.2-2.1-9.9-1.5-14.1,2.1c-2.1,1.8-4.3,3.6-6.4,5.3c-1.8,1.4-3.8,2.3-6.2,2.1c-3.6-0.3-6.2-2.4-8.1-5.5
		c-2.3-4-2.7-8.5-1.8-12.9c0.5-2.7,1.7-5.3,2.6-7.9c2.1-6.1,6.2-10.3,11.9-13.5c3.3-1.8,7-2.7,10.5-3C55.8,40.2,62.2,41.8,68.1,45.9
		z"/>
	<path class="st1" d="M44.4,24.1c0.5,4.7-0.6,9-3.3,12.8c-2.1,2.7-4.7,4.6-8.4,4.6c-3.3,0-6.1-1.5-8.4-3.8c-6.2-6.4-7.6-17-3.5-24.8
		c3.8-7,12.5-8.1,17.6-2.6c3.2,3.3,5.2,7.1,5.6,11.7C44.3,22.5,44.4,23.3,44.4,24.1z"/>
	<path class="st1" d="M69.8,30.6c-1.8,3.5-4.6,6.1-8.7,6.5c-3.8,0.5-7.1-1.2-9.6-4c-5.6-6.2-6.8-13.7-4.6-21.6
		c0.9-3.2,2.9-6.1,5.8-7.7c4.1-2.4,9.4-1.5,13.1,2.1c3.3,3.3,5.3,7.3,5.6,12C72.4,22.5,71.9,26.7,69.8,30.6z"/>
	<path class="st1" d="M4.9,40.3c2.7-5.5,9.3-6.4,13.5-2.9c5.2,4.1,7,14,3.6,19.8c-3.3,5.9-9.6,6.8-14.4,2c-2.6-2.4-3.8-5.6-4.3-9.1
		C2.9,46.7,3.2,43.5,4.9,40.3z"/>
	<path class="st1" d="M72.5,32.9c1.1-2.9,2.4-5.3,5.3-6.5c3.8-1.5,7.1-0.8,10,2c4.4,4.3,5.8,13.4,3,18.7c-3.4,6.4-10.5,7.2-15.2,1.4
		c-2-2.4-3-5.2-3.2-8.2C71.8,37.9,71.6,35.5,72.5,32.9z"/>
</g>
</svg>
